<svg xmlns="http://www.w3.org/2000/svg" viewBox="0 0 119.6 102.65"><defs><style>.cls-1,.cls-13{opacity:0.1;}.cls-2{fill:#dcba4d;}.cls-3{fill:#ffe97b;}.cls-4{fill:#ffda00;}.cls-5{fill:#ffbc00;}.cls-6{fill:#ff9e03;}.cls-7{fill:#ffc200;}.cls-8{isolation:isolate;}.cls-9{opacity:0.05;}.cls-10,.cls-11,.cls-12,.cls-13,.cls-14,.cls-15,.cls-16,.cls-41{fill:#def4ff;}.cls-10,.cls-23{opacity:0;}.cls-11{opacity:0.03;}.cls-12{opacity:0.07;}.cls-14{opacity:0.13;}.cls-15,.cls-21{opacity:0.17;}.cls-16{opacity:0.2;}.cls-17,.cls-18,.cls-19,.cls-20,.cls-21,.cls-22,.cls-23{fill:#fff;}.cls-17{opacity:0.5;}.cls-18{opacity:0.42;}.cls-19{opacity:0.33;}.cls-20{opacity:0.25;}.cls-22{opacity:0.08;}.cls-24{fill:#ffb206;}.cls-25{fill:#231d21;}.cls-26{fill:#31282e;}.cls-27{fill:#efb185;}.cls-28{fill:#d32276;}.cls-29{fill:#e62b7c;}.cls-30{fill:#1e1b21;}.cls-31{fill:#e8a476;}.cls-32{fill:#db9669;}.cls-33{fill:#f1b287;}.cls-34{fill:#b4b9bc;}.cls-35{fill:#7d8183;}.cls-36{fill:#e3e5e5;}.cls-37{fill:#bdbbbb;}.cls-38{fill:#d2d0d0;}.cls-39{fill:#d5dfe6;}.cls-40{fill:#e9f0f4;}</style></defs><title>Zasób 15</title><g id="Warstwa_2" data-name="Warstwa 2"><g id="Layer_1" data-name="Layer 1"><g class="cls-1"><polygon points="89.97 85.76 60.63 102.66 0 68.9 30.28 51.3 89.97 85.76"/></g><g class="cls-1"><polygon points="119.6 68.89 90.26 85.79 29.64 52.04 59.92 34.44 119.6 68.89"/></g><polygon class="cls-2" points="111.79 67.52 89.94 80.22 37.45 49.91 59.3 37.22 111.79 67.52"/><polygon class="cls-3" points="109.71 53.92 89.68 65.56 41.55 37.77 61.58 26.13 109.71 53.92"/><polygon class="cls-3" points="61.58 26.13 44.05 37.77 89.68 65.56 109.71 53.92 61.58 26.13"/><polygon class="cls-4" points="89.96 65.79 108.01 53.92 61.58 26.13 44.05 37.77 89.96 65.79"/><polygon class="cls-5" points="89.94 80.22 89.68 65.56 109.71 53.92 111.79 67.52 89.94 80.22"/><polygon class="cls-6" points="41.55 37.77 37.45 49.91 89.94 80.22 89.68 65.56 41.55 37.77"/><polygon class="cls-5" points="43.13 53.19 54.63 45.32 60.6 48.77 49.24 56.72 43.13 53.19"/><polygon class="cls-5" points="53.9 59.34 65.39 51.47 71.37 54.92 60.01 62.87 53.9 59.34"/><polygon class="cls-5" points="75.14 71.64 86.32 63.62 89.68 65.56 78.73 73.74 75.14 71.64"/><polygon class="cls-7" points="103.01 52.42 87.52 61.25 48.76 37.77 62.63 29.17 103.01 52.42"/><g class="cls-8"><path class="cls-4" d="M76.57,40.38c2.51,1.45,2.22,3.49-.48,5.06a9.25,9.25,0,0,1-9.06.33c-2.42-1.39-2.26-3.46.49-5.06A9.49,9.49,0,0,1,76.57,40.38Zm-8.51,4.88c1.88,1.08,4.65.7,6.72-.5,1.82-1.06,2.75-2.71.78-3.85s-4.74-.65-6.74.51-2.63,2.76-.76,3.84Z"/><polygon class="cls-4" points="83.27 44.43 75.14 49.15 79.06 51.41 78.08 51.99 72.98 49.04 82.09 43.74 83.27 44.43"/><path class="cls-4" d="M93.68,51.67c.08.91-.5,1.8-2,2.65a9.67,9.67,0,0,1-4.88,1.3A10.94,10.94,0,0,1,81.47,54a21.54,21.54,0,0,1-2-1.31l9-5.2a24,24,0,0,1,2.7,1.34C92.81,49.85,93.61,50.78,93.68,51.67Zm-11,1.95a7.46,7.46,0,0,0,7.77,0c2.17-1.23,2.31-2.73-.19-4.18a10.37,10.37,0,0,0-1.51-.73l-7.19,4.18a8.41,8.41,0,0,0,1.12.73Z"/></g><path class="cls-4" d="M68.44,35.75a5.42,5.42,0,0,1,1.85,1.56l-1.24.39a4.61,4.61,0,0,0-1.63-1.39,7.36,7.36,0,0,0-7.35,0c-2.31,1.34-2.27,2.94-.14,4.18a6.66,6.66,0,0,0,1.83.77l2.72-1.58L62.61,38.6l.94-.55,3,1.74-4.38,2.55A14,14,0,0,1,58.88,41c-1.39-.8-2.18-1.66-2.24-2.67s.7-1.89,2.12-2.71A9.93,9.93,0,0,1,68.44,35.75Z"/><polygon class="cls-2" points="85.08 85.29 63.23 97.99 10.74 67.69 32.59 54.99 85.08 85.29"/><polygon class="cls-3" points="83 71.69 62.97 83.33 14.84 55.54 34.87 43.91 83 71.69"/><polygon class="cls-3" points="34.87 43.91 17.34 55.54 62.97 83.33 83 71.69 34.87 43.91"/><polygon class="cls-4" points="63.25 83.57 81.3 71.69 34.87 43.91 17.34 55.54 63.25 83.57"/><polygon class="cls-5" points="63.23 97.99 62.97 83.33 83 71.69 85.08 85.29 63.23 97.99"/><polygon class="cls-6" points="14.84 55.54 10.74 67.69 63.23 97.99 62.97 83.33 14.84 55.54"/><polygon class="cls-5" points="16.42 70.96 27.92 63.09 33.89 66.54 22.53 74.49 16.42 70.96"/><polygon class="cls-5" points="27.19 77.11 38.68 69.24 44.66 72.69 33.3 80.64 27.19 77.11"/><polygon class="cls-5" points="48.43 89.41 59.61 81.39 62.97 83.33 52.02 91.52 48.43 89.41"/><polygon class="cls-7" points="76.3 70.19 60.81 79.03 22.05 55.54 35.92 46.94 76.3 70.19"/><g class="cls-8"><path class="cls-4" d="M49.86,58.16c2.51,1.45,2.22,3.49-.48,5.05a9.25,9.25,0,0,1-9.06.34c-2.42-1.4-2.27-3.46.49-5.07A9.46,9.46,0,0,1,49.86,58.16ZM41.35,63c1.88,1.09,4.65.7,6.72-.5,1.82-1.05,2.75-2.7.78-3.84s-4.74-.66-6.74.5S39.48,62,41.35,63Z"/><polygon class="cls-4" points="56.56 62.2 48.43 66.92 52.35 69.19 51.37 69.76 46.27 66.81 55.38 61.52 56.56 62.2"/><path class="cls-4" d="M67,69.44c.08.91-.5,1.8-2,2.65a9.57,9.57,0,0,1-4.88,1.3,10.94,10.94,0,0,1-5.36-1.58,21.72,21.72,0,0,1-2-1.3l9-5.21a25.88,25.88,0,0,1,2.7,1.34C66.09,67.63,66.9,68.55,67,69.44Zm-11,2a7.51,7.51,0,0,0,7.77,0c2.17-1.23,2.31-2.74-.19-4.18A8.62,8.62,0,0,0,62,66.49l-7.19,4.18a9.55,9.55,0,0,0,1.12.73Z"/></g><path class="cls-4" d="M41.73,53.52a5.3,5.3,0,0,1,1.85,1.57l-1.24.39a4.51,4.51,0,0,0-1.63-1.4,7.39,7.39,0,0,0-7.35,0c-2.31,1.35-2.27,2.94-.14,4.18a6.66,6.66,0,0,0,1.83.77l2.72-1.58L35.9,56.37l.94-.55,3,1.75-4.38,2.54a14.5,14.5,0,0,1-3.32-1.33C30.78,58,30,57.11,29.93,56.1s.7-1.89,2.12-2.71A9.93,9.93,0,0,1,41.73,53.52Z"/><g class="cls-9"><polygon points="96.36 64.57 70.37 79.03 22.31 51 47.95 36.1 96.36 64.57"/></g><path class="cls-10" d="M115.89,53.92a7.71,7.71,0,1,1-7.7-7.71A7.7,7.7,0,0,1,115.89,53.92Z"/><path class="cls-11" d="M114.69,54a6.5,6.5,0,1,1-6.5-6.5A6.49,6.49,0,0,1,114.69,54Z"/><path class="cls-12" d="M113.49,54.08a5.3,5.3,0,1,1-5.3-5.3A5.3,5.3,0,0,1,113.49,54.08Z"/><path class="cls-13" d="M112.29,54.16a4.1,4.1,0,1,1-4.1-4.09A4.09,4.09,0,0,1,112.29,54.16Z"/><path class="cls-14" d="M111.09,54.25a2.9,2.9,0,1,1-2.9-2.9A2.9,2.9,0,0,1,111.09,54.25Z"/><path class="cls-15" d="M109.89,54.33a1.7,1.7,0,1,1-1.7-1.7A1.7,1.7,0,0,1,109.89,54.33Z"/><path class="cls-16" d="M108.68,54.41a.49.49,0,1,1-.49-.49A.49.49,0,0,1,108.68,54.41Z"/><path class="cls-10" d="M70.47,83.07a7.71,7.71,0,1,1-7.71-7.7A7.71,7.71,0,0,1,70.47,83.07Z"/><path class="cls-11" d="M69.26,83.16a6.5,6.5,0,1,1-6.5-6.51A6.5,6.5,0,0,1,69.26,83.16Z"/><path class="cls-12" d="M68.06,83.24a5.3,5.3,0,1,1-5.3-5.3A5.3,5.3,0,0,1,68.06,83.24Z"/><path class="cls-13" d="M66.86,83.32a4.1,4.1,0,1,1-4.1-4.1A4.1,4.1,0,0,1,66.86,83.32Z"/><path class="cls-14" d="M65.66,83.4a2.9,2.9,0,1,1-2.9-2.89A2.9,2.9,0,0,1,65.66,83.4Z"/><path class="cls-15" d="M64.46,83.48a1.7,1.7,0,1,1-1.7-1.69A1.7,1.7,0,0,1,64.46,83.48Z"/><path class="cls-16" d="M63.25,83.57a.49.49,0,1,1-.49-.5A.49.49,0,0,1,63.25,83.57Z"/><path class="cls-10" d="M57,22.89a7.71,7.71,0,1,1-7.7-7.7A7.71,7.71,0,0,1,57,22.89Z"/><path class="cls-11" d="M55.82,23a6.5,6.5,0,1,1-6.5-6.51A6.51,6.51,0,0,1,55.82,23Z"/><path class="cls-12" d="M54.62,23.06a5.3,5.3,0,1,1-5.3-5.3A5.3,5.3,0,0,1,54.62,23.06Z"/><path class="cls-13" d="M53.42,23.14a4.1,4.1,0,1,1-4.1-4.1A4.1,4.1,0,0,1,53.42,23.14Z"/><path class="cls-14" d="M52.22,23.22a2.9,2.9,0,1,1-2.9-2.89A2.9,2.9,0,0,1,52.22,23.22Z"/><path class="cls-15" d="M51,23.3a1.69,1.69,0,1,1-1.69-1.69A1.69,1.69,0,0,1,51,23.3Z"/><path class="cls-16" d="M49.81,23.39a.49.49,0,1,1-.49-.5A.49.49,0,0,1,49.81,23.39Z"/><polygon class="cls-17" points="63.11 83.29 81.16 71.41 34.73 43.63 17.2 55.27 63.11 83.29"/><polygon class="cls-18" points="63.61 80.95 82.31 68.66 34.21 39.88 16.05 51.93 63.61 80.95"/><polygon class="cls-19" points="64.11 78.62 83.45 65.9 33.7 36.12 14.9 48.59 64.11 78.62"/><polygon class="cls-20" points="64.61 76.29 84.6 63.14 33.18 32.37 13.76 45.26 64.61 76.29"/><polygon class="cls-21" points="65.11 73.95 85.75 60.38 32.66 28.61 12.61 41.92 65.11 73.95"/><polygon class="cls-22" points="65.61 71.62 86.89 57.62 32.14 24.86 11.47 38.58 65.61 71.62"/><polygon class="cls-23" points="66.11 69.29 88.04 54.86 31.63 21.11 10.32 35.25 66.11 69.29"/><polygon class="cls-2" points="99.64 64.28 77.79 76.98 25.3 46.67 47.15 33.98 99.64 64.28"/><polygon class="cls-3" points="97.56 50.68 77.53 62.32 29.4 34.53 49.43 22.89 97.56 50.68"/><polygon class="cls-3" points="49.43 22.89 31.9 34.53 77.53 62.32 97.56 50.68 49.43 22.89"/><polygon class="cls-4" points="77.81 62.55 95.86 50.68 49.43 22.89 31.9 34.53 77.81 62.55"/><polygon class="cls-24" points="77.79 76.98 77.53 62.32 97.56 50.68 99.64 64.28 77.79 76.98"/><polygon class="cls-6" points="29.4 34.53 25.3 46.67 77.79 76.98 77.53 62.32 29.4 34.53"/><polygon class="cls-5" points="30.98 49.95 42.48 42.08 48.45 45.53 37.09 53.48 30.98 49.95"/><polygon class="cls-5" points="41.75 56.1 53.24 48.23 59.22 51.68 47.86 59.63 41.75 56.1"/><polygon class="cls-5" points="62.99 68.4 74.17 60.38 77.53 62.32 66.58 70.5 62.99 68.4"/><polygon class="cls-7" points="90.86 49.18 75.37 58.02 36.61 34.53 50.48 25.93 90.86 49.18"/><g class="cls-8"><path class="cls-4" d="M64.42,37.15c2.51,1.45,2.22,3.49-.48,5.05a9.25,9.25,0,0,1-9.06.33c-2.42-1.39-2.26-3.46.49-5.06A9.46,9.46,0,0,1,64.42,37.15ZM55.91,42c1.88,1.09,4.65.7,6.72-.5,1.82-1.06,2.75-2.7.78-3.84s-4.74-.66-6.74.5S54,40.94,55.91,42Z"/><polygon class="cls-4" points="71.12 41.19 62.99 45.91 66.92 48.17 65.93 48.75 60.83 45.8 69.94 40.51 71.12 41.19"/><path class="cls-4" d="M81.53,48.43c.08.91-.5,1.8-2,2.65a9.67,9.67,0,0,1-4.88,1.3,10.94,10.94,0,0,1-5.36-1.58,21.72,21.72,0,0,1-2-1.3l9-5.21A25.88,25.88,0,0,1,79,45.63C80.66,46.61,81.46,47.54,81.53,48.43Zm-11,2a7.46,7.46,0,0,0,7.77,0c2.17-1.23,2.31-2.73-.19-4.17a9.62,9.62,0,0,0-1.51-.74l-7.19,4.18a7.52,7.52,0,0,0,1.12.73Z"/></g><path class="cls-4" d="M56.29,32.51a5.42,5.42,0,0,1,1.85,1.56l-1.24.39a4.61,4.61,0,0,0-1.63-1.39,7.39,7.39,0,0,0-7.35,0c-2.31,1.35-2.27,2.94-.14,4.18a6.66,6.66,0,0,0,1.83.77l2.72-1.58-1.87-1.08.94-.55,3,1.75L50,39.1a14.28,14.28,0,0,1-3.31-1.33c-1.39-.81-2.18-1.67-2.24-2.68s.7-1.89,2.12-2.71A9.93,9.93,0,0,1,56.29,32.51Z"/><polygon class="cls-17" points="77.74 62.93 95.79 51.06 49.36 23.27 31.82 34.91 77.74 62.93"/><polygon class="cls-18" points="78.24 60.6 96.93 48.3 48.84 19.52 30.68 31.58 78.24 60.6"/><polygon class="cls-19" points="78.74 58.27 98.08 45.54 48.32 15.77 29.53 28.24 78.74 58.27"/><polygon class="cls-20" points="79.24 55.93 99.22 42.78 47.8 12.01 28.39 24.9 79.24 55.93"/><polygon class="cls-21" points="79.74 53.6 100.37 40.02 47.29 8.26 27.24 21.57 79.74 53.6"/><polygon class="cls-22" points="80.23 51.27 101.52 37.27 46.77 4.51 26.09 18.23 80.23 51.27"/><polygon class="cls-23" points="80.73 48.93 102.66 34.51 46.25 0.75 24.95 14.89 80.73 48.93"/><path d="M97.29,70.51a4.75,4.75,0,0,0,.7,2.13c.59.74,3.34,2.48,3.13,3.24s-2.19.79-3.43-.48-1.56-1.48-2.09-1.6a1.27,1.27,0,0,1-.71-2A5.46,5.46,0,0,0,97.29,70.51Z"/><path d="M93.75,73.06a5,5,0,0,0,.88,2.18c.67.75,3.67,2.38,3.5,3.19s-2.25,1-3.63-.27-1.73-1.44-2.3-1.54a1.33,1.33,0,0,1-.87-2A5.72,5.72,0,0,0,93.75,73.06Z"/><path class="cls-25" d="M86.49,52.39S96.44,58,97,59.72c.86,2.52.7,4.23.29,10.48l0,1.47a2.62,2.62,0,0,1-2.67.34c-.43-.22,0-4.34-.68-6.62A17.53,17.53,0,0,1,94,62s-8-2.79-9.91-4.51S86.49,52.39,86.49,52.39Z"/><path class="cls-26" d="M78,54.14s-1.58,3.58,2.64,5.76C85.13,62.2,89.85,65,89.85,65a24.12,24.12,0,0,0,.23,4.54c.48,2.3,1.18,5.31,1.18,5.31s1.91.78,3-.28c0,0,.11-11.08-1.2-12.33S85.24,56,85.24,56l1.25-3.64Z"/><path class="cls-25" d="M80.66,59.9C85.13,62.2,89.85,65,89.85,65a24.12,24.12,0,0,0,.23,4.54c.48,2.3.82,5.2.82,5.2a6.17,6.17,0,0,0,1.16.25c-.66-3-1-9.6-1.26-10.82-.38-1.51-5.09-3.12-8.44-4.9A6.72,6.72,0,0,1,78.85,54l-.83.17S76.44,57.72,80.66,59.9Z"/><path class="cls-26" d="M97.66,70c.42-6.25.24-7.76-.62-10.28-.6-1.76-10.55-7.33-10.55-7.33a11.67,11.67,0,0,0-1.16,1c2.68,1.32,9.11,4.66,10.31,6.92,1.38,2.58.35,9.79.49,11.85a6.28,6.28,0,0,0,1.45-.36Z"/><path class="cls-27" d="M90.94,50.22s1.4-.24,2,.27,1.08.66,1.34,1.19,0,.79-.51.77a4.6,4.6,0,0,1-1.93-.71,1.7,1.7,0,0,0-1-.38C90.56,51.32,90.27,50.65,90.94,50.22Z"/><path class="cls-28" d="M84.84,39.41c.68-.07,1.78.31,1.74,2.12s-.22,6.87-.22,6.87S91,49.8,91.56,50a1.25,1.25,0,0,0-.72,1.41s-5.42.11-6.39-1.19S82.05,39.73,84.84,39.41Z"/><path class="cls-29" d="M76.91,43s1.63-2.81,8.08-3.73c0,0,1-.43.93,2.91a3.61,3.61,0,0,0,.82,1.74c.34.44,1.24,2.11-.73,4.11,0,0-.76,3,.15,4.89.81,1.72-3.43,3.4-7,3.05-.45,0-1.43-.33-1-1.88s1.3-4.27.58-7.12S76.43,44.47,76.91,43Z"/><path class="cls-28" d="M76.91,43c-.48,1.45,1,1.11,1.75,4s-.2,5.57-.58,7.12.59,1.84,1,1.88a10.93,10.93,0,0,0,1.81,0c-1.26-2.78.36-7.81.44-10.58a4.5,4.5,0,0,0-2.58-4.1A5.87,5.87,0,0,0,76.91,43Z"/><path class="cls-30" d="M83.83,34.12s-.42,3.33-.62,6.51a1.06,1.06,0,0,0,1.31,1s2.41-3.76.48-7.51a3.58,3.58,0,0,0-5.33-1.1Z"/><path class="cls-31" d="M84.52,38.49a3.1,3.1,0,0,0-.63,2.8c.15.4.51,2-2,1.36,0,0-2.57-1.32-1.8-2.09.52-.52,1-1.27.28-3.94Z"/><path class="cls-32" d="M80.12,40.56a.43.43,0,0,0-.13.25,4.62,4.62,0,0,0,4-1.18L80.93,36.9h0l-.39.29C81.07,39.4,80.6,40.08,80.12,40.56Z"/><path class="cls-33" d="M84.12,33.76s.67.23.68,2.21c0,.22.36.51.45,1.05s.2,2.76-1.08,3a3.94,3.94,0,0,1-4-2.65C79.45,35.14,81.35,32.29,84.12,33.76Z"/><path class="cls-30" d="M84,34.55s-5.67,2.07-1.42,9.39a4.54,4.54,0,0,1-4.28-2.27c-.63-1.22-.38-3.7-.18-6.05,0,0,.66-3.63,3.69-3.08C81.8,32.54,83.81,33.31,84,34.55Z"/><path class="cls-30" d="M84,34.55s1-.18,1.48,1.65c0,0-.16-5.16-5-3.61C80.43,32.59,83.34,32.74,84,34.55Z"/><path class="cls-33" d="M81.33,37.74s-.34-1.09-1-.76c-.2.1-.42.33-.12.89s.92,1.08,1.42,1Z"/><g class="cls-8"><polygon class="cls-34" points="83.59 56.03 83.57 56.33 87.91 59.43 87.93 59.13 83.59 56.03"/><polygon class="cls-35" points="87.93 59.13 87.91 59.43 96.02 55.7 96.04 55.4 87.93 59.13"/><polygon class="cls-36" points="83.59 56.03 87.93 59.13 96.04 55.4 91.7 52.31 83.59 56.03"/></g><g class="cls-8"><polygon class="cls-37" points="89.24 53.99 88.91 53.69 87.56 59.11 87.88 59.41 89.24 53.99"/><polygon class="cls-38" points="97.71 50.09 97.39 49.79 88.91 53.69 89.24 53.99 97.71 50.09"/><polygon class="cls-39" points="89.24 53.99 87.88 59.41 96.36 55.52 97.71 50.09 89.24 53.99"/><polygon class="cls-40" points="89.24 53.99 89.24 53.99 96.36 55.52 97.71 50.09 89.24 53.99"/></g><path class="cls-27" d="M84.29,52.88s1.41.19,1.84.85a6.79,6.79,0,0,1,1.13,1.92c.1.58,0,.77-.47.62A8.4,8.4,0,0,1,84.7,54.6a1.71,1.71,0,0,0-.89-.67C83.6,53.83,83.52,53.1,84.29,52.88Z"/><path class="cls-32" d="M83.81,53.93a1.71,1.71,0,0,1,.89.67,8.4,8.4,0,0,0,2.09,1.67l.17,0c-.32-.41-.85-1.11-1.33-1.69A4.36,4.36,0,0,0,83.7,53.4C83.63,53.64,83.7,53.88,83.81,53.93Z"/><path class="cls-29" d="M77.58,42.29c.68-.09,1.78.27,1.78,2.08s-.09,6.87-.09,6.87S84,52.55,84.5,52.79A1,1,0,0,0,83.83,54s-5.43.38-6.43-.9S74.8,42.65,77.58,42.29Z"/><path class="cls-29" d="M84.5,52.79c-.52-.24-5.23-1.55-5.23-1.55s.08-5.06.09-6.87-1.1-2.17-1.78-2.08a1,1,0,0,0-.48.18l0,.07s1.55.87,1.44,4.17-1.55,5.12,1.16,5.68l4.24.89A1.12,1.12,0,0,1,84.5,52.79Z"/><polygon class="cls-41" points="34.86 55.06 34.01 54.75 39.36 39.85 45.08 46.95 48.81 37.62 54.69 40.12 58.8 13.22 69.6 31.04 73.44 24.18 81.15 27.06 85.29 22.05 90.46 22.05 98.92 0 102.23 12.2 112.2 6.17 112.67 6.95 101.67 13.59 98.77 2.92 91.08 22.96 85.72 22.96 81.44 28.13 73.85 25.3 69.63 32.84 59.32 15.83 55.41 41.41 49.31 38.81 45.35 48.72 39.66 41.68 34.86 55.06"/></g></g></svg>