<svg xmlns="http://www.w3.org/2000/svg" xmlns:xlink="http://www.w3.org/1999/xlink" viewBox="0 0 116.71 92.77"><defs><style>.cls-1{fill:#617713;}.cls-2{fill:#9abd1d;}.cls-3{fill:#6d9b0a;}.cls-4,.cls-42{opacity:0.2;}.cls-5{fill:#92afff;}.cls-6{fill:#def4ff;}.cls-7{fill:#bfe8f7;}.cls-8{fill:#74afe8;}.cls-9{fill:#8fc5f2;}.cls-10{fill:#ff7fb7;}.cls-11{fill:#d32075;}.cls-12{isolation:isolate;}.cls-13{clip-path:url(#clip-path);}.cls-14{clip-path:url(#clip-path-2);}.cls-15{clip-path:url(#clip-path-3);}.cls-16{clip-path:url(#clip-path-4);}.cls-17{clip-path:url(#clip-path-5);}.cls-18{clip-path:url(#clip-path-6);}.cls-19{clip-path:url(#clip-path-7);}.cls-20{clip-path:url(#clip-path-8);}.cls-21{clip-path:url(#clip-path-9);}.cls-22{clip-path:url(#clip-path-10);}.cls-23{clip-path:url(#clip-path-11);}.cls-24{clip-path:url(#clip-path-12);}.cls-25{clip-path:url(#clip-path-13);}.cls-26{clip-path:url(#clip-path-14);}.cls-27{fill:#ffebc4;}.cls-27,.cls-41{opacity:0.6;}.cls-28{opacity:0.83;}.cls-29{fill:#ffeece;}.cls-29,.cls-30{opacity:0.67;}.cls-31{fill:#fff2d8;opacity:0.73;}.cls-32{opacity:0.5;}.cls-33{fill:#fff5e2;opacity:0.8;}.cls-34{opacity:0.33;}.cls-35{fill:#fff8eb;opacity:0.87;}.cls-36{opacity:0.17;}.cls-37{fill:#fffcf5;opacity:0.93;}.cls-38{opacity:0;}.cls-39,.cls-41{fill:#fff;}.cls-40{opacity:0.3;}.cls-43{fill:#111114;}.cls-44{fill:#efb185;}.cls-45{fill:#e6a376;}.cls-46{fill:#9dbcc9;}.cls-47{fill:#cae0ea;}.cls-48{fill:#09294f;}.cls-49{fill:#16365c;}.cls-50{fill:#dd9569;}.cls-51{fill:#131c24;}.cls-52{fill:#1d2833;}.cls-53{fill:#f1b287;}</style><clipPath id="clip-path"><path class="cls-1" d="M36.74,61.42V65a.18.18,0,0,1-.1.15.59.59,0,0,1-.52,0A.18.18,0,0,1,36,65V61.42a.18.18,0,0,0,.1.15.59.59,0,0,0,.52,0A.18.18,0,0,0,36.74,61.42Z"/></clipPath><clipPath id="clip-path-2"><path class="cls-2" d="M36.68,52v3.58a.18.18,0,0,1-.11.15.57.57,0,0,1-.51,0,.18.18,0,0,1-.11-.15V52a.19.19,0,0,0,.11.15.57.57,0,0,0,.51,0A.18.18,0,0,0,36.68,52Z"/></clipPath><clipPath id="clip-path-3"><path class="cls-3" d="M43.68,53.54v3.58a.19.19,0,0,1-.1.15.59.59,0,0,1-.52,0,.17.17,0,0,1-.1-.15V53.54a.18.18,0,0,0,.1.15.59.59,0,0,0,.52,0A.17.17,0,0,0,43.68,53.54Z"/></clipPath><clipPath id="clip-path-4"><path class="cls-2" d="M43.62,44.13v3.58a.19.19,0,0,1-.11.15.57.57,0,0,1-.51,0,.19.19,0,0,1-.11-.15V44.13s0,.1.11.15a.57.57,0,0,0,.51,0C43.58,44.23,43.62,44.18,43.62,44.13Z"/></clipPath><clipPath id="clip-path-5"><path class="cls-3" d="M53,42.08v3.58a.17.17,0,0,1-.1.15.57.57,0,0,1-.51,0,.16.16,0,0,1-.11-.15V42.08a.16.16,0,0,0,.11.15.57.57,0,0,0,.51,0A.17.17,0,0,0,53,42.08Z"/></clipPath><clipPath id="clip-path-6"><path class="cls-2" d="M53,32.67v3.58a.19.19,0,0,1-.11.15.57.57,0,0,1-.51,0,.18.18,0,0,1-.1-.15V32.67a.18.18,0,0,0,.1.15.57.57,0,0,0,.51,0A.19.19,0,0,0,53,32.67Z"/></clipPath><clipPath id="clip-path-7"><path class="cls-1" d="M60.07,48.2v3.58a.17.17,0,0,1-.1.15.59.59,0,0,1-.52,0,.17.17,0,0,1-.1-.15V48.2a.17.17,0,0,0,.1.15.59.59,0,0,0,.52,0A.17.17,0,0,0,60.07,48.2Z"/></clipPath><clipPath id="clip-path-8"><path class="cls-2" d="M60,38.79v3.58a.19.19,0,0,1-.11.15.57.57,0,0,1-.51,0c-.07-.05-.11-.1-.11-.15l0-3.58c0,.05,0,.11.1.15a.57.57,0,0,0,.51,0A.19.19,0,0,0,60,38.79Z"/></clipPath><clipPath id="clip-path-9"><path class="cls-1" d="M63.2,38.74v3.58a.18.18,0,0,1-.11.15.57.57,0,0,1-.51,0,.18.18,0,0,1-.11-.15V38.74a.18.18,0,0,0,.11.15.57.57,0,0,0,.51,0A.18.18,0,0,0,63.2,38.74Z"/></clipPath><clipPath id="clip-path-10"><path class="cls-2" d="M63.14,29.33l0,3.58a.18.18,0,0,1-.1.15.57.57,0,0,1-.51,0,.19.19,0,0,1-.11-.15V29.33a.19.19,0,0,0,.11.15.57.57,0,0,0,.51,0A.19.19,0,0,0,63.14,29.33Z"/></clipPath><clipPath id="clip-path-11"><path class="cls-1" d="M72.06,34.51v3.58a.18.18,0,0,1-.1.15.57.57,0,0,1-.51,0,.17.17,0,0,1-.11-.15V34.51a.15.15,0,0,0,.11.14.52.52,0,0,0,.51,0A.16.16,0,0,0,72.06,34.51Z"/></clipPath><clipPath id="clip-path-12"><path class="cls-2" d="M72,25.09v3.58a.18.18,0,0,1-.11.15.57.57,0,0,1-.51,0,.18.18,0,0,1-.11-.15l0-3.58a.18.18,0,0,0,.1.15.57.57,0,0,0,.51,0A.18.18,0,0,0,72,25.09Z"/></clipPath><clipPath id="clip-path-13"><path class="cls-1" d="M80.63,24.55v3.58a.17.17,0,0,1-.1.14.52.52,0,0,1-.51,0c-.08,0-.11-.09-.11-.14V24.55c0,.05,0,.1.11.14a.57.57,0,0,0,.51,0A.17.17,0,0,0,80.63,24.55Z"/></clipPath><clipPath id="clip-path-14"><path class="cls-2" d="M80.57,15.13v3.58a.18.18,0,0,1-.11.15.57.57,0,0,1-.51,0,.18.18,0,0,1-.1-.15V15.13a.19.19,0,0,0,.11.15.57.57,0,0,0,.51,0A.19.19,0,0,0,80.57,15.13Z"/></clipPath></defs><title>Zasób 12</title><g id="Warstwa_2" data-name="Warstwa 2"><g id="Layer_1" data-name="Layer 1"><g class="cls-4"><polygon points="0 76.31 27.18 92.11 89.93 55.88 62.09 39.52 0 76.31"/></g><path class="cls-5" d="M24.28,91.58l-.13-45.17-1.73-1,.12,45.16A1.21,1.21,0,0,0,23,91.65l1.74,1A1.16,1.16,0,0,1,24.28,91.58Z"/><polygon class="cls-5" points="24.15 46.41 22.41 45.41 22.4 39.3 24.13 40.31 24.15 46.41"/><path class="cls-6" d="M90.17,8.3l-66,38.11.13,45.17c0,1.07.76,1.49,1.68,1L88.63,56.35a3.68,3.68,0,0,0,1.67-2.88Z"/><path class="cls-7" d="M88.47,1.24c.92-.53,1.68-.1,1.68,1l0,6.1-66,38.11,0-6.1a3.71,3.71,0,0,1,1.67-2.89Z"/><path class="cls-5" d="M88.84,1.08,89.11,1h0a1.18,1.18,0,0,1,.27,0h0a.77.77,0,0,1,.25.1h0l-1.73-1-.09,0-.08,0-.06,0h-.37a.8.8,0,0,0-.15,0l-.06,0-.06,0L87,.11l-.23.12L24.06,36.41l-.31.22-.1.09-.14.12-.06.07-.06.06-.06.07-.14.16-.05.07,0,0,0,.06-.1.14a1,1,0,0,0-.08.14v0h0l-.06.12-.08.15a.5.5,0,0,0,0,.13h0l-.06.15a.52.52,0,0,0-.06.16.24.24,0,0,0,0,.08l0,0s0,0,0,.06a1.8,1.8,0,0,0-.05.19s0,.08,0,.12,0,0,0,.06a.43.43,0,0,1,0,0,1.83,1.83,0,0,0,0,.33l1.73,1a2.58,2.58,0,0,1,0-.39v-.05l.09-.37a0,0,0,0,0,0,0,3.12,3.12,0,0,1,.15-.39v0c.06-.13.13-.26.2-.38v0a2.64,2.64,0,0,1,.23-.35l0,0,.24-.29.06-.06.22-.19.09-.09a3,3,0,0,1,.31-.22L88.47,1.24a1.66,1.66,0,0,1,.31-.14Z"/><path class="cls-8" d="M28.29,41.71a3.37,3.37,0,0,0,1.52-2.65c0-1-.69-1.35-1.53-.87a3.36,3.36,0,0,0-1.53,2.64c0,1,.7,1.36,1.54.88Z"/><path class="cls-8" d="M32.92,39a3.35,3.35,0,0,0,1.53-2.64c0-1-.69-1.36-1.54-.87a3.39,3.39,0,0,0-1.53,2.64c0,1,.7,1.36,1.54.87Z"/><path class="cls-8" d="M37.44,36.4A3.36,3.36,0,0,0,39,33.76c0-1-.69-1.36-1.54-.87a3.35,3.35,0,0,0-1.52,2.64c0,1,.69,1.36,1.53.87Z"/><path class="cls-9" d="M84.13,45.73c1.61-.92,2.9.22,4.08,3.38l-26.13,15C67.26,61,66.79,53.38,68,48.8a7.91,7.91,0,0,1,3.31-4.73c1.53-.88,3.06-.53,3.49,1.84.81,4.49.69,10.43,3.21,9s3.5-6.84,5.31-8.54A4.23,4.23,0,0,1,84.13,45.73Z"/><path class="cls-9" d="M56.64,42.85c4,3.28,1.23,23.37,5.19,21.39L28.24,83.5c.18-.55,3.45-11,6.84-12.93a1.77,1.77,0,0,1,2.46.52,40.61,40.61,0,0,0,3.07,3.57,2.66,2.66,0,0,0,3,0c1.82-1,3.78-4,4.3-10.42.72-8.82,3.43-19.8,6.57-21.61A1.7,1.7,0,0,1,56.64,42.85Z"/><path class="cls-9" d="M28.12,83.71V48l.06,0L88.34,12.54V49.18Zm.25-35.56V83.28L88.09,49V13Z"/><polygon class="cls-9" points="28.35 53.97 28.22 53.75 88.15 19.03 88.27 19.25 28.35 53.97"/><polygon class="cls-9" points="28.35 59.82 28.22 59.6 88.15 24.88 88.27 25.09 28.35 59.82"/><polygon class="cls-9" points="28.35 65.6 28.22 65.38 88.15 30.66 88.27 30.88 28.35 65.6"/><polygon class="cls-9" points="28.07 71.33 27.94 71.11 87.87 36.39 88 36.61 28.07 71.33"/><polygon class="cls-9" points="28.35 77.18 28.22 76.96 88.15 42.24 88.27 42.46 28.35 77.18"/><path class="cls-10" d="M40,54.76a.51.51,0,0,0-.42,0q-.09.06-.09.12h0v3a.15.15,0,0,0,.09.12l0,0H40L40,58h0l0,0h0v-3h0v0S40.08,54.8,40,54.76Zm.05.22,0,0h0Zm0,0v0h0ZM40,55h0v0Zm-.49,0h0Zm0-.06h0Zm0,0h0Z"/><path class="cls-11" d="M41.11,52.15v0a0,0,0,0,0,0,0,.06.06,0,0,0,0,0l0,0s0,0,0,0l0,0,0,0,0,0-.06.05,0,0,0,0,0,0,0,0-.06,0a1,1,0,0,1-.18.09l0,0-.19.06h0l-.2,0h-.55l-.21,0h0a.64.64,0,0,1-.18-.06h0l-.2-.1a.65.65,0,0,1-.39-.54v3.45a.67.67,0,0,0,.39.54l.19.09h0l.11,0,.06,0h.08l.13,0h.59l.11,0h.05l.13,0,.07,0,.05,0,0,0,.18-.08h0l0,0a.1.1,0,0,0,0,0l0,0,0,0h0a0,0,0,0,1,0,0l0-.06h0v0l0,0v0h0l0,0a0,0,0,0,0,0,0h0s0,0,0,0v0h0v-.07h0v-3.4Z"/><path class="cls-10" d="M40.73,51.57a.57.57,0,0,1,0,1.07,2,2,0,0,1-1.85,0,.57.57,0,0,1,0-1.07A2,2,0,0,1,40.73,51.57Z"/><path class="cls-11" d="M40.06,49.06h0l0,0h0l0,0,0,0h0l-.1,0h0l-.11,0h0l-.11,0h0a.25.25,0,0,1-.09,0,.15.15,0,0,1-.09-.12v3a.15.15,0,0,0,.09.13l0,0h.32l.07,0h0l0,0h0l0,0h0v0h0V49h0A0,0,0,0,0,40.06,49.06Z"/><path class="cls-10" d="M40,48.9c.12.07.12.19,0,.25a.47.47,0,0,1-.43,0,.13.13,0,0,1,0-.25A.47.47,0,0,1,40,48.9Z"/><path class="cls-10" d="M46.38,45.85a.45.45,0,0,0-.42,0,.14.14,0,0,0-.09.12h0v3s0,.09.09.13l0,0h.32l.06,0h0l0,0h0v0h0v0h0V46h0v0A.12.12,0,0,0,46.38,45.85Zm0,.21,0,0h0Zm0,0s0,0,0,0h0S46.46,46,46.45,46Zm-.05.06Zm-.49,0h0Zm0-.06h0Zm0,0h0Z"/><path class="cls-11" d="M47.48,43.23a.06.06,0,0,0,0,0,0,0,0,0,1,0,0s0,0,0,0,0,0,0,0l0,0,0,0,0,0,0,0-.06.06,0,0,0,0,0,0-.05,0,0,0-.18.09-.05,0-.2.06h0l-.2,0h-.54l-.21,0h0l-.18-.05h0l-.2-.1a.65.65,0,0,1-.39-.54v3.45a.67.67,0,0,0,.39.54l.19.09h0l.11,0,.07,0h.07l.13,0h.75l.13,0h.07l.06,0h0l.18-.09h0l0,0,0,0,0,0,0,0h0v0l.06-.06h0a0,0,0,0,0,0,0l0,0s0,0,0,0h0s0,0,0,0v0h0a.06.06,0,0,0,0,0v0h0s0,0,0,0v0h0V43.23Z"/><path class="cls-10" d="M47.09,42.65c.52.3.52.78,0,1.07a2,2,0,0,1-1.85,0,.56.56,0,0,1,0-1.07A2,2,0,0,1,47.09,42.65Z"/><path class="cls-11" d="M46.42,40.14h0v0h0l0,0h0l0,0-.09,0H46a.29.29,0,0,1-.1,0,.17.17,0,0,1-.09-.13v3a.15.15,0,0,0,.09.12l.05,0,0,0h.29l.06,0h0l0,0h0l0,0h0v-3h0A0,0,0,0,1,46.42,40.14Z"/><path class="cls-10" d="M46.34,40a.14.14,0,0,1,0,.26.54.54,0,0,1-.43,0,.14.14,0,0,1,0-.26A.54.54,0,0,1,46.34,40Z"/><path class="cls-10" d="M49,39.38a.45.45,0,0,0-.42,0,.15.15,0,0,0-.09.12h0v3a.15.15,0,0,0,.09.12l0,0h.32l.06,0h0s0,0,0,0h0l0,0h0v0h0v-3h0v0A.14.14,0,0,0,49,39.38Zm0,.21,0,0h0Zm0,0h0Zm0,.06Zm-.49,0v0Zm0-.06h0Zm0,0h0Z"/><path class="cls-11" d="M50.11,36.76a.08.08,0,0,0,0,0s0,0,0,0a.08.08,0,0,1,0,0v0l0,0,0,0,0,0,0,0-.06.06,0,0,0,0s0,0,0,0l0,0-.05,0-.19.08,0,0-.2.06h0l-.2,0h0l-.22,0h0l-.22,0h0l-.21,0h0l-.18-.06h0l-.21-.09a.67.67,0,0,1-.38-.54v3.44a.65.65,0,0,0,.39.54l.18.09h.05l.11,0h.14l.13,0h.59l.11,0h0l.13,0,.07,0,0,0,.06,0,.18-.09h0l0,0,0,0,0,0,0,0h0L50,40.5s0,0,0,0h0l0,0v0h0l0,0v0h0s0,0,0,0v0h0a.06.06,0,0,1,0,0v0h0V36.76Z"/><path class="cls-10" d="M49.72,36.18a.57.57,0,0,1,0,1.08,2.1,2.1,0,0,1-1.86,0,.57.57,0,0,1,0-1.07A2,2,0,0,1,49.72,36.18Z"/><path class="cls-11" d="M49.06,33.68h0v0h0l0,0,0,0h0l-.09,0h-.24l-.1,0c-.06,0-.09-.08-.09-.13v3c0,.05,0,.09.09.13l0,0h.32l.07,0h0a0,0,0,0,0,0,0h0v0h0v-3h0Z"/><path class="cls-10" d="M49,33.52a.13.13,0,0,1,0,.25.47.47,0,0,1-.43,0,.13.13,0,0,1,0-.25A.47.47,0,0,1,49,33.52Z"/><path class="cls-10" d="M56.41,41.44a.45.45,0,0,0-.42,0,.15.15,0,0,0-.09.12h0v3a.15.15,0,0,0,.09.12l0,0h.32l.06,0h0l0,0h0v0h0v-3h0v0A.15.15,0,0,0,56.41,41.44Zm0,.21,0,0h0Zm0,0v0h0Zm0,.05h0l0,0Zm-.49,0v0Zm0-.06v0Zm0,0h0Z"/><path class="cls-11" d="M57.51,38.82a.09.09,0,0,1,0,0,0,0,0,0,1,0,0,.08.08,0,0,1,0,0s0,0,0,0,0,0,0,0,0,0,0,0l0,.05,0,0-.05.06,0,0,0,0,0,0,0,0,0,0L57,39.4l-.05,0a.76.76,0,0,1-.2.06h0l-.2,0h-.54l-.21,0h0l-.18-.06h0a1.21,1.21,0,0,1-.2-.09.67.67,0,0,1-.39-.54v3.44a.65.65,0,0,0,.39.54.66.66,0,0,0,.19.09h0l.11,0h.14l.13,0h.59l.12,0h0l.13,0,.07,0,.06,0,0,0,.18-.09h0l0,0,0,0,0,0,0,0h0l0-.06v0h0l0-.05,0,0h0l0,0s0,0,0,0h0s0,0,0,0v0h0a.06.06,0,0,0,0,0v0h0V38.82Z"/><path class="cls-10" d="M57.12,38.24a.57.57,0,0,1,0,1.08,2,2,0,0,1-1.85,0c-.52-.3-.52-.78,0-1.07A2,2,0,0,1,57.12,38.24Z"/><path class="cls-11" d="M56.46,35.74h0l0,0h0l0,0,0,0h0a.25.25,0,0,1-.09,0H56l-.1,0a.15.15,0,0,1-.09-.12v3c0,.05,0,.09.09.13l0,0h.32l.07,0h0s0,0,0,0h0v0h0v0h0v-3h0Z"/><path class="cls-10" d="M56.37,35.58a.13.13,0,0,1,0,.25.47.47,0,0,1-.43,0,.13.13,0,0,1,0-.25A.47.47,0,0,1,56.37,35.58Z"/><path class="cls-10" d="M66.43,29.32a.45.45,0,0,0-.42,0q-.09.06-.09.12h0v3a.15.15,0,0,0,.09.12l0,0h.32l0,0h0a0,0,0,0,1,0,0l0,0h0s0,0,0,0h0v-3h0v0C66.53,29.41,66.5,29.36,66.43,29.32Zm0,.21,0,0h0Zm0,0v0h0Zm0,.05h0l0,0Zm-.49,0h0Zm0-.07h0Zm0,0h0Z"/><path class="cls-11" d="M67.53,26.71a0,0,0,0,1,0,0v0l0,0v0a.05.05,0,0,1,0,0l0,0s0,0,0,0l0,0-.05.06,0,0,0,0,0,0,0,0,0,0-.18.09h0a.76.76,0,0,1-.2.06s0,0,0,0l-.2,0H66l-.21,0h0l-.18-.06h0a1.21,1.21,0,0,1-.2-.09.67.67,0,0,1-.39-.54V30.1a.65.65,0,0,0,.39.54.66.66,0,0,0,.19.09h0l.12,0h.13l.13,0h.6l.11,0h0l.13,0,.07,0,.06,0,0,0a.76.76,0,0,0,.18-.09h0l0,0,0,0,0,0,0,0h0l0-.06v0h0l0,0,0,0h0l0,0s0,0,0,0h0l0,0v0h0v-.07h0v-3.4Z"/><path class="cls-10" d="M67.14,26.13a.56.56,0,0,1,0,1.07,2.08,2.08,0,0,1-1.85,0c-.51-.3-.52-.78,0-1.07A2,2,0,0,1,67.14,26.13Z"/><path class="cls-11" d="M66.48,23.62h0l0,0h0l0,0s0,0,0,0h0a.25.25,0,0,1-.09,0h-.24l-.1,0a.15.15,0,0,1-.09-.13v3s0,.09.09.13l0,0h.32l.07,0h0s0,0,0,0h0v0h0v-3h0Z"/><path class="cls-10" d="M66.39,23.46a.13.13,0,0,1,0,.25.47.47,0,0,1-.43,0,.13.13,0,0,1,0-.25A.47.47,0,0,1,66.39,23.46Z"/><g class="cls-12"><g class="cls-12"><path class="cls-1" d="M36.74,61.42V65a.18.18,0,0,1-.1.15.59.59,0,0,1-.52,0A.18.18,0,0,1,36,65V61.42a.18.18,0,0,0,.1.15.59.59,0,0,0,.52,0A.18.18,0,0,0,36.74,61.42Z"/><g class="cls-13"><g class="cls-12"><polygon class="cls-1" points="36.74 61.42 36.73 65 36.73 65 36.74 61.42 36.74 61.42 36.74 61.42"/><path class="cls-1" d="M36.74,61.42v0Z"/><path class="cls-1" d="M36.74,61.44v0a0,0,0,0,0,0,0Z"/><path class="cls-1" d="M36.73,61.46v3.59h0V61.48s0,0,0,0Z"/><path class="cls-1" d="M36.72,61.48v3.58s0,0,0,0V61.48Z"/><path class="cls-1" d="M36.71,61.5v3.59s0,0,0,0V61.53l0,0Z"/><path class="cls-1" d="M36.69,61.53v3.58l0,0V61.56l0,0Z"/><path class="cls-1" d="M36.64,61.56v3.58h0l-.08,0V61.6l.08,0Z"/><path class="cls-1" d="M36.56,61.6v3.58l-.07,0V61.62l.07,0Z"/><path class="cls-1" d="M36.49,61.62V65.2h0V61.62Z"/><path class="cls-1" d="M36.44,61.62v3.59h0V61.63Z"/><path class="cls-1" d="M36.4,61.63v3.58h0V61.63Z"/><path class="cls-1" d="M36.36,61.63v3.58h0V61.62Z"/><path class="cls-1" d="M36.33,61.62v3.59h0V61.62Z"/><path class="cls-1" d="M36.29,61.62V65.2h0V61.61Z"/><path class="cls-1" d="M36.26,61.61V65.2h0V61.61Z"/><path class="cls-1" d="M36.22,61.61v3.58l0,0V61.59l0,0Z"/><path class="cls-1" d="M36.18,61.59v3.58l-.06,0A.18.18,0,0,1,36,65V61.42a.18.18,0,0,0,.1.15l.06,0Z"/></g></g></g><path class="cls-1" d="M36.64,61.27a.16.16,0,0,1,0,.3.59.59,0,0,1-.52,0c-.14-.09-.14-.22,0-.3A.59.59,0,0,1,36.64,61.27Z"/></g><path class="cls-2" d="M37.67,55.56v0a0,0,0,0,1,0,0,.09.09,0,0,1,0,0v0l0,0,0,0,0,0,0,0-.06.06,0,0-.05,0s0,0,0,0l-.05,0,0,0-.19.09-.06,0-.12,0-.14,0a.86.86,0,0,1-.17,0H36l-.22,0h0l-.19-.06h0a1,1,0,0,1-.21-.1.67.67,0,0,1-.4-.56l0,6a.68.68,0,0,0,.4.56,1.21,1.21,0,0,0,.2.09h0l.12,0,.07,0h.08l.13,0h.62l.11,0h0l.14,0,.07,0,.06,0,0,0,.19-.09h0l0,0,0,0,0,0,0,0h0v0l.06-.06h0a0,0,0,0,0,0,0,.1.1,0,0,1,0,0v0h0l0,0v0h0v0a0,0,0,0,1,0,0h0v-6Z"/><path class="cls-3" d="M37.27,55a.59.59,0,0,1,0,1.11,2.12,2.12,0,0,1-1.93,0c-.53-.31-.54-.81,0-1.11A2.12,2.12,0,0,1,37.27,55Z"/><path class="cls-2" d="M36.68,52v3.58a.18.18,0,0,1-.11.15.57.57,0,0,1-.51,0,.18.18,0,0,1-.11-.15V52a.19.19,0,0,0,.11.15.57.57,0,0,0,.51,0A.18.18,0,0,0,36.68,52Z"/><g class="cls-14"><g class="cls-12"><polygon class="cls-2" points="36.68 52 36.67 55.58 36.67 55.59 36.68 52.01 36.68 52 36.68 52"/><path class="cls-2" d="M36.68,52v0Z"/><path class="cls-2" d="M36.67,52v0Z"/><path class="cls-2" d="M36.67,52.05v0Z"/><path class="cls-2" d="M36.66,52.07v3.58l0,0V52.09l0,0Z"/><path class="cls-2" d="M36.64,52.09v3.58l0,0V52.12l0,0Z"/><path class="cls-2" d="M36.62,52.12V55.7l0,0V52.15l0,0Z"/><path class="cls-2" d="M36.58,52.15v3.58h0l-.08,0V52.19l.08,0Z"/><path class="cls-2" d="M36.49,52.19v3.58l-.07,0V52.2Z"/><path class="cls-2" d="M36.42,52.2v3.59h0V52.21Z"/><path class="cls-2" d="M36.38,52.21v3.58h0V52.21Z"/><path class="cls-2" d="M36.34,52.21v3.58h0V52.21Z"/><path class="cls-2" d="M36.3,52.21v3.58h0l0-3.58Z"/><path class="cls-2" d="M36.27,52.21l0,3.58h0V52.21Z"/><path class="cls-2" d="M36.23,52.21v3.58h0V52.2Z"/><path class="cls-2" d="M36.19,52.2v3.58h0V52.19Z"/><path class="cls-2" d="M36.16,52.19v3.58h0V52.18Z"/><path class="cls-2" d="M36.11,52.18v3.58l-.05,0a.18.18,0,0,1-.11-.15V52a.19.19,0,0,0,.11.15l0,0Z"/></g></g><path class="cls-3" d="M36.57,51.86a.15.15,0,0,1,0,.29.57.57,0,0,1-.51,0,.15.15,0,0,1,0-.29A.52.52,0,0,1,36.57,51.86Z"/><g class="cls-12"><g class="cls-12"><path class="cls-3" d="M43.68,53.54v3.58a.19.19,0,0,1-.1.15.59.59,0,0,1-.52,0,.17.17,0,0,1-.1-.15V53.54a.18.18,0,0,0,.1.15.59.59,0,0,0,.52,0A.17.17,0,0,0,43.68,53.54Z"/><g class="cls-15"><g class="cls-12"><polygon class="cls-1" points="43.68 53.54 43.67 57.12 43.67 57.13 43.68 53.55 43.68 53.54 43.68 53.54"/><path class="cls-1" d="M43.68,53.55v0Z"/><path class="cls-1" d="M43.68,53.57v0Z"/><path class="cls-1" d="M43.67,53.59v0Z"/><path class="cls-1" d="M43.66,53.61v0Z"/><path class="cls-1" d="M43.65,53.63v3.58l0,0V53.65l0,0Z"/><path class="cls-1" d="M43.63,53.65v3.58l0,0V53.69l.05,0Z"/><path class="cls-1" d="M43.58,53.69v3.58h0l-.08,0V53.72l.08,0Z"/><path class="cls-1" d="M43.5,53.72V57.3l-.07,0V53.74l.07,0Z"/><path class="cls-1" d="M43.43,53.74v3.58h-.05V53.75Z"/><path class="cls-1" d="M43.38,53.75v3.58h0V53.75Z"/><path class="cls-1" d="M43.34,53.75v3.58h0V53.75Z"/><path class="cls-1" d="M43.3,53.75v3.58h0V53.75Z"/><path class="cls-1" d="M43.27,53.75v3.58h0V53.74Z"/><path class="cls-1" d="M43.23,53.74v3.59h0V53.74Z"/><path class="cls-1" d="M43.2,53.74v3.58h0V53.73Z"/><path class="cls-1" d="M43.16,53.73v3.58h0V53.71l0,0Z"/><path class="cls-1" d="M43.12,53.71V57.3l-.06,0a.17.17,0,0,1-.1-.15V53.54a.18.18,0,0,0,.1.15l.06,0Z"/></g></g></g><path class="cls-1" d="M43.58,53.39a.16.16,0,0,1,0,.3.59.59,0,0,1-.52,0,.16.16,0,0,1,0-.3A.59.59,0,0,1,43.58,53.39Z"/></g><path class="cls-2" d="M44.61,47.68v0s0,0,0,0a.06.06,0,0,1,0,0v0l0,.05,0,0,0,.05,0,0-.06.06,0,0,0,0,0,0,0,0a.1.1,0,0,0-.05,0l-.19.08-.06,0-.12,0-.14,0-.17,0H43l-.22,0h0a1.39,1.39,0,0,1-.19-.06h0a1,1,0,0,1-.21-.09.69.69,0,0,1-.4-.57l0,6a.67.67,0,0,0,.4.56,1.24,1.24,0,0,0,.2.1h0l.12,0,.07,0h.08l.13,0h.78l.14,0,.07,0,.06,0,0,0a.66.66,0,0,0,.19-.09h0l0,0,0,0,0,0s0,0,0,0h0v0l.06-.06s0,0,0,0h0l0-.05v0h0a.08.08,0,0,0,0,0v0h0s0,0,0,0a0,0,0,0,1,0,0h0v-.07h0V47.68Z"/><path class="cls-3" d="M44.21,47.08c.53.31.54.81,0,1.12a2.18,2.18,0,0,1-1.93,0c-.53-.31-.54-.81,0-1.12A2.12,2.12,0,0,1,44.21,47.08Z"/><path class="cls-2" d="M43.62,44.13v3.58a.19.19,0,0,1-.11.15.57.57,0,0,1-.51,0,.19.19,0,0,1-.11-.15V44.13s0,.1.11.15a.57.57,0,0,0,.51,0C43.58,44.23,43.62,44.18,43.62,44.13Z"/><g class="cls-16"><g class="cls-12"><polygon class="cls-2" points="43.62 44.13 43.61 47.71 43.61 47.71 43.62 44.13 43.62 44.13 43.62 44.13"/><path class="cls-2" d="M43.62,44.13v0Z"/><path class="cls-2" d="M43.61,44.15v0Z"/><path class="cls-2" d="M43.61,44.17v0Z"/><path class="cls-2" d="M43.6,44.19v3.58l0,0V44.21s0,0,0,0Z"/><path class="cls-2" d="M43.58,44.21V47.8l0,0V44.24l0,0Z"/><path class="cls-2" d="M43.56,44.24v3.58l0,0,0-3.58,0,0Z"/><path class="cls-2" d="M43.52,44.27l0,3.58h0l-.08,0V44.31l.08,0Z"/><path class="cls-2" d="M43.43,44.31v3.58l-.07,0V44.33l.07,0Z"/><path class="cls-2" d="M43.36,44.33v3.58h0V44.33Z"/><path class="cls-2" d="M43.32,44.33v3.58h0V44.34Z"/><path class="cls-2" d="M43.28,44.34v3.58h0V44.34Z"/><path class="cls-2" d="M43.24,44.34v3.58h0V44.33Z"/><path class="cls-2" d="M43.2,44.33v3.58h0V44.33Z"/><path class="cls-2" d="M43.17,44.33v3.58h0V44.32Z"/><path class="cls-2" d="M43.13,44.32V47.9h0V44.31Z"/><path class="cls-2" d="M43.1,44.31V47.9l-.05,0V44.3Z"/><path class="cls-2" d="M43.05,44.3v3.58l0,0a.19.19,0,0,1-.11-.15V44.13s0,.1.11.15l0,0Z"/></g></g><path class="cls-3" d="M43.51,44c.14.08.14.21,0,.3a.57.57,0,0,1-.51,0c-.14-.09-.14-.22,0-.3A.57.57,0,0,1,43.51,44Z"/><g class="cls-12"><g class="cls-12"><path class="cls-3" d="M53,42.08v3.58a.17.17,0,0,1-.1.15.57.57,0,0,1-.51,0,.16.16,0,0,1-.11-.15V42.08a.16.16,0,0,0,.11.15.57.57,0,0,0,.51,0A.17.17,0,0,0,53,42.08Z"/><g class="cls-17"><g class="cls-12"><polygon class="cls-1" points="53.02 42.08 53.01 45.66 53.01 45.67 53.02 42.09 53.02 42.08 53.02 42.08"/><path class="cls-1" d="M53,42.09v0Z"/><path class="cls-1" d="M53,42.11v3.58s0,0,0,0l0-3.58v0Z"/><path class="cls-1" d="M53,42.13l0,3.58v0l0-3.58v0Z"/><path class="cls-1" d="M53,42.15l0,3.58s0,0,0,0V42.17l0,0Z"/><path class="cls-1" d="M53,42.17v3.58l0,0V42.2l0,0Z"/><path class="cls-1" d="M53,42.2v3.58l-.05,0V42.23l0,0Z"/><path class="cls-1" d="M52.92,42.23v3.58h0l-.08,0V42.27l.08,0Z"/><path class="cls-1" d="M52.84,42.27v3.58l-.07,0V42.29l.07,0Z"/><path class="cls-1" d="M52.77,42.29v3.58h0V42.29Z"/><path class="cls-1" d="M52.72,42.29v3.58h0V42.29Z"/><path class="cls-1" d="M52.68,42.29v3.59h0V42.29Z"/><path class="cls-1" d="M52.65,42.29v3.59h0V42.29Z"/><path class="cls-1" d="M52.61,42.29v3.58h0V42.29Z"/><path class="cls-1" d="M52.57,42.29v3.58h0V42.28Z"/><path class="cls-1" d="M52.54,42.28v3.58h0V42.27Z"/><path class="cls-1" d="M52.5,42.27v3.58h0V42.26Z"/><path class="cls-1" d="M52.46,42.26v3.58l-.05,0a.16.16,0,0,1-.11-.15V42.08a.16.16,0,0,0,.11.15l.05,0Z"/></g></g></g><path class="cls-1" d="M52.92,41.94a.15.15,0,0,1,0,.29.57.57,0,0,1-.51,0c-.15-.08-.15-.21,0-.29A.53.53,0,0,1,52.92,41.94Z"/></g><path class="cls-2" d="M54,36.22a.09.09,0,0,1,0,.05v.07l0,0s0,0,0,0l0,0,0,0,0,0-.06.07,0,0,0,0,0,0,0,0a.09.09,0,0,0,0,0l-.19.09-.06,0-.12,0-.14,0-.16,0h0l-.22,0h-.3l-.22,0h0l-.19,0h0l-.21-.1a.68.68,0,0,1-.4-.56l0,6a.7.7,0,0,0,.41.57l.19.09h0l.12,0h.14l.13,0h.62l.11,0H53l.14,0h.07l.06,0h.05l.19-.09h0l0,0,0,0,0,0a.08.08,0,0,0,0,0h0l0,0,0-.06a0,0,0,0,0,0,0v0a.1.1,0,0,0,0-.05v0h0a.05.05,0,0,0,0,0l0,0h0s0,0,0,0,0,0,0,0h0v0s0,0,0,0h0V36.22Z"/><path class="cls-3" d="M53.55,35.62c.53.31.54.81,0,1.12a2.12,2.12,0,0,1-1.93,0,.59.59,0,0,1,0-1.12A2.1,2.1,0,0,1,53.55,35.62Z"/><path class="cls-2" d="M53,32.67v3.58a.19.19,0,0,1-.11.15.57.57,0,0,1-.51,0,.18.18,0,0,1-.1-.15V32.67a.18.18,0,0,0,.1.15.57.57,0,0,0,.51,0A.19.19,0,0,0,53,32.67Z"/><g class="cls-18"><g class="cls-12"><polygon class="cls-2" points="52.96 32.67 52.95 36.25 52.95 36.25 52.96 32.67 52.96 32.67 52.96 32.67"/><path class="cls-2" d="M53,32.67v0Z"/><path class="cls-2" d="M53,32.69v0a0,0,0,0,0,0,0Z"/><path class="cls-2" d="M53,32.71v0s0,0,0,0Z"/><path class="cls-2" d="M52.94,32.74v3.58a0,0,0,0,0,0,0v-3.6Z"/><path class="cls-2" d="M52.93,32.76v3.58l0,0V32.78l0,0Z"/><path class="cls-2" d="M52.9,32.78v3.58a.08.08,0,0,1,0,0V32.81l0,0Z"/><path class="cls-2" d="M52.86,32.81V36.4h0l-.08,0V32.85l.08,0Z"/><path class="cls-2" d="M52.77,32.85v3.58l-.06,0V32.87l.06,0Z"/><path class="cls-2" d="M52.71,32.87v3.58h-.05V32.88Z"/><path class="cls-2" d="M52.66,32.88v3.58h0V32.88Z"/><path class="cls-2" d="M52.62,32.88v3.58h0V32.88Z"/><path class="cls-2" d="M52.58,32.88v3.58h0V32.88Z"/><path class="cls-2" d="M52.55,32.88v3.58h0V32.87Z"/><path class="cls-2" d="M52.51,32.87v3.58h0V32.87Z"/><path class="cls-2" d="M52.48,32.87v3.58h0V32.86Z"/><path class="cls-2" d="M52.44,32.86v3.58l0,0V32.84l0,0Z"/><path class="cls-2" d="M52.39,32.84v3.58l-.05,0a.18.18,0,0,1-.1-.15V32.67a.18.18,0,0,0,.1.15l0,0Z"/></g></g><path class="cls-3" d="M52.85,32.52a.16.16,0,0,1,0,.3.57.57,0,0,1-.51,0,.16.16,0,0,1,0-.3A.57.57,0,0,1,52.85,32.52Z"/><g class="cls-12"><g class="cls-12"><path class="cls-1" d="M60.07,48.2v3.58a.17.17,0,0,1-.1.15.59.59,0,0,1-.52,0,.17.17,0,0,1-.1-.15V48.2a.17.17,0,0,0,.1.15.59.59,0,0,0,.52,0A.17.17,0,0,0,60.07,48.2Z"/><g class="cls-19"><g class="cls-12"><polygon class="cls-1" points="60.07 48.2 60.06 51.78 60.06 51.79 60.07 48.21 60.07 48.2 60.07 48.2"/><path class="cls-1" d="M60.07,48.21v0Z"/><path class="cls-1" d="M60.07,48.23v0a0,0,0,0,0,0,0Z"/><path class="cls-1" d="M60.06,48.25v3.58s0,0,0,0v-3.6Z"/><path class="cls-1" d="M60.05,48.27v0Z"/><path class="cls-1" d="M60,48.29v3.58s0,0,0,0V48.31s0,0,0,0Z"/><path class="cls-1" d="M60,48.31v3.58l0,0V48.35l.05,0Z"/><path class="cls-1" d="M60,48.35v3.58h0l-.08,0V48.39l.08,0Z"/><path class="cls-1" d="M59.89,48.39V52h-.07V48.4Z"/><path class="cls-1" d="M59.82,48.4V52h-.05V48.41Z"/><path class="cls-1" d="M59.77,48.41V52h0V48.41Z"/><path class="cls-1" d="M59.73,48.41V52h0l0-3.58Z"/><path class="cls-1" d="M59.7,48.41l0,3.58h0V48.41Z"/><path class="cls-1" d="M59.66,48.41V52h0V48.41Z"/><path class="cls-1" d="M59.62,48.41V52h0V48.4Z"/><path class="cls-1" d="M59.59,48.4V52h0V48.39Z"/><path class="cls-1" d="M59.55,48.39V52h0V48.38Z"/><path class="cls-1" d="M59.51,48.38V52l-.06,0a.17.17,0,0,1-.1-.15V48.2a.17.17,0,0,0,.1.15l.06,0Z"/></g></g></g><path class="cls-1" d="M60,48.05a.16.16,0,0,1,0,.3.59.59,0,0,1-.52,0c-.14-.08-.14-.21,0-.3A.59.59,0,0,1,60,48.05Z"/></g><path class="cls-2" d="M61,42.34s0,0,0,0v0a.06.06,0,0,0,0,0l0,0,0,0,0,0,0,0,0,0-.06.06,0,0,0,0,0,0-.05,0,0,0-.19.09-.06,0-.12,0-.14,0-.16,0h0l-.22,0h0l-.23,0h0l-.22,0h0L58.92,43h0l-.21-.1a.68.68,0,0,1-.4-.56l0,6a.68.68,0,0,0,.4.56l.2.1h0L59,49l.06,0h.08l.13,0h.62L60,49h0l.14,0h.07l.06,0,0,0a.66.66,0,0,0,.19-.09h0l0,0,0,0,0,0,0,0h0l0,0,.05-.06h0v0s0,0,0,0a0,0,0,0,0,0,0h0a.05.05,0,0,0,0,0s0,0,0,0h0v-.07h0v0s0,0,0,0h0V42.34Z"/><path class="cls-3" d="M60.6,41.74c.53.31.54.81,0,1.12a2.18,2.18,0,0,1-1.93,0,.59.59,0,0,1,0-1.12A2.1,2.1,0,0,1,60.6,41.74Z"/><path class="cls-2" d="M60,38.79v3.58a.19.19,0,0,1-.11.15.57.57,0,0,1-.51,0c-.07-.05-.11-.1-.11-.15l0-3.58c0,.05,0,.11.1.15a.57.57,0,0,0,.51,0A.19.19,0,0,0,60,38.79Z"/><g class="cls-20"><g class="cls-12"><polygon class="cls-2" points="60.01 38.79 60 42.37 60 42.37 60.01 38.79 60.01 38.79 60.01 38.79"/><path class="cls-2" d="M60,38.79v3.6l0-3.58v0Z"/><path class="cls-2" d="M60,38.81l0,3.58V38.81Z"/><path class="cls-2" d="M60,38.83v3.58s0,0,0,0V38.85a0,0,0,0,0,0,0Z"/><path class="cls-2" d="M60,38.85v0Z"/><path class="cls-2" d="M60,38.88v3.58l0,0V38.9l0,0Z"/><path class="cls-2" d="M60,38.9v3.58s0,0,0,0V38.93l0,0Z"/><path class="cls-2" d="M59.91,38.93v3.59h0l-.08,0V39l.08,0Z"/><path class="cls-2" d="M59.82,39v3.58l-.06,0V39l.07,0Z"/><path class="cls-2" d="M59.75,39v3.58h0V39Z"/><path class="cls-2" d="M59.71,39v3.59h0V39Z"/><path class="cls-2" d="M59.67,39v3.58h0V39Z"/><path class="cls-2" d="M59.63,39v3.58h0V39Z"/><path class="cls-2" d="M59.6,39v3.58h0V39Z"/><path class="cls-2" d="M59.56,39v3.58h0V39Z"/><path class="cls-2" d="M59.52,39v3.59h0V39Z"/><path class="cls-2" d="M59.49,39v3.59l0,0V39Z"/><path class="cls-2" d="M59.44,39v3.58l0,0c-.07-.05-.11-.1-.11-.15l0-3.58c0,.05,0,.11.1.15l0,0Z"/></g></g><path class="cls-1" d="M59.9,38.64a.16.16,0,0,1,0,.3.57.57,0,0,1-.51,0,.16.16,0,0,1,0-.3A.57.57,0,0,1,59.9,38.64Z"/><g class="cls-12"><g class="cls-12"><path class="cls-1" d="M63.2,38.74v3.58a.18.18,0,0,1-.11.15.57.57,0,0,1-.51,0,.18.18,0,0,1-.11-.15V38.74a.18.18,0,0,0,.11.15.57.57,0,0,0,.51,0A.18.18,0,0,0,63.2,38.74Z"/><g class="cls-21"><g class="cls-12"><polygon class="cls-1" points="63.2 38.74 63.19 42.32 63.19 42.33 63.2 38.75 63.2 38.74 63.2 38.74"/><path class="cls-1" d="M63.2,38.75v0Z"/><path class="cls-1" d="M63.2,38.77v0Z"/><path class="cls-1" d="M63.19,38.79v0Z"/><path class="cls-1" d="M63.18,38.81v0Z"/><path class="cls-1" d="M63.17,38.83v3.58l0,0V38.86l0,0Z"/><path class="cls-1" d="M63.14,38.86v3.58l0,0V38.89l0,0Z"/><path class="cls-1" d="M63.1,38.89v3.58h0a.2.2,0,0,1-.08,0V38.93l.08,0Z"/><path class="cls-1" d="M63,38.93v3.58h-.07V38.94Z"/><path class="cls-1" d="M62.94,38.94v3.58h0V39Z"/><path class="cls-1" d="M62.9,39v3.58h0V39Z"/><path class="cls-1" d="M62.86,39v3.58h0V39Z"/><path class="cls-1" d="M62.82,39v3.58h0V39Z"/><path class="cls-1" d="M62.78,39v3.58h0V39Z"/><path class="cls-1" d="M62.75,39v3.58h0l0-3.58Z"/><path class="cls-1" d="M62.72,38.94l0,3.58h0V38.93Z"/><path class="cls-1" d="M62.68,38.93v3.58h-.05V38.92Z"/><path class="cls-1" d="M62.63,38.92V42.5l0,0a.18.18,0,0,1-.11-.15V38.74a.18.18,0,0,0,.11.15l.05,0Z"/></g></g></g><path class="cls-1" d="M63.09,38.59c.14.09.14.22,0,.3a.57.57,0,0,1-.51,0c-.14-.08-.14-.21,0-.3A.57.57,0,0,1,63.09,38.59Z"/></g><path class="cls-2" d="M64.13,32.88s0,0,0,0v0a.06.06,0,0,1,0,0s0,0,0,0a.05.05,0,0,0,0,0l0,0,0,0,0,0-.05.06,0,0-.05,0,0,0,0,0-.06,0-.18.09-.06,0-.13,0-.13,0-.17,0h0l-.23,0h0l-.22,0h0l-.21,0h0l-.19-.05,0,0-.2-.09a.7.7,0,0,1-.41-.56v6a.69.69,0,0,0,.4.57l.2.09h0l.12.05h.14l.14,0h.62l.11,0h.05l.14,0h.07l0,0h.06l.19-.1h0l0,0,0,0,0,0,0,0s0,0,0,0v0l.06-.06v0h0l0,0s0,0,0,0h0l0,0v0h0s0,0,0,0v0h0a.06.06,0,0,0,0,0v0h0l0-6Z"/><path class="cls-3" d="M63.73,32.28a.59.59,0,0,1,0,1.12,2.1,2.1,0,0,1-1.92,0,.59.59,0,0,1,0-1.12A2.12,2.12,0,0,1,63.73,32.28Z"/><path class="cls-2" d="M63.14,29.33l0,3.58a.18.18,0,0,1-.1.15.57.57,0,0,1-.51,0,.19.19,0,0,1-.11-.15V29.33a.19.19,0,0,0,.11.15.57.57,0,0,0,.51,0A.19.19,0,0,0,63.14,29.33Z"/><g class="cls-22"><g class="cls-12"><polygon class="cls-2" points="63.13 29.33 63.12 32.91 63.12 32.91 63.13 29.33 63.13 29.33 63.13 29.33"/><path class="cls-2" d="M63.14,29.33l0,3.58V29.35a0,0,0,0,0,0,0Z"/><path class="cls-2" d="M63.13,29.35v0Z"/><path class="cls-2" d="M63.13,29.37V33s0,0,0,0V29.39a0,0,0,0,1,0,0Z"/><path class="cls-2" d="M63.12,29.39V33l0,0V29.42l0,0Z"/><path class="cls-2" d="M63.1,29.42V33l0,0V29.44l0,0Z"/><path class="cls-2" d="M63.08,29.44V33a.1.1,0,0,1,0,0V29.47l0,0Z"/><path class="cls-2" d="M63,29.47v3.59h0l-.08,0V29.51l.08,0Z"/><path class="cls-2" d="M63,29.51v3.58l-.07,0V29.53l.07,0Z"/><path class="cls-2" d="M62.88,29.53v3.58h0V29.54Z"/><path class="cls-2" d="M62.84,29.54v3.58h0l0-3.58Z"/><path class="cls-2" d="M62.8,29.54l0,3.58h0V29.54Z"/><path class="cls-2" d="M62.76,29.54v3.58h0V29.54Z"/><path class="cls-2" d="M62.72,29.54v3.58h0V29.53Z"/><path class="cls-2" d="M62.69,29.53v3.58h0V29.53Z"/><path class="cls-2" d="M62.65,29.53v3.58h0V29.52Z"/><path class="cls-2" d="M62.61,29.52V33.1l0,0V29.5l0,0Z"/><path class="cls-2" d="M62.57,29.5v3.58l-.05,0a.19.19,0,0,1-.11-.15V29.33a.19.19,0,0,0,.11.15l0,0Z"/></g></g><path class="cls-1" d="M63,29.18c.14.08.14.21,0,.3a.57.57,0,0,1-.51,0c-.14-.09-.15-.22,0-.3A.57.57,0,0,1,63,29.18Z"/><g class="cls-12"><g class="cls-12"><path class="cls-1" d="M72.06,34.51v3.58a.18.18,0,0,1-.1.15.57.57,0,0,1-.51,0,.17.17,0,0,1-.11-.15V34.51a.15.15,0,0,0,.11.14.52.52,0,0,0,.51,0A.16.16,0,0,0,72.06,34.51Z"/><g class="cls-23"><g class="cls-12"><polygon class="cls-1" points="72.06 34.51 72.05 38.09 72.05 38.09 72.06 34.51 72.06 34.51 72.06 34.51"/><path class="cls-1" d="M72.06,34.51v0Z"/><path class="cls-1" d="M72.06,34.53v3.6l0-3.58v0Z"/><path class="cls-1" d="M72.06,34.55l0,3.58s0,0,0,0V34.57l0,0Z"/><path class="cls-1" d="M72,34.57v0Z"/><path class="cls-1" d="M72,34.59v3.59l0,0V34.62l0,0Z"/><path class="cls-1" d="M72,34.62V38.2l0,0V34.65l.05,0Z"/><path class="cls-1" d="M72,34.65v3.58h0l-.08,0V34.69l.08,0Z"/><path class="cls-1" d="M71.88,34.69v3.58l-.07,0V34.71l.07,0Z"/><path class="cls-1" d="M71.81,34.71v3.58h0V34.71Z"/><path class="cls-1" d="M71.76,34.71V38.3h0V34.71Z"/><path class="cls-1" d="M71.72,34.71V38.3h0V34.71Z"/><path class="cls-1" d="M71.69,34.71V38.3h0V34.71Z"/><path class="cls-1" d="M71.65,34.71V38.3h0l0-3.58Z"/><path class="cls-1" d="M71.62,34.71l0,3.58h0V34.7Z"/><path class="cls-1" d="M71.58,34.7v3.59h0V34.7Z"/><path class="cls-1" d="M71.54,34.7v3.58l0,0V34.68l0,0Z"/><path class="cls-1" d="M71.5,34.68v3.58l0,0a.17.17,0,0,1-.11-.15V34.51a.15.15,0,0,0,.11.14l0,0Z"/></g></g></g><path class="cls-1" d="M72,34.36a.15.15,0,0,1,0,.29.52.52,0,0,1-.51,0c-.15-.08-.15-.21,0-.29A.59.59,0,0,1,72,34.36Z"/></g><path class="cls-2" d="M73,28.65v0a0,0,0,0,0,0,0l0,0v0s0,0,0,0l0,0,0,.05,0,0L72.8,29l0,0,0,0,0,0,0,0-.05,0-.19.09-.06,0-.12,0-.14,0a.45.45,0,0,1-.16,0h-.57a1.46,1.46,0,0,1-.22,0h0l-.19-.06h0l-.21-.1a.67.67,0,0,1-.4-.56l0,6a.71.71,0,0,0,.4.56,1.76,1.76,0,0,0,.2.09h.05l.12,0,.06,0h.08l.13,0h.62l.11,0h0l.14,0,.07,0,.06,0,0,0,.19-.09h0l0,0,.05,0,0,0,0,0h0l0,0,0-.06h0v0l0,0v0h0l0,0a0,0,0,0,1,0,0h0s0,0,0,0,0,0,0,0h0v-.07h0l0-6S73,28.63,73,28.65Z"/><path class="cls-3" d="M72.59,28.05a.59.59,0,0,1,0,1.11,2.12,2.12,0,0,1-1.93,0,.59.59,0,0,1,0-1.12A2.13,2.13,0,0,1,72.59,28.05Z"/><path class="cls-2" d="M72,25.09v3.58a.18.18,0,0,1-.11.15.57.57,0,0,1-.51,0,.18.18,0,0,1-.11-.15l0-3.58a.18.18,0,0,0,.1.15.57.57,0,0,0,.51,0A.18.18,0,0,0,72,25.09Z"/><g class="cls-24"><g class="cls-12"><polygon class="cls-2" points="72 25.09 71.99 28.67 71.99 28.68 72 25.1 72 25.09 72 25.09"/><path class="cls-2" d="M72,25.1v0Z"/><path class="cls-2" d="M72,25.12v0Z"/><path class="cls-2" d="M72,25.14v3.58s0,0,0,0V25.16a0,0,0,0,1,0,0Z"/><path class="cls-2" d="M72,25.16v0s0,0,0,0Z"/><path class="cls-2" d="M72,25.18v3.58l0,0V25.2l0,0Z"/><path class="cls-2" d="M71.94,25.2v3.59l0,0V25.24a.08.08,0,0,0,0,0Z"/><path class="cls-2" d="M71.9,25.24v3.58h0a.2.2,0,0,1-.08,0V25.28a.2.2,0,0,0,.08,0Z"/><path class="cls-2" d="M71.81,25.28v3.58h-.06V25.29Z"/><path class="cls-2" d="M71.75,25.29v3.58h0V25.3Z"/><path class="cls-2" d="M71.7,25.3v3.58h0V25.3Z"/><path class="cls-2" d="M71.66,25.3v3.58h0V25.3Z"/><path class="cls-2" d="M71.62,25.3v3.58h0V25.3Z"/><path class="cls-2" d="M71.59,25.3v3.58h0V25.3Z"/><path class="cls-2" d="M71.55,25.3v3.58h0V25.29Z"/><path class="cls-2" d="M71.52,25.29v3.58h0V25.28Z"/><path class="cls-2" d="M71.48,25.28v3.58h0l0-3.58Z"/><path class="cls-2" d="M71.44,25.27l0,3.58,0,0a.18.18,0,0,1-.11-.15l0-3.58a.18.18,0,0,0,.1.15l.06,0Z"/></g></g><path class="cls-1" d="M71.89,25a.15.15,0,0,1,0,.29.57.57,0,0,1-.51,0,.15.15,0,0,1,0-.29A.52.52,0,0,1,71.89,25Z"/><g class="cls-12"><g class="cls-12"><path class="cls-1" d="M80.63,24.55v3.58a.17.17,0,0,1-.1.14.52.52,0,0,1-.51,0c-.08,0-.11-.09-.11-.14V24.55c0,.05,0,.1.11.14a.57.57,0,0,0,.51,0A.17.17,0,0,0,80.63,24.55Z"/><g class="cls-25"><g class="cls-12"><polygon class="cls-1" points="80.63 24.55 80.62 28.13 80.62 28.13 80.63 24.55 80.63 24.55 80.63 24.55"/><path class="cls-1" d="M80.63,24.55v0Z"/><path class="cls-1" d="M80.63,24.57v0Z"/><path class="cls-1" d="M80.62,24.59v3.58l0,0,0-3.58v0Z"/><path class="cls-1" d="M80.62,24.61l0,3.58s0,0,0,0V24.63l0,0Z"/><path class="cls-1" d="M80.6,24.63v3.58l0,0V24.65s0,0,0,0Z"/><path class="cls-1" d="M80.58,24.65v3.59l0,0V24.69a.1.1,0,0,0,0,0Z"/><path class="cls-1" d="M80.53,24.69v3.58h0l-.08,0V24.73l.08,0Z"/><path class="cls-1" d="M80.45,24.73v3.58l-.07,0V24.75l.07,0Z"/><path class="cls-1" d="M80.38,24.75v3.58h-.05V24.75Z"/><path class="cls-1" d="M80.33,24.75v3.58h0V24.75Z"/><path class="cls-1" d="M80.29,24.75v3.58h0V24.75s0,0,0,0Z"/><path class="cls-1" d="M80.25,24.75v3.58h0V24.75Z"/><path class="cls-1" d="M80.22,24.75v3.58h0V24.75Z"/><path class="cls-1" d="M80.18,24.75v3.58h0V24.74Z"/><path class="cls-1" d="M80.15,24.74v3.58h0V24.73Z"/><path class="cls-1" d="M80.11,24.73v3.58h0V24.72Z"/><path class="cls-1" d="M80.07,24.72V28.3l0,0c-.08,0-.11-.09-.11-.14V24.55c0,.05,0,.1.11.14l0,0Z"/></g></g></g><path class="cls-1" d="M80.53,24.4a.15.15,0,0,1,0,.29.57.57,0,0,1-.51,0c-.15-.08-.15-.21,0-.29A.53.53,0,0,1,80.53,24.4Z"/></g><path class="cls-2" d="M81.56,18.69v0a0,0,0,0,0,0,0,.08.08,0,0,0,0,0s0,0,0,0l0,0s0,0,0,0l0,.05,0,0-.06.07s0,0,0,0l0,0,0,0,0,0,0,0-.19.09-.06,0-.12,0-.14,0-.16,0h-.57l-.22,0h0l-.19-.05h0l-.21-.1a.68.68,0,0,1-.4-.56l0,6a.71.71,0,0,0,.4.56l.2.09h0l0,0,.12,0h.14l.13,0h.62l.11,0h0l.14,0,.07,0,.06,0,0,0,.19-.09,0,0,0,0,0,0,0,0,0,0h0l0,0,0-.06h0v0s0,0,0,0v0h0s0,0,0-.05l0,0h0v0s0,0,0,0h0v-.08h0V18.69Z"/><path class="cls-3" d="M81.16,18.08c.53.31.54.81,0,1.12a2.12,2.12,0,0,1-1.93,0,.59.59,0,0,1,0-1.12A2.1,2.1,0,0,1,81.16,18.08Z"/><path class="cls-2" d="M80.57,15.13v3.58a.18.18,0,0,1-.11.15.57.57,0,0,1-.51,0,.18.18,0,0,1-.1-.15V15.13a.19.19,0,0,0,.11.15.57.57,0,0,0,.51,0A.19.19,0,0,0,80.57,15.13Z"/><g class="cls-26"><g class="cls-12"><polygon class="cls-2" points="80.57 15.13 80.56 18.71 80.56 18.71 80.57 15.13 80.57 15.13 80.57 15.13"/><path class="cls-2" d="M80.57,15.13v0Z"/><path class="cls-2" d="M80.57,15.15v0Z"/><path class="cls-2" d="M80.56,15.17v3.59a0,0,0,0,0,0,0V15.17Z"/><path class="cls-2" d="M80.55,15.2v3.58a0,0,0,0,0,0,0V15.2Z"/><path class="cls-2" d="M80.54,15.22V18.8l0,0V15.24l0,0Z"/><path class="cls-2" d="M80.51,15.24v3.58a.08.08,0,0,1,0,0V15.28l0,0Z"/><path class="cls-2" d="M80.47,15.28v3.58h0l-.08,0V15.31l.08,0Z"/><path class="cls-2" d="M80.38,15.31v3.58l-.06,0V15.33l.06,0Z"/><path class="cls-2" d="M80.32,15.33v3.58h0V15.34Z"/><path class="cls-2" d="M80.27,15.34v3.58h0V15.34Z"/><path class="cls-2" d="M80.23,15.34v3.58h0V15.34Z"/><path class="cls-2" d="M80.19,15.34v3.58h0V15.34Z"/><path class="cls-2" d="M80.16,15.34v3.58h0V15.33Z"/><path class="cls-2" d="M80.12,15.33v3.58h0V15.33Z"/><path class="cls-2" d="M80.09,15.33v3.58h0V15.32Z"/><path class="cls-2" d="M80.05,15.32V18.9l0,0V15.3l0,0Z"/><path class="cls-2" d="M80,15.3v3.58l-.06,0a.18.18,0,0,1-.1-.15V15.13a.19.19,0,0,0,.11.15l0,0Z"/></g></g><path class="cls-1" d="M80.46,15a.16.16,0,0,1,0,.3.57.57,0,0,1-.51,0,.16.16,0,0,1,0-.3A.57.57,0,0,1,80.46,15Z"/><path class="cls-10" d="M77.76,29.93a.51.51,0,0,0-.42,0q-.09.06-.09.12h0v3a.15.15,0,0,0,.09.12l0,0h.32l0,0h0a0,0,0,0,0,0,0h0v-3h0A.15.15,0,0,0,77.76,29.93Zm0,.22,0,0h0Zm0,0s0,0,0,0h0S77.84,30.1,77.83,30.11Zm0,.05h0l0,0Zm-.49,0h0Zm0-.06h0Zm0,0h0Z"/><path class="cls-11" d="M78.86,27.32s0,0,0,0a0,0,0,0,1,0,0,.06.06,0,0,1,0,0s0,0,0,0,0,0,0,0,0,0,0,0l0,0,0,0,0,.06,0,0,0,0,0,0,0,0,0,0-.18.09,0,0-.2.06h0a1.2,1.2,0,0,1-.2,0h-.54l-.21,0h0l-.18,0,0,0a.72.72,0,0,1-.2-.09.65.65,0,0,1-.39-.54v3.45a.67.67,0,0,0,.39.54l.19.09h0l.11,0,.07,0h.07l.13,0h.6l.1,0h0l.13,0,.07,0,.06,0,.05,0,.18-.08h0l0,0s0,0,0,0l0,0,0,0h0l0-.06h0v0l0,0,0,0h0l0,0s0,0,0,0h0a.08.08,0,0,0,0,0,0,0,0,0,0,0,0h0v-.07h0v-3.4Z"/><path class="cls-10" d="M78.47,26.74a.56.56,0,0,1,0,1.07,2,2,0,0,1-1.85,0,.56.56,0,0,1,0-1.07A2,2,0,0,1,78.47,26.74Z"/><path class="cls-11" d="M77.81,24.23h0l0,0h0l0,0s0,0,0,0h0a.25.25,0,0,1-.09,0h0l-.11,0h0l-.11,0h0l-.1,0a.15.15,0,0,1-.09-.12v3c0,.05,0,.09.09.13l0,0h.07s0,0,0,0h.23l.06,0h0a0,0,0,0,1,0,0s0,0,0,0h0l0,0h0v0h0v-3h0Z"/><path class="cls-10" d="M77.72,24.07a.13.13,0,0,1,0,.25.47.47,0,0,1-.43,0,.13.13,0,0,1,0-.25A.47.47,0,0,1,77.72,24.07Z"/><path class="cls-10" d="M69.45,24.17a.45.45,0,0,0-.42,0,.15.15,0,0,0-.09.12h0v3a.15.15,0,0,0,.09.12l0,0h.31l.06,0h0l0,0h0s0,0,0,0h0v-3h0v0S69.52,24.21,69.45,24.17Zm0,.21,0,0h0Zm0,0a0,0,0,0,0,0,0h0A0,0,0,0,1,69.52,24.34Zm0,.06Zm-.49,0s0,0,0,0S69,24.38,69,24.37Zm0-.06h0Zm0,0v0Z"/><path class="cls-11" d="M70.55,21.55s0,0,0,0v0l0,0a0,0,0,0,1,0,0,.08.08,0,0,1,0,0l0,0,0,0s0,0,0,0l0,.06,0,0,0,0,0,0,0,0a.1.1,0,0,1,0,0l-.18.08,0,0a.76.76,0,0,1-.2.06h0l-.2,0H69l-.21,0h0l-.18-.06h0a1.21,1.21,0,0,1-.2-.09.67.67,0,0,1-.39-.54V25a.65.65,0,0,0,.39.54.66.66,0,0,0,.19.09h0l.12,0h.13l.13,0h.6l.11,0h0l.13,0,.07,0,.06,0,0,0a1.51,1.51,0,0,0,.18-.09h0l0,0,.05,0,0,0,0,0h0l0-.06s0,0,0,0h0l0-.05h0s0,0,0-.05v0h0s0,0,0,0v0h0a.06.06,0,0,0,0,0v0h0V21.55Z"/><path class="cls-10" d="M70.16,21a.57.57,0,0,1,0,1.08,2.08,2.08,0,0,1-1.85,0c-.51-.3-.52-.78,0-1.08A2.08,2.08,0,0,1,70.16,21Z"/><path class="cls-11" d="M69.5,18.47h0l0,0h0l0,0,0,0h0a.14.14,0,0,1-.09,0,0,0,0,0,1,0,0h-.23l-.1,0a.15.15,0,0,1-.09-.13v3c0,.05,0,.09.09.13l0,0h.32l.07,0h0a0,0,0,0,1,0,0h0v0h0v-3h0Z"/><path class="cls-10" d="M69.41,18.31a.13.13,0,0,1,0,.25.47.47,0,0,1-.43,0,.13.13,0,0,1,0-.25A.47.47,0,0,1,69.41,18.31Z"/><path class="cls-10" d="M75.51,38.05a.47.47,0,0,0-.43,0,.15.15,0,0,0-.08.12h0v2.95c0,.05,0,.09.09.13l0,0h.32l.06,0h0l0,0h0s0,0,0,0h0v0h0v-3h0v0A.14.14,0,0,0,75.51,38.05Zm0,.21,0,0h0Zm0,0v0h0Zm0,.06Zm-.49,0h0Zm0-.06h0Zm0,0h0Z"/><path class="cls-11" d="M76.6,35.43v.07s0,0,0,0,0,0,0,0l0,0,0,0,0,0,0,0-.06.06,0,0,0,0,0,0,0,0,0,0A1.11,1.11,0,0,1,76,36L76,36l-.19.06h0l-.2,0H75l-.21,0h0l-.19,0h0l-.21-.1a.66.66,0,0,1-.38-.54v3.45a.66.66,0,0,0,.38.54l.19.09h0l.11,0,.07,0h.07l.13,0h.75l.13,0h.07l0,0H76l.18-.09h0l0,0,0,0,0,0,0,0h0v0l.06-.06h0l0,0v0h0l0,0s0,0,0,0h0a.06.06,0,0,0,0,0v0h0v-.07h0V35.39A.06.06,0,0,1,76.6,35.43Z"/><path class="cls-10" d="M76.22,34.85c.52.3.52.78,0,1.07a2,2,0,0,1-1.86,0,.57.57,0,0,1,0-1.07A2,2,0,0,1,76.22,34.85Z"/><path class="cls-11" d="M75.55,32.34h0s0,0,0,0h0l0,0h0l0,0-.09,0h-.24l-.1,0c-.06,0-.09-.08-.09-.13v3a.15.15,0,0,0,.09.12l0,0,0,0h.28l.07,0h0l0,0h0a0,0,0,0,0,0,0h0v-3h0A0,0,0,0,1,75.55,32.34Z"/><path class="cls-10" d="M75.47,32.19a.13.13,0,0,1,0,.25.47.47,0,0,1-.43,0,.13.13,0,0,1,0-.25A.47.47,0,0,1,75.47,32.19Z"/><path class="cls-27" d="M104.3,67.79c4.57,2.37,4.55,6.17,0,8.51S92.54,78.67,88,76.3s-4.56-6.16-.06-8.51S99.77,65.44,104.3,67.79Z"/><g class="cls-28"><path class="cls-29" d="M105.32,60.29c5.2,2.7,5.18,7,.06,9.7s-13.45,2.7-18.66,0-5.18-7-.06-9.7S100.16,57.62,105.32,60.29Z"/></g><g class="cls-30"><path class="cls-31" d="M106.35,52.8c5.83,3,5.81,7.88.06,10.88s-15.09,3-20.93,0-5.82-7.88-.07-10.88S100.55,49.8,106.35,52.8Z"/></g><g class="cls-32"><path class="cls-33" d="M107.37,45.3c6.47,3.36,6.44,8.74.07,12.06s-16.73,3.36-23.2,0-6.45-8.73-.08-12.06S101,42,107.37,45.3Z"/></g><g class="cls-34"><path class="cls-35" d="M108.39,37.81c7.1,3.68,7.08,9.59.08,13.24S90.1,54.73,83,51.05s-7.09-9.59-.09-13.24S101.34,34.16,108.39,37.81Z"/></g><g class="cls-36"><path class="cls-37" d="M109.41,30.31c7.74,4,7.71,10.45.08,14.42s-20,4-27.74,0S74,34.29,81.66,30.31,101.74,26.34,109.41,30.31Z"/></g><g class="cls-38"><path class="cls-39" d="M110.43,22.82c8.38,4.34,8.34,11.3.09,15.6s-21.64,4.34-30,0-8.35-11.3-.1-15.6S102.13,18.52,110.43,22.82Z"/></g><g class="cls-40"><path class="cls-41" d="M104.3,67.83c4.57,2.37,4.55,6.17,0,8.51s-11.81,2.37-16.38,0-4.56-6.16-.06-8.51S99.77,65.48,104.3,67.83Z"/></g><path class="cls-42" d="M103.11,69c4.11,2.37,4.13,6.21,0,8.59a16.35,16.35,0,0,1-14.83,0c-4.11-2.38-4.13-6.22,0-8.59A16.29,16.29,0,0,1,103.11,69Z"/><path class="cls-43" d="M94.83,74.11s.84,1.35-.33,1.67-.82-.41-3.35.23-2.24-.79-2.18-1.08,1.16-.7,1.71-.84,2.77-.66,2.77-.66l1.35.25Z"/><path class="cls-44" d="M91.17,25.17a11.68,11.68,0,0,0-.38-2.1c-.19-.34-1-1.78-2.25-2-.7-.12-.31.62.34,1.45a1.47,1.47,0,0,1,.5,1.39,5.49,5.49,0,0,0,.22,1.88C89.74,26.2,91.17,25.17,91.17,25.17Z"/><path class="cls-45" d="M89.56,25.71A6.13,6.13,0,0,0,89,24c-.4-.57.16-1.07-.14-1.44-.5-.65-.85-1.26-.65-1.43.35.52,1.19.36,1.63,1.92A10.16,10.16,0,0,1,90,25.69C89.71,25.8,89.61,25.87,89.56,25.71Z"/><path class="cls-44" d="M90.1,25.64s-1.23-1.58-1.53-2.12-.29-1-.14-1,1.12,1.58,1.55,1.09C90.21,23.37,90,25.38,90.1,25.64Z"/><path class="cls-46" d="M102.23,33.1s-.15,2.22-3,1.45-7.85-2.83-8.5-4.18a30.34,30.34,0,0,1-1.3-5s1.37.45,1.88-.66l2.21,4.5S102.37,31.55,102.23,33.1Z"/><path class="cls-47" d="M102.23,33.1c.14-1.55-8.66-3.87-8.66-3.87l-2.21-4.5a1.2,1.2,0,0,1-.81.69,23.2,23.2,0,0,0,1.14,4.16c.65,1.36,5.7,3.41,8.5,4.18a3.08,3.08,0,0,0,1.83,0A1.91,1.91,0,0,0,102.23,33.1Z"/><path class="cls-43" d="M97.71,69s-1.06.16-.8.77,1.46,1.53,1.62,1.91,1.15,1.76,1.47,1.63,1.15.06,1-1.5A3.44,3.44,0,0,0,97.71,69Z"/><path class="cls-48" d="M100.94,48.46s0,9.06,0,10.08,1.13,9.05.45,12.56c0,0-2,2-3.72,0,0,0-.56-10.06-1.07-12.33s-.33-9.21-.33-9.21Z"/><path class="cls-48" d="M97.48,49.75S97,55.6,96.56,61.39c0,0-.29,11.51-.56,13.17,0,0-3.72.92-4.08-.83,0,0,.09-10.13,0-12.24s-.32-8,.52-11.43S97.48,49.75,97.48,49.75Z"/><path class="cls-49" d="M96,74.56c.27-1.66.56-13.17.56-13.17.31-3.9.62-7.82.78-10L95.05,52a30,30,0,0,0-1.4,10.85c.2,5,.28,10,.31,12A9.44,9.44,0,0,0,96,74.56Z"/><path class="cls-49" d="M101.41,71.1c.68-3.51-.45-11.54-.45-12.56s0-9.23,0-10l-2,1.53s-.64,6.48,0,10.16c.57,3.36.2,9.89.48,11.76A3.15,3.15,0,0,0,101.41,71.1Z"/><path class="cls-47" d="M101.59,32.32s1.77.89.77,3.91-1.72,5-1.66,6.1a49.05,49.05,0,0,0,.71,5.69s.29,2.49-5.39,4c0,0-4.68.47-3.91-2.61a40.56,40.56,0,0,0,.94-9.24c-.11-1.19-.82-3.55,2.14-5.15S99.69,32.2,101.59,32.32Z"/><path class="cls-47" d="M100.28,32.45c-1.4.34-2.83,1.31-5.09,2.54-3,1.6-2.25,4-2.14,5.15a40.56,40.56,0,0,1-.94,9.24C91.49,51.85,94.38,52,95.55,52,100.77,48.38,100.31,39,100.28,32.45Z"/><path class="cls-44" d="M99.47,31a5.56,5.56,0,0,0,.38,2.76c.53,1-3.47,1.85-3.57.95a3.82,3.82,0,0,0-.21-3.29C95.57,30.46,99.47,31,99.47,31Z"/><path class="cls-50" d="M99.83,33.77a5.05,5.05,0,0,1-.4-2.46L96.5,32.76h0c.1,0,2.08.53,2.5,2C99.62,34.46,100,34.12,99.83,33.77Z"/><path class="cls-44" d="M95.25,26.43a7.27,7.27,0,0,0-.49,2.87c.13,1.43-.08,1.73,0,2.36a1.54,1.54,0,0,0,.33.94,2.5,2.5,0,0,0,2.58.13c1.5-.54,3.06-2.6,2.43-4.44S97.5,24.93,95.25,26.43Z"/><path class="cls-45" d="M100,30.29A25.43,25.43,0,0,0,98,26.53a4.81,4.81,0,0,0-1-.7,3.4,3.4,0,0,0-1.67.6s-.16.42-.31,1c.36.39,1.08.85,1.19,1.19A4.3,4.3,0,0,1,96,31.14c-.24.54.72,1.32.52,1.79a.13.13,0,0,0,0,.06,3.9,3.9,0,0,0,1.15-.26A4.3,4.3,0,0,0,100,30.29Z"/><path class="cls-51" d="M93.64,24.84c-.48-.3,1,2.28,2.26,2.92.78.38.71,1.65.68,1.88a6,6,0,0,0-.18,1.44c.19.26.8-.56,1.09-.5.74.14.45.83-.22,1.56s1.17,1.08,2,.45c.46-.34.64-.54,1.24-1.75.89-1.77,1.13-4.38-1.15-5S94.94,25.64,93.64,24.84Z"/><path class="cls-52" d="M99.31,32.59c.46-.34.64-.54,1.24-1.75.89-1.77,1.19-3.88-.89-5s-3.63.05-6-1a6.91,6.91,0,0,0,4.12,2.73c1.1.21,1.21.65,1.16,1.84s.25,2.65-1.67,3.3A2,2,0,0,0,99.31,32.59Z"/><path class="cls-46" d="M96.51,34.13,95.14,35s4.12,1.39,5.31-.6A1.16,1.16,0,0,0,99.71,33S99.57,34.62,96.51,34.13Z"/><path class="cls-53" d="M82.1,34.09s-1-1.15-1-1.54-.5-.57-.5-.1a2.18,2.18,0,0,0,.26.93s-1.35-1.18-1.1-1.67-1.11.87-.79,1.69.52,1.79,2.73,2.09A1.7,1.7,0,0,0,82.1,34.09Z"/><path class="cls-46" d="M95.36,36.09s.85,2-1.89,2.56S86,40,84.88,39.15s-4-3.64-4-3.64,1.34-.41,1.28-1.59l4.42,2.74S94.78,34.71,95.36,36.09Z"/><path class="cls-47" d="M95.36,36.09c-.58-1.38-8.83.57-8.83.57l-4.42-2.74a1.3,1.3,0,0,1-.14.67,35.9,35.9,0,0,0,4.61,3.18c.84.27,7.36-.76,8.9-1A2,2,0,0,0,95.36,36.09Z"/></g></g></svg>