<svg xmlns="http://www.w3.org/2000/svg" xmlns:xlink="http://www.w3.org/1999/xlink" viewBox="0 0 96.51 96.85"><defs><style>.cls-1{fill:none;}.cls-2{fill:#ae2bc1;}.cls-3{opacity:0.2;}.cls-4{fill:#bfd4db;}.cls-5{fill:#92afff;}.cls-6{fill:#def4ff;}.cls-7{fill:#6198d8;}.cls-8{fill:#35c2da;}.cls-9{fill:#74afe8;}.cls-10{isolation:isolate;}.cls-11{clip-path:url(#clip-path);}.cls-12{fill:#b2c5cc;}.cls-13{fill:#adc0c7;}.cls-14{fill:#a9bbc2;}.cls-15{fill:#a4b6bd;}.cls-16{fill:#a0b1b8;}.cls-17{fill:#9bacb3;}.cls-18{fill:#97a7ad;}.cls-19{fill:#93a2a8;}.cls-20{fill:#8e9da3;}.cls-21{fill:#8a999e;}.cls-22{fill:#859499;}.cls-23{fill:#818f94;}.cls-24{fill:#7c8a8f;}.cls-25{fill:#78858a;}.cls-26{fill:#738085;}.cls-27{clip-path:url(#clip-path-2);}.cls-28{fill:#32b5ca;}.cls-29{fill:#30b0c5;}.cls-30{fill:#2facc0;}.cls-31{fill:#2ea7bb;}.cls-32{fill:#2da3b6;}.cls-33{fill:#2b9eb1;}.cls-34{fill:#2a9aac;}.cls-35{fill:#2995a7;}.cls-36{fill:#2891a2;}.cls-37{fill:#268c9d;}.cls-38{clip-path:url(#clip-path-3);}.cls-39{clip-path:url(#clip-path-4);}.cls-40{fill:#207684;}.cls-41{fill:#217a89;}.cls-42{fill:#237f8e;}.cls-43{fill:#248393;}.cls-44{fill:#258898;}.cls-45{fill:#87b1d8;}.cls-46{fill:#8fc5f2;}.cls-47{fill:#ffb206;}.cls-48{fill:#ff9e03;}.cls-49{fill:#ffda00;}.cls-50{fill:#d32075;}.cls-51{fill:#e62b7c;}.cls-52{fill:#ff7fb7;}.cls-53{fill:#5f950d;}.cls-54{fill:#55850b;}.cls-55{fill:#5c900c;}.cls-56{fill:#669f0e;}.cls-57{fill:#639a0d;}.cls-58{fill:#659e0e;}.cls-59{fill:#77ba10;}.cls-60{fill:#ffebc4;}.cls-60,.cls-74{opacity:0.6;}.cls-61{opacity:0.83;}.cls-62{fill:#ffeece;}.cls-62,.cls-63{opacity:0.67;}.cls-64{fill:#fff2d8;opacity:0.73;}.cls-65{opacity:0.5;}.cls-66{fill:#fff5e2;opacity:0.8;}.cls-67{opacity:0.33;}.cls-68{fill:#fff8eb;opacity:0.87;}.cls-69{opacity:0.17;}.cls-70{fill:#fffcf5;opacity:0.93;}.cls-71{opacity:0;}.cls-72,.cls-74{fill:#fff;}.cls-73{opacity:0.3;}.cls-75{fill:#fdcde7;}.cls-76{opacity:0.1;}.cls-77{fill:#ffdf75;}.cls-78{fill:#f5e981;}.cls-79{fill:#ffd5bf;}.cls-80{fill:#ffbf99;}.cls-81{fill:#8ddfff;}.cls-82{fill:#77d2ff;}.cls-83{fill:#ffd6bf;}.cls-84{fill:#341c09;}.cls-85{fill:#281406;}.cls-86{fill:#d38f62;}.cls-87{fill:#1e292e;}.cls-88{fill:#12191c;}.cls-89{fill:#efb185;}.cls-90{fill:#152b2c;}.cls-91{fill:#0b1919;}.cls-92{fill:#ffd859;}.cls-93{fill:#f2b42b;}.cls-94{fill:#ffed94;}.cls-95{fill:#de821f;}.cls-96{fill:#ffb101;}</style><clipPath id="clip-path"><path class="cls-1" d="M50,9.3a.43.43,0,0,0-.18-.4l3.36,1.95a.43.43,0,0,1,.18.4h0l-.24-.14L53,11l-.79-.46L51,9.93,50,9.3l3.36,1.95h0a1.39,1.39,0,0,1-.63,1.1L49.33,10.4A1.4,1.4,0,0,0,50,9.3Z"/></clipPath><clipPath id="clip-path-2"><path class="cls-1" d="M49.78,8.9,50,9l3.19,1.86a.44.44,0,0,0-.45,0l-3.36-2A.44.44,0,0,1,49.78,8.9Z"/></clipPath><clipPath id="clip-path-3"><path class="cls-1" d="M35.2,18.34a.44.44,0,0,0,.45,0L39,20.25a.46.46,0,0,1-.46,0Z"/></clipPath><clipPath id="clip-path-4"><path class="cls-1" d="M38.55,20.29,35.2,18.34a.42.42,0,0,1-.19-.41,1.37,1.37,0,0,1,.64-1.09L39,18.79a1.4,1.4,0,0,0-.63,1.1A.43.43,0,0,0,38.55,20.29Z"/></clipPath></defs><title>Zasób 13</title><g id="Warstwa_2" data-name="Warstwa 2"><g id="Layer_1" data-name="Layer 1"><path class="cls-2" d="M48.2,44.59l.18.09h0l.11,0,.07,0h.07l.13,0h0v1.54a.14.14,0,0,0,.09.12l0,0h.32l.06,0h0l0,0h0v0h0V44.79l.09,0h0l.14,0,.07,0,.05,0,0,0,.18-.08h0l0,0,0,0,0,0,0,0h0s0,0,0,0l.06-.06h0l0,0,0,0h0s0,0,0,0v0h0a.06.06,0,0,0,0,0v0h0s0,0,0,0v0h0V40.63a.06.06,0,0,1,0,0v0a0,0,0,0,1,0,0v0c.07-.23,0-.49-.37-.67a1.7,1.7,0,0,0-.66-.19V37.57h0v0h0l0,0h0l0,0a0,0,0,0,0,0,0h0l-.1,0h-.11a.5.5,0,0,0,.21-.05.14.14,0,0,0,0-.25.47.47,0,0,0-.43,0c-.06,0-.09.08-.09.13v2.34a1.66,1.66,0,0,0-.57.18.66.66,0,0,0-.38.54h0v3.43A.67.67,0,0,0,48.2,44.59Zm.46-3.26h0a2.42,2.42,0,0,0,.47.05h-.25A1.18,1.18,0,0,1,48.66,41.33Zm.75,0h-.27a2.42,2.42,0,0,0,.47-.05h0ZM50.3,41l-.06.06,0,0h0l.1-.12h0Zm.1-.17s0,0,0,0,0,0,0,0l0,0h0a.34.34,0,0,0,.06-.12Zm-.35.38.16-.11,0,0,0,0,0,0-.05,0-.18.09h0a.7.7,0,0,1-.19.06h0A1.47,1.47,0,0,0,50.05,41.16Zm-1-3.42H49l-.1,0A.46.46,0,0,0,49.08,37.74Zm-.45,3.58h0l-.18-.06h0a1.21,1.21,0,0,1-.2-.09A1.6,1.6,0,0,0,48.63,41.32Zm-.78-.55a.23.23,0,0,1,0-.11A.23.23,0,0,0,47.85,40.77Z"/><path class="cls-2" d="M54.53,35.71a.66.66,0,0,0,.19.09h0l.12,0H55l.13,0h0v1.55a.15.15,0,0,0,.09.12l0,0h.32l.06,0h0l0,0h0l0,0h0V35.91h.14l.13,0,.07,0,0,0,0,0a1,1,0,0,0,.18-.09h0l0,0,0,0,0,0,0,0h0l0-.06,0,0h0a.05.05,0,0,0,0,0l0,0h0s0,0,0,0v0h0s0,0,0,0v0h0v-.07h0V31.79a.09.09,0,0,1,0,.05v.05a.59.59,0,0,0-.36-.67,1.63,1.63,0,0,0-.67-.19V28.69h0a0,0,0,0,1,0,0h0s0,0,0,0h0l0,0h0l-.09,0h0l-.1,0a.37.37,0,0,0,.21-.06c.12-.06.12-.17,0-.24a.47.47,0,0,0-.43,0,.15.15,0,0,0-.09.12V31a1.59,1.59,0,0,0-.57.18.66.66,0,0,0-.38.53h0v3.43A.64.64,0,0,0,54.53,35.71ZM55,32.45h0a1.76,1.76,0,0,0,.46.06h0l-.22,0h0Zm.75,0h0l-.22,0h0a1.91,1.91,0,0,0,.48-.06h0Zm.89-.41-.05.06,0,0h0a.57.57,0,0,0,.11-.11h0S56.64,32.07,56.63,32.08Zm.11-.17,0,0,0,0,0,0h0l.06-.12Zm-.36.38.16-.12,0,0,0,0,0,0,0,0-.18.08-.05,0-.19.06h0A1.67,1.67,0,0,0,56.38,32.29Zm-1-3.42h0l-.11,0h0a.29.29,0,0,1-.1,0A.5.5,0,0,0,55.41,28.87ZM55,32.45h0l-.18,0h0l-.2-.09A1.75,1.75,0,0,0,55,32.45Zm-.78-.56a.36.36,0,0,1,0-.11A.36.36,0,0,0,54.18,31.89Z"/><path class="cls-2" d="M57.15,29.28l.19.09h0l0,0,.11,0,.07,0h.07l.13,0h0V31c0,.05,0,.09.09.13l0,0h.32l.06,0h0l0,0h0a0,0,0,0,1,0,0h0v0h0V29.48h.13l.13,0h.08l0,0,.05,0,.18-.09h0l0,0,.05,0,0,0,0,0h0v0l.06-.06h0l0-.05v0h0s0,0,0,0v0h0a.06.06,0,0,0,0,0v0h0s0,0,0,0v0h0V25.36a.06.06,0,0,0,0,0,0,0,0,0,1,0,0v0c.07-.23,0-.48-.37-.67a2,2,0,0,0-.66-.19V22.26h0a0,0,0,0,0,0,0h0l0,0h0s0,0,0,0l0,0h0l-.1,0H58a.38.38,0,0,0,.21-.05.14.14,0,0,0,0-.25.47.47,0,0,0-.43,0c-.06,0-.09.08-.09.13V24.6a1.91,1.91,0,0,0-.57.18.66.66,0,0,0-.38.54h0v3.43A.65.65,0,0,0,57.15,29.28ZM57.6,26h0a2.42,2.42,0,0,0,.47.05h-.26Zm.76,0h-.27a2.42,2.42,0,0,0,.47-.05h0Zm.89-.41-.06.06,0,0h0l.1-.11h0Zm.1-.18s0,0,0,0,0,0,0,0l0,0h0a.24.24,0,0,0,.06-.11Zm-.35.38a.91.91,0,0,0,.16-.11l0,0,0,0-.05,0,0,0-.18.09,0,0-.19.06h0A1.49,1.49,0,0,0,59,25.85Zm-1-3.42h-.11l-.1,0A.36.36,0,0,0,58,22.43ZM57.58,26h0L57.39,26h0l-.2-.1A1.31,1.31,0,0,0,57.58,26Zm-.78-.55a.22.22,0,0,1,0-.11A.22.22,0,0,0,56.8,25.46Z"/><path class="cls-2" d="M64.51,31.33l.19.09h0l0,0,.12,0,.06,0H65l.13,0h0v1.55s0,.08.09.12l0,0h.32l.06,0h0v0h0l0,0h0v0h0V31.53h.14l.13,0h.07l.05,0,0,0,.18-.09h0l0,0,0,0,0,0,0,0h0v0s0,0,0-.05l0,0h0l0-.05v0h0a.05.05,0,0,0,0,0s0,0,0,0h0l0,0v0h0v-.07h0V27.41a.06.06,0,0,1,0,0v.05c.07-.23,0-.48-.36-.67a2,2,0,0,0-.67-.19V24.31h0a0,0,0,0,1,0,0h0s0,0,0,0h0s0,0,0,0,0,0,0,0h0l-.09,0H65.4a.36.36,0,0,0,.21-.05.13.13,0,0,0,0-.25.47.47,0,0,0-.43,0,.17.17,0,0,0-.09.13v2.34a1.8,1.8,0,0,0-.58.19.61.61,0,0,0-.37.53h0v3.43A.64.64,0,0,0,64.51,31.33ZM65,28.07h0a2.31,2.31,0,0,0,.46.05h-.25Zm.75,0h-.27a2.52,2.52,0,0,0,.48-.05h0A.69.69,0,0,1,65.72,28.1Zm.89-.4,0,.06a0,0,0,0,0,0,0h0l.11-.11h0Zm.11-.18s0,0,0,0l0,0,0,0h0l.06-.12Zm-.36.38a.64.64,0,0,0,.16-.11l0,0,0,0,0,0-.06,0a.76.76,0,0,1-.18.09l-.05,0-.19.06h0A1.42,1.42,0,0,0,66.36,27.9Zm-1-3.42h-.11l-.1,0A.38.38,0,0,0,65.39,24.48Zm-.45,3.58h0l-.18,0h0a1.24,1.24,0,0,1-.2-.1A1.41,1.41,0,0,0,64.94,28.06Zm-.78-.55a.36.36,0,0,1,0-.11A.36.36,0,0,0,64.16,27.51Z"/><path class="cls-2" d="M66.74,36.68a.65.65,0,0,0,.39.53.66.66,0,0,0,.19.09h0l.11,0h.14l.13,0h0V39a.15.15,0,0,0,.09.12l0,0h.32l.06,0h0l0,0h0l0,0h0V37.41h.14l.13,0,.07,0,0,0,.05,0,.18-.09h0l0,0,0,0,0,0,0,0h0l0-.06v0h0l0,0,0,0h0s0,0,0,0v0h0a0,0,0,0,0,0,0v0h0a.06.06,0,0,1,0,0v0h0V33.29a.08.08,0,0,0,0,0s0,0,0,0v0c.07-.24,0-.49-.37-.67a1.7,1.7,0,0,0-.66-.2V30.19h0a0,0,0,0,0,0,0h0a0,0,0,0,0,0,0h0l0,0,0,0h0l-.1,0h0l-.1,0a.51.51,0,0,0,.21-.06.13.13,0,0,0,0-.24.47.47,0,0,0-.43,0,.15.15,0,0,0-.09.12v2.35a1.47,1.47,0,0,0-.57.18.65.65,0,0,0-.38.53h0ZM67.59,34h0a2.42,2.42,0,0,0,.47.06h0l-.22,0h0Zm.75,0h0l-.22,0h0a2.42,2.42,0,0,0,.47-.06h0Zm.89-.41-.06.06,0,0h0a.35.35,0,0,0,.1-.11h0S69.24,33.57,69.23,33.58Zm.1-.17s0,0,0,0,0,0,0,0,0,0,0,0h0a.75.75,0,0,0,.07-.12Zm-.35.38.16-.12,0,0,0,0,0,0,0,0-.18.08,0,0-.19.06h0A1.82,1.82,0,0,0,69,33.79Zm-1-3.42h0l-.11,0h0l-.1,0A.37.37,0,0,0,68,30.37ZM67.56,34h0l-.18,0h0l-.2-.09A1.6,1.6,0,0,0,67.56,34Zm-.78-.56a.2.2,0,0,1,0-.11A.2.2,0,0,0,66.78,33.39Z"/><path class="cls-2" d="M45.45,53.6l0,0h.38l.08,0h0a.08.08,0,0,0,0,0l0,0h0s0,0,0,0V50.7h0l.13,0,.08,0,.05,0,0,0,.19-.09h0l0,0,0,0,0,0,0,0h0l.05-.06,0,0h0l0-.05v0h0l0,0,0,0h0s0,0,0,0v0h0V50h0V44.1a.06.06,0,0,0,0,0v0c.08-.25,0-.51-.38-.7a1.86,1.86,0,0,0-.59-.19V40.53h0a.19.19,0,0,1,0,.08h0c0-.08,0-.16-.08-.22a.57.57,0,0,0-.51,0c-.07,0-.11.09-.11.14h0v2.75a1.84,1.84,0,0,0-.6.19.66.66,0,0,0-.4.55h0V50a.67.67,0,0,0,.4.56.66.66,0,0,0,.19.09h.05l.12,0,.06,0h.08l.13,0h0v2.73A.17.17,0,0,0,45.45,53.6Zm1.42-9.24-.06.06,0,0h0l.11-.12h0Zm.1-.18a0,0,0,0,1,0,0,.05.05,0,0,1,0,0l0,0v0a.83.83,0,0,0,.07-.13Zm-.36.39a.91.91,0,0,0,.16-.11l0,0,0,0-.05,0,0,0-.19.09-.05,0-.13,0h-.05A1.75,1.75,0,0,0,46.61,44.57Zm-.62-4h0a.22.22,0,0,1-.07.06A.27.27,0,0,0,46,40.6Zm-.67,0s0,0,0,0S45.31,40.59,45.32,40.6Zm-.39,4.08h0l-.21-.1a.74.74,0,0,1-.36-.39.74.74,0,0,0,.36.39,1.74,1.74,0,0,0,.45.17h0Zm-.63-.61s0,.07,0,.1S44.31,44.1,44.3,44.07Zm.86.68h0a2.07,2.07,0,0,0,.5.06,2.44,2.44,0,0,0,.48,0h0l-.17,0h-.56Z"/><path class="cls-2" d="M51.58,42.67l.2.1h0l.12,0,.07,0h.07l.14,0h0v2.73c0,.05,0,.1.11.15l0,0,0,0h.27l.07,0,.08,0h0l.05,0,0,0h0s0,0,0,0v-2.8h0l.14,0,.07,0,.06,0,.05,0a.82.82,0,0,0,.19-.09h0l0,0,.05,0,0,0s0,0,0,0h0v0l.06-.06h0s0,0,0,0l0,0h0v0s0,0,0,0v0h0s0,0,0,0v0h0s0,0,0,0v0h0l0-5.94v0a.09.09,0,0,0,0,.05v0a.61.61,0,0,0-.38-.69,1.84,1.84,0,0,0-.6-.2V32.69h0a.11.11,0,0,1,0,.07h0c0-.07,0-.16-.08-.22a.57.57,0,0,0-.51,0,.18.18,0,0,0-.1.15v2.74a1.84,1.84,0,0,0-.6.19.69.69,0,0,0-.39.56h0l0,5.93A.66.66,0,0,0,51.58,42.67Zm.49-5.76h0a2.73,2.73,0,0,0,.5.05h-.28Zm.78,0h-.29a2.42,2.42,0,0,0,.47-.05h0Zm.92-.43-.05.06,0,0a.4.4,0,0,0,.1-.12h0Zm.11-.18v0s0,0,0,.05,0,0,0,0h0a.34.34,0,0,0,.06-.12Zm-.36.39a.58.58,0,0,0,.15-.11l0,0,0,0-.06,0,0,0a.82.82,0,0,1-.19.09l-.06,0-.12,0h0A1.26,1.26,0,0,0,53.52,36.73Zm-.63-4-.07.06h0l.07-.06Zm-.67,0h0Zm-.62,4a1.3,1.3,0,0,0,.44.17h0a1.06,1.06,0,0,1-.19-.06h0a1.24,1.24,0,0,1-.2-.1.73.73,0,0,1-.36-.38A.73.73,0,0,0,51.6,36.73Zm-.38-.4a.31.31,0,0,1,0-.1A.31.31,0,0,0,51.22,36.33Z"/><path class="cls-2" d="M60.88,31.27l.19.1h0l.12,0,.06,0h.08l.13,0h0v2.74a.19.19,0,0,0,.1.15l.06,0H62l.06,0,.08,0h0l0,0,0,0h0V31.46h0l.13,0,.08,0,0,0,.05,0a.56.56,0,0,0,.19-.09h0l0,0,0,0,0,0s0,0,0,0h0l0,0,0-.06h0v0l0-.05h0v0l0,0s0,0,0,0h0s0,0,0,0,0,0,0,0h0v-.07h0V24.86a.08.08,0,0,0,0,0v0c.08-.24,0-.51-.37-.7a2.34,2.34,0,0,0-.6-.19V21.29h0a.18.18,0,0,0-.1-.15.57.57,0,0,0-.51,0,.18.18,0,0,0-.11.15h0V24a1.84,1.84,0,0,0-.6.19.68.68,0,0,0-.4.56h0v5.93A.66.66,0,0,0,60.88,31.27Zm.48-5.76h0a2.73,2.73,0,0,0,.5,0h-.27Zm.78,0h-.28a2.42,2.42,0,0,0,.47,0h0Zm.93-.43-.06.06,0,0h0l.11-.12h0S63.08,25.11,63.07,25.12Zm.1-.18a0,0,0,0,1,0,0s0,0,0,.05,0,0,0,0h0a.54.54,0,0,0,.07-.13Zm-.36.39a.91.91,0,0,0,.16-.11l0,0,0,0,0,0,0,0a.66.66,0,0,1-.19.09l0,0-.13,0h0A1.18,1.18,0,0,0,62.81,25.33Zm-.62-4h0a.24.24,0,0,1-.08.06A.24.24,0,0,0,62.19,21.37Zm-.59.06a.17.17,0,0,1-.1-.12A.17.17,0,0,0,61.6,21.43Zm-.26,4.07h0l-.19-.06h0l-.21-.1A1.35,1.35,0,0,0,61.34,25.5Zm-.62-.29s0-.05-.06-.07S60.69,25.19,60.72,25.21Zm-.2-.28a.3.3,0,0,1,0-.13A.3.3,0,0,0,60.52,24.93Zm.07.14a.59.59,0,0,0,0-.08A.59.59,0,0,1,60.59,25.07Z"/><path class="cls-2" d="M71,37.9l.2.1h0l.12,0,.07,0h.07l.13,0h.05v2.74s0,.1.11.15l0,0h.31l.07,0,.07,0h0l0,0,0,0h0s0,0,0,0a0,0,0,0,0,0,0V38.09h0a.7.7,0,0,0,.14,0l.07,0,.06,0,0,0a.82.82,0,0,0,.19-.09h0l0,0,0,0,0,0s0,0,0,0h0l0,0,0-.06h0v0l0,0v0h0s0,0,0,0v0h0a.06.06,0,0,0,0,0,0,0,0,0,0,0,0h0a.06.06,0,0,1,0,0v0h0l0-5.94s0,0,0,0v0s0,0,0,0v0c.08-.25,0-.51-.37-.7a1.91,1.91,0,0,0-.6-.18V27.92h0l0,0c0-.06,0-.14-.09-.19a.57.57,0,0,0-.51,0,.18.18,0,0,0-.1.15v2.74a1.84,1.84,0,0,0-.6.19.69.69,0,0,0-.39.56h0l0,5.93A.66.66,0,0,0,71,37.9Zm.48-5.76h0a2.63,2.63,0,0,0,.49,0h-.27Zm.78,0H72a2.4,2.4,0,0,0,.46,0h0Zm.93-.42-.06.06v0l.1-.11h0S73.17,31.74,73.16,31.75Zm.11-.18,0,0s0,0,0,0v0h0l.06-.13ZM72.9,32a.91.91,0,0,0,.16-.11l0,0,0,0,0,0,0,0a.66.66,0,0,1-.19.09l0,0-.12,0h-.05A1.13,1.13,0,0,0,72.9,32Zm-1.29-4h0Zm-.19,4.13h0l-.18-.06h0L71,32A1.49,1.49,0,0,0,71.42,32.13Zm-.61-.29-.08-.09Zm-.2-.28a.2.2,0,0,1,0-.07A.2.2,0,0,0,70.61,31.56Zm.08.14a.16.16,0,0,1,0-.07A.16.16,0,0,0,70.69,31.7Z"/><path class="cls-2" d="M74.6,32.63l.19.09h0l.12,0,.07,0h.07l.13,0h0v2.73a.17.17,0,0,0,.11.15l.05,0,0,0h.27l.06,0,.08,0h0l0,0,0,0h0v0h0V32.81h0l.14,0h.07l0,0h.06l.19-.1h0l0,0,.05,0,0,0,0,0h0l0,0,.06-.06h0v0l0,0v0h0s0,0,0-.05v0h0a.06.06,0,0,0,0,0v0h0s0,0,0,0v0l0-5.93s0,0,0,0v0s0,0,0,0v0c.08-.25-.05-.5-.37-.69a1.63,1.63,0,0,0-.6-.19V22.64h0a.13.13,0,0,1,0,.08h0c0-.08,0-.17-.08-.23a.57.57,0,0,0-.51,0,.18.18,0,0,0-.1.15h0v2.75a1.63,1.63,0,0,0-.6.19.67.67,0,0,0-.39.55h0l0,5.94A.68.68,0,0,0,74.6,32.63Zm.48-5.77h0a2.63,2.63,0,0,0,.48.06h0l-.22,0h0Zm.78,0h0l-.23,0h0a2.32,2.32,0,0,0,.46-.06h0Zm.93-.43a.34.34,0,0,1-.06.06l0,0h0l.11-.12h0S76.8,26.46,76.79,26.47Zm.11-.18,0,0s0,0,0,0v0h0l.06-.12Zm-.37.4a1.11,1.11,0,0,0,.16-.12l0,0,0,0,0,0,0,0-.19.09,0,0-.13,0,0,0A1.67,1.67,0,0,0,76.53,26.69Zm-.62-4h0a.29.29,0,0,1-.08.07A.29.29,0,0,0,75.91,22.72Zm-.59.07a.18.18,0,0,1-.09-.12A.18.18,0,0,0,75.32,22.79Zm-.7,3.9a1.47,1.47,0,0,0,.43.16h0l-.18-.05,0,0a1.21,1.21,0,0,1-.2-.09,1,1,0,0,1-.3-.26A1,1,0,0,0,74.62,26.69Zm-.38-.41a.09.09,0,0,0,0-.05A.09.09,0,0,1,74.24,26.28Zm.08.15,0-.1Z"/><path class="cls-2" d="M78.67,36.21l.2.09h0l.12,0h.14l.14,0h0v2.73a.18.18,0,0,0,.11.15l0,0h.31l.07,0s.05,0,.08,0h0a.1.1,0,0,0,.05,0l0,0h0V36.39h0l.14,0,.07,0,.06,0,.05,0,.19-.09h0l0,0,0,0,0,0,0,0h0l.06-.07a0,0,0,0,0,0,0h0l0,0v0h0s0,0,0,0v0h0s0,0,0,0v0h0s0,0,0,0v0h0l0-5.94a.06.06,0,0,1,0,0v0s0,0,0,0h0c.07-.24,0-.5-.38-.69A1.84,1.84,0,0,0,80,29V26.23h0s0-.1-.11-.14a.52.52,0,0,0-.51,0,.17.17,0,0,0-.1.14h0V29a1.63,1.63,0,0,0-.6.19.67.67,0,0,0-.39.55h0l0,5.94A.68.68,0,0,0,78.67,36.21Zm.48-5.77h0a2.05,2.05,0,0,0,.49.06h-.27Zm.79,0h-.29a2.42,2.42,0,0,0,.47-.05h0Zm.92-.42,0,.06s0,0,0,0h0a.6.6,0,0,0,.11-.12h0Zm.11-.18s0,0,0,0l0,0s0,0,0,0h0a.34.34,0,0,0,.06-.12Zm-.37.39a.74.74,0,0,0,.16-.11h0l0,0-.06,0-.05,0-.18.09-.06,0-.12,0h0A1.67,1.67,0,0,0,80.6,30.27Zm-.62-4h0a.19.19,0,0,1-.08.07A.19.19,0,0,0,80,26.3Zm-.85,4.14h0l-.18-.06h0l-.2-.1A1.55,1.55,0,0,0,79.13,30.44Zm-.62-.29-.06-.07Zm-.2-.29a.51.51,0,0,1,0-.13A.51.51,0,0,0,78.31,29.86Zm.08.15,0-.08Z"/><path class="cls-2" d="M82,28.87l.19.09h0l0,0,.11,0h.15l.13,0h0v2.73a.19.19,0,0,0,.11.15l0,0,0,0h.26l.07,0,.08,0h0l.05,0s0,0,0,0h0V29.05h0l.13,0,.07,0,.06,0,.05,0,.19-.09h0l0,0,0,0,0,0,0,0h0s0,0,0,0l.06-.06h0a.09.09,0,0,0,0-.05l0,0h0l0,0a0,0,0,0,0,0,0h0v-.06h0v0a0,0,0,0,0,0,0h0V22.38a.67.67,0,0,0-.4-.56,1.63,1.63,0,0,0-.6-.19V18.88h0s0,0,0,.05a.17.17,0,0,0-.09-.2.57.57,0,0,0-.51,0c-.11.06-.13.15-.08.23a.13.13,0,0,1,0-.08v2.75a1.64,1.64,0,0,0-.59.19.66.66,0,0,0-.4.55h0l0,5.94A.7.7,0,0,0,82,28.87Zm-.16-6.07Zm.64.3h0a1.91,1.91,0,0,0,.48.06h0l-.22,0h0Zm.78,0h0l-.23,0h0a1.84,1.84,0,0,0,.47-.06h0Zm.93-.43-.06.07,0,0,.11-.12h0Zm.09-.14s0,0,0,0l0,0h0a.75.75,0,0,0,.07-.12h0S84.32,22.56,84.32,22.57Zm0-.15a.08.08,0,0,1,0,0v.05a.59.59,0,0,0,0-.13Zm-.39.51.16-.12,0,0,0,0,0,0,0,0-.19.09,0,0-.13,0h0A1.75,1.75,0,0,0,84,22.93Zm-1.48.17h0L82.29,23h0l-.21-.1A1.92,1.92,0,0,0,82.49,23.1Zm-.81-.58s0-.05,0-.08S81.67,22.5,81.68,22.52Zm.07.15a.36.36,0,0,1,0-.09A.36.36,0,0,0,81.75,22.67Z"/><polygon class="cls-2" points="96.21 30.36 89.72 34.28 87.57 26.34 82.07 40.68 78.71 40.68 76.02 43.94 71 42.07 68.5 46.53 61.48 34.95 58.81 52.43 54.99 50.81 52.56 56.88 48.84 52.26 45.36 61.95 45.92 62.15 49.04 53.45 52.73 58.03 55.31 51.58 59.28 53.27 61.82 36.64 68.52 47.7 71.27 42.8 76.2 44.64 78.99 41.27 82.48 41.27 87.48 28.24 89.36 35.18 96.51 30.86 96.21 30.36"/><path class="cls-2" d="M85.55,23.93l.19.09h0l.11,0,.07,0H86l.13,0h0v1.54a.14.14,0,0,0,.09.12l0,0h.32l.06,0h0l0,0h0s0,0,0,0h0a0,0,0,0,0,0,0V24.13l.09,0h0l.13,0,.07,0,0,0,0,0,.18-.08h0l0,0,0,0,0,0,0,0h0l0,0,0-.06h0l0-.05,0,0h0s0,0,0,0v0h0a.06.06,0,0,0,0,0v0h0a.09.09,0,0,0,0-.05v0h0V20a.08.08,0,0,1,0,0v.05a.6.6,0,0,0-.36-.67,1.8,1.8,0,0,0-.67-.19V16.91h0s0,0,0,0h0v0c0-.06,0-.14-.07-.19a.47.47,0,0,0-.43,0,.15.15,0,0,0-.09.12h0v2.35a1.81,1.81,0,0,0-.57.18.66.66,0,0,0-.38.53h0v3.43A.63.63,0,0,0,85.55,23.93ZM86,20.67h0a2.31,2.31,0,0,0,.46,0h-.25Zm.75,0h-.27a2.42,2.42,0,0,0,.47,0h0Zm.89-.41-.05.06,0,0h0l.11-.12h0Zm.1-.17v0l0,0,0,0v0a.54.54,0,0,0,.07-.13Zm-.35.38.16-.11,0,0,0,0,0,0,0,0-.18.09h0a.6.6,0,0,1-.19.06h0A1.37,1.37,0,0,0,87.4,20.5ZM86.65,17a.17.17,0,0,0,.06-.06h0s0,0,0,0l0,0h0l-.09,0h-.12A.5.5,0,0,0,86.65,17Zm-.22,0h-.11l-.1,0A.5.5,0,0,0,86.43,17.08ZM86.15,17l0,0ZM86,20.66h0l-.18-.06h0a1.21,1.21,0,0,1-.2-.09A1.75,1.75,0,0,0,86,20.66Zm-.78-.55a0,0,0,0,0,0,0A0,0,0,0,1,85.2,20.11Z"/><path class="cls-2" d="M89,28a.82.82,0,0,0,.19.09h0l.11,0h.14l.13,0h0V29.7a.15.15,0,0,0,.08.12l0,0H90s0,0,0,0h.07l0,0h0l0,0h0a0,0,0,0,0,0,0h0V28.15h.13l.13,0,.07,0,.06,0,.05,0,.18-.09h0l0,0,0,0,0,0,0,0h0l.06-.06s0,0,0,0h0l0,0v0h0l0,0a0,0,0,0,1,0,0h0s0,0,0,0v0h0v-.07h0V24s0,0,0,0v0s0,0,0,0v0c.08-.24,0-.49-.36-.67a1.59,1.59,0,0,0-.66-.19V20.93h0v0h0l0,0h0l0,0h0s0,0,0,0l-.09,0H89.9a.43.43,0,0,0,.21-.05.13.13,0,0,0,0-.25.47.47,0,0,0-.43,0c-.06,0-.09.08-.08.12v2.35a1.47,1.47,0,0,0-.57.18.63.63,0,0,0-.38.53h0v3.43A.65.65,0,0,0,89,28Zm.46-3.26h0a1.84,1.84,0,0,0,.47.06h0l-.22,0h0Zm.75,0h0l-.23,0h0a1.84,1.84,0,0,0,.47-.06h0Zm.9-.41-.06.06,0,0h0a.52.52,0,0,0,.1-.11h0S91.12,24.31,91.12,24.32Zm.1-.17a0,0,0,0,0,0,0l0,0s0,0,0,0h0a.34.34,0,0,0,.06-.12Zm-.35.38.15-.12a0,0,0,0,1,0,0l0,0,0,0,0,0-.19.08-.05,0-.19.06h0A2,2,0,0,0,90.87,24.53Zm-1-3.42h-.12l-.1,0A.51.51,0,0,0,89.9,21.11Zm-.46,3.58h0l-.18-.05h0l-.2-.09A1.92,1.92,0,0,0,89.44,24.69Zm-.78-.56s0-.07,0-.11S88.65,24.1,88.66,24.13Z"/><path class="cls-2" d="M92.73,29.56l.19.09h0l.11,0,.06,0h.08l.12,0h0V31.3a.12.12,0,0,0,.08.12l0,0h.31l.06,0h.07v0h0V29.76l.09,0h0l.13,0,.07,0,0,0,0,0,.19-.08h0l0,0,0,0,0,0,0,0h0v0l0-.06h0l0,0v0h0a.08.08,0,0,0,0,0l0,0h0v0s0,0,0,0h0V29h0V25.68s0,0,0,0v0c.08-.24,0-.49-.36-.67a1.75,1.75,0,0,0-.67-.19V22.54h0a0,0,0,0,1,0,0h0a0,0,0,0,1,0,0h0l0,0h0l0,0a.14.14,0,0,1-.09,0h-.12a.43.43,0,0,0,.21-.05.13.13,0,0,0,0-.25.47.47,0,0,0-.43,0,.15.15,0,0,0-.09.13v2.34a1.66,1.66,0,0,0-.57.18.64.64,0,0,0-.38.53h0V29A.67.67,0,0,0,92.73,29.56Zm.46-3.26h0a2.42,2.42,0,0,0,.47.05H93.4A1.52,1.52,0,0,1,93.19,26.3Zm.75,0h-.26a2.42,2.42,0,0,0,.47-.05h0Zm.9-.41-.06.06,0,0h0l.1-.12h0S94.84,25.91,94.84,25.92Zm.1-.17,0,0v0s0,0,0,0h0a.67.67,0,0,0,.06-.12Zm-.35.38a1,1,0,0,0,.15-.11l0,0,0,0,0,0,0,0-.19.09h-.05a.6.6,0,0,1-.19.06h0A1.59,1.59,0,0,0,94.59,26.13Zm-1-3.42H93.5l-.1,0A.51.51,0,0,0,93.62,22.71Zm-.46,3.58h0L93,26.23h0a1.21,1.21,0,0,1-.2-.09A1.92,1.92,0,0,0,93.16,26.29Zm-.78-.55s0-.08,0-.11S92.37,25.7,92.38,25.74Z"/><g class="cls-3"><path d="M8,64.06C3.43,66.7,3.4,71,8,73.63l15,8.73c4.55,2.64,12,2.64,16.52,0L59,71.12c4.58-2.65,4.6-6.93.05-9.58L44,52.81c-4.55-2.64-11.94-2.64-16.52,0Z"/></g><polygon class="cls-4" points="30.44 80.74 27.08 78.79 58.83 60.45 62.18 62.41 30.44 80.74"/><path class="cls-5" d="M30.45,84.73v-4l-3.36-1.95v4a1.82,1.82,0,0,0,.77,1.67l3.35,2A1.81,1.81,0,0,1,30.45,84.73Z"/><path class="cls-6" d="M30.45,84.73v-4L62.18,62.41l0,4a5.73,5.73,0,0,1-2.6,4.49L33.07,86.22C31.63,87.05,30.46,86.38,30.45,84.73Z"/><polygon class="cls-7" points="30.44 80.74 27.08 78.79 26.93 25.02 30.29 26.97 30.44 80.74"/><polygon class="cls-8" points="30.29 26.97 26.93 25.02 58.67 6.69 62.03 8.64 30.29 26.97"/><polygon class="cls-9" points="62.03 8.64 62.18 62.41 30.44 80.74 30.29 26.97 62.03 8.64"/><g class="cls-10"><g class="cls-11"><g class="cls-10"><path class="cls-12" d="M52.69,12.35,49.33,10.4a.87.87,0,0,0,.21-.17l3.36,1.95a.68.68,0,0,1-.21.17Z"/><path class="cls-13" d="M52.9,12.18l-3.36-1.95a.23.23,0,0,0,.07-.07L53,12.11a.23.23,0,0,1-.07.07Z"/><path class="cls-14" d="M53,12.11l-3.36-1.95.06-.06,3.35,2-.05.06Z"/><path class="cls-15" d="M53,12.05l-3.35-2a.21.21,0,0,1,0-.06l3.35,2,0,.06Z"/><path class="cls-16" d="M53.06,12l-3.35-2,0-.06,3.36,2,0,.05Z"/><path class="cls-17" d="M53.1,11.94l-3.36-2,0-.05,3.35,2,0,.06Z"/><path class="cls-18" d="M53.13,11.88l-3.35-2,0,0,3.35,1.95,0,.05Z"/><path class="cls-19" d="M53.16,11.83,49.81,9.88a.08.08,0,0,1,0-.05l3.36,1.95,0,.05Z"/><path class="cls-20" d="M53.19,11.78,49.83,9.83l0-.06,3.35,2a.14.14,0,0,1,0,.06Z"/><path class="cls-21" d="M53.21,11.72l-3.35-2,0,0,3.36,1.94,0,.06Z"/><path class="cls-22" d="M53.24,11.66,49.88,9.72a.64.64,0,0,1,0-.07l3.36,2s0,0,0,.05Z"/><path class="cls-23" d="M53.26,11.61l-3.36-2a.14.14,0,0,0,0-.06l3.36,1.95a.14.14,0,0,0,0,.07Z"/><path class="cls-24" d="M53.28,11.54,49.92,9.59a.25.25,0,0,0,0-.07l3.36,2s0,0,0,.07Z"/><path class="cls-25" d="M53.3,11.47l-3.36-2s0-.06,0-.09l3.35,2s0,.06,0,.09Z"/><path class="cls-26" d="M53.31,11.38,50,9.43V9.3a.43.43,0,0,0-.18-.4l3.36,1.95a.43.43,0,0,1,.18.4.57.57,0,0,1,0,.13Z"/></g></g></g><g class="cls-10"><g class="cls-27"><g class="cls-10"><path class="cls-28" d="M52.69,10.89l-3.36-2,.09,0,3.36,1.95a.19.19,0,0,0-.09,0Z"/><path class="cls-29" d="M52.78,10.85,49.42,8.9l.07,0,3.36,2-.07,0Z"/><path class="cls-30" d="M52.85,10.82l-3.36-2h.06l3.36,2Z"/><path class="cls-31" d="M52.91,10.81l-3.36-2h0l3.36,2Z"/><path class="cls-32" d="M53,10.8l-3.36-2h0l3.35,2Z"/><path class="cls-33" d="M53,10.81l-3.35-2h0l3.36,2Z"/><path class="cls-34" d="M53,10.81l-3.36-2h0l3.36,2Z"/><path class="cls-35" d="M53.07,10.82l-3.36-2s0,0,0,0l3.36,1.95Z"/><path class="cls-36" d="M53.1,10.83,49.74,8.88h0l3.35,2,0,0Z"/><path class="cls-37" d="M53.13,10.85l-3.35-2h0l3.36,1.95h0Z"/></g></g></g><polygon class="cls-4" points="39.01 20.25 35.65 18.3 49.33 10.4 52.69 12.35 39.01 20.25"/><g class="cls-10"><g class="cls-38"><g class="cls-10"><polygon class="cls-21" points="38.55 20.29 35.2 18.34 35.2 18.34 38.56 20.29 38.55 20.29 38.55 20.29"/><path class="cls-20" d="M38.56,20.29,35.2,18.34l0,0,3.36,1.95,0,0Z"/><path class="cls-19" d="M38.59,20.31l-3.36-1.95h0l3.35,1.95Z"/><path class="cls-18" d="M38.62,20.32l-3.35-1.95h0l3.36,1.95Z"/><path class="cls-17" d="M38.66,20.33,35.3,18.38h0l3.36,1.95Z"/><path class="cls-16" d="M38.7,20.33l-3.36-1.95h0l3.36,1.95s0,0,0,0Z"/><path class="cls-15" d="M38.74,20.33l-3.36-1.95h0l3.36,1.95Z"/><path class="cls-14" d="M38.79,20.33l-3.36-1.95h0l3.36,1.95Z"/><path class="cls-13" d="M38.84,20.32l-3.36-1.95.08,0,3.36,1.95-.08,0Z"/><path class="cls-12" d="M38.92,20.29l-3.36-1.95.09,0L39,20.25l-.09,0Z"/></g></g></g><polygon class="cls-8" points="39 18.79 35.65 16.84 49.33 8.94 52.69 10.89 39 18.79"/><g class="cls-10"><g class="cls-39"><g class="cls-10"><path class="cls-40" d="M38.55,20.29,35.2,18.34a.42.42,0,0,1-.19-.41s0-.08,0-.12l3.36,2a.53.53,0,0,0,0,.13.43.43,0,0,0,.18.4Z"/><path class="cls-41" d="M38.38,19.76l-3.36-2a.29.29,0,0,1,0-.09l3.35,2a.28.28,0,0,0,0,.09Z"/><path class="cls-42" d="M38.39,19.67l-3.35-2s0,0,0-.07l3.36,2s0,0,0,.07Z"/><path class="cls-43" d="M38.41,19.6l-3.36-2a.21.21,0,0,0,0-.06l3.36,1.94a.64.64,0,0,1,0,.07Z"/><path class="cls-44" d="M38.43,19.53l-3.36-1.94,0-.07,3.35,2a.08.08,0,0,1,0,.05Z"/><path class="cls-37" d="M38.45,19.48l-3.35-2,0-.05,3.36,2s0,0,0,.06Z"/><path class="cls-36" d="M38.48,19.42l-3.36-2,0,0,3.36,1.95a.08.08,0,0,0,0,.05Z"/><path class="cls-35" d="M38.5,19.37l-3.36-1.95,0-.06,3.36,1.95,0,.06Z"/><path class="cls-34" d="M38.53,19.31l-3.36-1.95,0-.05,3.36,2,0,0Z"/><path class="cls-33" d="M38.56,19.26l-3.36-2,0-.06,3.36,1.95,0,.06Z"/><path class="cls-32" d="M38.59,19.2l-3.36-1.95,0-.05,3.35,1.95,0,.05Z"/><path class="cls-31" d="M38.62,19.15,35.27,17.2a.21.21,0,0,1,0-.06l3.36,1.95-.05.06Z"/><path class="cls-30" d="M38.67,19.09l-3.36-1.95,0-.06,3.36,2,0,.06Z"/><path class="cls-29" d="M38.72,19l-3.36-2,.07-.07L38.79,19a.46.46,0,0,0-.07.07Z"/><path class="cls-28" d="M38.79,19,35.43,17a.87.87,0,0,1,.22-.17L39,18.79a1,1,0,0,0-.21.17Z"/></g></g></g><path class="cls-45" d="M52.69,10.89c.35-.2.63,0,.63.36a1.39,1.39,0,0,1-.63,1.1L39,20.25c-.36.2-.64,0-.64-.36a1.4,1.4,0,0,1,.63-1.1Z"/><path class="cls-6" d="M59.42,4.83C60.85,4,62,4.67,62,6.32V8.64L30.29,27V24.64a5.73,5.73,0,0,1,2.6-4.49Zm-6.73,7.52a1.39,1.39,0,0,0,.63-1.1c0-.4-.28-.56-.63-.36L39,18.79a1.4,1.4,0,0,0-.63,1.1c0,.4.28.56.64.36l13.68-7.9Z"/><path class="cls-5" d="M59.84,4.62,60,4.56l.11,0,.11,0,.13,0h.29a1.08,1.08,0,0,1,.19,0h0l.14,0h0l.17.08L57.91,2.69h0l-.13-.06h-.07l-.06,0h-.08l0,0h0l-.15,0h-.44l-.1,0-.06,0-.06,0-.18.06-.07,0,0,0-.33.16L29.52,18.2a3.51,3.51,0,0,0-.4.27l-.07.05c-.13.1-.25.21-.37.32l0,0,0,.06-.18.18-.05.06s0,0-.05,0a.64.64,0,0,1-.1.13l-.06.08-.06.07-.06.1-.06.07-.08.12a.16.16,0,0,0,0,.07l0,0a1.59,1.59,0,0,0-.13.22v0a.05.05,0,0,0,0,0,.65.65,0,0,0-.09.16l0,.08,0,.07a.43.43,0,0,1,0,.07l-.08.18s0,0,0,0h0a2.29,2.29,0,0,0-.1.23s0,0,0,0l0,.08,0,.12a.29.29,0,0,1,0,.09.49.49,0,0,1,0,.11.14.14,0,0,1,0,.06l0,.12,0,.14v0s0,.07,0,.1l0,.21a.11.11,0,0,0,0,.05.13.13,0,0,1,0,.06,3.46,3.46,0,0,0,0,.45V25L30.29,27V24.64a3.52,3.52,0,0,1,0-.45s0-.08,0-.11,0-.14,0-.21l0-.14,0-.14c0-.06,0-.12,0-.18l0-.11a1.72,1.72,0,0,0,.07-.21l0-.08.12-.29,0,0a2.56,2.56,0,0,1,.11-.24l0-.09.12-.22a.1.1,0,0,1,0-.05,2.4,2.4,0,0,1,.16-.27.35.35,0,0,1,.05-.08l.13-.18a.61.61,0,0,1,.07-.1l.12-.15.1-.12.1-.12.17-.18.09-.09c.12-.11.24-.22.37-.32l.06,0a4.81,4.81,0,0,1,.41-.27L59.42,4.83a2.48,2.48,0,0,1,.32-.17Z"/><polygon class="cls-46" points="61.84 10.89 61.97 54.84 30.39 73.07 30.35 59.21 33.07 52.62 36.46 47.87 39.99 35.7 46.95 32.88 52.1 23.58 58.08 21.62 61.84 10.89"/><g class="cls-10"><polygon class="cls-47" points="59.64 35.7 58.19 34.87 61.96 24.14 63.4 24.98 59.64 35.7"/><polygon class="cls-47" points="48.5 46.97 47.06 46.13 52.21 36.83 53.66 37.67 48.5 46.97"/><polygon class="cls-48" points="53.66 37.67 52.21 36.83 58.19 34.87 59.64 35.7 53.66 37.67"/><polygon class="cls-48" points="31.94 87.16 30.5 86.32 30.46 72.46 31.9 73.3 31.94 87.16"/><polygon class="cls-48" points="34.63 66.7 33.19 65.86 36.57 61.12 38.02 61.95 34.63 66.7"/><polygon class="cls-47" points="31.9 73.3 30.46 72.46 33.19 65.86 34.63 66.7 31.9 73.3"/><polygon class="cls-48" points="41.55 49.79 40.1 48.95 47.06 46.13 48.5 46.97 41.55 49.79"/><polygon class="cls-47" points="38.02 61.95 36.57 61.12 40.1 48.95 41.55 49.79 38.02 61.95"/><polygon class="cls-49" points="63.4 24.98 63.53 68.92 31.94 87.16 31.9 73.3 34.63 66.7 38.02 61.95 41.55 49.79 48.5 46.97 53.66 37.67 59.64 35.7 63.4 24.98"/></g><g class="cls-10"><polygon class="cls-50" points="58.6 51.8 57.16 50.96 63.38 36.56 64.82 37.4 58.6 51.8"/><polygon class="cls-50" points="41.54 76.38 40.1 75.54 42.78 66.63 44.22 67.47 41.54 76.38"/><polygon class="cls-51" points="44.22 67.47 42.78 66.63 47.56 67.55 49 68.39 44.22 67.47"/><polygon class="cls-50" points="49 68.39 47.56 67.55 52.38 50.03 53.83 50.87 49 68.39"/><polygon class="cls-51" points="53.83 50.87 52.38 50.03 57.16 50.96 58.6 51.8 53.83 50.87"/><polygon class="cls-50" points="38.76 75.23 37.31 74.39 40.1 75.54 41.54 76.38 38.76 75.23"/><polygon class="cls-50" points="33.39 87.99 31.94 87.15 37.31 74.39 38.76 75.23 33.39 87.99"/><polygon class="cls-52" points="64.82 37.4 64.91 69.79 33.39 87.99 38.76 75.23 41.54 76.38 44.22 67.47 49 68.39 53.83 50.87 58.6 51.8 64.82 37.4"/></g><g class="cls-10"><polygon class="cls-53" points="61.54 66.49 60.09 65.65 64.92 59.51 66.36 60.35 61.54 66.49"/><polygon class="cls-54" points="51.85 73.86 50.41 73.02 54.02 65.8 55.47 66.64 51.85 73.86"/><polygon class="cls-55" points="55.47 66.64 54.02 65.8 60.09 65.65 61.54 66.49 55.47 66.64"/><polygon class="cls-56" points="45.8 78.64 44.35 77.8 50.41 73.02 51.85 73.86 45.8 78.64"/><polygon class="cls-57" points="41.44 83.11 40 82.27 44.35 77.8 45.8 78.64 41.44 83.11"/><polygon class="cls-58" points="34.83 88.8 33.39 87.96 40 82.27 41.44 83.11 34.83 88.8"/><polygon class="cls-59" points="66.36 60.35 66.39 70.58 34.83 88.8 41.44 83.11 45.8 78.64 51.85 73.86 55.47 66.64 61.54 66.49 66.36 60.35"/></g><path class="cls-60" d="M79,86.52c4.56,2.37,4.54,6.17,0,8.52a19.87,19.87,0,0,1-16.38,0c-4.53-2.35-4.56-6.17,0-8.52S74.42,84.18,79,86.52Z"/><g class="cls-61"><path class="cls-62" d="M80,79c5.2,2.7,5.18,7,0,9.69s-13.45,2.7-18.65,0-5.19-7-.06-9.69S74.81,76.35,80,79Z"/></g><g class="cls-63"><path class="cls-64" d="M81,71.53c5.83,3,5.81,7.88.06,10.88s-15.09,3-20.93,0-5.82-7.88-.06-10.88S75.21,68.53,81,71.53Z"/></g><g class="cls-65"><path class="cls-66" d="M82,64c6.47,3.35,6.45,8.73.07,12.06s-16.73,3.35-23.2,0S52.44,67.36,58.81,64,75.6,60.71,82,64Z"/></g><g class="cls-67"><path class="cls-68" d="M83,56.54c7.11,3.69,7.08,9.59.08,13.24s-18.37,3.69-25.47,0-7.09-9.59-.09-13.24S76,52.89,83,56.54Z"/></g><g class="cls-69"><path class="cls-70" d="M84.06,49.05c7.74,4,7.71,10.44.09,14.42s-20,4-27.74,0S48.69,53,56.31,49.05,76.39,45.07,84.06,49.05Z"/></g><g class="cls-71"><path class="cls-72" d="M85.09,41.55c8.37,4.34,8.34,11.3.09,15.6s-21.65,4.34-30,0-8.35-11.3-.1-15.6S76.78,37.25,85.09,41.55Z"/></g><g class="cls-73"><path class="cls-74" d="M79,86.56c4.56,2.37,4.54,6.17,0,8.52a19.87,19.87,0,0,1-16.38,0c-4.53-2.35-4.56-6.17,0-8.52S74.42,84.22,79,86.56Z"/></g><path class="cls-75" d="M17.91,43.33l-1.83,1.06a.35.35,0,0,1-.37,0l-1.84-1.06a.37.37,0,0,1,0-.64l1.83-1.07a.42.42,0,0,1,.38,0l1.84,1.07A.37.37,0,0,1,17.91,43.33Z"/><g class="cls-61"><path class="cls-75" d="M17.91,44.64,16.08,45.7a.35.35,0,0,1-.37,0l-1.84-1.06a.38.38,0,0,1,0-.65l1.83-1.06a.37.37,0,0,1,.38,0L17.91,44A.38.38,0,0,1,17.91,44.64Z"/></g><g class="cls-63"><path class="cls-75" d="M17.91,46,16.08,47a.35.35,0,0,1-.37,0L13.87,46a.38.38,0,0,1,0-.65l1.83-1.06a.37.37,0,0,1,.38,0l1.84,1.06A.38.38,0,0,1,17.91,46Z"/></g><g class="cls-65"><path class="cls-75" d="M17.91,47.26l-1.83,1.06a.4.4,0,0,1-.37,0l-1.84-1.07a.37.37,0,0,1,0-.64l1.83-1.06a.37.37,0,0,1,.38,0l1.84,1.06A.38.38,0,0,1,17.91,47.26Z"/></g><g class="cls-67"><path class="cls-75" d="M17.91,48.56l-1.83,1.07a.4.4,0,0,1-.37,0l-1.84-1.07a.37.37,0,0,1,0-.64l1.83-1.07a.42.42,0,0,1,.38,0l1.84,1.07A.37.37,0,0,1,17.91,48.56Z"/></g><g class="cls-69"><path class="cls-75" d="M17.91,49.87l-1.83,1.06a.35.35,0,0,1-.37,0l-1.84-1.06a.37.37,0,0,1,0-.64l1.83-1.07a.42.42,0,0,1,.38,0l1.84,1.07A.37.37,0,0,1,17.91,49.87Z"/></g><g class="cls-71"><path class="cls-75" d="M17.91,51.18l-1.83,1.06a.35.35,0,0,1-.37,0l-1.84-1.06a.38.38,0,0,1,0-.65l1.83-1.06a.37.37,0,0,1,.38,0l1.84,1.06A.38.38,0,0,1,17.91,51.18Z"/></g><path class="cls-75" d="M17.91,43.33l-1.83,1.06a.35.35,0,0,1-.37,0l-1.84-1.06a.37.37,0,0,1,0-.64l1.83-1.07a.42.42,0,0,1,.38,0l1.84,1.07A.37.37,0,0,1,17.91,43.33Z"/><g class="cls-76"><path d="M17.91,51.07l-1.83,1.06a.35.35,0,0,1-.37,0l-1.84-1.06a.38.38,0,0,1,0-.65l1.83-1.06a.37.37,0,0,1,.38,0l1.84,1.06A.38.38,0,0,1,17.91,51.07Z"/></g><path class="cls-59" d="M20.76,11.7,18.57,13a.43.43,0,0,1-.44,0L15.92,11.7a.44.44,0,0,1,0-.77l2.19-1.28a.43.43,0,0,1,.44,0l2.21,1.28A.44.44,0,0,1,20.76,11.7Z"/><g class="cls-61"><path class="cls-59" d="M20.76,13.58l-2.19,1.27a.43.43,0,0,1-.44,0l-2.21-1.27a.45.45,0,0,1,0-.78l2.19-1.27a.43.43,0,0,1,.44,0l2.21,1.28A.44.44,0,0,1,20.76,13.58Z"/></g><g class="cls-63"><path class="cls-59" d="M20.76,15.46l-2.19,1.27a.43.43,0,0,1-.44,0l-2.21-1.28a.44.44,0,0,1,0-.77l2.19-1.27a.43.43,0,0,1,.44,0l2.21,1.27A.45.45,0,0,1,20.76,15.46Z"/></g><g class="cls-65"><path class="cls-59" d="M20.76,17.33l-2.19,1.28a.43.43,0,0,1-.44,0l-2.21-1.28a.44.44,0,0,1,0-.77l2.19-1.27a.43.43,0,0,1,.44,0l2.21,1.27A.44.44,0,0,1,20.76,17.33Z"/></g><g class="cls-67"><path class="cls-59" d="M20.76,19.21l-2.19,1.27a.43.43,0,0,1-.44,0l-2.21-1.27a.44.44,0,0,1,0-.77l2.19-1.27a.43.43,0,0,1,.44,0l2.21,1.27A.44.44,0,0,1,20.76,19.21Z"/></g><g class="cls-69"><path class="cls-59" d="M20.76,21.09l-2.19,1.27a.43.43,0,0,1-.44,0l-2.21-1.27a.44.44,0,0,1,0-.77l2.19-1.27a.43.43,0,0,1,.44,0l2.21,1.27A.44.44,0,0,1,20.76,21.09Z"/></g><g class="cls-71"><path class="cls-59" d="M20.76,23l-2.19,1.27a.43.43,0,0,1-.44,0L15.92,23a.44.44,0,0,1,0-.77l2.19-1.27a.43.43,0,0,1,.44,0l2.21,1.27A.44.44,0,0,1,20.76,23Z"/></g><path class="cls-77" d="M72.42,1.57l-1.64,1a.34.34,0,0,1-.34,0l-1.65-1a.33.33,0,0,1,0-.57l1.64-1a.35.35,0,0,1,.33,0l1.65,1A.33.33,0,0,1,72.42,1.57Z"/><g class="cls-61"><path class="cls-77" d="M72.42,3.38l-1.64,1a.34.34,0,0,1-.34,0l-1.65-1a.34.34,0,0,1,0-.58l1.64-.95a.33.33,0,0,1,.33,0l1.65.95A.33.33,0,0,1,72.42,3.38Z"/></g><g class="cls-63"><path class="cls-77" d="M72.42,5.18l-1.64,1a.34.34,0,0,1-.34,0l-1.65-1a.34.34,0,0,1,0-.58l1.64-.95a.32.32,0,0,1,.33,0l1.65.95A.33.33,0,0,1,72.42,5.18Z"/></g><g class="cls-65"><path class="cls-77" d="M72.42,7l-1.64.95a.34.34,0,0,1-.34,0L68.79,7a.34.34,0,0,1,0-.58l1.64-1a.33.33,0,0,1,.33,0l1.65,1A.33.33,0,0,1,72.42,7Z"/></g><g class="cls-67"><path class="cls-77" d="M72.42,8.78l-1.64,1a.34.34,0,0,1-.34,0l-1.65-1a.34.34,0,0,1,0-.58l1.64-.95a.33.33,0,0,1,.33,0l1.65,1A.33.33,0,0,1,72.42,8.78Z"/></g><g class="cls-69"><path class="cls-77" d="M72.42,10.58l-1.64,1a.34.34,0,0,1-.34,0l-1.65-1a.33.33,0,0,1,0-.57l1.64-1a.32.32,0,0,1,.33,0l1.65,1A.33.33,0,0,1,72.42,10.58Z"/></g><g class="cls-71"><path class="cls-77" d="M72.42,12.39l-1.64.95a.34.34,0,0,1-.34,0l-1.65-1a.33.33,0,0,1,0-.57l1.64-1a.35.35,0,0,1,.33,0l1.65,1A.33.33,0,0,1,72.42,12.39Z"/></g><g class="cls-76"><path d="M72.42,12.38l-1.64.95a.34.34,0,0,1-.34,0l-1.65-.95a.34.34,0,0,1,0-.58l1.64-1a.33.33,0,0,1,.33,0l1.65,1A.33.33,0,0,1,72.42,12.38Z"/></g><path class="cls-78" d="M72.42,1.57l-1.64,1a.34.34,0,0,1-.34,0l-1.65-1a.33.33,0,0,1,0-.57l1.64-1a.35.35,0,0,1,.33,0l1.65,1A.33.33,0,0,1,72.42,1.57Z"/><path class="cls-79" d="M64.14,53.39a9.49,9.49,0,0,0-1.29-1.15,3,3,0,0,0-2.41-.15c-.51.27.11.54.94.75a1.18,1.18,0,0,1,1,.63,4.57,4.57,0,0,0,1.07,1.08C63.74,54.75,64.14,53.39,64.14,53.39Z"/><path class="cls-80" d="M63.39,54.53a4.9,4.9,0,0,0-1.21-.85c-.55-.16-.43-.75-.8-.84-.64-.16-1.17-.38-1.12-.59.47.16.93-.36,2,.41a8.69,8.69,0,0,1,1.44,1.61C63.53,54.51,63.5,54.6,63.39,54.53Z"/><path class="cls-79" d="M63.7,54.21s-1.57-.39-2-.59-.7-.51-.59-.55,1.5.44,1.53-.08C62.64,52.71,63.48,54.11,63.7,54.21Z"/><path class="cls-81" d="M75.1,52.94s1,1.48-1.16,2.38-6.39,2.1-7.46,1.56a24.28,24.28,0,0,1-3.3-2.52S64.27,54,64,53l3.64,1.76S74.42,51.88,75.1,52.94Z"/><path class="cls-82" d="M69,54.26s5.85-3.42,7.1-1.68c0,0,1.15,1.45-.38,5.07s-2.12,7.1-1.05,9.82c0,0-7.07.94-7.84-1.2-.59-1.6,1.36-5.93.36-6.79s-.66-2.8.64-3.72S69,54.26,69,54.26Z"/><path class="cls-83" d="M69.25,48.32c-.35,4.18,1.3,3.48,1.51,4.34,0,.12,0,.11-.14,1,0,.62,2.8.51,2.74-.36,0-.3-.1-1.31-.1-1.31a14.81,14.81,0,0,1,0-2.22c.34-1.64-.71-1.77-1.58-2.55A1.41,1.41,0,0,0,69.25,48.32Z"/><path class="cls-84" d="M75.3,48.2l0-.1a3.25,3.25,0,0,0-1.52-2,3.42,3.42,0,0,0-3.93.2,1.73,1.73,0,0,0-.55.56,3.35,3.35,0,0,0-.18,1,2.84,2.84,0,0,0,.27,1.28,1.51,1.51,0,0,0,.71.71.27.27,0,0,1,.11-.16c.2-.16.53,0,.74.39s0,1.33.25,1.53a1.8,1.8,0,0,0,2.35.2C73.61,51.8,75.71,49.91,75.3,48.2Z"/><path class="cls-85" d="M74.2,46.56c0-.13-.54,0-.67.14a2.8,2.8,0,0,1-3.09,1.47,2.42,2.42,0,0,1-1.29-.82,4.83,4.83,0,0,0-.06.57,2.84,2.84,0,0,0,.27,1.28,1.51,1.51,0,0,0,.71.71.27.27,0,0,1,.11-.16c.2-.16.53,0,.74.39s0,1.33.25,1.53a1.8,1.8,0,0,0,2.35.2,7.12,7.12,0,0,0,1.17-1.35A8.4,8.4,0,0,0,74.2,46.56Z"/><path class="cls-84" d="M74.06,53.41c0-2.28.81-4.57-.26-6.71-.07-.07-.13-.22-.24-.34a.38.38,0,0,0-.38.28c-.21.67.53,1.24.54,1.82a5.93,5.93,0,0,0,.07.59,6.46,6.46,0,0,1-.07,1,4.93,4.93,0,0,1-.53,2A3.45,3.45,0,0,0,73,54a3.75,3.75,0,0,0,.89,2.31,3.52,3.52,0,0,0,1.57,1.11,1.56,1.56,0,0,0,.53,0A5.32,5.32,0,0,1,74.06,53.41Z"/><path class="cls-84" d="M76.63,52.61a9.57,9.57,0,0,0-.37-2.86A6.34,6.34,0,0,0,74.87,47a2.17,2.17,0,0,0-1.31-.66c.11.12.17.27.24.34,1.07,2.14.26,4.43.26,6.71a5.32,5.32,0,0,0,1.91,4c.23,0,.46-.12.69-.17C77,57.19,76.62,53.31,76.63,52.61Z"/><path class="cls-79" d="M60,59.92s-1.15-.13-1.51-.66a5.44,5.44,0,0,1-1-1.57c-.09-.47,0-.63.38-.5a6.42,6.42,0,0,1,1.73,1.33,1.37,1.37,0,0,0,.75.53C60.57,59.14,60.64,59.74,60,59.92Z"/><path class="cls-80" d="M60.4,59.05a1.37,1.37,0,0,1-.75-.53,6.42,6.42,0,0,0-1.73-1.33l-.14,0c.26.33.71.89,1.11,1.37a3.53,3.53,0,0,0,1.6,1A.39.39,0,0,0,60.4,59.05Z"/><path class="cls-81" d="M69.47,54.64c-.43-.36-1.35-.59-2.14.67s-2.61,4.23-2.61,4.23l-4.63-.65A.82.82,0,0,1,60,60.05s4.21,2.4,5.46,2S71.24,56.11,69.47,54.64Z"/><g class="cls-3"><path d="M64.53,87.39c-3.4,2-3.42,5.15,0,7.12a13.54,13.54,0,0,0,12.3,0c3.41-2,3.43-5.16,0-7.12A13.54,13.54,0,0,0,64.53,87.39Z"/></g><path class="cls-86" d="M73.22,65.49s2.08,1.67.93,5.58-1.46,3.75-1.1,5c.26.93,1.21,2.82,1.11,4.46-.07,1.3-.28,2-.57,4.14-.36,2.65-.28,2.09.07,3.21s-1.87,2.36-2.59,2.25.88-.67.76-2.88a53.4,53.4,0,0,0-1.93-10,45.47,45.47,0,0,1-1.48-10.87A5.37,5.37,0,0,0,73.22,65.49Z"/><path class="cls-87" d="M71.07,90.92h0Z"/><polygon class="cls-88" points="73.15 88.85 73.47 91.12 73.61 91.44 73.41 88.86 73.15 88.85"/><path class="cls-87" d="M73.49,87.38c-.3,0-.56.41-1.06,1.4-.2.41-.83,1.45-1.41,1.09-.07-.05.12-.31.12-.31s-.91-.19-1,.08.59,1.51,1.52,1.38,1.12-1.15,1.31-1.53c.41-.79.31.83.88-.74A1.28,1.28,0,0,0,73.49,87.38Z"/><path class="cls-88" d="M71.66,91a1,1,0,0,1-.58-.1c.21.12.77-.27,1.14-1a2.79,2.79,0,0,1,1.19-1.07l.17.17c-.13.38-.13-.29-.61.46C72.74,89.85,72.59,90.89,71.66,91Z"/><polygon class="cls-87" points="73.83 88.38 73.59 91.68 73.06 91.42 72.98 88.04 73.83 88.38"/><path class="cls-88" d="M73.59,91.68l.36-.26a14.13,14.13,0,0,0-.11-3.53c-.26-.55-.35-.51-.35-.51Z"/><path class="cls-89" d="M71.15,66.81s1.79,2.31.44,6.15-1.65,3.67-1.36,4.91c.22.93,1.07,2.88.89,4.51-.14,1.29-.39,2-.78,4.1-.5,2.63-.39,2.08-.1,3.21.33,1.28-2,2.26-2.69,2.12s.9-.63.9-2.84A53.66,53.66,0,0,0,67,78.9c-.54-1.42-.69-10.13-.4-12.33A3.62,3.62,0,0,0,71.15,66.81Z"/><path class="cls-87" d="M67.5,92.63h0Z"/><polygon class="cls-88" points="69.68 90.67 69.89 92.95 70.01 93.27 69.95 90.69 69.68 90.67"/><path class="cls-87" d="M70.11,89.21c-.31,0-.6.38-1.14,1.35-.22.4-.9,1.41-1.46,1-.07,0,.14-.3.14-.3s-.9-.24-1,0,.52,1.54,1.45,1.46,1.17-1.09,1.39-1.47c.44-.76.25.84.91-.69A1.29,1.29,0,0,0,70.11,89.21Z"/><path class="cls-88" d="M68.09,92.76a1,1,0,0,1-.58-.13c.2.13.79-.24,1.2-.93a2.77,2.77,0,0,1,1.24-1l.16.17c-.15.38-.12-.29-.63.43C69.23,91.65,69,92.68,68.09,92.76Z"/><polygon class="cls-87" points="70.39 90.23 69.98 93.52 69.47 93.23 69.56 89.85 70.39 90.23"/><path class="cls-88" d="M70,93.52l.37-.25a14.3,14.3,0,0,0,.08-3.52c-.24-.57-.32-.54-.32-.54Z"/><path class="cls-90" d="M74,64.43s-4.74,3.61-7.54.64a52.23,52.23,0,0,0-.65,10.18c.18,4.59.65,5.41.65,5.41s5.83,1.07,8.07-2a6.88,6.88,0,0,1-.46-4.43C74.78,72.23,76.53,68.46,74,64.43Z"/><path class="cls-91" d="M66.49,80.66s-.47-.82-.65-5.41a52.23,52.23,0,0,1,.65-10.18c2.8,3,7.6-1.11,7.6-1.11.23.18.37,1.39.54,1.6-.41.82-2.13,1-3.18,1.36-1.77.59-3.6,3.21-3.41,6,.14,2,.64,5.89.91,7.9A14.86,14.86,0,0,1,66.49,80.66Z"/><path class="cls-49" d="M20,78.61a3.11,3.11,0,0,1,0,.32,1.83,1.83,0,0,1-.06.25c0,.1-.05.21-.09.31a2.44,2.44,0,0,1-.1.24,1.77,1.77,0,0,1-.15.31,3.7,3.7,0,0,1-.25.43l-.05.06q-.15.21-.33.42s0,0-.07.07-.27.28-.42.42l-.3.25-.29.22-.35.24-.39.25c-.3.17-.62.33-.95.48l-.28.12-.79.3-.29.09a4.91,4.91,0,0,1-.51.15l-.4.11-.55.12-.38.08q-.56.09-1.14.15c-.11,0-.23,0-.35,0l-.68,0H9.38l-.51,0L8.4,84,7.9,84l-.44-.07c-.18,0-.36-.06-.53-.09l-.42-.08-.62-.15-.35-.1c-.36-.11-.72-.23-1.07-.36L4,82.89l-.26-.11c-.25-.12-.5-.25-.73-.38-2-1.14-3-2.64-3-4.13v2.78c0,1.5,1,3,3,4.14.24.13.48.26.74.38l.24.11.47.2,0,0q.52.19,1.08.36l.09,0a2.27,2.27,0,0,0,.25.06l.62.16.17,0,.25,0a4.51,4.51,0,0,0,.53.09l.21,0,.23,0,.51,0,.24,0h.22l.51,0h1.44l.68-.05.27,0h.09c.38,0,.76-.09,1.13-.16H13l.32-.07.56-.12.39-.11.52-.14.11,0,.17-.06c.27-.09.53-.19.79-.3l.29-.12c.32-.15.64-.31.94-.48l.12-.07.27-.18.35-.24.29-.22.3-.25.06,0a4.17,4.17,0,0,0,.36-.37.46.46,0,0,0,.07-.07c.07-.08.14-.15.2-.23l.13-.19,0-.06.22-.35,0-.08a1.77,1.77,0,0,0,.15-.31l.09-.18s0,0,0-.06a1.71,1.71,0,0,0,.09-.3l.06-.21v0a3.11,3.11,0,0,0,0-.32,1.23,1.23,0,0,0,0-.2V78.32A2.64,2.64,0,0,1,20,78.61Z"/><path class="cls-92" d="M20,78.93a1.83,1.83,0,0,1-.06.25c0,.1-.05.21-.09.31a2.44,2.44,0,0,1-.1.24,1.77,1.77,0,0,1-.15.31,3.7,3.7,0,0,1-.25.43l-.05.06q-.15.21-.33.42s0,0-.07.07-.27.28-.42.42l-.3.25-.29.22-.35.24-.39.25c-.3.17-.62.33-.95.48l-.28.12-.79.3-.29.09a4.91,4.91,0,0,1-.51.15l-.4.11-.55.12-.38.08q-.56.09-1.14.15c-.11,0-.23,0-.35,0l-.68,0H9.38l-.51,0L8.4,84,7.9,84l-.44-.07c-.18,0-.36-.06-.53-.09l-.42-.08-.62-.15-.35-.1c-.36-.11-.72-.23-1.07-.36L4,82.89l-.26-.11c-.25-.12-.5-.25-.73-.38-2-1.14-3-2.64-3-4.13v1.84c0,1.48,1,3,3,4.1.24.14.48.26.74.38l.24.11.47.2,0,0a9.77,9.77,0,0,0,1.08.36.24.24,0,0,0,.09,0l.25.07.62.15.17,0,.25,0,.53.1.21,0,.23,0,.51,0a2,2,0,0,0,.24,0h.22l.51,0,.26,0h1.18l.68,0h.27l.09,0c.38,0,.76-.09,1.13-.15H13l.32-.07.56-.12.39-.1.52-.15.11,0,.17-.07c.27-.09.53-.19.79-.3l.29-.12a10.38,10.38,0,0,0,.94-.48l.12-.07.27-.18.35-.23.29-.23a3.61,3.61,0,0,0,.3-.25l.06,0,.36-.36.07-.08c.07-.08.14-.15.2-.23l.13-.18,0-.07.22-.35,0-.08a1.77,1.77,0,0,0,.15-.31l.09-.18s0,0,0-.06a1.71,1.71,0,0,0,.09-.3l.06-.2v-.06c0-.1,0-.21,0-.31a1.49,1.49,0,0,0,0-.21V78.36a2.11,2.11,0,0,1,0,.25A3.11,3.11,0,0,1,20,78.93Z"/><path class="cls-48" d="M20,78.93a1.83,1.83,0,0,1-.06.25c0,.1-.05.21-.09.31a2.44,2.44,0,0,1-.1.24,1.77,1.77,0,0,1-.15.31,3.7,3.7,0,0,1-.25.43l-.05.06q-.15.21-.33.42s0,0-.07.07-.27.28-.42.42l-.3.25-.29.22-.35.24-.39.25c-.3.17-.62.33-.95.48l-.28.12-.79.3-.29.09a4.91,4.91,0,0,1-.51.15l-.4.11-.55.12-.38.08q-.56.09-1.14.15c-.11,0-.23,0-.35,0l-.68,0H9.38l-.51,0L8.4,84,7.9,84l-.44-.07c-.18,0-.36-.06-.53-.09l-.42-.08-.62-.15-.35-.1c-.36-.11-.72-.23-1.07-.36L4,82.89l-.26-.11c-.25-.12-.5-.25-.73-.38-2-1.14-3-2.64-3-4.13v1.84c0,1.48,1,3,3,4.1.24.14.48.26.74.38l.24.11.47.2,0,0a9.77,9.77,0,0,0,1.08.36.24.24,0,0,0,.09,0l.25.07.62.15.17,0,.25,0,.53.1.21,0,.23,0,.51,0a2,2,0,0,0,.24,0h.22l.51,0,.26,0h1.18l.68,0h.27l.09,0c.38,0,.76-.09,1.13-.15H13l.32-.07.56-.12.39-.1.52-.15.11,0,.17-.07c.27-.09.53-.19.79-.3l.29-.12a10.38,10.38,0,0,0,.94-.48l.12-.07.27-.18.35-.23.29-.23a3.61,3.61,0,0,0,.3-.25l.06,0,.36-.36.07-.08c.07-.08.14-.15.2-.23l.13-.18,0-.07.22-.35,0-.08a1.77,1.77,0,0,0,.15-.31l.09-.18s0,0,0-.06a1.71,1.71,0,0,0,.09-.3l.06-.2v-.06c0-.1,0-.21,0-.31a1.49,1.49,0,0,0,0-.21V78.36a2.11,2.11,0,0,1,0,.25A3.11,3.11,0,0,1,20,78.93Z"/><path class="cls-93" d="M17.09,74.19c3.93,2.26,3.95,5.94.05,8.21A15.62,15.62,0,0,1,3,82.4C-1,80.13-1,76.46,2.92,74.19A15.59,15.59,0,0,1,17.09,74.19Z"/><path class="cls-92" d="M17.09,74.19c3.93,2.26,3.95,5.94.05,8.21A15.62,15.62,0,0,1,3,82.4C-1,80.13-1,76.46,2.92,74.19A15.59,15.59,0,0,1,17.09,74.19Z"/><path class="cls-49" d="M17.09,74.68c3.93,2.26,3.95,5.45.05,7.72A15.62,15.62,0,0,1,3,82.4C-1,80.13-1,76.94,2.92,74.68A15.59,15.59,0,0,1,17.09,74.68Z"/><path class="cls-94" d="M2.92,74.68a15.59,15.59,0,0,1,14.17,0C19,75.75,19.92,77,20,78.31c.13-1.45-.85-2.92-2.94-4.12a15.59,15.59,0,0,0-14.17,0C.86,75.38-.09,76.84,0,78.28.14,77,1.09,75.74,2.92,74.68Z"/><path class="cls-95" d="M15.61,75.05c3.11,1.79,3.12,4.7,0,6.49a12.37,12.37,0,0,1-11.21,0c-3.1-1.79-3.12-4.7,0-6.49A12.32,12.32,0,0,1,15.61,75.05Z"/><path class="cls-96" d="M15.39,75.36c3,1.77,3,4.66,0,6.43a11.51,11.51,0,0,1-10.76,0c-3-1.77-3-4.65,0-6.43A11.51,11.51,0,0,1,15.39,75.36Z"/><path class="cls-92" d="M15.08,75.81l-1.1.64A2.31,2.31,0,0,1,15,77.53l-1,.28a2.17,2.17,0,0,0-1-1.06,2.21,2.21,0,0,0-2.17-.13c-.58.34-.45.75.11,1.56s.71,1.62-.28,2.2A4.35,4.35,0,0,1,7,80.45l-1.17.68-.7-.41,1.13-.66A2.74,2.74,0,0,1,5,78.78l1-.29a2.4,2.4,0,0,0,1.14,1.22,2.55,2.55,0,0,0,2.44.15c.63-.36.57-.84.07-1.52-.71-.93-.91-1.65.06-2.21a4.2,4.2,0,0,1,3.53-.07l1.13-.66Z"/><path class="cls-49" d="M24.7,75.48c0,.11,0,.21,0,.32a2.27,2.27,0,0,1-.06.25c0,.1-.05.2-.09.3a2.6,2.6,0,0,1-.1.25,2.2,2.2,0,0,1-.15.31,4.64,4.64,0,0,1-.25.42L24,77.4a4.23,4.23,0,0,1-.33.41l-.07.08q-.19.21-.42.42l-.3.25-.29.22L22.2,79l-.39.25a10.3,10.3,0,0,1-.94.47l-.29.12c-.26.11-.52.21-.79.3l-.29.1-.51.15-.4.11-.55.11-.38.08c-.37.07-.75.12-1.14.16l-.35,0-.68,0-.43,0h-1l-.51,0-.46,0c-.17,0-.34,0-.5-.06l-.45-.06-.53-.09-.42-.09a6.23,6.23,0,0,1-.62-.15l-.35-.09c-.36-.11-.72-.23-1.07-.36l-.51-.22-.26-.11c-.25-.12-.5-.25-.73-.39-2-1.14-3-2.64-3-4.13v2.79c0,1.5,1,3,3,4.13.24.14.48.27.74.39l.24.1.47.21.05,0q.53.2,1.08.36l.09,0,.25.06c.21.06.41.11.62.15l.17,0,.25,0,.53.09.22,0,.23,0c.16,0,.33,0,.5.06l.24,0h.22l.51,0h1.44l.68,0,.27,0h.09c.38,0,.76-.09,1.14-.16h.05l.32-.07.56-.11L19,83.2c.17,0,.35-.09.52-.15l.11,0,.17-.07.79-.29.29-.13a10.3,10.3,0,0,0,.94-.47l.13-.08.26-.17.35-.24c.11-.07.19-.15.29-.22l.3-.25.06-.06.36-.36a.27.27,0,0,0,.07-.08,2.2,2.2,0,0,0,.2-.23l.13-.18.05-.07c.08-.11.15-.23.22-.34l0-.08a2.2,2.2,0,0,0,.15-.31l.09-.18s0,0,0-.07a1.71,1.71,0,0,0,.09-.3l.06-.2v0c0-.11,0-.21,0-.32a1.36,1.36,0,0,0,0-.2V75.19A2.83,2.83,0,0,1,24.7,75.48Z"/><path class="cls-92" d="M24.66,75.8a2.27,2.27,0,0,1-.06.25c0,.1-.05.2-.09.3a2.6,2.6,0,0,1-.1.25,2.2,2.2,0,0,1-.15.31,4.64,4.64,0,0,1-.25.42L24,77.4a4.23,4.23,0,0,1-.33.41l-.07.08q-.19.21-.42.42l-.3.25-.29.22L22.2,79l-.39.25a10.3,10.3,0,0,1-.94.47l-.29.12c-.26.11-.52.21-.79.3l-.29.1-.51.15-.4.11-.55.11-.38.08c-.37.07-.75.12-1.14.16l-.35,0-.68,0-.43,0h-1l-.51,0-.46,0c-.17,0-.34,0-.5-.06l-.45-.06-.53-.09-.42-.09a6.23,6.23,0,0,1-.62-.15l-.35-.09c-.36-.11-.72-.23-1.07-.36l-.51-.22-.26-.11c-.25-.12-.5-.25-.73-.39-2-1.14-3-2.64-3-4.13V77c0,1.48,1,3,3,4.1.24.13.48.26.74.38l.24.11.47.2.05,0q.53.19,1.08.36l.09,0a2.27,2.27,0,0,0,.25.06l.62.16.17,0,.25,0c.17,0,.35.07.53.09l.22,0,.23,0,.5,0,.24,0h.22l.51,0h1.44l.68-.05.27,0h.09c.38,0,.76-.09,1.14-.16h.05l.32-.07.56-.12.39-.11a5.08,5.08,0,0,0,.52-.15l.11,0,.17-.06c.27-.09.53-.2.79-.3l.29-.12c.32-.15.64-.31.94-.48l.13-.07.26-.18.35-.24c.11-.07.19-.15.29-.22l.3-.25.06-.05c.13-.12.25-.25.36-.37a.27.27,0,0,0,.07-.08l.2-.22.13-.19.05-.06.22-.35,0-.08a1.77,1.77,0,0,0,.15-.31l.09-.18s0,0,0-.07a1.4,1.4,0,0,0,.09-.29l.06-.21v0c0-.11,0-.21,0-.32a1.36,1.36,0,0,0,0-.2V75.22a2.28,2.28,0,0,1,0,.26C24.69,75.59,24.68,75.69,24.66,75.8Z"/><path class="cls-48" d="M24.66,75.8a2.27,2.27,0,0,1-.06.25c0,.1-.05.2-.09.3a2.6,2.6,0,0,1-.1.25,2.2,2.2,0,0,1-.15.31,4.64,4.64,0,0,1-.25.42L24,77.4a4.23,4.23,0,0,1-.33.41l-.07.08q-.19.21-.42.42l-.3.25-.29.22L22.2,79l-.39.25a10.3,10.3,0,0,1-.94.47l-.29.12c-.26.11-.52.21-.79.3l-.29.1-.51.15-.4.11-.55.11-.38.08c-.37.07-.75.12-1.14.16l-.35,0-.68,0-.43,0h-1l-.51,0-.46,0c-.17,0-.34,0-.5-.06l-.45-.06-.53-.09-.42-.09a6.23,6.23,0,0,1-.62-.15l-.35-.09c-.36-.11-.72-.23-1.07-.36l-.51-.22-.26-.11c-.25-.12-.5-.25-.73-.39-2-1.14-3-2.64-3-4.13V77c0,1.48,1,3,3,4.1.24.13.48.26.74.38l.24.11.47.2.05,0q.53.19,1.08.36l.09,0a2.27,2.27,0,0,0,.25.06l.62.16.17,0,.25,0c.17,0,.35.07.53.09l.22,0,.23,0,.5,0,.24,0h.22l.51,0h1.44l.68-.05.27,0h.09c.38,0,.76-.09,1.14-.16h.05l.32-.07.56-.12.39-.11a5.08,5.08,0,0,0,.52-.15l.11,0,.17-.06c.27-.09.53-.2.79-.3l.29-.12c.32-.15.64-.31.94-.48l.13-.07.26-.18.35-.24c.11-.07.19-.15.29-.22l.3-.25.06-.05c.13-.12.25-.25.36-.37a.27.27,0,0,0,.07-.08l.2-.22.13-.19.05-.06.22-.35,0-.08a1.77,1.77,0,0,0,.15-.31l.09-.18s0,0,0-.07a1.4,1.4,0,0,0,.09-.29l.06-.21v0c0-.11,0-.21,0-.32a1.36,1.36,0,0,0,0-.2V75.22a2.28,2.28,0,0,1,0,.26C24.69,75.59,24.68,75.69,24.66,75.8Z"/><path class="cls-93" d="M21.76,71.05c3.93,2.27,3.95,6,0,8.22a15.62,15.62,0,0,1-14.17,0c-3.93-2.26-3.95-5.94,0-8.2A15.62,15.62,0,0,1,21.76,71.05Z"/><path class="cls-92" d="M21.76,71.05c3.93,2.27,3.95,6,0,8.22a15.62,15.62,0,0,1-14.17,0c-3.93-2.26-3.95-5.94,0-8.2A15.62,15.62,0,0,1,21.76,71.05Z"/><path class="cls-49" d="M21.76,71.54c3.93,2.27,3.95,5.46,0,7.73a15.62,15.62,0,0,1-14.17,0c-3.93-2.26-3.95-5.45,0-7.72A15.62,15.62,0,0,1,21.76,71.54Z"/><path class="cls-94" d="M7.59,71.54a15.62,15.62,0,0,1,14.17,0c1.86,1.07,2.83,2.35,2.94,3.64.13-1.45-.85-2.92-2.94-4.13a15.62,15.62,0,0,0-14.17,0c-2.06,1.19-3,2.64-2.89,4.08C4.81,73.87,5.76,72.6,7.59,71.54Z"/><path class="cls-95" d="M20.28,71.91c3.11,1.8,3.12,4.7,0,6.5a12.34,12.34,0,0,1-11.21,0C6,76.61,6,73.71,9.08,71.91A12.35,12.35,0,0,1,20.28,71.91Z"/><path class="cls-96" d="M20.06,72.22c3,1.78,3,4.66,0,6.44a11.53,11.53,0,0,1-10.77,0c-3-1.78-3-4.66,0-6.44A11.57,11.57,0,0,1,20.06,72.22Z"/><path class="cls-92" d="M19.75,72.68l-1.1.64a2.3,2.3,0,0,1,1.06,1.07l-1,.28a2.25,2.25,0,0,0-1-1,2.18,2.18,0,0,0-2.17-.13c-.58.34-.45.74.11,1.56s.71,1.62-.28,2.19a4.38,4.38,0,0,1-3.71.08L10.45,78l-.7-.4,1.13-.66a2.71,2.71,0,0,1-1.24-1.29l1-.28a2.4,2.4,0,0,0,1.14,1.22,2.55,2.55,0,0,0,2.44.15c.63-.37.57-.84.07-1.52-.71-.93-.91-1.65.06-2.21a4.13,4.13,0,0,1,3.53-.07L19,72.27Z"/><path class="cls-49" d="M23,71.38c0,.11,0,.21,0,.32a2.27,2.27,0,0,1-.06.25c0,.1-.05.2-.09.3a1.09,1.09,0,0,1-.1.25,2.2,2.2,0,0,1-.15.31,2.58,2.58,0,0,1-.25.42.18.18,0,0,1-.05.07,4.23,4.23,0,0,1-.33.41.27.27,0,0,1-.07.08,5.54,5.54,0,0,1-.42.42l-.3.25-.29.22-.35.24-.39.25a10.3,10.3,0,0,1-.94.47l-.29.13-.79.29-.28.1c-.17.06-.35.1-.52.15l-.39.11-.56.11-.38.08c-.37.07-.75.12-1.13.16l-.36,0-.68,0H12.39l-.51,0-.46,0c-.17,0-.34,0-.5-.06l-.45-.06-.53-.09-.42-.09c-.21,0-.41-.09-.62-.15l-.34-.09q-.56-.17-1.08-.36L7,75.66l-.26-.11c-.26-.12-.5-.25-.74-.39C4,74,3,72.52,3,71v2.79c0,1.5,1,3,3,4.13.24.14.48.27.74.39l.24.1c.16.07.31.15.47.21l0,0q.53.19,1.08.36l.09,0,.25.06a6.42,6.42,0,0,0,.63.15l.16,0,.25,0,.53.09.22,0,.23,0,.5.06.24,0h.22l.51,0h1.44l.68,0,.28,0h.08c.38,0,.76-.09,1.14-.16h.05l.33-.07.55-.11.39-.11c.17,0,.35-.09.52-.15l.11,0,.17-.07.79-.29.29-.13a9.32,9.32,0,0,0,.95-.47l.12-.08.26-.17.36-.24.28-.22.3-.25.07-.06.36-.36L22,76.5a2.2,2.2,0,0,0,.2-.23l.13-.18a.18.18,0,0,0,.05-.07,3.26,3.26,0,0,0,.22-.34s0-.05,0-.08.1-.21.14-.31l.09-.18a.64.64,0,0,1,0-.07,2.63,2.63,0,0,0,.08-.3,1.17,1.17,0,0,0,.06-.2.09.09,0,0,1,0-.05c0-.11,0-.21,0-.32a1.36,1.36,0,0,0,0-.2.28.28,0,0,0,0-.09V71.09A2.85,2.85,0,0,1,23,71.38Z"/><path class="cls-92" d="M23,71.7a2.27,2.27,0,0,1-.06.25c0,.1-.05.2-.09.3a1.09,1.09,0,0,1-.1.25,2.2,2.2,0,0,1-.15.31,2.58,2.58,0,0,1-.25.42.18.18,0,0,1-.05.07,4.23,4.23,0,0,1-.33.41.27.27,0,0,1-.07.08,5.54,5.54,0,0,1-.42.42l-.3.25-.29.22-.35.24-.39.25a10.3,10.3,0,0,1-.94.47l-.29.13-.79.29-.28.1c-.17.06-.35.1-.52.15l-.39.11-.56.11-.38.08c-.37.07-.75.12-1.13.16l-.36,0-.68,0H12.39l-.51,0-.46,0c-.17,0-.34,0-.5-.06l-.45-.06-.53-.09-.42-.09c-.21,0-.41-.09-.62-.15l-.34-.09q-.56-.17-1.08-.36L7,75.66l-.26-.11c-.26-.12-.5-.25-.74-.39C4,74,3,72.52,3,71v1.85c0,1.48,1,3,3,4.1.24.13.48.26.74.38l.24.11.47.2,0,0q.53.19,1.08.36l.09,0a2.27,2.27,0,0,0,.25.06l.63.16.16,0,.25,0,.53.09.22,0,.23,0,.5,0,.24,0h.22l.51,0h1.44l.68,0,.28,0h.08c.38,0,.76-.09,1.14-.16h.05l.33-.07.55-.12.39-.11a5.08,5.08,0,0,0,.52-.15l.11,0,.17-.06c.27-.09.54-.2.79-.3l.29-.12c.33-.15.65-.31.95-.48l.12-.07.26-.18.36-.24.28-.22.3-.25.07,0c.13-.12.24-.24.36-.37l.06-.08.2-.22a2.14,2.14,0,0,0,.13-.19l.05-.06a3.37,3.37,0,0,0,.22-.35s0,0,0-.08a2.92,2.92,0,0,0,.14-.31l.09-.18a.64.64,0,0,0,0-.07,2.45,2.45,0,0,0,.08-.29,1.66,1.66,0,0,0,.06-.21.11.11,0,0,1,0,0c0-.11,0-.21,0-.32a1.36,1.36,0,0,0,0-.2.28.28,0,0,0,0-.09V71.12a2.28,2.28,0,0,1,0,.26C23,71.49,23,71.59,23,71.7Z"/><path class="cls-48" d="M23,71.7a2.27,2.27,0,0,1-.06.25c0,.1-.05.2-.09.3a1.09,1.09,0,0,1-.1.25,2.2,2.2,0,0,1-.15.31,2.58,2.58,0,0,1-.25.42.18.18,0,0,1-.05.07,4.23,4.23,0,0,1-.33.41.27.27,0,0,1-.07.08,5.54,5.54,0,0,1-.42.42l-.3.25-.29.22-.35.24-.39.25a10.3,10.3,0,0,1-.94.47l-.29.13-.79.29-.28.1c-.17.06-.35.1-.52.15l-.39.11-.56.11-.38.08c-.37.07-.75.12-1.13.16l-.36,0-.68,0H12.39l-.51,0-.46,0c-.17,0-.34,0-.5-.06l-.45-.06-.53-.09-.42-.09c-.21,0-.41-.09-.62-.15l-.34-.09q-.56-.17-1.08-.36L7,75.66l-.26-.11c-.26-.12-.5-.25-.74-.39C4,74,3,72.52,3,71v1.85c0,1.48,1,3,3,4.1.24.13.48.26.74.38l.24.11.47.2,0,0q.53.19,1.08.36l.09,0a2.27,2.27,0,0,0,.25.06l.63.16.16,0,.25,0,.53.09.22,0,.23,0,.5,0,.24,0h.22l.51,0h1.44l.68,0,.28,0h.08c.38,0,.76-.09,1.14-.16h.05l.33-.07.55-.12.39-.11a5.08,5.08,0,0,0,.52-.15l.11,0,.17-.06c.27-.09.54-.2.79-.3l.29-.12c.33-.15.65-.31.95-.48l.12-.07.26-.18.36-.24.28-.22.3-.25.07,0c.13-.12.24-.24.36-.37l.06-.08.2-.22a2.14,2.14,0,0,0,.13-.19l.05-.06a3.37,3.37,0,0,0,.22-.35s0,0,0-.08a2.92,2.92,0,0,0,.14-.31l.09-.18a.64.64,0,0,0,0-.07,2.45,2.45,0,0,0,.08-.29,1.66,1.66,0,0,0,.06-.21.11.11,0,0,1,0,0c0-.11,0-.21,0-.32a1.36,1.36,0,0,0,0-.2.28.28,0,0,0,0-.09V71.12a2.28,2.28,0,0,1,0,.26C23,71.49,23,71.59,23,71.7Z"/><path class="cls-93" d="M20.11,67c3.92,2.27,3.94,6,0,8.22A15.62,15.62,0,0,1,6,75.16C2.05,72.9,2,69.22,5.93,67A15.64,15.64,0,0,1,20.11,67Z"/><path class="cls-92" d="M20.11,67c3.92,2.27,3.94,6,0,8.22A15.62,15.62,0,0,1,6,75.16C2.05,72.9,2,69.22,5.93,67A15.64,15.64,0,0,1,20.11,67Z"/><path class="cls-49" d="M20.11,67.44c3.93,2.27,3.94,5.46,0,7.73A15.62,15.62,0,0,1,6,75.16c-3.93-2.26-4-5.45-.05-7.72A15.68,15.68,0,0,1,20.11,67.44Z"/><path class="cls-94" d="M5.93,67.44a15.68,15.68,0,0,1,14.18,0c1.85,1.07,2.82,2.35,2.94,3.64.12-1.45-.86-2.92-2.94-4.13A15.64,15.64,0,0,0,5.93,67C3.87,68.15,2.92,69.6,3,71,3.15,69.77,4.11,68.51,5.93,67.44Z"/><path class="cls-95" d="M18.62,67.81c3.11,1.8,3.12,4.7,0,6.5a12.34,12.34,0,0,1-11.21,0c-3.1-1.79-3.11-4.69,0-6.49A12.35,12.35,0,0,1,18.62,67.81Z"/><path class="cls-96" d="M18.4,68.12c3,1.78,3,4.66,0,6.44a11.51,11.51,0,0,1-10.76,0c-3-1.78-3-4.66,0-6.44A11.57,11.57,0,0,1,18.4,68.12Z"/><path class="cls-92" d="M18.09,68.58l-1.1.64a2.3,2.3,0,0,1,1.06,1.07l-1,.28a2.25,2.25,0,0,0-1-1,2.18,2.18,0,0,0-2.17-.13c-.58.34-.45.74.11,1.56s.71,1.62-.28,2.19a4.38,4.38,0,0,1-3.71.08l-1.16.67-.71-.4,1.13-.66A2.68,2.68,0,0,1,8,71.54l1-.28a2.37,2.37,0,0,0,1.13,1.22,2.55,2.55,0,0,0,2.44.15c.63-.37.57-.84.07-1.52-.71-.93-.9-1.65.06-2.21a4.16,4.16,0,0,1,3.53-.07l1.13-.66Z"/><path class="cls-49" d="M25.08,65.07c0,.11,0,.21,0,.32a2.27,2.27,0,0,1-.06.25,2.63,2.63,0,0,1-.09.3,1.86,1.86,0,0,1-.1.25,2.2,2.2,0,0,1-.15.31,3.58,3.58,0,0,1-.25.42l-.05.07q-.15.21-.33.42l-.07.07q-.2.21-.42.42l-.3.25-.29.22-.35.24-.39.25c-.3.17-.62.33-.94.48l-.29.12-.79.3-.29.09c-.17.06-.34.1-.51.15l-.4.11-.55.12L18,70.3c-.37.07-.75.12-1.14.16l-.35,0-.68.05H14.43l-.51,0-.46,0-.5,0-.45-.07c-.18,0-.36-.06-.53-.09l-.42-.08L10.94,70l-.35-.09c-.36-.11-.72-.23-1.07-.36L9,69.35l-.26-.11c-.25-.12-.5-.25-.73-.39-2-1.14-3-2.63-3-4.13v2.79c0,1.5,1,3,3,4.13.24.14.48.27.74.39l.24.11.47.2,0,0q.53.19,1.08.36l.09,0,.25.06.62.16.17,0,.25,0,.53.09.21,0a2,2,0,0,1,.24,0l.5.05.24,0h.22l.51,0h1.44l.68,0,.27,0h.09c.38,0,.76-.09,1.14-.16h.05c.11,0,.21,0,.32-.06L19,72.9l.39-.11a5.08,5.08,0,0,0,.52-.15l.11,0,.17-.06.79-.3.29-.13a10.3,10.3,0,0,0,.94-.47l.13-.07.26-.18.35-.24c.11-.07.19-.15.29-.22l.3-.25s0,0,.06-.06a4.08,4.08,0,0,0,.36-.36.27.27,0,0,0,.07-.08l.2-.22c0-.07.09-.13.13-.19l.05-.06.22-.35,0-.08a2.2,2.2,0,0,0,.15-.31l.09-.18s0,0,0-.07a1.49,1.49,0,0,0,.09-.3l.06-.2v0c0-.11,0-.21,0-.32a1.36,1.36,0,0,0,0-.2V64.78A2.83,2.83,0,0,1,25.08,65.07Z"/><path class="cls-92" d="M25,65.39a2.27,2.27,0,0,1-.06.25,2.63,2.63,0,0,1-.09.3,1.86,1.86,0,0,1-.1.25,2.2,2.2,0,0,1-.15.31,3.58,3.58,0,0,1-.25.42l-.05.07q-.15.21-.33.42l-.07.07q-.2.21-.42.42l-.3.25-.29.22-.35.24-.39.25c-.3.17-.62.33-.94.48l-.29.12-.79.3-.29.09c-.17.06-.34.1-.51.15l-.4.11-.55.12L18,70.3c-.37.07-.75.12-1.14.16l-.35,0-.68.05H14.43l-.51,0-.46,0-.5,0-.45-.07c-.18,0-.36-.06-.53-.09l-.42-.08L10.94,70l-.35-.09c-.36-.11-.72-.23-1.07-.36L9,69.35l-.26-.11c-.25-.12-.5-.25-.73-.39-2-1.14-3-2.63-3-4.13v1.85c0,1.48,1,3,3,4.1.24.13.48.26.74.38l.24.11.47.2,0,0a9.77,9.77,0,0,0,1.08.36l.09,0,.25.07.62.15.17,0,.25,0c.17,0,.35.07.53.09l.21,0,.24,0,.5,0,.24,0h.22l.51,0h1.44l.68,0,.27,0h.09c.38,0,.76-.09,1.14-.16h.05l.32-.07.56-.12.39-.11.52-.14.11,0,.17-.07c.27-.09.53-.19.79-.3l.29-.12c.32-.15.64-.31.94-.48l.13-.07.26-.18c.12-.08.24-.15.35-.24a3.15,3.15,0,0,0,.29-.22l.3-.25.06,0a4.17,4.17,0,0,0,.36-.37l.07-.07c.07-.08.14-.15.2-.23l.13-.18.05-.07.22-.35,0-.08a1.77,1.77,0,0,0,.15-.31l.09-.18s0,0,0-.06a1.71,1.71,0,0,0,.09-.3l.06-.2V67.2a3.11,3.11,0,0,0,0-.32,1.23,1.23,0,0,0,0-.2V64.81a2.11,2.11,0,0,1,0,.26C25.07,65.18,25.06,65.28,25,65.39Z"/><path class="cls-48" d="M25,65.39a2.27,2.27,0,0,1-.06.25,2.63,2.63,0,0,1-.09.3,1.86,1.86,0,0,1-.1.25,2.2,2.2,0,0,1-.15.31,3.58,3.58,0,0,1-.25.42l-.05.07q-.15.21-.33.42l-.07.07q-.2.21-.42.42l-.3.25-.29.22-.35.24-.39.25c-.3.17-.62.33-.94.48l-.29.12-.79.3-.29.09c-.17.06-.34.1-.51.15l-.4.11-.55.12L18,70.3c-.37.07-.75.12-1.14.16l-.35,0-.68.05H14.43l-.51,0-.46,0-.5,0-.45-.07c-.18,0-.36-.06-.53-.09l-.42-.08L10.94,70l-.35-.09c-.36-.11-.72-.23-1.07-.36L9,69.35l-.26-.11c-.25-.12-.5-.25-.73-.39-2-1.14-3-2.63-3-4.13v1.85c0,1.48,1,3,3,4.1.24.13.48.26.74.38l.24.11.47.2,0,0a9.77,9.77,0,0,0,1.08.36l.09,0,.25.07.62.15.17,0,.25,0c.17,0,.35.07.53.09l.21,0,.24,0,.5,0,.24,0h.22l.51,0h1.44l.68,0,.27,0h.09c.38,0,.76-.09,1.14-.16h.05l.32-.07.56-.12.39-.11.52-.14.11,0,.17-.07c.27-.09.53-.19.79-.3l.29-.12c.32-.15.64-.31.94-.48l.13-.07.26-.18c.12-.08.24-.15.35-.24a3.15,3.15,0,0,0,.29-.22l.3-.25.06,0a4.17,4.17,0,0,0,.36-.37l.07-.07c.07-.08.14-.15.2-.23l.13-.18.05-.07.22-.35,0-.08a1.77,1.77,0,0,0,.15-.31l.09-.18s0,0,0-.06a1.71,1.71,0,0,0,.09-.3l.06-.2V67.2a3.11,3.11,0,0,0,0-.32,1.23,1.23,0,0,0,0-.2V64.81a2.11,2.11,0,0,1,0,.26C25.07,65.18,25.06,65.28,25,65.39Z"/><path class="cls-93" d="M22.14,60.64c3.93,2.27,3.95,6,.05,8.22A15.62,15.62,0,0,1,8,68.85c-3.93-2.26-3.95-5.94,0-8.2A15.62,15.62,0,0,1,22.14,60.64Z"/><path class="cls-92" d="M22.14,60.64c3.93,2.27,3.95,6,.05,8.22A15.62,15.62,0,0,1,8,68.85c-3.93-2.26-3.95-5.94,0-8.2A15.62,15.62,0,0,1,22.14,60.64Z"/><path class="cls-49" d="M22.14,61.13c3.93,2.27,3.95,5.46.05,7.73A15.62,15.62,0,0,1,8,68.85c-3.93-2.26-3.95-5.45,0-7.71A15.62,15.62,0,0,1,22.14,61.13Z"/><path class="cls-94" d="M8,61.14a15.62,15.62,0,0,1,14.17,0C24,62.2,25,63.48,25.08,64.77c.13-1.45-.85-2.92-2.94-4.13A15.62,15.62,0,0,0,8,60.65c-2.06,1.19-3,2.65-2.89,4.08C5.19,63.46,6.14,62.2,8,61.14Z"/><path class="cls-95" d="M20.66,61.51c3.11,1.79,3.12,4.69,0,6.49A12.37,12.37,0,0,1,9.49,68c-3.1-1.8-3.12-4.7,0-6.49A12.29,12.29,0,0,1,20.66,61.51Z"/><path class="cls-96" d="M20.44,61.81c3,1.78,3,4.67,0,6.44a11.53,11.53,0,0,1-10.77,0c-3-1.78-3-4.66,0-6.43A11.54,11.54,0,0,1,20.44,61.81Z"/><path class="cls-92" d="M20.13,62.27l-1.1.64A2.26,2.26,0,0,1,20.09,64l-1,.28a2.21,2.21,0,0,0-1-1.06,2.18,2.18,0,0,0-2.17-.13c-.58.34-.45.74.11,1.56s.71,1.62-.28,2.2a4.43,4.43,0,0,1-3.71.07l-1.17.68-.7-.41,1.13-.66A2.74,2.74,0,0,1,10,65.24l1-.29a2.4,2.4,0,0,0,1.14,1.22,2.55,2.55,0,0,0,2.44.15c.63-.37.57-.84.07-1.52-.71-.93-.91-1.65.06-2.21a4.2,4.2,0,0,1,3.53-.07l1.13-.66Z"/></g></g></svg>