<svg xmlns="http://www.w3.org/2000/svg" xmlns:xlink="http://www.w3.org/1999/xlink" viewBox="0 0 121.48 64"><defs><style>.cls-1{fill:#ff9e03;}.cls-2{fill:none;}.cls-3{fill:#ffbc00;}.cls-20,.cls-39,.cls-4,.cls-46{opacity:0.2;}.cls-5{clip-path:url(#clip-path);}.cls-6{isolation:isolate;}.cls-7{clip-path:url(#clip-path-2);}.cls-8{clip-path:url(#clip-path-3);}.cls-9{clip-path:url(#clip-path-4);}.cls-10{fill:#ffda00;}.cls-11{clip-path:url(#clip-path-5);}.cls-12{clip-path:url(#clip-path-6);}.cls-13{clip-path:url(#clip-path-7);}.cls-14,.cls-15,.cls-16,.cls-17,.cls-18,.cls-19,.cls-20{fill:#def4ff;}.cls-14,.cls-32,.cls-42,.cls-49{opacity:0;}.cls-15{opacity:0.03;}.cls-16,.cls-41,.cls-48{opacity:0.07;}.cls-17{opacity:0.1;}.cls-18,.cls-40,.cls-47{opacity:0.13;}.cls-19,.cls-30{opacity:0.17;}.cls-21{fill:#ffebc4;}.cls-21,.cls-35{opacity:0.6;}.cls-22{opacity:0.83;}.cls-23{fill:#ffeece;}.cls-23,.cls-24{opacity:0.67;}.cls-25{fill:#fff2d8;opacity:0.73;}.cls-26{opacity:0.5;}.cls-27{fill:#fff5e2;opacity:0.8;}.cls-28,.cls-37,.cls-44{opacity:0.33;}.cls-29{fill:#fff8eb;opacity:0.87;}.cls-31{fill:#fffcf5;opacity:0.93;}.cls-33,.cls-35,.cls-36,.cls-37,.cls-38,.cls-39,.cls-40,.cls-41,.cls-42{fill:#fff;}.cls-34{opacity:0.3;}.cls-36,.cls-43{opacity:0.4;}.cls-38,.cls-45{opacity:0.27;}.cls-43,.cls-44,.cls-45,.cls-46,.cls-47,.cls-48,.cls-49{fill:#fff5e3;}.cls-50{fill:#32333d;}.cls-51{fill:#e6a376;}.cls-52{fill:#137697;}.cls-53{fill:#778489;}.cls-54{fill:#abbec5;}.cls-55{clip-path:url(#clip-path-8);}.cls-56{fill:#738085;}.cls-57{fill:#78858a;}.cls-58{fill:#7c8a8f;}.cls-59{fill:#818f94;}.cls-60{fill:#859499;}.cls-61{fill:#8a999e;}.cls-62{fill:#8e9da3;}.cls-63{fill:#93a2a8;}.cls-64{fill:#97a7ad;}.cls-65{fill:#9bacb3;}.cls-66{fill:#a0b1b8;}.cls-67{clip-path:url(#clip-path-9);}.cls-68{fill:#376a80;}.cls-69{fill:#396e85;}.cls-70{fill:#3b7189;}.cls-71{fill:#3d758d;}.cls-72{fill:#3f7992;}.cls-73{fill:#417c96;}.cls-74{fill:#43809b;}.cls-75{fill:#44849f;}.cls-76{fill:#35667c;}.cls-77{fill:#336377;}.cls-78{fill:#315f73;}.cls-79{fill:#336277;}.cls-80{fill:#8979cc;}.cls-81{fill:#498dab;}.cls-82{fill:#cccecc;}.cls-83{fill:#eaeaea;}.cls-84{fill:#c484ee;}.cls-85{fill:#a895df;}.cls-86{fill:#d38f62;}.cls-87{fill:#1e292e;}.cls-88{fill:#12191c;}.cls-89{fill:#efb185;}.cls-90{fill:#e62b7c;}.cls-91{fill:#d32276;}.cls-92{fill:#77d2ff;}.cls-93{fill:#231202;}.cls-94{fill:#8ddfff;}</style><clipPath id="clip-path"><path class="cls-1" d="M37.76,26.94l0-12.48a1.7,1.7,0,0,1,1-1.51c1.57-.91,4.33-1.14,8,1A16.86,16.86,0,0,1,53,19.74l0,12.48a16.79,16.79,0,0,0-6.23-5.81c-3.68-2.12-6.44-1.89-8-1A1.71,1.71,0,0,0,37.76,26.94Z"/></clipPath><clipPath id="clip-path-2"><path class="cls-1" d="M31.53,24.73l0,12.47c0-1.09-.82-2.49-2.44-4.36-2.14-2.49-3.52-4.79-3.51-6.88l0-12.47c0,2.08,1.38,4.39,3.52,6.87C30.7,22.24,31.53,23.64,31.53,24.73Z"/></clipPath><clipPath id="clip-path-3"><path class="cls-1" d="M13.3,28.49l0,12.47C9.64,38.68,7,36,6.07,34l0-12.47C7,23.49,9.68,26.2,13.3,28.49Z"/></clipPath><clipPath id="clip-path-4"><path class="cls-3" d="M43.77,25.9l0,12.48c0,2-1.37,3.75-4.08,5.33-5,2.9-12.83,3.33-20.45.22l0-12.47c7.62,3.1,15.44,2.67,20.44-.23C42.4,29.65,43.76,28,43.77,25.9Z"/></clipPath><clipPath id="clip-path-5"><path class="cls-1" d="M74.59,28.79l0,12.56c0-1.94,1.5-3.64,3.91-5A28.63,28.63,0,0,1,86,33.54L86,21a29.11,29.11,0,0,0-7.49,2.79C76.09,25.15,74.58,26.85,74.59,28.79Z"/></clipPath><clipPath id="clip-path-6"><path class="cls-1" d="M64,30.18l0,12.56a6.56,6.56,0,0,0,0,.76,11,11,0,0,0,3.72,6.6l0-12.56a11.06,11.06,0,0,1-3.73-6.6C64.05,30.68,64,30.43,64,30.18Z"/></clipPath><clipPath id="clip-path-7"><path class="cls-3" d="M71.1,40.17l0,12.56c.54.31,1,.67,1.59,1l.94.55,0-12.57-.94-.54C72.15,40.84,71.65,40.49,71.1,40.17Z"/></clipPath><clipPath id="clip-path-8"><path class="cls-2" d="M60.51,28a.12.12,0,0,0-.08.11v-.28a.15.15,0,0,1,.09-.12v0a.47.47,0,0,1,.4,0v0a.14.14,0,0,1,.09.12v.28s0-.08-.09-.12A.43.43,0,0,0,60.51,28Z"/></clipPath><clipPath id="clip-path-9"><path class="cls-2" d="M61,27.81v.28a.15.15,0,0,1-.08.12.43.43,0,0,1-.41,0,.12.12,0,0,1-.08-.12,2.62,2.62,0,0,1,0-.28s0,.08.09.12a.49.49,0,0,0,.41,0A.17.17,0,0,0,61,27.81Z"/></clipPath></defs><title>Zasób 14</title><g id="Warstwa_2" data-name="Warstwa 2"><g id="Layer_1" data-name="Layer 1"><g class="cls-4"><path d="M60.27,22.14l-5.41,3.14c4,2.5,5.89,4.61,6.94,6.36l-8.74,3a18.4,18.4,0,0,0-6.83-6.36c-4-2.33-7-2.08-8.77-1.08-2,1.18-1.15,3.18,2.14,7.37C44.39,40.33,44,44,38.44,47.23s-14,3.64-22.39.25L9.77,51.13,3.7,47.62l5.85-3.39c-4-2.51-6.89-5.47-7.88-7.61l9.05-3.12A19,19,0,0,0,18.29,41c3.53,2,7.3,2.64,9.75,1.21s1.84-3.36-1.2-6.89c-4.41-5.11-5.86-9.51.11-13C32.36,19.21,40.44,19,48.36,22l5.84-3.4Z"/></g><polygon class="cls-1" points="59.62 8.32 59.59 20.8 54.64 23.67 54.68 11.19 59.62 8.32"/><polygon class="cls-3" points="61.01 17 60.98 29.48 53 32.22 53.03 19.74 61.01 17"/><path class="cls-1" d="M37.76,26.94l0-12.48a1.7,1.7,0,0,1,1-1.51c1.57-.91,4.33-1.14,8,1A16.86,16.86,0,0,1,53,19.74l0,12.48a16.79,16.79,0,0,0-6.23-5.81c-3.68-2.12-6.44-1.89-8-1A1.71,1.71,0,0,0,37.76,26.94Z"/><g class="cls-5"><g class="cls-6"><path class="cls-1" d="M53,19.74l0,12.48a16.79,16.79,0,0,0-6.23-5.81,14.82,14.82,0,0,0-1.94-.94l0-12.48a15.42,15.42,0,0,1,1.93.94A16.86,16.86,0,0,1,53,19.74Z"/><path class="cls-1" d="M44.87,13l0,12.48a10.07,10.07,0,0,0-1-.36l0-12.48c.34.1.69.22,1.06.36Z"/><path class="cls-1" d="M43.81,12.63l0,12.48a6.46,6.46,0,0,0-.7-.17l0-12.48c.23,0,.46.1.69.17Z"/><path class="cls-1" d="M43.12,12.46l0,12.48-.54-.1,0-12.47.55.09Z"/><path class="cls-1" d="M42.57,12.37l0,12.47-.47-.05,0-12.48.47.06Z"/><path class="cls-1" d="M42.1,12.31l0,12.48-.43,0,0-12.47.42,0Z"/><path class="cls-1" d="M41.68,12.29l0,12.47h-.41l0-12.48Z"/><path class="cls-1" d="M41.27,12.29l0,12.48-.41,0,0-12.47.42,0Z"/><path class="cls-1" d="M40.85,12.32l0,12.47-.48.07,0-12.47.47-.07Z"/><path class="cls-1" d="M40.38,12.39l0,12.47a3.78,3.78,0,0,0-.7.18l0-12.48a4.78,4.78,0,0,1,.7-.17Z"/><path class="cls-1" d="M39.68,12.56l0,12.48a4.18,4.18,0,0,0-.88.39l0,0,0-12.47,0,0a4.87,4.87,0,0,1,.89-.39Z"/><path class="cls-1" d="M38.75,13l0,12.47a2.53,2.53,0,0,0-.43.32l0-12.48a3,3,0,0,1,.43-.31Z"/><path class="cls-1" d="M38.32,13.29l0,12.48a1.94,1.94,0,0,0-.2.21l0-12.47a2.09,2.09,0,0,1,.2-.22Z"/><path class="cls-1" d="M38.12,13.51l0,12.47a.86.86,0,0,0-.13.2l0-12.47a1.37,1.37,0,0,1,.13-.2Z"/><path class="cls-1" d="M38,13.71l0,12.47a1.24,1.24,0,0,0-.1.2l0-12.47a.72.72,0,0,1,.09-.2Z"/><path class="cls-1" d="M37.9,13.91l0,12.47a1,1,0,0,0-.06.23l0-12.47a1.55,1.55,0,0,1,.07-.23Z"/><path class="cls-1" d="M37.83,14.14l0,12.47a1.27,1.27,0,0,0,0,.28l0-12.48a1.18,1.18,0,0,1,0-.27Z"/><path class="cls-1" d="M37.8,14.41l0,12.48a.07.07,0,0,0,0,.05l0-12.48v-.05Z"/></g></g><path class="cls-1" d="M31.53,24.73l0,12.47c0-1.09-.82-2.49-2.44-4.36-2.14-2.49-3.52-4.79-3.51-6.88l0-12.47c0,2.08,1.38,4.39,3.52,6.87C30.7,22.24,31.53,23.64,31.53,24.73Z"/><g class="cls-7"><g class="cls-6"><path class="cls-1" d="M31.53,24.73l0,12.47c0-1.09-.82-2.49-2.44-4.36-2.14-2.49-3.52-4.79-3.51-6.88l0-12.47c0,2.08,1.38,4.39,3.52,6.87,1.61,1.88,2.44,3.28,2.44,4.37Z"/></g></g><path class="cls-1" d="M13.3,28.49l0,12.47C9.64,38.68,7,36,6.07,34l0-12.47C7,23.49,9.68,26.2,13.3,28.49Z"/><g class="cls-8"><g class="cls-6"><path class="cls-1" d="M13.3,28.49l0,12.47C9.64,38.68,7,36,6.07,34l0-12.47c.91,1.95,3.57,4.66,7.19,7Z"/></g></g><path class="cls-3" d="M43.77,25.9l0,12.48c0,2-1.37,3.75-4.08,5.33-5,2.9-12.83,3.33-20.45.22l0-12.47c7.62,3.1,15.44,2.67,20.44-.23C42.4,29.65,43.76,28,43.77,25.9Z"/><g class="cls-9"><g class="cls-6"><path class="cls-3" d="M43.77,25.9l0,12.48v.11l0-12.47V25.9Z"/><path class="cls-3" d="M43.77,26l0,12.47a3.65,3.65,0,0,1-.08.74l0-12.48a5.82,5.82,0,0,0,.08-.73Z"/><path class="cls-3" d="M43.69,26.75l0,12.48a3.93,3.93,0,0,1-.19.67l0-12.48a3.71,3.71,0,0,0,.2-.67Z"/><path class="cls-3" d="M43.49,27.42l0,12.48a6.53,6.53,0,0,1-.31.66l0-12.48a3.93,3.93,0,0,0,.3-.66Z"/><path class="cls-3" d="M43.19,28.08l0,12.48a5.63,5.63,0,0,1-.47.69l0-12.47a6.12,6.12,0,0,0,.47-.7Z"/><path class="cls-3" d="M42.72,28.78l0,12.47a7.73,7.73,0,0,1-.79.85l0-12.48a6.86,6.86,0,0,0,.79-.84Z"/><path class="cls-3" d="M41.93,29.62l0,12.48a11.9,11.9,0,0,1-2,1.46l0-12.47a12.34,12.34,0,0,0,2-1.47Z"/><path class="cls-3" d="M39.93,31.09l0,12.47-.24.15a15.68,15.68,0,0,1-3.14,1.37l0-12.47a15.87,15.87,0,0,0,3.13-1.38l.25-.14Z"/><path class="cls-3" d="M36.55,32.61l0,12.47a18,18,0,0,1-2.53.64l0-12.48a20.06,20.06,0,0,0,2.54-.63Z"/><path class="cls-3" d="M34,33.24l0,12.48c-.57.1-1.16.18-1.76.24l0-12.47c.6-.06,1.18-.14,1.75-.25Z"/><path class="cls-3" d="M32.26,33.49l0,12.47c-.5,0-1,.08-1.54.1l0-12.47c.52,0,1-.05,1.54-.1Z"/><path class="cls-3" d="M30.72,33.59l0,12.47c-.49,0-1,0-1.49,0l0-12.48c.5,0,1,0,1.49,0Z"/><path class="cls-3" d="M29.23,33.59l0,12.48c-.49,0-1,0-1.5-.08l0-12.48c.5.05,1,.07,1.5.08Z"/><path class="cls-3" d="M27.73,33.51l0,12.48c-.52,0-1.05-.1-1.58-.18l0-12.47c.54.07,1.06.13,1.59.17Z"/><path class="cls-3" d="M26.14,33.34l0,12.47c-.58-.08-1.17-.18-1.77-.31l0-12.47c.59.12,1.18.22,1.76.31Z"/><path class="cls-3" d="M24.38,33l0,12.47c-.68-.14-1.38-.31-2.07-.51l0-12.47c.7.2,1.39.37,2.08.51Z"/><path class="cls-3" d="M22.3,32.52l0,12.47q-1.38-.39-2.76-.93l0-12.48a28.79,28.79,0,0,0,2.75.94Z"/><path class="cls-3" d="M19.55,31.58l0,12.48-.31-.13,0-12.47.31.12Z"/></g></g><polygon class="cls-1" points="19.24 31.46 19.2 43.93 13.47 47.27 13.51 34.79 19.24 31.46"/><path class="cls-10" d="M59.62,8.32l-4.94,2.87C58.3,13.48,60.05,15.4,61,17l-8,2.74a16.86,16.86,0,0,0-6.23-5.81c-3.68-2.12-6.44-1.89-8-1-1.85,1.08-1,2.91,2,6.73,4.36,5.25,4,8.61-1.07,11.55s-12.82,3.33-20.44.23l-5.73,3.33L8,31.59l5.33-3.1c-3.62-2.29-6.28-5-7.19-6.95l8.26-2.84a17.35,17.35,0,0,0,6.92,6.85c3.22,1.86,6.66,2.41,8.9,1.11s1.68-3.07-1.1-6.3c-4-4.66-5.35-8.68.1-11.85,4.94-2.87,12.33-3.09,19.55-.29l5.34-3.1Z"/><polygon class="cls-3" points="13.51 34.79 13.47 47.27 7.93 44.07 7.97 31.59 13.51 34.79"/><g class="cls-4"><path d="M68.74,35.06c-5.22,3-7.56,6.79-7.19,10.67a11,11,0,0,0,3.72,6.6l-3.72,2.15,3.92,2.28L68.58,55c.54.32,1,.67,1.59,1l.94.55-3,1.76L72,60.54l3.61-2.09a32.8,32.8,0,0,0,10.28,2.38,35,35,0,0,0,19.83-4.17,16.67,16.67,0,0,0,6.56-6.22l-7.45-2.79a14,14,0,0,1-4.9,4.49,18,18,0,0,1-15.66,1.31l13.93-8-3.91-2.28-14.71,8.5-.88-.52c-.55-.32-1.16-.67-1.66-1l14.66-8.46-3.92-2.28-13.82,8a5.72,5.72,0,0,1-1.81-3.12C71.74,42,73.3,40.09,76,38.55a29,29,0,0,1,7.48-2.78l-4.73-4.56A37.09,37.09,0,0,0,68.74,35.06Z"/></g><path class="cls-1" d="M74.59,28.79l0,12.56c0-1.94,1.5-3.64,3.91-5A28.63,28.63,0,0,1,86,33.54L86,21a29.11,29.11,0,0,0-7.49,2.79C76.09,25.15,74.58,26.85,74.59,28.79Z"/><g class="cls-11"><g class="cls-6"><path class="cls-1" d="M74.59,28.79l0,12.56c0-1.94,1.5-3.64,3.91-5A21.69,21.69,0,0,1,81.41,35l0-12.56a21.24,21.24,0,0,0-2.89,1.37c-2.4,1.39-3.91,3.09-3.9,5Z"/><path class="cls-1" d="M81.38,22.39l0,12.56c1-.39,2-.72,3-1l0-12.56a30.08,30.08,0,0,0-3,1Z"/><path class="cls-1" d="M84.33,21.4l0,12.56c.59-.17,1.14-.31,1.64-.42L86,21c-.5.12-1.06.26-1.65.43Z"/></g></g><polygon class="cls-1" points="79.54 35.3 79.57 47.86 94.23 39.4 94.19 26.83 79.54 35.3"/><path class="cls-1" d="M64,30.18l0,12.56a6.56,6.56,0,0,0,0,.76,11,11,0,0,0,3.72,6.6l0-12.56a11.06,11.06,0,0,1-3.73-6.6C64.05,30.68,64,30.43,64,30.18Z"/><g class="cls-12"><g class="cls-6"><path class="cls-1" d="M64,30.18l0,12.56V43l0-12.57v-.2Z"/><path class="cls-1" d="M64,30.38l0,12.57c0,.18,0,.36,0,.55s.06.43.1.65l0-12.56c0-.22-.07-.44-.1-.65a5.25,5.25,0,0,1,0-.56Z"/><path class="cls-1" d="M64.17,31.59l0,12.56a8.3,8.3,0,0,0,.38,1.33l0-12.56a8.67,8.67,0,0,1-.39-1.33Z"/><path class="cls-1" d="M64.56,32.92l0,12.56a10.84,10.84,0,0,0,.65,1.39l0-12.56a9.64,9.64,0,0,1-.65-1.39Z"/><path class="cls-1" d="M65.21,34.31l0,12.56a13,13,0,0,0,1,1.54l0-12.56a11,11,0,0,1-1-1.54Z"/><path class="cls-1" d="M66.25,35.85l0,12.56a16,16,0,0,0,1.55,1.69l0-12.56a15,15,0,0,1-1.55-1.69Z"/></g></g><polygon class="cls-1" points="86.77 38.66 86.8 51.22 100.73 43.18 100.7 30.61 86.77 38.66"/><path class="cls-3" d="M71.1,40.17l0,12.56c.54.31,1,.67,1.59,1l.94.55,0-12.57-.94-.54C72.15,40.84,71.65,40.49,71.1,40.17Z"/><g class="cls-13"><g class="cls-6"><path class="cls-3" d="M71.1,40.17l0,12.56.19.12,0-12.57-.2-.11Z"/><path class="cls-3" d="M71.3,40.28l0,12.57c.41.24.79.5,1.21.75L72.5,41l-1.2-.76Z"/><path class="cls-3" d="M72.5,41l0,12.56.19.12.94.55,0-12.57-.94-.54L72.5,41Z"/></g></g><polygon class="cls-3" points="64.08 39.69 64.11 52.25 68.03 54.52 67.99 41.96 64.08 39.69"/><polygon class="cls-1" points="67.99 41.96 68.03 54.52 71.14 52.73 71.1 40.17 67.99 41.96"/><polygon class="cls-1" points="74.5 45.74 74.53 58.3 78.14 56.22 78.1 43.66 74.5 45.74"/><polygon class="cls-3" points="70.58 43.47 70.62 56.03 74.53 58.3 74.5 45.74 70.58 43.47"/><path class="cls-10" d="M71.27,20.27c-5.22,3-7.57,6.79-7.2,10.67a11.06,11.06,0,0,0,3.73,6.6l-3.72,2.15L68,42l3.11-1.79c.55.32,1.05.67,1.6,1l.94.54-3.06,1.77,3.92,2.27,3.6-2.08A32.84,32.84,0,0,0,88.38,46a35,35,0,0,0,19.83-4.16,16.72,16.72,0,0,0,6.57-6.23l-7.45-2.78a14.36,14.36,0,0,1-4.9,4.49,18,18,0,0,1-15.66,1.31l13.93-8-3.92-2.28L82.07,36.83l-.88-.51c-.55-.32-1.16-.68-1.65-1l14.65-8.46-3.91-2.27-13.83,8a5.8,5.8,0,0,1-1.81-3.11c-.37-2.21,1.19-4.13,3.85-5.67A29.11,29.11,0,0,1,86,21l-4.74-4.55A36.38,36.38,0,0,0,71.27,20.27Z"/><path class="cls-3" d="M114.78,35.64a16.72,16.72,0,0,1-6.57,6.23c-.57.32-1.15.63-1.75.92l-.22.11c-.57.27-1.16.52-1.76.76l-.38.15c-.34.14-.69.26-1,.39l-.33.11-1.4.44-.21,0c-.75.21-1.52.4-2.3.57l-.31.06c-.64.13-1.3.24-2,.34l-.11,0c-.62.08-1.26.15-1.89.21l-.43,0c-.61,0-1.21.09-1.82.1H92c-.57,0-1.14,0-1.71,0H89.9c-.51,0-1,0-1.52-.09l-1.21-.1-.52-.06-.74-.1-.67-.1-.62-.11c-.6-.1-1.21-.24-1.82-.38l-.4-.1c-.61-.16-1.22-.33-1.83-.53l-.81-.26-.41-.15c-.42-.15-.83-.31-1.25-.48l0,12.56c.42.18.84.34,1.26.49l.27.09.87.3.08,0c.6.18,1.2.35,1.8.5l.43.11c.6.14,1.2.28,1.8.39h.06l.59.09.66.11.48.06.85.1h.06c.35,0,.71.07,1.07.09.51,0,1,.07,1.52.09h.36c.57,0,1.15,0,1.73,0h.3c.62,0,1.23,0,1.84-.1h.19l.21,0c.63-.05,1.25-.12,1.87-.21h.06l.17,0c.65-.1,1.29-.21,1.92-.34l.18,0,.07,0c.77-.16,1.52-.35,2.27-.55l.18-.05.11,0q.69-.19,1.35-.42l.4-.14,1-.36.21-.08.18-.08c.6-.24,1.19-.49,1.76-.76l.21-.11c.6-.29,1.19-.6,1.76-.92a16.67,16.67,0,0,0,6.56-6.22Z"/><path class="cls-14" d="M15.86,31.25a7.93,7.93,0,1,1-7.93-7.93A7.93,7.93,0,0,1,15.86,31.25Z"/><path class="cls-15" d="M14.62,31.34a6.69,6.69,0,1,1-6.69-6.7A6.69,6.69,0,0,1,14.62,31.34Z"/><path class="cls-16" d="M13.39,31.42A5.46,5.46,0,1,1,7.93,26,5.46,5.46,0,0,1,13.39,31.42Z"/><path class="cls-17" d="M12.15,31.5a4.22,4.22,0,1,1-4.22-4.21A4.22,4.22,0,0,1,12.15,31.5Z"/><path class="cls-18" d="M10.91,31.59a3,3,0,1,1-3-3A3,3,0,0,1,10.91,31.59Z"/><path class="cls-19" d="M9.67,31.67a1.74,1.74,0,1,1-1.74-1.74A1.74,1.74,0,0,1,9.67,31.67Z"/><path class="cls-20" d="M8.44,31.76a.51.51,0,0,1-1,0,.51.51,0,1,1,1,0Z"/><path class="cls-14" d="M67.55,15.76a7.93,7.93,0,1,1-7.93-7.93A7.93,7.93,0,0,1,67.55,15.76Z"/><path class="cls-15" d="M66.31,15.85a6.69,6.69,0,1,1-6.69-6.69A6.69,6.69,0,0,1,66.31,15.85Z"/><path class="cls-16" d="M65.08,15.93a5.46,5.46,0,1,1-5.46-5.45A5.46,5.46,0,0,1,65.08,15.93Z"/><path class="cls-17" d="M63.84,16a4.22,4.22,0,1,1-4.22-4.22A4.22,4.22,0,0,1,63.84,16Z"/><path class="cls-18" d="M62.6,16.1a3,3,0,1,1-3-3A3,3,0,0,1,62.6,16.1Z"/><path class="cls-19" d="M61.37,16.19a1.75,1.75,0,1,1-1.75-1.75A1.75,1.75,0,0,1,61.37,16.19Z"/><path class="cls-20" d="M60.13,16.27a.51.51,0,1,1-.51-.51A.51.51,0,0,1,60.13,16.27Z"/><path class="cls-14" d="M92.29,20.54a7.93,7.93,0,1,1-7.93-7.93A7.92,7.92,0,0,1,92.29,20.54Z"/><path class="cls-15" d="M91.05,20.62a6.69,6.69,0,1,1-6.69-6.69A6.69,6.69,0,0,1,91.05,20.62Z"/><path class="cls-16" d="M89.82,20.7a5.46,5.46,0,1,1-5.46-5.45A5.46,5.46,0,0,1,89.82,20.7Z"/><path class="cls-17" d="M88.58,20.79a4.22,4.22,0,1,1-4.22-4.22A4.23,4.23,0,0,1,88.58,20.79Z"/><path class="cls-18" d="M87.34,20.87a3,3,0,1,1-3-3A3,3,0,0,1,87.34,20.87Z"/><path class="cls-19" d="M86.11,21a1.75,1.75,0,1,1-1.75-1.75A1.74,1.74,0,0,1,86.11,21Z"/><path class="cls-20" d="M84.87,21a.51.51,0,1,1-1,0,.51.51,0,0,1,1,0Z"/><path class="cls-14" d="M82.43,45.21a7.93,7.93,0,1,1-7.93-7.93A7.93,7.93,0,0,1,82.43,45.21Z"/><path class="cls-15" d="M81.19,45.3a6.7,6.7,0,1,1-6.69-6.7A6.69,6.69,0,0,1,81.19,45.3Z"/><path class="cls-16" d="M80,45.38a5.46,5.46,0,1,1-5.45-5.46A5.45,5.45,0,0,1,80,45.38Z"/><path class="cls-17" d="M78.71,45.46a4.22,4.22,0,1,1-4.21-4.21A4.21,4.21,0,0,1,78.71,45.46Z"/><path class="cls-18" d="M77.48,45.55a3,3,0,1,1-3-3A3,3,0,0,1,77.48,45.55Z"/><path class="cls-19" d="M76.24,45.63a1.75,1.75,0,1,1-1.74-1.74A1.74,1.74,0,0,1,76.24,45.63Z"/><path class="cls-20" d="M75,45.72a.5.5,0,0,1-.5.5.5.5,0,0,1-.51-.5.51.51,0,0,1,.51-.51A.5.5,0,0,1,75,45.72Z"/><path class="cls-14" d="M121.48,36a7.93,7.93,0,1,1-7.93-7.93A7.93,7.93,0,0,1,121.48,36Z"/><path class="cls-15" d="M120.24,36.07a6.7,6.7,0,1,1-6.69-6.69A6.69,6.69,0,0,1,120.24,36.07Z"/><path class="cls-16" d="M119,36.16a5.46,5.46,0,1,1-5.45-5.46A5.45,5.45,0,0,1,119,36.16Z"/><path class="cls-17" d="M117.77,36.24A4.22,4.22,0,1,1,113.55,32,4.22,4.22,0,0,1,117.77,36.24Z"/><path class="cls-18" d="M116.53,36.33a3,3,0,1,1-3-3A3,3,0,0,1,116.53,36.33Z"/><path class="cls-19" d="M115.29,36.41a1.75,1.75,0,1,1-1.74-1.74A1.74,1.74,0,0,1,115.29,36.41Z"/><path class="cls-20" d="M114.05,36.5a.5.5,0,0,1-.5.5.5.5,0,0,1-.51-.5.51.51,0,0,1,.51-.51A.5.5,0,0,1,114.05,36.5Z"/><path class="cls-21" d="M62.44,53.38c4.7,2.44,4.68,6.35.05,8.76s-12.16,2.44-16.87,0-4.68-6.35,0-8.76S57.77,51,62.44,53.38Z"/><g class="cls-22"><path class="cls-23" d="M63.49,45.67c5.35,2.77,5.33,7.23,0,10s-13.84,2.78-19.19,0-5.34-7.22-.07-10S58.17,42.91,63.49,45.67Z"/></g><g class="cls-24"><path class="cls-25" d="M64.54,38c6,3.12,6,8.11.06,11.2s-15.53,3.11-21.53,0S37.08,41,43,38,58.58,34.86,64.54,38Z"/></g><g class="cls-26"><path class="cls-27" d="M65.59,30.24c6.66,3.45,6.63,9,.07,12.41s-17.21,3.45-23.87,0-6.64-9-.08-12.41S59,26.82,65.59,30.24Z"/></g><g class="cls-28"><path class="cls-29" d="M66.64,22.52c7.31,3.79,7.29,9.88.08,13.63s-18.9,3.79-26.21,0-7.29-9.87-.09-13.63S59.39,18.77,66.64,22.52Z"/></g><g class="cls-30"><path class="cls-31" d="M67.69,14.81c8,4.13,7.94,10.75.09,14.84s-20.59,4.13-28.55,0-7.94-10.75-.1-14.84S59.79,10.72,67.69,14.81Z"/></g><g class="cls-32"><path class="cls-33" d="M68.75,7.1c8.61,4.46,8.58,11.63.09,16s-22.28,4.47-30.89,0-8.59-11.63-.11-16S60.2,2.67,68.75,7.1Z"/></g><g class="cls-34"><path class="cls-35" d="M62.44,53.42c4.7,2.44,4.68,6.35.05,8.76s-12.16,2.44-16.87,0-4.68-6.34,0-8.76S57.77,51,62.44,53.42Z"/></g><path class="cls-36" d="M59.75,8.34l-5,2.88c3.62,2.28,5.38,4.21,6.34,5.81l-8,2.74A16.79,16.79,0,0,0,46.93,14c-3.68-2.12-6.44-1.9-8-1-1.85,1.07-1,2.9,2,6.72,4.37,5.26,4,8.61-1.06,11.55S27,34.58,19.36,31.48l-5.73,3.33L8.09,31.62l5.34-3.11c-3.63-2.28-6.29-5-7.2-7l8.27-2.84a17.26,17.26,0,0,0,6.91,6.86c3.22,1.86,6.66,2.41,8.91,1.11s1.67-3.07-1.11-6.3c-4-4.67-5.34-8.68.11-11.85,4.94-2.87,12.32-3.1,19.55-.29l5.33-3.1Z"/><path class="cls-37" d="M59.75,7.49l-5,2.87c3.62,2.28,5.38,4.21,6.34,5.81l-8,2.74a16.79,16.79,0,0,0-6.23-5.81c-3.68-2.12-6.44-1.89-8-1-1.85,1.08-1,2.91,2,6.72,4.37,5.26,4,8.62-1.06,11.56S27,33.73,19.36,30.63L13.63,34l-5.54-3.2,5.34-3.1c-3.63-2.29-6.29-5-7.2-6.95l8.27-2.84a17.25,17.25,0,0,0,6.91,6.85c3.22,1.86,6.66,2.41,8.91,1.11s1.67-3.07-1.11-6.3c-4-4.67-5.34-8.68.11-11.85,4.94-2.87,12.32-3.1,19.55-.29l5.33-3.1Z"/><path class="cls-38" d="M59.75,6.63l-5,2.87c3.62,2.28,5.38,4.21,6.34,5.81l-8,2.74a16.87,16.87,0,0,0-6.23-5.81c-3.68-2.12-6.44-1.89-8-1-1.85,1.08-1,2.91,2,6.73,4.37,5.25,4,8.61-1.06,11.55S27,32.87,19.36,29.77L13.63,33.1,8.09,29.9l5.34-3.1c-3.63-2.29-6.29-5-7.2-6.95L14.5,17a17.25,17.25,0,0,0,6.91,6.85c3.22,1.86,6.66,2.41,8.91,1.11s1.67-3.07-1.11-6.3c-4-4.67-5.34-8.68.11-11.85C34.26,4,41.64,3.73,48.87,6.53l5.33-3.1Z"/><path class="cls-39" d="M59.75,5.77l-5,2.87c3.62,2.29,5.38,4.21,6.34,5.81l-8,2.74a16.87,16.87,0,0,0-6.23-5.8c-3.68-2.13-6.44-1.9-8-1-1.85,1.07-1,2.9,2,6.72,4.37,5.25,4,8.61-1.06,11.55S27,32,19.36,28.91l-5.73,3.33L8.09,29l5.34-3.1c-3.63-2.28-6.29-5-7.2-7l8.27-2.84A17.25,17.25,0,0,0,21.41,23c3.22,1.86,6.66,2.42,8.91,1.11S32,21,29.21,17.81c-4-4.66-5.34-8.68.11-11.84,4.94-2.88,12.32-3.1,19.55-.3l5.33-3.1Z"/><path class="cls-40" d="M59.75,4.91l-5,2.88c3.62,2.28,5.38,4.21,6.34,5.8l-8,2.75a16.79,16.79,0,0,0-6.23-5.81c-3.68-2.13-6.44-1.9-8-1-1.85,1.07-1,2.9,2,6.72,4.37,5.26,4,8.61-1.06,11.55S27,31.15,19.36,28.05l-5.73,3.33L8.09,28.19l5.34-3.11c-3.63-2.28-6.29-5-7.2-6.95l8.27-2.84a17.32,17.32,0,0,0,6.91,6.86c3.22,1.86,6.66,2.41,8.91,1.11S32,20.19,29.21,17c-4-4.67-5.34-8.68.11-11.85C34.26,2.24,41.64,2,48.87,4.82l5.33-3.1Z"/><path class="cls-41" d="M59.75,4.06l-5,2.87c3.62,2.28,5.38,4.21,6.34,5.81l-8,2.74a16.79,16.79,0,0,0-6.23-5.81c-3.68-2.12-6.44-1.89-8-1-1.85,1.08-1,2.91,2,6.72,4.37,5.26,4,8.62-1.06,11.56S27,30.3,19.36,27.2l-5.73,3.33-5.54-3.2,5.34-3.1c-3.63-2.29-6.29-5-7.2-6.95l8.27-2.84a17.25,17.25,0,0,0,6.91,6.85c3.22,1.86,6.66,2.41,8.91,1.11s1.67-3.07-1.11-6.3c-4-4.67-5.34-8.68.11-11.85C34.26,1.38,41.64,1.15,48.87,4L54.2.86Z"/><path class="cls-42" d="M59.75,3.2l-5,2.87c3.62,2.28,5.38,4.21,6.34,5.81l-8,2.74a16.79,16.79,0,0,0-6.23-5.81c-3.68-2.12-6.44-1.89-8-1-1.85,1.08-1,2.91,2,6.73,4.37,5.25,4,8.61-1.06,11.55S27,29.44,19.36,26.34l-5.73,3.33-5.54-3.2,5.34-3.1c-3.63-2.29-6.29-5-7.2-6.95l8.27-2.84a17.25,17.25,0,0,0,6.91,6.85c3.22,1.86,6.66,2.41,8.91,1.11s1.67-3.07-1.11-6.3c-4-4.67-5.34-8.68.11-11.85C34.26.52,41.64.3,48.87,3.1L54.2,0Z"/><path class="cls-43" d="M71.28,20.25c-5.22,3-7.56,6.8-7.2,10.67a11.09,11.09,0,0,0,3.73,6.61l-3.72,2.14L68,42l3.11-1.8c.55.32,1,.67,1.6,1l.94.55-3.06,1.76,3.92,2.28,3.61-2.08A32.72,32.72,0,0,0,88.39,46a34.91,34.91,0,0,0,19.83-4.17,16.71,16.71,0,0,0,6.57-6.22l-7.45-2.79a14.07,14.07,0,0,1-4.9,4.49,18.71,18.71,0,0,1-10,2.5,18.52,18.52,0,0,1-5.69-1.19l13.93-8-3.92-2.27L82.08,36.82l-.88-.52a19.14,19.14,0,0,1-1.65-1L94.2,26.82l-3.91-2.28-13.82,8a5.76,5.76,0,0,1-1.82-3.11c-.37-2.22,1.19-4.14,3.86-5.67A28.56,28.56,0,0,1,86,21L81.25,16.4A37,37,0,0,0,71.28,20.25Z"/><path class="cls-44" d="M71.28,19.57c-5.22,3-7.61,6.79-7.2,10.66a11,11,0,0,0,3.73,6.61L64.09,39,68,41.26l3.11-1.79c.55.31,1,.67,1.6,1l.94.54-3.06,1.77L74.51,45,78.12,43a32.72,32.72,0,0,0,10.27,2.37,35,35,0,0,0,19.83-4.16,16.72,16.72,0,0,0,6.57-6.23l-7.45-2.78a14.26,14.26,0,0,1-4.9,4.49A18,18,0,0,1,86.78,38l13.93-8-3.8-2.2L82.14,36.29c-.22,0-.61-.48-.94-.67-.55-.32-1.16-.68-1.65-1L94.2,26.13l-3.91-2.27-13.82,8a5.76,5.76,0,0,1-1.82-3.11c-.37-2.21,1.19-4.13,3.86-5.67A28.92,28.92,0,0,1,86,20.27l-4.74-4.55A36.38,36.38,0,0,0,71.28,19.57Z"/><path class="cls-45" d="M71.28,18.88c-5.22,3-7.61,6.8-7.2,10.67a11,11,0,0,0,3.73,6.6L64.09,38.3,68,40.58l3.11-1.8c.55.32,1,.67,1.6,1l.94.55-3.06,1.76,3.92,2.28,3.61-2.09a32.74,32.74,0,0,0,10.27,2.38,35,35,0,0,0,19.83-4.17,16.71,16.71,0,0,0,6.57-6.22l-7.45-2.79a14.07,14.07,0,0,1-4.9,4.49,18.71,18.71,0,0,1-10,2.5,18.52,18.52,0,0,1-5.69-1.19l13.93-8L97,27.09,82.2,35.75c-.11.18-.67-.63-1-.82-.55-.32-1.16-.67-1.65-1L94.2,25.45l-3.91-2.28-13.82,8A5.76,5.76,0,0,1,74.65,28c-.37-2.21,1.19-4.13,3.86-5.67A29.29,29.29,0,0,1,86,19.58L81.25,15A36.38,36.38,0,0,0,71.28,18.88Z"/><path class="cls-46" d="M71.28,18.19c-5.22,3-7.61,6.8-7.2,10.67a11,11,0,0,0,3.73,6.61l-3.72,2.14L68,39.89l3.11-1.8c.55.32,1,.68,1.6,1l.94.54L70.59,41.4l3.92,2.27,3.61-2.08A32.72,32.72,0,0,0,88.39,44a34.91,34.91,0,0,0,19.83-4.17,16.71,16.71,0,0,0,6.57-6.22l-7.45-2.78a14.16,14.16,0,0,1-4.9,4.48,18.06,18.06,0,0,1-15.66,1.32l13.93-8.05-3.57-2.07L82.25,35.22c0,.36-.72-.78-1-1a19.14,19.14,0,0,1-1.65-1L94.2,24.76l-3.91-2.27-13.82,8a5.76,5.76,0,0,1-1.82-3.11c-.37-2.22,1.19-4.14,3.86-5.67A28.92,28.92,0,0,1,86,18.9l-4.74-4.55A36.65,36.65,0,0,0,71.28,18.19Z"/><path class="cls-47" d="M71.28,17.51c-5.22,3-7.61,6.8-7.2,10.67a11,11,0,0,0,3.73,6.6l-3.72,2.15L68,39.2l3.11-1.79c.55.32,1,.67,1.6,1,.33.19.66.39.94.54l-3.06,1.77L74.51,43l3.61-2.08a32.45,32.45,0,0,0,10.27,2.37,34.9,34.9,0,0,0,19.83-4.16,16.71,16.71,0,0,0,6.57-6.22l-7.45-2.79a14.16,14.16,0,0,1-4.9,4.49A18,18,0,0,1,86.78,35.9l13.93-8-3.46-2L82.31,34.69c.12.54-.78-.94-1.11-1.13-.55-.32-1.16-.67-1.65-1L94.2,24.08,90.29,21.8l-13.82,8a5.76,5.76,0,0,1-1.82-3.11c-.37-2.21,1.19-4.13,3.86-5.67A28.92,28.92,0,0,1,86,18.21l-4.74-4.55A36.38,36.38,0,0,0,71.28,17.51Z"/><path class="cls-48" d="M71.28,16.82c-5.22,3-7.61,6.8-7.2,10.67a10.94,10.94,0,0,0,3.73,6.6l-3.72,2.15L68,38.52l3.11-1.8c.55.32,1,.67,1.6,1l.94.55L70.59,40l3.92,2.28,3.61-2.08a32.72,32.72,0,0,0,10.27,2.37,35,35,0,0,0,19.83-4.17,16.71,16.71,0,0,0,6.57-6.22l-7.45-2.79a14.07,14.07,0,0,1-4.9,4.49,18.71,18.71,0,0,1-10,2.5,18.52,18.52,0,0,1-5.69-1.19l13.93-8-3.34-1.94-15,8.92c.23.74-.84-1.09-1.17-1.28a19.14,19.14,0,0,1-1.65-1L94.2,23.39l-3.91-2.28-13.82,8A5.76,5.76,0,0,1,74.65,26c-.37-2.22,1.19-4.14,3.86-5.67A28.56,28.56,0,0,1,86,17.53L81.25,13A37,37,0,0,0,71.28,16.82Z"/><path class="cls-49" d="M71.28,16.13c-5.22,3-7.56,6.8-7.2,10.67a11.06,11.06,0,0,0,3.73,6.61l-3.72,2.15L68,37.83,71.11,36c.55.31,1,.67,1.6,1l.94.54-3.06,1.77,3.92,2.27,3.61-2.08A32.72,32.72,0,0,0,88.39,41.9a34.91,34.91,0,0,0,19.83-4.17,16.64,16.64,0,0,0,6.57-6.22l-7.45-2.78a14.26,14.26,0,0,1-4.9,4.49,18.71,18.71,0,0,1-10,2.49,18.49,18.49,0,0,1-5.69-1.18l13.93-8-3.23-1.87-15,9c.34.92-.9-1.24-1.23-1.43-.55-.32-1.16-.68-1.65-1L94.2,22.7l-3.91-2.27-13.82,8a5.76,5.76,0,0,1-1.82-3.11c-.37-2.21,1.19-4.13,3.86-5.67A28.92,28.92,0,0,1,86,16.84l-4.74-4.55A36.65,36.65,0,0,0,71.28,16.13Z"/><path class="cls-50" d="M52.76,27.21A3.09,3.09,0,0,0,54,27.13a.77.77,0,0,0,.67-.92L53.23,21a3.5,3.5,0,0,0-1.36-2.49h0A1.34,1.34,0,0,0,50,20.05S51.72,26.81,52.76,27.21Z"/><path class="cls-51" d="M61.44,25.71c.73-.57.77-.91.55-.85a1.9,1.9,0,0,1-1.78-.21,1.12,1.12,0,0,0,.95-.48c.08-.13-.11-.36-.33-.2a1.44,1.44,0,0,1-.78.18,1.45,1.45,0,0,0-1,.19,1.79,1.79,0,0,1-.83.32h-.12l.17,1.2a4.48,4.48,0,0,1,1.24.12A2.59,2.59,0,0,0,61.44,25.71Z"/><path class="cls-52" d="M52.73,27a1.41,1.41,0,0,1,.74-2l5.07-.78a2.56,2.56,0,0,0,0,.9,1.23,1.23,0,0,0,.69.79S53.78,28.55,52.73,27Z"/><polygon class="cls-53" points="67.92 25.98 67.92 26.27 63.98 24.01 63.98 23.73 67.92 25.98"/><polygon class="cls-54" points="63.98 23.73 63.98 24.01 59.27 26.78 59.27 26.49 63.98 23.73"/><g class="cls-6"><g class="cls-55"><g class="cls-6"><path class="cls-56" d="M61,27.81v.28s0-.08-.09-.12h0v-.29a.05.05,0,0,1,0,0,.14.14,0,0,1,.09.12Z"/><path class="cls-57" d="M60.87,27.67V28l0,0v-.28Z"/><path class="cls-58" d="M60.84,27.66v.28h0v-.28Z"/><path class="cls-59" d="M60.81,27.65v.28h0v-.28Z"/><path class="cls-60" d="M60.78,27.65v.28h0v-.29Z"/><path class="cls-61" d="M60.75,27.64v.29h0v-.29Z"/><path class="cls-62" d="M60.72,27.64v.29h0v-.29Z"/><path class="cls-63" d="M60.69,27.64v.29h0v-.29Z"/><path class="cls-64" d="M60.66,27.64v.29h0v-.28Z"/><path class="cls-65" d="M60.62,27.65v.28l-.06,0v-.29Z"/><path class="cls-66" d="M60.57,27.66V28l-.06,0h0v-.29h0l.06,0Z"/><path class="cls-65" d="M60.5,27.69V28l0,0v-.29l0,0Z"/><path class="cls-64" d="M60.47,27.72V28s0,0,0,0v-.29l0,0Z"/><path class="cls-63" d="M60.45,27.74V28h0v-.3Z"/><path class="cls-62" d="M60.44,27.76v0Z"/><path class="cls-61" d="M60.43,27.77v.29h0v-.3Z"/><path class="cls-60" d="M60.43,27.79v0Z"/><polygon class="cls-59" points="60.42 27.81 60.43 28.09 60.43 28.09 60.42 27.81 60.42 27.81 60.42 27.81"/></g></g></g><g class="cls-6"><g class="cls-67"><g class="cls-6"><polygon class="cls-68" points="61 27.81 61 28.09 61 28.1 61 27.81 61 27.81 61 27.81"/><path class="cls-69" d="M61,27.81v.29h0v-.3Z"/><path class="cls-70" d="M61,27.83v0Z"/><path class="cls-71" d="M61,27.84v.29h0v-.3Z"/><path class="cls-72" d="M61,27.86v0Z"/><path class="cls-73" d="M61,27.88v.28l0,0V27.9a0,0,0,0,1,0,0Z"/><path class="cls-74" d="M61,27.9v.28l0,0v-.29l0,0Z"/><path class="cls-75" d="M60.92,27.92v.29h0l-.06,0V28l.06,0Z"/><path class="cls-74" d="M60.86,28v.29H60.8V28l.06,0Z"/><path class="cls-73" d="M60.8,28v.28h0V28Z"/><path class="cls-72" d="M60.76,28v.29h0V28Z"/><path class="cls-71" d="M60.73,28v.29h0V28Z"/><path class="cls-70" d="M60.7,28v.29h0V28Z"/><path class="cls-69" d="M60.67,28v.29h0V28Z"/><path class="cls-68" d="M60.65,28v.28h0V28Z"/><path class="cls-76" d="M60.62,28v.29h0V28Z"/><path class="cls-77" d="M60.59,28v.28h0V28Z"/><path class="cls-78" d="M60.55,28v.28l0,0a.12.12,0,0,1-.08-.12v-.28s0,.08.09.12l0,0Z"/></g></g></g><polygon class="cls-79" points="63.22 28.75 63.22 29.03 59.27 26.78 59.27 26.49 63.22 28.75"/><path class="cls-80" d="M60.91,27.69c.12.07.12.17,0,.24a.49.49,0,0,1-.41,0,.13.13,0,0,1,0-.24A.47.47,0,0,1,60.91,27.69Z"/><polygon class="cls-81" points="67.92 25.98 67.92 26.27 63.22 29.03 63.22 28.75 67.92 25.98"/><polygon class="cls-52" points="67.92 25.98 63.22 28.75 59.27 26.49 63.98 23.73 67.92 25.98"/><polygon class="cls-82" points="66.81 25.94 63.32 27.99 60.39 26.32 63.88 24.27 66.81 25.94"/><polygon class="cls-83" points="64.59 25.23 63.6 25.81 62.77 25.34 63.76 24.75 64.59 25.23"/><path class="cls-82" d="M68.47,26h0a0,0,0,0,1,0,0h0l0,0,0,0h0l-5.54,3.26v.28l5.54-3.26h0l0,0h0v0h0V26h0S68.47,26,68.47,26Z"/><path class="cls-83" d="M68.39,25.85a.12.12,0,0,1,0,.23l-5.54,3.26a.47.47,0,0,1-.4,0L58.31,27a.12.12,0,0,1,0-.23l5.54-3.25a.43.43,0,0,1,.4,0Zm-5.18,2.9L67.92,26,64,23.73l-4.71,2.76,3.94,2.26Zm-2.7-.82a.49.49,0,0,0,.41,0c.11-.07.11-.17,0-.24a.47.47,0,0,0-.4,0,.13.13,0,0,0,0,.24Z"/><path class="cls-84" d="M62.85,29.34l-.05,0h-.3l0,0L58.31,27a.14.14,0,0,1-.08-.11v.28a.14.14,0,0,0,.08.11l4.15,2.37,0,0h.3l.05,0Z"/><polygon class="cls-83" points="66.05 26.12 65.89 26.21 64.56 25.45 64.71 25.36 66.05 26.12"/><polygon class="cls-83" points="65.63 26.36 65.48 26.45 64.14 25.69 64.3 25.59 65.63 26.36"/><polygon class="cls-83" points="65.27 26.6 65.12 26.69 63.78 25.93 63.93 25.84 65.27 26.6"/><path class="cls-85" d="M60.91,27.72c.12.06.12.17,0,.24a.49.49,0,0,1-.41,0,.13.13,0,0,1,0-.24A.41.41,0,0,1,60.91,27.72Z"/><g class="cls-4"><path d="M60,54.45c3.45,2,3.47,5.22,0,7.21a13.71,13.71,0,0,1-12.44,0c-3.45-2-3.47-5.22,0-7.21A13.71,13.71,0,0,1,60,54.45Z"/></g><path class="cls-86" d="M51.16,32.29s-2.1,1.7-.93,5.65,1.47,3.8,1.11,5c-.26.93-1.22,2.84-1.13,4.5.08,1.32.29,2.07.58,4.19.37,2.69.29,2.12-.07,3.25s1.89,2.39,2.62,2.28-.89-.68-.77-2.91a53.81,53.81,0,0,1,2-10.11,45.9,45.9,0,0,0,1.49-11A5.47,5.47,0,0,1,51.16,32.29Z"/><path class="cls-87" d="M53.34,58h0Z"/><polygon class="cls-88" points="51.24 55.94 50.92 58.23 50.77 58.55 50.97 55.94 51.24 55.94"/><path class="cls-87" d="M50.89,54.44c.3,0,.57.42,1.07,1.42.21.42.84,1.47,1.43,1.1.07,0-.13-.31-.13-.31s.93-.19,1,.08-.6,1.53-1.54,1.4S51.61,57,51.41,56.58c-.4-.79-.3.84-.88-.74A1.32,1.32,0,0,1,50.89,54.44Z"/><path class="cls-88" d="M52.74,58.13a1,1,0,0,0,.59-.1c-.21.12-.78-.28-1.16-1A2.83,2.83,0,0,0,51,55.94l-.17.17c.13.39.14-.29.61.47C51.65,57,51.8,58,52.74,58.13Z"/><polygon class="cls-87" points="50.55 55.46 50.79 58.8 51.32 58.54 51.4 55.11 50.55 55.46"/><path class="cls-88" d="M50.79,58.8l-.36-.26a14.86,14.86,0,0,1,.1-3.57c.27-.57.36-.53.36-.53Z"/><path class="cls-89" d="M53.26,33.63s-1.81,2.33-.44,6.22,1.66,3.72,1.37,5c-.22,1-1.08,2.91-.9,4.56.14,1.31.39,2.06.79,4.16.5,2.66.39,2.1.1,3.24-.34,1.3,2,2.3,2.72,2.15S56,58.29,56,56.06a53.75,53.75,0,0,1,1.44-10.19c.54-1.44.69-10.25.4-12.48A3.66,3.66,0,0,1,53.26,33.63Z"/><path class="cls-87" d="M57,59.75h0Z"/><polygon class="cls-88" points="54.74 57.77 54.54 60.08 54.41 60.41 54.48 57.79 54.74 57.77"/><path class="cls-87" d="M54.32,56.3c.3,0,.59.39,1.15,1.36.22.4.9,1.43,1.48,1,.06,0-.14-.31-.14-.31s.91-.24,1,0S57.3,60,56.36,59.89s-1.19-1.1-1.41-1.48c-.44-.77-.26.85-.92-.7A1.31,1.31,0,0,1,54.32,56.3Z"/><path class="cls-88" d="M56.36,59.89a1,1,0,0,0,.58-.13c-.2.13-.79-.24-1.21-.94a2.81,2.81,0,0,0-1.26-1l-.15.18c.15.38.12-.3.63.44C55.2,58.76,55.41,59.81,56.36,59.89Z"/><polygon class="cls-87" points="54.03 57.33 54.44 60.65 54.96 60.37 54.87 56.94 54.03 57.33"/><path class="cls-88" d="M54.44,60.65l-.37-.24A14.68,14.68,0,0,1,54,56.84c.24-.58.33-.54.33-.54Z"/><path class="cls-90" d="M50.35,31.23s4.79,3.65,7.63.65a52.42,52.42,0,0,1,.65,10.29c-.18,4.65-.65,5.48-.65,5.48s-5.9,1.08-8.17-2a6.94,6.94,0,0,0,.46-4.48C49.59,39.11,47.81,35.3,50.35,31.23Z"/><path class="cls-91" d="M58,47.65s.47-.83.65-5.48A52.42,52.42,0,0,0,58,31.88c-2.84,3-7.63-.65-7.63-.65-.24.18-.44.92-.61,1.14.42.82,2.15,1,3.22,1.38,1.79.59,3.64,3.24,3.44,6.09-.14,2-.64,6-.91,8A15.32,15.32,0,0,0,58,47.65Z"/><path class="cls-92" d="M56,20.12s2.91,1.33,2.69,2.89c-.29,2-1.84,5.85-.66,8.87a3.55,3.55,0,0,1-2.9,1.51c-2.17-.11-4.73-2.16-4.73-2.16s1-2.16-.74-6.14c-.75-1.69-1.65-6.59.74-6.87C50.35,18.22,51,17.49,56,20.12Z"/><path class="cls-89" d="M56,18.24l-.22,2.26a2.68,2.68,0,0,1-3.3-.61l.23-2.26A7.79,7.79,0,0,0,56,18.24Z"/><path class="cls-93" d="M54.82,11.65a2.79,2.79,0,0,1,2.36,1.26c.65,1.28,1.2,3.17.4,4.23s-.41,1.83,0,2.2-4.46,2-6.56-1.09C51,18.25,49.64,10.5,54.82,11.65Z"/><path class="cls-94" d="M58.86,30.55a2.91,2.91,0,0,0,1.24-.07.78.78,0,0,0,.68-.93l-1.45-5.24A3.53,3.53,0,0,0,58,21.81h0a1.34,1.34,0,0,0-1.91,1.59S57.81,30.15,58.86,30.55Z"/><path class="cls-51" d="M67.37,28.08c.46-.79.38-1.12.2-1a1.9,1.9,0,0,1-1.73.44,1.16,1.16,0,0,0,.71-.79.2.2,0,0,0-.38-.07,1.4,1.4,0,0,1-.67.45,1.44,1.44,0,0,0-.85.53,1.7,1.7,0,0,1-.65.59l-.11.05.58,1.06a4.36,4.36,0,0,1,1.2-.33A2.65,2.65,0,0,0,67.37,28.08Z"/><path class="cls-94" d="M58.83,30.37a1.41,1.41,0,0,1,.74-2l5.07-.79a2.74,2.74,0,0,0,0,.9,1.23,1.23,0,0,0,.69.79S59.88,31.9,58.83,30.37Z"/></g></g></svg>