<svg xmlns="http://www.w3.org/2000/svg" viewBox="0 0 26.34 46.67"><defs><style>.cls-1{isolation:isolate;}.cls-2{fill:#2c313f;}.cls-3{fill:#363b4c;}.cls-4{fill:#0eafe0;}.cls-10,.cls-5{fill:#fff;}.cls-6{fill:#575e72;}.cls-7{fill:#707c9b;}.cls-8{fill:#929db7;}.cls-9{fill:#ffc933;}.cls-10{opacity:0.2;mix-blend-mode:screen;}</style></defs><title>Zasób 6</title><g class="cls-1"><g id="Warstwa_2" data-name="Warstwa 2"><g id="_2" data-name="2"><rect class="cls-2" x="2.18" width="24.17" height="46.67" rx="2.99"/><rect class="cls-3" width="24.17" height="46.67" rx="2.99"/><rect class="cls-2" x="1.13" y="4.95" width="21.44" height="36.23"/><rect class="cls-4" x="1.82" y="5.62" width="20.07" height="34.87"/><path class="cls-5" d="M11.85,45.28a1.56,1.56,0,1,1,1.55-1.55A1.56,1.56,0,0,1,11.85,45.28Zm0-2.8a1.25,1.25,0,1,0,1.25,1.25A1.25,1.25,0,0,0,11.85,42.48Z"/><path class="cls-5" d="M6.07,44.84a.12.12,0,0,1-.08,0l-1.45-.91a.16.16,0,0,1,0-.26l1.45-1a.12.12,0,0,1,.15,0,.14.14,0,0,1,.09.13v1.93a.15.15,0,0,1-.08.13A.12.12,0,0,1,6.07,44.84ZM4.9,43.77l1,.65V43.05Z"/><path class="cls-5" d="M19.08,44.79H17.26a.15.15,0,0,1-.15-.15V42.82a.15.15,0,0,1,.15-.16h1.82a.16.16,0,0,1,.15.16v1.82A.15.15,0,0,1,19.08,44.79Zm-1.67-.3h1.52V43H17.41Z"/><path class="cls-6" d="M21.17,0h-.64a3,3,0,0,1,3,3V43.68a3,3,0,0,1-3,3h.64a3,3,0,0,0,3-3V3A3,3,0,0,0,21.17,0Z"/><rect class="cls-6" x="24.82" y="6.11" width="0.97" height="5.7" rx="0.28"/><rect class="cls-7" x="25.11" y="6.11" width="0.97" height="5.7" rx="0.28"/><path class="cls-8" d="M25.26,11.53V6.39a.27.27,0,0,1,.28-.28h-.15a.28.28,0,0,0-.28.28v5.14a.29.29,0,0,0,.28.28h.15A.28.28,0,0,1,25.26,11.53Z"/><rect class="cls-6" x="24.82" y="12.14" width="0.97" height="5.7" rx="0.28"/><rect class="cls-7" x="25.11" y="12.14" width="0.97" height="5.7" rx="0.28"/><path class="cls-8" d="M25.26,17.56V12.42a.28.28,0,0,1,.28-.28h-.15a.29.29,0,0,0-.28.28v5.14a.28.28,0,0,0,.28.28h.15A.27.27,0,0,1,25.26,17.56Z"/><rect class="cls-6" x="24.82" y="19.87" width="0.97" height="1.68" rx="0.28"/><rect class="cls-7" x="25.11" y="19.87" width="0.97" height="1.68" rx="0.28"/><path class="cls-8" d="M25.26,21.27V20.15a.28.28,0,0,1,.28-.28h-.15a.29.29,0,0,0-.28.28v1.12a.29.29,0,0,0,.28.28h.15A.28.28,0,0,1,25.26,21.27Z"/><circle class="cls-2" cx="18.3" cy="2.5" r="0.77"/><rect class="cls-2" x="8.95" y="1.92" width="5.79" height="1.16" rx="0.35"/><rect class="cls-9" x="4.12" y="31.35" width="15.47" height="4.83"/><path class="cls-5" d="M7.4,32h1a2,2,0,0,1,1.05.21.73.73,0,0,1,.33.66.9.9,0,0,1-.14.51.55.55,0,0,1-.38.23v0a.67.67,0,0,1,.46.27.86.86,0,0,1,.15.53.9.9,0,0,1-.34.73,1.41,1.41,0,0,1-.91.26H7.4Zm.72,1.36h.42A.77.77,0,0,0,9,33.28a.39.39,0,0,0,0-.59,1,1,0,0,0-.45-.08H8.12Zm0,.58v.89h.47A.75.75,0,0,0,9,34.73a.45.45,0,0,0,.14-.35c0-.29-.2-.43-.61-.43Z"/><path class="cls-5" d="M13.36,32v2.22a1.22,1.22,0,0,1-.17.67,1.08,1.08,0,0,1-.48.44,1.81,1.81,0,0,1-.76.15,1.45,1.45,0,0,1-1-.34,1.21,1.21,0,0,1-.36-.93V32h.72v2.1a.84.84,0,0,0,.16.58.62.62,0,0,0,.52.19.6.6,0,0,0,.51-.19.86.86,0,0,0,.16-.58V32Z"/><path class="cls-5" d="M15.25,33.43,16,32h.78l-1.13,2.1v1.33h-.72V34.13L13.77,32h.78Z"/><path class="cls-5" d="M15.81,24.77H10A2,2,0,0,1,8,23.24L6,15l-1.8-.46a.21.21,0,0,1-.14-.24.21.21,0,0,1,.24-.14l1.91.5a.2.2,0,0,1,.14.14l2,8.35A1.62,1.62,0,0,0,10,24.38h5.85a.2.2,0,0,1,.19.19A.2.2,0,0,1,15.81,24.77Z"/><path class="cls-5" d="M16.77,22.47H8a.2.2,0,0,1-.19-.2A.2.2,0,0,1,8,22.08h8.63l1.14-4.74h-11a.19.19,0,0,1,0-.38H18a.18.18,0,0,1,.15.07.21.21,0,0,1,0,.17L17,22.32A.19.19,0,0,1,16.77,22.47Z"/><path class="cls-5" d="M17.35,19.81H7.44a.2.2,0,1,1,0-.39h9.91a.2.2,0,0,1,.19.19A.2.2,0,0,1,17.35,19.81Z"/><path class="cls-5" d="M15.72,27.24a1.43,1.43,0,1,1,1.43-1.43A1.44,1.44,0,0,1,15.72,27.24Zm0-2.47a1,1,0,1,0,1,1A1,1,0,0,0,15.72,24.77Z"/><path class="cls-5" d="M9.43,27.24a1.43,1.43,0,1,1,1.43-1.43A1.43,1.43,0,0,1,9.43,27.24Zm0-2.47a1,1,0,1,0,1.05,1A1,1,0,0,0,9.43,24.77Z"/><path class="cls-5" d="M4.6,14.36a.43.43,0,1,1-.85,0,.43.43,0,0,1,.85,0Z"/><path class="cls-5" d="M9.83,22.38a.17.17,0,0,1-.18-.15l-1.13-5a.19.19,0,1,1,.37-.08l1.13,5a.2.2,0,0,1-.14.23Z"/><path class="cls-5" d="M14.88,22.38h0a.2.2,0,0,1-.15-.23l1.13-5a.19.19,0,0,1,.23-.15.2.2,0,0,1,.15.23l-1.13,5A.19.19,0,0,1,14.88,22.38Z"/><path class="cls-5" d="M13.1,22.38h0a.2.2,0,0,1-.17-.21l.6-5a.19.19,0,0,1,.21-.17.19.19,0,0,1,.17.21l-.59,5A.2.2,0,0,1,13.1,22.38Z"/><path class="cls-5" d="M11.63,22.38a.2.2,0,0,1-.2-.17l-.59-5a.19.19,0,0,1,.38,0l.6,5a.2.2,0,0,1-.17.21Z"/><path class="cls-5" d="M12.42,15a1.73,1.73,0,1,1,1.73-1.73A1.73,1.73,0,0,1,12.42,15Zm0-3.16a1.43,1.43,0,1,0,1.42,1.43A1.43,1.43,0,0,0,12.42,11.87Z"/><path class="cls-5" d="M12.42,14.43a.15.15,0,0,1-.16-.15v-2a.15.15,0,0,1,.16-.15.15.15,0,0,1,.15.15v2A.15.15,0,0,1,12.42,14.43Z"/><path class="cls-5" d="M13.4,13.45h-2a.15.15,0,0,1,0-.3h2a.15.15,0,1,1,0,.3Z"/><polygon class="cls-10" points="1.82 40.5 1.82 5.63 21.89 5.63 1.82 40.5"/></g></g></g></svg>