<svg xmlns="http://www.w3.org/2000/svg" viewBox="0 0 72.05 35.16"><defs><style>.cls-1{fill:#dbc1d6;}.cls-2{fill:#f9eff7;}.cls-3{fill:#707c9b;}.cls-4{fill:#929db7;}.cls-5{fill:#c3cddd;}.cls-6{fill:#363b4c;}.cls-7{fill:#dfe7ef;}.cls-8{fill:#4a5e72;}.cls-9{fill:#2c313f;}</style></defs><title>Zasób 7</title><g id="Warstwa_2" data-name="Warstwa 2"><g id="_2" data-name="2"><rect class="cls-1" x="1.02" y="0.03" width="66.26" height="30.93"/><rect class="cls-2" width="66.26" height="30.93"/><path class="cls-3" d="M64.6,29.76H1.66a.11.11,0,0,1-.11-.11V1.33a.11.11,0,0,1,.11-.11H64.6a.11.11,0,0,1,.1.11V29.65A.11.11,0,0,1,64.6,29.76ZM1.76,29.55H64.5V1.43H1.76Z"/><path class="cls-3" d="M7.87,12A4.48,4.48,0,1,1,12.34,7.5,4.47,4.47,0,0,1,7.87,12Zm0-8.75A4.28,4.28,0,1,0,12.14,7.5,4.28,4.28,0,0,0,7.87,3.22Z"/><rect class="cls-3" x="5.5" y="9.1" width="4.74" height="0.27"/><rect class="cls-3" x="5.7" y="6.12" width="4.33" height="0.27"/><rect class="cls-3" x="5.09" y="9.34" width="5.55" height="0.48"/><rect class="cls-3" x="4.39" y="7.32" width="3.32" height="0.7" transform="translate(13.72 1.61) rotate(90)"/><rect class="cls-3" x="5.6" y="7.32" width="3.32" height="0.7" transform="translate(14.93 0.4) rotate(90)"/><rect class="cls-3" x="6.81" y="7.32" width="3.32" height="0.7" transform="translate(16.14 -0.81) rotate(90)"/><rect class="cls-3" x="8.03" y="7.32" width="3.32" height="0.7" transform="translate(17.35 -2.02) rotate(90)"/><polygon class="cls-3" points="5 6.13 10.73 6.13 7.87 4.43 5 6.13"/><path class="cls-3" d="M14.07,3.65h.82a1.66,1.66,0,0,1,.82.16.56.56,0,0,1,.25.51.67.67,0,0,1-.11.39.43.43,0,0,1-.29.18v0a.64.64,0,0,1,.36.21.71.71,0,0,1,.11.41.68.68,0,0,1-.26.56,1.17,1.17,0,0,1-.71.2h-1Zm.56,1.05H15a.68.68,0,0,0,.33-.07.29.29,0,0,0,.1-.23.23.23,0,0,0-.11-.22.66.66,0,0,0-.35-.07h-.3Zm0,.44v.69H15a.55.55,0,0,0,.34-.09.34.34,0,0,0,.11-.27c0-.22-.16-.33-.47-.33Z"/><path class="cls-3" d="M18.17,6.29,18,5.66H17l-.19.63h-.61l.93-2.65h.69l.93,2.65Zm-.32-1.1c-.18-.56-.28-.89-.3-1a1,1,0,0,1-.05-.18c0,.16-.15.54-.34,1.14Z"/><path class="cls-3" d="M21.44,6.29h-.71l-1.14-2h0q0,.53,0,.75V6.29h-.5V3.65h.71l1.15,2h0c0-.34,0-.59,0-.73V3.65h.5Z"/><path class="cls-3" d="M24.23,6.29H23.6l-.7-1.11-.23.17v.94h-.56V3.65h.56V4.86l.22-.31.71-.9h.62L23.3,4.82Z"/><path class="cls-3" d="M27.86,6.29h-.71L26,4.3h0q0,.53,0,.75V6.29h-.5V3.65h.71l1.14,2h0c0-.34,0-.59,0-.73V3.65h.5Z"/><path class="cls-3" d="M30.14,6.29,30,5.66H29l-.19.63h-.6l.93-2.65h.68l.94,2.65Zm-.32-1.1c-.18-.56-.28-.89-.3-1s0-.13-.05-.18c0,.16-.15.54-.34,1.14Z"/><path class="cls-3" d="M32.19,6.29l-.63-2.07h0c0,.42,0,.7,0,.84V6.29h-.5V3.65h.76l.62,2h0l.67-2h.76V6.29h-.52V4.84c0-.08,0-.28,0-.61h0l-.68,2.06Z"/><path class="cls-3" d="M36.08,6.29H34.56V3.65h1.52v.46h-1v.58H36v.46h-.89v.68h1Z"/><path class="cls-3" d="M47.18,15.84h-.29V14c0-.15,0-.3,0-.44l-.08.08-.43.35-.16-.21.7-.53h.25Z"/><path class="cls-3" d="M49.93,14.52a1.94,1.94,0,0,1-.21,1,.73.73,0,0,1-.66.34.73.73,0,0,1-.65-.35,1.85,1.85,0,0,1-.22-1,1.94,1.94,0,0,1,.21-1,.79.79,0,0,1,1.31,0A1.87,1.87,0,0,1,49.93,14.52Zm-1.44,0a2,2,0,0,0,.13.84.47.47,0,0,0,.44.26.45.45,0,0,0,.43-.26,2,2,0,0,0,.13-.84,1.9,1.9,0,0,0-.13-.83.45.45,0,0,0-.43-.27.47.47,0,0,0-.44.26A2,2,0,0,0,48.49,14.52Z"/><path class="cls-3" d="M52,14.52a1.94,1.94,0,0,1-.21,1,.73.73,0,0,1-.66.34.73.73,0,0,1-.65-.35,1.85,1.85,0,0,1-.22-1,1.94,1.94,0,0,1,.21-1,.76.76,0,0,1,.66-.34.74.74,0,0,1,.65.35A1.87,1.87,0,0,1,52,14.52Zm-1.44,0a2,2,0,0,0,.14.84.49.49,0,0,0,.86,0,2,2,0,0,0,.14-.84,1.88,1.88,0,0,0-.14-.83.45.45,0,0,0-.43-.27.45.45,0,0,0-.43.26A2,2,0,0,0,50.6,14.52Z"/><path class="cls-3" d="M53.34,15v-.27h.89V15Z"/><path class="cls-3" d="M57.27,14.52a1.93,1.93,0,0,1-.22,1,.71.71,0,0,1-.66.34.74.74,0,0,1-.65-.35,1.94,1.94,0,0,1-.22-1,1.84,1.84,0,0,1,.22-1,.78.78,0,0,1,1.3,0A1.86,1.86,0,0,1,57.27,14.52Zm-1.45,0a2,2,0,0,0,.14.84.45.45,0,0,0,.43.26.47.47,0,0,0,.44-.26,2.16,2.16,0,0,0,.13-.84,2.07,2.07,0,0,0-.13-.83.46.46,0,0,0-.44-.27.45.45,0,0,0-.43.26A2,2,0,0,0,55.82,14.52Z"/><path class="cls-3" d="M59.38,14.52a1.84,1.84,0,0,1-.22,1,.78.78,0,0,1-1.3,0,1.84,1.84,0,0,1-.23-1,1.93,1.93,0,0,1,.22-1,.73.73,0,0,1,.65-.34.74.74,0,0,1,.66.35A1.87,1.87,0,0,1,59.38,14.52Zm-1.44,0a2,2,0,0,0,.13.84.49.49,0,0,0,.87,0,2,2,0,0,0,.13-.84,1.9,1.9,0,0,0-.13-.83.49.49,0,0,0-.87,0A2,2,0,0,0,57.94,14.52Z"/><path class="cls-3" d="M14.53,7.2l0,.08a.61.61,0,0,0-.24-.06c-.13,0-.19,0-.19.17v.16h.56v1h-.11V7.64h-.45v.92H14V7.64h-.17V7.55H14V7.39c0-.17.1-.26.29-.26A.52.52,0,0,1,14.53,7.2Z"/><path class="cls-3" d="M15.53,7.54l0,.11h-.09c-.14,0-.22.1-.27.31v.61H15v-1h.09v.23c.06-.17.15-.25.29-.25Z"/><path class="cls-3" d="M16.31,7.64l0,.07A.46.46,0,0,0,16,7.62c-.13,0-.22.07-.22.17s.06.14.24.19.33.14.33.31-.17.29-.37.29a.51.51,0,0,1-.36-.13l.06-.07a.44.44,0,0,0,.3.11c.15,0,.25-.07.25-.2s-.06-.16-.27-.22-.3-.14-.3-.28.14-.26.34-.26A.52.52,0,0,1,16.31,7.64Z"/><path class="cls-3" d="M17.1,8.52a.38.38,0,0,1-.22.06.23.23,0,0,1-.24-.26V7.64h-.17V7.55h.17V7.31h.11v.25H17v.09h-.25v.67q0,.18.15.18a.3.3,0,0,0,.15-.05Z"/><path class="cls-3" d="M18.62,8.05c0,.33-.14.53-.38.53A.34.34,0,0,1,18,8.43v.13h-.1V7.14H18v.56a.35.35,0,0,1,.3-.16C18.49,7.53,18.62,7.71,18.62,8.05Zm-.12,0c0-.3-.1-.43-.27-.43A.34.34,0,0,0,18,7.8v.53a.32.32,0,0,0,.27.16C18.4,8.49,18.5,8.34,18.5,8.05Z"/><path class="cls-3" d="M19.68,8.5l0,.08a.17.17,0,0,1-.15-.17.35.35,0,0,1-.32.17.29.29,0,0,1-.31-.3c0-.21.16-.33.42-.33h.19V7.86c0-.16-.07-.24-.23-.24a1.09,1.09,0,0,0-.28.06l0-.08a.81.81,0,0,1,.32-.07c.23,0,.33.11.33.32v.49C19.59,8.45,19.62,8.48,19.68,8.5Zm-.2-.19V8H19.3c-.2,0-.31.07-.31.24a.19.19,0,0,0,.21.21A.29.29,0,0,0,19.48,8.31Z"/><path class="cls-3" d="M20.73,7.84v.72h-.11V7.85c0-.16-.07-.23-.19-.23a.41.41,0,0,0-.32.21v.73H20v-1h.1v.17a.41.41,0,0,1,.34-.19C20.63,7.53,20.73,7.64,20.73,7.84Z"/><path class="cls-3" d="M21.25,8.56h-.12V7.14h.12ZM21.39,8l.47.56h-.14L21.26,8l.42-.46h.13Z"/><path class="cls-3" d="M23.39,8.05c0,.33-.16.53-.42.53s-.43-.2-.43-.52.16-.53.43-.53S23.39,7.72,23.39,8.05Zm-.73,0c0,.28.11.43.31.43s.31-.15.31-.44-.12-.43-.31-.43S22.66,7.77,22.66,8.06Z"/><path class="cls-3" d="M23.85,7.39v.16h.27l0,.09h-.25v.92h-.11V7.64h-.18V7.55h.18V7.38A.25.25,0,0,1,24,7.13a.43.43,0,0,1,.23,0l0,.08a.48.48,0,0,0-.2,0A.15.15,0,0,0,23.85,7.39Z"/><path class="cls-3" d="M25.35,8.52a.37.37,0,0,1-.21.06.23.23,0,0,1-.25-.26V7.64h-.17V7.55h.17V7.31H25v.25h.26v.09H25v.67q0,.18.15.18a.27.27,0,0,0,.15-.05Z"/><path class="cls-3" d="M26.3,8.05c0,.33-.16.53-.42.53s-.43-.2-.43-.52.16-.53.43-.53S26.3,7.72,26.3,8.05Zm-.73,0c0,.28.11.43.31.43s.31-.15.31-.44-.12-.43-.31-.43S25.57,7.77,25.57,8.06Z"/><path class="cls-3" d="M27.47,8.56h-.16l-.22-.91-.23.91h-.15l-.25-1h.12l.21.92L27,7.55h.13l.23.93.21-.93h.11Z"/><path class="cls-3" d="M28.7,7.84v.72h-.11V7.85c0-.16-.07-.23-.2-.23a.39.39,0,0,0-.31.21v.73H28v-1h.1v.17a.41.41,0,0,1,.34-.19C28.6,7.53,28.7,7.64,28.7,7.84Z"/><path class="cls-3" d="M5.24,20.36l0,.08A.57.57,0,0,0,5,20.39c-.12,0-.18,0-.18.17v.16h.56v1H5.23v-.92H4.78v.92H4.66v-.92H4.5v-.09h.16v-.17c0-.16.11-.26.3-.26A.61.61,0,0,1,5.24,20.36Z"/><path class="cls-3" d="M6.25,20.71l0,.1H6.13c-.14,0-.21.1-.27.31v.62H5.75v-1h.1v.22c0-.16.14-.24.28-.24Z"/><path class="cls-3" d="M7,20.81,7,20.88a.43.43,0,0,0-.26-.09c-.14,0-.23.06-.23.17s.07.14.25.19.32.13.32.31-.16.29-.36.29a.52.52,0,0,1-.36-.13l.06-.07a.42.42,0,0,0,.3.1c.14,0,.25-.06.25-.19s-.06-.16-.27-.22-.3-.14-.3-.28.14-.26.33-.26A.49.49,0,0,1,7,20.81Z"/><path class="cls-3" d="M7.81,21.69a.37.37,0,0,1-.21.06.24.24,0,0,1-.25-.27v-.67H7.18v-.09h.17v-.24l.12,0v.26h.26l0,.09H7.47v.67c0,.11,0,.17.15.17a.28.28,0,0,0,.15,0Z"/><path class="cls-3" d="M9.34,21.22c0,.32-.14.53-.38.53a.37.37,0,0,1-.3-.15v.13H8.56V20.31l.11,0v.57A.35.35,0,0,1,9,20.7C9.2,20.7,9.34,20.88,9.34,21.22Zm-.12,0c0-.3-.1-.43-.27-.43a.35.35,0,0,0-.28.17v.54a.32.32,0,0,0,.26.16C9.11,21.66,9.22,21.51,9.22,21.22Z"/><path class="cls-3" d="M10.39,21.67l0,.08a.18.18,0,0,1-.16-.17.36.36,0,0,1-.31.17.28.28,0,0,1-.31-.3c0-.21.16-.33.41-.33h.2V21c0-.16-.07-.23-.24-.23a.74.74,0,0,0-.27.06l0-.09A.91.91,0,0,1,10,20.7c.23,0,.33.11.33.32v.48C10.31,21.62,10.34,21.65,10.39,21.67Zm-.19-.19V21.2H10c-.2,0-.32.08-.32.24a.2.2,0,0,0,.22.22A.31.31,0,0,0,10.2,21.48Z"/><path class="cls-3" d="M11.45,21v.72h-.11V21c0-.17-.07-.23-.2-.23a.38.38,0,0,0-.31.21v.73h-.11v-1h.1v.17a.41.41,0,0,1,.34-.19C11.35,20.7,11.45,20.81,11.45,21Z"/><path class="cls-3" d="M12,21.73h-.11V20.31l.11,0Zm.14-.56.47.56h-.13L12,21.18l.43-.46h.13Z"/><path class="cls-3" d="M14.11,21.22c0,.33-.16.53-.43.53s-.42-.2-.42-.53.16-.52.42-.52S14.11,20.89,14.11,21.22Zm-.73,0c0,.29.11.43.3.43s.31-.14.31-.43-.11-.43-.31-.43S13.38,20.93,13.38,21.22Z"/><path class="cls-3" d="M14.57,20.56v.16h.26v.09h-.25v.92h-.12v-.92h-.17v-.09h.17v-.17a.26.26,0,0,1,.29-.26.46.46,0,0,1,.23.06l0,.08a.41.41,0,0,0-.19-.05C14.63,20.38,14.57,20.44,14.57,20.56Z"/><path class="cls-3" d="M16.07,21.69a.43.43,0,0,1-.22.06c-.15,0-.24-.09-.24-.27v-.67h-.17v-.09h.17v-.24l.11,0v.26H16v.09h-.25v.67c0,.11,0,.17.15.17a.28.28,0,0,0,.15,0Z"/><path class="cls-3" d="M17,21.22c0,.33-.16.53-.43.53s-.42-.2-.42-.53.16-.52.42-.52S17,20.89,17,21.22Zm-.73,0c0,.29.11.43.3.43s.31-.14.31-.43-.11-.43-.31-.43S16.29,20.93,16.29,21.22Z"/><path class="cls-3" d="M18.18,21.73H18l-.22-.91-.23.91h-.15l-.25-1h.11l.22.92.24-.92h.12l.24.92.21-.92h.11Z"/><path class="cls-3" d="M19.41,21v.72H19.3V21c0-.17-.07-.23-.19-.23a.36.36,0,0,0-.31.21v.73h-.11v-1h.09v.17a.43.43,0,0,1,.34-.19C19.32,20.7,19.41,20.81,19.41,21Z"/><path class="cls-3" d="M5.92,26.33c0,.43-.14.67-.43.67s-.43-.24-.43-.67.14-.67.43-.67S5.92,25.9,5.92,26.33Zm-.68,0c0,.38.09.52.25.52s.25-.14.25-.52-.09-.53-.25-.53S5.24,26,5.24,26.33Z"/><path class="cls-3" d="M7,26.33c0,.43-.14.67-.43.67s-.43-.24-.43-.67.14-.67.43-.67S7,25.9,7,26.33Zm-.68,0c0,.38.09.52.25.52s.25-.14.25-.52-.09-.53-.25-.53S6.32,26,6.32,26.33Z"/><path class="cls-3" d="M8.08,26.65H7.91V27H7.74v-.32H7.19v-.12l.39-.87.15.06-.35.79h.36l0-.35h.15v.35h.17Z"/><path class="cls-3" d="M9.06,26.16c0,.54-.21.72-.69.85l0-.13c.33-.09.53-.24.55-.53a.34.34,0,0,1-.29.15.37.37,0,0,1-.36-.41.4.4,0,0,1,.41-.43C8.92,25.66,9.06,25.86,9.06,26.16Zm-.18,0c0-.29-.07-.4-.23-.4s-.24.11-.24.29.09.27.21.27A.3.3,0,0,0,8.88,26.2Z"/><path class="cls-3" d="M10.14,26.63a.41.41,0,0,1-.45.37.39.39,0,0,1-.44-.37.35.35,0,0,1,.25-.34.31.31,0,0,1-.2-.3.35.35,0,0,1,.39-.33.36.36,0,0,1,.4.33.33.33,0,0,1-.22.29A.37.37,0,0,1,10.14,26.63Zm-.19,0c0-.14-.07-.2-.28-.27l-.05,0a.3.3,0,0,0-.19.29c0,.14.1.22.26.22S10,26.76,10,26.63ZM9.48,26c0,.14.09.19.24.23l0,0A.28.28,0,0,0,9.91,26a.2.2,0,0,0-.22-.2A.19.19,0,0,0,9.48,26Z"/><path class="cls-3" d="M11.05,26a.31.31,0,0,1-.26.3.29.29,0,0,1,.3.31.41.41,0,0,1-.44.4.48.48,0,0,1-.39-.18l.1-.1a.38.38,0,0,0,.28.13.24.24,0,0,0,.26-.25c0-.18-.1-.23-.26-.23h-.09l0-.14h.06a.22.22,0,0,0,.24-.23.2.2,0,0,0-.22-.2.35.35,0,0,0-.26.12l-.1-.11a.53.53,0,0,1,.37-.15A.34.34,0,0,1,11.05,26Z"/><path class="cls-3" d="M12,25.82H11.5v.38a.41.41,0,0,1,.21-.05.36.36,0,0,1,.37.41.42.42,0,0,1-.45.44.5.5,0,0,1-.38-.17l.1-.1a.36.36,0,0,0,.28.12c.16,0,.26-.11.26-.3s-.1-.26-.24-.26a.37.37,0,0,0-.18,0h-.14v-.65H12Z"/><path class="cls-3" d="M18.4,26.16c0,.54-.21.72-.68.85l0-.13c.33-.09.54-.24.55-.53a.34.34,0,0,1-.29.15.37.37,0,0,1-.36-.41.41.41,0,0,1,.42-.43C18.26,25.66,18.4,25.86,18.4,26.16Zm-.18,0c0-.29-.07-.4-.23-.4s-.24.11-.24.29.09.27.22.27A.28.28,0,0,0,18.22,26.2Z"/><path class="cls-3" d="M19.48,26.63A.41.41,0,0,1,19,27a.39.39,0,0,1-.44-.37.36.36,0,0,1,.25-.34.32.32,0,0,1-.2-.3.36.36,0,0,1,.4-.33.35.35,0,0,1,.39.33.33.33,0,0,1-.22.29A.36.36,0,0,1,19.48,26.63Zm-.19,0c0-.14-.07-.2-.28-.27l-.05,0a.3.3,0,0,0-.19.29c0,.14.1.22.26.22S19.29,26.76,19.29,26.63ZM18.82,26c0,.14.09.19.24.23l0,0a.26.26,0,0,0,.16-.25.19.19,0,0,0-.21-.2A.2.2,0,0,0,18.82,26Z"/><path class="cls-3" d="M20.38,25.82h-.5v.38a.35.35,0,0,1,.2-.05.36.36,0,0,1,.37.41A.42.42,0,0,1,20,27a.52.52,0,0,1-.38-.17l.11-.1a.36.36,0,0,0,.27.12.27.27,0,0,0,.27-.3.23.23,0,0,0-.24-.26.37.37,0,0,0-.18,0h-.14v-.65h.7Z"/><path class="cls-3" d="M21.51,26.65h-.17V27h-.17v-.32h-.55v-.12l.39-.87.14.06-.35.79h.37l0-.35h.15v.35h.17Z"/><path class="cls-3" d="M22.37,26a.31.31,0,0,1-.25.3.29.29,0,0,1,.29.31A.4.4,0,0,1,22,27a.48.48,0,0,1-.39-.18l.11-.1a.35.35,0,0,0,.27.13.23.23,0,0,0,.26-.25c0-.18-.1-.23-.25-.23h-.1l0-.14H22a.22.22,0,0,0,.23-.23.19.19,0,0,0-.21-.2.37.37,0,0,0-.27.12l-.09-.11a.53.53,0,0,1,.37-.15A.34.34,0,0,1,22.37,26Z"/><path class="cls-3" d="M23.5,26.63a.41.41,0,0,1-.45.37.39.39,0,0,1-.44-.37.35.35,0,0,1,.25-.34.31.31,0,0,1-.2-.3.4.4,0,0,1,.78,0,.31.31,0,0,1-.22.29A.37.37,0,0,1,23.5,26.63Zm-.19,0c0-.14-.07-.2-.28-.27l-.05,0a.29.29,0,0,0-.19.29c0,.14.1.22.26.22S23.31,26.76,23.31,26.63ZM22.83,26c0,.14.09.19.24.23l0,0a.28.28,0,0,0,.16-.25.2.2,0,0,0-.22-.2A.2.2,0,0,0,22.83,26Z"/><path class="cls-3" d="M24.56,26.33c0,.43-.15.67-.43.67s-.44-.24-.44-.67.15-.67.44-.67S24.56,25.9,24.56,26.33Zm-.68,0c0,.38.08.52.25.52s.24-.14.24-.52-.08-.53-.24-.53S23.88,26,23.88,26.33Z"/><path class="cls-3" d="M31.18,26.65H31V27h-.17v-.32h-.56v-.12l.39-.87.15.06-.35.79h.37v-.35H31v.35h.17Z"/><path class="cls-3" d="M32.19,26.53a.42.42,0,0,1-.41.47c-.32,0-.44-.26-.44-.63s.19-.71.49-.71a.48.48,0,0,1,.27.08l-.07.12a.36.36,0,0,0-.2-.06c-.19,0-.3.2-.31.49a.36.36,0,0,1,.67.24Zm-.18,0c0-.21-.09-.28-.21-.28a.34.34,0,0,0-.28.18c0,.28.09.41.26.41S32,26.73,32,26.54Z"/><path class="cls-3" d="M33,25.81,32.55,27l-.16,0,.46-1.12h-.57v-.14H33Z"/><path class="cls-3" d="M33.92,26c0,.25-.15.42-.55.81H34l0,.15h-.76v-.14c.45-.47.57-.6.57-.81a.2.2,0,0,0-.22-.21.3.3,0,0,0-.26.14l-.12-.09a.47.47,0,0,1,.39-.2A.35.35,0,0,1,33.92,26Z"/><path class="cls-3" d="M35,26.63a.41.41,0,0,1-.45.37.39.39,0,0,1-.44-.37.35.35,0,0,1,.25-.34.31.31,0,0,1-.2-.3.35.35,0,0,1,.39-.33A.36.36,0,0,1,35,26a.33.33,0,0,1-.22.29A.37.37,0,0,1,35,26.63Zm-.19,0c0-.14-.07-.2-.28-.27l-.05,0a.3.3,0,0,0-.19.29c0,.14.1.22.26.22S34.84,26.76,34.84,26.63ZM34.37,26c0,.14.09.19.24.23l0,0A.28.28,0,0,0,34.8,26c0-.12-.07-.2-.22-.2A.19.19,0,0,0,34.37,26Z"/><path class="cls-3" d="M36,26.16c0,.54-.22.72-.69.85l0-.13c.32-.09.53-.24.54-.53a.33.33,0,0,1-.29.15.37.37,0,0,1-.35-.41.4.4,0,0,1,.41-.43C35.9,25.66,36,25.86,36,26.16Zm-.18,0c0-.29-.08-.4-.24-.4s-.24.11-.24.29.09.27.22.27A.31.31,0,0,0,35.86,26.2Z"/><path class="cls-3" d="M36.76,27h-.18v-1.1l-.3.18-.08-.12.4-.25h.16Z"/><path class="cls-3" d="M6,18.12c0,.55-.28.86-.7.86s-.71-.3-.71-.86.29-.87.71-.87S6,17.56,6,18.12Zm-1.16,0c0,.48.18.67.46.67s.46-.19.46-.67-.18-.68-.46-.68S4.84,17.64,4.84,18.12Z"/><path class="cls-3" d="M7.55,19H7.24l-.68-1.42c0,.14,0,.35,0,.66V19H6.38V17.28h.3l.68,1.42s0-.3,0-.51v-.91h.22Z"/><path class="cls-3" d="M8.91,17.46H8.26V18h.56v.19H8.26v.57H9V19H8V17.28h.91Z"/><path class="cls-3" d="M10.9,18.17h-.7V19H10V17.28h.23V18h.7v-.7h.23V19H10.9Z"/><path class="cls-3" d="M12.76,18.42a.53.53,0,0,1-.59.56.53.53,0,0,1-.58-.56V17.28h.23V18.4c0,.26.11.39.35.39s.36-.13.36-.39V17.28h.23Z"/><path class="cls-3" d="M14.39,19h-.31l-.68-1.42c0,.14,0,.35,0,.66V19h-.21V17.28h.3l.68,1.42s0-.3,0-.51v-.91h.22Z"/><path class="cls-3" d="M16.06,18.11a.74.74,0,0,1-.79.84h-.4V17.28h.35C15.65,17.28,16.06,17.41,16.06,18.11Zm-1-.65v1.31h.19c.26,0,.52-.11.52-.66s-.27-.65-.54-.65Z"/><path class="cls-3" d="M16.92,18.24h-.26V19h-.23V17.28h.44c.42,0,.64.16.64.47a.44.44,0,0,1-.37.45l.46.75h-.28Zm0-.17c.24,0,.37-.09.37-.32s-.12-.29-.39-.29h-.21v.61Z"/><path class="cls-3" d="M18.77,17.46h-.64V18h.56v.19h-.56v.57h.69V19H17.9V17.28h.9Z"/><path class="cls-3" d="M20.38,18.11a.74.74,0,0,1-.79.84h-.4V17.28h.35C20,17.28,20.38,17.41,20.38,18.11Zm-1-.65v1.31h.19c.26,0,.52-.11.52-.66s-.27-.65-.54-.65Z"/><path class="cls-3" d="M22.58,18.11a.74.74,0,0,1-.79.84h-.4V17.28h.35C22.17,17.28,22.58,17.41,22.58,18.11Zm-1-.65v1.31h.19c.26,0,.52-.11.52-.66s-.27-.65-.54-.65Z"/><path class="cls-3" d="M24.26,18.12c0,.55-.29.86-.71.86s-.71-.3-.71-.86.29-.87.71-.87S24.26,17.56,24.26,18.12Zm-1.17,0c0,.48.19.67.46.67s.46-.19.46-.67-.17-.68-.46-.68S23.09,17.64,23.09,18.12Z"/><path class="cls-3" d="M24.86,18.75h.69l0,.2h-.89V17.28h.23Z"/><path class="cls-3" d="M26.06,18.75h.69l0,.2h-.89V17.28h.23Z"/><path class="cls-3" d="M27.8,18.53h-.63L27,19h-.23l.54-1.67h.29L28.17,19h-.24Zm-.05-.18-.26-.88-.26.88Z"/><path class="cls-3" d="M28.92,18.24h-.26V19h-.23V17.28h.44c.41,0,.63.16.63.47a.43.43,0,0,1-.36.45l.45.75h-.27Zm0-.17c.23,0,.37-.09.37-.32s-.12-.29-.4-.29h-.2v.61Z"/><path class="cls-3" d="M30.82,17.45l-.12.14a.56.56,0,0,0-.38-.15c-.17,0-.31.08-.31.24s.07.21.37.3.5.19.5.51-.22.49-.6.49a.81.81,0,0,1-.57-.21l.13-.15a.6.6,0,0,0,.44.17c.19,0,.36-.09.36-.3s-.08-.23-.37-.32-.49-.22-.49-.48a.47.47,0,0,1,.53-.44A.68.68,0,0,1,30.82,17.45Z"/><path class="cls-3" d="M5.82,14.56l-.14.14a.52.52,0,0,0-.36-.13c-.24,0-.48.18-.48.67s.16.68.45.68a.61.61,0,0,0,.32-.08v-.5h-.3l0-.19h.55V16a1.07,1.07,0,0,1-.57.15c-.41,0-.68-.29-.68-.87a.77.77,0,0,1,.72-.86A.71.71,0,0,1,5.82,14.56Z"/><path class="cls-3" d="M6.72,15.37H6.46v.71H6.23V14.41h.44c.41,0,.63.16.63.47a.43.43,0,0,1-.36.45l.45.75H7.12Zm0-.18c.23,0,.37-.08.37-.31s-.12-.29-.4-.29h-.2v.6Z"/><path class="cls-3" d="M9,15.24c0,.56-.28.87-.7.87s-.71-.3-.71-.86.29-.87.71-.87S9,14.68,9,15.24Zm-1.17,0c0,.48.19.67.47.67s.46-.19.46-.68-.18-.67-.46-.67S7.8,14.76,7.8,15.25Z"/><path class="cls-3" d="M10.39,14.54l-.12.15a.54.54,0,0,0-.33-.12c-.25,0-.46.17-.46.67s.2.67.46.67a.59.59,0,0,0,.36-.14l.11.15a.63.63,0,0,1-.48.19c-.4,0-.69-.31-.69-.87s.31-.86.69-.86A.67.67,0,0,1,10.39,14.54Z"/><path class="cls-3" d="M11.58,14.59h-.65v.55h.56v.18h-.56v.57h.7v.19H10.7V14.41h.91Z"/><path class="cls-3" d="M12.49,15.37h-.26v.71H12V14.41h.44c.41,0,.63.16.63.47a.43.43,0,0,1-.36.45l.45.75h-.27Zm0-.18c.23,0,.37-.08.37-.31s-.12-.29-.4-.29h-.2v.6Z"/><path class="cls-3" d="M13.93,15.44v.64H13.7v-.64l-.54-1h.25l.41.82.41-.82h.24Z"/><path class="cls-3" d="M16.29,14.57l-.12.14a.6.6,0,0,0-.39-.14c-.16,0-.3.07-.3.23s.07.21.37.31.5.18.5.5-.23.5-.6.5a.78.78,0,0,1-.57-.22l.13-.14a.65.65,0,0,0,.44.17c.19,0,.36-.1.36-.3s-.08-.24-.37-.32-.49-.23-.49-.49.22-.43.53-.43A.71.71,0,0,1,16.29,14.57Z"/><path class="cls-3" d="M17.62,14.6h-.46v1.48h-.23V14.6h-.48v-.19h1.2Z"/><path class="cls-3" d="M19.14,15.24c0,.56-.29.87-.71.87s-.7-.3-.7-.86.29-.87.7-.87S19.14,14.68,19.14,15.24Zm-1.17,0c0,.48.19.67.46.67s.47-.19.47-.68-.18-.67-.47-.67S18,14.76,18,15.25Z"/><path class="cls-3" d="M20,15.37h-.26v.71h-.23V14.41H20c.42,0,.64.16.64.47a.43.43,0,0,1-.36.45l.45.75H20.4Zm0-.18c.23,0,.36-.08.36-.31s-.12-.29-.39-.29h-.21v.6Z"/><path class="cls-3" d="M21.86,14.59h-.65v.55h.56v.18h-.56v.57h.69v.19H21V14.41h.9Z"/><path class="cls-3" d="M53.54,4.26c0,.24-.15.41-.55.81h.59l0,.15h-.76V5.08c.46-.48.57-.6.57-.81a.2.2,0,0,0-.21-.22.36.36,0,0,0-.27.14l-.12-.09a.48.48,0,0,1,.4-.19A.35.35,0,0,1,53.54,4.26Z"/><path class="cls-3" d="M54.65,4.9h-.17v.32H54.3V4.9h-.55V4.77l.39-.86.15.06-.35.79h.37V4.41h.16v.35h.17Z"/><path class="cls-3" d="M55.47,3.69,55,5.42l-.15,0,.45-1.72Z"/><path class="cls-3" d="M56.55,4.57c0,.43-.14.67-.43.67s-.44-.24-.44-.67.15-.66.44-.66S56.55,4.15,56.55,4.57Zm-.68,0c0,.38.08.53.25.53s.24-.15.24-.53-.08-.52-.24-.52S55.87,4.19,55.87,4.57Z"/><path class="cls-3" d="M57.49,4.26c0,.24-.16.41-.55.81h.58l0,.15h-.77V5.08c.46-.48.57-.6.57-.81a.2.2,0,0,0-.21-.22.33.33,0,0,0-.26.14l-.12-.09a.47.47,0,0,1,.39-.19A.35.35,0,0,1,57.49,4.26Z"/><path class="cls-3" d="M58.42,3.69,58,5.42l-.15,0,.45-1.72Z"/><path class="cls-3" d="M59.19,5.22H59V4.12l-.3.18-.08-.13.4-.24h.16Z"/><path class="cls-3" d="M60.38,4.57c0,.43-.15.67-.44.67s-.43-.24-.43-.67.14-.66.43-.66S60.38,4.15,60.38,4.57Zm-.68,0c0,.38.08.53.24.53s.25-.15.25-.53-.08-.52-.25-.52S59.7,4.19,59.7,4.57Z"/><path class="cls-3" d="M46.23,4.35c0,.69-.43.85-.79.85H45V3.52h.35C45.82,3.52,46.23,3.65,46.23,4.35Zm-1-.65V5h.19c.26,0,.52-.11.52-.67s-.27-.65-.54-.65Z"/><path class="cls-3" d="M47.3,4.78h-.63l-.13.42h-.23l.54-1.68h.29l.54,1.68h-.25Zm0-.19L47,3.71l-.27.88Z"/><path class="cls-3" d="M48.78,3.72h-.46V5.2h-.24V3.72h-.47v-.2h1.2Z"/><path class="cls-3" d="M50,3.7h-.65v.55h.56v.19h-.56V5H50V5.2h-.93V3.52H50Z"/><path class="cls-3" d="M40.63,15.39a.45.45,0,0,0-.11-.31,1.14,1.14,0,0,0-.39-.22,2.08,2.08,0,0,1-.78-.42,1,1,0,0,1,0-1.31,1.09,1.09,0,0,1,.69-.29v-.5h.37v.5a1,1,0,0,1,.66.33,1,1,0,0,1,.23.71h-.67a.62.62,0,0,0-.12-.4.38.38,0,0,0-.32-.13.43.43,0,0,0-.32.11.5.5,0,0,0-.1.31.4.4,0,0,0,.11.29,1.23,1.23,0,0,0,.4.23,2,2,0,0,1,.77.41.9.9,0,0,1,.26.67.86.86,0,0,1-.26.65,1.09,1.09,0,0,1-.69.29v.46H40v-.46a1.27,1.27,0,0,1-.74-.3,1,1,0,0,1-.28-.76h.67a.55.55,0,0,0,.15.43.58.58,0,0,0,.38.12.44.44,0,0,0,.34-.11A.38.38,0,0,0,40.63,15.39Z"/><path class="cls-3" d="M62.76,5.78H50.45a.05.05,0,1,1,0-.1H62.76a0,0,0,1,1,0,.1Z"/><path class="cls-3" d="M62.76,27.5H42.29a.05.05,0,0,1,0-.1H62.76a.05.05,0,0,1,0,.1Z"/><path class="cls-3" d="M34.19,16.63H3.5a.05.05,0,1,1,0-.1H34.19a.05.05,0,1,1,0,.1Z"/><path class="cls-3" d="M34.19,19.45H3.5a.05.05,0,1,1,0-.1H34.19a0,0,0,1,1,0,.1Z"/><path class="cls-3" d="M23,22.28H3.5a.05.05,0,0,1,0-.1H23a.05.05,0,0,1,0,.1Z"/><path class="cls-3" d="M13.47,27.5H3.5a.05.05,0,0,1,0-.1h10a0,0,0,0,1,0,.1Z"/><path class="cls-3" d="M26,27.5H16a.05.05,0,0,1,0-.1H26a.05.05,0,0,1,0,.1Z"/><path class="cls-3" d="M38.5,27.5h-10a.05.05,0,0,1,0-.1h10a.05.05,0,0,1,0,.1Z"/><path class="cls-3" d="M62.76,16.63H42.69a.05.05,0,0,1,0-.05v-4a.05.05,0,0,1,0,0H62.76a0,0,0,0,1,.05,0v4A0,0,0,0,1,62.76,16.63Zm-20-.1h20V12.59h-20Z"/><path class="cls-3" d="M44.53,25.74a2.65,2.65,0,0,1,.09-.46,6.27,6.27,0,0,1,.5-1.22c.25-.51.59-1.1,1-1.78A16.38,16.38,0,0,0,47.35,20c.08-.2.12-.52-.07-.52s-.16.4-.18.63a14.06,14.06,0,0,0,0,1.6c0,1.1.1,2.27.14,3.47a30.74,30.74,0,0,1,0,3.72,3.5,3.5,0,0,1-.2.95c-.05.14-.21.33-.41.28a.23.23,0,0,1-.21-.19.76.76,0,0,1,0-.26,7.2,7.2,0,0,1,.66-1.82,15.49,15.49,0,0,1,1-1.68,5.35,5.35,0,0,1,.58-.77c.12-.11.22-.26.43-.27s.14.17.13.24a2,2,0,0,1,0,.24,8.58,8.58,0,0,0-.18.91c0,.12.15-.08.24-.17a2.13,2.13,0,0,1,.34-.33.42.42,0,0,1,.48-.08c.15.15.09.33.09.48s-.16.65,0,.82a1.65,1.65,0,0,0,.82-.16c.28-.11.55-.22.81-.34.53-.24,1-.51,1.51-.77,1-.53,1.86-1.08,2.67-1.6,1.63-1,2.94-2,3.85-2.63l1.42-1.06s0,0,0,0a0,0,0,0,1,0,.05l-1.42,1.05c-.91.67-2.22,1.6-3.84,2.65-.82.52-1.71,1.07-2.68,1.6-.48.27-1,.53-1.51.78-.27.12-.54.24-.82.34a1.6,1.6,0,0,1-.9.16c-.17-.11-.14-.32-.13-.46l0-.45c0-.14,0-.32,0-.4s-.25,0-.36.08a3.34,3.34,0,0,0-.33.32l-.17.17a.32.32,0,0,1-.13.08c-.09,0-.11-.09-.11-.13a8.7,8.7,0,0,1,.18-.94c0-.13.07-.36,0-.36s-.24.13-.35.24a7,7,0,0,0-.57.75,15.34,15.34,0,0,0-.94,1.68,6.93,6.93,0,0,0-.65,1.78c0,.15,0,.32.12.33s.23-.08.29-.22a3.07,3.07,0,0,0,.18-.91,30.59,30.59,0,0,0,0-3.71c-.05-1.2-.1-2.37-.15-3.47a14.51,14.51,0,0,1,0-1.62,1.76,1.76,0,0,1,.06-.39c0-.11.06-.3.24-.35s.29.18.28.31a1.17,1.17,0,0,1-.07.38,16.63,16.63,0,0,1-1.25,2.33c-.4.68-.74,1.27-1,1.77a6.34,6.34,0,0,0-.48,1.19,1.82,1.82,0,0,0-.08.45.07.07,0,0,1-.08.07.07.07,0,0,1-.07-.07Z"/><path class="cls-4" d="M25.81,32.51s-1.34.11-1.34.41,1.32.38,1.32.38Z"/><path class="cls-5" d="M69.89,31.18a1.6,1.6,0,0,0-1.19-1.32c-2.07-.64-9.37-.8-11.58.06-1,.37,0,.73.7.74s.52-.53.52-.53,6.31-.61,8.7.78Z"/><path class="cls-4" d="M58.05,30c-.37.53-1.3.18-1.3.18-.14.27.56.49,1.07.5s.52-.53.52-.53,6.31-.61,8.7.78L68,31l.18-.11C69.17,29.53,58.49,29.61,58.05,30Z"/><path class="cls-5" d="M26.59,32.92a.56.56,0,1,0-.56.63A.6.6,0,0,0,26.59,32.92Z"/><path class="cls-5" d="M25.38,32.92a.7.7,0,0,1,.08-.33c-.29,0-.83.13-.83.24s.45.14.75.14Z"/><polygon class="cls-5" points="26.03 33.55 29.34 34.21 29.34 31.61 26.03 32.29 26.03 33.55"/><path class="cls-4" d="M26,33.55l3.31.66v-.87l-3.87-.42A.6.6,0,0,0,26,33.55Z"/><path class="cls-6" d="M34.51,32.92a1.66,1.66,0,1,0-1.64,1.85A1.74,1.74,0,0,0,34.51,32.92Z"/><path class="cls-7" d="M25.49,32.74l2.75-.17.37-.63-3,.52A.71.71,0,0,0,25.49,32.74Z"/><ellipse class="cls-6" cx="29.34" cy="32.92" rx="1.15" ry="1.29"/><path class="cls-6" d="M29.21,34.21a14.36,14.36,0,0,0,3.66.56V31.08a20.06,20.06,0,0,0-3.66.56Z"/><rect class="cls-6" x="32.87" y="31.08" width="20.44" height="3.69"/><path class="cls-8" d="M28.59,31.94a1.28,1.28,0,0,0-.36.63c.55,0,3.13-.23,4.52-.23H52.32V31.5H32.75A31.11,31.11,0,0,0,28.59,31.94Z"/><path class="cls-9" d="M32.58,33.72a31.74,31.74,0,0,1-4.36-.5,1.2,1.2,0,0,0,1,1h0a14.36,14.36,0,0,0,3.66.56H53.31V33.72Z"/><path class="cls-5" d="M53.85,30.69a2.25,2.25,0,0,0,0,4.47h2.53V30.69Z"/><path class="cls-7" d="M52,32.13h3.34V31.08H52.73A2.15,2.15,0,0,0,52,32.13Z"/><path class="cls-4" d="M51.87,33a2.11,2.11,0,0,0,2,2.21h2.53V33Z"/><path class="cls-7" d="M58.05,32.92a2,2,0,1,0-2,2.24A2.12,2.12,0,0,0,58.05,32.92Z"/><path class="cls-6" d="M58.37,32.92a2,2,0,1,0-2,2.24A2.12,2.12,0,0,0,58.37,32.92Z"/><path class="cls-6" d="M56.38,35.16s8.68,0,13.59-.32V31s-4.2-.42-13.59-.31Z"/><path class="cls-9" d="M54.53,33.72a2,2,0,0,0,1.85,1.44s8.68,0,13.59-.32V33.72Z"/><path class="cls-8" d="M54.5,32.34H70V31.5H54.88A2.38,2.38,0,0,0,54.5,32.34Z"/><path class="cls-5" d="M71.47,32.92a1.72,1.72,0,1,0-1.71,1.92A1.83,1.83,0,0,0,71.47,32.92Z"/><path class="cls-4" d="M70.7,32.92A.95.95,0,1,0,69.76,34,1,1,0,0,0,70.7,32.92Z"/><rect class="cls-4" x="69.76" y="31.87" width="1.36" height="2.11"/><path class="cls-5" d="M72.05,32.92A.94.94,0,1,0,71.11,34,1,1,0,0,0,72.05,32.92Z"/><path class="cls-7" d="M68.23,32.92A1.83,1.83,0,0,1,69.85,31l-.09,0a1.93,1.93,0,0,0,0,3.84l.09,0A1.83,1.83,0,0,1,68.23,32.92Z"/><path class="cls-7" d="M70.4,32.92a1,1,0,0,1,.83-1l-.12,0a1.06,1.06,0,0,0,0,2.11l.12,0A1,1,0,0,1,70.4,32.92Z"/><path class="cls-7" d="M57,30.08c0-.1.83-.33.85-.13S57,30.21,57,30.08Z"/><path class="cls-7" d="M65.38,29.7a7.3,7.3,0,0,1,3,.31c.54.31.4.49.21.52s-.23-.18-.79-.36C66.59,29.79,65.35,29.85,65.38,29.7Z"/></g></g></svg>