<svg xmlns="http://www.w3.org/2000/svg" viewBox="0 0 80.41 29"><defs><style>.cls-1{isolation:isolate;}.cls-2{fill:#272d38;}.cls-3{fill:#363b4c;}.cls-4{fill:#f9eff7;}.cls-5{fill:#c9a9c4;}.cls-6{fill:#efdfeb;}.cls-7{fill:#dbc1d6;}.cls-8{fill:#929db7;}.cls-9{fill:#707c9b;}.cls-10,.cls-17{fill:#fff;}.cls-11{fill:#da3b56;}.cls-12{fill:#f7617a;}.cls-13{fill:#f1445a;}.cls-14{fill:#70a0e3;}.cls-15{fill:#9cd2ff;}.cls-16{fill:#84bef8;}.cls-17{opacity:0.2;mix-blend-mode:screen;}.cls-18{fill:#e0cdbf;}.cls-19{fill:#f7f2e8;}.cls-20{fill:#fffbf5;}.cls-21{fill:#e8dcd1;}.cls-22{fill:#ba93b6;}</style></defs><title>Zasób 8</title><g class="cls-1"><g id="Warstwa_2" data-name="Warstwa 2"><g id="_2" data-name="2"><rect class="cls-2" x="41.1" y="27.39" width="38.15" height="1.62"/><rect class="cls-3" x="0.64" y="27.39" width="44.7" height="1.62"/><polygon class="cls-4" points="30.95 1.81 26.85 1.81 12.22 16.76 0 21.21 0 27.87 77.97 27.87 79.13 1.81 30.95 1.81"/><polygon class="cls-5" points="80.41 27.87 45.34 27.87 45.34 21.21 68.07 12.94 72.32 1.81 80.41 1.81 80.41 27.87"/><rect class="cls-6" y="21.21" width="45.34" height="6.66"/><polygon class="cls-6" points="68.07 12.94 36.61 12.94 40.88 1.81 72.32 1.81 68.07 12.94"/><polygon class="cls-3" points="65.71 10.46 40.86 10.46 43.23 4.29 68.07 4.29 65.71 10.46"/><path class="cls-7" d="M66.89,11.67H38.79a.09.09,0,0,1-.08,0,.11.11,0,0,1,0-.1L42,3.14a.11.11,0,0,1,.1-.07H70.14a.1.1,0,0,1,.08.05.09.09,0,0,1,0,.09L67,11.61A.09.09,0,0,1,66.89,11.67Zm-27.95-.2H66.82L70,3.27H42.13Z"/><polygon class="cls-5" points="40.92 1.81 36.67 12.94 26.16 16.76 40.92 1.81"/><polygon class="cls-6" points="26.16 16.76 12.22 16.76 26.85 1.81 40.92 1.81 26.16 16.76"/><polygon class="cls-7" points="28.83 2.35 37.47 2.35 30.72 9.02 22.08 9.02 28.83 2.35"/><polygon class="cls-8" points="30.72 9.02 22.07 9.02 24.14 6.97 32.8 6.97 30.72 9.02"/><polygon class="cls-9" points="24.14 6.97 24.14 9.02 22.07 9.02 24.14 6.97"/><polygon class="cls-7" points="36.98 16.96 33.78 16.96 34.16 15.69 39.56 14.75 39.95 15.88 36.98 16.96"/><polygon class="cls-10" points="36.96 15.69 34.16 15.69 36.76 14.75 39.56 14.75 36.96 15.69"/><polygon class="cls-6" points="36.96 15.69 36.98 16.96 33.78 16.96 34.16 15.69 36.96 15.69"/><polygon class="cls-7" points="32.78 18.49 29.58 18.49 29.96 17.22 35.36 16.28 35.74 17.41 32.78 18.49"/><polygon class="cls-10" points="32.76 17.22 29.96 17.22 32.56 16.28 35.36 16.28 32.76 17.22"/><polygon class="cls-6" points="32.76 17.22 32.78 18.49 29.58 18.49 29.96 17.22 32.76 17.22"/><polygon class="cls-11" points="28.57 20.02 25.37 20.02 25.76 18.75 31.15 17.81 31.54 18.94 28.57 20.02"/><polygon class="cls-12" points="28.56 18.75 25.76 18.75 28.35 17.81 31.15 17.81 28.56 18.75"/><polygon class="cls-13" points="28.56 18.75 28.57 20.02 25.37 20.02 25.76 18.75 28.56 18.75"/><polygon class="cls-7" points="41.27 16.96 38.07 16.96 38.45 15.69 43.85 14.75 44.23 15.88 41.27 16.96"/><polygon class="cls-10" points="41.25 15.69 38.45 15.69 41.05 14.75 43.85 14.75 41.25 15.69"/><polygon class="cls-6" points="41.25 15.69 41.27 16.96 38.07 16.96 38.45 15.69 41.25 15.69"/><polygon class="cls-7" points="37.06 18.49 33.86 18.49 34.25 17.22 39.64 16.28 40.03 17.41 37.06 18.49"/><polygon class="cls-10" points="37.05 17.22 34.25 17.22 36.84 16.28 39.64 16.28 37.05 17.22"/><polygon class="cls-6" points="37.05 17.22 37.06 18.49 33.86 18.49 34.25 17.22 37.05 17.22"/><polygon class="cls-7" points="32.86 20.02 29.66 20.02 30.05 18.75 35.44 17.81 35.83 18.94 32.86 20.02"/><polygon class="cls-10" points="32.85 18.75 30.05 18.75 32.64 17.81 35.44 17.81 32.85 18.75"/><polygon class="cls-6" points="32.85 18.75 32.86 20.02 29.66 20.02 30.05 18.75 32.85 18.75"/><polygon class="cls-7" points="45.55 16.96 42.35 16.96 42.74 15.69 48.13 14.75 48.52 15.88 45.55 16.96"/><polygon class="cls-10" points="45.54 15.69 42.74 15.69 45.33 14.75 48.13 14.75 45.54 15.69"/><polygon class="cls-6" points="45.54 15.69 45.55 16.96 42.35 16.96 42.74 15.69 45.54 15.69"/><polygon class="cls-7" points="41.35 18.49 38.15 18.49 38.54 17.22 43.93 16.28 44.32 17.41 41.35 18.49"/><polygon class="cls-10" points="41.34 17.22 38.54 17.22 41.13 16.28 43.93 16.28 41.34 17.22"/><polygon class="cls-6" points="41.34 17.22 41.35 18.49 38.15 18.49 38.54 17.22 41.34 17.22"/><polygon class="cls-7" points="37.15 20.02 33.95 20.02 34.33 18.75 39.73 17.81 40.11 18.94 37.15 20.02"/><polygon class="cls-10" points="37.13 18.75 34.33 18.75 36.93 17.81 39.73 17.81 37.13 18.75"/><polygon class="cls-6" points="37.13 18.75 37.15 20.02 33.95 20.02 34.33 18.75 37.13 18.75"/><polygon class="cls-7" points="59.68 15.43 56.48 15.43 56.87 14.17 62.26 13.22 62.65 14.36 59.68 15.43"/><polygon class="cls-10" points="59.67 14.17 56.87 14.17 59.46 13.22 62.26 13.22 59.67 14.17"/><polygon class="cls-6" points="59.67 14.17 59.68 15.43 56.48 15.43 56.87 14.17 59.67 14.17"/><polygon class="cls-7" points="55.48 16.96 52.28 16.96 52.66 15.69 58.06 14.75 58.44 15.88 55.48 16.96"/><polygon class="cls-10" points="55.46 15.69 52.66 15.69 55.26 14.75 58.06 14.75 55.46 15.69"/><polygon class="cls-6" points="55.46 15.69 55.48 16.96 52.28 16.96 52.66 15.69 55.46 15.69"/><polygon class="cls-7" points="51.27 18.49 48.08 18.49 48.46 17.22 53.85 16.28 54.24 17.41 51.27 18.49"/><polygon class="cls-10" points="51.26 17.22 48.46 17.22 51.05 16.28 53.85 16.28 51.26 17.22"/><polygon class="cls-6" points="51.26 17.22 51.27 18.49 48.08 18.49 48.46 17.22 51.26 17.22"/><polygon class="cls-14" points="47.08 20 43.88 20 44.27 18.73 49.66 17.79 50.05 18.92 47.08 20"/><polygon class="cls-15" points="47.07 18.73 44.27 18.73 46.87 17.79 49.66 17.79 47.07 18.73"/><polygon class="cls-16" points="47.07 18.73 47.08 20 43.88 20 44.27 18.73 47.07 18.73"/><polygon class="cls-17" points="41.32 10.11 43.42 4.63 67.44 4.63 41.32 10.11"/><path class="cls-18" d="M32.27,3.19h4.11C37.81,2.7,38.85,0,37,0,35.63,0,32.27,3.19,32.27,3.19Z"/><rect class="cls-19" x="32.92" y="3" width="3.51" height="0.2"/><path class="cls-19" d="M30.77,0c-4.26.39-7.62,9-7.62,9h6.54S33.06.4,37.31,0Z"/><path class="cls-20" d="M29.78,9.08,29.6,9c.14-.37,3.57-9,7.54-9a.82.82,0,0,1,.93.78,2.69,2.69,0,0,1-1.66,2.43l0-.2A2.48,2.48,0,0,0,37.87.79c0-.39-.28-.59-.73-.59C33.31.2,29.82,9,29.78,9.08Z"/><polygon class="cls-21" points="28.19 7.79 24.25 7.79 23.97 8.35 27.91 8.35 28.19 7.79"/><polygon class="cls-21" points="29.58 7.79 28.81 7.79 28.45 8.54 29.23 8.54 29.58 7.79"/><polygon class="cls-21" points="31.41 2.41 27.48 2.41 27.1 2.94 31.04 2.94 31.41 2.41"/><polygon class="cls-21" points="32.81 2.41 32.03 2.41 31.51 3.16 32.29 3.16 32.81 2.41"/><polygon class="cls-21" points="29.45 5.41 25.51 5.41 25.17 5.97 29.11 5.97 29.45 5.41"/><polygon class="cls-21" points="27.25 6.36 25.01 6.36 24.67 6.92 26.91 6.92 27.25 6.36"/><polygon class="cls-21" points="28.74 3.83 26.5 3.83 26.13 4.4 28.37 4.4 28.74 3.83"/><polygon class="cls-21" points="30.84 5.41 30.06 5.41 29.65 6.17 30.43 6.17 30.84 5.41"/><polygon class="cls-21" points="33.79 0.42 29.85 0.42 29.21 0.85 33.15 0.85 33.79 0.42"/><polygon class="cls-21" points="31.05 1.2 28.81 1.2 28.3 1.61 30.53 1.61 31.05 1.2"/><polygon class="cls-21" points="35.18 0.42 34.41 0.42 33.53 1.04 34.31 1.04 35.18 0.42"/><polygon class="cls-21" points="31.73 3.83 30.95 3.83 30.48 4.59 31.26 4.59 31.73 3.83"/><polygon class="cls-22" points="72.42 6.54 78.97 6.54 78.97 3.22 73.72 3.22 72.42 6.54"/><rect class="cls-2" x="72.25" y="24.65" width="4.37" height="2.35"/><rect class="cls-22" x="76.12" y="24.65" width="0.69" height="2.35"/><rect class="cls-7" y="23.83" width="45.34" height="0.84"/><rect class="cls-22" x="45.34" y="23.83" width="35.07" height="0.84"/><polygon class="cls-9" points="19.27 19.59 8.09 19.59 10.69 18.64 21.86 18.64 19.27 19.59"/></g></g></g></svg>