<svg xmlns="http://www.w3.org/2000/svg" viewBox="0 0 84.19 42.37"><defs><style>.cls-1{isolation:isolate;}.cls-2{fill:#272d38;}.cls-3{fill:#363b4c;}.cls-4{fill:#707c9b;}.cls-5{fill:#929db7;}.cls-6{fill:#c3cddd;}.cls-17,.cls-7{fill:#fff;}.cls-8{fill:#1fc3ea;}.cls-9{fill:#2c313f;}.cls-10{fill:#0e99a8;}.cls-11{fill:#191f33;}.cls-12{fill:#30d6e2;}.cls-13{fill:#282e47;}.cls-14{fill:#99fdff;}.cls-15{fill:#ff971a;}.cls-16{fill:#ffe83e;}.cls-17{opacity:0.2;mix-blend-mode:screen;}.cls-18{fill:#e52851;}.cls-19{fill:#76e2ff;}.cls-20{fill:#efdfeb;}.cls-21{fill:#ffbc27;}.cls-22{fill:#d3b8cd;}</style></defs><title>Zasób 9</title><g class="cls-1"><g id="Warstwa_2" data-name="Warstwa 2"><g id="_2" data-name="2"><path class="cls-2" d="M31.83,0H81.29a2.89,2.89,0,0,1,2.89,2.89V37a3,3,0,0,1-3,3H31.93a3,3,0,0,1-3-3V2.89A2.89,2.89,0,0,1,31.83,0Z"/><path class="cls-3" d="M31.08,0H80.54a2.89,2.89,0,0,1,2.89,2.89V37a3,3,0,0,1-3,3H31.17a3,3,0,0,1-3-3V2.89A2.89,2.89,0,0,1,31.08,0Z"/><path class="cls-4" d="M48.15,42.37H77.64A3.36,3.36,0,0,0,81,39H44.8A3.36,3.36,0,0,0,48.15,42.37Z"/><path class="cls-5" d="M4.29,42.37H50.77c2.37,0,4.29-1.51,4.29-3.36H0C0,40.86,1.92,42.37,4.29,42.37Z"/><path class="cls-4" d="M17.05,40.52H38A1.75,1.75,0,0,0,39.94,39H15.12A1.75,1.75,0,0,0,17.05,40.52Z"/><path class="cls-3" d="M78.58,40.46a.7.7,0,1,1-1.4,0,.7.7,0,1,1,1.4,0Z"/><rect class="cls-3" x="57.54" y="39.64" width="3.93" height="1.12"/><rect class="cls-2" x="57.75" y="39.82" width="3.51" height="0.76"/><rect class="cls-4" x="57.9" y="40.09" width="3.21" height="0.33"/><rect class="cls-3" x="62.3" y="39.64" width="3.93" height="1.12"/><rect class="cls-2" x="62.5" y="39.82" width="3.51" height="0.76"/><rect class="cls-4" x="62.65" y="40.09" width="3.21" height="0.33"/><path class="cls-6" d="M14.74,39.43a1.8,1.8,0,0,0,2,1.52h21.6a1.8,1.8,0,0,0,2-1.52H55a2.86,2.86,0,0,0,0-.42H39.94A1.75,1.75,0,0,1,38,40.52h-21A1.75,1.75,0,0,1,15.12,39H0a2.86,2.86,0,0,0,0,.42Z"/><path class="cls-6" d="M54.41,39c0,1.85-1.92,3.36-4.3,3.36h.66c2.37,0,4.29-1.51,4.29-3.36Z"/><circle class="cls-2" cx="77.88" cy="40.46" r="0.45"/><path class="cls-2" d="M56.58,1.65a.77.77,0,0,1-1.54,0,.77.77,0,0,1,1.54,0Z"/><rect class="cls-5" x="69.95" y="38.4" width="7.14" height="0.61"/><rect class="cls-5" x="34.53" y="38.4" width="7.14" height="0.61"/><rect class="cls-7" x="31.36" y="3.36" width="47.64" height="33.22"/><rect class="cls-5" x="79" y="3.36" width="1.63" height="33.22"/><rect class="cls-8" x="30.98" y="34.11" width="49.65" height="2.47"/><rect class="cls-8" x="30.98" y="3.36" width="49.65" height="2.47"/><rect class="cls-9" x="30.98" y="3.36" width="0.37" height="33.22"/><rect class="cls-4" x="79" y="9.33" width="1.63" height="5.74"/><rect class="cls-10" x="42.61" y="13.71" width="15.33" height="9.7" rx="1.15"/><rect class="cls-11" x="42.61" y="15.94" width="15.33" height="1.48"/><rect class="cls-12" x="42.24" y="13.71" width="15.33" height="9.7" rx="1.15"/><rect class="cls-13" x="42.24" y="15.94" width="15.33" height="1.48"/><rect class="cls-14" x="43.09" y="18.81" width="5.02" height="0.55"/><rect class="cls-14" x="43.09" y="20.12" width="3.98" height="0.55"/><rect class="cls-14" x="47.48" y="20.12" width="3.17" height="0.55"/><rect class="cls-14" x="45.35" y="21.42" width="5.3" height="0.55"/><rect class="cls-14" x="43.09" y="21.42" width="1.87" height="0.55"/><circle class="cls-15" cx="53.35" cy="20.39" r="1.24"/><circle class="cls-16" cx="55.4" cy="20.39" r="1.24"/><path class="cls-17" d="M57.39,14.23a1.12,1.12,0,0,0-.93-.52H43.36a1.15,1.15,0,0,0-1.12,1.18v7.33a1.21,1.21,0,0,0,.25.73Z"/><rect class="cls-18" x="78.39" y="3.71" width="1.87" height="1.77"/><rect class="cls-19" x="76.1" y="3.71" width="1.87" height="1.77"/><rect class="cls-19" x="73.82" y="3.71" width="1.87" height="1.77"/><rect class="cls-19" x="31.73" y="34.46" width="1.87" height="1.77"/><rect class="cls-19" x="31.8" y="3.71" width="5.83" height="1.78"/><rect class="cls-19" x="38.03" y="3.71" width="5.83" height="1.78"/><rect class="cls-19" x="44.26" y="3.71" width="5.83" height="1.78"/><rect class="cls-20" x="46" y="25.85" width="26.57" height="1.59"/><rect class="cls-20" x="42.24" y="29.02" width="34.09" height="0.79"/><rect class="cls-20" x="60" y="13.72" width="5.08" height="0.79"/><rect class="cls-20" x="60" y="15.26" width="5.08" height="0.79"/><rect class="cls-20" x="60" y="16.8" width="5.08" height="0.79"/><rect class="cls-20" x="60" y="19.48" width="5.08" height="0.79"/><rect class="cls-20" x="60" y="21.02" width="5.08" height="0.79"/><rect class="cls-20" x="60" y="22.56" width="5.08" height="0.79"/><rect class="cls-20" x="42.24" y="30.8" width="34.09" height="0.79"/><rect class="cls-20" x="31.36" y="11.57" width="8.68" height="22.54"/><rect class="cls-7" x="32.01" y="12.13" width="7.37" height="2.89"/><rect class="cls-7" x="32.01" y="15.68" width="7.37" height="2.89"/><rect class="cls-7" x="32.01" y="19.22" width="7.37" height="2.89"/><rect class="cls-7" x="32.01" y="22.77" width="7.37" height="2.89"/><rect class="cls-7" x="32.01" y="26.32" width="7.37" height="2.89"/><rect class="cls-7" x="32.01" y="29.86" width="7.37" height="2.89"/><rect class="cls-21" x="31.36" y="5.83" width="47.64" height="5.74"/><path class="cls-7" d="M33,9.7v-2h.42v2Z"/><path class="cls-7" d="M35.68,9.7h-.53l-.84-1.49h0c0,.27,0,.45,0,.57V9.7H34v-2h.52l.85,1.47h0c0-.26,0-.44,0-.54V7.74h.37Z"/><path class="cls-7" d="M36.92,9.7h-.41V8.08H36V7.74h1.47v.34h-.53Z"/><path class="cls-7" d="M38.88,9.7H37.75v-2h1.13v.34h-.71v.43h.66v.34h-.66v.51h.71Z"/><path class="cls-7" d="M39.7,9V9.7h-.42v-2h.57a1,1,0,0,1,.59.14.59.59,0,0,1,.1.75.66.66,0,0,1-.27.22l.57.85h-.46L39.92,9Zm0-.34h.13a.46.46,0,0,0,.29-.07.23.23,0,0,0,.09-.2.22.22,0,0,0-.09-.2.56.56,0,0,0-.3-.06H39.7Z"/><path class="cls-7" d="M42.82,9.7h-.53l-.84-1.49h0c0,.27,0,.45,0,.57V9.7h-.37v-2h.52l.85,1.47h0c0-.26,0-.44,0-.54V7.74h.37Z"/><path class="cls-7" d="M44.43,9.7H43.31v-2h1.12v.34h-.71v.43h.67v.34h-.67v.51h.71Z"/><path class="cls-7" d="M45.59,9.7h-.41V8.08h-.53V7.74h1.47v.34h-.53Z"/><path class="cls-7" d="M47.13,7.74h.61a1.25,1.25,0,0,1,.6.11.41.41,0,0,1,.19.38.43.43,0,0,1-.08.29.33.33,0,0,1-.22.14h0a.43.43,0,0,1,.27.16.56.56,0,0,1,.08.3.5.5,0,0,1-.19.42.84.84,0,0,1-.53.15h-.73Zm.42.77h.24a.39.39,0,0,0,.24,0,.19.19,0,0,0,.08-.17A.17.17,0,0,0,48,8.13a.48.48,0,0,0-.26-.05h-.22Zm0,.34v.51h.27a.36.36,0,0,0,.25-.07.22.22,0,0,0,.08-.2c0-.16-.11-.24-.35-.24Z"/><path class="cls-7" d="M50.17,9.7,50,9.23h-.71l-.14.47h-.44l.68-2h.51l.69,2Zm-.24-.81c-.13-.43-.21-.67-.23-.72s0-.1,0-.14c0,.12-.11.4-.25.86Z"/><path class="cls-7" d="M52.59,9.7h-.53l-.85-1.49h0c0,.27,0,.45,0,.57V9.7h-.37v-2h.52l.85,1.47h0c0-.26,0-.44,0-.54V7.74h.37Z"/><path class="cls-7" d="M54.65,9.7h-.47l-.51-.83L53.49,9v.7h-.41v-2h.41v.9l.17-.24.52-.66h.46L54,8.61Z"/><path class="cls-7" d="M54.89,9.7v-2h.42v2Z"/><path class="cls-7" d="M57.53,9.7H57l-.85-1.49h0c0,.27,0,.45,0,.57V9.7H55.8v-2h.52l.85,1.47h0c0-.26,0-.44,0-.54V7.74h.37Z"/><path class="cls-7" d="M58.76,8.6h.78v1l-.36.09-.34,0a.86.86,0,0,1-.67-.26,1.09,1.09,0,0,1-.23-.75A1,1,0,0,1,58.21,8,1,1,0,0,1,59,7.71a1.4,1.4,0,0,1,.58.12l-.13.33A1,1,0,0,0,59,8.05a.53.53,0,0,0-.43.19.69.69,0,0,0-.16.49.74.74,0,0,0,.13.48.43.43,0,0,0,.38.17l.26,0V9h-.37Z"/><rect class="cls-20" x="67.24" y="22.66" width="9.09" height="0.74"/><path class="cls-12" d="M71.61,14.67a3.63,3.63,0,1,0,3.63,3.63A3.63,3.63,0,0,0,71.61,14.67Zm0,5.45a1.82,1.82,0,1,1,1.82-1.82A1.82,1.82,0,0,1,71.61,20.12Z"/><path class="cls-16" d="M71.61,14.32v2.17a1.8,1.8,0,0,1,1.8,1.81A1.84,1.84,0,0,1,73,19.4l1.72,1.32a3.94,3.94,0,0,0,.83-2.42A4,4,0,0,0,71.61,14.32Z"/><path class="cls-15" d="M75.59,18.3c0-.14,0-.27,0-.4l-2.16.22v.18A1.84,1.84,0,0,1,73,19.4l1.19.91.53.41A3.94,3.94,0,0,0,75.59,18.3Z"/><rect class="cls-20" x="75.02" y="13.72" width="1.31" height="1.31"/><rect class="cls-20" x="67.24" y="13.72" width="1.31" height="1.31"/><rect class="cls-22" x="32.8" y="12.87" width="4.76" height="0.64"/><rect class="cls-22" x="32.8" y="26.91" width="4.76" height="0.64"/><rect class="cls-22" x="32.8" y="16.37" width="5.51" height="0.64"/><rect class="cls-22" x="32.8" y="19.84" width="3.69" height="0.64"/><rect class="cls-22" x="32.8" y="30.54" width="3.69" height="0.64"/><rect class="cls-22" x="32.8" y="23.41" width="5.96" height="0.64"/></g></g></g></svg>