<svg xmlns="http://www.w3.org/2000/svg" viewBox="0 0 105.23 75.39"><defs><style>.cls-1{opacity:0.1;}.cls-2{fill:#d32075;}.cls-3{fill:#92afff;}.cls-4{fill:#ff9e03;}.cls-5{fill:#77ba10;}.cls-6{fill:#def4ff;}.cls-7{fill:#ffda00;}.cls-8{fill:#e62b7c;}.cls-9{fill:#ff7fb7;}.cls-10{fill:#668906;}.cls-11{fill:#6d9b0a;}.cls-12{fill:#ffebc4;}.cls-12,.cls-26{opacity:0.6;}.cls-13{opacity:0.83;}.cls-14{fill:#ffeece;}.cls-14,.cls-15{opacity:0.67;}.cls-16{fill:#fff2d8;opacity:0.73;}.cls-17{opacity:0.5;}.cls-18{fill:#fff5e2;opacity:0.8;}.cls-19{opacity:0.33;}.cls-20{fill:#fff8eb;opacity:0.87;}.cls-21{opacity:0.17;}.cls-22{fill:#fffcf5;opacity:0.93;}.cls-23{opacity:0;}.cls-24,.cls-26{fill:#fff;}.cls-25{opacity:0.3;}.cls-27{fill:#171716;}.cls-28{fill:#383153;}.cls-29{fill:#52517b;}.cls-30{fill:#efb185;}.cls-31{fill:#db9669;}.cls-32{fill:#ea49bd;}.cls-33{fill:#ff61cb;}.cls-34{isolation:isolate;}.cls-35{fill:#b4b9bc;}.cls-36{fill:#7d8183;}.cls-37{fill:#e3e5e5;}.cls-38{fill:#bdbbbb;}.cls-39{fill:#d2d0d0;}.cls-40{fill:#d5dfe6;}.cls-41{fill:#e9f0f4;}.cls-42{fill:#131c24;}.cls-43{fill:#e8a476;}.cls-44{fill:#f1b287;}.cls-45{fill:#fdcde7;}.cls-46{fill:#ffdf75;}.cls-47{fill:#f5e981;}</style></defs><title>Zasób 16</title><g id="Warstwa_2" data-name="Warstwa 2"><g id="Layer_1" data-name="Layer 1"><g class="cls-1"><path d="M82.84,36.71c15.56,9,15.64,21.6.19,30.58s-40.58,9-56.13,0-15.64-21.59-.18-30.57S67.29,27.73,82.84,36.71Z"/></g><polygon class="cls-2" points="8.54 28.24 9.54 28.83 16.14 25.05 15.19 24.42 8.54 28.24"/><polygon class="cls-2" points="22.78 35.27 21.78 35.86 8.54 28.27 9.54 27.68 22.78 35.27"/><polygon class="cls-3" points="12.4 68.94 13.4 69.53 26.64 61.94 25.64 61.35 12.4 68.94"/><polygon class="cls-4" points="103.83 38.44 102.82 39.02 96.23 35.24 97.17 34.62 103.83 38.44"/><polygon class="cls-4" points="89.58 45.47 90.59 46.06 103.83 38.46 102.82 37.88 89.58 45.47"/><polygon class="cls-5" points="90.55 72.02 91.55 72.61 98.15 68.83 97.2 68.21 90.55 72.02"/><polygon class="cls-5" points="92.5 72.2 91.5 72.79 78.26 65.2 79.26 64.61 92.5 72.2"/><polygon class="cls-3" points="13.82 68.42 12.81 69.01 6.22 65.23 7.16 64.61 13.82 68.42"/><path class="cls-3" d="M91.09,45c0,.19,0,.37,0,.55s0,.33-.06.49,0,.36-.08.54-.07.32-.11.49l-.12.52-.15.5c0,.17-.11.34-.17.51l-.18.49-.23.54c-.07.16-.15.31-.22.47s-.18.36-.28.54-.16.3-.25.45-.26.43-.4.64l-.26.4-.5.69-.25.33c-.29.37-.6.73-.93,1.1l-.29.3c-.26.26-.52.53-.8.79l-.43.4-.49.43-.54.45-.54.42-.57.43-.6.41-.6.42-.64.4c-.29.18-.57.36-.87.53-.79.46-1.62.89-2.47,1.3l-.66.31c-.77.35-1.56.69-2.36,1l-.29.11c-.86.33-1.74.63-2.64.91-.61.19-1.23.36-1.86.53s-1,.27-1.46.39c-.65.16-1.32.29-2,.43-.51.1-1,.22-1.52.3l-.59.1c-.84.14-1.7.26-2.55.36l-.75.09c-1,.1-2,.19-3,.25l-.55,0c-.67,0-1.34.05-2,.06s-1.34,0-2,0-1.11,0-1.67,0-1.23-.05-1.84-.1-1.15-.08-1.72-.14-1.19-.12-1.79-.2l-1.67-.23c-.64-.1-1.27-.22-1.91-.34s-1.36-.25-2-.41l-.48-.1c-.93-.23-1.85-.47-2.75-.74l-.77-.24c-.76-.24-1.51-.5-2.24-.77l-.61-.22c-.68-.26-1.34-.55-2-.85-.3-.13-.61-.25-.9-.39-.93-.44-1.83-.9-2.69-1.4C21.57,55.08,18,49.61,18,44.15c0,1.66,0,3.32,0,5,0,5.46,3.58,10.93,10.8,15.09.86.5,1.75,1,2.67,1.4l1,.43c.54.23,1.06.48,1.62.7l.29.11.64.23c.73.27,1.47.53,2.23.76l.76.24.52.16c.74.21,1.49.4,2.24.58l.47.11,1.1.25c.3.06.61.1.91.15.64.13,1.29.24,1.94.34l.78.14c.28,0,.58.06.86.09q.91.12,1.83.21c.29,0,.57.07.87.09s.54,0,.81.05l1.86.1.93,0h3.74l1,0,.57,0c.83,0,1.66-.11,2.49-.19l.47-.06c.25,0,.5-.06.75-.09.84-.1,1.68-.22,2.51-.35l.65-.1.28,0c.39-.07.76-.17,1.14-.24.69-.14,1.39-.28,2.07-.45.47-.11.92-.24,1.39-.37.65-.18,1.3-.35,1.94-.55l.39-.11c.75-.25,1.48-.51,2.21-.78l.35-.15c.79-.31,1.55-.64,2.3-1l.69-.32c.84-.41,1.67-.84,2.46-1.3l.45-.26.38-.24.69-.44.56-.38.64-.45.53-.4.58-.45.5-.42c.18-.15.36-.3.53-.46l.22-.19.19-.19.81-.81.28-.29c.33-.36.65-.73.94-1.1l0,0c.07-.09.13-.18.2-.26.18-.24.35-.47.51-.7s.18-.27.26-.41.27-.42.39-.63l.12-.18.14-.28.28-.54.21-.46.24-.56.1-.24a1.87,1.87,0,0,0,.07-.22c.07-.18.12-.36.18-.54s.1-.32.14-.48.09-.35.13-.53,0-.2.07-.29l0-.2L91,51l.06-.48c0-.19,0-.37,0-.55s0-.22,0-.33,0-.21,0-.32c0-1.66,0-3.32,0-5C91.12,44.58,91.1,44.8,91.09,45Z"/><path class="cls-6" d="M80.33,29.28c14.32,8.28,14.4,21.69.16,30s-37.38,8.27-51.71,0-14.41-21.69-.18-30S66,21,80.33,29.28Z"/><polygon class="cls-4" points="54.77 38.51 54.75 44.32 27.7 30.02 27.72 24.2 54.77 38.51"/><path class="cls-4" d="M91.5,39.05c0,.18,0,.36,0,.54s0,.34-.07.5-.05.37-.08.55-.07.32-.11.49a4.56,4.56,0,0,1-.13.53c0,.17-.09.34-.14.5s-.11.35-.18.52-.12.33-.18.5-.15.37-.23.55-.15.31-.22.47l-.3.57-.24.43-.41.67-.26.39c-.16.24-.34.48-.52.71l-.24.32c-.3.38-.63.76-1,1.13l-.26.27c-.27.29-.55.57-.85.85l-.41.38c-.17.16-.36.31-.54.47l-.51.42-.59.47-.55.41c-.2.15-.41.29-.63.44s-.39.27-.6.41l-.66.42c-.29.17-.57.36-.87.53-.62.36-1.24.69-1.89,1-.23.12-.48.23-.72.34-.41.2-.82.4-1.25.59-.28.13-.57.24-.86.36l-1.2.49-.92.33L72.67,57l-.6.18c-.88.28-1.78.53-2.69.77l-.5.12c-1,.25-2,.47-3.07.66l-1,.17-1.22.19-1.13.16-1.2.14c-.42,0-.85.09-1.28.12l-.84.07c-.47,0-.94.07-1.42.09l-.78,0-.72,0c-1,0-2,0-3,0h-.53c-1,0-2.08-.08-3.12-.16l-.77-.07c-1-.09-1.95-.19-2.91-.32l-.36,0,0,5.82.16,0L46,65c.94.13,1.89.23,2.84.31l.44.05.34,0c1,.08,2.07.14,3.11.17h.53c1,0,2,0,3,0,.13,0,.27,0,.41,0H57l.79,0,1.41-.09.85-.07.74-.06.54-.07,1.2-.14L63.62,65l1.22-.2.66-.1.29-.06c1-.2,2.07-.41,3.08-.66l.49-.13c.91-.23,1.82-.49,2.71-.77l.36-.1.22-.08c.42-.13.82-.28,1.23-.42l.9-.33c.42-.16.82-.33,1.23-.5l.83-.34c.44-.19.87-.4,1.29-.61l.68-.32c.65-.33,1.28-.67,1.89-1,.15-.08.31-.17.46-.27l.42-.26.66-.42.6-.41.63-.44.54-.41c.2-.15.41-.31.6-.47l.5-.41.55-.48.22-.2a1.45,1.45,0,0,0,.18-.17c.3-.28.58-.57.86-.86.08-.09.17-.17.26-.26.34-.38.66-.75,1-1.14l0-.05c.07-.08.12-.17.19-.25.18-.24.36-.48.52-.72s.18-.27.27-.41.27-.43.4-.65l.12-.19.13-.26.29-.55.22-.48c.08-.18.16-.37.23-.55s.08-.17.11-.26l.08-.23c.06-.17.12-.35.17-.52l.15-.5c.05-.18.09-.35.13-.52s0-.21.07-.32l0-.2c0-.18.06-.35.09-.53l.06-.5c0-.18,0-.36,0-.55s0-.22,0-.33,0-.22,0-.33c0-1.93,0-3.87,0-5.81Q91.53,38.72,91.5,39.05Z"/><path class="cls-7" d="M80.82,23.37c14.33,8.27,14.28,21.76-.1,30.12-9.53,5.54-23,7.43-35.12,5.68l9.17-20.66L27.72,24.2c.36-.23.73-.45,1.11-.67C43.21,15.17,66.49,15.1,80.82,23.37Z"/><polygon class="cls-2" points="54.87 33.01 54.85 38.82 27.82 24.51 27.83 18.69 54.87 33.01"/><polygon class="cls-8" points="68.04 52.79 68.02 58.6 54.85 38.82 54.87 33.01 68.04 52.79"/><path class="cls-2" d="M91.41,33.76c0,.18,0,.36,0,.55a3.87,3.87,0,0,1-.06.46c0,.18,0,.37-.09.56a4.1,4.1,0,0,1-.1.48c0,.18-.08.36-.12.53l-.15.49c0,.18-.11.35-.17.53l-.18.47c-.08.19-.15.38-.24.56s-.13.3-.21.45-.18.37-.28.56l-.25.44c-.13.22-.27.44-.41.66l-.24.37c-.18.26-.36.51-.56.77l-.19.25c-.3.38-.62.75-1,1.12l-.25.26c-.27.29-.55.57-.85.84l-.38.36-.55.49-.47.39-.62.48-.5.37-.67.48-.53.35c-.23.16-.48.31-.73.46s-.52.33-.8.49c-.56.33-1.13.63-1.71.93l-.55.27c-.43.21-.86.42-1.31.61l-.56.25c-.56.25-1.14.48-1.72.7l-.15.06c-.64.24-1.29.46-1.94.68l-.58.17c-.5.16-1,.31-1.54.46l-.61.17q-1,.27-2.1.51l0,5.81c.72-.15,1.42-.33,2.11-.51l.59-.16,1.59-.47.35-.1.17-.06c.67-.22,1.32-.44,2-.69l.13,0,1.75-.71.55-.25L78.55,55l.52-.26c.59-.3,1.16-.61,1.72-.93l.45-.27.41-.25.65-.41.61-.42L83.5,52l.57-.43.54-.43.53-.44.5-.43.23-.21.2-.19c.28-.26.54-.53.8-.8l.29-.3c.33-.36.64-.73.94-1.1l0,0,.2-.28.5-.69c.1-.13.18-.27.27-.4s.27-.43.39-.65a1.63,1.63,0,0,0,.11-.17l.14-.27c.1-.18.19-.36.28-.54s.15-.32.22-.48l.23-.53c0-.09.07-.17.11-.26a2,2,0,0,0,.07-.23l.18-.52c0-.16.09-.33.14-.49s.09-.36.13-.53,0-.19.07-.29l0-.2c0-.17.06-.35.08-.53s0-.34.07-.51l0-.51c0-.12,0-.23,0-.35v-.32l0-5.82C91.44,33.32,91.42,33.54,91.41,33.76Z"/><path class="cls-9" d="M80.65,18c14.33,8.28,14.4,21.69.16,30A44.56,44.56,0,0,1,68,52.79L54.87,33l-27-14.32L28.92,18C43.15,9.75,66.32,9.75,80.65,18Z"/><polygon class="cls-10" points="54.87 27.22 54.86 33.03 27.82 18.72 27.84 12.9 54.87 27.22"/><polygon class="cls-11" points="87.75 36.56 87.73 42.37 54.86 33.03 54.87 27.22 87.75 36.56"/><path class="cls-10" d="M91.39,28.19c0,.13,0,.26,0,.4,0,.31-.08.62-.13.93a1.08,1.08,0,0,0,0,.19c-.08.37-.17.74-.28,1.11,0,.1-.06.2-.1.3q-.12.4-.27.81l-.18.41c-.1.23-.2.46-.31.69s-.15.3-.23.44-.22.43-.35.64-.22.36-.33.53l-.38.57c-.12.18-.26.36-.39.54s-.41.54-.63.81l0,5.81c.14-.16.28-.33.41-.5l.23-.31c.13-.18.26-.35.38-.53l.39-.57c.11-.18.22-.36.32-.54s.11-.15.15-.23.14-.27.21-.4.15-.3.23-.44.21-.46.3-.7l.18-.4.06-.14c.08-.23.15-.46.22-.68s.07-.2.1-.29c.1-.36.19-.73.27-1.09v0c0-.08,0-.16,0-.25,0-.29.1-.58.13-.88l0-.38c0-.19,0-.38,0-.56v-.33l0-5.81C91.44,27.61,91.41,27.9,91.39,28.19Z"/><path class="cls-5" d="M80.65,12.24c11.4,6.58,13.77,16.41,7.1,24.32L54.87,27.22l-27-14.32c.35-.22.71-.44,1.09-.66C43.16,4,66.32,4,80.65,12.24Z"/><path class="cls-12" d="M71.71,37c3.5,1.82,3.49,4.73,0,6.53a15.23,15.23,0,0,1-12.57,0c-3.47-1.8-3.49-4.73,0-6.53A15.33,15.33,0,0,1,71.71,37Z"/><g class="cls-13"><path class="cls-14" d="M72.49,31.23c4,2.07,4,5.39,0,7.44a17.34,17.34,0,0,1-14.31,0c-4-2.05-4-5.39,0-7.44A17.44,17.44,0,0,1,72.49,31.23Z"/></g><g class="cls-15"><path class="cls-16" d="M73.27,25.48c4.48,2.32,4.46,6.05,0,8.34a19.41,19.41,0,0,1-16,0c-4.44-2.29-4.47-6-.06-8.34S68.83,23.18,73.27,25.48Z"/></g><g class="cls-17"><path class="cls-18" d="M74.06,19.73c5,2.57,4.94,6.7,0,9.25s-12.83,2.57-17.8,0-5-6.7-.06-9.25S69.13,17.18,74.06,19.73Z"/></g><g class="cls-19"><path class="cls-20" d="M74.84,14c5.45,2.82,5.43,7.36.06,10.16s-14.09,2.82-19.54,0S49.92,16.78,55.29,14,69.44,11.18,74.84,14Z"/></g><g class="cls-21"><path class="cls-22" d="M75.63,8.23c5.93,3.07,5.91,8,.06,11.06s-15.35,3.08-21.28,0-5.93-8-.08-11.06S69.74,5.18,75.63,8.23Z"/></g><g class="cls-23"><path class="cls-24" d="M76.41,2.47c6.43,3.33,6.4,8.68.07,12s-16.61,3.33-23,0-6.41-8.68-.08-12S70-.82,76.41,2.47Z"/></g><g class="cls-25"><path class="cls-26" d="M71.71,37c3.5,1.82,3.49,4.73,0,6.54a15.3,15.3,0,0,1-12.57,0c-3.47-1.81-3.49-4.74,0-6.54A15.33,15.33,0,0,1,71.71,37Z"/></g><g class="cls-1"><path d="M59.13,54.87c3.28,1.89,3.3,5,0,6.85a13,13,0,0,1-11.83,0c-3.27-1.89-3.29-5,0-6.85A13,13,0,0,1,59.13,54.87Z"/></g><path class="cls-27" d="M50.56,53.88c-.21-.06-.27-.24-.6-.39-.08.39-.51.89-.59,1.26l-.1.11C48,56.34,44.63,57.57,45,58.68c.25.79,2.24,1.41,3.32.87a2.53,2.53,0,0,0,.71-.63,1.82,1.82,0,0,1,1.35-.8,1.63,1.63,0,0,0,.87-.44c1.12-1.33.18-2,.62-3.45C51.41,54.11,51,54,50.56,53.88Z"/><path class="cls-27" d="M57.7,56c-.18-.93-.41-1.89-.66-2.85l2.84-.5c-.08.65-.17,1.28-.23,1.88.11,1.46,1.25,1.7.77,3.31a1.46,1.46,0,0,1-.59.7A1.69,1.69,0,0,0,59,59.73a2.27,2.27,0,0,1-.38.8c-.73.88-2.69,1.09-3.2.5-.73-.83,1.69-3.14,2.27-4.92C57.67,56.07,57.68,56,57.7,56Z"/><path class="cls-28" d="M55.84,44.82a9.56,9.56,0,0,1,.24-5.42c.8-2.25,5.11-4.82,5.16-4.83s4.23,1.21,4,1.92c-.11.4-5.25,7.24-5.33,7.54A1.91,1.91,0,0,0,60,45.36c.75,2.07,1.16,8.39.62,10.32-.39,1.42-2.61,1.49-3.11.82-.08-.12-1.5-10.23-1.66-11.68Z"/><path class="cls-29" d="M65,43.23c-3.89.83-7.4,1.21-7.4,1.21,0,4.66-5.06,10.23-5.63,11a5.76,5.76,0,0,1-2.41-1.21c.61-2.25,3.85-11.34,5.27-13,.9-1.07,10.45-4.14,10.31-4.61a10.23,10.23,0,0,1,2.34-1.17C69.35,34.84,71.83,41.75,65,43.23Z"/><path class="cls-30" d="M53.24,31.77s-1.62-.07-2.22.6a7.79,7.79,0,0,0-1.61,2c-.2.65-.09.9.43.81a8.89,8.89,0,0,0,2.64-1.5,1.9,1.9,0,0,1,1.12-.59C53.86,33,54.07,32.19,53.24,31.77Z"/><path class="cls-31" d="M53.8,33.27c-.25.08-.59-.19-1.32.42a8.89,8.89,0,0,1-2.64,1.5h-.2c.43-.41,1.15-1.1,1.79-1.69a4.67,4.67,0,0,1,2.39-1C53.86,32.8,53.93,33.23,53.8,33.27Z"/><path class="cls-31" d="M62.63,20.85c-.75-.25-2.05-.06-2.36,2s-1.09,8-1.09,8-5.31.68-5.94.84c0,0,.79.36.32,1.44,0,0,6.06,1.6,7.41.32S65.7,21.87,62.63,20.85Z"/><path class="cls-30" d="M53.24,31.77c.63-.16,5.94-.84,5.94-.84s.79-5.91,1.09-8,1.61-2.3,2.36-2a1.31,1.31,0,0,1,.52.31l0,.09s-1.89.7-2.34,4.57.87,6.29-2.29,6.37c-1.88.05-3.72.31-4.91.35A2.75,2.75,0,0,0,53.24,31.77Z"/><path class="cls-32" d="M63.47,27.87s-2.82.35-4-.78c0,0-.32-6.79,2.71-6.63C62.19,20.46,65.46,20.86,63.47,27.87Z"/><path class="cls-33" d="M70.63,24.43s-1.75-3-8.68-4c0,0-1.11-.46-1,3.12a3.94,3.94,0,0,1-.89,1.87c-.36.47-1.32,2.27.79,4.42,0,0,.82,3.2-.16,5.26-.87,1.85,3.69,3.65,7.57,3.28.48,0,1.54-.36,1.12-2s-1.4-4.58-.62-7.65S71.15,26,70.63,24.43Z"/><path class="cls-32" d="M70.63,24.43c.52,1.56-1.09,1.19-1.87,4.26s.2,6,.62,7.65-.64,2-1.12,2a11.54,11.54,0,0,1-2,0c1.36-3-.38-8.38-.47-11.37a4.82,4.82,0,0,1,2.78-4.4A6.28,6.28,0,0,1,70.63,24.43Z"/><g class="cls-34"><polygon class="cls-35" points="64.09 39.45 64.11 39.77 59.48 43.07 59.46 42.75 64.09 39.45"/><polygon class="cls-36" points="59.46 42.75 59.48 43.07 50.83 39.09 50.8 38.78 59.46 42.75"/><polygon class="cls-37" points="64.09 39.45 59.46 42.75 50.8 38.78 55.44 35.48 64.09 39.45"/></g><g class="cls-34"><polygon class="cls-38" points="58.07 37.27 58.41 36.95 59.85 42.73 59.51 43.05 58.07 37.27"/><polygon class="cls-39" points="49.02 33.11 49.37 32.79 58.41 36.95 58.07 37.27 49.02 33.11"/><polygon class="cls-40" points="58.07 37.27 59.51 43.05 50.47 38.9 49.02 33.11 58.07 37.27"/><polygon class="cls-41" points="58.07 37.27 58.07 37.27 50.47 38.9 49.02 33.11 58.07 37.27"/></g><path class="cls-30" d="M62.78,35.2s-1.49.34-1.88,1.09a7,7,0,0,0-1,2.18c0,.62.11.81.56.6a8.58,8.58,0,0,0,2.07-2,1.91,1.91,0,0,1,.89-.8C63.61,36.15,63.62,35.36,62.78,35.2Z"/><path class="cls-31" d="M63.61,36.38c-.21.14-.58,0-1.11.7a8.58,8.58,0,0,1-2.07,2l-.17.06c.29-.47.8-1.26,1.25-1.94a4.66,4.66,0,0,1,2-1.48C63.56,36,63.72,36.31,63.61,36.38Z"/><path class="cls-31" d="M68.92,23.21c-.73,0-1.87.47-1.69,2.41S68,33,68,33s-4.68,1.93-5.21,2.23c0,0,.78.12.6,1.19,0,0,5.85-.11,6.79-1.59S71.94,23.34,68.92,23.21Z"/><path class="cls-30" d="M62.78,35.2C63.31,34.9,68,33,68,33s-.58-5.41-.76-7.35,1-2.44,1.69-2.41a1.29,1.29,0,0,1,.55.15l0,.07S68,24.51,68.39,28s2.16,5.32-.69,6.19c-1.7.52-3.31,1.22-4.39,1.55A2.36,2.36,0,0,0,62.78,35.2Z"/><path class="cls-33" d="M71.22,29.19s-2.5,1-3.79.31c0,0-1.77-5.89,1-6.52C68.44,23,71.5,22.5,71.22,29.19Z"/><path class="cls-42" d="M61.92,20.65c-.18.44-.43.83-.19,1.31a1.54,1.54,0,0,0,.74.66,6.74,6.74,0,0,0,.74.3,7.35,7.35,0,0,0,1.34.06h0c0-.42,3.47-1.46,3.48-1.88,0-1-3.48-1.33-3.89-2.21A9,9,0,0,1,63,16.56a4.3,4.3,0,0,1,.07-1.13c0-.23-.08-.34-.33-.32-.57,0-.9.9-1,1.36a2.71,2.71,0,0,0-.07,1.13c.13.83.64,1.64.42,2.45A2.74,2.74,0,0,1,61.92,20.65Z"/><path class="cls-43" d="M62.76,19.39a3,3,0,0,1,.61,2.72c-.14.39-.49,2,1.91,1.33,0,0,2.51-1.28,1.75-2-.5-.51-1-1.23-.26-3.83Z"/><path class="cls-31" d="M67,21.41a.41.41,0,0,1,.13.25,4.55,4.55,0,0,1-3.89-1.15l3-2.65h0l.38.27C66.11,20.28,66.56,20.94,67,21.41Z"/><path class="cls-44" d="M63.15,14.8S62.5,15,62.49,17c0,.21-.35.49-.44,1s-.19,2.68,1.05,2.9A3.81,3.81,0,0,0,67,18.3C67.69,16.14,65.84,13.37,63.15,14.8Z"/><path class="cls-42" d="M64.74,16.6c-.69-.22-1.63-.42-2-1.14a1.66,1.66,0,0,1-.15-.46c.35-.78.69-.78,1.92-1.31.83-.36,1.53-.67,2,.35.09.18.35.3.2.32-1,1.57,1.28,3.33-.3,3.84C66.42,17.41,65.41,16.81,64.74,16.6Z"/><path class="cls-42" d="M68.42,22.41a1.62,1.62,0,0,1-.13-1.12,5.65,5.65,0,0,1,.35-1.1A3.66,3.66,0,0,0,69,18.76c.14-1.24.64-3.08-1.51-4.65a1.26,1.26,0,0,0-2.07,1.24,5.87,5.87,0,0,1,.32,2l0,.05a2.85,2.85,0,0,0-.32,2c.18.68.92,1.14.82,1.9a2,2,0,0,1-.37.82l0,.07a1.14,1.14,0,0,0,.25,1.26c.58.58,1.12,1.24,1.76.77a15.22,15.22,0,0,0,1.34-1.09C69.19,22.83,68.5,22.67,68.42,22.41Z"/><path class="cls-44" d="M65.32,19.08s.49-1,1.05-.59c.17.14.35.39,0,.88a1.68,1.68,0,0,1-1.51.77Z"/><path class="cls-45" d="M11.36,12.68,8.81,14.17a.53.53,0,0,1-.52,0L5.71,12.68a.52.52,0,0,1,0-.9L8.27,10.3a.49.49,0,0,1,.52,0l2.57,1.48A.52.52,0,0,1,11.36,12.68Z"/><g class="cls-13"><path class="cls-45" d="M11.36,14.51,8.81,16a.49.49,0,0,1-.52,0L5.71,14.51a.52.52,0,0,1,0-.9l2.56-1.49a.53.53,0,0,1,.52,0l2.57,1.49A.52.52,0,0,1,11.36,14.51Z"/></g><g class="cls-15"><path class="cls-45" d="M11.36,16.34,8.81,17.82a.53.53,0,0,1-.52,0L5.71,16.33a.52.52,0,0,1,0-.9L8.27,14a.53.53,0,0,1,.52,0l2.57,1.49A.52.52,0,0,1,11.36,16.34Z"/></g><g class="cls-17"><path class="cls-45" d="M11.36,18.16,8.81,19.64a.51.51,0,0,1-.52,0L5.71,18.16a.52.52,0,0,1,0-.9l2.56-1.48a.49.49,0,0,1,.52,0l2.57,1.48A.52.52,0,0,1,11.36,18.16Z"/></g><g class="cls-19"><path class="cls-45" d="M11.36,20,8.81,21.47a.53.53,0,0,1-.52,0L5.71,20a.52.52,0,0,1,0-.9L8.27,17.6a.53.53,0,0,1,.52,0l2.57,1.49A.52.52,0,0,1,11.36,20Z"/></g><g class="cls-21"><path class="cls-45" d="M11.36,21.81,8.81,23.3a.53.53,0,0,1-.52,0L5.71,21.81a.52.52,0,0,1,0-.9l2.56-1.48a.53.53,0,0,1,.52,0l2.57,1.48A.52.52,0,0,1,11.36,21.81Z"/></g><g class="cls-23"><path class="cls-45" d="M11.36,23.64,8.81,25.12a.49.49,0,0,1-.52,0L5.71,23.64a.52.52,0,0,1,0-.9l2.56-1.48a.51.51,0,0,1,.52,0l2.57,1.49A.52.52,0,0,1,11.36,23.64Z"/></g><path class="cls-45" d="M11.36,12.68,8.81,14.17a.53.53,0,0,1-.52,0L5.71,12.68a.52.52,0,0,1,0-.9L8.27,10.3a.49.49,0,0,1,.52,0l2.57,1.48A.52.52,0,0,1,11.36,12.68Z"/><g class="cls-1"><path d="M11.36,23.49,8.81,25a.53.53,0,0,1-.52,0L5.71,23.48a.52.52,0,0,1,0-.9L8.26,21.1a.55.55,0,0,1,.53,0l2.57,1.49A.52.52,0,0,1,11.36,23.49Z"/></g><path class="cls-6" d="M5.91,58.31,3.36,59.79a.53.53,0,0,1-.53,0L.26,58.31a.52.52,0,0,1,0-.9l2.55-1.49a.53.53,0,0,1,.52,0l2.58,1.49A.52.52,0,0,1,5.91,58.31Z"/><g class="cls-13"><path class="cls-6" d="M5.91,60.13,3.36,61.62a.55.55,0,0,1-.53,0L.26,60.13a.52.52,0,0,1,0-.9l2.55-1.48a.53.53,0,0,1,.52,0l2.58,1.48A.52.52,0,0,1,5.91,60.13Z"/></g><g class="cls-15"><path class="cls-6" d="M5.91,62,3.36,63.44a.51.51,0,0,1-.53,0L.26,62a.52.52,0,0,1,0-.9l2.55-1.49a.53.53,0,0,1,.52,0l2.58,1.49A.52.52,0,0,1,5.91,62Z"/></g><g class="cls-17"><path class="cls-6" d="M5.91,63.79,3.36,65.27a.55.55,0,0,1-.53,0L.26,63.78a.52.52,0,0,1,0-.9L2.81,61.4a.53.53,0,0,1,.52,0l2.58,1.49A.52.52,0,0,1,5.91,63.79Z"/></g><g class="cls-19"><path class="cls-6" d="M5.91,65.61,3.36,67.1a.55.55,0,0,1-.53,0L.26,65.61a.52.52,0,0,1,0-.9l2.55-1.48a.49.49,0,0,1,.52,0l2.58,1.48A.52.52,0,0,1,5.91,65.61Z"/></g><g class="cls-21"><path class="cls-6" d="M5.91,67.44,3.36,68.92a.55.55,0,0,1-.53,0L.26,67.44a.52.52,0,0,1,0-.9l2.55-1.49a.53.53,0,0,1,.52,0l2.58,1.49A.52.52,0,0,1,5.91,67.44Z"/></g><g class="cls-23"><path class="cls-6" d="M5.91,69.26,3.36,70.75a.55.55,0,0,1-.53,0L.26,69.26a.52.52,0,0,1,0-.9l2.55-1.48a.53.53,0,0,1,.52,0l2.58,1.48A.52.52,0,0,1,5.91,69.26Z"/></g><path class="cls-6" d="M5.91,58.33,3.36,59.81a.55.55,0,0,1-.53,0L.26,58.32a.51.51,0,0,1,0-.89l2.55-1.49a.53.53,0,0,1,.52,0l2.58,1.49A.52.52,0,0,1,5.91,58.33Z"/><g class="cls-23"><path class="cls-6" d="M5.91,69.11,3.36,70.59a.51.51,0,0,1-.53,0L.26,69.11a.52.52,0,0,1,0-.9l2.55-1.48a.51.51,0,0,1,.52,0l2.58,1.49A.52.52,0,0,1,5.91,69.11Z"/></g><g class="cls-1"><path d="M105,73.84l-2.55,1.48a.53.53,0,0,1-.52,0l-2.58-1.49a.52.52,0,0,1,0-.9l2.55-1.48a.55.55,0,0,1,.53,0L105,72.94A.52.52,0,0,1,105,73.84Z"/></g><path class="cls-5" d="M105,60.68l-2.55,1.49a.53.53,0,0,1-.52,0l-2.58-1.49a.52.52,0,0,1,0-.9l2.55-1.48a.55.55,0,0,1,.53,0L105,59.79A.51.51,0,0,1,105,60.68Z"/><g class="cls-13"><path class="cls-5" d="M105,62.88l-2.55,1.48a.53.53,0,0,1-.52,0l-2.58-1.49a.52.52,0,0,1,0-.9l2.55-1.48a.55.55,0,0,1,.53,0L105,62A.52.52,0,0,1,105,62.88Z"/></g><g class="cls-15"><path class="cls-5" d="M105,65.07l-2.55,1.48a.49.49,0,0,1-.52,0l-2.58-1.48a.52.52,0,0,1,0-.9l2.55-1.49a.55.55,0,0,1,.53,0L105,64.17A.52.52,0,0,1,105,65.07Z"/></g><g class="cls-17"><path class="cls-5" d="M105,67.26l-2.55,1.48a.49.49,0,0,1-.52,0l-2.58-1.48a.52.52,0,0,1,0-.9l2.55-1.49a.55.55,0,0,1,.53,0L105,66.36A.52.52,0,0,1,105,67.26Z"/></g><g class="cls-19"><path class="cls-5" d="M105,69.45l-2.55,1.49a.53.53,0,0,1-.52,0l-2.58-1.49a.52.52,0,0,1,0-.9l2.55-1.48a.51.51,0,0,1,.53,0L105,68.55A.52.52,0,0,1,105,69.45Z"/></g><g class="cls-21"><path class="cls-5" d="M105,71.64l-2.55,1.49a.53.53,0,0,1-.52,0l-2.58-1.49a.52.52,0,0,1,0-.9l2.55-1.48a.53.53,0,0,1,.53,0L105,70.74A.52.52,0,0,1,105,71.64Z"/></g><g class="cls-23"><path class="cls-5" d="M105,73.84l-2.55,1.48a.53.53,0,0,1-.52,0l-2.58-1.49a.52.52,0,0,1,0-.9l2.55-1.48a.55.55,0,0,1,.53,0L105,72.94A.52.52,0,0,1,105,73.84Z"/></g><path class="cls-5" d="M105,60.68l-2.55,1.49a.53.53,0,0,1-.52,0l-2.58-1.49a.52.52,0,0,1,0-.9l2.55-1.48a.55.55,0,0,1,.53,0L105,59.79A.51.51,0,0,1,105,60.68Z"/><path class="cls-46" d="M104.05,17.08l-2.55,1.49a.53.53,0,0,1-.52,0l-2.57-1.49a.52.52,0,0,1,0-.9L101,14.7a.53.53,0,0,1,.52,0l2.57,1.48A.52.52,0,0,1,104.05,17.08Z"/><g class="cls-13"><path class="cls-46" d="M104.05,19.89l-2.55,1.49a.53.53,0,0,1-.52,0l-2.57-1.49a.52.52,0,0,1,0-.9L101,17.51a.53.53,0,0,1,.52,0L104.05,19A.52.52,0,0,1,104.05,19.89Z"/></g><g class="cls-15"><path class="cls-46" d="M104.05,22.7l-2.55,1.49a.53.53,0,0,1-.52,0L98.41,22.7a.52.52,0,0,1,0-.9L101,20.32a.51.51,0,0,1,.52,0l2.57,1.48A.52.52,0,0,1,104.05,22.7Z"/></g><g class="cls-17"><path class="cls-46" d="M104.05,25.51,101.5,27a.53.53,0,0,1-.52,0l-2.57-1.49a.52.52,0,0,1,0-.9L101,23.13a.49.49,0,0,1,.52,0l2.57,1.48A.52.52,0,0,1,104.05,25.51Z"/></g><g class="cls-19"><path class="cls-46" d="M104.05,28.32l-2.55,1.49a.53.53,0,0,1-.52,0l-2.57-1.49a.52.52,0,0,1,0-.9L101,25.94a.49.49,0,0,1,.52,0l2.57,1.48A.52.52,0,0,1,104.05,28.32Z"/></g><g class="cls-21"><path class="cls-46" d="M104.05,31.13l-2.55,1.49a.53.53,0,0,1-.52,0l-2.57-1.49a.52.52,0,0,1,0-.9L101,28.75a.49.49,0,0,1,.52,0l2.57,1.48A.52.52,0,0,1,104.05,31.13Z"/></g><g class="cls-23"><path class="cls-46" d="M104.05,33.94l-2.55,1.49a.53.53,0,0,1-.52,0l-2.57-1.49a.52.52,0,0,1,0-.9L101,31.56a.49.49,0,0,1,.52,0L104.05,33A.52.52,0,0,1,104.05,33.94Z"/></g><g class="cls-1"><path d="M104.05,33.93l-2.55,1.49a.53.53,0,0,1-.52,0l-2.57-1.49a.52.52,0,0,1,0-.9L101,31.55a.49.49,0,0,1,.52,0L104.05,33A.52.52,0,0,1,104.05,33.93Z"/></g><path class="cls-47" d="M104.05,17.08l-2.55,1.49a.53.53,0,0,1-.52,0l-2.57-1.49a.52.52,0,0,1,0-.9L101,14.7a.53.53,0,0,1,.52,0l2.57,1.48A.52.52,0,0,1,104.05,17.08Z"/><g class="cls-1"><path d="M5.91,69.11,3.36,70.59a.51.51,0,0,1-.53,0L.26,69.11a.52.52,0,0,1,0-.9l2.55-1.48a.51.51,0,0,1,.52,0l2.58,1.49A.52.52,0,0,1,5.91,69.11Z"/></g></g></g></svg>