<svg xmlns="http://www.w3.org/2000/svg" viewBox="0 0 56.39 50.86"><defs><style>.cls-1{fill:#f68308;}.cls-2{fill:#ffba2f;}.cls-3{fill:#ffc636;}.cls-4{fill:#f68307;}.cls-5{fill:#dd6f00;}.cls-6{fill:#1f7400;}.cls-7{fill:#49a805;}.cls-8{fill:#3d8e00;}.cls-9{fill:#73c822;}.cls-10{fill:#2c8100;}.cls-11{fill:#56b512;}.cls-12{fill:#4a9b05;}.cls-13{fill:#80d52f;}.cls-14{fill:#398e01;}.cls-15{fill:#63c21f;}.cls-16{fill:#57a812;}.cls-17{fill:#8de23c;}.cls-18{fill:#ffca3a;}.cls-19{fill:#ffd945;}.cls-20{fill:#fff;}.cls-21{fill:#1894d1;}.cls-22{fill:#33b0e2;}</style></defs><title>Zasób 10</title><g id="Warstwa_2" data-name="Warstwa 2"><g id="_2" data-name="2"><path class="cls-1" d="M28.55,0h-.71L.71,19.56h0l1.51,28a97.25,97.25,0,0,0,26.33,3.18,130.94,130.94,0,0,0,26.34-3.39l1.5-27.78h0ZM55.32,19.56,35.87,32.15H21.23L1.78,19.56Z"/><polygon class="cls-2" points="0 19.56 27.84 0 55.68 19.56 0 19.56"/><polygon class="cls-3" points="0 19.56 27.84 0 55.68 19.56 0 19.56"/><polygon class="cls-4" points="54.6 19.56 27.84 0.68 1.07 19.56 0 19.56 20.52 32.9 35.16 32.9 55.68 19.56 54.6 19.56"/><polygon class="cls-5" points="20.52 32.9 35.16 32.9 55.23 19.86 55.23 19.56 54.6 19.56 1.07 19.56 1.07 20.26 20.52 32.9"/><rect class="cls-6" x="16.67" y="4.39" width="23.98" height="45.3" transform="translate(0.39 54.48) rotate(-87.49)"/><rect class="cls-7" x="15.97" y="4.38" width="23.98" height="45.3" transform="matrix(0.04, -1, 1, 0.04, -0.26, 53.77)"/><path class="cls-8" d="M28.25,20.37a6.66,6.66,0,1,1-6.95,6.36A6.66,6.66,0,0,1,28.25,20.37Z"/><path class="cls-9" d="M14.66,23.24a3.2,3.2,0,1,1-3.34,3.06A3.2,3.2,0,0,1,14.66,23.24Z"/><path class="cls-9" d="M41.54,24.42a3.2,3.2,0,1,1-3.33,3A3.2,3.2,0,0,1,41.54,24.42Z"/><path class="cls-8" d="M4.81,38l45.25,2,1-24-45.25-2ZM49.72,17.26l-.93,21.4L6.2,36.79l.93-21.4Z"/><path class="cls-8" d="M5.41,32l-.34,0-.26,6,6.57.29A6.25,6.25,0,0,0,5.41,32Z"/><path class="cls-8" d="M12.43,14.34l-6.57-.29-.27,6c.12,0,.22,0,.33,0A6.25,6.25,0,0,0,12.43,14.34Z"/><path class="cls-8" d="M50,33.92a6.26,6.26,0,0,0-6.5,5.79l6.57.28.26-6Z"/><path class="cls-8" d="M50.51,22.08l.34,0,.26-6-6.57-.29A6.26,6.26,0,0,0,50.51,22.08Z"/><path class="cls-9" d="M26.88,25a1,1,0,0,0,.23.76,2.54,2.54,0,0,0,.91.57,5.18,5.18,0,0,1,1.84,1.08A2.07,2.07,0,0,1,30.4,29a2.1,2.1,0,0,1-.68,1.53,2.67,2.67,0,0,1-1.69.63L28,32.38l-.9,0,.05-1.22a2.48,2.48,0,0,1-1.54-.86,2.37,2.37,0,0,1-.49-1.71l0,0,1.6.07a1.42,1.42,0,0,0,.23.95,1,1,0,0,0,.77.37,1,1,0,0,0,.77-.25,1,1,0,0,0,.27-.73,1,1,0,0,0-.22-.7,3.08,3.08,0,0,0-.93-.6,4.75,4.75,0,0,1-1.82-1.07,2.09,2.09,0,0,1-.55-1.63,2,2,0,0,1,.68-1.54,2.73,2.73,0,0,1,1.69-.62l.05-1.11.9,0,0,1.11a3,3,0,0,1,1.74.79,2.27,2.27,0,0,1,.59,1.85l0,0-1.6-.07A1.14,1.14,0,0,0,28,24a1.13,1.13,0,0,0-.84.23A1,1,0,0,0,26.88,25Z"/><rect class="cls-10" x="16.67" y="4.05" width="23.98" height="45.3" transform="translate(2.74 56.07) rotate(-91.55)"/><rect class="cls-11" x="15.97" y="4.09" width="23.98" height="45.3" transform="translate(1.99 55.41) rotate(-91.55)"/><path class="cls-12" d="M27.78,20.08a6.66,6.66,0,1,1-6.48,6.84A6.66,6.66,0,0,1,27.78,20.08Z"/><path class="cls-13" d="M14.42,23.91a3.2,3.2,0,1,1-3.11,3.28A3.18,3.18,0,0,1,14.42,23.91Z"/><circle class="cls-13" cx="41.41" cy="26.37" r="3.2" transform="translate(-6.26 38.12) rotate(-46.34)"/><path class="cls-12" d="M5.64,39.34l45.28-1.23-.65-24L5,15.37ZM49,15.46l.58,21.41L6.94,38,6.36,16.61Z"/><path class="cls-12" d="M5.81,33.27c-.11,0-.22,0-.33,0l.16,6,6.58-.18A6.26,6.26,0,0,0,5.81,33.27Z"/><path class="cls-12" d="M11.57,15.19,5,15.37l.17,6c.11,0,.22,0,.33,0A6.26,6.26,0,0,0,11.57,15.19Z"/><path class="cls-12" d="M50.43,32.06a6.25,6.25,0,0,0-6.08,6.23l6.57-.18-.16-6Z"/><path class="cls-12" d="M50.11,20.21c.11,0,.21,0,.33,0l-.17-6-6.57.18A6.26,6.26,0,0,0,50.11,20.21Z"/><path class="cls-13" d="M26.73,24.78a1.08,1.08,0,0,0,.29.74A2.49,2.49,0,0,0,28,26a5.37,5.37,0,0,1,1.91.95,2,2,0,0,1,.65,1.58A2.11,2.11,0,0,1,30,30.12a2.71,2.71,0,0,1-1.65.75l0,1.21-.89,0,0-1.22a2.48,2.48,0,0,1-1.61-.74,2.44,2.44,0,0,1-.6-1.68v0l1.6,0a1.4,1.4,0,0,0,.3.93,1,1,0,0,0,.79.31,1,1,0,0,0,.76-.29,1.17,1.17,0,0,0,.22-.75,1,1,0,0,0-.27-.69,3.31,3.31,0,0,0-1-.53,4.89,4.89,0,0,1-1.89-.94,2.12,2.12,0,0,1-.66-1.59,2,2,0,0,1,.57-1.58,2.7,2.7,0,0,1,1.64-.74l0-1.11.9,0,0,1.1a3,3,0,0,1,1.79.67A2.29,2.29,0,0,1,30.72,25l0,0-1.59,0a1.15,1.15,0,0,0-1.3-1.29A1.12,1.12,0,0,0,27,24,1,1,0,0,0,26.73,24.78Z"/><rect class="cls-14" x="15.76" y="5.48" width="25.84" height="48.81" transform="translate(-1.2 58.56) rotate(-90)"/><rect class="cls-15" x="15.01" y="5.5" width="25.84" height="48.81" transform="translate(-1.97 57.83) rotate(-90)"/><circle class="cls-16" cx="27.93" cy="29.9" r="7.18"/><path class="cls-17" d="M13.43,26.46A3.45,3.45,0,1,1,10,29.9,3.45,3.45,0,0,1,13.43,26.46Z"/><circle class="cls-17" cx="42.43" cy="29.9" r="3.45"/><path class="cls-16" d="M3.53,42.82H52.34V17H3.53ZM50.9,18.36V41.44H5V18.36Z"/><path class="cls-16" d="M3.88,36.29c-.12,0-.23,0-.35,0v6.49h7.08A6.74,6.74,0,0,0,3.88,36.29Z"/><path class="cls-16" d="M10.61,17H3.53v6.5c.12,0,.23,0,.35,0A6.73,6.73,0,0,0,10.61,17Z"/><path class="cls-16" d="M52,36.29a6.75,6.75,0,0,0-6.73,6.53h7.09V36.33C52.22,36.32,52.1,36.29,52,36.29Z"/><path class="cls-16" d="M52,23.51c.12,0,.24,0,.36,0V17H45.25A6.74,6.74,0,0,0,52,23.51Z"/><path class="cls-17" d="M26.67,27.76a1.12,1.12,0,0,0,.28.8,2.77,2.77,0,0,0,1,.57,5.59,5.59,0,0,1,2,1.08,2.51,2.51,0,0,1,0,3.39,2.9,2.9,0,0,1-1.79.77v1.29h-1V34.35a2.65,2.65,0,0,1-1.71-.85,2.6,2.6,0,0,1-.6-1.82v0h1.73a1.5,1.5,0,0,0,.3,1,1,1,0,0,0,.84.36,1,1,0,0,0,.82-.3,1.18,1.18,0,0,0,.26-.8,1,1,0,0,0-.27-.75,3.39,3.39,0,0,0-1-.59,5.52,5.52,0,0,1-2-1.07,2.31,2.31,0,0,1-.66-1.74,2.25,2.25,0,0,1,.65-1.69,2.91,2.91,0,0,1,1.8-.74v-1.2h1v1.2a3.17,3.17,0,0,1,1.91.77,2.45,2.45,0,0,1,.73,2l0,0H29.22A1.42,1.42,0,0,0,28.84,27a1.43,1.43,0,0,0-1-.33A1.18,1.18,0,0,0,27,27,1,1,0,0,0,26.67,27.76Z"/><path class="cls-2" d="M55.22,19.56v.3L35.15,32.68H20.52L1.07,20.26v-.7H0l1.5,28a107.91,107.91,0,0,0,26.34,3.31,107.88,107.88,0,0,0,26.33-3.31l1.51-28Z"/><path class="cls-18" d="M54.17,47.55h0L36.19,32l-1,.66H20.52l-.64-.41L1.5,47.55a107.91,107.91,0,0,0,26.34,3.31A107.88,107.88,0,0,0,54.17,47.55Z"/><polygon class="cls-19" points="35.16 32.15 20.52 32.15 1.07 19.56 0 19.56 19.54 32.4 19.11 32.78 36.02 32.78 36.12 32.4 55.68 19.56 54.6 19.56 35.16 32.15"/><path class="cls-1" d="M1.5,47.55c7.88-5.17,19-15.4,19-15.4l-.69-.45C16.83,34.06,1.5,47.55,1.5,47.55Z"/><path class="cls-1" d="M35.12,32.15a166.66,166.66,0,0,0,19,15.4S39.4,34.7,35.83,31.71l-.68.44Z"/><polygon class="cls-20" points="52.26 45.18 41.96 46.44 41.96 38.66 52.26 37.4 52.26 45.18"/><path class="cls-21" d="M51.43,39.7a.39.39,0,1,0,0-.78h0V38.7h0a.39.39,0,1,0-.39-.39v0l-.18,0h0a.39.39,0,0,0-.43-.34.4.4,0,0,0-.35.44h0l-.19,0a.39.39,0,0,0-.44-.33.39.39,0,0,0-.34.43l-.18,0a.39.39,0,0,0-.44-.33.4.4,0,0,0-.34.43l-.18,0a.39.39,0,0,0-.78.1l-.18,0a.39.39,0,1,0-.78.1l-.18,0a.39.39,0,0,0-.78.1h0l-.18,0a.39.39,0,0,0-.44-.34.38.38,0,0,0-.34.43h0l-.18,0a.4.4,0,0,0-.44-.34.39.39,0,0,0-.34.44h0l-.18,0a.4.4,0,1,0-.39.45V40a.4.4,0,1,0,0,.79V41a.4.4,0,1,0,0,.79V42a.4.4,0,1,0,0,.79V43a.4.4,0,1,0,0,.79V44a.4.4,0,1,0,0,.79V45a.4.4,0,1,0,.39.39v0l.18,0v0a.38.38,0,0,0,.44.34.39.39,0,0,0,.34-.43s0,0,0,0l.19,0v0a.39.39,0,0,0,.44.34.4.4,0,0,0,.34-.44v0l.19,0v0a.39.39,0,0,0,.44.34.4.4,0,0,0,.34-.44s0,0,0,0l.19,0v0a.39.39,0,1,0,.78-.1.06.06,0,0,0,0,0l.19,0v0a.39.39,0,1,0,.78-.09s0,0,0,0l.19,0v0a.39.39,0,0,0,.78-.09s0,0,0,0l.19,0v0a.4.4,0,0,0,.44.34.39.39,0,0,0,.34-.44.08.08,0,0,0,0,0l.19,0v0a.39.39,0,0,0,.44.34.38.38,0,0,0,.34-.43v0l.18,0a.4.4,0,1,0,.39-.42h0V43.7h0a.39.39,0,1,0,0-.78h0V42.7h0a.39.39,0,1,0,0-.78h0V41.7h0a.39.39,0,1,0,0-.78h0V40.7h0a.39.39,0,1,0,0-.78h0V39.7Z"/><polygon class="cls-22" points="43.58 40.58 43.58 40.96 50.64 40.05 50.64 39.67 43.58 40.58"/><polygon class="cls-22" points="43.58 41.6 43.58 41.98 50.64 41.07 50.64 40.7 43.58 41.6"/><polygon class="cls-22" points="43.58 42.63 43.58 43 50.64 42.1 50.64 41.72 43.58 42.63"/><polygon class="cls-22" points="43.58 43.65 43.58 44.02 50.64 43.12 50.64 42.74 43.58 43.65"/></g></g></svg>