<svg xmlns="http://www.w3.org/2000/svg" viewBox="0 0 62.71 62.71"><defs><style>.cls-1{fill:#2e88e8;}.cls-2{fill:#409ef2;}.cls-3{fill:#2071d3;}.cls-4{fill:#9ac427;}.cls-5{fill:#aed839;}.cls-6{fill:#87b71d;}.cls-7{fill:#ffc024;}.cls-8{fill:#fff;}</style></defs><title>Zasób 11</title><g id="Warstwa_2" data-name="Warstwa 2"><g id="_2" data-name="2"><circle class="cls-1" cx="31.35" cy="31.36" r="23.28" transform="translate(-3.19 3.55) rotate(-6.17)"/><circle class="cls-2" cx="29.23" cy="27.11" r="16" transform="translate(-10.61 28.61) rotate(-45)"/><path class="cls-3" d="M35.75,8.5A23.28,23.28,0,1,0,54.21,35.75,23.28,23.28,0,0,0,35.75,8.5Zm18,27.16A22.77,22.77,0,1,1,35.65,9,22.76,22.76,0,0,1,53.71,35.66Z"/><path class="cls-4" d="M13.66,44.76c.13-.28.9-.39,1.06-.66A7.4,7.4,0,0,0,15,39.56c-.46-1.31-3.28-2.81-3.72-4.13-.23-.7.48-2.23.26-2.93s-1.78-1.89-2.12-2.67c-.19-.43,0-1.48-.27-1.86a2,2,0,0,0-.76-.39A23.23,23.23,0,0,0,13.93,46.8l.13.1S13.44,45.26,13.66,44.76Z"/><path class="cls-4" d="M13.7,17.83c.77-.51,2.76-.51,3.59-.93a7.34,7.34,0,0,0,2-1.6c.38-.52,1.37-1.93.93-2.4s-1.79,1.11-2.13.67.68-1.31,1.07-1.6a5.34,5.34,0,0,1,1.59-.54,18.33,18.33,0,0,0,2-.26,23.38,23.38,0,0,0,3.59-2.53h-.07A23.39,23.39,0,0,0,10.77,20.45c.3-.2,1.69-1.16,2.13-1.55C13.15,18.68,13.42,18,13.7,17.83Z"/><path class="cls-4" d="M28.18,9.44c.33.33,1.46,0,1.86.26s.5.93.8,1.07A5.57,5.57,0,0,0,34,10.5a12.74,12.74,0,0,0,2.26-1.88l0,0-.5-.1a23.26,23.26,0,0,0-7.38-.24l-.32.11S28,9.24,28.18,9.44Z"/><path class="cls-4" d="M26.32,13.43c.89-.27,3-1.2,3.06-2.13,0-.38-.83-.83-1.2-.93a4,4,0,0,0-2.26.26c-.41.26-.69,1.3-1.06,1.6s-1.95.47-2.39.94c-.29.3-.85,1.32-.53,1.6.56.48,1.93-1.16,2.65-1.34C25,13.34,25.91,13.56,26.32,13.43Z"/><path class="cls-4" d="M37.2,10.28c.13.56,1.66,1.08,1.59,1.65,0,.42-1.23.54-1.41.92s.36,1,.19,1.29-.63.12-.8.25a4.78,4.78,0,0,0-.8,1.16,7.56,7.56,0,0,1-.55,1.23,4,4,0,0,1-1.47.86c-.57.13-1.78-.31-2.33-.13s-1.1,1-1.54,1.29c-.28.16-1,.17-1.22.43s.21,1.19-.06,1.41-1,0-1.38.19-1,1-.77,1.47a1.49,1.49,0,0,0,2.36.07,8.26,8.26,0,0,0,.34-.87,3.59,3.59,0,0,1,2.15-1.29,3.58,3.58,0,0,1,1.65.8c.31.24.64,1,1,1.23a2.61,2.61,0,0,0,1.41.12c.32-.09.72-.75,1.05-.8a1.09,1.09,0,0,1,.79.31c.13.18-.11.68,0,.86a1.88,1.88,0,0,0,1.29.55c.26,0,.6-.66.86-.61s.68.73.67,1a1.62,1.62,0,0,1-.73,1.1c-.37.15-1.14-.32-1.53-.37a5.76,5.76,0,0,0-2.34,0c-.2.11-.34.64-.55.74a1.8,1.8,0,0,1-1.1-.06c-.43-.19-1-1-1.35-1.29S31.85,23,31.51,23a7.59,7.59,0,0,0-4.49.76c-.67.44-1.13,2.16-1.72,2.7-.41.36-1.65.52-2,1a8.87,8.87,0,0,0-.49,6.13,5.66,5.66,0,0,0,2.7,2.21,6.81,6.81,0,0,0,3.19-.25c.41-.14,1-1,1.47-1,.63,0,2.06.62,2.21,1.23.1.43-1,1-1,1.47,0,.79,1.86,1.68,2,2.45s-1.27,2.15-1.23,3c.08,1.4,1.37,4.46,2.7,4.91s4.45-1.32,5.4-2.46c.48-.58.3-2.32.73-2.94.26-.36,1.25-.6,1.47-1,.61-1-.11-3.66.49-4.66.35-.57,1.83-.94,2.21-1.48.56-.77,1.56-2.92,1-3.68-.33-.43-1.72.27-2.2,0-1-.56-3.27-3.1-2.46-3.92.66-.67,2.26,1.94,3.19,2,.77,0,2.49-.73,2.7-1.47a2.26,2.26,0,0,0-1.1-1.9c-.34-.11-1,.7-1.29.55-.64-.31-1.24-2.26-.74-2.76s2.46.8,3.31.92c.46.06,1.44-.22,1.84,0,.68.37,1.31,1.9,1.66,2.58s.45,2.4,1.1,2.76a.75.75,0,0,0,.68-.13c.31-.42-.11-1.59-.31-2.08s-.82-.91-.92-1.29c-.23-.88-.51-3.4.37-3.62.54-.14.7,1.74,1.25,1.85.11,0,.37-.25.37-.25v-.05a23.29,23.29,0,0,0-16-15.52A3.47,3.47,0,0,0,37.2,10.28Z"/><path class="cls-4" d="M45.46,42.5c.35.11.31,1.09.26,1.46a5.78,5.78,0,0,1-1.46,2.94,2,2,0,0,1-1.6.26,1.44,1.44,0,0,1-.26-1.33c.18-.36,1.21-.35,1.46-.67s.11-1,.27-1.33S45,42.36,45.46,42.5Z"/><path class="cls-5" d="M19.28,15.3A9.24,9.24,0,0,0,20.11,14a16,16,0,0,0-3.35,3.11,3,3,0,0,0,.53-.18A7.34,7.34,0,0,0,19.28,15.3Z"/><path class="cls-5" d="M24.86,12.23c-.5.41-1.95.47-2.39.94-.29.3-.85,1.32-.53,1.6.56.48,1.93-1.16,2.65-1.34.42-.09,1.32.13,1.73,0,.89-.27,3-1.2,3.06-2.13a.38.38,0,0,0-.06-.19h-.09a16,16,0,0,0-3.95.49A1.91,1.91,0,0,1,24.86,12.23Z"/><path class="cls-5" d="M37.57,14.14c-.11.18-.63.12-.8.25a4.78,4.78,0,0,0-.8,1.16,7.56,7.56,0,0,1-.55,1.23,4,4,0,0,1-1.47.86c-.57.13-1.78-.31-2.33-.13s-1.1,1-1.54,1.29c-.28.16-1,.17-1.22.43s.21,1.19-.06,1.41-1,0-1.38.19-1,1-.77,1.47a1.49,1.49,0,0,0,2.36.07,8.26,8.26,0,0,0,.34-.87,3.59,3.59,0,0,1,2.15-1.29,3.58,3.58,0,0,1,1.65.8c.31.24.64,1,1,1.23a2.61,2.61,0,0,0,1.41.12c.32-.09.72-.75,1.05-.8a1.09,1.09,0,0,1,.79.31c.13.18-.11.68,0,.86a1.88,1.88,0,0,0,1.29.55c.26,0,.6-.66.86-.61s.68.73.67,1a1.62,1.62,0,0,1-.73,1.1c-.37.15-1.14-.32-1.53-.37a5.76,5.76,0,0,0-2.34,0c-.2.11-.34.64-.55.74a1.8,1.8,0,0,1-1.1-.06c-.43-.19-1-1-1.35-1.29S31.85,23,31.51,23a7.59,7.59,0,0,0-4.49.76c-.67.44-1.13,2.16-1.72,2.7-.41.36-1.65.52-2,1a8.87,8.87,0,0,0-.49,6.13,5.66,5.66,0,0,0,2.7,2.21,6.81,6.81,0,0,0,3.19-.25c.41-.14,1-1,1.47-1,.63,0,2.06.62,2.21,1.23.1.43-1,1-1,1.47,0,.79,1.86,1.68,2,2.45s-1.27,2.15-1.23,3a2,2,0,0,0,0,.23A16,16,0,0,0,44.66,31.34a1.25,1.25,0,0,1-.71,0c-1-.56-3.27-3.1-2.46-3.92.66-.67,2.26,1.94,3.19,2a1.91,1.91,0,0,0,.39,0,15.94,15.94,0,0,0,.15-2.2c0-.2,0-.39,0-.59a.28.28,0,0,1-.22,0c-.64-.31-1.24-2.26-.74-2.76a.68.68,0,0,1,.59-.14,16,16,0,0,0-7.39-10.24C37.55,13.68,37.67,14,37.57,14.14Z"/><path class="cls-6" d="M13.72,45.77a22.73,22.73,0,0,1-4.86-18,4.55,4.55,0,0,0-.48-.19A23.11,23.11,0,0,0,9.3,38.82c1.33,3.94,4,7.53,4.76,8.08A10.93,10.93,0,0,1,13.72,45.77Z"/><path class="cls-6" d="M25.41,9.37l.91-.73c-1.24,0-5.66,1.6-9,4.18s-6,6.29-6.5,7.63c.15-.09.54-.36,1-.66A22.8,22.8,0,0,1,25.41,9.37Z"/><path class="cls-6" d="M28,8.82A22.6,22.6,0,0,1,35.86,9c.26-.24.43-.42.43-.42a23.32,23.32,0,0,0-3.81-.52,18.11,18.11,0,0,0-4.43.27S28,8.58,28,8.82Z"/><path class="cls-6" d="M37.41,9.41A22.75,22.75,0,0,1,53.14,24.72c.18.11.48-.16.45-.26a23.29,23.29,0,0,0-16-15.52Z"/><path class="cls-7" d="M31.71,62.71V62.2c.5,0,1,0,1.51-.05l0,.5Q32.47,62.7,31.71,62.71Zm-1.54,0c-.5,0-1-.06-1.52-.1l0-.51c.5.05,1,.08,1.5.1Zm4.59-.17,0-.5c.5-.05,1-.12,1.49-.2l.08.5C35.78,62.4,35.27,62.47,34.76,62.52Zm-7.64-.1c-.5-.07-1-.15-1.51-.25l.09-.49,1.49.24ZM37.79,62l-.11-.49c.5-.11,1-.22,1.47-.35l.13.49C38.79,61.82,38.29,61.94,37.79,62Zm-13.68-.18c-.5-.12-1-.25-1.48-.39l.14-.49c.48.14,1,.27,1.46.38Zm16.64-.59-.15-.49c.48-.15.95-.31,1.42-.48l.18.47C41.72,61,41.24,61.11,40.75,61.27ZM21.17,61c-.48-.17-1-.34-1.44-.53l.19-.47c.47.18.94.36,1.42.52Zm22.45-.8-.2-.47c.47-.2.92-.41,1.37-.62l.23.45Zm-25.29-.33c-.47-.21-.93-.44-1.38-.67l.23-.45c.45.23.9.45,1.36.66Zm28-1-.24-.45c.44-.24.88-.49,1.31-.75l.26.43C47.27,58.37,46.82,58.62,46.37,58.87Zm-30.77-.4c-.44-.26-.88-.52-1.3-.8l.27-.43c.42.28.85.54,1.29.79ZM13,56.8c-.41-.3-.82-.61-1.22-.93l.32-.39c.39.31.79.62,1.2.91Zm-2.4-1.91c-.38-.34-.75-.69-1.12-1l.35-.36q.54.52,1.11,1ZM8.44,52.75q-.52-.55-1-1.14l.39-.33c.32.38.66.76,1,1.13Zm-2-2.34q-.46-.6-.9-1.23L6,48.89c.28.41.58.82.88,1.22ZM4.72,47.89q-.4-.64-.78-1.32l.45-.24c.24.44.49.87.76,1.3ZM3.23,45.22c-.22-.46-.44-.92-.64-1.39l.46-.2c.2.46.41.92.64,1.37ZM2,42.41c-.18-.47-.35-.95-.5-1.44L2,40.81c.15.48.32,1,.5,1.42ZM1.07,39.5C.94,39,.82,38.52.71,38l.49-.11c.11.49.23,1,.36,1.46Zm-.65-3C.34,36,.26,35.51.21,35l.5-.06c.06.5.13,1,.21,1.49Zm-.35-3C0,33,0,32.46,0,32H.51q0,.75.06,1.5Zm.45-3H0c0-.51,0-1,.09-1.53l.5,0C.56,29.43.53,29.93.52,30.43Zm.24-3-.5-.07c.06-.5.14-1,.23-1.51l.5.09C.9,26.44.82,26.93.76,27.43Zm.53-3-.5-.11c.12-.5.24-1,.38-1.49l.49.14C1.52,23.48,1.4,24,1.29,24.46Zm.81-2.9-.48-.16c.16-.49.34-1,.52-1.44l.47.18C2.43,20.61,2.26,21.08,2.1,21.56Zm1.09-2.81-.46-.2c.21-.47.43-.93.66-1.39l.45.23C3.61,17.84,3.4,18.29,3.19,18.75Z"/><path class="cls-7" d="M59.18,45.8l-.45-.23c.21-.4.4-.8.59-1.21l.46.21Q59.5,45.2,59.18,45.8Zm1.21-2.63L59.92,43q.28-.7.54-1.41l.48.16C60.77,42.22,60.59,42.7,60.39,43.17Zm1-2.89-.49-.15c.14-.48.27-1,.39-1.45l.49.12C61.68,39.29,61.55,39.79,61.41,40.28Zm.72-3-.5-.05c.1-.53.18-1,.25-1.5l.5.07C62.31,36.28,62.23,36.78,62.13,37.27Zm.43-3-.5-.05c0-.5.08-1,.11-1.5l.5,0C62.65,33.25,62.61,33.76,62.56,34.27Zm-.36-3.06c0-.5,0-1,0-1.51l.5,0c0,.51,0,1,.05,1.53Zm-.16-3c0-.5-.12-1-.19-1.49l.5-.08c.08.51.14,1,.19,1.52Zm-.45-3c-.1-.49-.22-1-.34-1.47l.49-.12c.13.49.24,1,.34,1.49Zm-.75-2.92c-.14-.48-.3-.95-.47-1.42l.47-.18c.18.48.34,1,.49,1.45Zm-1-2.83c-.2-.46-.4-.92-.62-1.37l.46-.22c.22.46.43.92.63,1.4Zm-1.3-2.72c-.23-.44-.48-.87-.74-1.31l.43-.26c.27.44.52.88.76,1.33ZM57,14.18q-.42-.62-.87-1.23l.41-.3c.3.41.59.83.88,1.25Zm-1.8-2.42-1-1.14.37-.34c.34.38.68.77,1,1.16Zm-2-2.23c-.36-.35-.72-.7-1.09-1l.34-.37q.57.51,1.11,1.05Zm-2.24-2c-.38-.31-.78-.62-1.18-.92l.3-.41c.41.3.81.62,1.21.94ZM48.49,5.71c-.41-.28-.84-.55-1.27-.81l.26-.44,1.3.82ZM45.91,4.15c-.45-.23-.89-.46-1.35-.67L44.78,3c.46.22.92.45,1.37.69ZM18.3,3.41,18.09,3c.46-.22.93-.42,1.4-.62l.19.47C19.21,3,18.75,3.19,18.3,3.41Zm24.88-.54c-.46-.2-.93-.38-1.4-.55L42,1.85c.48.17,1,.35,1.43.55ZM21.09,2.26l-.17-.47c.48-.17,1-.33,1.46-.48l.14.49C22,1.94,21.56,2.1,21.09,2.26Zm19.26-.41c-.48-.14-1-.28-1.45-.4L39,1c.5.12,1,.26,1.47.41ZM24,1.4,23.85.91q.75-.18,1.5-.33l.1.49C25,1.17,24.46,1.28,24,1.4Zm13.46-.28-.26-.05Q36.55,1,35.94.86L36,.35l1.25.22.26.05ZM26.93.82l-.07-.5c.5-.07,1-.13,1.52-.18l.05.5C27.92.69,27.43.75,26.93.82ZM34.45.67c-.51-.06-1-.09-1.51-.12L33,0q.77,0,1.53.12ZM29.93.54l0-.51q.7,0,1.41,0h.12V.51h-.12C30.85.51,30.39.52,29.93.54Z"/><path class="cls-7" d="M17.33,8a6.45,6.45,0,1,1-6.45-6.45A6.45,6.45,0,0,1,17.33,8Z"/><path class="cls-8" d="M11.86,9.63A.86.86,0,0,0,11.64,9a2.38,2.38,0,0,0-.79-.45,4.51,4.51,0,0,1-1.58-.83,1.76,1.76,0,0,1-.51-1.34,1.78,1.78,0,0,1,.51-1.31,2.28,2.28,0,0,1,1.4-.59v-1h.75v1a2.12,2.12,0,0,1,1.33.66,2,2,0,0,1,.46,1.42v0H11.86a1.19,1.19,0,0,0-.23-.78A.81.81,0,0,0,11,5.54a.84.84,0,0,0-.65.23.92.92,0,0,0-.19.62.83.83,0,0,0,.2.58,2.51,2.51,0,0,0,.81.47,4,4,0,0,1,1.56.83,1.76,1.76,0,0,1,.52,1.35,1.76,1.76,0,0,1-.51,1.32,2.33,2.33,0,0,1-1.4.58v.93h-.75v-.93a2.57,2.57,0,0,1-1.48-.6,1.91,1.91,0,0,1-.57-1.53l0,0H9.88a1.08,1.08,0,0,0,.29.86,1.14,1.14,0,0,0,.77.26.94.94,0,0,0,.69-.23A.85.85,0,0,0,11.86,9.63Z"/><path class="cls-8" d="M10.88,13.75A5.79,5.79,0,1,1,16.67,8,5.8,5.8,0,0,1,10.88,13.75Zm0-11.37A5.59,5.59,0,1,0,16.46,8,5.59,5.59,0,0,0,10.88,2.38Z"/><path class="cls-7" d="M58.75,53.67a5.54,5.54,0,1,1-5.54-5.54A5.54,5.54,0,0,1,58.75,53.67Z"/><path class="cls-8" d="M54.06,55.1a.76.76,0,0,0-.19-.53,2,2,0,0,0-.68-.39,3.8,3.8,0,0,1-1.36-.71,1.68,1.68,0,0,1,0-2.27,2,2,0,0,1,1.2-.52v-.86h.65v.88a1.64,1.64,0,0,1,1.54,1.78v0H54.06a1.06,1.06,0,0,0-.2-.68.69.69,0,0,0-.56-.23.72.72,0,0,0-.56.19.85.85,0,0,0-.17.54.7.7,0,0,0,.18.5,2.38,2.38,0,0,0,.7.4,3.56,3.56,0,0,1,1.34.71,1.52,1.52,0,0,1,.44,1.16,1.47,1.47,0,0,1-.44,1.13,1.94,1.94,0,0,1-1.19.5v.8H53v-.8a2.12,2.12,0,0,1-1.28-.52,1.62,1.62,0,0,1-.48-1.31v0h1.15a1,1,0,0,0,.25.74,1,1,0,0,0,.66.22.82.82,0,0,0,.6-.2A.71.71,0,0,0,54.06,55.1Z"/><path class="cls-8" d="M53.21,58.65a5,5,0,1,1,5-5A5,5,0,0,1,53.21,58.65Zm0-9.77A4.79,4.79,0,1,0,58,53.67,4.79,4.79,0,0,0,53.21,48.88Z"/><polygon class="cls-7" points="5.53 17.92 5.12 14.67 2.25 15.83 2.06 15.36 5.53 13.95 6.04 17.86 5.53 17.92"/><polygon class="cls-7" points="57.38 48.12 57.06 44.2 57.56 44.16 57.84 47.42 60.75 46.4 60.92 46.87 57.38 48.12"/></g></g></svg>