<svg xmlns="http://www.w3.org/2000/svg" viewBox="0 0 32.4 44.78"><defs><style>.cls-1{fill:#363b4c;}.cls-2{fill:#2c313f;}.cls-3{fill:#3f4d63;}.cls-4{fill:#929db7;}.cls-5{fill:#c3cddd;}.cls-6{fill:#4a5e72;}.cls-7{fill:#fff;}.cls-8{fill:#dfe7ef;}.cls-9{fill:#e59f13;}.cls-10{fill:#c9051d;}.cls-11{fill:#0ab744;}.cls-12{fill:#62758c;}.cls-13{fill:#ffd243;}.cls-14{fill:#ed2941;}.cls-15{fill:#2edb68;}.cls-16{fill:#46f273;}.cls-17{fill:#7b8fa3;}.cls-18{fill:#ffe861;}.cls-19{fill:#ff5c6c;}</style></defs><title>Zasób 12</title><g id="Warstwa_2" data-name="Warstwa 2"><g id="_2" data-name="2"><rect class="cls-1" x="26.59" y="27.56" width="3.01" height="12.49"/><path class="cls-2" d="M25.73,0H28c2.43,0,4.41,2.35,4.41,5.24v7.67c0,2.9-2,5.24-4.41,5.24h-2Z"/><rect class="cls-2" x="4.52" width="24.33" height="44.78" rx="3.01"/><rect class="cls-1" width="24.33" height="44.78" rx="3.01"/><path class="cls-3" d="M28.69,10.21l.9-.74V40l-.9-.73a5.82,5.82,0,0,1-2.12-4.48V14.69A5.79,5.79,0,0,1,28.69,10.21Z"/><polygon class="cls-3" points="29.6 40.04 30.46 40.04 30.46 9.47 29.6 9.47 28.03 22.91 29.6 40.04"/><path class="cls-1" d="M29.57,10.21l.89-.74V40l-.89-.73a5.82,5.82,0,0,1-2.12-4.48V14.69A5.79,5.79,0,0,1,29.57,10.21Z"/><path class="cls-4" d="M19.85,21.75a47.19,47.19,0,0,1-15.37,0A2.69,2.69,0,0,1,2.31,19.1v-13A2.72,2.72,0,0,1,4.48,3.47a38.81,38.81,0,0,1,15.34,0A2.73,2.73,0,0,1,22,6.13v13A2.68,2.68,0,0,1,19.85,21.75Z"/><path class="cls-5" d="M19.47,21.75a47.19,47.19,0,0,1-15.37,0A2.68,2.68,0,0,1,1.94,19.1v-13A2.71,2.71,0,0,1,4.11,3.47a38.76,38.76,0,0,1,15.33,0,2.74,2.74,0,0,1,2.2,2.66v13A2.68,2.68,0,0,1,19.47,21.75Z"/><rect class="cls-6" x="2.74" y="6.08" width="18.08" height="11.14"/><path class="cls-7" d="M11.79,14.87c-2.54,0-4.6-1.44-4.6-3.22s2.06-3.22,4.6-3.22,4.59,1.45,4.59,3.22S14.32,14.87,11.79,14.87Zm0-6.13C9.42,8.74,7.5,10,7.5,11.65s1.92,2.92,4.29,2.92,4.29-1.31,4.29-2.92S14.15,8.74,11.79,8.74Z"/><path class="cls-7" d="M10.84,13a.14.14,0,0,1-.11-.06.15.15,0,0,1,0-.21,1.36,1.36,0,0,0,.55-1,1.6,1.6,0,0,0-.54-1,.15.15,0,0,1,0-.22.16.16,0,0,1,.21,0,1.93,1.93,0,0,1,.66,1.28A1.7,1.7,0,0,1,11,12.92.21.21,0,0,1,10.84,13Z"/><path class="cls-7" d="M10,12.52a.15.15,0,0,1-.1-.26.82.82,0,0,0,.32-.6.93.93,0,0,0-.32-.61.16.16,0,0,1,0-.21.15.15,0,0,1,.22,0,1.21,1.21,0,0,1,.42.83,1.08,1.08,0,0,1-.42.84A.19.19,0,0,1,10,12.52Z"/><path class="cls-7" d="M11.72,13.4a.18.18,0,0,1-.12-.05.15.15,0,0,1,0-.21,2,2,0,0,0,.78-1.47,2.33,2.33,0,0,0-.78-1.5.16.16,0,0,1,0-.21.14.14,0,0,1,.21,0,2.54,2.54,0,0,1,.89,1.72,2.22,2.22,0,0,1-.88,1.7A.14.14,0,0,1,11.72,13.4Z"/><path class="cls-7" d="M12.64,13.66a.16.16,0,0,1-.11-.05.14.14,0,0,1,0-.21,2.28,2.28,0,0,0,.91-1.73,2.63,2.63,0,0,0-.91-1.76.16.16,0,0,1,0-.21.16.16,0,0,1,.22,0,2.92,2.92,0,0,1,1,2,2.55,2.55,0,0,1-1,2A.14.14,0,0,1,12.64,13.66Z"/><polygon class="cls-1" points="3.39 6.51 20.83 6.51 20.83 6.08 2.75 6.08 2.75 17.22 3.39 17.22 3.39 6.51"/><path class="cls-4" d="M7,18.12a.32.32,0,0,0-.29-.23H3v.74a2.56,2.56,0,0,0,2,2.56c.8.15,1.66.28,2.55.37a.31.31,0,0,0,.33-.39Z"/><path class="cls-4" d="M16.28,18.32l.82,2.89a.33.33,0,0,0,.37.24c.56-.07,1.11-.16,1.64-.26a2.56,2.56,0,0,0,2-2.56v-.74H16.6A.34.34,0,0,0,16.28,18.32Z"/><path class="cls-4" d="M14.81,17.89H8.43a.3.3,0,0,0-.28.38l.9,3.22a.3.3,0,0,0,.27.23,44.06,44.06,0,0,0,6.4-.08.3.3,0,0,0,.26-.38l-.88-3.15A.31.31,0,0,0,14.81,17.89Z"/><path class="cls-8" d="M6.49,18.12a.32.32,0,0,0-.3-.23H2.47v.74a2.56,2.56,0,0,0,2,2.56c.81.15,1.67.28,2.55.37a.31.31,0,0,0,.33-.39Z"/><path class="cls-8" d="M15.8,18.32l.81,2.89a.35.35,0,0,0,.37.24c.57-.07,1.12-.16,1.65-.26a2.56,2.56,0,0,0,2-2.56v-.74h-4.5A.34.34,0,0,0,15.8,18.32Z"/><path class="cls-8" d="M14.32,17.89H8a.3.3,0,0,0-.29.38l.91,3.22a.3.3,0,0,0,.27.23,43.9,43.9,0,0,0,6.39-.08.3.3,0,0,0,.27-.38l-.89-3.15A.29.29,0,0,0,14.32,17.89Z"/><path class="cls-1" d="M5.76,19.58H3.66a.15.15,0,0,1-.15-.15.14.14,0,0,1,.15-.15h2.1a.15.15,0,0,1,.15.15A.15.15,0,0,1,5.76,19.58Z"/><path class="cls-1" d="M19.4,19.58H17.3a.15.15,0,0,1-.15-.15.15.15,0,0,1,.15-.15h2.1a.14.14,0,0,1,.15.15A.15.15,0,0,1,19.4,19.58Z"/><rect class="cls-6" x="9.73" y="24.84" width="4.87" height="2.99" rx="0.61"/><path class="cls-6" d="M6.57,27.82l-3.65-.21A.66.66,0,0,1,2.31,27V25.19a.57.57,0,0,1,.61-.57l3.65.21a.65.65,0,0,1,.61.64v1.78A.57.57,0,0,1,6.57,27.82Z"/><path class="cls-6" d="M17.76,27.76l3.64-.22A.64.64,0,0,0,22,26.9V25.12a.57.57,0,0,0-.61-.57l-3.64.21a.65.65,0,0,0-.61.64v1.78A.58.58,0,0,0,17.76,27.76Z"/><rect class="cls-6" x="9.73" y="29.36" width="4.87" height="2.99" rx="0.61"/><path class="cls-6" d="M6.57,32.34l-3.65-.21a.66.66,0,0,1-.61-.64V29.71a.57.57,0,0,1,.61-.57l3.65.21a.65.65,0,0,1,.61.64v1.78A.57.57,0,0,1,6.57,32.34Z"/><path class="cls-6" d="M17.76,32.28l3.64-.21a.65.65,0,0,0,.61-.65V29.64a.57.57,0,0,0-.61-.57l-3.64.21a.65.65,0,0,0-.61.65V31.7A.57.57,0,0,0,17.76,32.28Z"/><rect class="cls-6" x="9.73" y="33.88" width="4.87" height="2.99" rx="0.61"/><path class="cls-6" d="M6.57,36.86l-3.65-.21A.66.66,0,0,1,2.31,36V34.23a.57.57,0,0,1,.61-.57l3.65.21a.65.65,0,0,1,.61.64v1.78A.57.57,0,0,1,6.57,36.86Z"/><path class="cls-6" d="M17.76,36.8l3.64-.21a.65.65,0,0,0,.61-.65V34.17a.57.57,0,0,0-.61-.58l-3.64.21a.65.65,0,0,0-.61.65v1.77A.57.57,0,0,0,17.76,36.8Z"/><rect class="cls-9" x="9.73" y="38.4" width="4.87" height="2.99" rx="0.61"/><path class="cls-10" d="M6.57,41.36l-3.65-.21a.66.66,0,0,1-.61-.65V38.73a.58.58,0,0,1,.61-.58l3.65.21a.65.65,0,0,1,.61.65v1.77A.57.57,0,0,1,6.57,41.36Z"/><path class="cls-11" d="M17.76,41.33l3.64-.21a.65.65,0,0,0,.61-.64V38.7a.56.56,0,0,0-.61-.57l-3.64.21a.65.65,0,0,0-.61.64v1.78A.57.57,0,0,0,17.76,41.33Z"/><rect class="cls-12" x="9.3" y="24.84" width="4.87" height="2.99" rx="0.61"/><path class="cls-12" d="M6.14,27.79l-3.65-.21a.65.65,0,0,1-.61-.64V25.16a.57.57,0,0,1,.61-.57l3.65.21a.65.65,0,0,1,.61.64v1.78A.56.56,0,0,1,6.14,27.79Z"/><path class="cls-12" d="M17.32,27.79,21,27.58a.65.65,0,0,0,.61-.64V25.16a.57.57,0,0,0-.61-.57l-3.65.21a.65.65,0,0,0-.6.64v1.78A.56.56,0,0,0,17.32,27.79Z"/><rect class="cls-12" x="9.3" y="29.36" width="4.87" height="2.99" rx="0.61"/><path class="cls-12" d="M6.14,32.32,2.49,32.1a.65.65,0,0,1-.61-.64V29.68a.57.57,0,0,1,.61-.57l3.65.21a.65.65,0,0,1,.61.64v1.78A.58.58,0,0,1,6.14,32.32Z"/><path class="cls-12" d="M17.32,32.32,21,32.1a.64.64,0,0,0,.61-.64V29.68a.57.57,0,0,0-.61-.57l-3.65.21a.65.65,0,0,0-.6.64v1.78A.57.57,0,0,0,17.32,32.32Z"/><rect class="cls-12" x="9.3" y="33.88" width="4.87" height="2.99" rx="0.61"/><path class="cls-12" d="M6.14,36.84l-3.65-.21A.66.66,0,0,1,1.88,36V34.2a.57.57,0,0,1,.61-.57l3.65.21a.65.65,0,0,1,.61.65v1.77A.57.57,0,0,1,6.14,36.84Z"/><path class="cls-12" d="M17.32,36.84,21,36.63a.65.65,0,0,0,.61-.65V34.2a.57.57,0,0,0-.61-.57l-3.65.21a.65.65,0,0,0-.6.65v1.77A.57.57,0,0,0,17.32,36.84Z"/><rect class="cls-13" x="9.3" y="38.4" width="4.87" height="2.99" rx="0.61"/><path class="cls-14" d="M6.14,41.36l-3.65-.21a.66.66,0,0,1-.61-.65V38.73a.58.58,0,0,1,.61-.58l3.65.21a.65.65,0,0,1,.61.65v1.77A.57.57,0,0,1,6.14,41.36Z"/><path class="cls-15" d="M17.32,41.36,21,41.15a.65.65,0,0,0,.61-.65V38.73a.57.57,0,0,0-.61-.58l-3.65.21a.65.65,0,0,0-.6.65v1.77A.57.57,0,0,0,17.32,41.36Z"/><path class="cls-16" d="M21,38.15h-.06a.66.66,0,0,1,.49.55v1.81a.76.76,0,0,1-.63.64H21a.65.65,0,0,0,.61-.65V38.73A.57.57,0,0,0,21,38.15Z"/><path class="cls-17" d="M21,33.62h-.06a.66.66,0,0,1,.49.56V36a.75.75,0,0,1-.63.64H21a.65.65,0,0,0,.61-.65V34.2A.57.57,0,0,0,21,33.62Z"/><path class="cls-18" d="M13.56,38.4h-.22a.6.6,0,0,1,.6.61v1.77a.6.6,0,0,1-.6.61h.22a.61.61,0,0,0,.61-.61V39A.61.61,0,0,0,13.56,38.4Z"/><path class="cls-19" d="M6.14,38.36H6a.66.66,0,0,1,.53.64v1.79a.56.56,0,0,1-.49.57h.1a.57.57,0,0,0,.61-.58V39A.65.65,0,0,0,6.14,38.36Z"/><path class="cls-17" d="M13.56,33.88h-.22a.6.6,0,0,1,.6.61v1.77a.6.6,0,0,1-.6.61h.22a.61.61,0,0,0,.61-.61V34.49A.61.61,0,0,0,13.56,33.88Z"/><path class="cls-17" d="M6.14,33.84H6a.66.66,0,0,1,.53.64v1.79a.57.57,0,0,1-.49.57h.1a.57.57,0,0,0,.61-.58V34.49A.65.65,0,0,0,6.14,33.84Z"/><path class="cls-17" d="M21,29.11h-.06a.69.69,0,0,1,.49.56v1.8a.75.75,0,0,1-.63.64H21a.65.65,0,0,0,.61-.64V29.68A.56.56,0,0,0,21,29.11Z"/><path class="cls-17" d="M13.56,29.36h-.22a.6.6,0,0,1,.6.61v1.77a.6.6,0,0,1-.6.61h.22a.61.61,0,0,0,.61-.61V30A.61.61,0,0,0,13.56,29.36Z"/><path class="cls-17" d="M6.14,29.32H6a.64.64,0,0,1,.53.63v1.79a.56.56,0,0,1-.49.57h.1a.57.57,0,0,0,.61-.58V30A.65.65,0,0,0,6.14,29.32Z"/><path class="cls-17" d="M21,24.58h-.06a.67.67,0,0,1,.49.56V27a.75.75,0,0,1-.63.64H21a.65.65,0,0,0,.61-.65V25.16A.57.57,0,0,0,21,24.58Z"/><path class="cls-17" d="M13.56,24.84h-.22a.6.6,0,0,1,.6.61v1.77a.6.6,0,0,1-.6.61h.22a.61.61,0,0,0,.61-.61V25.45A.61.61,0,0,0,13.56,24.84Z"/><path class="cls-17" d="M6.14,24.8H6a.66.66,0,0,1,.53.64v1.79a.57.57,0,0,1-.49.57h.1a.57.57,0,0,0,.61-.58V25.45A.65.65,0,0,0,6.14,24.8Z"/><path class="cls-7" d="M4.53,27H4.27v-1c0-.12,0-.22,0-.29l-.06.05s-.11.09-.24.21l-.13-.17.47-.37h.21Z"/><path class="cls-7" d="M12.28,27.11H11.2v-.2l.41-.41.24-.27a.37.37,0,0,0,.08-.15.33.33,0,0,0,0-.15.24.24,0,0,0-.06-.17.28.28,0,0,0-.18-.06.57.57,0,0,0-.18,0l-.2.13-.14-.17a.83.83,0,0,1,.26-.16.86.86,0,0,1,.27-.05.52.52,0,0,1,.36.12.41.41,0,0,1,.13.31.52.52,0,0,1,0,.21.88.88,0,0,1-.12.2,2.74,2.74,0,0,1-.26.28l-.28.27h.76Z"/><path class="cls-7" d="M19.63,25.73a.35.35,0,0,1-.09.25.41.41,0,0,1-.25.14h0a.52.52,0,0,1,.29.12.33.33,0,0,1,.1.26.43.43,0,0,1-.16.35.73.73,0,0,1-.47.13,1,1,0,0,1-.44-.09v-.23a.9.9,0,0,0,.21.08l.22,0a.52.52,0,0,0,.28-.07.27.27,0,0,0,.09-.22.21.21,0,0,0-.1-.18.67.67,0,0,0-.32-.06h-.14V26H19c.25,0,.38-.09.38-.27a.21.21,0,0,0-.06-.16.3.3,0,0,0-.2-.06.47.47,0,0,0-.17,0,.75.75,0,0,0-.2.1l-.13-.18a.84.84,0,0,1,.51-.16.61.61,0,0,1,.38.1A.35.35,0,0,1,19.63,25.73Z"/><path class="cls-7" d="M4.91,31.13H4.7v.35H4.45v-.35H3.72v-.19l.73-1.07H4.7v1.05h.21Zm-.46-.21v-.4c0-.15,0-.26,0-.36h0a1.5,1.5,0,0,1-.09.18l-.4.58Z"/><path class="cls-7" d="M11.74,30.62a.53.53,0,0,1,.38.13.47.47,0,0,1,.14.35.53.53,0,0,1-.16.4.65.65,0,0,1-.46.15.8.8,0,0,1-.41-.09v-.23a.52.52,0,0,0,.2.07.76.76,0,0,0,.21,0,.34.34,0,0,0,.26-.08.27.27,0,0,0,.09-.22c0-.2-.12-.29-.36-.29H11.5l-.13,0-.11-.07.06-.78h.83v.23h-.61l0,.4.09,0Z"/><path class="cls-7" d="M18.62,30.8c0-.63.25-.94.76-.94a.62.62,0,0,1,.2,0v.21l-.19,0a.49.49,0,0,0-.39.14.72.72,0,0,0-.14.44h0a.32.32,0,0,1,.14-.14.51.51,0,0,1,.22-.05.44.44,0,0,1,.34.14.52.52,0,0,1,.12.36.57.57,0,0,1-.14.4.5.5,0,0,1-.38.15.54.54,0,0,1-.5-.33A1,1,0,0,1,18.62,30.8Zm.55.49a.25.25,0,0,0,.2-.08.37.37,0,0,0,.08-.25.33.33,0,0,0-.07-.21.23.23,0,0,0-.2-.08.33.33,0,0,0-.15,0,.27.27,0,0,0-.11.1.2.2,0,0,0,0,.13.38.38,0,0,0,.08.26A.25.25,0,0,0,19.17,31.29Z"/><path class="cls-7" d="M4,36l.63-1.37H3.76V34.4h1.1v.18L4.24,36Z"/><path class="cls-7" d="M11.73,34.52a.57.57,0,0,1,.36.1.33.33,0,0,1,.13.28.41.41,0,0,1-.29.39,1,1,0,0,1,.27.2.41.41,0,0,1,.08.24.36.36,0,0,1-.15.31.61.61,0,0,1-.39.12.6.6,0,0,1-.4-.11.37.37,0,0,1-.15-.32.46.46,0,0,1,.08-.24.69.69,0,0,1,.24-.19,1,1,0,0,1-.21-.18.43.43,0,0,1-.06-.22.34.34,0,0,1,.14-.28A.56.56,0,0,1,11.73,34.52Zm-.29,1.21a.21.21,0,0,0,.08.17.28.28,0,0,0,.21.07A.29.29,0,0,0,12,35.9a.22.22,0,0,0,.08-.18.21.21,0,0,0-.07-.16.84.84,0,0,0-.22-.14h0a.51.51,0,0,0-.21.14A.28.28,0,0,0,11.44,35.73Zm.29-1a.24.24,0,0,0-.17.06.16.16,0,0,0-.07.15.36.36,0,0,0,0,.1.27.27,0,0,0,.07.08,1,1,0,0,0,.16.09.46.46,0,0,0,.18-.12.24.24,0,0,0,.06-.15.18.18,0,0,0-.07-.15A.24.24,0,0,0,11.73,34.71Z"/><path class="cls-7" d="M12.28,39.86a1.11,1.11,0,0,1-.14.62.45.45,0,0,1-.41.21.45.45,0,0,1-.4-.21,1.16,1.16,0,0,1-.14-.62,1.18,1.18,0,0,1,.14-.63.5.5,0,0,1,.81,0A1.19,1.19,0,0,1,12.28,39.86Zm-.83,0a1.25,1.25,0,0,0,.07.47.23.23,0,0,0,.21.14.24.24,0,0,0,.22-.14,1.28,1.28,0,0,0,.07-.47,1.33,1.33,0,0,0-.07-.47.24.24,0,0,0-.22-.14.23.23,0,0,0-.21.14A1.28,1.28,0,0,0,11.45,39.86Z"/><path class="cls-7" d="M19.69,35.08a1.09,1.09,0,0,1-.19.71.69.69,0,0,1-.57.23h-.21v-.22a.69.69,0,0,0,.2,0,.49.49,0,0,0,.38-.14.68.68,0,0,0,.14-.44h0a.43.43,0,0,1-.16.14.46.46,0,0,1-.21,0,.42.42,0,0,1-.33-.13.52.52,0,0,1-.12-.36.55.55,0,0,1,.14-.41.59.59,0,0,1,.68-.06.65.65,0,0,1,.19.24A.89.89,0,0,1,19.69,35.08Zm-.56-.49a.25.25,0,0,0-.2.09.44.44,0,0,0,0,.46.28.28,0,0,0,.2.08.33.33,0,0,0,.22-.08.23.23,0,0,0,.09-.18.41.41,0,0,0,0-.19.32.32,0,0,0-.1-.13A.3.3,0,0,0,19.13,34.59Z"/></g></g></svg>