<svg xmlns="http://www.w3.org/2000/svg" xmlns:xlink="http://www.w3.org/1999/xlink" viewBox="0 0 60.1 49.46"><defs><style>.cls-1{fill:none;}.cls-2{isolation:isolate;}.cls-3{fill:#105faf;}.cls-4{fill:#1894d1;}.cls-5{fill:#3f4d63;}.cls-6{fill:#4a5e72;}.cls-7{fill:#929db7;}.cls-8{fill:#707c9b;}.cls-9{fill:#c3cddd;}.cls-10{fill:#30afef;}.cls-11{fill:#ffbd48;}.cls-12,.cls-13{fill:#fff;}.cls-12{opacity:0.2;mix-blend-mode:screen;}.cls-14{fill:#6c7793;}.cls-15{fill:#ffefae;}.cls-16{fill:#7e88a5;}.cls-17{fill:#38465b;}.cls-18{clip-path:url(#clip-path);}.cls-19{fill:#348101;}.cls-20{fill:#5fb521;}.cls-21{fill:#519b13;}.cls-22{fill:#88d53e;}.cls-23{clip-path:url(#clip-path-2);}.cls-24{clip-path:url(#clip-path-3);}.cls-25{fill:#418e0e;}.cls-26{fill:#6cc22e;}.cls-27{fill:#5ea820;}.cls-28{fill:#95e24b;}.cls-29{fill:#a6b1c9;}.cls-30{fill:#576384;}.cls-31{fill:#9faac1;}.cls-32{fill:#0e99a8;}.cls-33{fill:#191f33;}.cls-34{fill:#0a50a3;}</style><clipPath id="clip-path"><polygon class="cls-1" points="27.18 34.42 16.85 34.42 14.74 34.42 11.4 35.84 11.4 35.84 11.2 35.95 26.11 35.95 29.26 34.58 29.29 34.42 27.18 34.42"/></clipPath><clipPath id="clip-path-2"><polygon class="cls-1" points="27.22 34.14 16.89 34.14 14.78 34.14 11.45 35.57 11.45 35.57 11.24 35.68 26.16 35.68 29.31 34.31 29.33 34.14 27.22 34.14"/></clipPath><clipPath id="clip-path-3"><polygon class="cls-1" points="27.26 33.85 16.93 33.85 14.82 33.85 11.49 35.28 11.49 35.28 11.28 35.39 26.2 35.39 29.35 34.02 29.37 33.85 27.26 33.85"/></clipPath></defs><title>Zasób 13</title><g class="cls-2"><g id="Warstwa_2" data-name="Warstwa 2"><g id="_2" data-name="2"><rect class="cls-3" x="40.62" width="19.48" height="49.46"/><rect class="cls-4" width="41.94" height="49.46"/><rect class="cls-5" x="1.52" y="6.15" width="39.62" height="40.17"/><rect class="cls-6" x="1.12" y="6.15" width="39.62" height="40.17"/><rect class="cls-7" x="3.54" y="8.81" width="34.77" height="34.84"/><polygon class="cls-5" points="3.54 40.92 10.01 36.92 13.88 12.18 3.54 8.81 3.54 40.92"/><polygon class="cls-5" points="3.54 8.81 38.31 8.81 38.31 12.34 13.88 12.34 3.54 8.81"/><rect class="cls-7" x="2.07" y="41.29" width="36.24" height="2.43"/><polygon class="cls-8" points="2.07 40.92 38.31 40.92 38.31 36.92 10.01 36.92 2.07 40.92"/><polygon class="cls-9" points="2.07 41.26 38.31 41.26 38.31 40.92 2.07 40.92 2.07 41.26"/><polygon class="cls-5" points="34.74 15.49 14.66 15.49 12.21 31.07 32.29 31.07 34.74 15.49"/><rect class="cls-9" x="29.98" y="28.23" width="0.85" height="0.35"/><polygon class="cls-9" points="32.05 27.84 30.83 27.84 30.65 28.97 31.87 28.97 32.05 27.84"/><polygon class="cls-7" points="32.21 27.84 32.02 27.84 31.84 28.97 32.03 28.97 32.21 27.84"/><rect class="cls-9" x="30.3" y="26.33" width="0.85" height="0.35"/><polygon class="cls-9" points="32.37 25.94 31.15 25.94 30.97 27.07 32.19 27.07 32.37 25.94"/><polygon class="cls-7" points="32.53 25.94 32.34 25.94 32.16 27.07 32.35 27.07 32.53 25.94"/><rect class="cls-9" x="30.62" y="24.43" width="0.85" height="0.35"/><polygon class="cls-9" points="32.69 24.04 31.47 24.04 31.29 25.17 32.51 25.17 32.69 24.04"/><polygon class="cls-7" points="32.85 24.04 32.66 24.04 32.48 25.17 32.66 25.17 32.85 24.04"/><rect class="cls-9" x="30.94" y="22.53" width="0.85" height="0.35"/><polygon class="cls-9" points="33.01 22.14 31.79 22.14 31.61 23.27 32.83 23.27 33.01 22.14"/><polygon class="cls-7" points="33.16 22.14 32.98 22.14 32.8 23.27 32.98 23.27 33.16 22.14"/><rect class="cls-9" x="14.31" y="28.23" width="0.85" height="0.35"/><polygon class="cls-9" points="14.4 27.84 13.18 27.84 13 28.97 14.22 28.97 14.4 27.84"/><polygon class="cls-7" points="14.56 27.84 14.38 27.84 14.2 28.97 14.38 28.97 14.56 27.84"/><rect class="cls-9" x="14.63" y="26.33" width="0.85" height="0.35"/><polygon class="cls-9" points="14.72 25.94 13.5 25.94 13.32 27.07 14.54 27.07 14.72 25.94"/><polygon class="cls-7" points="14.88 25.94 14.7 25.94 14.52 27.07 14.7 27.07 14.88 25.94"/><rect class="cls-9" x="14.95" y="24.43" width="0.85" height="0.35"/><polygon class="cls-9" points="15.04 24.04 13.82 24.04 13.64 25.17 14.86 25.17 15.04 24.04"/><polygon class="cls-7" points="15.2 24.04 15.02 24.04 14.84 25.17 15.02 25.17 15.2 24.04"/><rect class="cls-9" x="15.27" y="22.53" width="0.85" height="0.35"/><polygon class="cls-9" points="15.36 22.14 14.14 22.14 13.96 23.27 15.18 23.27 15.36 22.14"/><polygon class="cls-7" points="15.52 22.14 15.34 22.14 15.16 23.27 15.34 23.27 15.52 22.14"/><polygon class="cls-10" points="32.03 16.83 16.98 16.83 14.92 29.73 29.97 29.73 32.03 16.83"/><polygon class="cls-11" points="31.88 17.76 32.03 16.83 16.98 16.83 16.83 17.76 31.88 17.76"/><polygon class="cls-12" points="32.03 16.83 16.98 16.83 14.92 29.73 32.03 16.83"/><path class="cls-13" d="M19,22.74H18.8L19,21.56h-.4l0-.19h1l0,.19h-.41Z"/><path class="cls-13" d="M20.48,22.74l-.09-.38h-.52l-.19.38h-.23l.69-1.37h.24l.33,1.37Zm-.12-.58-.08-.37a.53.53,0,0,1,0-.11c0-.06,0-.1,0-.12l-.11.25-.17.35Z"/><path class="cls-13" d="M21.93,22.74h-.26l-.34-.62-.15.1-.07.52h-.22l.18-1.37h.22l-.08.65.21-.21.43-.44h.25l-.59.6Z"/><path class="cls-13" d="M22.88,22.74h-.77l.18-1.37h.77l0,.19h-.55l0,.37H23l0,.19h-.51l-.06.43h.55Z"/><path class="cls-13" d="M24.16,22l.4-.62h.24l-.56.84-.07.53H24l.07-.53-.35-.84h.25Z"/><path class="cls-13" d="M26.1,22.05a.79.79,0,0,1-.23.52.7.7,0,0,1-.5.18.55.55,0,0,1-.45-.18.7.7,0,0,1-.09-.52.87.87,0,0,1,.23-.52.71.71,0,0,1,.5-.18.55.55,0,0,1,.45.18A.71.71,0,0,1,26.1,22.05Zm-1,0a.6.6,0,0,0,.05.38.32.32,0,0,0,.29.13.41.41,0,0,0,.32-.13.64.64,0,0,0,.15-.38.62.62,0,0,0-.05-.38.31.31,0,0,0-.28-.13.39.39,0,0,0-.32.13A.74.74,0,0,0,25.06,22.05Z"/><path class="cls-13" d="M27.56,21.37l-.12.88a.63.63,0,0,1-.1.27.51.51,0,0,1-.21.17.73.73,0,0,1-.3.06.49.49,0,0,1-.38-.13.44.44,0,0,1-.09-.37l.12-.88h.22l-.12.86a.3.3,0,0,0,.05.25.27.27,0,0,0,.23.08.33.33,0,0,0,.36-.33l.11-.86Z"/><path class="cls-13" d="M28,22.19l-.07.55h-.23l.18-1.37h.39a.58.58,0,0,1,.38.1.33.33,0,0,1,.08.3.42.42,0,0,1-.31.36l.31.61h-.26l-.25-.55ZM28,22h.16a.37.37,0,0,0,.23-.06.26.26,0,0,0,.09-.17c0-.08,0-.14-.05-.17a.42.42,0,0,0-.22-.05H28.1Z"/><path class="cls-13" d="M21.7,23.83a.43.43,0,0,0-.32.14.7.7,0,0,0-.16.38.56.56,0,0,0,.06.38.33.33,0,0,0,.29.12h.17l.17-.05,0,.19a1.1,1.1,0,0,1-.37.06.52.52,0,0,1-.44-.18.69.69,0,0,1-.09-.52.91.91,0,0,1,.13-.37.72.72,0,0,1,.25-.24.74.74,0,0,1,.36-.09.75.75,0,0,1,.37.09l-.1.19-.14-.06A.41.41,0,0,0,21.7,23.83Z"/><path class="cls-13" d="M23,25l-.08-.38h-.53l-.18.38H22l.69-1.37h.24L23.26,25Zm-.12-.58-.08-.37a.89.89,0,0,0,0-.11c0-.06,0-.1,0-.12l-.1.25-.18.35Z"/><path class="cls-13" d="M24.27,24.66a.37.37,0,0,1-.17.28.6.6,0,0,1-.37.1.76.76,0,0,1-.37-.07l0-.21a1,1,0,0,0,.18.07l.2,0a.37.37,0,0,0,.2-.05.2.2,0,0,0,.08-.14.16.16,0,0,0,0-.13.88.88,0,0,0-.22-.13.46.46,0,0,1-.24-.17A.3.3,0,0,1,23.5,24a.42.42,0,0,1,.16-.27.6.6,0,0,1,.34-.1.81.81,0,0,1,.37.09l-.09.18a.83.83,0,0,0-.31-.08.32.32,0,0,0-.18.05.19.19,0,0,0-.07.13.28.28,0,0,0,0,.09.23.23,0,0,0,.07.07l.17.09.2.11a.22.22,0,0,1,.09.13A.27.27,0,0,1,24.27,24.66Z"/><path class="cls-13" d="M25.56,25h-.22l.08-.62h-.63l-.08.62h-.22l.18-1.37h.22l-.07.56h.63l.07-.56h.22Z"/><polygon class="cls-14" points="17.21 16.83 16.95 16.83 14.9 29.73 15.16 29.73 17.21 16.83"/><polygon class="cls-15" points="7.46 9.34 38.31 9.34 38.31 11.81 14.68 11.81 7.46 9.34"/><polygon class="cls-16" points="13.78 32.56 13.4 34.96 29.82 34.96 30.2 32.56 13.78 32.56"/><path class="cls-6" d="M13.78,32.56,13.4,35H29.82l.38-2.4Zm15.74,2.17H14.38l.31-1.94H29.82Z"/><polygon class="cls-6" points="13.63 33.5 13.4 34.96 29.82 34.96 30.05 33.5 13.63 33.5"/><polygon class="cls-17" points="14.81 33.7 14.64 34.75 29.24 34.75 29.4 33.7 14.81 33.7"/><g class="cls-18"><polygon class="cls-19" points="11.6 35.95 11.65 35.75 16.04 34.04 30.59 33.84 30.57 34.02 26.11 35.95 11.6 35.95"/><polygon class="cls-20" points="11.65 35.75 16.08 33.84 30.59 33.84 26.16 35.75 11.65 35.75"/><path class="cls-21" d="M19.89,35.32c-1.18,0-1.58-.23-.9-.52a10.28,10.28,0,0,1,3.36-.53c1.18,0,1.58.23.9.53A10.58,10.58,0,0,1,19.89,35.32Z"/><path class="cls-22" d="M24.84,35.05c-.57,0-.76-.11-.43-.25A4.75,4.75,0,0,1,26,34.54c.57,0,.76.11.43.26A5,5,0,0,1,24.84,35.05Z"/><path class="cls-22" d="M16.22,35.05c-.57,0-.76-.11-.43-.25a4.75,4.75,0,0,1,1.61-.26c.57,0,.76.11.43.26A5,5,0,0,1,16.22,35.05Z"/><path class="cls-21" d="M30.59,33.84H16.08l-4.43,1.91H26.16ZM12.31,35.65l4-1.71H29.93l-4,1.71Z"/><path class="cls-21" d="M29.36,34.32h.12l1.11-.48h-2.1C27.9,34.11,28.28,34.32,29.36,34.32Z"/><path class="cls-21" d="M24.05,35.75h2.11l1.11-.48h-.1A10,10,0,0,0,24.05,35.75Z"/><path class="cls-21" d="M15.07,34.32a10,10,0,0,0,3.12-.48H16.08L15,34.32Z"/><path class="cls-21" d="M12.87,35.27h-.11l-1.11.48h2.1C14.34,35.48,14,35.27,12.87,35.27Z"/><path class="cls-22" d="M21.13,35c.05,0,.07,0,.05-.06l-.2,0a1.43,1.43,0,0,1-.42-.08c-.06,0,0-.07.1-.12a2,2,0,0,1,.48-.13,4.68,4.68,0,0,1,.67-.05l.22-.1h.29l-.23.1a.73.73,0,0,1,.36.06s0,.08-.13.13h-.53c.08,0,.11-.06.09-.08s-.08,0-.19,0a1.28,1.28,0,0,0-.29,0,.64.64,0,0,0-.22.06c-.05,0-.07,0-.05.05l.21,0a1.45,1.45,0,0,1,.41.07c.06,0,0,.08-.1.13a2,2,0,0,1-.48.13,4.54,4.54,0,0,1-.66.05l-.21.09H20l.21-.09a1.08,1.08,0,0,1-.44-.06c-.07,0,0-.08.13-.14h.52c-.09,0-.12.06-.08.08a.69.69,0,0,0,.24,0,1.47,1.47,0,0,0,.31,0A.7.7,0,0,0,21.13,35Z"/></g><g class="cls-23"><polygon class="cls-19" points="11.64 35.67 11.69 35.47 16.08 33.77 30.64 33.57 30.61 33.75 26.15 35.67 11.64 35.67"/><polygon class="cls-20" points="11.69 35.47 16.13 33.57 30.64 33.57 26.2 35.47 11.69 35.47"/><path class="cls-21" d="M19.93,35.05c-1.18,0-1.58-.24-.9-.53A10.62,10.62,0,0,1,22.4,34c1.17,0,1.58.24.9.53A10.62,10.62,0,0,1,19.93,35.05Z"/><path class="cls-22" d="M24.88,34.77c-.56,0-.76-.11-.43-.25a5.08,5.08,0,0,1,1.61-.25c.57,0,.76.11.44.25A5.1,5.1,0,0,1,24.88,34.77Z"/><path class="cls-22" d="M16.26,34.77c-.56,0-.76-.11-.43-.25a5.08,5.08,0,0,1,1.61-.25c.57,0,.76.11.44.25A5.1,5.1,0,0,1,16.26,34.77Z"/><path class="cls-21" d="M30.64,33.57H16.13l-4.44,1.9H26.2Zm-18.29,1.8,4-1.7H30l-4,1.7Z"/><path class="cls-21" d="M29.41,34.05h.11l1.12-.48H28.53C27.94,33.83,28.32,34.05,29.41,34.05Z"/><path class="cls-21" d="M24.09,35.47H26.2L27.31,35h-.1A10.33,10.33,0,0,0,24.09,35.47Z"/><path class="cls-21" d="M15.11,34.05a10.23,10.23,0,0,0,3.12-.48h-2.1L15,34.05Z"/><path class="cls-21" d="M12.92,35H12.8l-1.11.48H13.8C14.38,35.21,14,35,12.92,35Z"/><path class="cls-22" d="M21.17,34.68c.06,0,.07,0,0-.06a.46.46,0,0,0-.2,0,1.89,1.89,0,0,1-.42-.08c-.06,0,0-.07.1-.13a2.08,2.08,0,0,1,.48-.12,6.67,6.67,0,0,1,.67-.06l.22-.09h.29l-.23.09a.88.88,0,0,1,.36.06c.05,0,0,.08-.13.14h-.52c.07,0,.1-.06.08-.07s-.08,0-.19,0l-.29,0-.21.06c-.06,0-.07,0-.05.06l.2,0a1.43,1.43,0,0,1,.42.08c.06,0,0,.07-.1.13a2.19,2.19,0,0,1-.49.12,6.21,6.21,0,0,1-.66.06l-.21.08h-.28l.2-.08a1.46,1.46,0,0,1-.43-.06q-.1,0,.12-.15h.52c-.09,0-.11.07-.08.08a.62.62,0,0,0,.24,0l.32,0Z"/></g><g class="cls-24"><polygon class="cls-25" points="11.69 35.38 11.73 35.18 16.13 33.48 30.68 33.28 30.65 33.46 26.2 35.38 11.69 35.38"/><polygon class="cls-26" points="11.73 35.18 16.17 33.28 30.68 33.28 26.24 35.18 11.73 35.18"/><path class="cls-27" d="M20,34.76c-1.18,0-1.58-.24-.9-.53a10.62,10.62,0,0,1,3.37-.53c1.18,0,1.58.24.9.53A10.62,10.62,0,0,1,20,34.76Z"/><path class="cls-28" d="M24.92,34.49c-.56,0-.76-.12-.43-.26A5.1,5.1,0,0,1,26.11,34c.56,0,.76.11.43.25A5.08,5.08,0,0,1,24.92,34.49Z"/><path class="cls-28" d="M16.3,34.49c-.56,0-.76-.12-.43-.26A5.1,5.1,0,0,1,17.49,34c.56,0,.76.11.43.25A5.08,5.08,0,0,1,16.3,34.49Z"/><path class="cls-27" d="M30.68,33.28H16.17l-4.44,1.9H26.24ZM12.4,35.08l4-1.7H30l-4,1.7Z"/><path class="cls-27" d="M29.45,33.76h.11l1.12-.48H28.57C28,33.55,28.36,33.76,29.45,33.76Z"/><path class="cls-27" d="M24.14,35.18h2.1l1.12-.48h-.1A10.23,10.23,0,0,0,24.14,35.18Z"/><path class="cls-27" d="M15.16,33.76a10,10,0,0,0,3.12-.48H16.17l-1.12.48Z"/><path class="cls-27" d="M13,34.7h-.11l-1.12.48h2.11C14.43,34.92,14.05,34.7,13,34.7Z"/><path class="cls-28" d="M21.21,34.39c.06,0,.08,0,.06-.06a.82.82,0,0,0-.21,0,2.2,2.2,0,0,1-.42-.08c-.06,0,0-.07.1-.13a2.05,2.05,0,0,1,.49-.12,6.47,6.47,0,0,1,.66-.06l.22-.09h.29l-.22.09a.75.75,0,0,1,.36.07s0,.07-.14.13h-.52C22,34.07,22,34,22,34a.36.36,0,0,0-.19,0l-.3,0-.21.06c-.05,0-.07,0-.05.06a.72.72,0,0,0,.21,0,1.41,1.41,0,0,1,.41.08c.06,0,0,.07-.1.13a2.05,2.05,0,0,1-.49.12,6.21,6.21,0,0,1-.66.06l-.2.09H20.1l.21-.09a1.55,1.55,0,0,1-.44-.06c-.07,0,0-.08.12-.14h.53c-.09,0-.12.07-.08.08a.56.56,0,0,0,.23,0l.32,0Z"/></g><polygon class="cls-29" points="15.66 37.33 9.57 40.4 20.04 40.4 26.13 37.33 15.66 37.33"/><polygon class="cls-30" points="15.82 37.45 25.88 37.45 26.13 37.33 15.66 37.33 9.57 40.4 9.99 40.4 15.82 37.45"/><path class="cls-30" d="M16.39,38.25h-1c-.13,0-.14,0,0-.1l.64-.32a1.12,1.12,0,0,1,.43-.1h1c.13,0,.14,0,0,.1l-.65.32A1.23,1.23,0,0,1,16.39,38.25Z"/><rect class="cls-30" x="15.25" y="38.08" width="0.18" height="0.13"/><rect class="cls-30" x="17.35" y="37.62" width="0.18" height="0.13"/><path class="cls-16" d="M16.39,38.12h-1c-.13,0-.14,0,0-.1L16,37.7a1.12,1.12,0,0,1,.43-.1h1c.13,0,.14,0,0,.1l-.65.32A1.23,1.23,0,0,1,16.39,38.12Z"/><path class="cls-31" d="M17.53,37.62l-.05,0-.65.33a1.05,1.05,0,0,1-.43.11h-1l-.1,0s0,0,.1,0h1a1.23,1.23,0,0,0,.42-.1l.65-.32C17.52,37.66,17.54,37.64,17.53,37.62Z"/><path class="cls-30" d="M18.1,38.25h-1c-.13,0-.14,0,0-.1l.65-.32a1,1,0,0,1,.42-.1h1c.13,0,.14,0,0,.1l-.65.32A1.23,1.23,0,0,1,18.1,38.25Z"/><rect class="cls-30" x="16.97" y="38.08" width="0.18" height="0.13"/><rect class="cls-30" x="19.07" y="37.62" width="0.18" height="0.13"/><path class="cls-16" d="M18.1,38.12h-1c-.13,0-.14,0,0-.1l.65-.32a1,1,0,0,1,.42-.1h1c.13,0,.14,0,0,.1l-.65.32A1.23,1.23,0,0,1,18.1,38.12Z"/><path class="cls-31" d="M19.24,37.62l0,0-.65.33a1.05,1.05,0,0,1-.43.11h-1a.19.19,0,0,1-.1,0s0,0,.1,0h1a1.23,1.23,0,0,0,.42-.1l.65-.32C19.23,37.66,19.26,37.64,19.24,37.62Z"/><path class="cls-30" d="M19.81,38.25h-1c-.13,0-.14,0,0-.1l.65-.32a1,1,0,0,1,.42-.1h1c.13,0,.14,0,0,.1l-.65.32A1.23,1.23,0,0,1,19.81,38.25Z"/><rect class="cls-30" x="18.68" y="38.08" width="0.18" height="0.13"/><rect class="cls-30" x="20.78" y="37.62" width="0.18" height="0.13"/><path class="cls-16" d="M19.81,38.12h-1c-.13,0-.14,0,0-.1l.65-.32a1,1,0,0,1,.42-.1h1c.13,0,.14,0,0,.1l-.65.32A1.23,1.23,0,0,1,19.81,38.12Z"/><path class="cls-31" d="M21,37.62l-.05,0-.65.33a1.05,1.05,0,0,1-.43.11h-1a.22.22,0,0,1-.1,0s0,0,.1,0h1a1.23,1.23,0,0,0,.42-.1l.65-.32C20.94,37.66,21,37.64,21,37.62Z"/><path class="cls-30" d="M15.15,38.87h-1c-.12,0-.13,0,0-.1l.64-.32a1.23,1.23,0,0,1,.43-.1h1c.12,0,.13,0,0,.1l-.64.32A1,1,0,0,1,15.15,38.87Z"/><rect class="cls-30" x="14.02" y="38.7" width="0.18" height="0.13"/><rect class="cls-30" x="16.12" y="38.25" width="0.18" height="0.13"/><path class="cls-16" d="M15.15,38.74h-1c-.12,0-.13,0,0-.1l.64-.32a1.23,1.23,0,0,1,.43-.1h1c.12,0,.13.05,0,.1l-.64.32A1,1,0,0,1,15.15,38.74Z"/><path class="cls-31" d="M16.29,38.24l0,0-.65.34a1.08,1.08,0,0,1-.43.1h-1a.16.16,0,0,1-.1,0s0,.05.09.05h1a1,1,0,0,0,.43-.1l.64-.32C16.29,38.29,16.31,38.26,16.29,38.24Z"/><path class="cls-30" d="M16.86,38.87h-1c-.12,0-.13,0,0-.1l.64-.32a1.23,1.23,0,0,1,.43-.1h1c.12,0,.13,0,0,.1l-.64.32A1,1,0,0,1,16.86,38.87Z"/><rect class="cls-30" x="15.73" y="38.7" width="0.18" height="0.13"/><rect class="cls-30" x="17.83" y="38.25" width="0.18" height="0.13"/><path class="cls-16" d="M16.86,38.74h-1c-.12,0-.13,0,0-.1l.64-.32a1.23,1.23,0,0,1,.43-.1h1c.12,0,.13.05,0,.1l-.64.32A1,1,0,0,1,16.86,38.74Z"/><path class="cls-31" d="M18,38.24l0,0-.65.34a1.08,1.08,0,0,1-.43.1h-1a.16.16,0,0,1-.1,0s0,.05.09.05h1a1,1,0,0,0,.43-.1l.64-.32C18,38.29,18,38.26,18,38.24Z"/><path class="cls-30" d="M18.57,38.87h-1c-.12,0-.13,0,0-.1l.64-.32a1.23,1.23,0,0,1,.43-.1h1c.12,0,.13,0,0,.1l-.64.32A1,1,0,0,1,18.57,38.87Z"/><rect class="cls-30" x="17.44" y="38.7" width="0.18" height="0.13"/><rect class="cls-30" x="19.54" y="38.25" width="0.18" height="0.13"/><path class="cls-16" d="M18.57,38.74h-1c-.12,0-.13,0,0-.1l.64-.32a1.23,1.23,0,0,1,.43-.1h1c.12,0,.13.05,0,.1l-.64.32A1,1,0,0,1,18.57,38.74Z"/><path class="cls-31" d="M19.71,38.24l0,0-.65.34a1.08,1.08,0,0,1-.43.1h-1a.16.16,0,0,1-.1,0s0,.05.09.05h1a1,1,0,0,0,.43-.1l.64-.32C19.71,38.29,19.73,38.26,19.71,38.24Z"/><path class="cls-30" d="M13.91,39.5h-1c-.12,0-.14,0,0-.1l.64-.32a1,1,0,0,1,.43-.1h1c.12,0,.13,0,0,.1l-.64.32A1.28,1.28,0,0,1,13.91,39.5Z"/><rect class="cls-30" x="12.78" y="39.33" width="0.18" height="0.13"/><rect class="cls-30" x="14.88" y="38.87" width="0.18" height="0.13"/><path class="cls-16" d="M13.91,39.37h-1c-.12,0-.14,0,0-.1L13.5,39a1,1,0,0,1,.43-.1h1c.12,0,.13,0,0,.1l-.64.32A1.28,1.28,0,0,1,13.91,39.37Z"/><path class="cls-31" d="M15.05,38.87l0,0-.65.33a1.14,1.14,0,0,1-.44.11h-1a.14.14,0,0,1-.09,0s0,0,.09,0h1a1.28,1.28,0,0,0,.43-.1L15,39C15.05,38.92,15.07,38.89,15.05,38.87Z"/><path class="cls-30" d="M15.62,39.5h-1c-.12,0-.14,0,0-.1l.64-.32a1,1,0,0,1,.43-.1h1c.12,0,.13,0,0,.1l-.64.32A1.28,1.28,0,0,1,15.62,39.5Z"/><rect class="cls-30" x="14.49" y="39.33" width="0.18" height="0.13"/><rect class="cls-30" x="16.59" y="38.87" width="0.18" height="0.13"/><path class="cls-16" d="M15.62,39.37h-1c-.12,0-.14,0,0-.1l.64-.32a1,1,0,0,1,.43-.1h1c.12,0,.13,0,0,.1l-.64.32A1.28,1.28,0,0,1,15.62,39.37Z"/><path class="cls-31" d="M16.76,38.87l0,0-.65.33a1.14,1.14,0,0,1-.44.11h-1a.14.14,0,0,1-.09,0s0,0,.09,0h1a1.28,1.28,0,0,0,.43-.1l.64-.32C16.76,38.92,16.78,38.89,16.76,38.87Z"/><path class="cls-30" d="M17.33,39.5h-1c-.12,0-.14,0,0-.1l.64-.32a1,1,0,0,1,.43-.1h1c.12,0,.13,0,0,.1l-.64.32A1.23,1.23,0,0,1,17.33,39.5Z"/><rect class="cls-30" x="16.2" y="39.33" width="0.18" height="0.13"/><rect class="cls-30" x="18.3" y="38.87" width="0.18" height="0.13"/><path class="cls-16" d="M17.33,39.37h-1c-.12,0-.14,0,0-.1l.64-.32a1,1,0,0,1,.43-.1h1c.12,0,.13,0,0,.1l-.64.32A1.23,1.23,0,0,1,17.33,39.37Z"/><path class="cls-31" d="M18.47,38.87l0,0-.65.33a1.14,1.14,0,0,1-.44.11h-1a.14.14,0,0,1-.09,0s0,0,.09,0h1a1.23,1.23,0,0,0,.43-.1L18.4,39C18.47,38.92,18.49,38.89,18.47,38.87Z"/><path class="cls-30" d="M12.68,40.12h-1c-.13,0-.14,0,0-.1l.65-.32a1.23,1.23,0,0,1,.42-.1h1c.13,0,.14,0,0,.1L13.1,40A1,1,0,0,1,12.68,40.12Z"/><rect class="cls-30" x="11.54" y="39.95" width="0.18" height="0.13"/><rect class="cls-30" x="13.64" y="39.5" width="0.18" height="0.13"/><path class="cls-16" d="M12.68,40h-1c-.13,0-.14,0,0-.1l.65-.32a1.23,1.23,0,0,1,.42-.1h1c.13,0,.14.05,0,.1l-.65.32A1,1,0,0,1,12.68,40Z"/><path class="cls-31" d="M13.82,39.49l-.05,0-.65.34a1,1,0,0,1-.43.1h-1c-.05,0-.09,0-.1,0s0,.05.1.05h1a1,1,0,0,0,.42-.1l.65-.32C13.81,39.54,13.84,39.51,13.82,39.49Z"/><path class="cls-30" d="M14.39,40.12h-1c-.13,0-.14,0,0-.1L14,39.7a1.23,1.23,0,0,1,.42-.1h1c.13,0,.14,0,0,.1l-.65.32A1,1,0,0,1,14.39,40.12Z"/><rect class="cls-30" x="13.26" y="39.95" width="0.18" height="0.13"/><rect class="cls-30" x="15.36" y="39.5" width="0.18" height="0.13"/><path class="cls-16" d="M14.39,40h-1c-.13,0-.14,0,0-.1l.65-.32a1.23,1.23,0,0,1,.42-.1h1c.13,0,.14.05,0,.1l-.65.32A1,1,0,0,1,14.39,40Z"/><path class="cls-31" d="M15.53,39.49l0,0-.65.34a1,1,0,0,1-.43.1h-1s-.09,0-.1,0,0,.05.1.05h1a1,1,0,0,0,.42-.1l.65-.32C15.52,39.54,15.55,39.51,15.53,39.49Z"/><path class="cls-30" d="M16.1,40.12h-1c-.13,0-.14,0,0-.1l.65-.32a1.23,1.23,0,0,1,.42-.1h1c.13,0,.14,0,0,.1l-.65.32A1,1,0,0,1,16.1,40.12Z"/><rect class="cls-30" x="14.97" y="39.95" width="0.18" height="0.13"/><rect class="cls-30" x="17.07" y="39.5" width="0.18" height="0.13"/><path class="cls-16" d="M16.1,40h-1c-.13,0-.14,0,0-.1l.65-.32a1.23,1.23,0,0,1,.42-.1h1c.13,0,.14.05,0,.1l-.65.32A1,1,0,0,1,16.1,40Z"/><path class="cls-31" d="M17.24,39.49l0,0-.65.34a1,1,0,0,1-.43.1h-1c-.05,0-.08,0-.1,0s0,.05.1.05h1a1,1,0,0,0,.42-.1l.65-.32C17.23,39.54,17.26,39.51,17.24,39.49Z"/><path class="cls-30" d="M23.15,38.25H21.4c-.13,0-.14,0,0-.1l.64-.32a1.12,1.12,0,0,1,.43-.1H24.2c.12,0,.13,0,0,.1l-.64.32A1.28,1.28,0,0,1,23.15,38.25Z"/><rect class="cls-30" x="21.29" y="38.08" width="0.18" height="0.13"/><rect class="cls-30" x="24.12" y="37.62" width="0.18" height="0.13"/><path class="cls-16" d="M23.15,38.12H21.4c-.13,0-.14,0,0-.1L22,37.7a1.12,1.12,0,0,1,.43-.1H24.2c.12,0,.13,0,0,.1l-.64.32A1.28,1.28,0,0,1,23.15,38.12Z"/><path class="cls-31" d="M24.29,37.62l0,0L23.6,38a1.14,1.14,0,0,1-.44.11H21.4l-.1,0s0,0,.1,0h1.75a1.28,1.28,0,0,0,.43-.1l.64-.32C24.29,37.66,24.31,37.64,24.29,37.62Z"/><path class="cls-30" d="M21.92,38.87H20.16c-.12,0-.13,0,0-.1l.64-.32a1.23,1.23,0,0,1,.43-.1H23c.13,0,.14,0,0,.1l-.65.32A1,1,0,0,1,21.92,38.87Z"/><rect class="cls-30" x="20.06" y="38.7" width="0.18" height="0.13"/><rect class="cls-30" x="22.89" y="38.25" width="0.18" height="0.13"/><path class="cls-16" d="M21.92,38.74H20.16c-.12,0-.13,0,0-.1l.64-.32a1.23,1.23,0,0,1,.43-.1H23c.13,0,.14.05,0,.1l-.65.32A1,1,0,0,1,21.92,38.74Z"/><path class="cls-31" d="M23.06,38.24l0,0-.65.34a1,1,0,0,1-.43.1H20.16a.14.14,0,0,1-.09,0s0,.05.09.05h1.76a1,1,0,0,0,.42-.1l.65-.32C23.05,38.29,23.08,38.26,23.06,38.24Z"/><path class="cls-30" d="M20.67,39.5H18.92c-.13,0-.14,0,0-.1l.65-.32A1,1,0,0,1,20,39h1.76c.12,0,.14,0,0,.1l-.64.32A1.23,1.23,0,0,1,20.67,39.5Z"/><rect class="cls-30" x="18.82" y="39.33" width="0.18" height="0.13"/><rect class="cls-30" x="21.64" y="38.87" width="0.18" height="0.13"/><path class="cls-16" d="M20.67,39.37H18.92c-.13,0-.14,0,0-.1l.65-.32a1,1,0,0,1,.42-.1h1.76c.12,0,.14,0,0,.1l-.64.32A1.23,1.23,0,0,1,20.67,39.37Z"/><path class="cls-31" d="M21.82,38.87l-.05,0-.65.33a1.09,1.09,0,0,1-.43.11H18.92a.14.14,0,0,1-.09,0s0,0,.09,0h1.75a1.23,1.23,0,0,0,.43-.1l.64-.32C21.81,38.92,21.83,38.89,21.82,38.87Z"/><path class="cls-30" d="M19.44,40.12H17.69c-.13,0-.14,0,0-.1l.64-.32a1.34,1.34,0,0,1,.43-.1h1.76c.12,0,.13,0,0,.1l-.64.32A1.08,1.08,0,0,1,19.44,40.12Z"/><rect class="cls-30" x="17.58" y="39.95" width="0.18" height="0.13"/><rect class="cls-30" x="20.41" y="39.5" width="0.18" height="0.13"/><path class="cls-16" d="M19.44,40H17.69c-.13,0-.14,0,0-.1l.64-.32a1.34,1.34,0,0,1,.43-.1h1.76c.12,0,.13.05,0,.1l-.64.32A1.08,1.08,0,0,1,19.44,40Z"/><path class="cls-31" d="M20.58,39.49l0,0-.65.34a1.13,1.13,0,0,1-.44.1H17.69c-.05,0-.09,0-.1,0s0,.05.1.05h1.75a1.08,1.08,0,0,0,.43-.1l.64-.32C20.58,39.54,20.6,39.51,20.58,39.49Z"/><polygon class="cls-16" points="34.69 20.79 34.24 23.62 38.31 23.62 38.31 20.79 34.69 20.79"/><path class="cls-6" d="M34.69,20.79l-.45,2.83h4.07V20.79Zm3.62,2.56H35.39l.37-2.3h2.55Z"/><polygon class="cls-6" points="34.51 21.89 34.24 23.62 38.31 23.62 38.31 21.89 34.51 21.89"/><polygon class="cls-5" points="35.86 22.36 35.71 23.38 38.31 23.38 38.31 22.36 35.86 22.36"/><polygon class="cls-17" points="35.93 23.25 38.31 23.25 38.31 22.48 36.04 22.48 35.93 23.25"/><polygon class="cls-32" points="35.09 22.97 38.31 22.97 38.31 22.73 35.13 22.73 35.09 22.97"/><polygon class="cls-33" points="35.9 22.73 35.86 22.97 36.98 22.97 37.01 22.73 35.9 22.73"/><path class="cls-8" d="M34.73,27.54l-.22,1.4a.37.37,0,0,0,.36.43h3.44V27.23H35.09A.37.37,0,0,0,34.73,27.54Z"/><polygon class="cls-5" points="35.08 28.53 38.31 28.53 38.31 28.07 35.16 28.07 35.08 28.53"/><polygon class="cls-17" points="35.84 28.41 35.83 28.53 36.02 28.53 36.04 28.41 35.84 28.41"/><polygon class="cls-17" points="37.09 28.41 37.07 28.53 37.27 28.53 37.29 28.41 37.09 28.41"/><polygon class="cls-8" points="35.94 28.57 35.74 28.57 35.77 28.41 35.97 28.41 35.94 28.57"/><polygon class="cls-8" points="37.19 28.57 36.99 28.57 37.02 28.41 37.21 28.41 37.19 28.57"/><polygon class="cls-8" points="38.31 28.57 38.24 28.57 38.27 28.41 38.31 28.41 38.31 28.57"/><polygon class="cls-17" points="35.24 28.26 38.31 28.26 38.31 28.07 35.27 28.07 35.24 28.26"/><rect class="cls-34" x="52.13" y="6" width="7.97" height="2.13"/><rect class="cls-34" x="52.13" y="10.02" width="7.97" height="2.13"/><rect class="cls-34" x="52.13" y="14.05" width="7.97" height="2.13"/></g></g></g></svg>