<svg xmlns="http://www.w3.org/2000/svg" viewBox="0 0 50.38 31.13"><defs><style>.cls-1{isolation:isolate;}.cls-2{fill:#0e99a8;}.cls-3{fill:#191f33;}.cls-4{fill:#30d6e2;}.cls-5{fill:#282e47;}.cls-6{fill:#99fdff;}.cls-7{fill:#ff971a;}.cls-8{fill:#ffe83e;}.cls-9{fill:#fff;opacity:0.2;mix-blend-mode:screen;}</style></defs><title>Zasób 14</title><g class="cls-1"><g id="Warstwa_2" data-name="Warstwa 2"><g id="_2" data-name="2"><rect class="cls-2" x="1.18" width="49.2" height="31.13" rx="3.68"/><rect class="cls-3" x="1.18" y="7.17" width="49.2" height="4.76"/><rect class="cls-4" width="49.2" height="31.13" rx="3.68"/><rect class="cls-5" y="7.17" width="49.2" height="4.76"/><rect class="cls-6" x="2.71" y="16.38" width="16.13" height="1.75"/><rect class="cls-6" x="2.71" y="20.57" width="12.78" height="1.75"/><rect class="cls-6" x="16.8" y="20.57" width="10.17" height="1.75"/><rect class="cls-6" x="9.98" y="24.77" width="17" height="1.75"/><rect class="cls-6" x="2.71" y="24.77" width="6" height="1.75"/><path class="cls-7" d="M39.63,21.45a4,4,0,1,1-4-4A4,4,0,0,1,39.63,21.45Z"/><path class="cls-8" d="M46.23,21.45a4,4,0,1,1-4-4A4,4,0,0,1,46.23,21.45Z"/><path class="cls-9" d="M48.6,1.69a3.53,3.53,0,0,0-3-1.69h-42A3.69,3.69,0,0,0,0,3.79V27.34a3.89,3.89,0,0,0,.78,2.33Z"/></g></g></g></svg>