<svg xmlns="http://www.w3.org/2000/svg" viewBox="0 0 50.88 30.77"><defs><style>.cls-1{isolation:isolate;}.cls-2{fill:#f99d4b;}.cls-3{fill:#ffbe69;}.cls-4{fill:#efdfeb;}.cls-5{fill:#ff9831;}.cls-6{fill:#ffd833;}.cls-7{fill:#ff822e;}.cls-12,.cls-8,.cls-9{fill:#fff466;}.cls-10,.cls-9{opacity:0.6;}.cls-10,.cls-11,.cls-12,.cls-9{mix-blend-mode:screen;}.cls-11,.cls-12{opacity:0.5;}.cls-13{fill:#282e47;}</style></defs><title>Zasób 15</title><g class="cls-1"><g id="Warstwa_2" data-name="Warstwa 2"><g id="_2" data-name="2"><path class="cls-2" d="M19.73,1.51c-2.1.42-6.24,4.56-8.59,8.25A9.26,9.26,0,0,0,9.4,14c-.08,2.82,3.34,9.63,4.12,10.74,1.34,1.91,3.7,1.27,2.89-1.17-.47-1.39-2.72-6.39-2.27-7.84.39-1.24,3.18-4.15,5.48-5.24C21.88,8.8,25.85.29,19.73,1.51Z"/><path class="cls-2" d="M18.17,2.4a46.22,46.22,0,0,0-11.83,4C4.62,7.47.45,11.37.09,12.45A1.38,1.38,0,0,0,1.9,14.27C3.26,13.81,6.52,11,8,10.19S18.58,7.43,18.58,7.43Z"/><path class="cls-2" d="M23.2,1.19c-2.86,0-11.09,0-13.08.45S2.74,3,2,3.87A1.38,1.38,0,0,0,3.08,6.2a58.94,58.94,0,0,0,7.23-.42C12,5.53,21.13,6.92,21.13,6.92Z"/><path class="cls-3" d="M18.17,2.4c-3,.61-9.67,8-9.77,11.6-.08,2.82,3.33,9.63,4.12,10.74,1.34,1.91,3.7,1.27,2.88-1.17-.46-1.39-2.72-6.39-2.26-7.84a8.72,8.72,0,0,1,5.28-4.79Z"/><rect class="cls-4" x="35.38" y="5.85" width="17.13" height="6.8" transform="translate(34.7 53.19) rotate(-90)"/><path class="cls-5" d="M22.72,24.77a6,6,0,0,0-5.84-6H15.49l.07.11a6,6,0,0,0,0,11.78s-.08.1,0,.11c.49,0,1.32,0,1.32,0A6,6,0,0,0,22.72,24.77Z"/><path class="cls-6" d="M21.57,24.77a6,6,0,1,1-6-6A6,6,0,0,1,21.57,24.77Z"/><path class="cls-5" d="M16,18.77a6,6,0,1,0,6,6A6,6,0,0,0,16,18.77Zm0,11.46a5.46,5.46,0,1,1,5.48-5.45A5.46,5.46,0,0,1,15.92,30.23Z"/><path class="cls-7" d="M18.61,19.07H17.4a6.65,6.65,0,0,1,1.13.49h1.18A6,6,0,0,0,18.61,19.07Z"/><path class="cls-7" d="M19.28,20.07a4.43,4.43,0,0,1,.58.49H21a3.34,3.34,0,0,0-.33-.32l-.22-.17Z"/><path class="cls-7" d="M20.27,21.06a4.49,4.49,0,0,1,.37.49h1.14c-.07-.11-.13-.21-.2-.3s-.11-.13-.16-.19Z"/><path class="cls-7" d="M20.91,22.05c.08.16.17.32.24.49h1.14c-.05-.13-.11-.26-.17-.38l-.06-.11Z"/><path class="cls-7" d="M21.31,23c.05.16.11.32.15.49h1.13c0-.14-.06-.27-.09-.4a.36.36,0,0,1,0-.09Z"/><path class="cls-7" d="M21.52,24c0,.16,0,.32.05.49h1.15c0-.1,0-.2,0-.31l0-.18Z"/><path class="cls-7" d="M21.52,25.51h1.15l0-.19c0-.1,0-.2,0-.3H21.57C21.56,25.19,21.54,25.35,21.52,25.51Z"/><path class="cls-7" d="M21.31,26.5h1.15l0-.1c0-.12.07-.26.1-.39H21.46C21.42,26.18,21.36,26.34,21.31,26.5Z"/><path class="cls-7" d="M20.91,27.49h1.15l.06-.11c.06-.12.12-.25.17-.38H21.15C21.08,27.17,21,27.33,20.91,27.49Z"/><path class="cls-7" d="M20.27,28.48h1.15c0-.06.1-.13.16-.19l.2-.3H20.64A4.49,4.49,0,0,1,20.27,28.48Z"/><path class="cls-7" d="M19.27,29.47h1.16l.22-.18L21,29H19.86A4.65,4.65,0,0,1,19.27,29.47Z"/><path class="cls-7" d="M17.38,30.46h1.18A5.15,5.15,0,0,0,19.69,30H18.52A5.23,5.23,0,0,1,17.38,30.46Z"/><path class="cls-8" d="M15.56,18.77a6,6,0,1,0,6,6A6,6,0,0,0,15.56,18.77Zm0,11.46A5.46,5.46,0,1,1,21,24.77,5.46,5.46,0,0,1,15.56,30.23Z"/><path class="cls-5" d="M16.52,26.39a.85.85,0,0,0-.22-.61,2,2,0,0,0-.76-.43A4.16,4.16,0,0,1,14,24.54,1.89,1.89,0,0,1,14,22a2.16,2.16,0,0,1,1.35-.58v-1h.73v1a2,2,0,0,1,1.29.65,1.94,1.94,0,0,1,.45,1.37v0h-1.3a1.15,1.15,0,0,0-.23-.76.77.77,0,0,0-.63-.27.75.75,0,0,0-.62.22.89.89,0,0,0-.19.61.76.76,0,0,0,.2.56,2.33,2.33,0,0,0,.78.45,3.93,3.93,0,0,1,1.51.81,1.9,1.9,0,0,1,0,2.58,2.14,2.14,0,0,1-1.35.56v.9h-.73v-.9a2.4,2.4,0,0,1-1.44-.58,1.83,1.83,0,0,1-.55-1.48l0,0h1.29a1.08,1.08,0,0,0,.29.84,1.12,1.12,0,0,0,.74.24.9.9,0,0,0,.67-.22A.78.78,0,0,0,16.52,26.39Z"/><path class="cls-8" d="M16.21,26.39a.89.89,0,0,0-.21-.61,2.2,2.2,0,0,0-.77-.43,4.25,4.25,0,0,1-1.53-.81,1.92,1.92,0,0,1,0-2.56,2.18,2.18,0,0,1,1.36-.58v-1h.72v1a2,2,0,0,1,1.29.65,1.94,1.94,0,0,1,.45,1.37v0h-1.3a1.15,1.15,0,0,0-.22-.76.8.8,0,0,0-.64-.27.78.78,0,0,0-.62.22.89.89,0,0,0-.19.61.8.8,0,0,0,.2.56,2.57,2.57,0,0,0,.78.45,4,4,0,0,1,1.52.81,1.73,1.73,0,0,1,.5,1.31,1.68,1.68,0,0,1-.49,1.27,2.17,2.17,0,0,1-1.36.56v.9H15v-.9a2.4,2.4,0,0,1-1.44-.58A1.83,1.83,0,0,1,13,26.15v0h1.3a1.08,1.08,0,0,0,.28.84,1.13,1.13,0,0,0,.75.24A.9.9,0,0,0,16,27,.77.77,0,0,0,16.21,26.39Z"/><path class="cls-9" d="M9.56,24.77A6,6,0,0,0,11.33,29l.38-.38a5.46,5.46,0,1,1,7.72-7.73l.39-.38h0a6.21,6.21,0,0,0-.79-.65l-.09-.08a4.87,4.87,0,0,0-.87-.47.83.83,0,0,0-.16-.09,6.27,6.27,0,0,0-.77-.24c-.12,0-.23-.09-.35-.11a5.45,5.45,0,0,0-1-.1l-.23,0A6,6,0,0,0,9.56,24.77Z"/><g class="cls-10"><path class="cls-8" d="M15.78,21.41v-1h-.72v1A2.18,2.18,0,0,0,13.7,22a1.92,1.92,0,0,0,0,2.56,4,4,0,0,0,1.14.67l.88-.88-.2-.07a2.57,2.57,0,0,1-.78-.45.8.8,0,0,1-.2-.56.89.89,0,0,1,.19-.61.78.78,0,0,1,.62-.22.8.8,0,0,1,.64.27,1.15,1.15,0,0,1,.22.76h.38l.81-.81a1.59,1.59,0,0,0-.33-.58A2,2,0,0,0,15.78,21.41Z"/><path class="cls-8" d="M13,26.12v0a2.5,2.5,0,0,0,.11.8l.83-.83Z"/></g><g class="cls-11"><path class="cls-8" d="M14,30a5.46,5.46,0,0,1-1-.39l-.4.4a5.53,5.53,0,0,0,.93.42Z"/><path class="cls-8" d="M20.82,21.84l-.4.4a5.36,5.36,0,0,1,.39,1l.43-.43A7.12,7.12,0,0,0,20.82,21.84Z"/></g><path class="cls-12" d="M15,28.73l2.57-2.57a1.64,1.64,0,0,0-.37-1l-1,1a1.64,1.64,0,0,1,0,.23A.77.77,0,0,1,16,27a.9.9,0,0,1-.67.22h-.16l-.87.87a2.85,2.85,0,0,0,.67.15Z"/><rect class="cls-13" x="38.24" y="5.85" width="18.49" height="6.8" transform="translate(38.24 56.73) rotate(-90)"/><circle class="cls-4" cx="47.48" cy="13.82" r="1.18"/><path class="cls-3" d="M40.55,2.9S24.85.29,18.73,1.51C15.71,2.12,8.5,10.37,8.4,14c-.08,2.82,4.28,3.18,4.74,1.73s3.26-4.31,6-5a4.88,4.88,0,0,1,6,2.58c1.33,2.66-7,6.25-8,9.42-.41,1.21.09,3,2,2.41s7-4.12,8.84-5c4.35-2.18,7.37-1.23,12.59-5.21Z"/></g></g></g></svg>