<svg xmlns="http://www.w3.org/2000/svg" viewBox="0 0 31.12 57.35"><defs><style>.cls-1{fill:#ffbe69;}.cls-2{fill:#f29040;}.cls-3{fill:#3a7c00;}.cls-4{fill:#56b512;}.cls-5{fill:#4a9b05;}.cls-6{fill:#80d52f;}.cls-7{fill:#398e01;}.cls-8{fill:#63c21f;}.cls-9{fill:#57a812;}.cls-10{fill:#8de23c;}.cls-11{fill:#efdfeb;}.cls-12{fill:#282e47;}</style></defs><title>Zasób 16</title><g id="Warstwa_2" data-name="Warstwa 2"><g id="_2" data-name="2"><path class="cls-1" d="M29.47,50.24s.69-18.43,0-21c-.61-2.29-5.61-8.56-5.61-8.56L10.35,32.12s3.44,9.48,4.13,11A20.55,20.55,0,0,0,17.24,47v3.29Z"/><path class="cls-2" d="M18.86,40.78,12.92,39.1c.69,1.84,1.31,3.47,1.56,4A20.55,20.55,0,0,0,17.24,47v3.29h5.27V46.8Z"/><rect class="cls-3" x="0.72" y="2.75" width="20.65" height="39"/><rect class="cls-4" y="2.75" width="20.65" height="39"/><path class="cls-5" d="M16.06,22.25a5.74,5.74,0,1,1-5.74-5.73A5.74,5.74,0,0,1,16.06,22.25Z"/><circle class="cls-6" cx="10.32" cy="10.67" r="2.75"/><circle class="cls-6" cx="10.32" cy="33.84" r="2.75"/><path class="cls-5" d="M0,2.75v39H20.65v-39ZM19.55,40.61H1.1V3.9H19.55Z"/><path class="cls-5" d="M5.22,3a2.85,2.85,0,0,0,0-.29H0V8.41A5.37,5.37,0,0,0,5.22,3Z"/><path class="cls-5" d="M20.65,8.41V2.75H15.46a2.85,2.85,0,0,0,0,.29A5.37,5.37,0,0,0,20.65,8.41Z"/><path class="cls-5" d="M5.22,41.47A5.39,5.39,0,0,0,0,36.09v5.66H5.19A2.66,2.66,0,0,0,5.22,41.47Z"/><path class="cls-5" d="M15.43,41.47a2.66,2.66,0,0,0,0,.28h5.19V36.09A5.39,5.39,0,0,0,15.43,41.47Z"/><path class="cls-6" d="M12,21.24a.9.9,0,0,0-.64.23,2.24,2.24,0,0,0-.46.81,4.49,4.49,0,0,1-.86,1.62,1.77,1.77,0,0,1-1.37.53,1.81,1.81,0,0,1-1.34-.53,2.27,2.27,0,0,1-.61-1.43h-1V21.7h1a2.17,2.17,0,0,1,.68-1.37,2,2,0,0,1,1.45-.47h0v1.38a1.22,1.22,0,0,0-.81.24.83.83,0,0,0-.28.67.8.8,0,0,0,.23.66.93.93,0,0,0,.64.21.85.85,0,0,0,.6-.22A3,3,0,0,0,9.79,22a4.11,4.11,0,0,1,.85-1.6A1.81,1.81,0,0,1,12,19.84a1.76,1.76,0,0,1,1.34.52,2.32,2.32,0,0,1,.6,1.43h1v.78H14a2.52,2.52,0,0,1-.62,1.52,1.94,1.94,0,0,1-1.57.58h0V23.28a1.13,1.13,0,0,0,.88-.3,1.17,1.17,0,0,0,.26-.79,1,1,0,0,0-.23-.71A.84.84,0,0,0,12,21.24Z"/><rect class="cls-7" x="3.47" width="20.65" height="39"/><rect class="cls-8" x="2.75" width="20.65" height="39"/><path class="cls-9" d="M18.81,19.5a5.74,5.74,0,1,1-5.73-5.74A5.74,5.74,0,0,1,18.81,19.5Z"/><path class="cls-10" d="M15.83,7.91a2.76,2.76,0,1,1-2.75-2.75A2.75,2.75,0,0,1,15.83,7.91Z"/><path class="cls-10" d="M15.83,31.09a2.76,2.76,0,1,1-2.75-2.76A2.75,2.75,0,0,1,15.83,31.09Z"/><path class="cls-9" d="M2.75,0V39H23.4V0ZM22.3,37.85H3.86V1.15H22.3Z"/><path class="cls-9" d="M8,.29a2.85,2.85,0,0,0,0-.29H2.75V5.66A5.37,5.37,0,0,0,8,.29Z"/><path class="cls-9" d="M23.4,5.66V0H18.21a2.85,2.85,0,0,0,0,.29A5.37,5.37,0,0,0,23.4,5.66Z"/><path class="cls-9" d="M8,38.71a5.38,5.38,0,0,0-5.22-5.37V39H7.94A2.85,2.85,0,0,0,8,38.71Z"/><path class="cls-9" d="M18.18,38.71a2.85,2.85,0,0,0,0,.29H23.4V33.34A5.38,5.38,0,0,0,18.18,38.71Z"/><path class="cls-10" d="M14.79,18.49a.9.9,0,0,0-.64.23,2.24,2.24,0,0,0-.46.81,4.34,4.34,0,0,1-.86,1.62,1.76,1.76,0,0,1-1.37.52,1.82,1.82,0,0,1-1.34-.52,2.32,2.32,0,0,1-.61-1.43h-1V19h1a2.14,2.14,0,0,1,.68-1.37,2.08,2.08,0,0,1,1.46-.48h0v1.38a1.22,1.22,0,0,0-.81.24.82.82,0,0,0-.28.67.83.83,0,0,0,.24.66,1,1,0,0,0,.63.2.84.84,0,0,0,.6-.21,2.65,2.65,0,0,0,.48-.83,4.25,4.25,0,0,1,.85-1.6,1.82,1.82,0,0,1,1.39-.54,1.8,1.8,0,0,1,1.35.53,2.44,2.44,0,0,1,.6,1.43h.95v.77h-.95a2.65,2.65,0,0,1-.62,1.53,2,2,0,0,1-1.57.58l0,0V20.53a1.11,1.11,0,0,0,.88-.3,1.17,1.17,0,0,0,.27-.79,1,1,0,0,0-.24-.71A.82.82,0,0,0,14.79,18.49Z"/><path class="cls-1" d="M25.27,35.1s-9.49-8.49-10.79-9A1.77,1.77,0,0,0,12.2,28.5c.52,1.86,4.12,4,5.15,5.91s0,10.1,5.16,12.39l2.07-.15Z"/><rect class="cls-11" x="16.09" y="48.64" width="14.45" height="5.74"/><rect class="cls-12" x="15.52" y="51.62" width="15.6" height="5.74"/><path class="cls-11" d="M20.45,54.49a1,1,0,1,1-1-1A1,1,0,0,1,20.45,54.49Z"/></g></g></svg>