<svg xmlns="http://www.w3.org/2000/svg" viewBox="0 0 59.57 56.55"><defs><style>.cls-1{fill:#efdfeb;}.cls-2{fill:#dbc1d6;}.cls-3{fill:#f9eff7;}.cls-4{fill:#c9a9c4;}.cls-5{fill:#a57ea3;}.cls-6{fill:#929db7;}.cls-7{fill:#707c9b;}.cls-8{fill:#c3cddd;}.cls-9{fill:#d8dfea;}.cls-10{fill:#fff;}.cls-11{fill:#1fc3ea;}.cls-12{fill:#dfe7ef;}.cls-13{fill:#ebf2f7;}</style></defs><title>Zasób 1</title><g id="Warstwa_2" data-name="Warstwa 2"><g id="_2" data-name="2"><rect class="cls-1" x="25.49" y="31.04" width="22.71" height="20.57"/><rect class="cls-2" x="25.62" y="31.04" width="22.58" height="3.74"/><rect class="cls-3" x="11.25" y="31.04" width="22.71" height="20.57"/><rect class="cls-1" x="-4.46" y="38.18" width="24.12" height="5.07" transform="translate(48.32 33.12) rotate(90)"/><rect class="cls-2" x="-3.22" y="39.43" width="24.12" height="2.58" transform="translate(49.56 31.87) rotate(90)"/><rect class="cls-1" x="4.39" y="29.52" width="32.15" height="1.99"/><rect class="cls-1" x="21.94" y="38.18" width="24.12" height="5.07" transform="translate(74.72 6.71) rotate(90)"/><rect class="cls-2" x="23.19" y="39.43" width="24.12" height="2.58" transform="translate(75.97 5.47) rotate(90)"/><rect class="cls-1" x="39.8" y="38.18" width="24.12" height="5.07" transform="translate(92.58 -11.15) rotate(90)"/><rect class="cls-2" x="41.05" y="39.43" width="24.12" height="2.58" transform="translate(93.83 -12.39) rotate(90)"/><rect class="cls-2" x="36.35" y="29.52" width="18.86" height="1.99"/><rect class="cls-1" x="3.59" y="51.13" width="34.42" height="1.99"/><rect class="cls-2" x="38.01" y="51.13" width="17.82" height="1.99"/><rect class="cls-2" x="4.41" y="29.52" width="32.13" height="0.99"/><rect class="cls-1" x="0.65" y="53.09" width="40.31" height="3.46"/><rect class="cls-2" x="40.94" y="53.09" width="18.63" height="3.46"/><rect class="cls-4" x="33.96" y="29.52" width="21.25" height="0.99"/><rect class="cls-4" x="38.01" y="51.13" width="17.82" height="0.47"/><rect class="cls-4" x="40.94" y="53.09" width="18.63" height="0.47"/><rect class="cls-3" x="37.23" y="51.13" width="0.79" height="1.99"/><rect class="cls-3" x="40.27" y="53.09" width="0.69" height="3.46"/><rect class="cls-3" x="37.23" y="51.13" width="0.79" height="1.99"/><rect class="cls-3" x="0.65" y="53.09" width="40.31" height="0.52"/><rect class="cls-1" x="11.38" y="31.04" width="22.58" height="3.74"/><rect class="cls-3" x="3.59" y="51.13" width="34.42" height="0.47"/><rect class="cls-2" x="5.07" y="31.51" width="5.07" height="1.38"/><rect class="cls-2" x="31.47" y="31.51" width="5.07" height="1.38"/><rect class="cls-2" x="49.33" y="31.51" width="5.07" height="1.38"/><path class="cls-4" d="M21,39.61h1.37a3.13,3.13,0,0,1,3.13,3.13v8.38a0,0,0,0,1,0,0H17.83a0,0,0,0,1,0,0V42.75A3.13,3.13,0,0,1,21,39.61Z"/><path class="cls-5" d="M22.76,39.65a3.12,3.12,0,0,0-2.71,3.1v8.38h5.42V42.75A3.12,3.12,0,0,0,22.76,39.65Z"/><rect class="cls-4" x="38.65" y="39.55" width="2.7" height="3.29"/><rect class="cls-5" x="38.65" y="39.55" width="1.89" height="3.29"/><rect class="cls-4" x="43.11" y="39.55" width="2.7" height="3.29"/><rect class="cls-5" x="43.11" y="39.55" width="1.89" height="3.29"/><polygon class="cls-2" points="38.24 17.23 20.82 17.23 41.61 29.57 59.06 29.57 38.24 17.23"/><polygon class="cls-1" points="0 29.57 41.61 29.57 20.82 17.23 0 29.57"/><polygon class="cls-2" points="6.07 27.77 35.53 27.77 20.81 19.03 6.07 27.77"/><polygon class="cls-1" points="8.52 27.25 33.73 27.25 21.14 19.77 8.52 27.25"/><polygon class="cls-3" points="20.82 17.23 20.41 17.47 40.8 29.57 41.61 29.57 20.82 17.23"/><polygon class="cls-6" points="37.66 20.18 31.27 20.14 42.26 26.66 48.6 26.66 37.66 20.18"/><rect class="cls-7" x="42.26" y="25.76" width="6.34" height="0.9"/><rect class="cls-6" x="31.27" y="19.24" width="2.03" height="0.91"/><polygon class="cls-8" points="37.66 19.23 31.27 19.23 42.26 25.76 48.6 25.76 37.66 19.23"/><polygon class="cls-9" points="36.93 19.78 34.65 19.78 43.82 25.22 46.06 25.22 36.93 19.78"/><polygon class="cls-7" points="36.52 19.78 34.23 19.78 43.41 25.22 45.64 25.22 36.52 19.78"/><polygon class="cls-6" points="36.52 19.78 36.52 21.12 34.23 19.78 36.52 19.78"/><polygon class="cls-9" points="42.4 25.56 31.75 19.23 31.27 19.23 42.26 25.76 48.6 25.76 48.26 25.56 42.4 25.56"/><rect class="cls-4" x="13.72" y="32.3" width="15.86" height="4.6"/><path class="cls-10" d="M15.63,32.93h1a1.88,1.88,0,0,1,1,.2.72.72,0,0,1,.32.64.84.84,0,0,1-.14.49.54.54,0,0,1-.36.23v0a.77.77,0,0,1,.44.26.89.89,0,0,1,.14.52.87.87,0,0,1-.32.71,1.35,1.35,0,0,1-.87.25H15.63Zm.69,1.32h.39a.73.73,0,0,0,.41-.09.35.35,0,0,0,.12-.3.3.3,0,0,0-.13-.27.94.94,0,0,0-.43-.08h-.36Zm0,.55v.87h.44a.68.68,0,0,0,.42-.11.43.43,0,0,0,.14-.34c0-.28-.2-.42-.58-.42Z"/><path class="cls-10" d="M20.65,36.25l-.23-.79H19.24l-.24.79h-.73l1.14-3.33h.83l1.15,3.33Zm-.4-1.38c-.21-.72-.34-1.12-.36-1.21a2,2,0,0,1-.06-.23q-.07.3-.42,1.44Z"/><path class="cls-10" d="M24.66,36.25h-.87l-1.4-2.51h0c0,.44,0,.76,0,.95v1.56H21.8V32.93h.86l1.4,2.49h0c0-.43,0-.74,0-.92V32.93h.61Z"/><path class="cls-10" d="M28.07,36.25H27.3l-.85-1.4-.29.22v1.18h-.68V32.93h.68v1.52l.27-.39.88-1.13h.76L26.94,34.4Z"/><rect class="cls-11" x="38.56" y="8.88" width="4.5" height="6.57"/><polygon class="cls-11" points="40.8 19.57 36.82 14.57 44.79 14.57 40.8 19.57"/><path class="cls-8" d="M47.64,6.27A6.24,6.24,0,0,0,41.6,0H40.15l.08.12a6.23,6.23,0,0,0,0,12.23s-.09.1,0,.12c.5,0,1.37,0,1.37,0A6.23,6.23,0,0,0,47.64,6.27Z"/><path class="cls-8" d="M46.44,6.26A6.24,6.24,0,1,1,40.23,0,6.23,6.23,0,0,1,46.44,6.26Z"/><path class="cls-6" d="M40.64,0a6.24,6.24,0,1,0,6.19,6.28A6.23,6.23,0,0,0,40.64,0Zm-.09,11.91a5.68,5.68,0,1,1,5.72-5.63A5.67,5.67,0,0,1,40.55,11.91Z"/><path class="cls-6" d="M43.39.33H42.13A5.6,5.6,0,0,1,43.3.84h1.23A5.61,5.61,0,0,0,43.39.33Z"/><path class="cls-6" d="M44.08,1.37a4.9,4.9,0,0,1,.6.51h1.17c-.11-.11-.22-.22-.34-.32l-.24-.19Z"/><path class="cls-6" d="M45.11,2.4a6.13,6.13,0,0,1,.38.51h1.18a2.92,2.92,0,0,0-.21-.32l-.16-.2Z"/><path class="cls-6" d="M45.77,3.43a4.81,4.81,0,0,1,.25.51H47.2c-.05-.14-.11-.27-.17-.4L47,3.44Z"/><path class="cls-6" d="M46.18,4.46a4.91,4.91,0,0,1,.15.51h1.18c0-.14-.06-.28-.1-.41l0-.1Z"/><path class="cls-6" d="M46.39,5.49c0,.17,0,.34,0,.51h1.19c0-.11,0-.21,0-.32a1.23,1.23,0,0,0,0-.19Z"/><path class="cls-6" d="M46.38,7h1.21a1.36,1.36,0,0,1,0-.2c0-.1,0-.21,0-.31H46.44A4.18,4.18,0,0,1,46.38,7Z"/><path class="cls-6" d="M46.16,8.06h1.2a.36.36,0,0,1,0-.09c0-.14.07-.28.1-.41H46.32C46.28,7.73,46.21,7.89,46.16,8.06Z"/><path class="cls-6" d="M45.74,9.09h1.2L47,9a2.87,2.87,0,0,0,.18-.4H46A4.89,4.89,0,0,1,45.74,9.09Z"/><path class="cls-6" d="M45.08,10.11h1.19l.16-.2a3.46,3.46,0,0,0,.22-.31H45.46A4.7,4.7,0,0,1,45.08,10.11Z"/><path class="cls-6" d="M44,11.14h1.19l.24-.18.35-.32H44.65A5.89,5.89,0,0,1,44,11.14Z"/><path class="cls-6" d="M42.07,12.16h1.22a5.29,5.29,0,0,0,1.17-.5H43.25A6.85,6.85,0,0,1,42.07,12.16Z"/><path class="cls-12" d="M40.23,0a6.24,6.24,0,1,0,6.21,6.26A6.24,6.24,0,0,0,40.23,0Zm0,11.91a5.68,5.68,0,1,1,5.7-5.65A5.68,5.68,0,0,1,40.18,11.91Z"/><path class="cls-6" d="M41.19,7.92A.93.93,0,0,0,41,7.29a2.21,2.21,0,0,0-.79-.45A4.47,4.47,0,0,1,38.59,6a1.76,1.76,0,0,1-.51-1.35,1.75,1.75,0,0,1,.52-1.31A2.22,2.22,0,0,1,40,2.74v-1h.76v1a2.14,2.14,0,0,1,1.34.68,2,2,0,0,1,.46,1.42v0H41.2A1.22,1.22,0,0,0,41,4.08a.81.81,0,0,0-.66-.28.75.75,0,0,0-.64.23.88.88,0,0,0-.21.62.84.84,0,0,0,.21.59,2.71,2.71,0,0,0,.81.47,4.17,4.17,0,0,1,1.57.84,1.81,1.81,0,0,1,.52,1.37,1.76,1.76,0,0,1-.52,1.32,2.39,2.39,0,0,1-1.41.58v.93h-.75V9.81a2.48,2.48,0,0,1-1.49-.61,1.89,1.89,0,0,1-.56-1.54v0h1.35a1.11,1.11,0,0,0,.29.86,1.16,1.16,0,0,0,.77.27,1,1,0,0,0,.7-.23A.85.85,0,0,0,41.19,7.92Z"/><path class="cls-12" d="M40.87,7.92a.88.88,0,0,0-.22-.63,2.21,2.21,0,0,0-.79-.45A4.47,4.47,0,0,1,38.27,6a1.76,1.76,0,0,1-.51-1.35,1.79,1.79,0,0,1,.52-1.31,2.22,2.22,0,0,1,1.41-.59v-1h.76v1a2.13,2.13,0,0,1,1.33.67,2,2,0,0,1,.46,1.43v0H40.88a1.16,1.16,0,0,0-.23-.79A.95.95,0,0,0,39.35,4a.92.92,0,0,0-.2.63.79.79,0,0,0,.2.59,2.71,2.71,0,0,0,.81.47,4.09,4.09,0,0,1,1.57.84,1.8,1.8,0,0,1,.52,1.36,1.75,1.75,0,0,1-.52,1.32,2.34,2.34,0,0,1-1.41.59v.93h-.76V9.81a2.48,2.48,0,0,1-1.49-.61,1.89,1.89,0,0,1-.56-1.54v0h1.35a1.12,1.12,0,0,0,.29.87,1.11,1.11,0,0,0,.77.26.91.91,0,0,0,.7-.22A.81.81,0,0,0,40.87,7.92Z"/><path class="cls-13" d="M34,6.21a6.23,6.23,0,0,0,1.81,4.42l.4-.39a5.67,5.67,0,1,1,8.06-8l.4-.4h0a6.73,6.73,0,0,0-.82-.68l-.1-.09a7.08,7.08,0,0,0-.9-.49L42.66.5a5.7,5.7,0,0,0-.8-.25c-.13,0-.24-.09-.37-.12a6.91,6.91,0,0,0-1-.11l-.23,0A6.24,6.24,0,0,0,34,6.21Z"/><path class="cls-13" d="M40.45,2.75v-1h-.76v1a2.22,2.22,0,0,0-1.41.59,1.79,1.79,0,0,0-.52,1.31A1.76,1.76,0,0,0,38.27,6a4.13,4.13,0,0,0,1.18.7l.91-.91-.2-.07a2.71,2.71,0,0,1-.81-.47.79.79,0,0,1-.2-.59.92.92,0,0,1,.2-.63.95.95,0,0,1,1.3.06,1.16,1.16,0,0,1,.23.79h.39L42.12,4a1.74,1.74,0,0,0-.34-.61A2.13,2.13,0,0,0,40.45,2.75Z"/><path class="cls-13" d="M37.52,7.63v0a2.41,2.41,0,0,0,.12.83l.86-.86Z"/><path class="cls-13" d="M38.55,11.67a5.8,5.8,0,0,1-1-.4l-.42.41a6.54,6.54,0,0,0,1,.44Z"/><path class="cls-13" d="M45.67,3.21l-.41.42a6.73,6.73,0,0,1,.4,1l.45-.45A7,7,0,0,0,45.67,3.21Z"/><path class="cls-13" d="M39.56,10.35l2.68-2.66a1.78,1.78,0,0,0-.38-1l-1,1a1.64,1.64,0,0,1,0,.23.81.81,0,0,1-.24.62.91.91,0,0,1-.7.22h-.16l-.9.9a3,3,0,0,0,.69.16Z"/></g></g></svg>