<svg xmlns="http://www.w3.org/2000/svg" viewBox="0 0 39.03 46.5"><defs><style>.cls-1{isolation:isolate;}.cls-2{fill:#ff9831;}.cls-3{fill:#ffd833;}.cls-4{fill:#fff466;}.cls-5{fill:#ff822e;}.cls-6{opacity:0.5;mix-blend-mode:screen;}.cls-7{fill:#b25916;}.cls-8{fill:#9e480d;}.cls-9{fill:#cc6e21;}.cls-10{fill:#ffa750;}.cls-11{fill:#e0822d;}.cls-12{fill:#ff9a2c;}.cls-13{fill:#ffca7d;}.cls-14{fill:#ffd8a4;}</style></defs><title>Zasób 2</title><g class="cls-1"><g id="Warstwa_2" data-name="Warstwa 2"><g id="_2" data-name="2"><path class="cls-2" d="M19.27,6.75A6.75,6.75,0,0,0,12.7,0V0H11.21V.13a6.75,6.75,0,0,0,0,13.24v.13H12.7A6.75,6.75,0,0,0,19.27,6.75Z"/><path class="cls-3" d="M18,6.75A6.76,6.76,0,1,1,11.21,0,6.76,6.76,0,0,1,18,6.75Z"/><path class="cls-2" d="M11.65,0a6.75,6.75,0,1,0,6.74,6.77A6.75,6.75,0,0,0,11.65,0Zm0,12.9a6.15,6.15,0,1,1,6.16-6.13A6.14,6.14,0,0,1,11.62,12.9Z"/><path class="cls-2" d="M13.33,6.48A1.75,1.75,0,0,0,14.5,4.87c-.05-1.53-2.06-1.45-2.06-1.45h-.09V2h-.72V3.42h-.8V2h-.72V3.42H8.33v.77H9.38v5H8.3v.83h1.81V11.5h.72V10.06h.8V11.5h.72V10.06c.45,0,2.41,0,2.59-1.67A1.6,1.6,0,0,0,13.33,6.48Zm-2.54-2h1.29a.79.79,0,0,1,.83.79.82.82,0,0,1-.83.84H10.79Zm1.49,4.56H10.79V7.19h1.49a.91.91,0,0,1,1,.91A1,1,0,0,1,12.28,9.06Z"/><path class="cls-4" d="M12.75,6.48s1.38-.42,1.34-1.61C14,3.34,12,3.42,12,3.42h-.08V2h-.72V3.42h-.81V2H9.69V3.42H7.91v.77H9v5H7.89v.83h1.8V11.5h.72V10.06h.81V11.5h.72V10.06c.44,0,2.41,0,2.58-1.67C14.73,6.48,12.75,6.48,12.75,6.48Zm-2.38-2h1.3a.78.78,0,0,1,.82.79.81.81,0,0,1-.82.84h-1.3Zm1.49,4.56H10.37V7.19h1.49a.9.9,0,0,1,1,.91A1,1,0,0,1,11.86,9.06Z"/><path class="cls-5" d="M14.54.35H13.28A6.5,6.5,0,0,1,14.55.9h1.27A6.34,6.34,0,0,0,14.54.35Z"/><path class="cls-5" d="M15.39,1.46c.23.18.45.35.66.55h1.26l-.39-.36-.24-.19Z"/><path class="cls-5" d="M16.51,2.58a5.61,5.61,0,0,1,.41.55h1.29L18,2.79l-.18-.21Z"/><path class="cls-5" d="M17.23,3.69c.09.18.19.36.27.55h1.28l-.18-.41a.91.91,0,0,1-.07-.14Z"/><path class="cls-5" d="M17.68,4.8c.05.19.13.37.17.56h1.27c0-.15-.07-.3-.11-.45l0-.11Z"/><path class="cls-5" d="M17.91,5.92c0,.18.05.36.06.55h1.29c0-.11,0-.23,0-.34l0-.21Z"/><path class="cls-5" d="M17.91,7.59h1.3l0-.21c0-.12,0-.23,0-.35H18C18,7.22,17.93,7.4,17.91,7.59Z"/><path class="cls-5" d="M17.68,8.7H19l0-.11c0-.14.08-.29.11-.44H17.85C17.81,8.34,17.73,8.52,17.68,8.7Z"/><path class="cls-5" d="M17.23,9.81h1.3a.83.83,0,0,1,.07-.13l.18-.42H17.5C17.42,9.46,17.32,9.63,17.23,9.81Z"/><path class="cls-5" d="M16.51,10.93H17.8l.18-.21.23-.34H16.92C16.8,10.57,16.65,10.75,16.51,10.93Z"/><path class="cls-5" d="M15.39,12h1.29l.24-.19a3.33,3.33,0,0,0,.39-.36H16.05A6.63,6.63,0,0,1,15.39,12Z"/><path class="cls-5" d="M13.26,13.16h1.28a7,7,0,0,0,1.28-.55H14.54A7,7,0,0,1,13.26,13.16Z"/><path class="cls-4" d="M11.21,0A6.76,6.76,0,1,0,18,6.75,6.75,6.75,0,0,0,11.21,0Zm0,12.9a6.15,6.15,0,1,1,6.15-6.15A6.14,6.14,0,0,1,11.21,12.9Z"/><path class="cls-4" d="M12.75,6.48s1.38-.42,1.34-1.61C14,3.34,12,3.42,12,3.42h-.08V2h-.72V3.42h-.81V2H9.69V3.42H7.91v.77H9v5H7.89v.83h1.8V11.5h.72V10.06h.81V11.5h.72V10.06c.44,0,2.41,0,2.58-1.67C14.73,6.48,12.75,6.48,12.75,6.48Zm-2.38-2h1.3a.78.78,0,0,1,.82.79.81.81,0,0,1-.82.84h-1.3Zm1.49,4.56H10.37V7.19h1.49a.9.9,0,0,1,1,.91A1,1,0,0,1,11.86,9.06Z"/><g class="cls-6"><path class="cls-4" d="M5.07,6.75a6.15,6.15,0,0,1,10.81-4l.43-.43a6.75,6.75,0,1,0-9.53,9.53l.43-.44A6.11,6.11,0,0,1,5.07,6.75Z"/><path class="cls-4" d="M17.34,6.32l.55-.55a6.4,6.4,0,0,0-.73-2.21L16.71,4A6.14,6.14,0,0,1,17.34,6.32Z"/><path class="cls-4" d="M8.47,12.25,8,12.7a6.4,6.4,0,0,0,2.21.73l.55-.55A6.2,6.2,0,0,1,8.47,12.25Z"/></g><g class="cls-6"><path class="cls-4" d="M10.37,7.19h1.07l2.61-2.61c-.29-1.22-2-1.16-2-1.16h-.08V2h-.72V3.42h-.81V2H9.69V3.42H7.91v.77H9v5H7.89v.83h.68l1.8-1.8Zm0-2.69h1.3a.78.78,0,0,1,.82.79.81.81,0,0,1-.82.84h-1.3Z"/><polygon class="cls-4" points="10.41 10.31 9.69 11.03 9.69 11.5 10.41 11.5 10.41 10.31"/><path class="cls-4" d="M12.81,8.1a1,1,0,0,1-1,1h-.2l-1,1h.56V11.5h.72V10.06c.44,0,2.41,0,2.58-1.67a1.51,1.51,0,0,0-.63-1.56L12.8,7.92A1.09,1.09,0,0,1,12.81,8.1Z"/></g><path class="cls-2" d="M32.51,17.69A6.74,6.74,0,0,0,25.94,11v0H24.46v.13a6.75,6.75,0,0,0,0,13.25v.12h1.48A6.74,6.74,0,0,0,32.51,17.69Z"/><path class="cls-3" d="M31.21,17.69a6.75,6.75,0,1,1-6.75-6.75A6.76,6.76,0,0,1,31.21,17.69Z"/><path class="cls-2" d="M24.9,10.94a6.76,6.76,0,1,0,6.73,6.77A6.76,6.76,0,0,0,24.9,10.94Zm0,12.9A6.15,6.15,0,1,1,31,17.71,6.14,6.14,0,0,1,24.86,23.84Z"/><path class="cls-2" d="M26.57,17.42a1.75,1.75,0,0,0,1.18-1.6c-.06-1.53-2.07-1.45-2.07-1.45H25.6V12.94h-.72v1.43h-.81V12.94h-.72v1.43H21.57v.77h1.06v5H21.55V21h1.8v1.45h.72V21h.81v1.45h.72V21c.44,0,2.41,0,2.58-1.67A1.6,1.6,0,0,0,26.57,17.42Zm-2.54-2h1.3a.78.78,0,0,1,.82.79.81.81,0,0,1-.82.84H24ZM25.52,20H24V18.13h1.49a.91.91,0,0,1,.95.91A1,1,0,0,1,25.52,20Z"/><path class="cls-4" d="M26,17.42s1.38-.42,1.34-1.6c0-1.53-2.06-1.45-2.06-1.45h-.09V12.94h-.72v1.43h-.8V12.94h-.72v1.43H21.16v.77h1.05v5H21.14V21h1.8v1.45h.72V21h.8v1.45h.72V21c.45,0,2.42,0,2.59-1.67C28,17.42,26,17.42,26,17.42Zm-2.37-2h1.3a.78.78,0,0,1,.82.79.81.81,0,0,1-.82.84h-1.3ZM25.11,20H23.62V18.13h1.49a.91.91,0,0,1,.95.91A1,1,0,0,1,25.11,20Z"/><path class="cls-5" d="M27.78,11.29H26.52a6.25,6.25,0,0,1,1.27.55h1.28A6.68,6.68,0,0,0,27.78,11.29Z"/><path class="cls-5" d="M28.64,12.4c.22.18.45.35.65.55h1.27l-.39-.36-.24-.19Z"/><path class="cls-5" d="M29.76,13.52c.14.18.28.35.41.55h1.28a4,4,0,0,0-.23-.34l-.17-.21Z"/><path class="cls-5" d="M30.47,14.63a5.68,5.68,0,0,1,.28.55H32c-.06-.14-.12-.27-.19-.41a.91.91,0,0,0-.07-.14Z"/><path class="cls-5" d="M30.92,15.75a5,5,0,0,1,.17.55h1.28c0-.15-.07-.3-.11-.45a.42.42,0,0,1,0-.1Z"/><path class="cls-5" d="M31.16,16.86c0,.18,0,.37.05.55h1.3l0-.34c0-.07,0-.14,0-.21Z"/><path class="cls-5" d="M31.16,18.53h1.3c0-.07,0-.14,0-.21l0-.34h-1.3C31.2,18.16,31.18,18.34,31.16,18.53Z"/><path class="cls-5" d="M30.92,19.64h1.3a.76.76,0,0,1,0-.11c0-.14.07-.29.11-.44H31.09A5,5,0,0,1,30.92,19.64Z"/><path class="cls-5" d="M30.47,20.76h1.3c0-.05.05-.1.07-.14s.13-.27.19-.41H30.75C30.67,20.4,30.57,20.57,30.47,20.76Z"/><path class="cls-5" d="M29.75,21.87h1.3l.17-.21.23-.34H30.17C30,21.51,29.9,21.69,29.75,21.87Z"/><path class="cls-5" d="M28.63,23h1.3l.24-.19.39-.37H29.29A5.91,5.91,0,0,1,28.63,23Z"/><path class="cls-5" d="M26.51,24.1h1.27a6.68,6.68,0,0,0,1.29-.55H27.78A6.25,6.25,0,0,1,26.51,24.1Z"/><path class="cls-4" d="M24.46,10.94a6.76,6.76,0,1,0,6.75,6.75A6.75,6.75,0,0,0,24.46,10.94Zm0,12.9a6.15,6.15,0,1,1,6.14-6.15A6.14,6.14,0,0,1,24.46,23.84Z"/><path class="cls-4" d="M26,17.42s1.38-.42,1.34-1.6c0-1.53-2.06-1.45-2.06-1.45h-.09V12.94h-.72v1.43h-.8V12.94h-.72v1.43H21.16v.77h1.05v5H21.14V21h1.8v1.45h.72V21h.8v1.45h.72V21c.45,0,2.42,0,2.59-1.67C28,17.42,26,17.42,26,17.42Zm-2.37-2h1.3a.78.78,0,0,1,.82.79.81.81,0,0,1-.82.84h-1.3ZM25.11,20H23.62V18.13h1.49a.91.91,0,0,1,.95.91A1,1,0,0,1,25.11,20Z"/><g class="cls-6"><path class="cls-4" d="M18.32,17.69a6.14,6.14,0,0,1,10.8-4l.43-.43A6.75,6.75,0,1,0,20,22.79l.43-.43A6.15,6.15,0,0,1,18.32,17.69Z"/><path class="cls-4" d="M30.59,17.26l.55-.55a6.85,6.85,0,0,0-.73-2.21L30,15A6.2,6.2,0,0,1,30.59,17.26Z"/><path class="cls-4" d="M21.72,23.19l-.46.45a6.52,6.52,0,0,0,2.22.73l.55-.55A6.14,6.14,0,0,1,21.72,23.19Z"/></g><g class="cls-6"><path class="cls-4" d="M23.62,18.13h1.06l2.61-2.61c-.28-1.22-2-1.15-2-1.15h-.09V12.94h-.72v1.43h-.8V12.94h-.72v1.43H21.16v.77h1.05v5H21.14V21h.67l1.81-1.8Zm0-2.69h1.3a.78.78,0,0,1,.82.79.81.81,0,0,1-.82.84h-1.3Z"/><polygon class="cls-4" points="23.66 21.25 22.94 21.97 22.94 22.45 23.66 22.45 23.66 21.25"/><path class="cls-4" d="M26.06,19a1,1,0,0,1-.95,1H24.9l-1,1h.56v1.45h.72V21c.45,0,2.42,0,2.59-1.67a1.53,1.53,0,0,0-.63-1.56L26,18.86A1.1,1.1,0,0,1,26.06,19Z"/></g><rect class="cls-7" x="4.08" y="19.15" width="34.32" height="27.35" rx="1.24"/><rect class="cls-8" x="2.9" y="19.15" width="34.32" height="27.35" rx="1.24"/><rect class="cls-7" x="1.18" y="19.15" width="34.32" height="27.35" rx="1.24"/><rect class="cls-9" y="19.15" width="34.32" height="27.35" rx="1.24"/><path class="cls-10" d="M31.87,45.36h-.56a.1.1,0,1,1,0-.2h.56a1.06,1.06,0,0,0,.4-.08.1.1,0,0,1,.14.05.1.1,0,0,1-.06.13A1.12,1.12,0,0,1,31.87,45.36Zm-1.57,0h-1a.1.1,0,1,1,0-.2h1a.1.1,0,0,1,0,.2Zm-2,0h-1a.1.1,0,0,1,0-.2h1a.1.1,0,0,1,0,.2Zm-2,0h-1a.1.1,0,0,1,0-.2h1a.1.1,0,0,1,0,.2Zm-2,0h-1a.1.1,0,0,1,0-.2h1a.1.1,0,0,1,0,.2Zm-2,0h-1a.1.1,0,0,1,0-.2h1a.1.1,0,0,1,0,.2Zm-2,0h-1a.1.1,0,0,1,0-.2h1a.1.1,0,0,1,0,.2Zm-2,0h-1a.1.1,0,0,1,0-.2h1a.1.1,0,0,1,0,.2Zm-2,0h-1a.1.1,0,0,1,0-.2h1a.1.1,0,0,1,0,.2Zm-2,0h-1a.1.1,0,1,1,0-.2h1a.1.1,0,1,1,0,.2Zm-2,0h-1a.1.1,0,0,1,0-.2h1a.1.1,0,1,1,0,.2Zm-2,0H9a.1.1,0,1,1,0-.2h1a.1.1,0,0,1,0,.2Zm-2,0H7a.1.1,0,1,1,0-.2H8a.1.1,0,1,1,0,.2Zm-2,0H5a.1.1,0,1,1,0-.2H6a.1.1,0,0,1,0,.2Zm-2,0H3a.1.1,0,0,1,0-.2H4a.1.1,0,1,1,0,.2Zm-2,0h-1a.1.1,0,0,1,0-.2h1a.1.1,0,0,1,0,.2Zm31-.83h0a.1.1,0,0,1-.07-.13,1.09,1.09,0,0,0,0-.26v-.72a.1.1,0,0,1,.2,0v.72a1.06,1.06,0,0,1,0,.31A.1.1,0,0,1,33,44.53Zm0-2a.1.1,0,0,1-.1-.11v-1a.1.1,0,0,1,.2,0v1A.1.1,0,0,1,33,42.51Zm0-2a.1.1,0,0,1-.1-.1v-1a.1.1,0,1,1,.2,0v1A.1.1,0,0,1,33,40.48Zm0-2a.09.09,0,0,1-.1-.1v-1a.1.1,0,0,1,.2,0v1A.09.09,0,0,1,33,38.45Zm0-2a.1.1,0,0,1-.1-.1v-1a.1.1,0,0,1,.2,0v1A.1.1,0,0,1,33,36.43Zm0-2a.09.09,0,0,1-.1-.1v-1a.1.1,0,0,1,.2,0v1A.09.09,0,0,1,33,34.4Zm0-2a.1.1,0,0,1-.1-.11v-1a.1.1,0,0,1,.2,0v1A.1.1,0,0,1,33,32.38Zm0-2a.1.1,0,0,1-.1-.1v-1a.1.1,0,0,1,.2,0v1A.1.1,0,0,1,33,30.35Zm0-2a.09.09,0,0,1-.1-.1v-1a.1.1,0,0,1,.2,0v1A.09.09,0,0,1,33,28.32Zm0-2a.1.1,0,0,1-.1-.1v-1a.1.1,0,0,1,.2,0v1A.1.1,0,0,1,33,26.3Zm0-2a.09.09,0,0,1-.1-.1v-1a.1.1,0,0,1,.2,0v1A.09.09,0,0,1,33,24.27Zm0-2a.09.09,0,0,1-.1-.1v-.63a1,1,0,0,0-.06-.34.1.1,0,0,1,.06-.13.1.1,0,0,1,.13.06,1.18,1.18,0,0,1,.07.41v.63A.09.09,0,0,1,33,22.24Zm-.76-1.69h0a1,1,0,0,0-.33-.06h-.65a.09.09,0,0,1-.1-.1.1.1,0,0,1,.1-.1h.65a1,1,0,0,1,.39.07.09.09,0,0,1,.06.12A.09.09,0,0,1,32.23,20.55Zm-2-.06h-1a.1.1,0,0,1-.1-.1.11.11,0,0,1,.1-.1h1a.11.11,0,0,1,.1.1A.1.1,0,0,1,30.21,20.49Zm-2,0h-1a.09.09,0,0,1-.1-.1.1.1,0,0,1,.1-.1h1a.1.1,0,0,1,.1.1A.09.09,0,0,1,28.18,20.49Zm-2,0h-1a.1.1,0,0,1-.1-.1.11.11,0,0,1,.1-.1h1a.11.11,0,0,1,.1.1A.1.1,0,0,1,26.16,20.49Zm-2,0h-1a.09.09,0,0,1-.1-.1.1.1,0,0,1,.1-.1h1a.1.1,0,0,1,.1.1A.09.09,0,0,1,24.13,20.49Zm-2,0h-1a.09.09,0,0,1-.1-.1.1.1,0,0,1,.1-.1h1a.1.1,0,0,1,.1.1A.09.09,0,0,1,22.1,20.49Zm-2,0h-1a.1.1,0,0,1-.1-.1.11.11,0,0,1,.1-.1h1a.11.11,0,0,1,.1.1A.1.1,0,0,1,20.08,20.49Zm-2,0H17a.09.09,0,0,1-.1-.1.1.1,0,0,1,.1-.1h1a.1.1,0,0,1,.1.1A.09.09,0,0,1,18.05,20.49Zm-2,0H15a.1.1,0,0,1-.1-.1.11.11,0,0,1,.1-.1h1a.11.11,0,0,1,.11.1A.1.1,0,0,1,16,20.49Zm-2,0H13a.1.1,0,0,1-.11-.1.11.11,0,0,1,.11-.1h1a.1.1,0,0,1,.1.1A.09.09,0,0,1,14,20.49Zm-2,0H11a.09.09,0,0,1-.1-.1.1.1,0,0,1,.1-.1h1a.1.1,0,0,1,.1.1A.09.09,0,0,1,12,20.49Zm-2,0h-1a.1.1,0,0,1-.1-.1.11.11,0,0,1,.1-.1h1a.11.11,0,0,1,.1.1A.1.1,0,0,1,10,20.49Zm-2,0h-1a.09.09,0,0,1-.1-.1.1.1,0,0,1,.1-.1h1a.1.1,0,0,1,.1.1A.09.09,0,0,1,7.92,20.49Zm-2,0h-1a.09.09,0,0,1-.1-.1.1.1,0,0,1,.1-.1h1a.11.11,0,0,1,.11.1A.1.1,0,0,1,5.89,20.49Zm-2,0h-1a.1.1,0,0,1-.11-.1.11.11,0,0,1,.11-.1h1a.11.11,0,0,1,.1.1A.1.1,0,0,1,3.87,20.49Zm-2,0h-1a.09.09,0,0,1-.1-.1.1.1,0,0,1,.1-.1h1a.1.1,0,0,1,.1.1A.09.09,0,0,1,1.84,20.49Z"/><path class="cls-9" d="M34.84,37.83h3.58a.61.61,0,0,0,.61-.61V35.31a.61.61,0,0,0-.61-.61H34.84Z"/><path class="cls-9" d="M34.84,27.82V31h3.58a.61.61,0,0,0,.61-.61V28.43a.61.61,0,0,0-.61-.61Z"/><path class="cls-11" d="M34.08,34.7a1.88,1.88,0,1,1,0-3.75h.76V27.82H30.35a5,5,0,1,0,0,10h4.49V34.7Z"/><circle class="cls-9" cx="28.94" cy="32.83" r="1.73"/><path class="cls-12" d="M30.52,32.83a1.58,1.58,0,1,1-1.58-1.58A1.57,1.57,0,0,1,30.52,32.83Z"/><circle class="cls-13" cx="28.61" cy="32.83" r="1.57"/><path class="cls-14" d="M29.27,31.69c.18.32-.1.83-.63,1.13s-1.11.28-1.3,0,.1-.83.63-1.14S29.08,31.36,29.27,31.69Z"/><path class="cls-7" d="M14.25,32.35s2.39-.73,2.32-2.77c-.1-2.65-3.58-2.51-3.58-2.51h-.15V24.61H11.6v2.46H10.21V24.61H9v2.46H5.88V28.4H7.71v8.7H5.85v1.45H9V41h1.24V38.55H11.6V41h1.24V38.55c.78,0,4.18,0,4.48-2.89C17.67,32.36,14.25,32.35,14.25,32.35Zm-4.11-3.42h2.24a1.35,1.35,0,0,1,1.43,1.37,1.42,1.42,0,0,1-1.43,1.45H10.14Zm2.58,7.89H10.14V33.58h2.58a1.57,1.57,0,0,1,1.64,1.58A1.67,1.67,0,0,1,12.72,36.82Z"/><rect class="cls-8" x="11.6" y="24.61" width="0.45" height="2.46"/><rect class="cls-8" x="8.97" y="24.61" width="0.45" height="2.46"/><path class="cls-8" d="M13.81,30.3a1.42,1.42,0,0,1-1.43,1.45h.45a1.41,1.41,0,0,0,1.43-1.45,1.35,1.35,0,0,0-1.43-1.37h-.45A1.35,1.35,0,0,1,13.81,30.3Z"/><path class="cls-8" d="M12.72,36.82h.45a1.67,1.67,0,0,0,1.64-1.66,1.56,1.56,0,0,0-1.64-1.58h-.45a1.57,1.57,0,0,1,1.64,1.58A1.67,1.67,0,0,1,12.72,36.82Z"/><path class="cls-8" d="M5.85,37.1v1.45H6.3V37.1Z"/><path class="cls-8" d="M11.6,38.55V41h.46V38.55Z"/><rect class="cls-8" x="7.71" y="28.4" width="0.45" height="8.7"/><path class="cls-8" d="M9,38.55V41h.45V38.55Z"/><rect class="cls-8" x="5.88" y="27.07" width="0.45" height="1.33"/></g></g></g></svg>