<svg xmlns="http://www.w3.org/2000/svg" viewBox="0 0 45.1 48.32"><defs><style>.cls-1{isolation:isolate;}.cls-2{fill:#ff9831;}.cls-3{fill:#ffd833;}.cls-4{fill:#ff822e;}.cls-11,.cls-5,.cls-6{fill:#fff466;}.cls-10,.cls-6{opacity:0.6;}.cls-10,.cls-11,.cls-6,.cls-7{mix-blend-mode:screen;}.cls-11,.cls-7{opacity:0.5;}.cls-8{fill:#fff;}.cls-9{fill:#ffc024;}</style></defs><title>Zasób 3</title><g class="cls-1"><g id="Warstwa_2" data-name="Warstwa 2"><g id="_2" data-name="2"><path class="cls-2" d="M45.1,41.13a7.18,7.18,0,0,0-7-7.18H36.44l.09.14a7.18,7.18,0,0,0,0,14.09s-.1.12,0,.13c.58,0,1.58,0,1.58,0A7.18,7.18,0,0,0,45.1,41.13Z"/><circle class="cls-3" cx="36.53" cy="41.13" r="7.18"/><path class="cls-2" d="M37,34a7.19,7.19,0,1,0,7.16,7.2A7.18,7.18,0,0,0,37,34Zm0,13.72a6.54,6.54,0,1,1,6.56-6.52A6.53,6.53,0,0,1,37,47.67Z"/><path class="cls-4" d="M40.17,34.32H38.73a7.33,7.33,0,0,1,1.35.58h1.41A6.78,6.78,0,0,0,40.17,34.32Z"/><path class="cls-4" d="M41,35.5a6.5,6.5,0,0,1,.69.59H43l-.4-.37-.27-.22Z"/><path class="cls-4" d="M42.17,36.69c.15.19.3.38.44.59H44q-.12-.2-.24-.36l-.19-.23Z"/><path class="cls-4" d="M42.93,37.88a6.27,6.27,0,0,1,.29.58h1.36a4.43,4.43,0,0,0-.2-.45.54.54,0,0,0-.07-.13Z"/><path class="cls-4" d="M43.41,39.06a5.76,5.76,0,0,1,.18.59H45l-.12-.47s0-.08,0-.12Z"/><path class="cls-4" d="M43.66,40.25c0,.19.05.38.06.58h1.37c0-.12,0-.24,0-.36l0-.22Z"/><path class="cls-4" d="M43.66,42H45l0-.22c0-.12,0-.25,0-.37H43.72C43.71,41.63,43.68,41.82,43.66,42Z"/><path class="cls-4" d="M43.41,43.21h1.38s0-.08,0-.12l.12-.47H43.59C43.55,42.82,43.47,43,43.41,43.21Z"/><path class="cls-4" d="M42.93,44.39h1.38a.83.83,0,0,0,.07-.13,3.76,3.76,0,0,0,.2-.46H43.22A5.39,5.39,0,0,1,42.93,44.39Z"/><path class="cls-4" d="M42.17,45.58h1.37l.19-.23L44,45H42.61C42.47,45.2,42.32,45.38,42.17,45.58Z"/><path class="cls-4" d="M41,46.76h1.38l.27-.21.4-.37H41.67A8,8,0,0,1,41,46.76Z"/><path class="cls-4" d="M38.71,48h1.41a7.36,7.36,0,0,0,1.35-.59h-1.4A7.17,7.17,0,0,1,38.71,48Z"/><path class="cls-5" d="M36.53,34a7.19,7.19,0,1,0,7.19,7.18A7.18,7.18,0,0,0,36.53,34Zm0,13.72a6.54,6.54,0,1,1,6.54-6.54A6.53,6.53,0,0,1,36.53,47.67Z"/><path class="cls-6" d="M29.35,41.13a7.18,7.18,0,0,0,2.11,5.09l.46-.46a6.53,6.53,0,1,1,9.24-9.24l.46-.46h0a7.17,7.17,0,0,0-.95-.78l-.11-.1a7,7,0,0,0-1-.56,1.14,1.14,0,0,0-.19-.1,5.79,5.79,0,0,0-.92-.29c-.14,0-.28-.1-.43-.13A6.56,6.56,0,0,0,36.8,34l-.27,0A7.19,7.19,0,0,0,29.35,41.13Z"/><g class="cls-7"><path class="cls-5" d="M34.66,47.41a6.55,6.55,0,0,1-1.16-.47l-.48.48a6.6,6.6,0,0,0,1.12.5Z"/><path class="cls-5" d="M42.82,37.62l-.48.48a6.55,6.55,0,0,1,.47,1.16l.51-.52A6.6,6.6,0,0,0,42.82,37.62Z"/></g><path class="cls-2" d="M38.68,42.44h-2.3v0a1.54,1.54,0,0,0,.37,1.09,1.32,1.32,0,0,0,1,.38,4.07,4.07,0,0,0,.61-.05,3.39,3.39,0,0,0,.57-.13L39,45a4.13,4.13,0,0,1-.63.13,4.87,4.87,0,0,1-.66,0,3.08,3.08,0,0,1-2.12-.72,2.51,2.51,0,0,1-.81-2v0H34v-.82h.79v-.81H34V40h.79v-.07a2.67,2.67,0,0,1,.81-2,2.92,2.92,0,0,1,2.11-.76,4.44,4.44,0,0,1,.63,0l.67.12-.11,1.23a5.09,5.09,0,0,0-.59-.14,4,4,0,0,0-.6,0,1.21,1.21,0,0,0-1,.43,1.73,1.73,0,0,0-.37,1.16V40h2.3v.82h-2.3v.81h2.3Z"/><polygon class="cls-2" points="38.93 38.51 38.53 38.51 38.41 38.04 38.86 38.08 38.93 38.51"/><polygon class="cls-2" points="38.93 43.77 38.53 43.77 38.35 44.27 38.84 44.27 38.93 43.77"/><path class="cls-5" d="M38.28,42.44H36v0a1.54,1.54,0,0,0,.37,1.09,1.32,1.32,0,0,0,1,.38A4.07,4.07,0,0,0,38,43.9a3.39,3.39,0,0,0,.57-.13L38.64,45a4.13,4.13,0,0,1-.63.13,4.87,4.87,0,0,1-.66,0,3.08,3.08,0,0,1-2.12-.72,2.51,2.51,0,0,1-.81-2v0h-.78v-.82h.78v-.81h-.78V40h.78v-.07a2.67,2.67,0,0,1,.81-2,2.92,2.92,0,0,1,2.11-.76,4.44,4.44,0,0,1,.63,0l.67.12-.11,1.23a5.09,5.09,0,0,0-.59-.14,4,4,0,0,0-.6,0,1.21,1.21,0,0,0-1,.43A1.73,1.73,0,0,0,36,39.91V40h2.3v.82H36v.81h2.3Z"/><g class="cls-7"><path class="cls-5" d="M36,41.62v-.81h1.1L37.9,40H36v-.08a1.73,1.73,0,0,1,.37-1.16,1.21,1.21,0,0,1,1-.43,4,4,0,0,1,.6,0,5.09,5.09,0,0,1,.59.14l.11-1.23L38,37.16a4.44,4.44,0,0,0-.63,0,2.92,2.92,0,0,0-2.11.76,2.67,2.67,0,0,0-.81,2V40h-.78v.82h.78v.81h-.78v.82h.78v0a3,3,0,0,0,.12.87l1.73-1.73Z"/><polygon class="cls-5" points="38.28 42.44 38.28 41.77 37.62 42.44 38.28 42.44"/><path class="cls-5" d="M38,43.9a4.07,4.07,0,0,1-.61.05,1.33,1.33,0,0,1-.93-.32l-1,1a3,3,0,0,0,1.47.53l1.27-1.27Z"/></g><circle class="cls-3" cx="22.55" cy="24.16" r="9.52" transform="translate(-4.92 42.54) rotate(-80.75)"/><path class="cls-8" d="M24.71,23.77s1.95-.59,1.89-2.26c-.07-2.16-2.91-2-2.91-2h-.12v-2h-1v2H21.42v-2h-1v2H17.89v1.08h1.49v7.1H17.86v1.18h2.55v2h1v-2h1.14v2h1v-2c.63,0,3.4,0,3.65-2.36C27.5,23.78,24.71,23.77,24.71,23.77ZM21.36,21h1.83a1.1,1.1,0,0,1,1.16,1.12,1.14,1.14,0,0,1-1.16,1.18H21.36Zm2.11,6.44H21.36V24.78h2.11a1.27,1.27,0,0,1,1.33,1.28A1.37,1.37,0,0,1,23.47,27.42Z"/><path class="cls-9" d="M22.55,35.78A11.62,11.62,0,1,1,34.17,24.16,11.63,11.63,0,0,1,22.55,35.78Zm0-22.84A11.22,11.22,0,1,0,33.77,24.16,11.23,11.23,0,0,0,22.55,12.94Z"/><path class="cls-9" d="M43.08,34l-.47-.2c.19-.46.37-.93.52-1.4l.48.15C43.45,33,43.27,33.5,43.08,34Zm1-2.92-.49-.13c.12-.48.22-1,.31-1.46l.49.08C44.27,30.06,44.16,30.56,44,31.06Zm.52-3-.5-.05c0-.49.08-1,.09-1.5l.51,0C44.64,27,44.61,27.53,44.56,28ZM44.14,25c0-.49-.06-1-.11-1.5l.5-.05q.09.77.12,1.53Zm-.33-3c-.08-.49-.19-1-.31-1.47l.49-.12c.13.5.23,1,.32,1.5Zm-.72-2.92c-.15-.48-.32-.95-.5-1.41l.47-.19c.18.47.36,1,.51,1.45ZM42,16.29c-.21-.45-.44-.9-.68-1.34l.45-.25c.24.45.48.91.69,1.37Zm-1.44-2.63c-.27-.42-.55-.84-.85-1.25l.41-.3c.3.42.59.85.87,1.27Zm-1.77-2.44c-.31-.38-.65-.76-1-1.13l.37-.34c.35.37.69.76,1,1.15ZM36.73,9c-.36-.34-.74-.68-1.12-1l.32-.39c.4.33.78.67,1.15,1ZM34.42,7.1c-.4-.3-.81-.58-1.24-.86l.28-.42q.65.42,1.26.87ZM31.89,5.47c-.43-.24-.88-.48-1.33-.69l.21-.46c.46.22.92.46,1.37.71ZM29.18,4.18c-.46-.19-.94-.36-1.41-.51l.15-.49c.49.16,1,.34,1.45.53Zm-2.86-.93c-.48-.13-1-.24-1.46-.33l.09-.5c.5.1,1,.21,1.5.33ZM16,3.1l-.12-.49c.46-.11.93-.2,1.39-.28l.08.5C16.93,2.91,16.47,3,16,3.1Zm7.34-.4c-.5-.06-1-.1-1.5-.13l0-.5c.51,0,1,.07,1.54.12Zm-4.5-.06-.05-.5c.51-.05,1-.08,1.54-.09v.5C19.87,2.57,19.37,2.59,18.87,2.64Z"/><path class="cls-9" d="M24.74,46.27v-.5c.5,0,1,0,1.5-.09l.05.5C25.77,46.23,25.25,46.26,24.74,46.27Zm-1.53,0c-.51,0-1-.07-1.54-.12l.06-.51c.5.06,1,.1,1.5.13ZM27.8,46l-.08-.5c.45-.08.91-.17,1.35-.27l.12.49C28.74,45.82,28.27,45.91,27.8,46Zm-7.65-.09c-.5-.1-1-.21-1.5-.34l.13-.49q.72.2,1.47.33Zm-3-.76c-.49-.16-1-.34-1.45-.53l.19-.47c.46.19.94.36,1.41.51ZM14.33,44c-.46-.22-.92-.46-1.37-.71l.25-.44c.43.24.88.47,1.33.69Zm-2.69-1.5q-.64-.42-1.26-.87l.3-.41c.4.3.82.58,1.24.85ZM9.17,40.68c-.39-.33-.78-.67-1.15-1l.35-.37c.36.34.74.68,1.12,1ZM6.94,38.57c-.34-.37-.69-.76-1-1.15l.39-.32c.32.38.65.76,1,1.12ZM5,36.2c-.3-.41-.59-.84-.86-1.26l.42-.28c.27.42.55.84.85,1.25ZM3.34,33.61c-.24-.45-.48-.91-.69-1.36L3.11,32c.21.45.44.9.68,1.34ZM2,30.84c-.18-.47-.36-1-.51-1.45L2,29.24c.15.48.32,1,.5,1.41Zm-.93-2.93c-.12-.5-.23-1-.32-1.5l.5-.09c.08.49.19,1,.31,1.47Zm-.54-3c-.06-.51-.1-1-.12-1.53l.51,0c0,.49.06,1,.11,1.5ZM1,21.84l-.51,0c0-.51,0-1,.1-1.53l.5.05C1,20.83,1,21.33,1,21.84Zm.3-3-.5-.08c.08-.51.19-1,.31-1.51l.49.12Q1.37,18.12,1.25,18.85ZM2,15.94l-.48-.16c.16-.48.34-1,.53-1.44l.47.2C2.3,15,2.12,15.47,2,15.94Z"/><polygon class="cls-9" points="39.62 8.43 36.27 10.98 40.46 12.89 39.62 8.43"/><polygon class="cls-9" points="5.49 39.89 8.83 37.34 4.64 35.43 5.49 39.89"/><path class="cls-2" d="M15.75,7.18A7.19,7.19,0,0,0,8.76,0H7.09l.09.14a7.18,7.18,0,0,0,0,14.09s-.09.12,0,.13c.59,0,1.58,0,1.58,0A7.17,7.17,0,0,0,15.75,7.18Z"/><circle class="cls-3" cx="7.18" cy="7.18" r="7.18"/><path class="cls-2" d="M7.65,0a7.19,7.19,0,1,0,7.17,7.2A7.18,7.18,0,0,0,7.65,0Zm0,13.72A6.54,6.54,0,1,1,14.17,7.2,6.53,6.53,0,0,1,7.61,13.72Z"/><path class="cls-4" d="M10.82.37H9.38A6.74,6.74,0,0,1,10.73,1h1.41A6,6,0,0,0,10.82.37Z"/><path class="cls-4" d="M11.63,1.55a7.8,7.8,0,0,1,.7.59h1.34l-.4-.37L13,1.55Z"/><path class="cls-4" d="M12.82,2.74a6.46,6.46,0,0,1,.44.59h1.36c-.07-.12-.16-.24-.24-.36l-.18-.23Z"/><path class="cls-4" d="M13.58,3.93a6.27,6.27,0,0,1,.29.58h1.37L15,4.06,15,3.93Z"/><path class="cls-4" d="M14.06,5.11c.06.2.14.39.18.59H15.6l-.12-.47s0-.08,0-.12Z"/><path class="cls-4" d="M14.31,6.3c0,.19,0,.39.06.58h1.37c0-.12,0-.24,0-.36l0-.22Z"/><path class="cls-4" d="M14.31,8.07h1.38l0-.22c0-.12,0-.24,0-.37H14.37C14.36,7.68,14.33,7.88,14.31,8.07Z"/><path class="cls-4" d="M14.06,9.26h1.38s0-.08,0-.12l.12-.47H14.24C14.2,8.87,14.12,9.06,14.06,9.26Z"/><path class="cls-4" d="M13.58,10.44H15a.83.83,0,0,0,.07-.13c.08-.15.14-.3.21-.45H13.87A6.27,6.27,0,0,1,13.58,10.44Z"/><path class="cls-4" d="M12.82,11.63H14.2l.18-.23c.08-.12.17-.24.24-.36H13.26A6.46,6.46,0,0,1,12.82,11.63Z"/><path class="cls-4" d="M11.63,12.81H13l.27-.21.4-.37H12.33A7.69,7.69,0,0,1,11.63,12.81Z"/><path class="cls-4" d="M9.36,14h1.41a7.08,7.08,0,0,0,1.35-.59h-1.4A6.58,6.58,0,0,1,9.36,14Z"/><path class="cls-5" d="M7.18,0a7.19,7.19,0,1,0,7.19,7.18A7.19,7.19,0,0,0,7.18,0Zm0,13.72a6.54,6.54,0,1,1,6.54-6.54A6.53,6.53,0,0,1,7.18,13.72Z"/><path class="cls-2" d="M8.32,9.12a1,1,0,0,0-.25-.72,2.62,2.62,0,0,0-.91-.52,5.13,5.13,0,0,1-1.84-1,2,2,0,0,1-.59-1.55,2.08,2.08,0,0,1,.59-1.52,2.63,2.63,0,0,1,1.62-.69V2h.87V3.17a2.4,2.4,0,0,1,1.54.77,2.25,2.25,0,0,1,.54,1.64v0H8.32a1.4,1.4,0,0,0-.26-.92,1,1,0,0,0-.76-.32,1,1,0,0,0-.75.27,1.09,1.09,0,0,0-.23.72A.92.92,0,0,0,6.57,6a3.22,3.22,0,0,0,.93.54,4.82,4.82,0,0,1,1.82,1,2.07,2.07,0,0,1,.6,1.57,2,2,0,0,1-.6,1.52,2.62,2.62,0,0,1-1.62.68v1.08H6.83V11.31a2.88,2.88,0,0,1-1.72-.7,2.2,2.2,0,0,1-.66-1.77l0,0H6a1.3,1.3,0,0,0,.34,1,1.31,1.31,0,0,0,.89.3,1.14,1.14,0,0,0,.81-.26A1,1,0,0,0,8.32,9.12Z"/><path class="cls-5" d="M8,9.12A1,1,0,0,0,7.7,8.4a2.53,2.53,0,0,0-.91-.52A5.07,5.07,0,0,1,5,6.91a2,2,0,0,1-.6-1.55A2,2,0,0,1,5,3.84a2.58,2.58,0,0,1,1.62-.69V2h.87V3.17A2.45,2.45,0,0,1,9,3.94a2.34,2.34,0,0,1,.54,1.64v0H8a1.4,1.4,0,0,0-.27-.92,1,1,0,0,0-.76-.32.92.92,0,0,0-.74.27A1,1,0,0,0,6,5.36,1,1,0,0,0,6.2,6a3.22,3.22,0,0,0,.93.54A4.74,4.74,0,0,1,9,7.54a2.07,2.07,0,0,1,.6,1.57A2,2,0,0,1,9,10.63a2.68,2.68,0,0,1-1.62.68v1.08H6.47V11.31a2.91,2.91,0,0,1-1.73-.7,2.17,2.17,0,0,1-.65-1.77v0H5.66A1.26,1.26,0,0,0,6,9.8a1.3,1.3,0,0,0,.89.3,1.11,1.11,0,0,0,.8-.26A1,1,0,0,0,8,9.12Z"/><path class="cls-6" d="M0,7.18a7.18,7.18,0,0,0,2.11,5.09l.46-.46a6.53,6.53,0,1,1,9.24-9.24l.46-.46h0a7.17,7.17,0,0,0-.95-.78l-.11-.1a7,7,0,0,0-1-.56L10,.57A5.79,5.79,0,0,0,9.06.28c-.14,0-.28-.1-.43-.13A6.56,6.56,0,0,0,7.45,0a2.23,2.23,0,0,0-.27,0A7.19,7.19,0,0,0,0,7.18Z"/><g class="cls-10"><path class="cls-5" d="M7.45,3.17V2H6.58V3.15A2.58,2.58,0,0,0,5,3.84a2,2,0,0,0-.6,1.52A2,2,0,0,0,5,6.91a4.4,4.4,0,0,0,1.36.8l1-1.06-.23-.07A3.22,3.22,0,0,1,6.2,6,1,1,0,0,1,6,5.36a1,1,0,0,1,.23-.72.92.92,0,0,1,.74-.27,1,1,0,0,1,.76.32A1.4,1.4,0,0,1,8,5.61h.45l1-1A2,2,0,0,0,9,3.94,2.45,2.45,0,0,0,7.45,3.17Z"/><path class="cls-5" d="M4.1,8.8v0a2.79,2.79,0,0,0,.14.95l1-1Z"/></g><g class="cls-7"><path class="cls-5" d="M5.31,13.46A6.87,6.87,0,0,1,4.15,13l-.47.48A7,7,0,0,0,4.79,14Z"/><path class="cls-5" d="M13.47,3.68,13,4.15a6.87,6.87,0,0,1,.47,1.16L14,4.79A7,7,0,0,0,13.47,3.68Z"/></g><path class="cls-11" d="M6.47,11.93,9.54,8.85A2.07,2.07,0,0,0,9.1,7.69L7.93,8.85a1.18,1.18,0,0,1,0,.27,1,1,0,0,1-.27.72,1.11,1.11,0,0,1-.8.26H6.7l-1,1a3.31,3.31,0,0,0,.81.19Z"/></g></g></g></svg>