<svg xmlns="http://www.w3.org/2000/svg" viewBox="0 0 118.3 82.19"><defs><style>.cls-1{fill:#771582;}.cls-2{opacity:0.1;}.cls-3{isolation:isolate;}.cls-4{fill:#d3096a;}.cls-5{fill:#e62b7c;}.cls-6{fill:#ff7fb7;}.cls-7{fill:#77ba10;}.cls-8{fill:#55850b;}.cls-9{fill:#669f0e;}.cls-10{fill:#f9e062;}.cls-11{fill:#ffda00;}.cls-12{fill:#ff9e03;}.cls-13{fill:#8ec1ff;}.cls-14{fill:#4397fa;}.cls-15{fill:#c5defe;}.cls-16{fill:#ffebc4;}.cls-16,.cls-30{opacity:0.6;}.cls-17{opacity:0.83;}.cls-18{fill:#ffeece;}.cls-18,.cls-19{opacity:0.67;}.cls-20{fill:#fff2d8;opacity:0.73;}.cls-21,.cls-53{opacity:0.5;}.cls-22{fill:#fff5e2;opacity:0.8;}.cls-23,.cls-51{opacity:0.33;}.cls-24{fill:#fff8eb;opacity:0.87;}.cls-25,.cls-49{opacity:0.17;}.cls-26{fill:#fffcf5;opacity:0.93;}.cls-27,.cls-47{opacity:0;}.cls-28,.cls-30{fill:#fff;}.cls-29{opacity:0.3;}.cls-31{fill:#111114;}.cls-32{fill:#221f26;}.cls-33{fill:#1e1b21;}.cls-34{fill:#e6a376;}.cls-35{fill:#404063;}.cls-36{fill:#52517b;}.cls-37{fill:#efb185;}.cls-38{fill:#dd9569;}.cls-39{fill:#221101;}.cls-40{fill:#341c09;}.cls-41{fill:#def0f9;}.cls-42{fill:#ffd859;}.cls-43{fill:#f2b42b;}.cls-44{fill:#ffed94;}.cls-45{fill:#de821f;}.cls-46{fill:#ffb101;}.cls-47,.cls-48,.cls-49,.cls-50,.cls-51,.cls-52,.cls-53{fill:#def4ff;}.cls-48{opacity:0.08;}.cls-50{opacity:0.25;}.cls-52{opacity:0.42;}</style></defs><title>Zasób 17</title><g id="Warstwa_2" data-name="Warstwa 2"><g id="Layer_1" data-name="Layer 1"><path class="cls-1" d="M68.73,26.36c2.72-1.57,4.92.37,6.92,5.72L31.34,57.49c8.78-5.33,8-18.16,10.05-25.94a13.45,13.45,0,0,1,5.61-8c2.6-1.5,5.2-.92,5.92,3.12,1.38,7.61,1.18,17.68,5.44,15.22s5.93-11.6,9-14.48A7.38,7.38,0,0,1,68.73,26.36Z"/><path class="cls-1" d="M22.12,21.46C28.81,27,24.2,61.11,30.91,57.74L.1,75.38c3.09-1.79,6.41-6.8,7.3-17.66,1.22-15,5.8-33.58,11.14-36.66A2.92,2.92,0,0,1,22.12,21.46Z"/><path class="cls-1" d="M73.09.84c6.69,5.57,2.08,39.65,8.79,36.27,0,0-32.91,18.86-30.82,17.65,3.1-1.79,6.42-6.8,7.31-17.67,1.22-15,5.8-33.57,11.14-36.65A2.92,2.92,0,0,1,73.09.84Z"/><g class="cls-2"><polygon points="10.3 70.38 30.63 82.19 104.35 39.63 84.02 27.82 10.3 70.38"/></g><g class="cls-3"><polygon class="cls-4" points="96.26 8.91 96.17 41.21 83.01 48.86 83.1 16.56 96.26 8.91"/><polygon class="cls-5" points="83.1 16.56 83.01 48.86 69.76 41.21 69.85 8.91 83.1 16.56"/><polygon class="cls-6" points="96.26 8.91 83.1 16.56 69.85 8.91 83.01 1.26 96.26 8.91"/></g><g class="cls-3"><polygon class="cls-7" points="78.98 27.96 78.92 51.03 65.75 58.68 65.82 35.61 78.98 27.96"/><polygon class="cls-8" points="65.82 35.61 65.75 58.68 52.51 51.03 52.57 27.96 65.82 35.61"/><polygon class="cls-9" points="78.98 27.96 65.82 35.61 52.57 27.96 65.73 20.31 78.98 27.96"/></g><g class="cls-3"><polygon class="cls-10" points="61.43 46.74 61.39 60.58 48.23 68.23 48.27 54.38 61.43 46.74"/><polygon class="cls-11" points="48.27 54.38 48.23 68.23 34.97 60.58 35.01 46.73 48.27 54.38"/><polygon class="cls-12" points="61.43 46.74 48.27 54.38 35.01 46.73 48.17 39.08 61.43 46.74"/></g><g class="cls-3"><polygon class="cls-13" points="44.16 61.78 44.13 71.01 30.97 78.66 30.99 69.43 44.16 61.78"/><polygon class="cls-14" points="30.99 69.43 30.97 78.66 17.71 71 17.74 61.78 30.99 69.43"/><polygon class="cls-15" points="44.16 61.78 30.99 69.43 17.74 61.78 30.9 54.13 44.16 61.78"/></g><g class="cls-2"><path d="M69.77,70.09c4.34,2.51,4.36,6,0,8.54a17.25,17.25,0,0,1-15.67,0c-4.35-2.51-4.37-6-.06-8.54A17.3,17.3,0,0,1,69.77,70.09Z"/></g><g class="cls-2"><path d="M88.74,60.05c4.34,2.5,4.37,6,.05,8.54s-11.33,2.5-15.67,0-4.37-6-.05-8.53S84.4,57.54,88.74,60.05Z"/></g><g class="cls-2"><path d="M107.24,50.45c4.34,2.5,4.37,6,.05,8.54S96,61.49,91.62,59s-4.37-6-.05-8.53S102.9,47.94,107.24,50.45Z"/></g><path class="cls-16" d="M37.55,58.63c3.62,1.88,3.6,4.89,0,6.75a15.74,15.74,0,0,1-13,0c-3.59-1.86-3.61-4.89,0-6.75A15.82,15.82,0,0,1,37.55,58.63Z"/><g class="cls-17"><path class="cls-18" d="M38.36,52.69c4.12,2.14,4.1,5.57,0,7.68a17.89,17.89,0,0,1-14.78,0c-4.09-2.11-4.11-5.56-.05-7.68A18,18,0,0,1,38.36,52.69Z"/></g><g class="cls-19"><path class="cls-20" d="M39.17,46.75c4.62,2.4,4.6,6.25,0,8.62s-12,2.4-16.59,0-4.61-6.24-.05-8.62S34.58,44.37,39.17,46.75Z"/></g><g class="cls-21"><path class="cls-22" d="M40,40.81c5.12,2.66,5.1,6.92.05,9.56s-13.25,2.66-18.38,0-5.12-6.93-.06-9.56S34.89,38.18,40,40.81Z"/></g><g class="cls-23"><path class="cls-24" d="M40.79,34.87c5.63,2.92,5.6,7.6.06,10.49s-14.56,2.92-20.19,0-5.61-7.6-.06-10.49S35.2,32,40.79,34.87Z"/></g><g class="cls-25"><path class="cls-26" d="M41.6,28.93c6.13,3.18,6.1,8.28.06,11.43s-15.85,3.18-22,0-6.12-8.28-.08-11.43S35.51,25.78,41.6,28.93Z"/></g><g class="cls-27"><path class="cls-28" d="M42.41,23c6.63,3.44,6.6,9,.07,12.37s-17.15,3.43-23.79,0-6.61-9-.08-12.37S35.83,19.58,42.41,23Z"/></g><g class="cls-29"><path class="cls-30" d="M37.55,58.66c3.62,1.88,3.6,4.89,0,6.75a15.74,15.74,0,0,1-13,0c-3.59-1.86-3.61-4.89,0-6.75A15.82,15.82,0,0,1,37.55,58.66Z"/></g><path class="cls-16" d="M107.27,49.71c4.06,2.11,4,5.48,0,7.57a17.69,17.69,0,0,1-14.56,0c-4-2.09-4-5.48,0-7.57A17.71,17.71,0,0,1,107.27,49.71Z"/><g class="cls-17"><path class="cls-18" d="M108.18,43.05c4.62,2.4,4.6,6.24,0,8.62s-12,2.39-16.58,0-4.61-6.25-.06-8.62S103.59,40.67,108.18,43.05Z"/></g><g class="cls-19"><path class="cls-20" d="M109.09,36.39c5.18,2.69,5.16,7,0,9.66s-13.41,2.69-18.6,0-5.17-7-.06-9.66S103.94,33.72,109.09,36.39Z"/></g><g class="cls-21"><path class="cls-22" d="M110,29.73c5.75,3,5.73,7.76.07,10.71s-14.87,3-20.62,0-5.74-7.76-.07-10.71S104.29,26.77,110,29.73Z"/></g><g class="cls-23"><path class="cls-24" d="M110.9,23.06c6.32,3.28,6.29,8.53.07,11.77s-16.32,3.27-22.64,0S82,26.31,88.26,23.06,104.64,19.82,110.9,23.06Z"/></g><g class="cls-25"><path class="cls-26" d="M111.81,16.4c6.88,3.57,6.85,9.29.07,12.82s-17.78,3.56-24.65,0-6.86-9.29-.08-12.82S105,12.87,111.81,16.4Z"/></g><g class="cls-27"><path class="cls-28" d="M112.72,9.74c7.44,3.86,7.41,10,.08,13.87s-19.24,3.85-26.68,0S78.7,13.56,86,9.74,105.34,5.92,112.72,9.74Z"/></g><g class="cls-29"><path class="cls-30" d="M107.27,49.75c4.06,2.1,4,5.48,0,7.56a17.61,17.61,0,0,1-14.56,0c-4-2.08-4-5.48,0-7.56A17.71,17.71,0,0,1,107.27,49.75Z"/></g><path class="cls-16" d="M87.47,59.58c3.66,1.9,3.65,4.94,0,6.82a15.91,15.91,0,0,1-13.13,0c-3.63-1.88-3.65-4.94,0-6.82A16,16,0,0,1,87.47,59.58Z"/><g class="cls-17"><path class="cls-18" d="M88.38,56.24c4.17,2.16,4.15,5.63,0,7.77a18.13,18.13,0,0,1-15,0c-4.13-2.14-4.16-5.63,0-7.77A18.23,18.23,0,0,1,88.38,56.24Z"/></g><g class="cls-19"><path class="cls-20" d="M89.29,52.9c4.67,2.43,4.65,6.32,0,8.72s-12.1,2.42-16.78,0-4.66-6.32,0-8.72S84.64,50.5,89.29,52.9Z"/></g><g class="cls-21"><path class="cls-22" d="M90.19,49.56c5.19,2.69,5.17,7,.06,9.67s-13.41,2.69-18.59,0-5.18-7-.07-9.67S85.05,46.9,90.19,49.56Z"/></g><g class="cls-23"><path class="cls-24" d="M91.1,46.22c5.69,3,5.67,7.69.06,10.61s-14.72,3-20.41,0-5.68-7.68-.07-10.61S85.45,43.3,91.1,46.22Z"/></g><g class="cls-25"><path class="cls-26" d="M92,42.89c6.2,3.21,6.17,8.37.06,11.55s-16,3.22-22.23,0-6.19-8.37-.08-11.55S85.86,39.7,92,42.89Z"/></g><g class="cls-27"><path class="cls-28" d="M92.91,39.55C99.62,43,99.6,48.6,93,52.05s-17.35,3.48-24.06,0-6.69-9.06-.08-12.5S86.26,36.1,92.91,39.55Z"/></g><g class="cls-29"><path class="cls-30" d="M87.47,59.61c3.66,1.9,3.65,4.94,0,6.82a15.91,15.91,0,0,1-13.13,0c-3.63-1.88-3.65-4.94,0-6.82A16,16,0,0,1,87.47,59.61Z"/></g><path class="cls-16" d="M68,70.28c3.66,1.9,3.65,5,0,6.83a15.91,15.91,0,0,1-13.13,0c-3.63-1.88-3.65-5-.05-6.83A16,16,0,0,1,68,70.28Z"/><g class="cls-17"><path class="cls-18" d="M68.88,66.94c4.16,2.17,4.15,5.63,0,7.78a18.13,18.13,0,0,1-15,0c-4.13-2.15-4.16-5.63,0-7.78A18.23,18.23,0,0,1,68.88,66.94Z"/></g><g class="cls-19"><path class="cls-20" d="M69.78,63.61c4.68,2.42,4.66,6.31,0,8.71s-12.09,2.43-16.77,0S48.4,66,53,63.61,65.14,61.2,69.78,63.61Z"/></g><g class="cls-21"><path class="cls-22" d="M70.69,60.27c5.18,2.69,5.16,7,.06,9.66s-13.41,2.69-18.6,0-5.17-7-.06-9.66S65.55,57.6,70.69,60.27Z"/></g><g class="cls-23"><path class="cls-24" d="M71.6,56.93c5.69,3,5.67,7.69.06,10.61s-14.72,2.95-20.42,0-5.67-7.69-.06-10.61S66,54,71.6,56.93Z"/></g><g class="cls-25"><path class="cls-26" d="M72.5,53.59c6.21,3.21,6.18,8.37.07,11.56s-16,3.21-22.23,0-6.19-8.38-.08-11.56S66.35,50.4,72.5,53.59Z"/></g><g class="cls-27"><path class="cls-28" d="M73.41,50.25c6.71,3.48,6.68,9.06.07,12.51s-17.34,3.47-24.05,0-6.69-9.06-.08-12.51S66.76,46.8,73.41,50.25Z"/></g><g class="cls-29"><path class="cls-30" d="M68,70.32c3.66,1.89,3.65,4.94,0,6.82a15.91,15.91,0,0,1-13.13,0c-3.63-1.88-3.65-4.94-.05-6.82A15.93,15.93,0,0,1,68,70.32Z"/></g><path class="cls-31" d="M33.49,55.25s1.06.37.66.91S32.28,57.35,32,57.69,30.45,59.15,30.14,59s-1.21-.18-.76-1.68S32,54.9,33.49,55.25Z"/><path class="cls-32" d="M30.05,33.39a9.31,9.31,0,0,0-.88,6.51,43.41,43.41,0,0,1,.36,9.44s-.89,7-.34,8.31a3.18,3.18,0,0,0,3.47-.21l1.53-13,.72-9.57S31,34.28,30.05,33.39Z"/><path class="cls-33" d="M34.19,44.42l.56-7.5-1.49-.36s-1,6.73-.58,8.34C33,46.16,31.65,54,31.61,58a3.42,3.42,0,0,0,1-.52Z"/><path class="cls-31" d="M42.16,54.68s.51,1.13,1.49.69.32-.72,2.43-1.74,1.49-2,1.32-2.16c-.41-.44-1.69.46-2.15.68a13.47,13.47,0,0,1-1.55.48l-1.84,1.84Z"/><path class="cls-32" d="M32.42,34.53s-1.28,3.3.72,4.71a17.69,17.69,0,0,1,4.72,5.1c.53,1.13,3.36,10.2,3.36,10.2A3.7,3.7,0,0,0,45,53.92s-2.18-10.61-3-12-4.52-8.18-4.52-8.18A13.07,13.07,0,0,1,32.42,34.53Z"/><path class="cls-33" d="M45,53.92s-2.18-10.61-3-12-4-7.3-4.47-8.1L36,36.45a47.73,47.73,0,0,1,3.07,4.09c.47.89,3.69,9.27,4.3,14.21A3.21,3.21,0,0,0,45,53.92Z"/><path class="cls-34" d="M30.61,19.22s1.73-.16,1,2.51a26.59,26.59,0,0,1-2.39,5.36,58.55,58.55,0,0,0-1.57,6.32,1.77,1.77,0,0,0,.23.88,1.47,1.47,0,0,1,.09,1,1.35,1.35,0,0,0,.09.83.21.21,0,0,1-.25.33,1.18,1.18,0,0,1-.4-1A3.82,3.82,0,0,0,27.09,37c0,.55-.51.71-1-.09a3.84,3.84,0,0,1,0-2.33,5.56,5.56,0,0,0,.32-1.83,31.11,31.11,0,0,1,1-7.6C27.85,23.56,29.17,19.06,30.61,19.22Z"/><path class="cls-35" d="M31,19.09c-2.34-.6-4.47,7.21-4.59,9.27a3.65,3.65,0,0,0,2.51,0S33.68,19.77,31,19.09Z"/><path class="cls-35" d="M26.4,28.36l-.29,5.11a2.08,2.08,0,0,0,2,0L29,28.12Z"/><path class="cls-36" d="M30.56,18.94s-1.64.11-.91,3.12a28,28,0,0,1,.91,7.34,35.09,35.09,0,0,1-1.09,4.67s-.3,2.26,5,4.13c0,0,4.43.43,3.93-2.61a40.43,40.43,0,0,1-.2-9c.2-1.14,1.05-3.38-1.64-5.16S32.37,19,30.56,18.94Z"/><path class="cls-35" d="M38.19,26.56a40.43,40.43,0,0,0,.2,9c.35,2.11-1.67,2.66-2.94,2.62-.3-1.37.06-4.06-.65-7a11.46,11.46,0,0,1,.75-7.84A1.91,1.91,0,0,1,37.32,22C39.06,23.66,38.37,25.54,38.19,26.56Z"/><path class="cls-37" d="M32.07,17.58A4.92,4.92,0,0,1,31.85,20c-.42.87,3,1.49,3.1.7a3.41,3.41,0,0,1,0-2.89C35.4,17,32.07,17.58,32.07,17.58Z"/><path class="cls-38" d="M31.87,20.06a4.45,4.45,0,0,0,.25-2.17l2.57,1.16h0c-.1,0-1.77.54-2.08,1.8C32.08,20.66,31.72,20.38,31.87,20.06Z"/><path class="cls-37" d="M35.52,13.46a6.62,6.62,0,0,1,.54,2.5c-.06,1.26.13,1.5.08,2.06a1.38,1.38,0,0,1-.24.83,2.13,2.13,0,0,1-2.22.22c-1.3-.42-2.73-2.16-2.25-3.8S33.54,12.23,35.52,13.46Z"/><path class="cls-34" d="M31.57,17a22.42,22.42,0,0,1,1.63-3.37,4.3,4.3,0,0,1,.87-.65,2.73,2.73,0,0,1,1.45.46,8,8,0,0,1,.31.86c-.3.36-.9.79-1,1.09a3.88,3.88,0,0,0,.2,2.21c.22.45-.57,1.17-.38,1.58a.11.11,0,0,1,0,.05,3.66,3.66,0,0,1-1-.18A3.71,3.71,0,0,1,31.57,17Z"/><path class="cls-39" d="M35.88,12.89A1.7,1.7,0,0,1,35,14.65c-.66.37-.55,1.47-.51,1.67a5.12,5.12,0,0,1,.2,1.25c-.15.24-.71-.45-1-.39-.63.15-.36.75.25,1.36s-1,1-1.74.47c-.41-.28-.56-.45-1.13-1.49-.83-1.51-.95-3.36.8-4.43S34.78,13.39,35.88,12.89Z"/><path class="cls-40" d="M32.27,19c-.41-.28-.56-.45-1.13-1.49-.83-1.51-.95-3.36.8-4.43s2.84.3,3.94-.2a1.69,1.69,0,0,1,0,.47c-.57.12-2.1.5-2.48,1.2-.45.86-1,.61-.93,1.65s-.11,2.33,1.57,2.82A1.65,1.65,0,0,1,32.27,19Z"/><path class="cls-41" d="M34.83,20.16l1.32.91s-3.6,1.17-4.69-.52A1,1,0,0,1,32,19.29S32.22,20.7,34.83,20.16Z"/><path class="cls-34" d="M43.7,37.46c-.14.91-.25,1-.46.9a4,4,0,0,1-1.89-2.3,1.74,1.74,0,0,0-.14-.88s0-.07-.06-.11l1.11-.45a4.29,4.29,0,0,0,.72,1A2.78,2.78,0,0,1,43.7,37.46Z"/><path class="cls-36" d="M36.62,21.91c-2.1.82.85,7.93,1.92,9.61l2.51,4.31a1.88,1.88,0,0,0,1.51-1.07L40.3,30.3C40.22,29.73,39,21,36.62,21.91Z"/><path class="cls-11" d="M108.56,51.54c0,.1,0,.2,0,.3l-.06.23a2.76,2.76,0,0,1-.08.27l-.09.22c0,.1-.09.2-.14.29a4,4,0,0,1-.23.39l-.05.06c-.09.13-.19.25-.3.38l-.06.07c-.12.13-.25.25-.38.38l-.28.22-.26.21-.33.22c-.11.07-.22.15-.35.22a7.71,7.71,0,0,1-.86.44l-.26.11q-.36.15-.72.27c-.09,0-.18.07-.27.09l-.47.14-.36.1-.5.1-.35.07c-.34.06-.69.11-1,.15l-.32,0-.62,0H98.83c-.16,0-.31,0-.46,0l-.43,0-.46,0-.4-.06-.49-.08-.38-.08-.57-.14L95.33,56a8.21,8.21,0,0,1-1-.33l-.46-.19-.23-.11A7.24,7.24,0,0,1,93,55c-1.8-1-2.7-2.41-2.7-3.77v2.54c0,1.37.9,2.74,2.71,3.78a7.06,7.06,0,0,0,.67.35l.22.1c.14.06.28.13.43.18l0,0a10.24,10.24,0,0,0,1,.33l.08,0,.24.06.56.14.16,0,.22,0c.16,0,.33.06.49.09l.19,0,.22,0,.45.05.22,0h.21l.46,0h1.32l.62-.05h.32c.35,0,.7-.09,1-.15h.06l.29-.07a4.64,4.64,0,0,0,.51-.11c.12,0,.23-.06.35-.09l.48-.14a.38.38,0,0,0,.1,0l.16-.06q.36-.12.72-.27l.26-.11c.3-.14.59-.28.86-.44l.12-.06.24-.16.32-.22.26-.21.28-.22.06,0,.33-.33a.2.2,0,0,1,.06-.07l.17-.21.13-.17,0-.06c.07-.11.14-.21.2-.32s0,0,0-.07.09-.19.13-.28.06-.12.08-.17,0,0,0-.06a1.38,1.38,0,0,0,.08-.27,1.05,1.05,0,0,0,.05-.19.07.07,0,0,0,0,0,2.66,2.66,0,0,0,0-.28,1.37,1.37,0,0,0,0-.19.25.25,0,0,0,0-.08V51.28A2.11,2.11,0,0,1,108.56,51.54Z"/><path class="cls-42" d="M108.53,51.84l-.06.23a2.76,2.76,0,0,1-.08.27l-.09.22c0,.1-.09.2-.14.29a4,4,0,0,1-.23.39l-.05.06c-.09.13-.19.25-.3.38l-.06.07c-.12.13-.25.25-.38.38l-.28.22-.26.21-.33.22c-.11.07-.22.15-.35.22a7.71,7.71,0,0,1-.86.44l-.26.11q-.36.15-.72.27c-.09,0-.18.07-.27.09l-.47.14-.36.1-.5.1-.35.07c-.34.06-.69.11-1,.15l-.32,0-.62,0H98.83c-.16,0-.31,0-.46,0l-.43,0-.46,0-.4-.06-.49-.08-.38-.08-.57-.14L95.33,56a8.21,8.21,0,0,1-1-.33l-.46-.19-.23-.11A7.24,7.24,0,0,1,93,55c-1.8-1-2.7-2.41-2.7-3.77v1.68c0,1.36.91,2.71,2.71,3.75.21.12.44.24.67.35l.22.1.43.18,0,0c.32.12.64.23,1,.33l.08,0,.24,0,.56.14.16,0,.22,0,.49.09.19,0,.22,0,.45.05.22,0h.21l.46,0h1.32l.62,0,.25,0h.07c.35,0,.7-.08,1-.14h.06c.1,0,.19,0,.29-.06l.51-.11.35-.09.48-.14.1,0,.16-.06q.36-.12.72-.27l.26-.11c.3-.14.59-.28.86-.44l.12-.07.24-.16.32-.21.26-.21a3.11,3.11,0,0,0,.28-.23l.06-.05c.11-.1.22-.22.33-.33l.06-.07.17-.21a1.83,1.83,0,0,0,.13-.16s0,0,0-.06l.2-.32s0,0,0-.07.09-.19.13-.29.06-.11.08-.16,0,0,0-.06a1.38,1.38,0,0,0,.08-.27,1.8,1.8,0,0,0,.05-.19.09.09,0,0,0,0,0,2.85,2.85,0,0,0,0-.29,1.1,1.1,0,0,0,0-.18.28.28,0,0,0,0-.09V51.31a1.64,1.64,0,0,1,0,.23C108.55,51.64,108.55,51.74,108.53,51.84Z"/><path class="cls-12" d="M108.53,51.84l-.06.23a2.76,2.76,0,0,1-.08.27l-.09.22c0,.1-.09.2-.14.29a4,4,0,0,1-.23.39l-.05.06c-.09.13-.19.25-.3.38l-.06.07c-.12.13-.25.25-.38.38l-.28.22-.26.21-.33.22c-.11.07-.22.15-.35.22a7.71,7.71,0,0,1-.86.44l-.26.11q-.36.15-.72.27c-.09,0-.18.07-.27.09l-.47.14-.36.1-.5.1-.35.07c-.34.06-.69.11-1,.15l-.32,0-.62,0H98.83c-.16,0-.31,0-.46,0l-.43,0-.46,0-.4-.06-.49-.08-.38-.08-.57-.14L95.33,56a8.21,8.21,0,0,1-1-.33l-.46-.19-.23-.11A7.24,7.24,0,0,1,93,55c-1.8-1-2.7-2.41-2.7-3.77v1.68c0,1.36.91,2.71,2.71,3.75.21.12.44.24.67.35l.22.1.43.18,0,0c.32.12.64.23,1,.33l.08,0,.24,0,.56.14.16,0,.22,0,.49.09.19,0,.22,0,.45.05.22,0h.21l.46,0h1.32l.62,0,.25,0h.07c.35,0,.7-.08,1-.14h.06c.1,0,.19,0,.29-.06l.51-.11.35-.09.48-.14.1,0,.16-.06q.36-.12.72-.27l.26-.11c.3-.14.59-.28.86-.44l.12-.07.24-.16.32-.21.26-.21a3.11,3.11,0,0,0,.28-.23l.06-.05c.11-.1.22-.22.33-.33l.06-.07.17-.21a1.83,1.83,0,0,0,.13-.16s0,0,0-.06l.2-.32s0,0,0-.07.09-.19.13-.29.06-.11.08-.16,0,0,0-.06a1.38,1.38,0,0,0,.08-.27,1.8,1.8,0,0,0,.05-.19.09.09,0,0,0,0,0,2.85,2.85,0,0,0,0-.29,1.1,1.1,0,0,0,0-.18.28.28,0,0,0,0-.09V51.31a1.64,1.64,0,0,1,0,.23C108.55,51.64,108.55,51.74,108.53,51.84Z"/><path class="cls-43" d="M105.88,47.5c3.59,2.07,3.61,5.43,0,7.5a14.25,14.25,0,0,1-13,0c-3.59-2.07-3.6-5.43,0-7.5A14.28,14.28,0,0,1,105.88,47.5Z"/><path class="cls-42" d="M105.88,47.5c3.59,2.07,3.61,5.43,0,7.5a14.25,14.25,0,0,1-13,0c-3.59-2.07-3.6-5.43,0-7.5A14.28,14.28,0,0,1,105.88,47.5Z"/><path class="cls-11" d="M105.88,48c3.59,2.07,3.61,5,0,7a14.25,14.25,0,0,1-13,0c-3.59-2.07-3.6-5,0-7A14.28,14.28,0,0,1,105.88,48Z"/><path class="cls-44" d="M92.93,48a14.28,14.28,0,0,1,12.95,0c1.69,1,2.58,2.14,2.68,3.32.12-1.33-.77-2.67-2.68-3.77a14.28,14.28,0,0,0-12.95,0c-1.88,1.1-2.75,2.42-2.64,3.74C90.39,50.07,91.26,48.92,92.93,48Z"/><path class="cls-45" d="M104.52,48.29c2.84,1.63,2.86,4.29,0,5.93a11.3,11.3,0,0,1-10.24,0c-2.84-1.64-2.85-4.29,0-5.93A11.25,11.25,0,0,1,104.52,48.29Z"/><path class="cls-46" d="M104.32,48.57c2.73,1.62,2.74,4.26,0,5.88a10.54,10.54,0,0,1-9.84,0c-2.72-1.62-2.74-4.25,0-5.88A10.55,10.55,0,0,1,104.32,48.57Z"/><path class="cls-42" d="M104,49l-1,.58a2.13,2.13,0,0,1,1,1l-.92.26a2.29,2.29,0,0,0-2.92-1.08c-.53.3-.42.68.1,1.42s.65,1.48-.26,2a4,4,0,0,1-3.39.06l-1.06.62-.65-.37,1-.6a2.46,2.46,0,0,1-1.12-1.18l.94-.25a2.21,2.21,0,0,0,1,1.11,2.36,2.36,0,0,0,2.23.14c.58-.34.53-.77.07-1.39-.65-.85-.83-1.51,0-2a3.81,3.81,0,0,1,3.23-.07l1-.6Z"/><path class="cls-11" d="M110.48,47.28a2.58,2.58,0,0,1,0,.29l-.06.23a2.29,2.29,0,0,1-.08.28l-.09.22c0,.1-.09.19-.14.29a4,4,0,0,1-.23.39l0,.06c-.09.13-.19.25-.3.38l-.06.06a4.54,4.54,0,0,1-.38.38l-.28.23-.26.21-.32.21c-.12.08-.23.16-.36.23s-.56.3-.86.44l-.26.11q-.36.15-.72.27l-.26.09-.48.14-.36.09-.5.11-.35.07c-.34.06-.69.11-1,.15l-.32,0c-.21,0-.41,0-.62,0l-.4,0h-.92l-.46,0-.43,0-.46-.06-.4,0L98.51,52,98.13,52l-.57-.14-.31-.09c-.34-.1-.67-.21-1-.33l-.47-.2-.23-.1c-.24-.11-.46-.23-.68-.35-1.8-1-2.7-2.41-2.7-3.78v2.55c0,1.37.9,2.74,2.71,3.78.21.12.44.24.67.35l.22.1.43.18.05,0c.32.12.65.23,1,.33l.08,0a2.1,2.1,0,0,1,.24.06l.56.14.16,0,.22,0,.49.09.19,0,.22,0,.45,0,.23,0h.2l.46,0h.93a1.92,1.92,0,0,0,.24,0h.15l.62,0h.25l.07,0c.36,0,.7-.08,1-.14h0c.1,0,.19,0,.29-.06l.51-.11.35-.09.48-.14.1,0,.16-.06a7.66,7.66,0,0,0,.72-.27l.26-.11c.3-.14.59-.28.87-.44l.11-.07.24-.16.32-.21.26-.21a3.11,3.11,0,0,0,.28-.23l.06,0c.12-.11.22-.22.33-.34l.06-.07.17-.21a1.83,1.83,0,0,0,.13-.16s0,0,0-.06l.2-.32s0-.05,0-.07.09-.19.13-.29l.08-.16s0,0,0-.06a1.38,1.38,0,0,0,.08-.27l.06-.19v-.05a1.36,1.36,0,0,0,0-.29l0-.18V47A2.46,2.46,0,0,1,110.48,47.28Z"/><path class="cls-42" d="M110.45,47.57l-.06.23a2.29,2.29,0,0,1-.08.28l-.09.22c0,.1-.09.19-.14.29a4,4,0,0,1-.23.39l0,.06c-.09.13-.19.25-.3.38l-.06.06a4.54,4.54,0,0,1-.38.38l-.28.23-.26.21-.32.21c-.12.08-.23.16-.36.23s-.56.3-.86.44l-.26.11q-.36.15-.72.27l-.26.09-.48.14-.36.09-.5.11-.35.07c-.34.06-.69.11-1,.15l-.32,0c-.21,0-.41,0-.62,0l-.4,0h-.92l-.46,0-.43,0-.46-.06-.4,0L98.51,52,98.13,52l-.57-.14-.31-.09c-.34-.1-.67-.21-1-.33l-.47-.2-.23-.1c-.24-.11-.46-.23-.68-.35-1.8-1-2.7-2.41-2.7-3.78v1.69c0,1.36.9,2.71,2.7,3.74a7.12,7.12,0,0,0,.67.36l.22.09.43.19.05,0c.32.12.65.23,1,.33l.08,0,.24.06.56.14.16,0,.22,0,.49.08.19,0,.22,0,.45,0,.23,0h.2l.46,0H101a1.08,1.08,0,0,0,.18,0c.17,0,.34,0,.51,0h.39l.62,0,.25,0H103c.36,0,.7-.08,1-.14h0l.29-.06.51-.11.35-.1.48-.13.1,0,.16-.06c.25-.09.49-.18.72-.28l.26-.11a8.79,8.79,0,0,0,.87-.43l.11-.07.24-.16a3.62,3.62,0,0,0,.32-.22l.26-.2.28-.23.06-.05c.12-.11.22-.22.33-.33l.06-.07.17-.21a1.09,1.09,0,0,0,.13-.17l0-.06a3.45,3.45,0,0,0,.2-.32s0,0,0-.07.09-.19.13-.28.06-.11.08-.17a.43.43,0,0,1,0,0,1.47,1.47,0,0,0,.08-.28l.06-.18v-.05a1.43,1.43,0,0,0,0-.29l0-.19v-1.7a1.79,1.79,0,0,1,0,.23A2.58,2.58,0,0,1,110.45,47.57Z"/><path class="cls-12" d="M110.45,47.57l-.06.23a2.29,2.29,0,0,1-.08.28l-.09.22c0,.1-.09.19-.14.29a4,4,0,0,1-.23.39l0,.06c-.09.13-.19.25-.3.38l-.06.06a4.54,4.54,0,0,1-.38.38l-.28.23-.26.21-.32.21c-.12.08-.23.16-.36.23s-.56.3-.86.44l-.26.11q-.36.15-.72.27l-.26.09-.48.14-.36.09-.5.11-.35.07c-.34.06-.69.11-1,.15l-.32,0c-.21,0-.41,0-.62,0l-.4,0h-.92l-.46,0-.43,0-.46-.06-.4,0L98.51,52,98.13,52l-.57-.14-.31-.09c-.34-.1-.67-.21-1-.33l-.47-.2-.23-.1c-.24-.11-.46-.23-.68-.35-1.8-1-2.7-2.41-2.7-3.78v1.69c0,1.36.9,2.71,2.7,3.74a7.12,7.12,0,0,0,.67.36l.22.09.43.19.05,0c.32.12.65.23,1,.33l.08,0,.24.06.56.14.16,0,.22,0,.49.08.19,0,.22,0,.45,0,.23,0h.2l.46,0H101a1.08,1.08,0,0,0,.18,0c.17,0,.34,0,.51,0h.39l.62,0,.25,0H103c.36,0,.7-.08,1-.14h0l.29-.06.51-.11.35-.1.48-.13.1,0,.16-.06c.25-.09.49-.18.72-.28l.26-.11a8.79,8.79,0,0,0,.87-.43l.11-.07.24-.16a3.62,3.62,0,0,0,.32-.22l.26-.2.28-.23.06-.05c.12-.11.22-.22.33-.33l.06-.07.17-.21a1.09,1.09,0,0,0,.13-.17l0-.06a3.45,3.45,0,0,0,.2-.32s0,0,0-.07.09-.19.13-.28.06-.11.08-.17a.43.43,0,0,1,0,0,1.47,1.47,0,0,0,.08-.28l.06-.18v-.05a1.43,1.43,0,0,0,0-.29l0-.19v-1.7a1.79,1.79,0,0,1,0,.23A2.58,2.58,0,0,1,110.45,47.57Z"/><path class="cls-43" d="M107.8,43.24c3.59,2.07,3.61,5.43,0,7.5a14.28,14.28,0,0,1-13,0c-3.58-2.07-3.6-5.43,0-7.5A14.28,14.28,0,0,1,107.8,43.24Z"/><path class="cls-42" d="M107.8,43.24c3.59,2.07,3.61,5.43,0,7.5a14.28,14.28,0,0,1-13,0c-3.58-2.07-3.6-5.43,0-7.5A14.28,14.28,0,0,1,107.8,43.24Z"/><path class="cls-11" d="M107.8,43.69c3.59,2.07,3.61,5,0,7.05a14.28,14.28,0,0,1-13,0c-3.58-2.07-3.6-5,0-7.05A14.25,14.25,0,0,1,107.8,43.69Z"/><path class="cls-44" d="M94.85,43.69a14.25,14.25,0,0,1,13,0c1.69,1,2.58,2.14,2.68,3.31.12-1.32-.77-2.66-2.68-3.76a14.28,14.28,0,0,0-13,0C93,44.33,92.1,45.66,92.21,47,92.31,45.81,93.18,44.66,94.85,43.69Z"/><path class="cls-45" d="M106.45,44c2.83,1.64,2.85,4.3,0,5.94a11.3,11.3,0,0,1-10.24,0c-2.84-1.63-2.85-4.29,0-5.93A11.33,11.33,0,0,1,106.45,44Z"/><path class="cls-46" d="M106.24,44.31c2.73,1.62,2.74,4.25,0,5.88a10.57,10.57,0,0,1-9.84,0c-2.72-1.63-2.74-4.26,0-5.88A10.49,10.49,0,0,1,106.24,44.31Z"/><path class="cls-42" d="M106,44.72l-1,.59a2.08,2.08,0,0,1,1,1l-.92.26a2,2,0,0,0-.94-1,2,2,0,0,0-2-.12c-.53.31-.41.68.1,1.43s.65,1.48-.26,2a4,4,0,0,1-3.39.07l-1.06.62-.65-.37,1-.6a2.48,2.48,0,0,1-1.13-1.18l.94-.26a2.26,2.26,0,0,0,1,1.12,2.37,2.37,0,0,0,2.24.14c.57-.34.52-.78.06-1.4-.65-.84-.83-1.5.06-2a3.79,3.79,0,0,1,3.22-.07l1-.6Z"/><path class="cls-11" d="M108.56,43.66a1.5,1.5,0,0,1,0,.29,2,2,0,0,1-.06.23,1.72,1.72,0,0,1-.08.28c0,.07-.06.14-.09.22s-.08.19-.13.28a4.11,4.11,0,0,1-.24.39l0,.06a3.57,3.57,0,0,1-.3.38l-.06.07c-.12.13-.25.25-.39.38l-.28.23-.26.2a3.62,3.62,0,0,1-.32.22l-.35.23c-.28.15-.57.3-.87.43l-.26.11c-.23.1-.47.19-.72.28l-.26.09-.47.13-.36.1-.51.11-.34.07c-.35.06-.69.1-1,.14l-.32,0-.62,0h-.39c-.17,0-.34,0-.51,0h-.42l-.46,0-.43,0-.45-.05-.41-.06-.49-.08-.38-.08-.56-.14-.32-.08c-.33-.1-.66-.21-1-.34l-.46-.19-.24-.11a5.32,5.32,0,0,1-.67-.35c-1.81-1-2.71-2.41-2.71-3.77v2.55c0,1.36.89,2.73,2.7,3.77.22.13.44.24.67.35l.23.1.42.19h0c.32.13.65.24,1,.34l.08,0,.24.06.57.14.15,0,.23,0,.49.08a1.08,1.08,0,0,0,.19,0l.21,0,.46,0,.22,0h.2l.47,0h1.31l.62,0,.25,0h.08c.35,0,.7-.08,1-.15h.05l.29-.06.51-.11.36-.1.47-.13.1,0,.16-.06c.25-.09.49-.18.72-.28l.27-.11c.29-.13.58-.28.86-.44l.11-.06.24-.16.33-.22.25-.2a3.45,3.45,0,0,0,.28-.23l.06,0q.18-.16.33-.33l.06-.07.18-.21.12-.17a.21.21,0,0,0,0-.06,2.92,2.92,0,0,0,.21-.32l0-.07c0-.09.09-.19.13-.28a1.3,1.3,0,0,0,.08-.17s0,0,0-.06,0-.18.08-.27,0-.12,0-.18v0c0-.1,0-.2,0-.29s0-.13,0-.19V43.39A2.48,2.48,0,0,1,108.56,43.66Z"/><path class="cls-42" d="M108.53,44a2,2,0,0,1-.06.23,1.72,1.72,0,0,1-.08.28c0,.07-.06.14-.09.22s-.08.19-.13.28a4.11,4.11,0,0,1-.24.39l0,.06a3.57,3.57,0,0,1-.3.38l-.06.07c-.12.13-.25.25-.39.38l-.28.23-.26.2a3.62,3.62,0,0,1-.32.22l-.35.23c-.28.15-.57.3-.87.43l-.26.11c-.23.1-.47.19-.72.28l-.26.09-.47.13-.36.1-.51.11-.34.07c-.35.06-.69.1-1,.14l-.32,0-.62,0h-.39c-.17,0-.34,0-.51,0h-.42l-.46,0-.43,0-.45-.05-.41-.06-.49-.08-.38-.08-.56-.14-.32-.08c-.33-.1-.66-.21-1-.34l-.46-.19-.24-.11a5.32,5.32,0,0,1-.67-.35c-1.81-1-2.71-2.41-2.71-3.77V45c0,1.36.91,2.71,2.7,3.75.22.12.44.24.67.35l.23.1c.14.06.28.13.42.18l0,0c.32.12.65.23,1,.33l.08,0,.24.06.57.14.15,0,.23,0,.49.09.19,0,.21,0,.46,0,.22,0h.2l.47,0h1.31l.62-.05h.33c.35,0,.7-.09,1-.15h.05a2.47,2.47,0,0,0,.29-.06l.51-.11.36-.09.47-.14.1,0a.76.76,0,0,0,.16-.06,7.66,7.66,0,0,0,.72-.27l.27-.11c.29-.14.58-.28.86-.44l.11-.06.24-.17.33-.21.25-.21a2.15,2.15,0,0,0,.28-.23l.06,0a3.51,3.51,0,0,0,.33-.34l.06-.07.18-.2.12-.17a.21.21,0,0,0,0-.06,2.92,2.92,0,0,0,.21-.32l0-.07c0-.1.09-.19.13-.29l.08-.16s0,0,0-.06,0-.18.08-.27,0-.13,0-.19v0a2.54,2.54,0,0,0,0-.29c0-.06,0-.12,0-.18V43.42a1.94,1.94,0,0,1,0,.24A1.5,1.5,0,0,1,108.53,44Z"/><path class="cls-12" d="M108.53,44a2,2,0,0,1-.06.23,1.72,1.72,0,0,1-.08.28c0,.07-.06.14-.09.22s-.08.19-.13.28a4.11,4.11,0,0,1-.24.39l0,.06a3.57,3.57,0,0,1-.3.38l-.06.07c-.12.13-.25.25-.39.38l-.28.23-.26.2a3.62,3.62,0,0,1-.32.22l-.35.23c-.28.15-.57.3-.87.43l-.26.11c-.23.1-.47.19-.72.28l-.26.09-.47.13-.36.1-.51.11-.34.07c-.35.06-.69.1-1,.14l-.32,0-.62,0h-.39c-.17,0-.34,0-.51,0h-.42l-.46,0-.43,0-.45-.05-.41-.06-.49-.08-.38-.08-.56-.14-.32-.08c-.33-.1-.66-.21-1-.34l-.46-.19-.24-.11a5.32,5.32,0,0,1-.67-.35c-1.81-1-2.71-2.41-2.71-3.77V45c0,1.36.91,2.71,2.7,3.75.22.12.44.24.67.35l.23.1c.14.06.28.13.42.18l0,0c.32.12.65.23,1,.33l.08,0,.24.06.57.14.15,0,.23,0,.49.09.19,0,.21,0,.46,0,.22,0h.2l.47,0h1.31l.62-.05h.33c.35,0,.7-.09,1-.15h.05a2.47,2.47,0,0,0,.29-.06l.51-.11.36-.09.47-.14.1,0a.76.76,0,0,0,.16-.06,7.66,7.66,0,0,0,.72-.27l.27-.11c.29-.14.58-.28.86-.44l.11-.06.24-.17.33-.21.25-.21a2.15,2.15,0,0,0,.28-.23l.06,0a3.51,3.51,0,0,0,.33-.34l.06-.07.18-.2.12-.17a.21.21,0,0,0,0-.06,2.92,2.92,0,0,0,.21-.32l0-.07c0-.1.09-.19.13-.29l.08-.16s0,0,0-.06,0-.18.08-.27,0-.13,0-.19v0a2.54,2.54,0,0,0,0-.29c0-.06,0-.12,0-.18V43.42a1.94,1.94,0,0,1,0,.24A1.5,1.5,0,0,1,108.53,44Z"/><path class="cls-43" d="M105.88,39.61c3.59,2.08,3.61,5.43.05,7.51a14.25,14.25,0,0,1-13,0c-3.59-2.07-3.61-5.42,0-7.5A14.28,14.28,0,0,1,105.88,39.61Z"/><path class="cls-42" d="M105.88,39.61c3.59,2.08,3.61,5.43.05,7.51a14.25,14.25,0,0,1-13,0c-3.59-2.07-3.61-5.42,0-7.5A14.28,14.28,0,0,1,105.88,39.61Z"/><path class="cls-11" d="M105.88,40.06c3.59,2.07,3.61,5,.05,7.06a14.25,14.25,0,0,1-13,0c-3.59-2.07-3.61-5,0-7A14.28,14.28,0,0,1,105.88,40.06Z"/><path class="cls-44" d="M92.93,40.06a14.28,14.28,0,0,1,12.95,0c1.7,1,2.59,2.14,2.69,3.32.11-1.32-.78-2.67-2.69-3.77a14.28,14.28,0,0,0-12.95,0c-1.88,1.1-2.75,2.43-2.64,3.74C90.39,42.18,91.27,41,92.93,40.06Z"/><path class="cls-45" d="M104.53,40.4c2.84,1.64,2.85,4.29,0,5.93a11.27,11.27,0,0,1-10.24,0c-2.83-1.64-2.85-4.29,0-5.93A11.27,11.27,0,0,1,104.53,40.4Z"/><path class="cls-46" d="M104.33,40.68c2.72,1.63,2.74,4.26,0,5.88a10.49,10.49,0,0,1-9.83,0c-2.73-1.62-2.74-4.25,0-5.88A10.57,10.57,0,0,1,104.33,40.68Z"/><path class="cls-42" d="M104,41.1l-1,.58a2,2,0,0,1,1,1l-.91.25a2.07,2.07,0,0,0-1-1,2,2,0,0,0-2-.11c-.53.31-.41.68.1,1.42s.65,1.48-.26,2a4,4,0,0,1-3.39.07L95.55,46l-.64-.37,1-.6a2.47,2.47,0,0,1-1.13-1.17l.94-.26a2.19,2.19,0,0,0,1,1.11A2.33,2.33,0,0,0,99,44.8c.58-.34.52-.77.06-1.39-.64-.85-.83-1.51.06-2a3.83,3.83,0,0,1,3.22-.07l1-.6Z"/><path class="cls-11" d="M90.06,60.7A1.5,1.5,0,0,1,90,61a2,2,0,0,1-.06.23,1.72,1.72,0,0,1-.08.28c0,.07-.06.14-.09.22s-.08.19-.13.29a3,3,0,0,1-.24.38l0,.06a3.57,3.57,0,0,1-.3.38L89,62.9c-.12.13-.25.25-.39.38l-.28.23-.26.2a3.62,3.62,0,0,1-.32.22l-.35.23a8.79,8.79,0,0,1-.87.43l-.26.11c-.23.1-.47.19-.72.28l-.26.09-.47.13-.36.1-.51.11-.34.07c-.35.06-.69.11-1,.14l-.32,0-.62,0H80.33l-.46,0-.43,0-.45,0-.41-.06-.49-.08-.38-.08-.56-.14-.32-.08c-.33-.1-.66-.21-1-.33l-.46-.2-.24-.1a7.12,7.12,0,0,1-.67-.36c-1.81-1-2.71-2.41-2.71-3.77v2.55c0,1.36.89,2.73,2.7,3.77.22.13.44.25.67.36l.23.09.42.19h0c.32.13.65.24,1,.34l.08,0a2.1,2.1,0,0,0,.24.06l.57.14.15,0,.23,0,.49.08.19,0,.21,0,.46.05.22,0h.2l.47,0h1.31l.62,0,.25,0h.08c.35,0,.7-.08,1-.14h.05L84,68l.51-.11.36-.1.47-.13.1,0,.16-.06c.25-.09.49-.18.72-.28l.27-.11c.29-.13.58-.28.86-.43l.11-.07c.09,0,.16-.11.24-.16l.33-.22a2.43,2.43,0,0,0,.25-.2,3.45,3.45,0,0,0,.28-.23l.06,0q.18-.16.33-.33l.06-.07.18-.21.12-.17a.21.21,0,0,0,0-.06,2.2,2.2,0,0,0,.21-.32l0-.07c0-.09.09-.19.13-.28a1.3,1.3,0,0,0,.08-.17s0,0,0-.06,0-.18.08-.27,0-.12,0-.18v-.05c0-.1,0-.2,0-.29s0-.13,0-.19V60.43A2.48,2.48,0,0,1,90.06,60.7Z"/><path class="cls-42" d="M90,61a2,2,0,0,1-.06.23,1.72,1.72,0,0,1-.08.28c0,.07-.06.14-.09.22s-.08.19-.13.29a3,3,0,0,1-.24.38l0,.06a3.57,3.57,0,0,1-.3.38L89,62.9c-.12.13-.25.25-.39.38l-.28.23-.26.2a3.62,3.62,0,0,1-.32.22l-.35.23a8.79,8.79,0,0,1-.87.43l-.26.11c-.23.1-.47.19-.72.28l-.26.09-.47.13-.36.1-.51.11-.34.07c-.35.06-.69.11-1,.14l-.32,0-.62,0H80.33l-.46,0-.43,0-.45,0-.41-.06-.49-.08-.38-.08-.56-.14-.32-.08c-.33-.1-.66-.21-1-.33l-.46-.2-.24-.1a7.12,7.12,0,0,1-.67-.36c-1.81-1-2.71-2.41-2.71-3.77v1.69c0,1.35.91,2.71,2.7,3.74.22.13.44.24.67.35l.23.1c.14.06.28.13.42.18l0,0c.32.13.65.23,1,.33l.08,0,.24.06.57.14.15,0,.23,0,.49.09.19,0,.21,0,.46.05.22,0h.2l.47,0h.92a2.08,2.08,0,0,1,.25,0h.14l.62,0h.33c.35,0,.7-.09,1-.15h.05l.29-.07.51-.11c.12,0,.24-.06.36-.09l.47-.14a.38.38,0,0,0,.1,0,.76.76,0,0,0,.16-.06,7.66,7.66,0,0,0,.72-.27l.27-.11c.29-.14.58-.28.86-.44l.11-.06.24-.16.33-.22.25-.21a2.15,2.15,0,0,0,.28-.23l.06,0q.18-.17.33-.33l.06-.07.18-.21.12-.17a.21.21,0,0,0,0-.06,2.92,2.92,0,0,0,.21-.32l0-.07c0-.09.09-.19.13-.28l.08-.17s0,0,0-.06,0-.18.08-.27,0-.13,0-.19v0a2.54,2.54,0,0,0,0-.29c0-.06,0-.12,0-.18V60.46a1.94,1.94,0,0,1,0,.24A1.5,1.5,0,0,1,90,61Z"/><path class="cls-12" d="M90,61a2,2,0,0,1-.06.23,1.72,1.72,0,0,1-.08.28c0,.07-.06.14-.09.22s-.08.19-.13.29a3,3,0,0,1-.24.38l0,.06a3.57,3.57,0,0,1-.3.38L89,62.9c-.12.13-.25.25-.39.38l-.28.23-.26.2a3.62,3.62,0,0,1-.32.22l-.35.23a8.79,8.79,0,0,1-.87.43l-.26.11c-.23.1-.47.19-.72.28l-.26.09-.47.13-.36.1-.51.11-.34.07c-.35.06-.69.11-1,.14l-.32,0-.62,0H80.33l-.46,0-.43,0-.45,0-.41-.06-.49-.08-.38-.08-.56-.14-.32-.08c-.33-.1-.66-.21-1-.33l-.46-.2-.24-.1a7.12,7.12,0,0,1-.67-.36c-1.81-1-2.71-2.41-2.71-3.77v1.69c0,1.35.91,2.71,2.7,3.74.22.13.44.24.67.35l.23.1c.14.06.28.13.42.18l0,0c.32.13.65.23,1,.33l.08,0,.24.06.57.14.15,0,.23,0,.49.09.19,0,.21,0,.46.05.22,0h.2l.47,0h.92a2.08,2.08,0,0,1,.25,0h.14l.62,0h.33c.35,0,.7-.09,1-.15h.05l.29-.07.51-.11c.12,0,.24-.06.36-.09l.47-.14a.38.38,0,0,0,.1,0,.76.76,0,0,0,.16-.06,7.66,7.66,0,0,0,.72-.27l.27-.11c.29-.14.58-.28.86-.44l.11-.06.24-.16.33-.22.25-.21a2.15,2.15,0,0,0,.28-.23l.06,0q.18-.17.33-.33l.06-.07.18-.21.12-.17a.21.21,0,0,0,0-.06,2.92,2.92,0,0,0,.21-.32l0-.07c0-.09.09-.19.13-.28l.08-.17s0,0,0-.06,0-.18.08-.27,0-.13,0-.19v0a2.54,2.54,0,0,0,0-.29c0-.06,0-.12,0-.18V60.46a1.94,1.94,0,0,1,0,.24A1.5,1.5,0,0,1,90,61Z"/><path class="cls-43" d="M87.38,56.65c3.59,2.08,3.61,5.44.05,7.51a14.25,14.25,0,0,1-13,0c-3.59-2.07-3.61-5.42,0-7.49A14.25,14.25,0,0,1,87.38,56.65Z"/><path class="cls-42" d="M87.38,56.65c3.59,2.08,3.61,5.44.05,7.51a14.25,14.25,0,0,1-13,0c-3.59-2.07-3.61-5.42,0-7.49A14.25,14.25,0,0,1,87.38,56.65Z"/><path class="cls-11" d="M87.38,57.1c3.59,2.07,3.61,5,.05,7.06a14.25,14.25,0,0,1-13,0c-3.59-2.07-3.61-5,0-7.05A14.28,14.28,0,0,1,87.38,57.1Z"/><path class="cls-44" d="M74.43,57.1a14.28,14.28,0,0,1,12.95,0c1.7,1,2.59,2.14,2.69,3.32.11-1.32-.78-2.66-2.69-3.77a14.25,14.25,0,0,0-12.95,0c-1.88,1.09-2.75,2.42-2.64,3.73C71.89,59.23,72.77,58.07,74.43,57.1Z"/><path class="cls-45" d="M86,57.44c2.84,1.64,2.85,4.29,0,5.93a11.27,11.27,0,0,1-10.24,0c-2.83-1.64-2.85-4.29,0-5.93A11.27,11.27,0,0,1,86,57.44Z"/><path class="cls-46" d="M85.83,57.72c2.72,1.63,2.74,4.26,0,5.88a10.49,10.49,0,0,1-9.83,0c-2.73-1.62-2.74-4.25,0-5.88A10.57,10.57,0,0,1,85.83,57.72Z"/><path class="cls-42" d="M85.54,58.14l-1,.58a2,2,0,0,1,1,1l-.91.25a2,2,0,0,0-1-1,2,2,0,0,0-2-.12c-.53.31-.41.68.1,1.42s.65,1.48-.26,2a4,4,0,0,1-3.39.07L77.05,63l-.64-.37,1-.6a2.42,2.42,0,0,1-1.13-1.17l.94-.26a2.19,2.19,0,0,0,1,1.11,2.33,2.33,0,0,0,2.23.14c.58-.34.52-.77.06-1.39-.64-.85-.83-1.5.06-2a3.83,3.83,0,0,1,3.22-.07l1-.6Z"/><path class="cls-11" d="M88.15,57.07a2.54,2.54,0,0,1,0,.29,1.55,1.55,0,0,1,0,.23c0,.1,0,.19-.08.28a1.47,1.47,0,0,1-.1.22,2.55,2.55,0,0,1-.13.29c-.07.13-.15.26-.23.39l0,.06c-.09.13-.19.25-.3.38l-.06.06a4.68,4.68,0,0,1-.39.38,3,3,0,0,1-.27.23l-.26.21-.33.21-.35.23c-.28.16-.57.3-.87.44l-.26.11a7.66,7.66,0,0,1-.72.27l-.26.09-.47.14-.36.09-.51.11-.34.07c-.34.06-.69.11-1,.15l-.32,0-.63,0H78.42L78,62l-.42,0-.46,0-.41-.06-.48-.09-.38-.07-.57-.14-.32-.09c-.33-.1-.66-.21-1-.33l-.46-.2-.24-.1c-.23-.11-.45-.23-.67-.35-1.81-1-2.71-2.41-2.7-3.78V59.3c0,1.37.9,2.74,2.7,3.78.22.12.44.24.68.35l.22.1.42.18.06,0c.31.12.64.23,1,.33l.08,0,.23.06.57.14.15,0,.23,0,.49.09.19,0,.21,0,.46.06.22,0H78l.46,0h1.32l.62,0h.32c.35,0,.7-.09,1-.15h.05l.3-.06.5-.11.36-.09L83.4,64l.09,0,.17-.06q.36-.12.72-.27l.26-.11c.3-.14.59-.28.86-.44a.41.41,0,0,0,.11-.07,2,2,0,0,0,.24-.16l.33-.21.26-.21.28-.23,0,0a3.51,3.51,0,0,0,.33-.34l.06-.07a1.81,1.81,0,0,0,.18-.21l.12-.16.05-.06c.07-.11.14-.21.2-.32l0-.07.14-.29.07-.16s0,0,0-.06,0-.18.08-.27,0-.13,0-.19a.09.09,0,0,1,0-.05,2.58,2.58,0,0,0,0-.29,1.1,1.1,0,0,0,0-.18V56.81A2.28,2.28,0,0,1,88.15,57.07Z"/><path class="cls-42" d="M88.11,57.36a1.55,1.55,0,0,1,0,.23c0,.1,0,.19-.08.28a1.47,1.47,0,0,1-.1.22,2.55,2.55,0,0,1-.13.29c-.07.13-.15.26-.23.39l0,.06c-.09.13-.19.25-.3.38l-.06.06a4.68,4.68,0,0,1-.39.38,3,3,0,0,1-.27.23l-.26.21-.33.21-.35.23c-.28.16-.57.3-.87.44l-.26.11a7.66,7.66,0,0,1-.72.27l-.26.09-.47.14-.36.09-.51.11-.34.07c-.34.06-.69.11-1,.15l-.32,0-.63,0H78.42L78,62l-.42,0-.46,0-.41-.06-.48-.09-.38-.07-.57-.14-.32-.09c-.33-.1-.66-.21-1-.33l-.46-.2-.24-.1c-.23-.11-.45-.23-.67-.35-1.81-1-2.71-2.41-2.7-3.78v1.69c0,1.36.91,2.71,2.7,3.75.22.12.44.24.68.35l.22.09.42.19.06,0c.31.12.64.23,1,.33l.08,0a1.55,1.55,0,0,0,.23.06l.57.14.15,0,.23,0,.49.08.19,0,.21,0,.46,0,.22,0H78l.46,0h.23a1.21,1.21,0,0,0,.19,0c.17,0,.33,0,.5,0h.4l.62,0,.25,0h.07c.35,0,.7-.08,1-.14h.05l.3-.06.5-.11.36-.1.48-.13.09,0,.17-.06.72-.28.26-.11a7.66,7.66,0,0,0,.86-.43l.11-.07c.09,0,.16-.11.24-.16a3.78,3.78,0,0,0,.33-.22l.26-.2.28-.23s0,0,0-.05.23-.22.33-.33l.06-.07c.06-.07.13-.14.18-.21l.12-.17.05-.06a3.45,3.45,0,0,0,.2-.32l0-.06.14-.29c0-.06.05-.11.07-.17l0,0c0-.09,0-.19.08-.28s0-.12,0-.18a.07.07,0,0,1,0,0,2.85,2.85,0,0,0,0-.29,1.23,1.23,0,0,0,0-.19v-1.7a1.79,1.79,0,0,0,0,.23A2.54,2.54,0,0,1,88.11,57.36Z"/><path class="cls-12" d="M88.11,57.36a1.55,1.55,0,0,1,0,.23c0,.1,0,.19-.08.28a1.47,1.47,0,0,1-.1.22,2.55,2.55,0,0,1-.13.29c-.07.13-.15.26-.23.39l0,.06c-.09.13-.19.25-.3.38l-.06.06a4.68,4.68,0,0,1-.39.38,3,3,0,0,1-.27.23l-.26.21-.33.21-.35.23c-.28.16-.57.3-.87.44l-.26.11a7.66,7.66,0,0,1-.72.27l-.26.09-.47.14-.36.09-.51.11-.34.07c-.34.06-.69.11-1,.15l-.32,0-.63,0H78.42L78,62l-.42,0-.46,0-.41-.06-.48-.09-.38-.07-.57-.14-.32-.09c-.33-.1-.66-.21-1-.33l-.46-.2-.24-.1c-.23-.11-.45-.23-.67-.35-1.81-1-2.71-2.41-2.7-3.78v1.69c0,1.36.91,2.71,2.7,3.75.22.12.44.24.68.35l.22.09.42.19.06,0c.31.12.64.23,1,.33l.08,0a1.55,1.55,0,0,0,.23.06l.57.14.15,0,.23,0,.49.08.19,0,.21,0,.46,0,.22,0H78l.46,0h.23a1.21,1.21,0,0,0,.19,0c.17,0,.33,0,.5,0h.4l.62,0,.25,0h.07c.35,0,.7-.08,1-.14h.05l.3-.06.5-.11.36-.1.48-.13.09,0,.17-.06.72-.28.26-.11a7.66,7.66,0,0,0,.86-.43l.11-.07c.09,0,.16-.11.24-.16a3.78,3.78,0,0,0,.33-.22l.26-.2.28-.23s0,0,0-.05.23-.22.33-.33l.06-.07c.06-.07.13-.14.18-.21l.12-.17.05-.06a3.45,3.45,0,0,0,.2-.32l0-.06.14-.29c0-.06.05-.11.07-.17l0,0c0-.09,0-.19.08-.28s0-.12,0-.18a.07.07,0,0,1,0,0,2.85,2.85,0,0,0,0-.29,1.23,1.23,0,0,0,0-.19v-1.7a1.79,1.79,0,0,0,0,.23A2.54,2.54,0,0,1,88.11,57.36Z"/><path class="cls-43" d="M85.47,53c3.58,2.07,3.6,5.43,0,7.5a14.28,14.28,0,0,1-13,0C69,58.46,69,55.1,72.52,53A14.28,14.28,0,0,1,85.47,53Z"/><path class="cls-42" d="M85.47,53c3.58,2.07,3.6,5.43,0,7.5a14.28,14.28,0,0,1-13,0C69,58.46,69,55.1,72.52,53A14.28,14.28,0,0,1,85.47,53Z"/><path class="cls-11" d="M85.47,53.48c3.58,2.07,3.6,5,0,7.05a14.28,14.28,0,0,1-13,0c-3.59-2.07-3.61-5,0-7.05A14.25,14.25,0,0,1,85.47,53.48Z"/><path class="cls-44" d="M72.52,53.48a14.25,14.25,0,0,1,13,0c1.69,1,2.58,2.14,2.68,3.31.11-1.32-.77-2.66-2.68-3.76a14.28,14.28,0,0,0-13,0c-1.88,1.09-2.76,2.42-2.64,3.73C70,55.6,70.85,54.45,72.52,53.48Z"/><path class="cls-45" d="M84.11,53.81c2.84,1.64,2.85,4.3,0,5.94a11.28,11.28,0,0,1-10.23,0c-2.84-1.63-2.85-4.29,0-5.92A11.3,11.3,0,0,1,84.11,53.81Z"/><path class="cls-46" d="M83.91,54.1c2.72,1.62,2.74,4.25,0,5.88a10.55,10.55,0,0,1-9.83,0c-2.73-1.63-2.74-4.26,0-5.88A10.49,10.49,0,0,1,83.91,54.1Z"/><path class="cls-42" d="M83.63,54.51l-1,.59a2.07,2.07,0,0,1,1,1l-.92.26a2.07,2.07,0,0,0-1-1,2,2,0,0,0-2-.12c-.53.31-.41.68.1,1.43s.65,1.48-.25,2a4,4,0,0,1-3.39.06l-1.07.62L74.49,59l1-.6a2.53,2.53,0,0,1-1.13-1.18l1-.26a2.18,2.18,0,0,0,1,1.12,2.35,2.35,0,0,0,2.23.14c.58-.34.52-.77.06-1.4-.64-.84-.82-1.5.06-2a3.79,3.79,0,0,1,3.22-.07l1-.6Z"/><path class="cls-11" d="M71.09,71.31c0,.09,0,.19,0,.29l-.06.23a2.76,2.76,0,0,1-.08.27l-.09.23c0,.09-.09.19-.14.28a4,4,0,0,1-.23.39l0,.06c-.09.13-.19.25-.3.38l-.06.07c-.11.13-.25.25-.38.38l-.28.23-.26.2a3.62,3.62,0,0,1-.32.22l-.36.22a7.71,7.71,0,0,1-.86.44l-.26.11-.72.28-.26.09-.48.13-.36.1L65,76l-.35.07c-.34.06-.69.1-1,.14l-.32,0-.62,0H61.36l-.46,0-.43,0-.46,0-.4-.06-.49-.08L58.74,76l-.57-.14-.31-.08a9.4,9.4,0,0,1-1-.34l-.47-.19-.23-.11a7.24,7.24,0,0,1-.68-.35c-1.8-1-2.7-2.41-2.7-3.77v2.55c0,1.36.9,2.73,2.71,3.77a7.06,7.06,0,0,0,.67.35l.22.1.43.19h0a8.68,8.68,0,0,0,1,.33l.08,0,.24.06.56.14.16,0,.22,0,.49.08.19,0,.22,0,.45.05.23,0h.2l.46,0h1.32l.62,0,.25,0h.07c.36,0,.7-.08,1-.15h0l.29-.07.51-.1.35-.1.48-.13a.38.38,0,0,1,.1,0,.76.76,0,0,1,.16-.06c.25-.09.49-.18.72-.28l.26-.11a8.86,8.86,0,0,0,.87-.44l.11-.06.24-.16.32-.22.26-.2.28-.23.06,0c.12-.11.22-.22.33-.33l.06-.07.17-.21.13-.17,0-.06c.07-.11.14-.21.2-.32s0,0,0-.07.09-.19.13-.28.06-.11.08-.17,0,0,0-.06a1.38,1.38,0,0,0,.08-.27l.06-.18v0a1.5,1.5,0,0,0,0-.29l0-.19V71A2.45,2.45,0,0,1,71.09,71.31Z"/><path class="cls-42" d="M71.06,71.6l-.06.23a2.76,2.76,0,0,1-.08.27l-.09.23c0,.09-.09.19-.14.28a4,4,0,0,1-.23.39l0,.06c-.09.13-.19.25-.3.38l-.06.07c-.11.13-.25.25-.38.38l-.28.23-.26.2a3.62,3.62,0,0,1-.32.22l-.36.22a7.71,7.71,0,0,1-.86.44l-.26.11-.72.28-.26.09-.48.13-.36.1L65,76l-.35.07c-.34.06-.69.1-1,.14l-.32,0-.62,0H61.36l-.46,0-.43,0-.46,0-.4-.06-.49-.08L58.74,76l-.57-.14-.31-.08a9.4,9.4,0,0,1-1-.34l-.47-.19-.23-.11a7.24,7.24,0,0,1-.68-.35c-1.8-1-2.7-2.41-2.7-3.77v1.68c0,1.36.9,2.71,2.7,3.75.21.12.44.24.67.35l.22.1c.14.06.28.13.43.18l0,0c.32.12.65.23,1,.33l.08,0a2.1,2.1,0,0,1,.24.06l.56.14.16,0,.22,0,.49.09.19,0,.22,0,.45.06.23,0h.2l.46,0h.93a1.92,1.92,0,0,0,.24,0h.15l.62,0h.32c.36,0,.7-.09,1-.15h0c.1,0,.19,0,.29-.06l.51-.11.35-.09.48-.14.1,0,.16-.06a7.66,7.66,0,0,0,.72-.27l.26-.11c.3-.14.59-.28.87-.44l.11-.07.24-.16.32-.21.26-.21a3.11,3.11,0,0,0,.28-.23l.06,0c.12-.11.22-.22.33-.34l.06-.07c.06-.07.12-.13.17-.2l.13-.17,0-.06c.07-.11.14-.21.2-.32s0,0,0-.07.09-.19.13-.29l.08-.16s0,0,0-.06a1.38,1.38,0,0,0,.08-.27l.06-.19v0a1.36,1.36,0,0,0,0-.29l0-.18V71.07a1.94,1.94,0,0,1,0,.24C71.08,71.4,71.08,71.5,71.06,71.6Z"/><path class="cls-12" d="M71.06,71.6l-.06.23a2.76,2.76,0,0,1-.08.27l-.09.23c0,.09-.09.19-.14.28a4,4,0,0,1-.23.39l0,.06c-.09.13-.19.25-.3.38l-.06.07c-.11.13-.25.25-.38.38l-.28.23-.26.2a3.62,3.62,0,0,1-.32.22l-.36.22a7.71,7.71,0,0,1-.86.44l-.26.11-.72.28-.26.09-.48.13-.36.1L65,76l-.35.07c-.34.06-.69.1-1,.14l-.32,0-.62,0H61.36l-.46,0-.43,0-.46,0-.4-.06-.49-.08L58.74,76l-.57-.14-.31-.08a9.4,9.4,0,0,1-1-.34l-.47-.19-.23-.11a7.24,7.24,0,0,1-.68-.35c-1.8-1-2.7-2.41-2.7-3.77v1.68c0,1.36.9,2.71,2.7,3.75.21.12.44.24.67.35l.22.1c.14.06.28.13.43.18l0,0c.32.12.65.23,1,.33l.08,0a2.1,2.1,0,0,1,.24.06l.56.14.16,0,.22,0,.49.09.19,0,.22,0,.45.06.23,0h.2l.46,0h.93a1.92,1.92,0,0,0,.24,0h.15l.62,0h.32c.36,0,.7-.09,1-.15h0c.1,0,.19,0,.29-.06l.51-.11.35-.09.48-.14.1,0,.16-.06a7.66,7.66,0,0,0,.72-.27l.26-.11c.3-.14.59-.28.87-.44l.11-.07.24-.16.32-.21.26-.21a3.11,3.11,0,0,0,.28-.23l.06,0c.12-.11.22-.22.33-.34l.06-.07c.06-.07.12-.13.17-.2l.13-.17,0-.06c.07-.11.14-.21.2-.32s0,0,0-.07.09-.19.13-.29l.08-.16s0,0,0-.06a1.38,1.38,0,0,0,.08-.27l.06-.19v0a1.36,1.36,0,0,0,0-.29l0-.18V71.07a1.94,1.94,0,0,1,0,.24C71.08,71.4,71.08,71.5,71.06,71.6Z"/><path class="cls-43" d="M68.41,67.26c3.59,2.07,3.61,5.43,0,7.5a14.25,14.25,0,0,1-13,0c-3.58-2.07-3.6-5.42,0-7.5A14.28,14.28,0,0,1,68.41,67.26Z"/><path class="cls-42" d="M68.41,67.26c3.59,2.07,3.61,5.43,0,7.5a14.25,14.25,0,0,1-13,0c-3.58-2.07-3.6-5.42,0-7.5A14.28,14.28,0,0,1,68.41,67.26Z"/><path class="cls-11" d="M68.41,67.71c3.59,2.07,3.61,5,0,7.05a14.25,14.25,0,0,1-13,0c-3.58-2.07-3.6-5,0-7.05A14.28,14.28,0,0,1,68.41,67.71Z"/><path class="cls-44" d="M55.46,67.71a14.28,14.28,0,0,1,12.95,0c1.69,1,2.58,2.14,2.68,3.32.12-1.33-.77-2.67-2.68-3.77a14.28,14.28,0,0,0-12.95,0c-1.88,1.1-2.75,2.42-2.64,3.74C52.92,69.83,53.79,68.68,55.46,67.71Z"/><path class="cls-45" d="M67.06,68.05c2.83,1.64,2.85,4.29,0,5.93a11.27,11.27,0,0,1-10.24,0c-2.84-1.64-2.85-4.29,0-5.93A11.27,11.27,0,0,1,67.06,68.05Z"/><path class="cls-46" d="M66.85,68.33c2.73,1.62,2.74,4.26,0,5.88a10.51,10.51,0,0,1-9.84,0c-2.72-1.62-2.74-4.25,0-5.88A10.55,10.55,0,0,1,66.85,68.33Z"/><path class="cls-42" d="M66.57,68.75l-1,.58a2.13,2.13,0,0,1,1,1l-.92.26a2.29,2.29,0,0,0-2.92-1.08c-.53.31-.42.68.1,1.42s.65,1.48-.26,2a4,4,0,0,1-3.39.07l-1.06.61-.65-.37,1-.6a2.47,2.47,0,0,1-1.13-1.17l.94-.26a2.21,2.21,0,0,0,1,1.11,2.37,2.37,0,0,0,2.24.14c.57-.34.52-.77.06-1.39-.65-.85-.83-1.51.06-2A3.79,3.79,0,0,1,64.89,69l1-.6Z"/><path class="cls-47" d="M51.41,61.93a7.71,7.71,0,1,1-7.71-7.71A7.71,7.71,0,0,1,51.41,61.93Z"/><path class="cls-48" d="M50.2,62a6.5,6.5,0,1,1-6.5-6.5A6.49,6.49,0,0,1,50.2,62Z"/><path class="cls-49" d="M49,62.09a5.3,5.3,0,1,1-5.3-5.3A5.3,5.3,0,0,1,49,62.09Z"/><path class="cls-50" d="M47.8,62.17a4.1,4.1,0,1,1-4.1-4.1A4.1,4.1,0,0,1,47.8,62.17Z"/><path class="cls-51" d="M46.6,62.25a2.9,2.9,0,1,1-2.9-2.89A2.9,2.9,0,0,1,46.6,62.25Z"/><path class="cls-52" d="M45.4,62.34a1.7,1.7,0,1,1-1.7-1.7A1.7,1.7,0,0,1,45.4,62.34Z"/><path class="cls-53" d="M44.19,62.42a.49.49,0,1,1-.49-.49A.49.49,0,0,1,44.19,62.42Z"/></g></g></svg>