<svg xmlns="http://www.w3.org/2000/svg" viewBox="0 0 40.94 44.99"><defs><style>.cls-1{isolation:isolate;}.cls-2{fill:#f68307;}.cls-3{fill:#ffba2f;}.cls-4{fill:#ffd945;}.cls-5{fill:#ffa71a;}.cls-6{fill:#ea6b03;}.cls-7{fill:#313d51;}.cls-8{fill:#4a5e72;}.cls-9{fill:#707c9b;}.cls-10{fill:#363b4c;}.cls-11{fill:#3f4656;}.cls-12{fill:#ed2941;}.cls-13{fill:#3b4c60;}.cls-14{fill:#0eafe0;}.cls-15,.cls-16{fill:#fff;}.cls-16{opacity:0.2;mix-blend-mode:screen;}</style></defs><title>Zasób 4</title><g class="cls-1"><g id="Warstwa_2" data-name="Warstwa 2"><g id="_2" data-name="2"><polygon class="cls-2" points="40.94 6.72 35.34 2.86 32.41 28.14 32.41 44.27 40.94 44.27 40.94 6.72"/><polygon class="cls-3" points="1.29 44.27 32.41 44.27 32.41 28.14 37.02 3.94 5.9 3.94 1.29 28.14 1.29 44.27"/><rect class="cls-4" x="1.29" y="33.09" width="31.09" height="7.75"/><rect class="cls-5" x="32.41" y="33.09" width="8.53" height="7.75"/><rect class="cls-6" x="33.95" y="42.46" width="1.26" height="0.47" transform="translate(77.27 8.1) rotate(90)"/><rect class="cls-6" x="35.08" y="42.46" width="1.26" height="0.47" transform="translate(78.4 6.98) rotate(90)"/><rect class="cls-6" x="36.21" y="42.46" width="1.26" height="0.47" transform="translate(79.53 5.85) rotate(90)"/><rect class="cls-6" x="37.33" y="42.46" width="1.26" height="0.47" transform="translate(80.65 4.73) rotate(90)"/><rect class="cls-6" x="38.46" y="42.46" width="1.26" height="0.47" transform="translate(81.78 3.6) rotate(90)"/><rect class="cls-7" x="3.94" y="34.49" width="8.79" height="2.52" rx="0.77"/><rect class="cls-8" x="3.22" y="34.49" width="8.79" height="2.52" rx="0.77"/><rect class="cls-7" x="3.97" y="35.43" width="7.29" height="0.64" rx="0.2"/><path class="cls-9" d="M11.24,34.49H11a.77.77,0,0,1,.77.77v1A.77.77,0,0,1,11,37h.27a.77.77,0,0,0,.77-.77v-1A.77.77,0,0,0,11.24,34.49Z"/><rect class="cls-10" x="20.28" y="34.49" width="8.89" height="4.78" rx="0.86"/><rect class="cls-8" x="19.53" y="34.49" width="8.89" height="4.78" rx="0.86"/><rect class="cls-10" x="20.04" y="35.43" width="7.65" height="1.63"/><path class="cls-10" d="M22.38,38.14a.41.41,0,0,1-.81,0,.41.41,0,1,1,.81,0Z"/><circle class="cls-10" cx="25.76" cy="38.14" r="0.41"/><polygon class="cls-11" points="20.04 37.06 21.81 35.43 20.04 35.43 20.04 37.06"/><rect class="cls-12" x="20.04" y="36.92" width="7.65" height="0.37"/><path class="cls-9" d="M27.56,34.49h-.25a.85.85,0,0,1,.86.86v3.06a.86.86,0,0,1-.86.86h.25a.86.86,0,0,0,.86-.86V35.35A.85.85,0,0,0,27.56,34.49Z"/><path class="cls-10" d="M33.23,28.51,38.5.76,37.43,0H6.63L1.21,28.51C5.63,31.24,26.84,31.23,33.23,28.51Z"/><path class="cls-8" d="M32,28.51,37.43,0h-32L0,28.51C4.41,31.24,25.62,31.23,32,28.51Z"/><polygon class="cls-13" points="28.8 25.3 32.91 3.7 8.63 3.7 4.53 25.3 28.8 25.3"/><polygon class="cls-14" points="29.03 23.96 32.62 5.04 9.42 5.04 5.83 23.96 29.03 23.96"/><path class="cls-9" d="M36.74,0,31.32,28.51c-3.14,1.33-9.87,2-16.42,2,6.77,0,13.86-.66,17.12-2L37.43,0Z"/><path class="cls-15" d="M10.38,11.49l.39-2h.43l-.39,2Z"/><path class="cls-15" d="M13.1,11.49h-.55L12,10h0c0,.27-.06.47-.08.58l-.19,1h-.38l.39-2h.54L12.82,11h0c0-.27.07-.45.09-.56l.18-1h.38Z"/><path class="cls-15" d="M14.89,10.92a.61.61,0,0,1-.28.43.94.94,0,0,1-.57.16,1.18,1.18,0,0,1-.55-.12l.08-.4a1.79,1.79,0,0,0,.32.13.77.77,0,0,0,.25,0,.41.41,0,0,0,.23-.06.23.23,0,0,0,.1-.16.16.16,0,0,0,0-.1.32.32,0,0,0-.08-.09l-.23-.14a.77.77,0,0,1-.25-.17.42.42,0,0,1-.11-.18.68.68,0,0,1,0-.25.73.73,0,0,1,.27-.43.84.84,0,0,1,.52-.15,1,1,0,0,1,.3,0,1.48,1.48,0,0,1,.27.1l-.2.34a.85.85,0,0,0-.25-.09.64.64,0,0,0-.2,0,.29.29,0,0,0-.19.06.21.21,0,0,0-.1.14.31.31,0,0,0,0,.1.13.13,0,0,0,.07.08,1.29,1.29,0,0,0,.24.15.79.79,0,0,1,.33.27A.41.41,0,0,1,14.89,10.92Z"/><path class="cls-15" d="M16.31,11.49H15.15l.39-2h1.15l-.06.35H15.9l-.09.45h.68l-.07.35h-.68l-.1.52h.73Z"/><path class="cls-15" d="M17.3,10.71l-.15.78h-.43l.39-2h.59a.9.9,0,0,1,.58.15.46.46,0,0,1,.1.46.6.6,0,0,1-.15.31.8.8,0,0,1-.32.22c.21.46.35.75.42.89h-.47l-.33-.78Zm.07-.35h.13a.53.53,0,0,0,.31-.07.29.29,0,0,0,.14-.21.19.19,0,0,0-.06-.21.52.52,0,0,0-.29-.06h-.13Z"/><path class="cls-15" d="M19.35,11.49h-.42l.32-1.67H18.7l.07-.36h1.52l-.07.36h-.55Z"/><path class="cls-15" d="M21.79,10.29l.58-.83h.46l-.9,1.24-.15.79h-.43l.15-.78-.42-1.25h.46Z"/><path class="cls-15" d="M24.71,10.47a1.32,1.32,0,0,1-.39.77,1.1,1.1,0,0,1-.76.27.76.76,0,0,1-.66-.27,1,1,0,0,1-.1-.77,1.39,1.39,0,0,1,.4-.78A1.13,1.13,0,0,1,24,9.43a.76.76,0,0,1,.66.27A1,1,0,0,1,24.71,10.47Zm-1.46,0a.69.69,0,0,0,0,.51.34.34,0,0,0,.34.17c.34,0,.56-.22.65-.68s0-.68-.38-.68a.54.54,0,0,0-.42.17A1,1,0,0,0,23.25,10.47Z"/><path class="cls-15" d="M27,9.46l-.26,1.31a.86.86,0,0,1-.17.39.8.8,0,0,1-.34.26,1.14,1.14,0,0,1-.46.09.67.67,0,0,1-.56-.2.57.57,0,0,1-.11-.54l.25-1.31h.42l-.24,1.24a.45.45,0,0,0,0,.34.32.32,0,0,0,.29.11.4.4,0,0,0,.32-.11.6.6,0,0,0,.16-.34l.24-1.24Z"/><path class="cls-15" d="M27.63,10.71l-.14.78h-.43l.39-2H28a.86.86,0,0,1,.58.15.46.46,0,0,1,.11.46.62.62,0,0,1-.16.31.74.74,0,0,1-.32.22c.22.46.36.75.42.89h-.47l-.33-.78Zm.07-.35h.14a.55.55,0,0,0,.31-.07.32.32,0,0,0,.14-.21c0-.1,0-.17-.06-.21a.55.55,0,0,0-.29-.06h-.13Z"/><path class="cls-15" d="M16.34,13.19a.54.54,0,0,0-.41.18,1,1,0,0,0-.23.51c-.09.45,0,.68.38.68a1.85,1.85,0,0,0,.53-.11l-.07.36a1.56,1.56,0,0,1-.57.11.68.68,0,0,1-.62-.27,1,1,0,0,1-.09-.77,1.51,1.51,0,0,1,.22-.55,1.18,1.18,0,0,1,.4-.37,1.15,1.15,0,0,1,.53-.12A1.14,1.14,0,0,1,17,13l-.21.35-.21-.1A.78.78,0,0,0,16.34,13.19Z"/><path class="cls-15" d="M18.18,14.89l-.05-.48H17.4l-.24.48H16.7l1.1-2h.52l.32,2Zm-.09-.84c-.05-.44-.07-.69-.08-.74a.82.82,0,0,1,0-.14c-.05.12-.2.41-.43.88Z"/><path class="cls-15" d="M19.47,14.11l-.15.78h-.43l.39-2h.59a.85.85,0,0,1,.57.15.48.48,0,0,1,.11.46.65.65,0,0,1-.16.32,1,1,0,0,1-.31.22c.21.45.35.75.42.88H20l-.33-.78Zm.06-.35h.14A.63.63,0,0,0,20,13.7a.34.34,0,0,0,.14-.22.18.18,0,0,0-.06-.2.52.52,0,0,0-.29-.06h-.13Z"/><path class="cls-15" d="M22.61,13.86a1.16,1.16,0,0,1-.43.76,1.32,1.32,0,0,1-.86.27h-.57l.39-2h.63a.86.86,0,0,1,.71.27A.82.82,0,0,1,22.61,13.86Zm-.44,0c.08-.44-.07-.65-.45-.65h-.23l-.25,1.31h.18A.71.71,0,0,0,22.17,13.87Z"/><polygon class="cls-15" points="19.16 19.78 16.89 19.78 17.52 16.48 19.79 16.48 19.16 19.78"/><polygon class="cls-15" points="17.63 21.86 16.11 19.34 20.12 19.34 17.63 21.86"/><polygon class="cls-16" points="32.62 5.04 9.42 5.04 5.83 23.96 32.62 5.04"/><rect class="cls-2" x="1.29" y="44.27" width="31.13" height="0.72"/><rect class="cls-6" x="32.42" y="44.27" width="8.52" height="0.72"/></g></g></g></svg>