<svg xmlns="http://www.w3.org/2000/svg" xmlns:xlink="http://www.w3.org/1999/xlink" viewBox="0 0 142.81 87.37"><defs><style>.cls-1{fill:none;}.cls-2{fill:#96a76d;}.cls-3{fill:#5a7b40;}.cls-4{fill:#68744c;}.cls-5{fill:#3f552d;}.cls-6{isolation:isolate;}.cls-7{clip-path:url(#clip-path);}.cls-8{fill:#8c9c66;}.cls-9{fill:#889763;}.cls-10{fill:#849360;}.cls-11{fill:#808f5d;}.cls-12{fill:#7c8a5a;}.cls-13{fill:#788657;}.cls-14{fill:#748255;}.cls-15{fill:#717d52;}.cls-16{fill:#6d794f;}.cls-17{fill:#69754c;}.cls-18{fill:#657049;}.cls-19{clip-path:url(#clip-path-2);}.cls-20{fill:#3d532b;}.cls-21{clip-path:url(#clip-path-3);}.cls-22{fill:#3f562d;}.cls-23{fill:#42592e;}.cls-24{fill:#445c30;}.cls-25{fill:#465f32;}.cls-26{fill:#496333;}.cls-27{fill:#4b6635;}.cls-28{fill:#4d6937;}.cls-29{fill:#506c38;}.cls-30{fill:#526f3a;}.cls-31{fill:#54723c;}.cls-32{clip-path:url(#clip-path-4);}.cls-33{clip-path:url(#clip-path-5);}.cls-34{clip-path:url(#clip-path-6);}.cls-35{clip-path:url(#clip-path-7);}.cls-36{clip-path:url(#clip-path-8);}.cls-37{fill:#59793f;}.cls-38{clip-path:url(#clip-path-9);}.cls-39{clip-path:url(#clip-path-10);}.cls-40{clip-path:url(#clip-path-11);}.cls-41{clip-path:url(#clip-path-12);}.cls-42{clip-path:url(#clip-path-13);}.cls-43{clip-path:url(#clip-path-14);}.cls-44{clip-path:url(#clip-path-15);}.cls-45{clip-path:url(#clip-path-16);}.cls-46{clip-path:url(#clip-path-17);}.cls-47{clip-path:url(#clip-path-18);}.cls-48{clip-path:url(#clip-path-19);}.cls-49{fill:#7ebf5e;}.cls-50{clip-path:url(#clip-path-20);}.cls-51{fill:#f0e7bf;}.cls-52{fill:#a7ba7a;}.cls-53{fill:#efe8bc;}.cls-54{fill:#658948;}.cls-55{fill:#908b6f;}.cls-56{fill:#cac29c;}.cls-57{fill:#d2a458;}.cls-58{fill:#fed274;}.cls-59{fill:#f7cf8f;}.cls-60{fill:#ffdfa6;}.cls-61{opacity:0.1;}.cls-62{fill:#8ec1ff;}.cls-63{fill:#4397fa;}.cls-64{fill:#c5defe;}.cls-65{fill:#d32075;}.cls-66{fill:#c11e74;}.cls-67{fill:#ff7fb7;}.cls-68{fill:#ffbc00;}.cls-69{fill:#ff9e03;}.cls-70{fill:#ffda00;}.cls-71{fill:#6d9b0a;}.cls-72{fill:#628407;}.cls-73{fill:#77ba10;}.cls-74{fill:#ffd859;}.cls-75{fill:#f2b42b;}.cls-76{fill:#ffed94;}.cls-77{fill:#de821f;}.cls-78{fill:#ffb101;}.cls-79{fill:#ffebc4;}.cls-79,.cls-93{opacity:0.6;}.cls-80{opacity:0.83;}.cls-81{fill:#ffeece;}.cls-81,.cls-82{opacity:0.67;}.cls-83{fill:#fff2d8;opacity:0.73;}.cls-84{opacity:0.5;}.cls-85{fill:#fff5e2;opacity:0.8;}.cls-86{opacity:0.33;}.cls-87{fill:#fff8eb;opacity:0.87;}.cls-88{opacity:0.17;}.cls-89{fill:#fffcf5;opacity:0.93;}.cls-90{opacity:0;}.cls-91,.cls-93{fill:#fff;}.cls-92{opacity:0.3;}.cls-94{fill:#bad1de;}.cls-95{fill:#efb185;}.cls-96{fill:#a3c1ce;}.cls-97{fill:#111114;}.cls-98{fill:#16365c;}.cls-99{fill:#09294f;}.cls-100{fill:#cae0ea;}.cls-101{fill:#feffff;}.cls-102{fill:#dd9569;}.cls-103{fill:#f2b78f;}.cls-104{fill:#e6a376;}.cls-105{fill:#341c09;}.cls-106{fill:#221101;}.cls-107{fill:#9dbcc9;}.cls-108{fill:#b4b9bc;}.cls-109{fill:#7d8183;}.cls-110{fill:#e3e5e5;}.cls-111{fill:#bdbbbb;}.cls-112{fill:#d2d0d0;}.cls-113{fill:#d5dfe6;}.cls-114{fill:#e9f0f4;}.cls-115{fill:#fdcde7;}.cls-116{fill:#ffdf75;}.cls-117{fill:#f5e981;}</style><clipPath id="clip-path"><path class="cls-1" d="M49.41,46.2l0,5.48a6.27,6.27,0,0,0,5.7-.13V46.07A6.29,6.29,0,0,1,49.41,46.2Z"/></clipPath><clipPath id="clip-path-2"><path class="cls-1" d="M56.88,49.63v5.48a2.2,2.2,0,0,1,1.31-1.78l0-5.48A2.19,2.19,0,0,0,56.88,49.63Z"/></clipPath><clipPath id="clip-path-3"><path class="cls-1" d="M42.08,56.6a8.23,8.23,0,0,1,7.5,0c0-1.83,0-3.66,0-5.48a8.22,8.22,0,0,0-7.51,0C42.07,52.94,42.07,54.77,42.08,56.6Z"/></clipPath><clipPath id="clip-path-4"><path class="cls-1" d="M56.88,49.63v5.48a1.83,1.83,0,0,0,1,1.47V51.09A1.76,1.76,0,0,1,56.88,49.63Z"/></clipPath><clipPath id="clip-path-5"><path class="cls-1" d="M43.8,57.38a2.53,2.53,0,0,1,2.11,0c0-1.82,0-3.65,0-5.48a2.46,2.46,0,0,0-2.11,0C43.79,53.54,43.8,55.73,43.8,57.38Z"/></clipPath><clipPath id="clip-path-6"><path class="cls-1" d="M45.91,57.42a.64.64,0,0,1,.39.55V52.49a.64.64,0,0,0-.4-.55C45.9,53.77,45.9,55.6,45.91,57.42Z"/></clipPath><clipPath id="clip-path-7"><path class="cls-1" d="M42.71,52.77l0,5.49a1.42,1.42,0,0,1,.63-.65l0-5.48A1.41,1.41,0,0,0,42.71,52.77Z"/></clipPath><clipPath id="clip-path-8"><path class="cls-1" d="M45.47,58l0-5.48a.36.36,0,0,0-.23-.32,1.31,1.31,0,0,0-1.29.08,1.38,1.38,0,0,0-.62.63v5.48A1.41,1.41,0,0,1,44,57.8a1.28,1.28,0,0,1,1.29-.08C45.4,57.81,45.47,57.9,45.47,58Z"/></clipPath><clipPath id="clip-path-9"><path class="cls-1" d="M45.18,58.64a1.25,1.25,0,0,0,.29-.61l0-5.48a1.33,1.33,0,0,1-.29.61C45.16,54.81,45.17,57,45.18,58.64Z"/></clipPath><clipPath id="clip-path-10"><path class="cls-1" d="M49.58,56.6a2.64,2.64,0,0,1,1.55,2.15l0-5.48a2.62,2.62,0,0,0-1.54-2.15C49.57,52.94,49.58,54.77,49.58,56.6Z"/></clipPath><clipPath id="clip-path-11"><path class="cls-1" d="M40.51,58.79a2.64,2.64,0,0,1,1.57-2.19c0-1.83,0-3.66,0-5.48A2.61,2.61,0,0,0,40.5,53.3C40.5,55,40.51,57.14,40.51,58.79Z"/></clipPath><clipPath id="clip-path-12"><path class="cls-1" d="M45.7,53.78l0,5.49a.91.91,0,0,1,.23-.53A1.34,1.34,0,0,0,46.3,58V52.49a1.4,1.4,0,0,1-.36.77A.93.93,0,0,0,45.7,53.78Z"/></clipPath><clipPath id="clip-path-13"><path class="cls-1" d="M45.18,58.64a1.66,1.66,0,0,0,0-.31V55.9c0-.91,0-1.82,0-2.74a1.26,1.26,0,0,0-.3.69l0,5.48A1.22,1.22,0,0,1,45.18,58.64Z"/></clipPath><clipPath id="clip-path-14"><path class="cls-1" d="M45.72,59.27a.45.45,0,0,0,.27.38c0-1.83,0-3.66,0-5.48a.45.45,0,0,1-.27-.39C45.7,55.43,45.71,57.62,45.72,59.27Z"/></clipPath><clipPath id="clip-path-15"><path class="cls-1" d="M47.45,59.56a1.42,1.42,0,0,0,.67-.73l0-5.48a1.46,1.46,0,0,1-.67.73,1.53,1.53,0,0,1-1.46.09c0,1.82,0,3.65,0,5.48A1.54,1.54,0,0,0,47.45,59.56Z"/></clipPath><clipPath id="clip-path-16"><path class="cls-1" d="M44.86,53.85l0,5.48c0,.24.15.44.47.63a2.62,2.62,0,0,0,2.21,0l0-5.48a2.59,2.59,0,0,1-2.21-.05C45,54.29,44.86,54.08,44.86,53.85Z"/></clipPath><clipPath id="clip-path-17"><path class="cls-1" d="M40.5,53.3v5.49A2.65,2.65,0,0,0,42.05,61a8.28,8.28,0,0,0,7.51,0,2.66,2.66,0,0,0,1.57-2.19l0-5.48a2.66,2.66,0,0,1-1.57,2.19,8.26,8.26,0,0,1-7.5,0A2.6,2.6,0,0,1,40.5,53.3Z"/></clipPath><clipPath id="clip-path-18"><path class="cls-1" d="M34.39,62.5V57a1.84,1.84,0,0,0-1.07-1.52l0,5.49A1.82,1.82,0,0,1,34.39,62.5Z"/></clipPath><clipPath id="clip-path-19"><path class="cls-1" d="M34.39,62.5V57a2,2,0,0,1-1,1.56l0,5.48A2,2,0,0,0,34.39,62.5Z"/></clipPath><clipPath id="clip-path-20"><path class="cls-1" d="M36.54,60.37v5.49a6.36,6.36,0,0,1,5.2,0V60.39A6.44,6.44,0,0,0,36.54,60.37Z"/></clipPath></defs><title>Zasób 4</title><g id="Warstwa_2" data-name="Warstwa 2"><g id="Layer_1" data-name="Layer 1"><polygon class="cls-2" points="52.56 42.22 52.57 47.7 64.47 54.61 64.45 49.13 52.56 42.22"/><polygon class="cls-3" points="52.63 43.41 52.65 48.9 62.65 54.7 62.63 49.22 52.63 43.41"/><polygon class="cls-4" points="26.67 57.17 26.68 62.65 52.57 47.7 52.56 42.22 26.67 57.17"/><polygon class="cls-5" points="28.86 57.13 28.88 62.62 52.65 48.9 52.63 43.41 28.86 57.13"/><g class="cls-6"><g class="cls-7"><g class="cls-6"><path class="cls-8" d="M49.41,46.2l0,5.48a4,4,0,0,0,.79.35V46.55a4.49,4.49,0,0,1-.8-.35Z"/><path class="cls-9" d="M50.21,46.55V52a5,5,0,0,0,.69.17V46.72a5,5,0,0,1-.69-.17Z"/><path class="cls-10" d="M50.9,46.72V52.2l.49.07,0-5.48-.48-.07Z"/><path class="cls-11" d="M51.38,46.79l0,5.48c.14,0,.29,0,.43,0V46.81l-.44,0Z"/><path class="cls-12" d="M51.82,46.81V52.3a2.8,2.8,0,0,0,.41,0V46.82Z"/><path class="cls-13" d="M52.23,46.82V52.3l.41,0,0-5.48-.4,0Z"/><path class="cls-14" d="M52.63,46.8l0,5.48.41-.05,0-5.48-.41,0Z"/><path class="cls-15" d="M53,46.75l0,5.48.42-.07V46.68l-.43.07Z"/><path class="cls-16" d="M53.47,46.68v5.48l.46-.11V46.56l-.46.12Z"/><path class="cls-17" d="M53.93,46.56v5.49c.19-.06.37-.12.54-.19V46.38l-.54.18Z"/><path class="cls-18" d="M54.47,46.38v5.48a4.33,4.33,0,0,0,.65-.31V46.07a5.51,5.51,0,0,1-.65.31Z"/></g></g></g><polygon class="cls-2" points="55.12 46.07 55.13 51.55 58.2 53.33 58.18 47.85 55.12 46.07"/><g class="cls-6"><g class="cls-19"><g class="cls-6"><path class="cls-20" d="M56.88,49.63v5.48a2.2,2.2,0,0,1,1.31-1.78l0-5.48a2.19,2.19,0,0,0-1.3,1.78Z"/></g></g></g><polygon class="cls-4" points="33.31 55.49 33.33 60.98 49.43 51.68 49.41 46.2 33.31 55.49"/><g class="cls-6"><g class="cls-21"><g class="cls-6"><path class="cls-20" d="M40.5,53.3v5.49a2.64,2.64,0,0,1,1.57-2.19,6,6,0,0,1,.76-.37V50.75a4.2,4.2,0,0,0-.77.37A2.61,2.61,0,0,0,40.5,53.3Z"/><path class="cls-22" d="M42.83,50.75v5.48l.65-.22,0-5.48a4.83,4.83,0,0,0-.64.22Z"/><path class="cls-23" d="M43.47,50.53l0,5.48.55-.13V50.39l-.56.14Z"/><path class="cls-24" d="M44,50.39v5.49a4.89,4.89,0,0,1,.53-.09l0-5.49-.52.09Z"/><path class="cls-25" d="M44.55,50.3l0,5.49a4.35,4.35,0,0,1,.52-.06l0-5.49-.52.06Z"/><path class="cls-26" d="M45.07,50.24l0,5.49c.17,0,.34,0,.52,0l0-5.48-.52,0Z"/><path class="cls-27" d="M45.59,50.22l0,5.48c.18,0,.36,0,.54,0V50.22Z"/><path class="cls-28" d="M46.14,50.22V55.7l.59,0,0-5.48a5.65,5.65,0,0,0-.58,0Z"/><path class="cls-29" d="M46.72,50.26l0,5.48c.23,0,.45.06.68.09l0-5.48c-.22,0-.45-.07-.68-.09Z"/><path class="cls-30" d="M47.4,50.35l0,5.48a8.14,8.14,0,0,1,1,.26V50.6a8.28,8.28,0,0,0-1-.25Z"/><path class="cls-31" d="M48.41,50.6v5.49a5.3,5.3,0,0,1,1.16.51l.07,0,0-5.49-.06,0a6.11,6.11,0,0,0-1.16-.52Z"/></g></g></g><g class="cls-6"><g class="cls-32"><g class="cls-6"><path class="cls-15" d="M56.88,49.63v0Z"/><path class="cls-14" d="M56.88,49.67v5.48l0,.23,0-5.49a1.64,1.64,0,0,1,0-.22Z"/><path class="cls-13" d="M56.9,49.89l0,5.49a1.66,1.66,0,0,0,.06.21V50.11a1.42,1.42,0,0,1-.07-.22Z"/><path class="cls-12" d="M57,50.11v5.48a1.47,1.47,0,0,0,.1.22V50.32a2,2,0,0,1-.1-.21Z"/><path class="cls-11" d="M57.07,50.32v5.49l.15.22V50.55a1.5,1.5,0,0,1-.15-.23Z"/><path class="cls-10" d="M57.22,50.55V56a2.55,2.55,0,0,0,.23.24l0-5.48a2.4,2.4,0,0,1-.22-.24Z"/><path class="cls-9" d="M57.44,50.79l0,5.48a3.25,3.25,0,0,0,.4.31V51.09a2.17,2.17,0,0,1-.41-.3Z"/></g></g></g><polygon class="cls-4" points="42.69 51.75 42.71 57.23 43.13 56.99 43.12 51.51 42.69 51.75"/><polygon class="cls-2" points="43.12 51.51 43.13 56.99 43.8 57.38 43.78 51.9 43.12 51.51"/><g class="cls-6"><g class="cls-33"><g class="cls-6"><path class="cls-18" d="M43.78,51.9l0,5.48h0V51.89Z"/><path class="cls-17" d="M43.81,51.89v5.48c.09,0,.18-.06.27-.09V51.8a1.22,1.22,0,0,0-.27.09Z"/><path class="cls-16" d="M44.08,51.8v5.48l.21-.05,0-5.49-.2.06Z"/><path class="cls-15" d="M44.28,51.74l0,5.49.18,0,0-5.49-.18,0Z"/><path class="cls-14" d="M44.46,51.71l0,5.49.16,0V51.7Z"/><path class="cls-13" d="M44.63,51.7v5.48h.16l0-5.48Z"/><path class="cls-12" d="M44.78,51.69l0,5.48H45l0-5.48Z"/><path class="cls-11" d="M44.94,51.69l0,5.48h.16l0-5.48Z"/><path class="cls-10" d="M45.1,51.7l0,5.48.18,0V51.72l-.19,0Z"/><path class="cls-9" d="M45.29,51.72v5.49a2.61,2.61,0,0,1,.27.06V51.79l-.27-.07Z"/><path class="cls-8" d="M45.56,51.79v5.48a2.07,2.07,0,0,1,.34.15l0,0,0-5.49h0a1.66,1.66,0,0,0-.33-.15Z"/></g></g></g><polygon class="cls-3" points="42.69 51.75 42.71 57.23 43.36 57.61 43.34 52.13 42.69 51.75"/><g class="cls-6"><g class="cls-34"><g class="cls-6"><path class="cls-8" d="M45.56,51.79v5.48a2.07,2.07,0,0,1,.34.15l0,0,0-5.49h0a1.66,1.66,0,0,0-.33-.15Z"/><path class="cls-9" d="M45.91,52l0,5.49a.83.83,0,0,1,.18.13l0-5.48a.86.86,0,0,0-.18-.14Z"/><path class="cls-10" d="M46.09,52.09l0,5.48.08.08,0-5.48-.08-.08Z"/><path class="cls-11" d="M46.17,52.17l0,5.48.05.08,0-5.49,0-.07Z"/><path class="cls-12" d="M46.22,52.24l0,5.49,0,.07V52.32a.3.3,0,0,0,0-.08Z"/><path class="cls-13" d="M46.26,52.32V57.8a.19.19,0,0,1,0,.07V52.39s0,0,0-.07Z"/><path class="cls-14" d="M46.28,52.39v5.48a.28.28,0,0,1,0,.09V52.48s0-.06,0-.09Z"/><path class="cls-15" d="M46.29,52.48V58h0V52.49Z"/></g></g></g><g class="cls-6"><g class="cls-35"><g class="cls-6"><path class="cls-18" d="M42.71,52.77l0,5.49a1.42,1.42,0,0,1,.63-.65l0-5.48a1.41,1.41,0,0,0-.63.64Z"/></g></g></g><g class="cls-6"><g class="cls-36"><g class="cls-6"><path class="cls-20" d="M43.31,52.94v5.48A1.41,1.41,0,0,1,44,57.8a.91.91,0,0,1,.22-.11l0-5.49-.22.11a1.38,1.38,0,0,0-.62.63Z"/><path class="cls-22" d="M44.15,52.2l0,5.49.14,0V52.15l-.15.05Z"/><path class="cls-23" d="M44.3,52.15v5.49l.11,0,0-5.48-.1,0Z"/><path class="cls-24" d="M44.4,52.13l0,5.48h.09l0-5.49-.09,0Z"/><path class="cls-25" d="M44.49,52.11l0,5.49.08,0,0-5.48Z"/><path class="cls-26" d="M44.57,52.1l0,5.48h.07V52.1Z"/><path class="cls-27" d="M44.65,52.1v5.48h.08l0-5.48Z"/><path class="cls-28" d="M44.72,52.1l0,5.48h.08V52.1Z"/><path class="cls-29" d="M44.81,52.1v5.49h.1V52.12l-.1,0Z"/><path class="cls-30" d="M44.91,52.12V57.6l.14,0V52.15l-.14,0Z"/><path class="cls-31" d="M45.05,52.15v5.49a.75.75,0,0,1,.18.08h0V52.24h0l-.17-.08Z"/><path class="cls-30" d="M45.24,52.24v5.48l.11.08,0-5.48a.39.39,0,0,0-.1-.08Z"/><path class="cls-29" d="M45.34,52.32l0,5.48,0,.05V52.36l0,0Z"/><path class="cls-28" d="M45.39,52.36v5.49l0,0,0-5.49,0,0Z"/><path class="cls-27" d="M45.41,52.4l0,5.49,0,0,0-5.48s0,0,0-.05Z"/><path class="cls-26" d="M45.43,52.45l0,5.48V52.49l0,0Z"/><path class="cls-25" d="M45.45,52.49V58s0,0,0,.05l0-5.48v0Z"/><path class="cls-24" d="M45.45,52.54l0,5.48h0l0-5.48Z"/></g></g></g><polygon class="cls-37" points="42.71 52.77 42.73 58.26 43.32 58.42 43.31 52.94 42.71 52.77"/><g class="cls-6"><g class="cls-38"><g class="cls-6"><path class="cls-18" d="M45.16,53.16l0,5.48a1.25,1.25,0,0,0,.29-.61l0-5.48a1.33,1.33,0,0,1-.29.61Z"/></g></g></g><g class="cls-6"><g class="cls-39"><g class="cls-6"><path class="cls-31" d="M48.41,50.6v5.49a5.3,5.3,0,0,1,1.16.51l.07,0,0-5.49-.06,0a6.11,6.11,0,0,0-1.16-.52Z"/><path class="cls-30" d="M49.63,51.15l0,5.49a4,4,0,0,1,.67.49l0-5.48a4,4,0,0,0-.67-.5Z"/><path class="cls-29" d="M50.3,51.65l0,5.48c.13.12.23.24.33.35l0-5.48a2.15,2.15,0,0,0-.33-.35Z"/><path class="cls-28" d="M50.63,52l0,5.48c.08.11.15.22.21.32V52.32a2,2,0,0,0-.22-.32Z"/><path class="cls-27" d="M50.85,52.32V57.8a1.23,1.23,0,0,1,.14.31V52.62c0-.1-.09-.2-.14-.3Z"/><path class="cls-26" d="M51,52.62v5.49a1.4,1.4,0,0,1,.09.29l0-5.48a1.67,1.67,0,0,0-.08-.3Z"/><path class="cls-25" d="M51.07,52.92l0,5.48a1.63,1.63,0,0,1,0,.31V53.22a1.54,1.54,0,0,0,0-.3Z"/><path class="cls-24" d="M51.11,53.22v5.49a.06.06,0,0,1,0,0l0-5.48v-.05Z"/></g></g></g><g class="cls-6"><g class="cls-40"><g class="cls-6"><path class="cls-20" d="M40.5,53.3v5.49a2.64,2.64,0,0,1,1.57-2.19,6,6,0,0,1,.76-.37V50.75a4.2,4.2,0,0,0-.77.37A2.61,2.61,0,0,0,40.5,53.3Z"/></g></g></g><g class="cls-6"><g class="cls-41"><g class="cls-6"><path class="cls-20" d="M45.7,53.78l0,5.49a.91.91,0,0,1,.23-.53A1.34,1.34,0,0,0,46.3,58V52.49a1.4,1.4,0,0,1-.36.77.93.93,0,0,0-.23.52Z"/></g></g></g><g class="cls-6"><g class="cls-42"><g class="cls-6"><path class="cls-18" d="M44.86,53.85l0,5.48a1.22,1.22,0,0,1,.3-.69l0-5.48a1.26,1.26,0,0,0-.3.69Z"/></g></g></g><g class="cls-6"><g class="cls-43"><g class="cls-6"><path class="cls-15" d="M45.7,53.78l0,5.49h0l0-5.49Z"/><path class="cls-14" d="M45.7,53.79l0,5.49V53.85a.13.13,0,0,1,0-.06Z"/><path class="cls-13" d="M45.71,53.85v5.49l0,0,0-5.49a.43.43,0,0,1,0,0Z"/><path class="cls-12" d="M45.72,53.9l0,5.49s0,0,0,0V54l0-.06Z"/><path class="cls-11" d="M45.75,54v5.48l0,.05,0-5.48,0,0Z"/><path class="cls-10" d="M45.78,54l0,5.48.05.06,0-5.48,0-.06Z"/><path class="cls-9" d="M45.83,54.07l0,5.48.12.09V54.16l-.13-.09Z"/><path class="cls-8" d="M46,54.16v5.48h0a.64.64,0,0,0,.19.08V54.25l-.2-.08Z"/></g></g></g><g class="cls-6"><g class="cls-44"><g class="cls-6"><path class="cls-8" d="M46,54.16v5.48h0a.64.64,0,0,0,.19.08V54.25l-.2-.08Z"/><path class="cls-9" d="M46.17,54.25v5.48l.16,0,0-5.48-.15,0Z"/><path class="cls-10" d="M46.32,54.29l0,5.48.1,0V54.3Z"/><path class="cls-11" d="M46.43,54.3v5.49h.1l0-5.48Z"/><path class="cls-12" d="M46.52,54.31l0,5.48h.09l0-5.48Z"/><path class="cls-13" d="M46.61,54.31l0,5.48h.09V54.31Z"/><path class="cls-14" d="M46.71,54.31v5.48h.1l0-5.48Z"/><path class="cls-15" d="M46.8,54.3l0,5.48.11,0,0-5.48-.11,0Z"/><path class="cls-16" d="M46.91,54.28l0,5.48.12,0V54.24l-.13,0Z"/><path class="cls-17" d="M47,54.24v5.49l.17-.06,0-5.48-.16.05Z"/><path class="cls-18" d="M47.2,54.19l0,5.48a1.2,1.2,0,0,0,.23-.11,1.42,1.42,0,0,0,.67-.73l0-5.48a1.46,1.46,0,0,1-.67.73l-.23.11Z"/></g></g></g><g class="cls-6"><g class="cls-45"><g class="cls-6"><path class="cls-24" d="M44.86,53.85l0,5.48v0l0-5.49Z"/><path class="cls-25" d="M44.86,53.86l0,5.49a.28.28,0,0,0,0,.09V54a.29.29,0,0,1,0-.09Z"/><path class="cls-26" d="M44.88,54v5.49s0,.05,0,.08V54a.29.29,0,0,1,0-.09Z"/><path class="cls-27" d="M44.9,54v5.48a.3.3,0,0,1,0,.08V54.11a.25.25,0,0,1,0-.07Z"/><path class="cls-28" d="M44.94,54.11V59.6l.06.08,0-5.48a.41.41,0,0,1-.05-.09Z"/><path class="cls-29" d="M45,54.2l0,5.48a.41.41,0,0,0,.09.1l0-5.48L45,54.2Z"/><path class="cls-30" d="M45.08,54.3l0,5.48a1.4,1.4,0,0,0,.22.16V54.46l-.23-.16Z"/><path class="cls-31" d="M45.31,54.46v5.48l0,0a1.6,1.6,0,0,0,.35.15l0-5.48a1.58,1.58,0,0,1-.35-.16Z"/><path class="cls-30" d="M45.68,54.63l0,5.48.29.07,0-5.48-.29-.07Z"/><path class="cls-29" d="M46,54.7l0,5.48a1.2,1.2,0,0,0,.2,0l0-5.48-.2,0Z"/><path class="cls-28" d="M46.17,54.73l0,5.48h.17l0-5.48Z"/><path class="cls-27" d="M46.34,54.74l0,5.48h.16V54.74Z"/><path class="cls-26" d="M46.51,54.74v5.48h.16V54.73Z"/><path class="cls-25" d="M46.67,54.73v5.49l.17,0V54.71l-.17,0Z"/><path class="cls-24" d="M46.84,54.71V60.2l.18,0V54.68l-.18,0Z"/><path class="cls-23" d="M47,54.68v5.48l.21,0V54.63l-.21,0Z"/><path class="cls-22" d="M47.23,54.63v5.48a1.43,1.43,0,0,0,.27-.09l0-5.48-.26.09Z"/><path class="cls-20" d="M47.49,54.54l0,5.48.05,0,0-5.48,0,0Z"/></g></g></g><g class="cls-6"><g class="cls-46"><g class="cls-6"><path class="cls-15" d="M40.5,53.3v0Z"/><path class="cls-14" d="M40.5,53.35v5.48a1.55,1.55,0,0,0,0,.31l0-5.49a1.53,1.53,0,0,1,0-.3Z"/><path class="cls-13" d="M40.53,53.65l0,5.49a1.67,1.67,0,0,0,.08.3V54a1.49,1.49,0,0,1-.09-.3Z"/><path class="cls-12" d="M40.62,54v5.49c0,.1.09.2.14.3V54.25a1.64,1.64,0,0,1-.14-.3Z"/><path class="cls-11" d="M40.76,54.25v5.49a3.05,3.05,0,0,0,.22.32l0-5.49a2.2,2.2,0,0,1-.21-.32Z"/><path class="cls-10" d="M41,54.57l0,5.49a2.15,2.15,0,0,0,.33.35l0-5.48q-.18-.18-.33-.36Z"/><path class="cls-9" d="M41.3,54.93l0,5.48a4,4,0,0,0,.67.5l0-5.49a4.46,4.46,0,0,1-.67-.49Z"/><path class="cls-8" d="M42,55.42l0,5.49.06,0a6.89,6.89,0,0,0,1.17.51l0-5.49A5.3,5.3,0,0,1,42,55.46l-.07,0Z"/><path class="cls-9" d="M43.2,56l0,5.49a9.74,9.74,0,0,0,1,.25l0-5.49a6.65,6.65,0,0,1-1-.25Z"/><path class="cls-10" d="M44.2,56.22l0,5.49c.22,0,.45.07.68.09l0-5.48-.68-.1Z"/><path class="cls-11" d="M44.88,56.32l0,5.48.58,0V56.36l-.59,0Z"/><path class="cls-12" d="M45.47,56.36v5.48H46l0-5.48Z"/><path class="cls-13" d="M46,56.36l0,5.48a4.53,4.53,0,0,0,.52,0l0-5.48c-.17,0-.34,0-.52,0Z"/><path class="cls-14" d="M46.53,56.33l0,5.48.51-.05V56.27a4.35,4.35,0,0,1-.52.06Z"/><path class="cls-15" d="M47.05,56.27v5.49l.53-.09V56.18a4.89,4.89,0,0,1-.53.09Z"/><path class="cls-16" d="M47.58,56.18v5.49l.56-.14,0-5.48-.55.13Z"/><path class="cls-17" d="M48.13,56.05l0,5.48c.22-.06.43-.14.64-.22l0-5.48c-.2.08-.42.15-.64.22Z"/><path class="cls-18" d="M48.77,55.83l0,5.48a5,5,0,0,0,.77-.37,2.66,2.66,0,0,0,1.57-2.19l0-5.48a2.66,2.66,0,0,1-1.57,2.19,6.08,6.08,0,0,1-.77.37Z"/></g></g></g><g class="cls-6"><g class="cls-47"><g class="cls-6"><path class="cls-31" d="M33.31,55.49l0,5.49,0,0V55.52l0,0Z"/><path class="cls-30" d="M33.36,55.52V61a2.89,2.89,0,0,1,.46.34l0-5.48a3.31,3.31,0,0,0-.45-.34Z"/><path class="cls-29" d="M33.81,55.86l0,5.48a2.4,2.4,0,0,1,.22.24V56.1a2.55,2.55,0,0,0-.23-.24Z"/><path class="cls-28" d="M34,56.1v5.48a1.5,1.5,0,0,1,.15.23V56.32c0-.07-.1-.15-.15-.22Z"/><path class="cls-27" d="M34.19,56.32v5.49a2,2,0,0,1,.1.21V56.54a1.47,1.47,0,0,0-.1-.22Z"/><path class="cls-26" d="M34.29,56.54V62a.83.83,0,0,1,.06.21V56.75a1.66,1.66,0,0,0-.06-.21Z"/><path class="cls-25" d="M34.35,56.75v5.48a1,1,0,0,1,0,.23V57l0-.23Z"/><path class="cls-24" d="M34.38,57v0Z"/></g></g></g><g class="cls-6"><g class="cls-48"><g class="cls-6"><path class="cls-18" d="M33.42,58.57l0,5.48a2,2,0,0,0,1-1.55V57a2,2,0,0,1-1,1.56Z"/></g></g></g><path class="cls-49" d="M49.41,46.2a6.29,6.29,0,0,0,5.71-.13l3.06,1.78c-1.6.93-1.74,2.36-.33,3.24l-16.11,9.3a6.44,6.44,0,0,0-5.2,0l-3.12-1.8c1.3-1,1.28-2.27-.11-3.08Zm.13,9.26c2.08-1.2,2.09-3.15,0-4.34a8.22,8.22,0,0,0-7.51,0C40,52.31,40,54.26,42,55.46a8.26,8.26,0,0,0,7.5,0Z"/><polygon class="cls-3" points="33.42 58.57 33.44 64.05 36.55 65.86 36.54 60.37 33.42 58.57"/><g class="cls-6"><g class="cls-50"><g class="cls-6"><path class="cls-20" d="M36.54,60.37v5.49l.26-.11,0-5.48-.25.1Z"/><path class="cls-22" d="M36.79,60.27l0,5.48a4.72,4.72,0,0,1,.53-.18V60.09a4.27,4.27,0,0,0-.54.18Z"/><path class="cls-23" d="M37.33,60.09v5.48l.46-.11V60c-.16,0-.31.07-.46.12Z"/><path class="cls-24" d="M37.79,60v5.49l.42-.08V59.9l-.42.07Z"/><path class="cls-25" d="M38.21,59.9v5.48l.41,0V59.86l-.41,0Z"/><path class="cls-26" d="M38.62,59.86v5.48l.4,0V59.83l-.4,0Z"/><path class="cls-27" d="M39,59.83v5.49h.41V59.83Z"/><path class="cls-28" d="M39.43,59.83v5.49a3.15,3.15,0,0,1,.44,0l0-5.48-.43,0Z"/><path class="cls-29" d="M39.86,59.87l0,5.48.49.06,0-5.48a3.86,3.86,0,0,0-.49-.06Z"/><path class="cls-30" d="M40.35,59.93l0,5.48c.23,0,.46.11.68.18V60.1a5,5,0,0,0-.69-.17Z"/><path class="cls-31" d="M41,60.1v5.49a3.67,3.67,0,0,1,.7.29V60.39a4.89,4.89,0,0,0-.7-.29Z"/></g></g></g><polygon class="cls-5" points="41.74 60.4 41.75 65.88 57.86 56.58 57.85 51.09 41.74 60.4"/><path class="cls-51" d="M62.63,49.22,38.86,62.94l-10-5.81L52.63,43.41ZM36.54,60.37a6.44,6.44,0,0,1,5.2,0l16.11-9.3c-1.41-.88-1.27-2.31.33-3.24l-3.06-1.78a6.29,6.29,0,0,1-5.71.13l-16.1,9.29c1.39.81,1.41,2.13.11,3.08l3.12,1.8Z"/><polygon class="cls-4" points="38.86 62.94 38.88 68.43 62.65 54.7 62.63 49.22 38.86 62.94"/><polygon class="cls-2" points="28.86 57.13 28.88 62.62 38.88 68.43 38.86 62.94 28.86 57.13"/><path class="cls-49" d="M64.45,49.13,38.56,64.07l-11.89-6.9,25.89-15ZM38.86,62.94,62.63,49.22l-10-5.81L28.86,57.13l10,5.81Z"/><path class="cls-52" d="M49.57,51.12c2.06,1.19,2,3.14,0,4.34a8.26,8.26,0,0,1-7.5,0c-2.07-1.2-2.06-3.15,0-4.34A8.22,8.22,0,0,1,49.57,51.12Zm-2,3.4.7.4.42-.24L48,54.29a1.65,1.65,0,0,0,.74-.77l-.62-.17a1.46,1.46,0,0,1-.67.73,1.53,1.53,0,0,1-1.46.09c-.37-.22-.34-.51,0-.91s.54-1,0-1.32a2.46,2.46,0,0,0-2.11,0l-.66-.39-.43.24.65.38a1.41,1.41,0,0,0-.63.64l.6.17a1.38,1.38,0,0,1,.62-.63,1.31,1.31,0,0,1,1.29-.08c.35.2.28.45-.06.93s-.42,1,.17,1.31a2.59,2.59,0,0,0,2.21.05Z"/><polygon class="cls-5" points="38.56 64.08 38.57 69.56 64.47 54.61 64.45 49.13 38.56 64.08"/><polygon class="cls-3" points="26.67 57.17 26.68 62.65 38.57 69.56 38.56 64.08 26.67 57.17"/><path class="cls-53" d="M65.23,49.15,38.61,64.52,26,57.17,52.59,41.8ZM38.56,64.07,64.45,49.13,52.56,42.22l-25.89,15,11.89,6.9Z"/><path class="cls-54" d="M42.69,51.75l.65.38a1.41,1.41,0,0,0-.63.64l.6.17a1.38,1.38,0,0,1,.62-.63,1.31,1.31,0,0,1,1.29-.08c.35.2.28.45-.06.93s-.42,1,.17,1.31a2.59,2.59,0,0,0,2.21.05l.7.4.42-.24L48,54.29a1.65,1.65,0,0,0,.74-.77l-.62-.17a1.46,1.46,0,0,1-.67.73,1.53,1.53,0,0,1-1.46.09c-.37-.22-.34-.51,0-.91s.54-1,0-1.32a2.46,2.46,0,0,0-2.11,0l-.66-.39Z"/><polygon class="cls-55" points="38.61 64.52 38.63 70 65.25 54.63 65.23 49.15 38.61 64.52"/><polygon class="cls-56" points="25.96 57.17 25.98 62.66 38.63 70 38.61 64.52 25.96 57.17"/><polygon class="cls-56" points="38.61 64.52 38.63 67.49 25.97 60.23 25.96 57.17 38.61 64.52"/><polygon class="cls-55" points="38.61 64.52 38.63 67.49 65.25 51.94 65.23 49.15 38.61 64.52"/><polygon class="cls-57" points="55.82 60.08 55.82 54.61 48.13 59.03 48.14 64.51 55.82 60.08"/><polygon class="cls-58" points="55.82 54.61 43.1 47.28 35.48 51.66 48.13 59.05 55.82 54.61"/><polygon class="cls-59" points="54.98 60.56 54.98 55.07 48.98 58.52 48.98 64.03 54.98 60.56"/><polygon class="cls-60" points="54.98 55.07 42.3 47.74 36.27 51.21 48.98 58.54 54.98 55.07"/><g class="cls-61"><polygon points="40.24 76.87 58.3 87.37 123.81 49.55 105.74 39.05 40.24 76.87"/></g><g class="cls-6"><polygon class="cls-62" points="121.42 27.6 121.37 48.1 109.67 54.9 109.73 34.4 121.42 27.6"/><polygon class="cls-63" points="109.73 34.4 109.67 54.9 97.9 48.1 97.95 27.6 109.73 34.4"/><polygon class="cls-64" points="121.42 27.6 109.73 34.4 97.95 27.6 109.65 20.8 121.42 27.6"/></g><g class="cls-6"><polygon class="cls-65" points="103.52 45.96 103.48 58.26 91.78 65.06 91.82 52.76 103.52 45.96"/><polygon class="cls-66" points="91.82 52.76 91.78 65.06 80.01 58.26 80.04 45.96 91.82 52.76"/><polygon class="cls-67" points="103.52 45.96 91.82 52.76 80.04 45.96 91.74 39.16 103.52 45.96"/></g><g class="cls-6"><polygon class="cls-68" points="85.79 39.9 85.71 68.59 74.01 75.39 74.09 46.69 85.79 39.9"/><polygon class="cls-69" points="74.09 46.69 74.01 75.39 62.24 68.59 62.32 39.89 74.09 46.69"/><polygon class="cls-70" points="85.79 39.9 74.09 46.69 62.32 39.89 74.01 33.1 85.79 39.9"/></g><g class="cls-6"><polygon class="cls-71" points="70.32 69.23 70.3 77.43 58.6 84.23 58.62 76.03 70.32 69.23"/><polygon class="cls-72" points="58.62 76.03 58.6 84.23 46.83 77.43 46.85 69.23 58.62 76.03"/><polygon class="cls-73" points="70.32 69.23 58.62 76.03 46.85 69.23 58.54 62.43 70.32 69.23"/></g><path class="cls-70" d="M142.78,52.05c0,.12,0,.24,0,.36l-.07.28c0,.11-.06.23-.1.34s-.07.18-.11.27a2.26,2.26,0,0,1-.17.35,4,4,0,0,1-.28.48l-.06.07a3.92,3.92,0,0,1-.37.46l-.07.09c-.14.15-.3.31-.47.46l-.34.28-.32.25L140,56l-.43.28c-.33.19-.69.36-1.05.53l-.32.14c-.29.11-.58.23-.89.33l-.32.11-.57.16-.45.12c-.2,0-.41.1-.61.13s-.28.07-.43.09c-.41.07-.84.13-1.27.18l-.39,0-.77,0-.48,0h-.62l-.51,0a5.12,5.12,0,0,1-.56,0l-.53,0-.55-.06-.5-.07-.6-.11c-.15,0-.31-.05-.46-.09l-.7-.17-.38-.11a12.24,12.24,0,0,1-1.21-.4l-.56-.24-.29-.13a7.06,7.06,0,0,1-.82-.43c-2.22-1.27-3.32-3-3.32-4.62v3.12c0,1.67,1.1,3.35,3.3,4.62a8.13,8.13,0,0,0,.83.43c.09.05.18.08.27.12l.52.23.07,0c.38.15.79.28,1.2.41l.1,0,.28.07.7.17.18,0,.28,0,.6.11.24,0,.25,0,.57.06.27,0h.25l.56,0h1.62l.76-.05.3,0h.09c.43-.05.86-.1,1.28-.18H135l.36-.07.62-.14.43-.11.59-.17.12,0,.19-.07c.31-.1.6-.21.89-.33l.32-.14a11.51,11.51,0,0,0,1-.54l.14-.08.3-.19.39-.27a3.92,3.92,0,0,0,.32-.25l.34-.28.07-.06c.14-.13.28-.27.4-.4l.07-.09a2.46,2.46,0,0,0,.22-.25c.06-.07.1-.14.15-.21l.06-.07a4.11,4.11,0,0,0,.24-.39.36.36,0,0,0,0-.09,3.78,3.78,0,0,0,.17-.35,1.76,1.76,0,0,0,.09-.2.25.25,0,0,0,0-.07,3.37,3.37,0,0,0,.1-.34l.07-.22v-.06c0-.12,0-.24,0-.36a1.66,1.66,0,0,0,0-.22V51.73C142.81,51.84,142.79,51.94,142.78,52.05Z"/><path class="cls-74" d="M142.74,52.41l-.07.28c0,.11-.06.23-.1.34s-.07.18-.11.27a2.26,2.26,0,0,1-.17.35,4,4,0,0,1-.28.48l-.06.07a3.92,3.92,0,0,1-.37.46l-.07.09c-.14.15-.3.31-.47.46l-.34.28-.32.25L140,56l-.43.28c-.33.19-.69.36-1.05.53l-.32.14c-.29.11-.58.23-.89.33l-.32.11-.57.16-.45.12c-.2,0-.41.1-.61.13s-.28.07-.43.09c-.41.07-.84.13-1.27.18l-.39,0-.77,0-.48,0h-.62l-.51,0a5.12,5.12,0,0,1-.56,0l-.53,0-.55-.06-.5-.07-.6-.11c-.15,0-.31-.05-.46-.09l-.7-.17-.38-.11a12.24,12.24,0,0,1-1.21-.4l-.56-.24-.29-.13a7.06,7.06,0,0,1-.82-.43c-2.22-1.27-3.32-3-3.32-4.62v2.07c0,1.66,1.11,3.31,3.3,4.58.27.15.54.3.83.43l.27.12c.18.07.35.16.52.22l.07,0c.38.15.79.28,1.2.4l.1,0,.28.06c.23.07.46.12.7.18l.18,0,.28.05.6.1L129,60l.25,0,.57.07.27,0h.25l.56,0,.29,0h1.33l.76,0,.3,0,.09,0c.43,0,.86-.1,1.28-.17H135l.36-.08.62-.13.43-.12.59-.16.12,0,.19-.07c.31-.1.6-.22.89-.34l.32-.13a11.51,11.51,0,0,0,1-.54l.14-.08a3.13,3.13,0,0,0,.3-.2l.39-.26c.12-.08.21-.17.32-.25l.34-.28.07-.06a5.14,5.14,0,0,0,.4-.41l.07-.08a2.53,2.53,0,0,0,.22-.26c.06-.06.1-.14.15-.2l.06-.08a4.11,4.11,0,0,0,.24-.39.2.2,0,0,0,0-.08c.06-.12.12-.23.17-.35s.07-.14.09-.2a.25.25,0,0,0,0-.07c0-.11.07-.23.1-.34s.05-.15.07-.23v-.06c0-.11,0-.23,0-.35a1.81,1.81,0,0,0,0-.23V51.77l0,.28C142.77,52.17,142.76,52.29,142.74,52.41Z"/><path class="cls-69" d="M142.74,52.41l-.07.28c0,.11-.06.23-.1.34s-.07.18-.11.27a2.26,2.26,0,0,1-.17.35,4,4,0,0,1-.28.48l-.06.07a3.92,3.92,0,0,1-.37.46l-.07.09c-.14.15-.3.31-.47.46l-.34.28-.32.25L140,56l-.43.28c-.33.19-.69.36-1.05.53l-.32.14c-.29.11-.58.23-.89.33l-.32.11-.57.16-.45.12c-.2,0-.41.1-.61.13s-.28.07-.43.09c-.41.07-.84.13-1.27.18l-.39,0-.77,0-.48,0h-.62l-.51,0a5.12,5.12,0,0,1-.56,0l-.53,0-.55-.06-.5-.07-.6-.11c-.15,0-.31-.05-.46-.09l-.7-.17-.38-.11a12.24,12.24,0,0,1-1.21-.4l-.56-.24-.29-.13a7.06,7.06,0,0,1-.82-.43c-2.22-1.27-3.32-3-3.32-4.62v2.07c0,1.66,1.11,3.31,3.3,4.58.27.15.54.3.83.43l.27.12c.18.07.35.16.52.22l.07,0c.38.15.79.28,1.2.4l.1,0,.28.06c.23.07.46.12.7.18l.18,0,.28.05.6.1L129,60l.25,0,.57.07.27,0h.25l.56,0,.29,0h1.33l.76,0,.3,0,.09,0c.43,0,.86-.1,1.28-.17H135l.36-.08.62-.13.43-.12.59-.16.12,0,.19-.07c.31-.1.6-.22.89-.34l.32-.13a11.51,11.51,0,0,0,1-.54l.14-.08a3.13,3.13,0,0,0,.3-.2l.39-.26c.12-.08.21-.17.32-.25l.34-.28.07-.06a5.14,5.14,0,0,0,.4-.41l.07-.08a2.53,2.53,0,0,0,.22-.26c.06-.06.1-.14.15-.2l.06-.08a4.11,4.11,0,0,0,.24-.39.2.2,0,0,0,0-.08c.06-.12.12-.23.17-.35s.07-.14.09-.2a.25.25,0,0,0,0-.07c0-.11.07-.23.1-.34s.05-.15.07-.23v-.06c0-.11,0-.23,0-.35a1.81,1.81,0,0,0,0-.23V51.77l0,.28C142.77,52.17,142.76,52.29,142.74,52.41Z"/><path class="cls-75" d="M139.5,47.1c4.39,2.54,4.42,6.65.05,9.19s-11.45,2.53-15.84,0-4.42-6.64-.06-9.17S135.11,44.57,139.5,47.1Z"/><path class="cls-74" d="M139.5,47.1c4.39,2.54,4.42,6.65.05,9.19s-11.45,2.53-15.84,0-4.42-6.64-.06-9.17S135.11,44.57,139.5,47.1Z"/><path class="cls-70" d="M139.5,47.65c4.39,2.53,4.42,6.1.05,8.64s-11.45,2.53-15.84,0-4.42-6.09-.06-8.63S135.11,45.12,139.5,47.65Z"/><path class="cls-76" d="M123.65,47.65c4.36-2.53,11.46-2.53,15.85,0,2.07,1.2,3.16,2.62,3.28,4.06.14-1.62-.94-3.26-3.28-4.61-4.39-2.53-11.49-2.53-15.85,0-2.3,1.33-3.37,3-3.23,4.57C120.54,50.25,121.61,48.84,123.65,47.65Z"/><path class="cls-77" d="M137.84,48.06c3.48,2,3.49,5.26,0,7.26a13.77,13.77,0,0,1-12.53,0c-3.47-2-3.48-5.25,0-7.25A13.8,13.8,0,0,1,137.84,48.06Z"/><path class="cls-78" d="M137.6,48.41c3.33,2,3.35,5.21,0,7.2a12.87,12.87,0,0,1-12,0c-3.34-2-3.35-5.21,0-7.2A12.89,12.89,0,0,1,137.6,48.41Z"/><path class="cls-74" d="M137.25,48.92l-1.23.71a2.58,2.58,0,0,1,1.18,1.21l-1.12.31A2.51,2.51,0,0,0,134.92,50a2.46,2.46,0,0,0-2.42-.15c-.65.38-.51.84.12,1.75s.79,1.81-.32,2.46a4.88,4.88,0,0,1-4.14.08l-1.31.75-.79-.45,1.27-.73A3,3,0,0,1,126,52.23l1.15-.31a2.72,2.72,0,0,0,1.27,1.36,2.85,2.85,0,0,0,2.73.17c.71-.41.64-.94.08-1.7-.8-1-1-1.84.06-2.47a4.67,4.67,0,0,1,3.95-.08l1.26-.74Z"/><path class="cls-70" d="M138.23,46c0,.12,0,.24,0,.36a1.28,1.28,0,0,1-.07.28,3.37,3.37,0,0,1-.1.34,1.69,1.69,0,0,1-.11.27c0,.12-.1.24-.16.36s-.18.32-.29.47l-.06.07a5.06,5.06,0,0,1-.37.47l-.07.08a5.13,5.13,0,0,1-.47.46l-.34.29-.32.25c-.12.09-.26.17-.39.26s-.28.19-.44.28a11.45,11.45,0,0,1-1.05.53l-.32.14c-.29.12-.58.23-.88.33l-.32.11-.58.17-.44.12-.62.13-.43.09c-.41.07-.84.13-1.27.17l-.39,0-.77,0h-1.61l-.56,0-.52,0c-.19,0-.38,0-.56-.06l-.5-.07-.6-.1-.46-.1-.7-.17-.38-.1c-.41-.12-.81-.25-1.21-.41-.19-.07-.38-.16-.56-.24l-.29-.12c-.29-.14-.56-.28-.82-.43-2.22-1.28-3.32-2.95-3.31-4.62v3.11c0,1.68,1.1,3.35,3.31,4.63.26.15.54.29.82.43l.28.12.51.22.07,0c.39.15.79.29,1.2.41l.1,0,.29.07.69.17.19,0,.27.05.6.1.24,0,.26,0,.56.06.27,0h.25l.56,0h1.62l.76-.06a1.51,1.51,0,0,0,.3,0h.09c.43,0,.86-.1,1.28-.18h.06c.12,0,.24,0,.36-.07l.62-.13.44-.12c.19,0,.39-.1.58-.17l.12,0,.2-.08c.3-.1.59-.21.88-.33l.32-.14c.36-.16.72-.34,1.06-.53l.13-.08.3-.2.39-.26a4,4,0,0,0,.32-.26l.34-.27s.05,0,.07-.06a5.09,5.09,0,0,0,.4-.41l.07-.08c.08-.09.16-.17.23-.26l.15-.21,0-.07a4.11,4.11,0,0,0,.24-.39l.05-.09a3.73,3.73,0,0,0,.16-.35l.1-.2a.19.19,0,0,1,0-.07c0-.11.07-.22.09-.33s0-.15.07-.23V49.5a2.21,2.21,0,0,0,0-.35,2.08,2.08,0,0,0,0-.23V45.7A3.16,3.16,0,0,1,138.23,46Z"/><path class="cls-74" d="M138.19,46.38a1.28,1.28,0,0,1-.07.28,3.37,3.37,0,0,1-.1.34,1.69,1.69,0,0,1-.11.27c0,.12-.1.24-.16.36s-.18.32-.29.47l-.06.07a5.06,5.06,0,0,1-.37.47l-.07.08a5.13,5.13,0,0,1-.47.46l-.34.29-.32.25c-.12.09-.26.17-.39.26s-.28.19-.44.28a11.45,11.45,0,0,1-1.05.53l-.32.14c-.29.12-.58.23-.88.33l-.32.11-.58.17-.44.12-.62.13-.43.09c-.41.07-.84.13-1.27.17l-.39,0-.77,0h-1.61l-.56,0-.52,0c-.19,0-.38,0-.56-.06l-.5-.07-.6-.1-.46-.1-.7-.17-.38-.1c-.41-.12-.81-.25-1.21-.41-.19-.07-.38-.16-.56-.24l-.29-.12c-.29-.14-.56-.28-.82-.43-2.22-1.28-3.32-2.95-3.31-4.62V47.7c0,1.66,1.11,3.32,3.31,4.58.26.16.54.3.82.44l.28.11.51.23.07,0c.39.15.79.28,1.2.4l.1,0,.29.07.69.17.19.05.27,0,.6.11.24,0,.26,0,.56.06.27,0h.25c.19,0,.37,0,.56,0l.29,0h1.33l.76,0,.3,0h.09c.43,0,.86-.1,1.28-.18h.06l.36-.08.62-.13a3.6,3.6,0,0,0,.44-.12l.58-.16.12,0,.2-.07a9.4,9.4,0,0,0,.88-.34l.32-.13c.36-.17.72-.34,1.06-.54l.13-.07.3-.2.39-.27a3.92,3.92,0,0,0,.32-.25l.34-.28.07-.06a5,5,0,0,0,.4-.4l.07-.09.23-.25.15-.21,0-.07a4.11,4.11,0,0,0,.24-.39l.05-.09a3.73,3.73,0,0,0,.16-.35l.1-.2a.19.19,0,0,1,0-.07,3.37,3.37,0,0,0,.09-.34l.07-.22v-.06a2.2,2.2,0,0,0,0-.36,1.81,1.81,0,0,0,0-.23V45.74l0,.28C138.22,46.14,138.21,46.26,138.19,46.38Z"/><path class="cls-69" d="M138.19,46.38a1.28,1.28,0,0,1-.07.28,3.37,3.37,0,0,1-.1.34,1.69,1.69,0,0,1-.11.27c0,.12-.1.24-.16.36s-.18.32-.29.47l-.06.07a5.06,5.06,0,0,1-.37.47l-.07.08a5.13,5.13,0,0,1-.47.46l-.34.29-.32.25c-.12.09-.26.17-.39.26s-.28.19-.44.28a11.45,11.45,0,0,1-1.05.53l-.32.14c-.29.12-.58.23-.88.33l-.32.11-.58.17-.44.12-.62.13-.43.09c-.41.07-.84.13-1.27.17l-.39,0-.77,0h-1.61l-.56,0-.52,0c-.19,0-.38,0-.56-.06l-.5-.07-.6-.1-.46-.1-.7-.17-.38-.1c-.41-.12-.81-.25-1.21-.41-.19-.07-.38-.16-.56-.24l-.29-.12c-.29-.14-.56-.28-.82-.43-2.22-1.28-3.32-2.95-3.31-4.62V47.7c0,1.66,1.11,3.32,3.31,4.58.26.16.54.3.82.44l.28.11.51.23.07,0c.39.15.79.28,1.2.4l.1,0,.29.07.69.17.19.05.27,0,.6.11.24,0,.26,0,.56.06.27,0h.25c.19,0,.37,0,.56,0l.29,0h1.33l.76,0,.3,0h.09c.43,0,.86-.1,1.28-.18h.06l.36-.08.62-.13a3.6,3.6,0,0,0,.44-.12l.58-.16.12,0,.2-.07a9.4,9.4,0,0,0,.88-.34l.32-.13c.36-.17.72-.34,1.06-.54l.13-.07.3-.2.39-.27a3.92,3.92,0,0,0,.32-.25l.34-.28.07-.06a5,5,0,0,0,.4-.4l.07-.09.23-.25.15-.21,0-.07a4.11,4.11,0,0,0,.24-.39l.05-.09a3.73,3.73,0,0,0,.16-.35l.1-.2a.19.19,0,0,1,0-.07,3.37,3.37,0,0,0,.09-.34l.07-.22v-.06a2.2,2.2,0,0,0,0-.36,1.81,1.81,0,0,0,0-.23V45.74l0,.28C138.22,46.14,138.21,46.26,138.19,46.38Z"/><path class="cls-75" d="M135,41.08c4.39,2.53,4.42,6.64.05,9.18s-11.45,2.53-15.84,0-4.42-6.65-.06-9.18S130.56,38.54,135,41.08Z"/><path class="cls-74" d="M135,41.08c4.39,2.53,4.42,6.64.05,9.18s-11.45,2.53-15.84,0-4.42-6.65-.06-9.18S130.56,38.54,135,41.08Z"/><path class="cls-70" d="M135,41.62c4.39,2.54,4.42,6.1.05,8.64s-11.45,2.53-15.84,0-4.42-6.1-.06-8.63S130.56,39.09,135,41.62Z"/><path class="cls-76" d="M119.1,41.63c4.37-2.54,11.46-2.54,15.85,0,2.07,1.2,3.16,2.63,3.29,4.07.13-1.63-1-3.27-3.29-4.61-4.39-2.54-11.48-2.54-15.85,0-2.3,1.34-3.37,3-3.23,4.57C116,44.22,117.06,42.81,119.1,41.63Z"/><path class="cls-77" d="M133.29,42c3.48,2,3.49,5.25,0,7.26a13.81,13.81,0,0,1-12.52,0c-3.48-2-3.49-5.26,0-7.26A13.8,13.8,0,0,1,133.29,42Z"/><path class="cls-78" d="M133.05,42.39c3.33,2,3.35,5.21,0,7.19a12.89,12.89,0,0,1-12,0c-3.33-2-3.35-5.21,0-7.19A12.89,12.89,0,0,1,133.05,42.39Z"/><path class="cls-74" d="M132.7,42.89l-1.23.72a2.57,2.57,0,0,1,1.18,1.2l-1.12.31A2.84,2.84,0,0,0,128,43.8c-.65.38-.51.83.12,1.74.77,1.06.79,1.81-.32,2.46a4.88,4.88,0,0,1-4.14.08l-1.31.76-.78-.46,1.26-.73a3.08,3.08,0,0,1-1.38-1.44l1.15-.32a2.72,2.72,0,0,0,1.27,1.36,2.83,2.83,0,0,0,2.73.17c.71-.41.64-.94.08-1.7-.79-1-1-1.84.07-2.47a4.65,4.65,0,0,1,3.94-.08l1.26-.74Z"/><path class="cls-79" d="M121.64,62.79c5.22,2.71,5.2,7.05,0,9.73s-13.49,2.71-18.71,0-5.2-7-.06-9.73S116.46,60.11,121.64,62.79Z"/><g class="cls-80"><path class="cls-81" d="M122.8,54.23c6,3.08,5.92,8,.07,11.08s-15.36,3.08-21.31,0-5.92-8-.07-11.08S116.91,51.18,122.8,54.23Z"/></g><g class="cls-82"><path class="cls-83" d="M124,45.67c6.67,3.46,6.64,9,.08,12.43s-17.24,3.45-23.91,0-6.64-9-.08-12.43S117.36,42.25,124,45.67Z"/></g><g class="cls-84"><path class="cls-85" d="M125.14,37.11c7.39,3.83,7.36,10,.08,13.77s-19.11,3.84-26.5,0-7.37-10-.08-13.77S117.81,33.32,125.14,37.11Z"/></g><g class="cls-86"><path class="cls-87" d="M126.31,28.55c8.11,4.21,8.08,11,.09,15.12s-21,4.21-29.1,0-8.09-11-.09-15.12S118.26,24.38,126.31,28.55Z"/></g><g class="cls-88"><path class="cls-89" d="M127.47,20c8.84,4.58,8.81,11.93.1,16.47s-22.85,4.58-31.69,0S87.07,24.53,95.78,20,118.71,15.45,127.47,20Z"/></g><g class="cls-90"><path class="cls-91" d="M128.64,11.43c9.56,5,9.53,12.91.11,17.82s-24.72,5-34.28,0-9.54-12.91-.12-17.82S119.16,6.52,128.64,11.43Z"/></g><g class="cls-92"><path class="cls-93" d="M121.64,62.84c5.22,2.71,5.2,7,0,9.72s-13.49,2.71-18.71,0-5.2-7-.06-9.72S116.46,60.16,121.64,62.84Z"/></g><path class="cls-70" d="M122.75,66.3c0,.12,0,.24,0,.36s0,.18-.07.28-.06.23-.1.34-.07.18-.11.27a2.81,2.81,0,0,1-.17.35,3.24,3.24,0,0,1-.28.47l-.06.08a5,5,0,0,1-.37.46.27.27,0,0,1-.07.08,5.21,5.21,0,0,1-.47.47l-.34.28-.32.25c-.13.09-.26.18-.4.26l-.43.28a11.7,11.7,0,0,1-1.06.54l-.31.13-.89.34-.32.1a5.54,5.54,0,0,1-.58.17l-.43.12-.63.13c-.13,0-.27.07-.42.09-.42.07-.84.13-1.27.18l-.4,0-.76,0H112c-.21,0-.41,0-.62,0h-.51c-.19,0-.38,0-.57,0l-.52,0-.56-.06-.49-.07-.6-.11-.46-.09-.7-.17-.39-.11c-.41-.12-.81-.25-1.2-.4l-.56-.24L104.5,71c-.29-.14-.56-.28-.82-.43-2.22-1.27-3.32-3-3.32-4.62V69c0,1.67,1.09,3.34,3.3,4.62.27.15.54.3.83.43l.27.12.52.23.06,0c.39.15.8.28,1.21.4l.1,0,.28.07.7.17.18,0,.28,0,.6.1.24.05.25,0,.57.07.26,0h.25l.57,0,.29,0h1.32l.77,0,.3,0h.09c.43,0,.86-.11,1.27-.18h.07l.36-.08.62-.13.43-.12.59-.16.12,0,.19-.07c.31-.11.6-.22.88-.34l.33-.13a11.51,11.51,0,0,0,1.05-.54l.14-.08.3-.19.39-.27.32-.25.34-.28.07-.06c.14-.13.27-.27.4-.41a.27.27,0,0,0,.07-.08,2.53,2.53,0,0,0,.22-.26l.16-.2a.35.35,0,0,1,0-.08,3.14,3.14,0,0,0,.24-.39.3.3,0,0,0,0-.08c.06-.12.12-.23.17-.35a1.76,1.76,0,0,0,.09-.2s0,0,0-.08a3.18,3.18,0,0,0,.1-.33,1.8,1.8,0,0,0,.06-.22.2.2,0,0,0,0-.07c0-.11,0-.23,0-.35a1.81,1.81,0,0,0,0-.23V66C122.78,66.08,122.76,66.19,122.75,66.3Z"/><path class="cls-74" d="M122.71,66.66c0,.09,0,.18-.07.28s-.06.23-.1.34-.07.18-.11.27a2.81,2.81,0,0,1-.17.35,3.24,3.24,0,0,1-.28.47l-.06.08a5,5,0,0,1-.37.46.27.27,0,0,1-.07.08,5.21,5.21,0,0,1-.47.47l-.34.28-.32.25c-.13.09-.26.18-.4.26l-.43.28a11.7,11.7,0,0,1-1.06.54l-.31.13-.89.34-.32.1a5.54,5.54,0,0,1-.58.17l-.43.12-.63.13c-.13,0-.27.07-.42.09-.42.07-.84.13-1.27.18l-.4,0-.76,0H112c-.21,0-.41,0-.62,0h-.51c-.19,0-.38,0-.57,0l-.52,0-.56-.06-.49-.07-.6-.11-.46-.09-.7-.17-.39-.11c-.41-.12-.81-.25-1.2-.4l-.56-.24L104.5,71c-.29-.14-.56-.28-.82-.43-2.22-1.27-3.32-3-3.32-4.62V68c0,1.66,1.11,3.32,3.3,4.59.27.15.54.29.83.43l.27.11.52.23.06,0a12.29,12.29,0,0,0,1.21.41l.1,0,.28.07.7.17.18,0,.28,0,.6.1.24,0,.25,0,.57.06.26,0,.25,0,.57,0,.29,0h1.32l.77,0,.3,0,.09,0c.43,0,.86-.1,1.27-.17h.07l.36-.08.62-.13.43-.12.59-.17.12,0,.19-.08c.31-.1.6-.21.88-.33l.33-.14a11.45,11.45,0,0,0,1.05-.53l.14-.08c.11-.06.19-.13.3-.2s.27-.17.39-.26l.32-.25.34-.29.07,0c.14-.13.27-.27.4-.41l.07-.08a2.53,2.53,0,0,0,.22-.26l.16-.21,0-.07a4.11,4.11,0,0,0,.24-.39.59.59,0,0,0,0-.08l.17-.35c0-.07.07-.14.09-.2s0,0,0-.08.07-.22.1-.33a2,2,0,0,0,.06-.23.13.13,0,0,0,0-.06c0-.12,0-.24,0-.35a2.08,2.08,0,0,0,0-.23V66l0,.29C122.74,66.42,122.73,66.54,122.71,66.66Z"/><path class="cls-69" d="M122.71,66.66c0,.09,0,.18-.07.28s-.06.23-.1.34-.07.18-.11.27a2.81,2.81,0,0,1-.17.35,3.24,3.24,0,0,1-.28.47l-.06.08a5,5,0,0,1-.37.46.27.27,0,0,1-.07.08,5.21,5.21,0,0,1-.47.47l-.34.28-.32.25c-.13.09-.26.18-.4.26l-.43.28a11.7,11.7,0,0,1-1.06.54l-.31.13-.89.34-.32.1a5.54,5.54,0,0,1-.58.17l-.43.12-.63.13c-.13,0-.27.07-.42.09-.42.07-.84.13-1.27.18l-.4,0-.76,0H112c-.21,0-.41,0-.62,0h-.51c-.19,0-.38,0-.57,0l-.52,0-.56-.06-.49-.07-.6-.11-.46-.09-.7-.17-.39-.11c-.41-.12-.81-.25-1.2-.4l-.56-.24L104.5,71c-.29-.14-.56-.28-.82-.43-2.22-1.27-3.32-3-3.32-4.62V68c0,1.66,1.11,3.32,3.3,4.59.27.15.54.29.83.43l.27.11.52.23.06,0a12.29,12.29,0,0,0,1.21.41l.1,0,.28.07.7.17.18,0,.28,0,.6.1.24,0,.25,0,.57.06.26,0,.25,0,.57,0,.29,0h1.32l.77,0,.3,0,.09,0c.43,0,.86-.1,1.27-.17h.07l.36-.08.62-.13.43-.12.59-.17.12,0,.19-.08c.31-.1.6-.21.88-.33l.33-.14a11.45,11.45,0,0,0,1.05-.53l.14-.08c.11-.06.19-.13.3-.2s.27-.17.39-.26l.32-.25.34-.29.07,0c.14-.13.27-.27.4-.41l.07-.08a2.53,2.53,0,0,0,.22-.26l.16-.21,0-.07a4.11,4.11,0,0,0,.24-.39.59.59,0,0,0,0-.08l.17-.35c0-.07.07-.14.09-.2s0,0,0-.08.07-.22.1-.33a2,2,0,0,0,.06-.23.13.13,0,0,0,0-.06c0-.12,0-.24,0-.35a2.08,2.08,0,0,0,0-.23V66l0,.29C122.74,66.42,122.73,66.54,122.71,66.66Z"/><path class="cls-75" d="M119.47,61.35c4.39,2.54,4.41,6.65,0,9.18s-11.45,2.53-15.84,0-4.42-6.64-.06-9.18S115.08,58.82,119.47,61.35Z"/><path class="cls-74" d="M119.47,61.35c4.39,2.54,4.41,6.65,0,9.18s-11.45,2.53-15.84,0-4.42-6.64-.06-9.18S115.08,58.82,119.47,61.35Z"/><path class="cls-70" d="M119.47,61.9c4.39,2.53,4.41,6.1,0,8.63s-11.45,2.53-15.84,0-4.42-6.1-.06-8.63S115.08,59.36,119.47,61.9Z"/><path class="cls-76" d="M103.62,61.9c4.36-2.54,11.46-2.54,15.85,0,2.07,1.19,3.16,2.62,3.29,4.06.13-1.62-1-3.26-3.29-4.61-4.39-2.53-11.49-2.53-15.85,0-2.3,1.34-3.37,3-3.23,4.57C100.51,64.5,101.58,63.09,103.62,61.9Z"/><path class="cls-77" d="M117.81,62.31c3.47,2,3.49,5.26,0,7.26a13.8,13.8,0,0,1-12.53,0c-3.47-2-3.48-5.25,0-7.26A13.83,13.83,0,0,1,117.81,62.31Z"/><path class="cls-78" d="M117.57,62.66c3.33,2,3.35,5.21,0,7.2a12.9,12.9,0,0,1-12,0c-3.33-2-3.35-5.21,0-7.2A12.89,12.89,0,0,1,117.57,62.66Z"/><path class="cls-74" d="M117.21,63.17l-1.22.71a2.54,2.54,0,0,1,1.18,1.21l-1.12.31a2.86,2.86,0,0,0-3.58-1.33c-.65.38-.51.83.12,1.75s.79,1.81-.32,2.45a4.93,4.93,0,0,1-4.15.09l-1.3.75-.79-.46,1.27-.73a3,3,0,0,1-1.38-1.44l1.15-.31a2.63,2.63,0,0,0,1.27,1.36,2.88,2.88,0,0,0,2.73.17c.7-.41.64-.94.07-1.7-.79-1-1-1.84.07-2.47a4.67,4.67,0,0,1,4-.09l1.26-.73Z"/><path class="cls-79" d="M31.28,68.33c4.76,2.47,4.74,6.43,0,8.87s-12.29,2.47-17,0-4.75-6.42-.06-8.87S26.56,65.89,31.28,68.33Z"/><g class="cls-80"><path class="cls-81" d="M32.35,62.66c5.41,2.81,5.39,7.31.06,10.09s-14,2.81-19.43,0-5.4-7.31-.06-10.09S27,59.88,32.35,62.66Z"/></g><g class="cls-82"><path class="cls-83" d="M33.41,57c6.08,3.15,6.05,8.2.07,11.33s-15.71,3.15-21.79,0S5.63,60.1,11.62,57,27.38,53.86,33.41,57Z"/></g><g class="cls-84"><path class="cls-85" d="M34.48,51.31c6.73,3.49,6.71,9.09.07,12.55s-17.42,3.49-24.15,0-6.72-9.09-.08-12.55S27.79,47.84,34.48,51.31Z"/></g><g class="cls-86"><path class="cls-87" d="M35.54,45.63c7.4,3.83,7.37,10,.08,13.78s-19.12,3.84-26.52,0S1.73,49.43,9,45.63,28.2,41.83,35.54,45.63Z"/></g><g class="cls-88"><path class="cls-89" d="M36.6,40c8.06,4.18,8,10.88.09,15S15.86,59.14,7.81,55s-8-10.88-.1-15S28.61,35.81,36.6,40Z"/></g><g class="cls-90"><path class="cls-91" d="M37.67,34.28c8.71,4.51,8.68,11.76.09,16.24S15.23,55,6.51,50.52s-8.69-11.77-.1-16.24S29,29.8,37.67,34.28Z"/></g><g class="cls-92"><path class="cls-93" d="M31.28,68.38c4.76,2.46,4.74,6.42,0,8.86s-12.29,2.47-17,0-4.75-6.42-.06-8.86S26.56,65.93,31.28,68.38Z"/></g><path class="cls-70" d="M34.22,71.25c0,.12,0,.24,0,.35s0,.19-.08.29-.05.22-.09.33a2.36,2.36,0,0,1-.12.28c0,.12-.1.23-.16.35a4.57,4.57,0,0,1-.29.47.35.35,0,0,1,0,.08c-.12.15-.24.31-.37.46l-.07.08c-.15.16-.31.32-.48.47l-.34.28-.31.25-.4.27-.43.27c-.34.2-.7.37-1.06.54l-.32.13c-.28.12-.58.24-.88.34l-.32.11-.58.16c-.15,0-.29.09-.44.12l-.62.13-.42.09c-.42.07-.85.13-1.27.18l-.4,0-.76,0h-1.1l-.51,0-.57,0-.52,0-.56-.07-.5-.07a5.58,5.58,0,0,1-.59-.1L19.1,77l-.69-.17L18,76.68c-.41-.12-.81-.25-1.2-.4L16.25,76,16,75.91c-.28-.14-.56-.28-.82-.43-2.21-1.28-3.31-3-3.31-4.62V74c0,1.67,1.1,3.34,3.31,4.62.27.15.54.29.83.43l.27.12.52.23.06,0c.39.15.79.28,1.2.4l.1,0,.29.08.69.17.19,0,.28,0,.59.1a1,1,0,0,0,.24,0l.26,0,.56.06a2.48,2.48,0,0,1,.27,0h.25l.57,0,.29,0a1.62,1.62,0,0,1,.22,0h1.1l.76,0,.31,0,.09,0c.43,0,.85-.1,1.27-.17h.06l.36-.08.62-.13.44-.12.58-.16.12,0,.2-.07.88-.34.32-.13A10.52,10.52,0,0,0,31,78.6l.14-.08.29-.2c.14-.08.27-.17.4-.26l.31-.25.34-.28.07-.06a5.29,5.29,0,0,0,.41-.41L33,77l.22-.26.15-.2a.35.35,0,0,0,0-.08,4.25,4.25,0,0,0,.25-.39.2.2,0,0,0,0-.08c.06-.12.11-.23.16-.35s.07-.14.1-.2a.64.64,0,0,1,0-.07,2.46,2.46,0,0,0,.09-.34.94.94,0,0,0,.07-.22.2.2,0,0,0,0-.07c0-.11,0-.23,0-.35s0-.15,0-.23a.31.31,0,0,0,0-.1V70.92C34.25,71,34.22,71.14,34.22,71.25Z"/><path class="cls-74" d="M34.18,71.6c0,.1,0,.19-.08.29s-.05.22-.09.33a2.36,2.36,0,0,1-.12.28c0,.12-.1.23-.16.35a4.57,4.57,0,0,1-.29.47.35.35,0,0,1,0,.08c-.12.15-.24.31-.37.46l-.07.08c-.15.16-.31.32-.48.47l-.34.28-.31.25-.4.27-.43.27c-.34.2-.7.37-1.06.54l-.32.13c-.28.12-.58.24-.88.34l-.32.11-.58.16c-.15,0-.29.09-.44.12l-.62.13-.42.09c-.42.07-.85.13-1.27.18l-.4,0-.76,0h-1.1l-.51,0-.57,0-.52,0-.56-.07-.5-.07a5.58,5.58,0,0,1-.59-.1L19.1,77l-.69-.17L18,76.68c-.41-.12-.81-.25-1.2-.4L16.25,76,16,75.91c-.28-.14-.56-.28-.82-.43-2.21-1.28-3.31-3-3.31-4.62v2.06c0,1.66,1.11,3.32,3.3,4.59.27.15.54.29.83.43l.27.12.52.22.06,0a12.1,12.1,0,0,0,1.2.41l.1,0,.29.07.69.17.19,0,.28,0,.59.1.24,0,.26,0,.56.06a2.48,2.48,0,0,0,.27,0l.25,0,.57,0h1.61c.26,0,.51,0,.76-.06a1.67,1.67,0,0,0,.31,0h.09c.43,0,.85-.1,1.27-.17h.06l.36-.08a6.21,6.21,0,0,0,.62-.14l.44-.11.58-.17.12,0,.2-.08c.3-.1.59-.21.88-.33l.32-.14A10.47,10.47,0,0,0,31,77.51l.14-.08.29-.2.4-.26.31-.25c.12-.1.24-.19.34-.29a.18.18,0,0,0,.07-.05c.15-.14.28-.27.41-.41l.07-.09a2.62,2.62,0,0,0,.22-.25l.15-.21,0-.07a4.25,4.25,0,0,0,.25-.39.59.59,0,0,0,0-.08c.06-.12.11-.24.16-.35l.1-.21a.64.64,0,0,0,0-.07,2,2,0,0,0,.09-.33,1,1,0,0,0,.07-.23.13.13,0,0,0,0-.06c0-.12,0-.24,0-.35s0-.16,0-.23a.34.34,0,0,0,0-.1V71c0,.1,0,.19,0,.29S34.2,71.49,34.18,71.6Z"/><path class="cls-69" d="M34.18,71.6c0,.1,0,.19-.08.29s-.05.22-.09.33a2.36,2.36,0,0,1-.12.28c0,.12-.1.23-.16.35a4.57,4.57,0,0,1-.29.47.35.35,0,0,1,0,.08c-.12.15-.24.31-.37.46l-.07.08c-.15.16-.31.32-.48.47l-.34.28-.31.25-.4.27-.43.27c-.34.2-.7.37-1.06.54l-.32.13c-.28.12-.58.24-.88.34l-.32.11-.58.16c-.15,0-.29.09-.44.12l-.62.13-.42.09c-.42.07-.85.13-1.27.18l-.4,0-.76,0h-1.1l-.51,0-.57,0-.52,0-.56-.07-.5-.07a5.58,5.58,0,0,1-.59-.1L19.1,77l-.69-.17L18,76.68c-.41-.12-.81-.25-1.2-.4L16.25,76,16,75.91c-.28-.14-.56-.28-.82-.43-2.21-1.28-3.31-3-3.31-4.62v2.06c0,1.66,1.11,3.32,3.3,4.59.27.15.54.29.83.43l.27.12.52.22.06,0a12.1,12.1,0,0,0,1.2.41l.1,0,.29.07.69.17.19,0,.28,0,.59.1.24,0,.26,0,.56.06a2.48,2.48,0,0,0,.27,0l.25,0,.57,0h1.61c.26,0,.51,0,.76-.06a1.67,1.67,0,0,0,.31,0h.09c.43,0,.85-.1,1.27-.17h.06l.36-.08a6.21,6.21,0,0,0,.62-.14l.44-.11.58-.17.12,0,.2-.08c.3-.1.59-.21.88-.33l.32-.14A10.47,10.47,0,0,0,31,77.51l.14-.08.29-.2.4-.26.31-.25c.12-.1.24-.19.34-.29a.18.18,0,0,0,.07-.05c.15-.14.28-.27.41-.41l.07-.09a2.62,2.62,0,0,0,.22-.25l.15-.21,0-.07a4.25,4.25,0,0,0,.25-.39.59.59,0,0,0,0-.08c.06-.12.11-.24.16-.35l.1-.21a.64.64,0,0,0,0-.07,2,2,0,0,0,.09-.33,1,1,0,0,0,.07-.23.13.13,0,0,0,0-.06c0-.12,0-.24,0-.35s0-.16,0-.23a.34.34,0,0,0,0-.1V71c0,.1,0,.19,0,.29S34.2,71.49,34.18,71.6Z"/><path class="cls-75" d="M30.93,66.3c4.4,2.54,4.42,6.65.06,9.18s-11.46,2.54-15.85,0-4.41-6.64-.05-9.18S26.54,63.77,30.93,66.3Z"/><path class="cls-74" d="M30.93,66.3c4.4,2.54,4.42,6.65.06,9.18s-11.46,2.54-15.85,0-4.41-6.64-.05-9.18S26.54,63.77,30.93,66.3Z"/><path class="cls-70" d="M30.93,66.85c4.4,2.53,4.42,6.1.06,8.63s-11.46,2.54-15.85,0-4.41-6.1-.05-8.63S26.54,64.31,30.93,66.85Z"/><path class="cls-76" d="M15.09,66.85c4.36-2.54,11.45-2.54,15.84,0C33,68,34.1,69.47,34.22,70.91c.14-1.62-.95-3.26-3.29-4.61-4.39-2.53-11.48-2.53-15.84,0-2.3,1.34-3.37,3-3.23,4.57C12,69.45,13.05,68,15.09,66.85Z"/><path class="cls-77" d="M29.28,67.26c3.47,2,3.49,5.26,0,7.26a13.8,13.8,0,0,1-12.53,0c-3.47-2-3.49-5.25,0-7.26A13.83,13.83,0,0,1,29.28,67.26Z"/><path class="cls-78" d="M29,67.61c3.34,2,3.36,5.21,0,7.2a12.87,12.87,0,0,1-12,0c-3.34-2-3.36-5.21,0-7.2A12.87,12.87,0,0,1,29,67.61Z"/><path class="cls-74" d="M28.68,68.12l-1.22.71A2.59,2.59,0,0,1,28.64,70l-1.13.31a2.46,2.46,0,0,0-1.16-1.19A2.46,2.46,0,0,0,23.93,69c-.65.38-.5.83.13,1.74s.79,1.82-.32,2.46a4.9,4.9,0,0,1-4.15.08l-1.3.76-.79-.45,1.26-.74a3,3,0,0,1-1.38-1.44l1.16-.32a2.66,2.66,0,0,0,1.26,1.37,2.88,2.88,0,0,0,2.73.17c.71-.41.64-.94.08-1.71-.79-1-1-1.84.07-2.46a4.68,4.68,0,0,1,3.94-.09l1.27-.73Z"/><path class="cls-94" d="M78.84,22a1.72,1.72,0,0,0-1.6,1.77c-.08,1.71.89,9.21,2.58,10.83s1.94-1.88,1.94-1.88S81.54,21.83,78.84,22Z"/><path class="cls-95" d="M88.09,34.59a7.35,7.35,0,0,0,3.49.09c1.46-.47,1.12-.54,1-.77-.19-.48-2.07-.51-2.41-.63s.32-.34.48-.56.51-.48.41-.56-.39-.19-1,.18a10.89,10.89,0,0,1-1.93.83Z"/><path class="cls-94" d="M88.52,33a3.43,3.43,0,0,0-.19.91A2.13,2.13,0,0,0,88.54,35s-6.86.8-8.5-.21c0,0-1.44-2.69,1.15-3.16Z"/><path class="cls-96" d="M80.61,35a1,1,0,0,1-.54-.22h0c-.07-.06-.15-.11-.22-.18-1.69-1.62-2.66-9.12-2.58-10.83a2.18,2.18,0,0,1,.2-.8c.39,1.95,2.24,10.88,3,11.1s6,.32,7.91.36a2,2,0,0,0,.18.57S82.87,35.65,80.61,35Z"/><path class="cls-97" d="M86.23,55.59s-.39,1.35.56,1.69a8.44,8.44,0,0,1,2.1,1c.36.29,4.45,2,5,1.21s-.71-1.75-1-2-3.1-2.69-3.1-2.69Z"/><path class="cls-97" d="M82.92,57.94s-.38,1.35.57,1.69a8.44,8.44,0,0,1,2.1,1c.36.29,4.44,2,5,1.21s-.72-1.75-1-2-3.09-2.69-3.09-2.69Z"/><path class="cls-98" d="M79.39,36.09s10,6.29,10.3,7.89.23,11,.23,11-2.57,1.1-3.8.41l-1-8.88s-7.88-5.82-8.23-6S79.39,36.09,79.39,36.09Z"/><path class="cls-99" d="M76.85,40.52c.35.21,8.23,6,8.23,6l1,8.88a3.39,3.39,0,0,0,2.28.07c-.35-2.69-1.15-8.64-1.43-10.14-.38-2-8.46-6.62-8.46-6.62l-1.64,1.54C76.82,40.4,76.81,40.49,76.85,40.52Z"/><path class="cls-98" d="M79.4,36.33a24.74,24.74,0,0,1-1.76,4.18s8,4.24,8.42,6.29S87,57.61,87,57.61a5,5,0,0,1-4.2.31s-.9-6.73-1-9.44c0,0-12.11-3.2-11.21-9.83A8.51,8.51,0,0,0,79.4,36.33Z"/><path class="cls-99" d="M81.78,48.48c.09,2.71,1,9.44,1,9.44A5.58,5.58,0,0,0,84,58.2c-.07-1.06-.16-2.44-.26-4.26-.4-6.79-1.45-6.66-1.45-6.66C74.56,43.81,73,40.51,73,40.51L70.54,39C70.09,45.38,81.78,48.48,81.78,48.48Z"/><path class="cls-94" d="M74.23,22.62a32.71,32.71,0,0,0-3.91,2.24c-.1.3-1.09,1,.33,4.36a11.51,11.51,0,0,1,.94,7.29,22.91,22.91,0,0,1-1,3.21s1.69,2.52,6.46.77a6.92,6.92,0,0,0,3.07-2.72A24.68,24.68,0,0,1,80.23,31c.59-3.64.93-8.36-1.14-9C79.09,22,78.57,21.38,74.23,22.62Z"/><path class="cls-100" d="M80.23,31a24.68,24.68,0,0,0-.15,6.76A6.92,6.92,0,0,1,77,40.49a12.33,12.33,0,0,1-1.48.43c.19-.52.5-1.42.83-2.69a11.49,11.49,0,0,0-.94-7.29c-1.42-3.36-.43-4.07-.33-4.36A32.71,32.71,0,0,1,79,24.34c.55-.16,1-.28,1.46-.39A20.8,20.8,0,0,1,80.23,31Z"/><path class="cls-101" d="M75.58,21.45s2.77,1.46,1.53,3.56l1.31.71A3.12,3.12,0,0,0,75.58,21.45Z"/><path class="cls-95" d="M73.79,20S75,21.75,74,23c-.52.67.7,2.26,2.78,2.13,0,0,.93-.23.83-.57a2.05,2.05,0,0,1,.43-1.78C78.4,22.14,73.79,20,73.79,20Z"/><path class="cls-102" d="M74,23a.46.46,0,0,0-.11.27,3.9,3.9,0,0,1,2.27-.85l-2-2.19-.2-.09-.06.19A2.6,2.6,0,0,1,74,23Z"/><path class="cls-103" d="M77.65,24.51c-.19-1.21.09-1.19.43-1.78.09-.16-.2-.44-.65-.76a1.29,1.29,0,0,0-.34.38,3.69,3.69,0,0,0-.7,2.73,2.06,2.06,0,0,0,.43,0C77.07,25,77.71,24.89,77.65,24.51Z"/><path class="cls-95" d="M73.36,19a6.17,6.17,0,0,0,2.12,3.42c1.44.94,3.1,1.56,3.41-.15.24-1.36.91-4.82-.29-5.51-1.55-.9-2.11-2-3.9-1.34A2.9,2.9,0,0,0,73.36,19Z"/><path class="cls-104" d="M73.36,19a5.3,5.3,0,0,0,2.12,3.45,7.38,7.38,0,0,0,1.35.72,6.5,6.5,0,0,1-1.41-1.41c-.59-.68.87-.42-.13-2.15-.33-.59,1.32.17,1.69.16,2.2-.06,2-1.32,2.08-1.85a3.09,3.09,0,0,0-.18-.65l-.21-.41-.07-.1a8.07,8.07,0,0,0-.72-.79L74.21,16s-.5.64-.93,1.23A3.64,3.64,0,0,0,73.36,19Z"/><path class="cls-105" d="M74.33,21.26a4.25,4.25,0,0,1-1.17-4,2.76,2.76,0,0,1,2.43-2.14,3.24,3.24,0,0,1,3.7,2c.24.62.07,2-2.4,1.36-.36-.09-1.3-.21-1.63.09a1.27,1.27,0,0,0-.21,1.34c.14.43-.24.47-.29.38s-.52-1.29-1-.82S74.28,21.17,74.33,21.26Z"/><path class="cls-106" d="M74.33,21.26c0-.09-1-1.39-.54-1.81s.92.73,1,.82.43.05.29-.38a1.27,1.27,0,0,1,.21-1.34c.3-.28,1.12-.13,1.63-.09-.42-.26-1.24-.35-1.53-1a2.43,2.43,0,0,0-1.46-1.5,2.8,2.8,0,0,0-.74,1.35A4.25,4.25,0,0,0,74.33,21.26Z"/><path class="cls-101" d="M74.32,22.37A3.63,3.63,0,0,0,77.11,25l-.67,1.65S72.19,24.53,74.32,22.37Z"/><path class="cls-107" d="M70.32,24.86c-.1.3-1.09,1,.33,4.36a13.1,13.1,0,0,1,.76,7.26c-.35,1.56-.52,1.18-1.12,2.51-.34.76,1.26,1.93,2.85,2.07.81-1.93.59-1.92.93-4a9.28,9.28,0,0,0-2.24-8.18c-2.08-2.55-1.2-3.54-1.25-4.21C70.43,24.74,70.33,24.82,70.32,24.86Z"/><path class="cls-105" d="M79.29,17.1s.36,2.25-2.51,1.44a3.34,3.34,0,0,1-2-1.72,1.32,1.32,0,0,0-1-.81,3,3,0,0,1,2.75-1,4.78,4.78,0,0,1,2.14,1.12C78.94,16.33,78.55,17.27,79.29,17.1Z"/><g class="cls-6"><polygon class="cls-108" points="74.42 40.71 74.39 41.07 79.64 44.82 79.67 44.46 74.42 40.71"/><polygon class="cls-109" points="79.67 44.46 79.64 44.82 89.46 40.31 89.49 39.95 79.67 44.46"/><polygon class="cls-110" points="74.42 40.71 79.67 44.46 89.49 39.95 84.24 36.2 74.42 40.71"/></g><g class="cls-6"><polygon class="cls-111" points="81.25 38.23 80.86 37.87 79.22 44.44 79.61 44.8 81.25 38.23"/><polygon class="cls-112" points="91.51 33.52 91.12 33.15 80.86 37.87 81.25 38.23 91.51 33.52"/><polygon class="cls-113" points="81.25 38.23 79.61 44.8 89.88 40.08 91.51 33.52 81.25 38.23"/><polygon class="cls-114" points="81.25 38.23 81.25 38.23 89.88 40.08 91.51 33.52 81.25 38.23"/></g><path class="cls-95" d="M76.22,41.11s1.89,2.28,4.17,2.27c0,0,.11-.57-.83-1a1.78,1.78,0,0,1-1.14-1.33c0-.12.81,0,1.16,0s.85-.34,0-.55a13.73,13.73,0,0,0-3-.78S75.59,40.47,76.22,41.11Z"/><path class="cls-94" d="M71.9,24.31a3.31,3.31,0,0,0-2.68,1.61c-.75,1.54-2.86,8.8-2,10.95s9,4.74,9,4.74A2.3,2.3,0,0,1,77,39.36L70.37,35S73.54,25.35,71.9,24.31Z"/><path class="cls-100" d="M70.37,35,77,39.36a2.36,2.36,0,0,0-.37.42c-1.59-.91-6.86-4-7.3-4.77s2.47-9,2.93-10.27C73,26.9,70.37,35,70.37,35Z"/><path class="cls-115" d="M30.94,36.84,29.11,37.9a.35.35,0,0,1-.37,0l-1.85-1.06a.37.37,0,0,1,0-.64l1.83-1.07a.4.4,0,0,1,.37,0l1.85,1.07A.37.37,0,0,1,30.94,36.84Z"/><g class="cls-80"><path class="cls-115" d="M30.94,38.15l-1.83,1.06a.35.35,0,0,1-.37,0l-1.85-1.06a.38.38,0,0,1,0-.65l1.83-1.06a.35.35,0,0,1,.37,0l1.85,1.06A.38.38,0,0,1,30.94,38.15Z"/></g><g class="cls-82"><path class="cls-115" d="M30.94,39.46l-1.83,1.06a.35.35,0,0,1-.37,0l-1.85-1.06a.38.38,0,0,1,0-.65l1.83-1.06a.35.35,0,0,1,.37,0l1.85,1.06A.38.38,0,0,1,30.94,39.46Z"/></g><g class="cls-84"><path class="cls-115" d="M30.94,40.77l-1.83,1.06a.4.4,0,0,1-.37,0l-1.85-1.07a.37.37,0,0,1,0-.64l1.83-1.06a.35.35,0,0,1,.37,0l1.85,1.06A.38.38,0,0,1,30.94,40.77Z"/></g><g class="cls-86"><path class="cls-115" d="M30.94,42.07l-1.83,1.07a.4.4,0,0,1-.37,0l-1.85-1.07a.37.37,0,0,1,0-.64l1.83-1.07a.4.4,0,0,1,.37,0l1.85,1.07A.37.37,0,0,1,30.94,42.07Z"/></g><g class="cls-88"><path class="cls-115" d="M30.94,43.38l-1.83,1.06a.35.35,0,0,1-.37,0l-1.85-1.06a.38.38,0,0,1,0-.65l1.83-1.06a.4.4,0,0,1,.37,0l1.85,1.07A.37.37,0,0,1,30.94,43.38Z"/></g><g class="cls-90"><path class="cls-115" d="M30.94,44.69l-1.83,1.06a.35.35,0,0,1-.37,0l-1.85-1.06a.38.38,0,0,1,0-.65L28.72,43a.35.35,0,0,1,.37,0L30.94,44A.38.38,0,0,1,30.94,44.69Z"/></g><path class="cls-115" d="M30.94,36.84,29.11,37.9a.35.35,0,0,1-.37,0l-1.85-1.06a.37.37,0,0,1,0-.64l1.83-1.07a.4.4,0,0,1,.37,0l1.85,1.07A.37.37,0,0,1,30.94,36.84Z"/><g class="cls-61"><path d="M30.94,44.58l-1.83,1.06a.35.35,0,0,1-.37,0l-1.85-1.06a.38.38,0,0,1,0-.65l1.83-1.06a.35.35,0,0,1,.37,0l1.85,1.06A.38.38,0,0,1,30.94,44.58Z"/></g><path class="cls-73" d="M54.86,12.21l-2.19,1.27a.43.43,0,0,1-.44,0L50,12.21a.45.45,0,0,1,0-.77l2.19-1.27a.45.45,0,0,1,.45,0l2.2,1.27A.44.44,0,0,1,54.86,12.21Z"/><g class="cls-80"><path class="cls-73" d="M54.86,14.09l-2.19,1.27a.43.43,0,0,1-.44,0L50,14.09a.45.45,0,0,1,0-.77L52.21,12a.45.45,0,0,1,.45,0l2.2,1.28A.44.44,0,0,1,54.86,14.09Z"/></g><g class="cls-82"><path class="cls-73" d="M54.86,16l-2.19,1.27a.43.43,0,0,1-.44,0L50,16a.45.45,0,0,1,0-.78l2.19-1.27a.45.45,0,0,1,.45,0l2.2,1.28A.44.44,0,0,1,54.86,16Z"/></g><g class="cls-84"><path class="cls-73" d="M54.86,17.85l-2.19,1.27a.43.43,0,0,1-.44,0L50,17.84a.45.45,0,0,1,0-.77l2.19-1.27a.45.45,0,0,1,.45,0l2.2,1.27A.45.45,0,0,1,54.86,17.85Z"/></g><g class="cls-86"><path class="cls-73" d="M54.86,19.72,52.67,21a.43.43,0,0,1-.44,0L50,19.72A.45.45,0,0,1,50,19l2.19-1.27a.45.45,0,0,1,.45,0L54.86,19A.44.44,0,0,1,54.86,19.72Z"/></g><g class="cls-88"><path class="cls-73" d="M54.86,21.6l-2.19,1.27a.43.43,0,0,1-.44,0L50,21.6a.45.45,0,0,1,0-.77l2.19-1.27a.45.45,0,0,1,.45,0l2.2,1.27A.44.44,0,0,1,54.86,21.6Z"/></g><g class="cls-90"><path class="cls-73" d="M54.86,23.48l-2.19,1.27a.43.43,0,0,1-.44,0L50,23.48a.45.45,0,0,1,0-.77l2.19-1.27a.45.45,0,0,1,.45,0l2.2,1.27A.44.44,0,0,1,54.86,23.48Z"/></g><path class="cls-116" d="M96.76,1.57l-1.64,1a.32.32,0,0,1-.33,0l-1.65-1a.33.33,0,0,1,0-.57l1.63-1a.37.37,0,0,1,.34,0l1.65,1A.33.33,0,0,1,96.76,1.57Z"/><g class="cls-80"><path class="cls-116" d="M96.76,3.38l-1.64,1a.33.33,0,0,1-.33,0l-1.65-1a.34.34,0,0,1,0-.58l1.63-.95a.34.34,0,0,1,.34,0l1.65.95A.34.34,0,0,1,96.76,3.38Z"/></g><g class="cls-82"><path class="cls-116" d="M96.76,5.18l-1.64,1a.33.33,0,0,1-.33,0l-1.65-1a.34.34,0,0,1,0-.58l1.63-.95a.34.34,0,0,1,.34,0l1.65.95A.34.34,0,0,1,96.76,5.18Z"/></g><g class="cls-84"><path class="cls-116" d="M96.76,7l-1.64.95a.33.33,0,0,1-.33,0L93.14,7a.34.34,0,0,1,0-.58l1.63-1a.34.34,0,0,1,.34,0l1.65,1A.34.34,0,0,1,96.76,7Z"/></g><g class="cls-86"><path class="cls-116" d="M96.76,8.78l-1.64,1a.33.33,0,0,1-.33,0l-1.65-1a.34.34,0,0,1,0-.58l1.63-.95a.34.34,0,0,1,.34,0l1.65,1A.33.33,0,0,1,96.76,8.78Z"/></g><g class="cls-88"><path class="cls-116" d="M96.76,10.58l-1.64,1a.32.32,0,0,1-.33,0l-1.65-1a.33.33,0,0,1,0-.57l1.63-1a.34.34,0,0,1,.34,0l1.65,1A.33.33,0,0,1,96.76,10.58Z"/></g><g class="cls-90"><path class="cls-116" d="M96.76,12.39l-1.64.95a.32.32,0,0,1-.33,0l-1.65-1a.33.33,0,0,1,0-.57l1.63-1a.37.37,0,0,1,.34,0l1.65,1A.34.34,0,0,1,96.76,12.39Z"/></g><g class="cls-61"><path d="M96.76,12.38l-1.64.95a.33.33,0,0,1-.33,0l-1.65-.95a.34.34,0,0,1,0-.58l1.63-1a.34.34,0,0,1,.34,0l1.65,1A.34.34,0,0,1,96.76,12.38Z"/></g><path class="cls-117" d="M96.76,1.57l-1.64,1a.32.32,0,0,1-.33,0l-1.65-1a.33.33,0,0,1,0-.57l1.63-1a.37.37,0,0,1,.34,0l1.65,1A.33.33,0,0,1,96.76,1.57Z"/></g></g></svg>