<svg xmlns="http://www.w3.org/2000/svg" xmlns:xlink="http://www.w3.org/1999/xlink" viewBox="0 0 129.36 92.79"><defs><style>.cls-1{fill:none;}.cls-2{isolation:isolate;}.cls-3{opacity:0.1;}.cls-4{fill:#92afff;}.cls-5{fill:#6198d8;}.cls-6{fill:#def4ff;}.cls-7{fill:#74afe8;}.cls-8{fill:#fafaff;}.cls-9{clip-path:url(#clip-path);}.cls-10{fill:#b8387b;}.cls-11{fill:#a126b2;}.cls-12{fill:#5f950d;}.cls-13{fill:#9abd1d;}.cls-14{fill:#ffda00;}.cls-15{fill:#ffbc00;}.cls-16{fill:#d32075;}.cls-17{fill:#ff7fb7;}.cls-18{fill:#efb185;}.cls-19{fill:#e62b7c;}.cls-20{fill:#171716;}.cls-21{fill:#123f5d;mix-blend-mode:multiply;}.cls-21,.cls-50{opacity:0.3;}.cls-22{fill:#404063;}.cls-23{fill:#52517b;}.cls-24{fill:#b4b9bc;}.cls-25{fill:#7d8183;}.cls-26{fill:#e3e5e5;}.cls-27{fill:#bdbbbb;}.cls-28{fill:#d2d0d0;}.cls-29{fill:#d5dfe6;}.cls-30{fill:#e9f0f4;}.cls-31{fill:#d32276;}.cls-32{fill:#301806;}.cls-33{fill:#e8a476;}.cls-34{fill:#db9669;}.cls-35{fill:#f1b287;}.cls-36{fill:#231202;}.cls-37{fill:#ffebc4;}.cls-37,.cls-51{opacity:0.6;}.cls-38{opacity:0.83;}.cls-39{fill:#ffeece;}.cls-39,.cls-40{opacity:0.67;}.cls-41{fill:#fff2d8;opacity:0.73;}.cls-42{opacity:0.5;}.cls-43{fill:#fff5e2;opacity:0.8;}.cls-44{opacity:0.33;}.cls-45{fill:#fff8eb;opacity:0.87;}.cls-46{opacity:0.17;}.cls-47{fill:#fffcf5;opacity:0.93;}.cls-48{opacity:0;}.cls-49,.cls-51{fill:#fff;}.cls-52{fill:#ffd859;}.cls-53{fill:#ff9e03;}.cls-54{fill:#f2b42b;}.cls-55{fill:#ffed94;}.cls-56{fill:#de821f;}.cls-57{fill:#ffb101;}.cls-58{fill:#96a76d;}.cls-59{fill:#5a7b40;}.cls-60{fill:#68744c;}.cls-61{fill:#3f552d;}.cls-62{clip-path:url(#clip-path-2);}.cls-63{fill:#8c9c66;}.cls-64{fill:#889763;}.cls-65{fill:#849360;}.cls-66{fill:#808f5d;}.cls-67{fill:#7c8a5a;}.cls-68{fill:#788657;}.cls-69{fill:#748255;}.cls-70{fill:#717d52;}.cls-71{fill:#6d794f;}.cls-72{fill:#69754c;}.cls-73{fill:#657049;}.cls-74{clip-path:url(#clip-path-3);}.cls-75{fill:#3d532b;}.cls-76{clip-path:url(#clip-path-4);}.cls-77{fill:#3f562d;}.cls-78{fill:#42592e;}.cls-79{fill:#445c30;}.cls-80{fill:#465f32;}.cls-81{fill:#496333;}.cls-82{fill:#4b6635;}.cls-83{fill:#4d6937;}.cls-84{fill:#506c38;}.cls-85{fill:#526f3a;}.cls-86{fill:#54723c;}.cls-87{clip-path:url(#clip-path-5);}.cls-88{clip-path:url(#clip-path-6);}.cls-89{clip-path:url(#clip-path-7);}.cls-90{clip-path:url(#clip-path-8);}.cls-91{clip-path:url(#clip-path-9);}.cls-92{fill:#59793f;}.cls-93{clip-path:url(#clip-path-10);}.cls-94{clip-path:url(#clip-path-11);}.cls-95{clip-path:url(#clip-path-12);}.cls-96{clip-path:url(#clip-path-13);}.cls-97{clip-path:url(#clip-path-14);}.cls-98{clip-path:url(#clip-path-15);}.cls-99{clip-path:url(#clip-path-16);}.cls-100{clip-path:url(#clip-path-17);}.cls-101{clip-path:url(#clip-path-18);}.cls-102{clip-path:url(#clip-path-19);}.cls-103{clip-path:url(#clip-path-20);}.cls-104{fill:#7ebf5e;}.cls-105{clip-path:url(#clip-path-21);}.cls-106{fill:#f0e7bf;}.cls-107{fill:#a7ba7a;}.cls-108{fill:#efe8bc;}.cls-109{fill:#658948;}.cls-110{fill:#908b6f;}.cls-111{fill:#cac29c;}.cls-112{fill:#d2a458;}.cls-113{fill:#fed274;}.cls-114{fill:#f7cf8f;}.cls-115{fill:#ffdfa6;}.cls-116{fill:#fdcde7;}.cls-117{fill:#a1f7f6;}.cls-118{fill:#a2f8f7;}.cls-119{fill:#ffdf75;}.cls-120{fill:#f5e981;}</style><clipPath id="clip-path"><path class="cls-1" d="M82.56,48.7c0-.38,0-.75,0-1.13h0C82.56,48,82.56,48.32,82.56,48.7Z"/></clipPath><clipPath id="clip-path-2"><path class="cls-1" d="M13.88,71.92v4.8a5.52,5.52,0,0,1-5-.11V71.8A5.52,5.52,0,0,0,13.88,71.92Z"/></clipPath><clipPath id="clip-path-3"><path class="cls-1" d="M7.34,74.93l0,4.8a1.93,1.93,0,0,0-1.14-1.56v-4.8A1.92,1.92,0,0,1,7.34,74.93Z"/></clipPath><clipPath id="clip-path-4"><path class="cls-1" d="M20.31,81a7.27,7.27,0,0,0-6.58,0c0-1.6,0-3.2,0-4.8a7.21,7.21,0,0,1,6.58,0C20.32,77.83,20.32,79.43,20.31,81Z"/></clipPath><clipPath id="clip-path-5"><path class="cls-1" d="M7.34,74.93l0,4.8A1.57,1.57,0,0,1,6.47,81l0-4.81A1.6,1.6,0,0,0,7.34,74.93Z"/></clipPath><clipPath id="clip-path-6"><path class="cls-1" d="M18.8,81.72a2.14,2.14,0,0,0-1.84,0c0-1.61,0-3.21,0-4.81a2.18,2.18,0,0,1,1.84,0C18.81,78.35,18.8,80.28,18.8,81.72Z"/></clipPath><clipPath id="clip-path-7"><path class="cls-1" d="M17,81.76a.55.55,0,0,0-.35.48V77.43A.55.55,0,0,1,17,77C17,78.55,17,80.15,17,81.76Z"/></clipPath><clipPath id="clip-path-8"><path class="cls-1" d="M19.75,77.68v4.81a1.28,1.28,0,0,0-.55-.57v-4.8A1.17,1.17,0,0,1,19.75,77.68Z"/></clipPath><clipPath id="clip-path-9"><path class="cls-1" d="M17.34,82.29V77.48a.35.35,0,0,1,.2-.27,1.17,1.17,0,0,1,1.14.06,1.19,1.19,0,0,1,.54.56v4.8a1.28,1.28,0,0,0-.55-.55A1.18,1.18,0,0,0,17.54,82,.32.32,0,0,0,17.34,82.29Z"/></clipPath><clipPath id="clip-path-10"><path class="cls-1" d="M17.6,82.83a1.1,1.1,0,0,1-.26-.54V77.48a1.12,1.12,0,0,0,.26.54C17.61,79.46,17.6,81.39,17.6,82.83Z"/></clipPath><clipPath id="clip-path-11"><path class="cls-1" d="M13.73,81a2.32,2.32,0,0,0-1.35,1.89v-4.8a2.31,2.31,0,0,1,1.35-1.89C13.74,77.83,13.73,79.43,13.73,81Z"/></clipPath><clipPath id="clip-path-12"><path class="cls-1" d="M21.68,83A2.31,2.31,0,0,0,20.31,81c0-1.6,0-3.2,0-4.8a2.33,2.33,0,0,1,1.38,1.92C21.69,79.59,21.69,81.51,21.68,83Z"/></clipPath><clipPath id="clip-path-13"><path class="cls-1" d="M17.14,78.56l0,4.81a.85.85,0,0,0-.2-.46,1.21,1.21,0,0,1-.31-.67V77.43a1.26,1.26,0,0,0,.31.68A.82.82,0,0,1,17.14,78.56Z"/></clipPath><clipPath id="clip-path-14"><path class="cls-1" d="M17.6,82.83a.88.88,0,0,1,0-.28V80.43c0-.81,0-1.61,0-2.41a1.08,1.08,0,0,1,.26.6l0,4.81A1.1,1.1,0,0,0,17.6,82.83Z"/></clipPath><clipPath id="clip-path-15"><path class="cls-1" d="M17.12,83.37a.39.39,0,0,1-.24.34c0-1.6,0-3.21,0-4.81a.39.39,0,0,0,.24-.34C17.13,80,17.13,81.93,17.12,83.37Z"/></clipPath><clipPath id="clip-path-16"><path class="cls-1" d="M15.6,83.63A1.22,1.22,0,0,1,15,83v-4.8a1.24,1.24,0,0,0,.59.63,1.34,1.34,0,0,0,1.28.08c0,1.6,0,3.21,0,4.81A1.34,1.34,0,0,1,15.6,83.63Z"/></clipPath><clipPath id="clip-path-17"><path class="cls-1" d="M17.87,78.62l0,4.81c0,.21-.12.38-.4.55a2.28,2.28,0,0,1-1.94,0V79.21a2.28,2.28,0,0,0,1.94,0C17.74,79,17.87,78.83,17.87,78.62Z"/></clipPath><clipPath id="clip-path-18"><path class="cls-1" d="M21.7,78.15l0,4.8a2.29,2.29,0,0,1-1.35,1.89,7.21,7.21,0,0,1-6.58,0,2.34,2.34,0,0,1-1.37-1.92v-4.8A2.34,2.34,0,0,0,13.77,80a7.27,7.27,0,0,0,6.58,0A2.32,2.32,0,0,0,21.7,78.15Z"/></clipPath><clipPath id="clip-path-19"><path class="cls-1" d="M27.05,86.21V81.4A1.6,1.6,0,0,1,28,80.07v4.8A1.6,1.6,0,0,0,27.05,86.21Z"/></clipPath><clipPath id="clip-path-20"><path class="cls-1" d="M27.05,86.21V81.4a1.75,1.75,0,0,0,.84,1.36l0,4.81A1.77,1.77,0,0,1,27.05,86.21Z"/></clipPath><clipPath id="clip-path-21"><path class="cls-1" d="M25.17,84.34v4.81a5.57,5.57,0,0,0-4.56,0V84.36A5.65,5.65,0,0,1,25.17,84.34Z"/></clipPath></defs><title>Zasób 7</title><g class="cls-2"><g id="Warstwa_2" data-name="Warstwa 2"><g id="Layer_1" data-name="Layer 1"><g class="cls-3"><path d="M114.06,46.65c1.59.91,1.6,2.39,0,3.31L111,51.79,53,85.71l-4.83,2.83a6.28,6.28,0,0,1-5.71,0L8.58,69.13c-1.58-.91-1.6-2.38,0-3.3L74.48,27.25a6.28,6.28,0,0,1,5.71,0Z"/></g><path class="cls-4" d="M108.7,42.47a1.13,1.13,0,0,1-.06.36v0a1.73,1.73,0,0,1-.17.33.21.21,0,0,0,0,.06,2,2,0,0,1-.28.31l-.25.19-.22.15-2.75,1.6v4.62l2.74-1.59,0,0,.17-.13a1.64,1.64,0,0,0,.25-.19l0,0a2.39,2.39,0,0,0,.22-.23l0-.06,0-.05.07-.1.1-.2s0,0,0,0a0,0,0,0,1,0,0,.7.7,0,0,0,0-.14,1.2,1.2,0,0,0,0-.2v0h0c0-1.34,0-2.69,0-4v-.59Z"/><path class="cls-5" d="M15,60.46A1.78,1.78,0,0,1,14,59v4.63a1.75,1.75,0,0,0,1,1.46L44.68,82.22V77.6Z"/><path class="cls-4" d="M49.7,77.6a3.69,3.69,0,0,1-.7.3l-.27.09-.35.08-.43.08h-.1a4,4,0,0,1-.6,0h-.09a3.81,3.81,0,0,1-.59,0h-.09l-.57-.09-.1,0a4.13,4.13,0,0,1-.5-.15l-.08,0a3.32,3.32,0,0,1-.54-.25v4.62c.16.09.33.17.51.25h0l.08,0,.32.11.18,0,.1,0,.09,0,.35.06h.35l.34,0h.36c.14,0,.27,0,.4,0h0l.11,0,.3,0,.13,0,.35-.09.19,0,.08,0a4.94,4.94,0,0,0,.7-.31l4.25-2.47V75.13Z"/><path class="cls-6" d="M107.66,41c1.38.8,1.39,2.1,0,2.9l-2.75,1.6L54,75.13,49.7,77.6a5.53,5.53,0,0,1-5,0L15,60.46c-1.39-.8-1.39-2.09,0-2.9L73,23.88a5.52,5.52,0,0,1,5,0Z"/><polygon class="cls-7" points="104.92 45.51 53.95 75.13 19.25 55.09 70.22 25.47 104.92 45.51"/><path class="cls-8" d="M96.12,36.87c.38.21.38.65-.16.93a1.33,1.33,0,0,1-1.23.14L83.94,31.81c-.37-.21.11-.72.48-.93a1.45,1.45,0,0,1,1.33,0Z"/><path class="cls-7" d="M95.8,37.14c.37.22.37.57,0,.78a1.53,1.53,0,0,1-1.35,0l-10.37-6a.41.41,0,0,1,0-.77,1.44,1.44,0,0,1,1.34,0Z"/><polygon class="cls-5" points="104.92 45.51 104.91 50.13 53.94 79.75 53.95 75.13 104.92 45.51"/><g class="cls-2"><g class="cls-9"><g class="cls-2"><path class="cls-10" d="M82.92,47.42v1.27a2.21,2.21,0,0,0-.35.16h0V47.59l0,0a1.6,1.6,0,0,1,.35-.15Z"/></g></g></g><polygon class="cls-11" points="27.74 29.86 27.7 45.89 21.17 49.68 21.21 33.66 27.74 29.86"/><polygon class="cls-11" points="19.17 39.31 19.14 50.76 12.61 54.55 12.64 43.11 19.17 39.31"/><polygon class="cls-11" points="44.24 19.9 44.2 35.92 37.66 39.72 37.71 23.69 44.24 19.9"/><polygon class="cls-11" points="35.67 29.35 35.63 40.79 29.1 44.59 29.14 33.14 35.67 29.35"/><polygon class="cls-11" points="62.19 9.96 62.15 25.99 55.61 29.79 55.66 13.76 62.19 9.96"/><polygon class="cls-11" points="53.62 19.41 53.59 30.86 47.05 34.66 47.09 23.21 53.62 19.41"/><polygon class="cls-11" points="78.69 0 78.64 16.03 72.11 19.82 72.16 3.8 78.69 0"/><polygon class="cls-11" points="70.11 9.45 70.08 20.9 63.55 24.69 63.58 13.25 70.11 9.45"/><path class="cls-12" d="M78.19,32.27l.64-.29a10,10,0,0,1,1-.36l.43-.1.29-.06a3.29,3.29,0,0,1,.6-.06h.1a3.1,3.1,0,0,1,.44,0h.09a2.58,2.58,0,0,1,.42.1l.07,0a3,3,0,0,1,.36.16l-1-.55,0,0L81.45,31l-.11,0-.07,0-.07,0a1.36,1.36,0,0,0-.29-.06h-.14l-.19,0a2.09,2.09,0,0,0-.25,0,.41.41,0,0,0-.11,0h0l-.52.06h0l-.28.06A2.57,2.57,0,0,0,79,31l-.06,0a10.87,10.87,0,0,0-1,.36l0,0-.59.27-.31.14c-.34.17-.7.36-1.09.58l-.73.45-.8.48c-.48.28-1,.52-1.4.74-.13.06-.27.11-.39.18l-.81.33a9,9,0,0,1-1,.34l-.53.17-.49.1c-.24.05-.48.1-.72.13l-.34,0a6.54,6.54,0,0,1-.76,0h-.23a6.38,6.38,0,0,1-.89-.1l-.17,0c-.23-.05-.46-.12-.68-.19L65.71,35a4.82,4.82,0,0,1-.76-.36l1,.56.07,0a5.18,5.18,0,0,0,.58.28l.11,0,.19.07.3.1c.12,0,.26.06.38.09l.17,0,.09,0a5,5,0,0,0,.69.08h.34c.14,0,.29,0,.44,0l.31,0,.36,0,.23,0c.15,0,.31-.07.46-.1l.51-.11.17,0,.35-.12c.32-.1.66-.21,1-.34l.26-.09.54-.25.4-.18c.45-.22.92-.46,1.4-.74l.8-.48.73-.44c.39-.23.75-.42,1.09-.58Z"/><path class="cls-12" d="M57.2,19.27l0,0-.27-.13L56.64,19l-.1,0,0,0-.1,0-.26,0a1.13,1.13,0,0,0-.26,0h-.1l-.18,0a2.29,2.29,0,0,0-.34.07l-.14.05-.13,0-.18.06a4.63,4.63,0,0,0-.54.28,6.49,6.49,0,0,0-.83.57l-.13.1c-.26.22-.54.47-.82.74l-.08.06-.09.1c-.28.29-.58.6-.88.95l0,0-.08.09c-.33.38-.67.79-1,1.23h0c-.21.26-.42.54-.63.83-.5.68-1,1.33-1.41,2l-.15.21c-.08.1-.14.2-.21.3l-.51.74L47,28l-.45.67-.4.6c-.14.2-.27.41-.4.61l-.36.56-.4.62-.32.49-.6.93-.2.32-.41.63-.21.31c-.12.19-.23.37-.35.54l-.18.26-.36.53-.57.78-.2.25c-.09.12-.19.24-.29.35a2.2,2.2,0,0,1-.2.23c-.09.11-.19.21-.28.3l-.2.2-.36.32-.17.14a5.77,5.77,0,0,1-.54.37,5,5,0,0,1-.52.26l-.13,0a2.8,2.8,0,0,1-.41.13l-.16,0-.39.07-.22,0h-.66l-.32,0a4.7,4.7,0,0,1-.51-.06l-.28,0a11.34,11.34,0,0,1-1.23-.29c-.26-.07-.54-.15-.82-.25L34,61.81l1,.57-.07-23.93.77.24h.05a12.11,12.11,0,0,0,1.23.3L37,39a.44.44,0,0,0,.16,0l.51.07.19,0h.79l.21,0H39l.25-.05a.76.76,0,0,1,.16,0l.06,0c.12,0,.23-.08.35-.12l.13,0h0a3.89,3.89,0,0,0,.5-.25q.27-.16.54-.36l.17-.15.36-.31a.6.6,0,0,0,.08-.08.86.86,0,0,0,.13-.14l.26-.27.12-.13.1-.13.27-.32.13-.17a.44.44,0,0,0,.08-.11c.19-.24.37-.49.57-.77,0,0,0,0,0,0l.29-.43.23-.33c.11-.17.24-.36.35-.54s.14-.2.2-.3l.46-.71c0-.07.09-.14.14-.21L45.68,32l.15-.22.55-.86c.08-.12.16-.25.25-.37s.34-.53.52-.8l.3-.45c.18-.26.35-.53.54-.8l.34-.5.58-.85.3-.42c.45-.65.93-1.31,1.44-2,.21-.29.42-.57.63-.83.34-.44.67-.84,1-1.22l.14-.16c.3-.34.59-.65.88-.94l.16-.16c.28-.27.55-.52.82-.74l.13-.1a7.72,7.72,0,0,1,.83-.57A3.84,3.84,0,0,1,56,19.7l.12-.05a3.34,3.34,0,0,1,.67-.14h0a2.21,2.21,0,0,1,.68,0h0a2.14,2.14,0,0,1,.65.27Z"/><path class="cls-13" d="M55.23,20c3-1.75,5.25.7,7,9.07,1.06,5.14,4.66,9.66,13.05,4.82l.8-.48.73-.44c7.06-4.08,7.08.86,7.08,1.12L34.92,62.38l-.07-23.93c2.62.87,4.26.93,5.66.12,2.6-1.5,4.37-6,10.14-13.82A17.31,17.31,0,0,1,55.23,20Z"/><polygon class="cls-14" points="40.07 64.88 39.11 64.32 39.04 40.51 40.01 41.07 40.07 64.88"/><path class="cls-14" d="M86.86,34.75l0,0-.27-.13-.07,0-.11,0-.13,0L86,34.44l-.11,0,0,0-.5,0h-.73l-.51,0-.32,0h-.09l-.19,0c-.23,0-.49.09-.75.16l-.25.06-.18,0-.61.19-.38.11c-.41.14-.84.29-1.3.47l-1.35.53-2.38,1-.14.05-.88.34-.37.14-.57.22-.4.15-.47.17-.39.13-.42.14-.38.11-.39.11-.1,0c-.48.12-.94.23-1.39.3l-.14,0c-.33,0-.65.08-1,.09h-.1a8.87,8.87,0,0,1-1,0H68c-.44,0-.91-.09-1.4-.17-.12,0-.24,0-.37-.06q-.5-.1-1-.24L65,38.47c-.28-.09-.55-.17-.82-.27l-.06,0-.89-.34-.78-.3-.16-.06c-.27-.1-.53-.19-.8-.27l-.09,0-.11,0L60.64,37l-.12,0h-.06A3.86,3.86,0,0,0,60,36.9l-.19,0h-.72l-.33,0-.37,0h0c-.21,0-.43.08-.65.13l-.16,0h0a8.49,8.49,0,0,0-1,.35l-.11,0a3.89,3.89,0,0,0-.42.19l-.28.13c-.3.15-.61.31-.93.49-.5.29-1,.63-1.6,1-.33.22-.64.42-.94.6a8.76,8.76,0,0,1-1,.5,7.4,7.4,0,0,1-.86.3l-.16,0a5.12,5.12,0,0,1-.63.1h-.14a3.61,3.61,0,0,1-.66,0h-.17a3.4,3.4,0,0,1-.46-.09l-.24,0-.3-.09L47,40.47l-.24-.1q-.39-.16-.78-.36l-.75-.34-.12-.05-.13,0-.51-.19-.18-.06-.15,0-.25-.06-.18,0-.31,0-.14,0H43.2a4.13,4.13,0,0,0-.5,0h-.11l-.17,0-.25,0-.4.09-.15,0h0a5.68,5.68,0,0,0-.82.28h0a10.46,10.46,0,0,0-1.06.53l-.63.39,1,.56.62-.39a10.56,10.56,0,0,1,1.07-.53,5.83,5.83,0,0,1,.89-.3l.14,0a5.89,5.89,0,0,1,.65-.11l.17,0h.68l.14,0a4,4,0,0,1,.5.08l.25.06.32.1a4.56,4.56,0,0,1,.52.18l.24.1.75.34.77.35.15.07L48,41l.51.18a.62.62,0,0,0,.19.07l.12,0,.23,0,.22.06.24,0h.17l.09,0a4,4,0,0,0,.49,0h.22l.29,0,.34-.07.16,0h.08a7.27,7.27,0,0,0,.78-.27h0q.48-.21,1-.51c.3-.18.61-.38.94-.61.57-.4,1.1-.74,1.61-1l.92-.49.26-.12.56-.24a9.13,9.13,0,0,1,1-.36l.2,0c.21,0,.42-.1.62-.13l.42,0,.32,0h.7l.21,0,.5,0,.18.05c.23,0,.46.09.68.15l.21.06.79.26.19.08.71.27.94.36h0L66,39l.13,0,.09,0c.31.09.63.17,1,.24l.28.05h.08a12.66,12.66,0,0,0,1.41.18h.18c.35,0,.7,0,1,0h.07c.33,0,.66,0,1-.09h.15c.45-.08.9-.17,1.38-.3h.06l0,0,.35-.1.42-.13.35-.11.46-.16.34-.12.54-.19.32-.13.63-.24.31-.12.71-.28.11,0L81,36.08c.46-.18.89-.33,1.3-.47l.38-.11c.27-.09.54-.17.79-.23l.25-.06c.27-.07.53-.12.78-.17l.16,0,.44,0,.48-.05h.7a4.93,4.93,0,0,1,.58.06l.1,0,.38.1.1,0a2.09,2.09,0,0,1,.37.17Z"/><path class="cls-15" d="M40.63,40.68c2.94-1.7,4.64-.9,6.32-.11s3.34,1.6,6.19,0c.3-.18.61-.38.94-.61.57-.4,1.1-.74,1.61-1,5.51-3.18,7.49-.32,11.5.44,4.37.82,6.31-.29,13.82-3.25s7.76.5,7.77.68L40.07,64.88,40,41.07Z"/><path class="cls-16" d="M74.76,49l.42-.19a7.21,7.21,0,0,1,.69-.24l.29-.07.19,0a2.87,2.87,0,0,1,.39,0h.07l.29,0h.06l.28.07,0,0,.23.1-.64-.37h0l-.15-.07-.07,0h0l0,0-.19,0h-.1l-.12,0h-.27l-.34,0h0l-.19,0-.25.06h0a7.21,7.21,0,0,0-.69.24h0l-.38.18-.21.09-.72.39-.48.29-.53.32c-.32.19-.63.34-.93.49l-.26.12c-.18.08-.36.16-.53.22l-.66.23-.35.11-.33.06-.47.09-.23,0a4.26,4.26,0,0,1-.5,0h-.15a3.66,3.66,0,0,1-.59-.07l-.11,0-.45-.13-.13,0a3.22,3.22,0,0,1-.5-.23l.64.37.05,0c.12.07.25.13.38.19l.07,0,.13,0,.2.07.25.06.11,0,.06,0,.46,0h.51l.21,0,.24,0h.15l.3-.07.34-.07.11,0,.24-.08c.21-.06.43-.14.66-.23l.17-.06a2.72,2.72,0,0,0,.35-.16l.27-.12c.3-.15.61-.3.93-.49s.35-.2.53-.32l.48-.29.72-.39Z"/><path class="cls-16" d="M60.86,40.36l0,0-.18-.08a.49.49,0,0,0-.17-.06l-.06,0h0l-.07,0H59.8l-.23.05-.09,0-.09,0-.11,0a3,3,0,0,0-.36.18c-.18.11-.36.24-.55.38l-.08.07a6.06,6.06,0,0,0-.55.49l-.05,0-.06.07-.59.62,0,0-.05.06c-.22.25-.44.52-.67.82h0l-.42.55c-.33.45-.63.88-.93,1.3l-.1.14-.13.19-.35.5-.27.4c-.1.15-.2.29-.29.44l-.27.39-.26.41-.24.37-.27.41-.21.33-.4.61a2.39,2.39,0,0,1-.13.21l-.27.42-.14.21c-.07.11-.15.24-.23.35l-.12.17-.24.35c-.13.19-.25.36-.38.52l-.12.16-.2.24-.13.15a1.8,1.8,0,0,1-.19.2.8.8,0,0,1-.13.13l-.24.21-.11.1-.36.24a3.59,3.59,0,0,1-.34.17l-.09,0-.27.08-.11,0-.25,0h-.59l-.21,0-.33,0-.19,0c-.25,0-.52-.11-.81-.19l-.55-.17,0,15.84.65.37,0-15.84.51.16h0a7.33,7.33,0,0,0,.82.19l.08,0,.11,0,.34,0h.65l.14,0h.09l.17,0,.1,0h0l.23-.08.09,0h0a1.71,1.71,0,0,0,.33-.17,2.82,2.82,0,0,0,.36-.24l.12-.1.23-.2.06-.06.08-.08a1.54,1.54,0,0,0,.17-.19l.08-.08.07-.09.18-.21.09-.11,0-.08c.12-.15.25-.32.37-.5l0,0,.19-.28.15-.22.24-.36.13-.2c.1-.14.2-.3.3-.46l.09-.15c.15-.22.3-.45.45-.7l.1-.14.36-.57.17-.25.34-.52.2-.3c.12-.17.23-.35.36-.53s.14-.22.22-.33.25-.37.39-.56.13-.19.2-.29c.29-.42.61-.86,1-1.32l.41-.55c.23-.29.45-.55.66-.8l.09-.11c.2-.23.39-.43.58-.62l.11-.11c.18-.18.37-.34.55-.49l.08-.07a5.3,5.3,0,0,1,.55-.37,2.05,2.05,0,0,1,.48-.22l.08,0a2.33,2.33,0,0,1,.44-.1h0a1.71,1.71,0,0,1,.45,0h0a1.58,1.58,0,0,1,.43.18Z"/><path class="cls-17" d="M59.56,40.86c2-1.16,3.48.46,4.62,6,.7,3.4,3.09,6.4,8.64,3.19.17-.1.35-.2.53-.32l.48-.29c4.68-2.7,4.69.57,4.69.74L46.12,68.89l0-15.84c1.74.58,2.82.62,3.74.08,1.72-1,2.9-4,6.72-9.15A11.39,11.39,0,0,1,59.56,40.86Z"/><path class="cls-18" d="M94.29,40a3.51,3.51,0,0,1,2.15,0c.75.41,1.28.51,1.68,1s.14.8-.35.84a5.56,5.56,0,0,1-2.18-.44,1.84,1.84,0,0,0-1.18-.22A.67.67,0,0,1,94.29,40Z"/><path class="cls-19" d="M85.34,30.15c.69-.17,1.92.06,2.32,1.86s1.43,6.84,1.43,6.84,5.21.75,5.81.92a1.13,1.13,0,0,0-.42,1.49s-5.61.84-6.93-.31S82.52,30.84,85.34,30.15Z"/><path class="cls-20" d="M96.89,61.08c.2,0,.25-.23.57-.37.07.37.48.84.56,1.2l.09.1c1.25,1.41,4.41,2.58,4.07,3.64-.24.75-2.14,1.33-3.16.82a2.26,2.26,0,0,1-.67-.6,1.76,1.76,0,0,0-1.29-.76,1.58,1.58,0,0,1-.82-.41c-1.07-1.27-.17-2-.59-3.28Z"/><path class="cls-21" d="M93.25,52.76v-.1C93.28,53.82,93.26,53,93.25,52.76Z"/><path class="cls-21" d="M93.25,52.76v0Z"/><path class="cls-20" d="M90.1,63.08c.16-.88.38-1.79.62-2.71L88,59.89c.08.62.16,1.22.22,1.79-.1,1.39-1.19,1.62-.73,3.15a1.55,1.55,0,0,0,.56.67,1.62,1.62,0,0,1,.83,1.14,2.09,2.09,0,0,0,.36.77c.69.83,2.55,1,3,.47.7-.79-1.61-3-2.16-4.68A.42.42,0,0,1,90.1,63.08Z"/><path class="cls-22" d="M91.87,52.47a9.24,9.24,0,0,0-.23-5.16c-.76-2.14-4.87-4.58-4.91-4.58s-4,1.15-3.83,1.82c.1.38,5,6.88,5.06,7.16a1.79,1.79,0,0,1,0,1.27c-.71,2-1.1,8-.59,9.81a2,2,0,0,0,3,.78c.07-.11,1.42-9.73,1.58-11.1C91.86,52.46,91.71,53.84,91.87,52.47Z"/><path class="cls-22" d="M86.3,42.52s4.58,2.65,5.34,4.79a6.1,6.1,0,0,1,.08,4.49h0A11,11,0,0,1,91.55,55c-1.22-1.29-.77-4.66-2.88-3.77-.37.06-1.16,7.28-.94,10.17a10.08,10.08,0,0,0,.43,2.2c-.31-.07-.6-.22-.83-.85-.2-1.5-.47-6.51.59-9.81a1.91,1.91,0,0,0,0-1.27c-.07-.28-5-6.78-5.06-7.16C82.7,43.88,86.25,42.52,86.3,42.52Z"/><path class="cls-23" d="M83.19,51c3.69.79,7,1.16,7,1.16,0,4.43,4.81,9.72,5.35,10.45a5.46,5.46,0,0,0,2.29-1.14c-.58-2.14-3.66-10.79-5-12.4-.85-1-9.93-3.94-9.8-4.39a9.79,9.79,0,0,0-2.22-1.11C79,43,76.67,49.55,83.19,51Z"/><g class="cls-2"><polygon class="cls-24" points="84.97 46.2 84.95 46.5 89.23 49.55 89.26 49.26 84.97 46.2"/><polygon class="cls-25" points="89.26 49.26 89.23 49.55 97.24 45.87 97.27 45.58 89.26 49.26"/><polygon class="cls-26" points="84.97 46.2 89.26 49.26 97.27 45.58 92.98 42.52 84.97 46.2"/></g><g class="cls-2"><polygon class="cls-27" points="90.54 44.18 90.23 43.88 88.89 49.24 89.21 49.54 90.54 44.18"/><polygon class="cls-28" points="98.91 40.34 98.59 40.04 90.23 43.88 90.54 44.18 98.91 40.34"/><polygon class="cls-29" points="90.54 44.18 89.21 49.54 97.58 45.69 98.91 40.34 90.54 44.18"/><polygon class="cls-30" points="90.54 44.18 90.54 44.18 97.58 45.69 98.91 40.34 90.54 44.18"/></g><path class="cls-31" d="M78.24,33.53s1.68-2.72,8.06-3.45c0,0,1-.39.84,2.9a3.67,3.67,0,0,0,.76,1.74c.32.44,1.16,2.11-.84,4,0,0-.83,2.91,0,4.83.75,1.72-3.49,3.25-7,2.8-.43-.05-1.4-.37-1-1.88s1.41-4.17.78-7S77.72,35,78.24,33.53Z"/><path class="cls-32" d="M85.31,25s-.51,3.27-.8,6.4a1.05,1.05,0,0,0,1.26,1.07s2.49-3.65.69-7.39a3.53,3.53,0,0,0-5.22-1.25Z"/><path class="cls-33" d="M85.86,29.28A3.06,3.06,0,0,0,85.17,32c.13.4.44,2-2,1.28,0,0-2.5-1.36-1.71-2.11.52-.49,1-1.22.38-3.87Z"/><path class="cls-34" d="M81.47,31.19a.46.46,0,0,0-.14.25,4.58,4.58,0,0,0,4-1.05l-2.95-2.78h0l-.39.27C82.43,30.08,82,30.73,81.47,31.19Z"/><path class="cls-35" d="M85.61,24.6s.65.25.61,2.2c0,.22.33.52.4,1.06s.13,2.72-1.14,2.91A3.89,3.89,0,0,1,81.64,28C81,25.83,82.92,23.07,85.61,24.6Z"/><path class="cls-36" d="M85.46,25.38s-5.66,1.88-1.68,9.22a4.47,4.47,0,0,1-4.15-2.36c-.58-1.23-.27-3.66,0-6,0,0,.76-3.55,3.74-2.93C83.36,23.33,85.31,24.15,85.46,25.38Z"/><path class="cls-32" d="M85.46,25.38s1-.15,1.41,1.66c0,0,0-5.09-4.87-3.7C82,23.34,84.86,23.57,85.46,25.38Z"/><path class="cls-35" d="M82.75,28.45s-.32-1.09-1-.78c-.2.1-.42.32-.14.88s.88,1.09,1.37,1Z"/><path class="cls-18" d="M86.35,42.88s1.4.08,1.87.7a6.93,6.93,0,0,1,1.26,1.81c.13.56,0,.75-.42.63a7.85,7.85,0,0,1-2.18-1.48A1.61,1.61,0,0,0,86,44C85.75,43.86,85.61,43.15,86.35,42.88Z"/><path class="cls-34" d="M86,44a1.61,1.61,0,0,1,.93.59A7.85,7.85,0,0,0,89.06,46l.17,0L87.8,44.48a4.35,4.35,0,0,0-2-1A.48.48,0,0,0,86,44Z"/><path class="cls-19" d="M79,33c.66-.14,1.78.14,1.9,1.92s.43,6.77.43,6.77,4.73.94,5.25,1.13A1,1,0,0,0,86,44s-5.31.78-6.39-.41S76.26,33.52,79,33Z"/><g class="cls-3"><path d="M118.3,52.79c4.34,2.51,4.37,6,0,8.54s-11.33,2.51-15.67,0-4.37-6-.05-8.53S114,50.29,118.3,52.79Z"/></g><path class="cls-37" d="M118.33,52.06c4.06,2.1,4,5.48,0,7.57a17.69,17.69,0,0,1-14.56,0c-4-2.09-4-5.49,0-7.57A17.71,17.71,0,0,1,118.33,52.06Z"/><g class="cls-38"><path class="cls-39" d="M119.24,45.4c4.62,2.39,4.6,6.24.05,8.61s-12,2.4-16.58,0-4.62-6.24-.06-8.61S114.65,43,119.24,45.4Z"/></g><g class="cls-40"><path class="cls-41" d="M120.14,38.73c5.19,2.69,5.17,7,.06,9.67s-13.41,2.69-18.6,0-5.17-7-.06-9.67S115,36.07,120.14,38.73Z"/></g><g class="cls-42"><path class="cls-43" d="M121.05,32.07c5.75,3,5.73,7.77.07,10.72s-14.87,3-20.62,0-5.74-7.76-.07-10.72S115.35,29.12,121.05,32.07Z"/></g><g class="cls-44"><path class="cls-45" d="M122,25.41c6.32,3.27,6.29,8.53.07,11.77s-16.32,3.27-22.64,0-6.3-8.53-.07-11.77S115.7,22.17,122,25.41Z"/></g><g class="cls-46"><path class="cls-47" d="M122.87,18.75c6.88,3.56,6.85,9.29.07,12.82s-17.77,3.56-24.65,0-6.86-9.29-.08-12.82S116.05,15.22,122.87,18.75Z"/></g><g class="cls-48"><path class="cls-49" d="M123.78,12.09c7.44,3.85,7.41,10,.08,13.86s-19.24,3.86-26.68,0-7.42-10-.09-13.86S116.4,8.27,123.78,12.09Z"/></g><g class="cls-50"><path class="cls-51" d="M118.33,52.09c4.06,2.11,4,5.48,0,7.57a17.61,17.61,0,0,1-14.56,0c-4-2.09-4-5.48,0-7.57A17.79,17.79,0,0,1,118.33,52.09Z"/></g><path class="cls-14" d="M119.62,53.89a2.58,2.58,0,0,1,0,.29l-.06.24a2.76,2.76,0,0,1-.08.27l-.09.22-.14.29a4,4,0,0,1-.23.39l0,.06c-.09.13-.19.25-.3.38l-.06.06-.38.38-.28.23-.26.21-.33.21a3,3,0,0,1-.35.23c-.27.16-.56.3-.86.44l-.26.11q-.36.15-.72.27l-.27.09-.47.14-.36.09-.5.11-.35.07c-.34.06-.69.11-1,.15l-.32,0-.62,0h-1.32l-.46,0-.43,0-.46,0-.4-.06-.49-.09-.38-.07-.57-.14-.31-.09q-.51-.15-1-.33l-.46-.2-.23-.1c-.24-.11-.46-.23-.68-.35-1.8-1-2.7-2.41-2.7-3.78v2.55c0,1.37.9,2.74,2.71,3.78.21.12.44.24.67.35l.22.1c.14.06.28.13.43.18l.05,0c.32.12.64.23,1,.33l.08,0a2.1,2.1,0,0,1,.24.06l.56.14.16,0,.22,0,.49.09.19,0,.22,0,.45.06.22,0h.21l.46,0h.92a2.08,2.08,0,0,0,.25,0h.15l.62,0h.32c.35,0,.7-.09,1-.15h.06c.1,0,.19,0,.29-.06L114,61l.35-.09.48-.14.1,0,.16-.06q.36-.12.72-.27l.26-.11c.3-.14.59-.28.86-.44l.12-.07.24-.16.32-.21.26-.21a3.11,3.11,0,0,0,.28-.23l.06,0,.33-.34a.18.18,0,0,0,0-.07,1.18,1.18,0,0,0,.18-.21,1.83,1.83,0,0,0,.13-.16s0,0,0-.06l.2-.32s0,0,0-.07.09-.19.13-.29l.08-.16s0,0,0-.06a2.76,2.76,0,0,0,.08-.27,1.33,1.33,0,0,0,0-.19.09.09,0,0,0,0-.05,2.58,2.58,0,0,0,0-.29,1.1,1.1,0,0,0,0-.18.28.28,0,0,0,0-.09V53.63A2.28,2.28,0,0,1,119.62,53.89Z"/><path class="cls-52" d="M119.59,54.18l-.06.24a2.76,2.76,0,0,1-.08.27l-.09.22-.14.29a4,4,0,0,1-.23.39l0,.06c-.09.13-.19.25-.3.38l-.06.06-.38.38-.28.23-.26.21-.33.21a3,3,0,0,1-.35.23c-.27.16-.56.3-.86.44l-.26.11q-.36.15-.72.27l-.27.09-.47.14-.36.09-.5.11-.35.07c-.34.06-.69.11-1,.15l-.32,0-.62,0h-1.32l-.46,0-.43,0-.46,0-.4-.06-.49-.09-.38-.07-.57-.14-.31-.09q-.51-.15-1-.33l-.46-.2-.23-.1c-.24-.11-.46-.23-.68-.35-1.8-1-2.7-2.41-2.7-3.78v1.69c0,1.36.91,2.71,2.71,3.74a7.12,7.12,0,0,0,.67.36l.22.09.43.19.05,0c.32.12.64.23,1,.33l.08,0,.24.06.56.14.16,0,.22,0,.49.08.19,0,.22,0,.45,0,.22,0h.21l.46,0h.24a1.08,1.08,0,0,0,.18,0c.17,0,.34,0,.5,0h.4l.62,0,.25,0h.07c.35,0,.7-.08,1-.14h.06l.29-.06.51-.11.35-.1.48-.13.1,0,.16-.06.72-.28.26-.11A7.66,7.66,0,0,0,117,59l.12-.07.24-.16a3.62,3.62,0,0,0,.32-.22l.26-.2.28-.23.06-.05.33-.33,0-.07a1.68,1.68,0,0,0,.18-.21,1.09,1.09,0,0,0,.13-.17l0-.06a3.45,3.45,0,0,0,.2-.32s0,0,0-.07a2.39,2.39,0,0,0,.13-.28c0-.06.06-.11.08-.17s0,0,0,0,.06-.18.08-.28a1.21,1.21,0,0,0,0-.18.11.11,0,0,0,0,0,2.85,2.85,0,0,0,0-.29,1.23,1.23,0,0,0,0-.19.19.19,0,0,0,0-.08V53.66a1.79,1.79,0,0,1,0,.23A2.58,2.58,0,0,1,119.59,54.18Z"/><path class="cls-53" d="M119.59,54.18l-.06.24a2.76,2.76,0,0,1-.08.27l-.09.22-.14.29a4,4,0,0,1-.23.39l0,.06c-.09.13-.19.25-.3.38l-.06.06-.38.38-.28.23-.26.21-.33.21a3,3,0,0,1-.35.23c-.27.16-.56.3-.86.44l-.26.11q-.36.15-.72.27l-.27.09-.47.14-.36.09-.5.11-.35.07c-.34.06-.69.11-1,.15l-.32,0-.62,0h-1.32l-.46,0-.43,0-.46,0-.4-.06-.49-.09-.38-.07-.57-.14-.31-.09q-.51-.15-1-.33l-.46-.2-.23-.1c-.24-.11-.46-.23-.68-.35-1.8-1-2.7-2.41-2.7-3.78v1.69c0,1.36.91,2.71,2.71,3.74a7.12,7.12,0,0,0,.67.36l.22.09.43.19.05,0c.32.12.64.23,1,.33l.08,0,.24.06.56.14.16,0,.22,0,.49.08.19,0,.22,0,.45,0,.22,0h.21l.46,0h.24a1.08,1.08,0,0,0,.18,0c.17,0,.34,0,.5,0h.4l.62,0,.25,0h.07c.35,0,.7-.08,1-.14h.06l.29-.06.51-.11.35-.1.48-.13.1,0,.16-.06.72-.28.26-.11A7.66,7.66,0,0,0,117,59l.12-.07.24-.16a3.62,3.62,0,0,0,.32-.22l.26-.2.28-.23.06-.05.33-.33,0-.07a1.68,1.68,0,0,0,.18-.21,1.09,1.09,0,0,0,.13-.17l0-.06a3.45,3.45,0,0,0,.2-.32s0,0,0-.07a2.39,2.39,0,0,0,.13-.28c0-.06.06-.11.08-.17s0,0,0,0,.06-.18.08-.28a1.21,1.21,0,0,0,0-.18.11.11,0,0,0,0,0,2.85,2.85,0,0,0,0-.29,1.23,1.23,0,0,0,0-.19.19.19,0,0,0,0-.08V53.66a1.79,1.79,0,0,1,0,.23A2.58,2.58,0,0,1,119.59,54.18Z"/><path class="cls-54" d="M116.94,49.85c3.59,2.07,3.61,5.43,0,7.5a14.28,14.28,0,0,1-13,0c-3.58-2.07-3.6-5.43,0-7.5A14.28,14.28,0,0,1,116.94,49.85Z"/><path class="cls-52" d="M116.94,49.85c3.59,2.07,3.61,5.43,0,7.5a14.28,14.28,0,0,1-13,0c-3.58-2.07-3.6-5.43,0-7.5A14.28,14.28,0,0,1,116.94,49.85Z"/><path class="cls-14" d="M116.94,50.3c3.59,2.07,3.61,5,0,7.05a14.28,14.28,0,0,1-13,0c-3.59-2.07-3.6-5,0-7.05A14.25,14.25,0,0,1,116.94,50.3Z"/><path class="cls-55" d="M104,50.3a14.25,14.25,0,0,1,13,0c1.69,1,2.58,2.14,2.68,3.31.12-1.32-.77-2.66-2.68-3.76a14.28,14.28,0,0,0-13,0c-1.88,1.09-2.75,2.42-2.64,3.73C101.45,52.42,102.32,51.27,104,50.3Z"/><path class="cls-56" d="M115.58,50.63c2.84,1.64,2.86,4.3,0,5.94a11.3,11.3,0,0,1-10.24,0c-2.84-1.63-2.85-4.29,0-5.92A11.28,11.28,0,0,1,115.58,50.63Z"/><path class="cls-57" d="M115.38,50.92c2.73,1.62,2.74,4.25,0,5.88a10.57,10.57,0,0,1-9.84,0c-2.72-1.63-2.74-4.26,0-5.88A10.49,10.49,0,0,1,115.38,50.92Z"/><path class="cls-52" d="M115.1,51.33l-1,.59a2.08,2.08,0,0,1,1,1l-.92.26a2,2,0,0,0-.94-1,2,2,0,0,0-2-.12c-.53.31-.42.68.1,1.43s.65,1.48-.26,2a4,4,0,0,1-3.39.07l-1.06.62-.65-.37,1-.6A2.5,2.5,0,0,1,105.87,54l.94-.26a2.22,2.22,0,0,0,1,1.12,2.36,2.36,0,0,0,2.23.14c.58-.34.53-.78.07-1.4-.65-.84-.83-1.5,0-2a3.81,3.81,0,0,1,3.23-.07l1-.6Z"/><path class="cls-14" d="M121.54,49.63a2.85,2.85,0,0,1,0,.29l-.06.23c0,.09,0,.19-.08.28l-.09.22c0,.1-.09.19-.14.29a3,3,0,0,1-.23.38l0,.07c-.09.12-.19.25-.3.37a.2.2,0,0,1-.06.07,4.54,4.54,0,0,1-.38.38l-.28.23-.26.21-.32.21c-.12.08-.23.16-.36.23s-.56.3-.86.44l-.26.11q-.36.15-.72.27l-.27.09-.47.13-.36.1-.5.11-.35.07c-.34.06-.69.11-1,.14l-.32,0-.62,0h-.9l-.42,0-.46,0-.43,0-.46-.05a2.76,2.76,0,0,1-.4-.06l-.49-.08-.38-.08-.57-.13-.31-.09c-.34-.1-.67-.21-1-.33l-.47-.2-.23-.1c-.24-.11-.46-.23-.68-.35-1.8-1.05-2.7-2.41-2.7-3.78v2.55c0,1.37.9,2.73,2.71,3.78.21.12.44.24.67.35l.22.09.43.19,0,0c.32.12.64.23,1,.33l.08,0,.24.05.56.14.16,0,.22,0,.49.08.19,0,.22,0,.45,0,.22,0h.21l.46,0,.24,0h1.08l.62,0,.25,0h.07c.36,0,.7-.08,1-.14h0l.29-.06.51-.11.35-.1.48-.13.1,0,.16-.06c.24-.09.49-.18.72-.28l.26-.11a8.79,8.79,0,0,0,.87-.43l.11-.07.24-.16a3.62,3.62,0,0,0,.32-.22l.26-.2.28-.23.06,0c.12-.11.22-.22.33-.33l.06-.07.17-.21a1.09,1.09,0,0,0,.13-.17l0-.06a3.45,3.45,0,0,0,.2-.32s0,0,0-.06.09-.19.13-.29.06-.11.08-.17,0,0,0-.05a1.29,1.29,0,0,0,.08-.28l.06-.18v-.05a1.43,1.43,0,0,0,0-.29,1.11,1.11,0,0,0,0-.19.19.19,0,0,0,0-.08V49.36A2.45,2.45,0,0,1,121.54,49.63Z"/><path class="cls-52" d="M121.51,49.92l-.06.23c0,.09,0,.19-.08.28l-.09.22c0,.1-.09.19-.14.29a3,3,0,0,1-.23.38l0,.07c-.09.12-.19.25-.3.37a.2.2,0,0,1-.06.07,4.54,4.54,0,0,1-.38.38l-.28.23-.26.21-.32.21c-.12.08-.23.16-.36.23s-.56.3-.86.44l-.26.11q-.36.15-.72.27l-.27.09-.47.13-.36.1-.5.11-.35.07c-.34.06-.69.11-1,.14l-.32,0-.62,0h-.9l-.42,0-.46,0-.43,0-.46-.05a2.76,2.76,0,0,1-.4-.06l-.49-.08-.38-.08-.57-.13-.31-.09c-.34-.1-.67-.21-1-.33l-.47-.2-.23-.1c-.24-.11-.46-.23-.68-.35-1.8-1.05-2.7-2.41-2.7-3.78V51c0,1.35.9,2.71,2.7,3.74a7.06,7.06,0,0,0,.67.35l.22.1.43.19h0a10.28,10.28,0,0,0,1,.34l.08,0,.24.06.56.14.16,0,.22,0c.16,0,.33.06.49.09l.19,0,.22,0,.45,0,.22,0h.21l.46,0h1.32l.62,0,.25,0h.07c.36,0,.7-.08,1-.15h0c.1,0,.19-.05.29-.06l.51-.11.35-.1.48-.13.1,0a.76.76,0,0,1,.16-.06c.24-.09.49-.18.72-.28l.26-.11a8.86,8.86,0,0,0,.87-.44l.11-.06.24-.16a3.62,3.62,0,0,0,.32-.22l.26-.2.28-.23.06,0c.12-.11.22-.22.33-.33l.06-.07.17-.21.13-.17,0-.06c.07-.11.14-.21.2-.32s0,0,0-.07.09-.19.13-.28.06-.11.08-.17,0,0,0-.06a1.38,1.38,0,0,0,.08-.27l.06-.18v-.05a1.5,1.5,0,0,0,0-.29,1.37,1.37,0,0,0,0-.19.22.22,0,0,0,0-.08V49.4a2,2,0,0,1,0,.23A2.85,2.85,0,0,1,121.51,49.92Z"/><path class="cls-53" d="M121.51,49.92l-.06.23c0,.09,0,.19-.08.28l-.09.22c0,.1-.09.19-.14.29a3,3,0,0,1-.23.38l0,.07c-.09.12-.19.25-.3.37a.2.2,0,0,1-.06.07,4.54,4.54,0,0,1-.38.38l-.28.23-.26.21-.32.21c-.12.08-.23.16-.36.23s-.56.3-.86.44l-.26.11q-.36.15-.72.27l-.27.09-.47.13-.36.1-.5.11-.35.07c-.34.06-.69.11-1,.14l-.32,0-.62,0h-.9l-.42,0-.46,0-.43,0-.46-.05a2.76,2.76,0,0,1-.4-.06l-.49-.08-.38-.08-.57-.13-.31-.09c-.34-.1-.67-.21-1-.33l-.47-.2-.23-.1c-.24-.11-.46-.23-.68-.35-1.8-1.05-2.7-2.41-2.7-3.78V51c0,1.35.9,2.71,2.7,3.74a7.06,7.06,0,0,0,.67.35l.22.1.43.19h0a10.28,10.28,0,0,0,1,.34l.08,0,.24.06.56.14.16,0,.22,0c.16,0,.33.06.49.09l.19,0,.22,0,.45,0,.22,0h.21l.46,0h1.32l.62,0,.25,0h.07c.36,0,.7-.08,1-.15h0c.1,0,.19-.05.29-.06l.51-.11.35-.1.48-.13.1,0a.76.76,0,0,1,.16-.06c.24-.09.49-.18.72-.28l.26-.11a8.86,8.86,0,0,0,.87-.44l.11-.06.24-.16a3.62,3.62,0,0,0,.32-.22l.26-.2.28-.23.06,0c.12-.11.22-.22.33-.33l.06-.07.17-.21.13-.17,0-.06c.07-.11.14-.21.2-.32s0,0,0-.07.09-.19.13-.28.06-.11.08-.17,0,0,0-.06a1.38,1.38,0,0,0,.08-.27l.06-.18v-.05a1.5,1.5,0,0,0,0-.29,1.37,1.37,0,0,0,0-.19.22.22,0,0,0,0-.08V49.4a2,2,0,0,1,0,.23A2.85,2.85,0,0,1,121.51,49.92Z"/><path class="cls-54" d="M118.86,45.59c3.59,2.07,3.61,5.43,0,7.5a14.28,14.28,0,0,1-13,0c-3.58-2.08-3.6-5.43,0-7.5A14.25,14.25,0,0,1,118.86,45.59Z"/><path class="cls-52" d="M118.86,45.59c3.59,2.07,3.61,5.43,0,7.5a14.28,14.28,0,0,1-13,0c-3.58-2.08-3.6-5.43,0-7.5A14.25,14.25,0,0,1,118.86,45.59Z"/><path class="cls-14" d="M118.86,46c3.59,2.07,3.61,5,0,7.06a14.28,14.28,0,0,1-13,0c-3.58-2.08-3.6-5,0-7.06A14.28,14.28,0,0,1,118.86,46Z"/><path class="cls-55" d="M105.91,46a14.28,14.28,0,0,1,13,0c1.69,1,2.58,2.15,2.68,3.32.12-1.32-.77-2.66-2.68-3.76a14.25,14.25,0,0,0-13,0c-1.88,1.09-2.75,2.42-2.64,3.73C103.37,48.16,104.24,47,105.91,46Z"/><path class="cls-56" d="M117.51,46.37c2.83,1.64,2.85,4.3,0,5.93a11.27,11.27,0,0,1-10.24,0c-2.84-1.64-2.85-4.29,0-5.93A11.3,11.3,0,0,1,117.51,46.37Z"/><path class="cls-57" d="M117.3,46.65c2.73,1.63,2.74,4.26,0,5.89a10.57,10.57,0,0,1-9.84,0c-2.72-1.63-2.74-4.26,0-5.88A10.52,10.52,0,0,1,117.3,46.65Z"/><path class="cls-52" d="M117,47.07l-1,.58a2.14,2.14,0,0,1,1,1l-.92.25a1.94,1.94,0,0,0-.94-1,2,2,0,0,0-2-.12c-.53.31-.42.68.1,1.42s.65,1.48-.26,2a4,4,0,0,1-3.39.07l-1.06.62-.65-.38,1-.59a2.48,2.48,0,0,1-1.13-1.18l.94-.26a2.21,2.21,0,0,0,1,1.11,2.35,2.35,0,0,0,2.24.14c.57-.33.52-.77.06-1.39-.65-.85-.83-1.5.06-2a3.83,3.83,0,0,1,3.22-.06l1-.6Z"/><path class="cls-14" d="M119.62,46a1.53,1.53,0,0,1,0,.3c0,.07,0,.15-.06.23a1.38,1.38,0,0,1-.08.27,1.45,1.45,0,0,1-.09.22,2.55,2.55,0,0,1-.13.29,4.11,4.11,0,0,1-.24.39l0,.06c-.09.13-.19.25-.3.38a.2.2,0,0,0-.06.07l-.39.38-.28.22-.26.21-.32.22-.35.22c-.28.16-.57.3-.87.44l-.26.11a7.66,7.66,0,0,1-.72.27,2.67,2.67,0,0,1-.26.09l-.47.14-.36.1-.51.1-.34.07c-.35.06-.69.11-1,.15l-.32,0-.62,0h-1.32c-.15,0-.31,0-.46,0l-.43,0-.45,0-.41-.06-.49-.08-.38-.08-.56-.14-.32-.09a8.06,8.06,0,0,1-1-.33l-.46-.19-.24-.11a7.06,7.06,0,0,1-.67-.35c-1.81-1-2.71-2.41-2.71-3.77v2.55c0,1.36.89,2.73,2.7,3.77.22.13.44.24.67.35l.23.1c.14.06.28.13.42.18l.05,0c.32.13.65.23,1,.33l.08,0,.24.06.57.14.15,0,.23,0,.48.09.2,0,.21,0,.46.05.22,0h.2l.46,0h.93a2.08,2.08,0,0,1,.25,0h.14l.62,0h.33c.35,0,.7-.09,1-.15h0l.29-.07.51-.11.36-.09.47-.14a.38.38,0,0,0,.1,0,.76.76,0,0,0,.16-.06,7.66,7.66,0,0,0,.72-.27l.27-.11c.29-.14.59-.28.86-.44l.11-.06.24-.16.33-.22.25-.21a2.15,2.15,0,0,0,.28-.23l.06,0a3.51,3.51,0,0,0,.33-.34l.06-.06.18-.21.12-.17,0-.06c.08-.11.14-.21.21-.32l0-.07c0-.09.09-.19.13-.28l.08-.17s0,0,0-.06,0-.18.08-.27,0-.12,0-.19v0a2.54,2.54,0,0,0,0-.29c0-.06,0-.12,0-.18V45.74A2.06,2.06,0,0,1,119.62,46Z"/><path class="cls-52" d="M119.59,46.3c0,.07,0,.15-.06.23a1.38,1.38,0,0,1-.08.27,1.45,1.45,0,0,1-.09.22,2.55,2.55,0,0,1-.13.29,4.11,4.11,0,0,1-.24.39l0,.06c-.09.13-.19.25-.3.38a.2.2,0,0,0-.06.07l-.39.38-.28.22-.26.21-.32.22-.35.22c-.28.16-.57.3-.87.44l-.26.11a7.66,7.66,0,0,1-.72.27,2.67,2.67,0,0,1-.26.09l-.47.14-.36.1-.51.1-.34.07c-.35.06-.69.11-1,.15l-.32,0-.62,0h-1.32c-.15,0-.31,0-.46,0l-.43,0-.45,0-.41-.06-.49-.08-.38-.08-.56-.14-.32-.09a8.06,8.06,0,0,1-1-.33l-.46-.19-.24-.11a7.06,7.06,0,0,1-.67-.35c-1.81-1-2.71-2.41-2.71-3.77v1.68c0,1.36.91,2.71,2.7,3.75.22.12.44.24.67.35l.23.1.42.18.05,0c.32.12.65.23,1,.33l.08,0,.24,0,.57.14.15,0,.23,0,.48.09.2,0,.21,0,.46.05.22,0h.2l.46,0,.24,0h.69a2.08,2.08,0,0,0,.25,0h.14l.62,0,.25,0h.08c.35,0,.7-.08,1-.14h0a2.47,2.47,0,0,0,.29-.06l.51-.11.36-.09.47-.14.1,0,.16-.06a7.66,7.66,0,0,0,.72-.27l.27-.11c.29-.14.59-.28.86-.44l.11-.07a2,2,0,0,0,.24-.16l.33-.21.25-.21a2.15,2.15,0,0,0,.28-.23l.06-.05q.18-.16.33-.33l.06-.07.18-.21.12-.16a.25.25,0,0,0,0-.07c.08-.1.14-.21.21-.31l0-.07c0-.1.09-.19.13-.29a.89.89,0,0,0,.08-.17s0,0,0,0,0-.18.08-.28,0-.12,0-.18v0a2.89,2.89,0,0,0,0-.29c0-.06,0-.12,0-.18V45.77a1.64,1.64,0,0,1,0,.23A1.53,1.53,0,0,1,119.59,46.3Z"/><path class="cls-53" d="M119.59,46.3c0,.07,0,.15-.06.23a1.38,1.38,0,0,1-.08.27,1.45,1.45,0,0,1-.09.22,2.55,2.55,0,0,1-.13.29,4.11,4.11,0,0,1-.24.39l0,.06c-.09.13-.19.25-.3.38a.2.2,0,0,0-.06.07l-.39.38-.28.22-.26.21-.32.22-.35.22c-.28.16-.57.3-.87.44l-.26.11a7.66,7.66,0,0,1-.72.27,2.67,2.67,0,0,1-.26.09l-.47.14-.36.1-.51.1-.34.07c-.35.06-.69.11-1,.15l-.32,0-.62,0h-1.32c-.15,0-.31,0-.46,0l-.43,0-.45,0-.41-.06-.49-.08-.38-.08-.56-.14-.32-.09a8.06,8.06,0,0,1-1-.33l-.46-.19-.24-.11a7.06,7.06,0,0,1-.67-.35c-1.81-1-2.71-2.41-2.71-3.77v1.68c0,1.36.91,2.71,2.7,3.75.22.12.44.24.67.35l.23.1.42.18.05,0c.32.12.65.23,1,.33l.08,0,.24,0,.57.14.15,0,.23,0,.48.09.2,0,.21,0,.46.05.22,0h.2l.46,0,.24,0h.69a2.08,2.08,0,0,0,.25,0h.14l.62,0,.25,0h.08c.35,0,.7-.08,1-.14h0a2.47,2.47,0,0,0,.29-.06l.51-.11.36-.09.47-.14.1,0,.16-.06a7.66,7.66,0,0,0,.72-.27l.27-.11c.29-.14.59-.28.86-.44l.11-.07a2,2,0,0,0,.24-.16l.33-.21.25-.21a2.15,2.15,0,0,0,.28-.23l.06-.05q.18-.16.33-.33l.06-.07.18-.21.12-.16a.25.25,0,0,0,0-.07c.08-.1.14-.21.21-.31l0-.07c0-.1.09-.19.13-.29a.89.89,0,0,0,.08-.17s0,0,0,0,0-.18.08-.28,0-.12,0-.18v0a2.89,2.89,0,0,0,0-.29c0-.06,0-.12,0-.18V45.77a1.64,1.64,0,0,1,0,.23A1.53,1.53,0,0,1,119.59,46.3Z"/><path class="cls-54" d="M116.94,42c3.59,2.07,3.61,5.43,0,7.5a14.25,14.25,0,0,1-12.95,0c-3.59-2.07-3.61-5.43-.05-7.5A14.28,14.28,0,0,1,116.94,42Z"/><path class="cls-52" d="M116.94,42c3.59,2.07,3.61,5.43,0,7.5a14.25,14.25,0,0,1-12.95,0c-3.59-2.07-3.61-5.43-.05-7.5A14.28,14.28,0,0,1,116.94,42Z"/><path class="cls-14" d="M116.94,42.41c3.59,2.07,3.61,5,0,7.05a14.25,14.25,0,0,1-12.95,0c-3.59-2.07-3.61-5-.05-7.05A14.28,14.28,0,0,1,116.94,42.41Z"/><path class="cls-55" d="M104,42.41a14.28,14.28,0,0,1,13,0c1.7,1,2.59,2.14,2.69,3.32.11-1.33-.78-2.67-2.69-3.77a14.28,14.28,0,0,0-13,0c-1.88,1.1-2.75,2.42-2.64,3.74C101.45,44.53,102.33,43.38,104,42.41Z"/><path class="cls-56" d="M115.59,42.75c2.84,1.63,2.85,4.29,0,5.93a11.27,11.27,0,0,1-10.24,0c-2.83-1.64-2.85-4.29,0-5.93A11.27,11.27,0,0,1,115.59,42.75Z"/><path class="cls-57" d="M115.39,43c2.72,1.62,2.74,4.26,0,5.88a10.52,10.52,0,0,1-9.83,0c-2.73-1.62-2.74-4.25,0-5.88A10.57,10.57,0,0,1,115.39,43Z"/><path class="cls-52" d="M115.1,43.45l-1,.58a2.08,2.08,0,0,1,1,1l-.91.26a2.07,2.07,0,0,0-1-1,2,2,0,0,0-2-.12c-.53.31-.41.69.1,1.43s.65,1.48-.26,2a4,4,0,0,1-3.39.06l-1.06.62-.64-.37,1-.6a2.47,2.47,0,0,1-1.13-1.17l.94-.26a2.19,2.19,0,0,0,1,1.11,2.35,2.35,0,0,0,2.23.14c.58-.34.52-.77.06-1.39-.64-.85-.83-1.51.06-2a3.79,3.79,0,0,1,3.22-.07l1-.6Z"/><polygon class="cls-58" points="11.12 68.43 11.11 73.23 0.69 79.29 0.7 74.48 11.12 68.43"/><polygon class="cls-59" points="11.06 69.47 11.04 74.28 2.28 79.37 2.29 74.56 11.06 69.47"/><polygon class="cls-60" points="33.82 81.53 33.81 86.34 11.11 73.23 11.12 68.43 33.82 81.53"/><polygon class="cls-61" points="31.9 81.5 31.88 86.31 11.04 74.28 11.06 69.47 31.9 81.5"/><g class="cls-2"><g class="cls-62"><g class="cls-2"><path class="cls-63" d="M13.88,71.92v4.8a3.17,3.17,0,0,1-.7.31l0-4.81a3.59,3.59,0,0,0,.69-.3Z"/><path class="cls-64" d="M13.19,72.22l0,4.81a5.26,5.26,0,0,1-.6.15V72.37a3.2,3.2,0,0,0,.61-.15Z"/><path class="cls-65" d="M12.58,72.37v4.81a3.18,3.18,0,0,1-.43.06V72.43a3,3,0,0,0,.43-.06Z"/><path class="cls-66" d="M12.15,72.43v4.81l-.38,0V72.46c.13,0,.26,0,.38,0Z"/><path class="cls-67" d="M11.77,72.46v4.81H11.4V72.46Z"/><path class="cls-68" d="M11.41,72.46v4.81l-.36,0,0-4.81.35,0Z"/><path class="cls-69" d="M11.06,72.44l0,4.81-.35,0V72.4l.36,0Z"/><path class="cls-70" d="M10.7,72.4v4.81l-.37-.07v-4.8l.37.06Z"/><path class="cls-71" d="M10.33,72.34v4.8a2.73,2.73,0,0,1-.41-.1v-4.8l.41.1Z"/><path class="cls-72" d="M9.92,72.24V77a3.71,3.71,0,0,1-.47-.16v-4.8l.47.16Z"/><path class="cls-73" d="M9.45,72.08v4.8a4.29,4.29,0,0,1-.57-.27V71.8a3.77,3.77,0,0,0,.57.28Z"/></g></g></g><polygon class="cls-58" points="8.88 71.8 8.87 76.61 6.18 78.17 6.19 73.36 8.88 71.8"/><g class="cls-2"><g class="cls-74"><g class="cls-2"><path class="cls-75" d="M7.34,74.93l0,4.8a1.93,1.93,0,0,0-1.14-1.56v-4.8a1.92,1.92,0,0,1,1.15,1.56Z"/></g></g></g><polygon class="cls-60" points="27.99 80.07 27.98 84.87 13.87 76.72 13.88 71.92 27.99 80.07"/><g class="cls-2"><g class="cls-76"><g class="cls-2"><path class="cls-75" d="M21.7,78.15l0,4.8A2.31,2.31,0,0,0,20.31,81a5.16,5.16,0,0,0-.67-.32V75.9a4.64,4.64,0,0,1,.67.33,2.33,2.33,0,0,1,1.38,1.92Z"/><path class="cls-77" d="M19.65,75.9v4.81l-.57-.19,0-4.81.56.19Z"/><path class="cls-78" d="M19.09,75.71l0,4.81-.48-.12V75.59l.49.12Z"/><path class="cls-79" d="M18.6,75.59V80.4l-.46-.08V75.51l.46.08Z"/><path class="cls-80" d="M18.14,75.51v4.81l-.46,0,0-4.81.45.05Z"/><path class="cls-81" d="M17.69,75.46l0,4.81-.45,0V75.44l.46,0Z"/><path class="cls-82" d="M17.23,75.44v4.81a3.84,3.84,0,0,0-.48,0V75.44Z"/><path class="cls-83" d="M16.75,75.44v4.81l-.52,0,0-4.8.51,0Z"/><path class="cls-84" d="M16.24,75.48l0,4.8-.59.09V75.56c.2,0,.4-.06.6-.08Z"/><path class="cls-85" d="M15.64,75.56v4.81a6.27,6.27,0,0,0-.88.21v-4.8a6.66,6.66,0,0,1,.88-.22Z"/><path class="cls-86" d="M14.76,75.78v4.8a5.25,5.25,0,0,0-1,.45l-.06,0,0-4.81.05,0a4.93,4.93,0,0,1,1-.45Z"/></g></g></g><g class="cls-2"><g class="cls-87"><g class="cls-2"><path class="cls-70" d="M7.34,74.93l0,4.8v0l0-4.8v0Z"/><path class="cls-69" d="M7.34,75l0,4.8a1.23,1.23,0,0,1,0,.2V75.15a1.25,1.25,0,0,0,0-.19Z"/><path class="cls-68" d="M7.31,75.15V80a.6.6,0,0,1-.06.19l0-4.81a1.05,1.05,0,0,0,0-.19Z"/><path class="cls-67" d="M7.26,75.34l0,4.81a1.08,1.08,0,0,1-.08.19V75.53a1.11,1.11,0,0,0,.09-.19Z"/><path class="cls-66" d="M7.17,75.53v4.81l-.13.2V75.73a1.37,1.37,0,0,0,.13-.2Z"/><path class="cls-65" d="M7,75.73v4.81l-.2.21V75.94a1.94,1.94,0,0,0,.2-.21Z"/><path class="cls-64" d="M6.84,75.94v4.81a2.81,2.81,0,0,1-.36.27l0-4.81a1.91,1.91,0,0,0,.35-.27Z"/></g></g></g><polygon class="cls-60" points="19.77 76.79 19.76 81.59 19.39 81.38 19.4 76.57 19.77 76.79"/><polygon class="cls-58" points="19.4 76.57 19.39 81.38 18.8 81.72 18.81 76.91 19.4 76.57"/><g class="cls-2"><g class="cls-88"><g class="cls-2"><path class="cls-73" d="M18.81,76.91v4.81h0V76.9Z"/><path class="cls-72" d="M18.79,76.9v4.81l-.23-.08V76.82l.23.08Z"/><path class="cls-71" d="M18.56,76.82v4.81l-.19,0,0-4.81.18,0Z"/><path class="cls-70" d="M18.38,76.78l0,4.81-.15,0V76.75l.16,0Z"/><path class="cls-69" d="M18.22,76.75v4.81l-.15,0,0-4.8Z"/><path class="cls-68" d="M18.08,76.74l0,4.8h-.14l0-4.81Z"/><path class="cls-67" d="M17.94,76.73l0,4.81h-.13V76.73Z"/><path class="cls-66" d="M17.8,76.73v4.81h-.14v-4.8Z"/><path class="cls-65" d="M17.66,76.74v4.8l-.17,0,0-4.81.16,0Z"/><path class="cls-64" d="M17.5,76.76l0,4.81a.86.86,0,0,0-.23.06V76.82l.24-.06Z"/><path class="cls-63" d="M17.26,76.82v4.81a.86.86,0,0,0-.29.13h0V77h0a1.51,1.51,0,0,1,.29-.13Z"/></g></g></g><polygon class="cls-59" points="19.77 76.79 19.76 81.59 19.19 81.92 19.2 77.11 19.77 76.79"/><g class="cls-2"><g class="cls-89"><g class="cls-2"><path class="cls-63" d="M17.26,76.82v4.81a.86.86,0,0,0-.29.13h0V77h0a1.51,1.51,0,0,1,.29-.13Z"/><path class="cls-64" d="M17,77v4.81a.5.5,0,0,0-.16.11v-4.8L17,77Z"/><path class="cls-65" d="M16.79,77.08v4.8l-.07.08V77.15a.46.46,0,0,1,.07-.07Z"/><path class="cls-66" d="M16.72,77.15V82l-.05.06,0-4.8a.43.43,0,0,1,0-.07Z"/><path class="cls-67" d="M16.68,77.22l0,4.8,0,.07,0-4.81,0-.06Z"/><path class="cls-68" d="M16.65,77.28l0,4.81s0,0,0,.06v-4.8a.14.14,0,0,1,0-.07Z"/><path class="cls-69" d="M16.63,77.35v4.8a.22.22,0,0,0,0,.08V77.42a.17.17,0,0,1,0-.07Z"/><path class="cls-70" d="M16.62,77.42v4.81h0V77.43Z"/></g></g></g><g class="cls-2"><g class="cls-90"><g class="cls-2"><path class="cls-73" d="M19.75,77.68v4.81a1.28,1.28,0,0,0-.55-.57v-4.8a1.17,1.17,0,0,1,.55.56Z"/></g></g></g><g class="cls-2"><g class="cls-91"><g class="cls-2"><path class="cls-75" d="M19.23,77.83v4.8a1.28,1.28,0,0,0-.55-.55.82.82,0,0,0-.19-.09V77.18l.2.09a1.19,1.19,0,0,1,.54.56Z"/><path class="cls-77" d="M18.49,77.18V82l-.13,0,0-4.81.12,0Z"/><path class="cls-78" d="M18.37,77.14l0,4.81-.09,0,0-4.8.09,0Z"/><path class="cls-79" d="M18.28,77.12l0,4.8h-.08l0-4.81.08,0Z"/><path class="cls-80" d="M18.2,77.1l0,4.81h-.07l0-4.81Z"/><path class="cls-81" d="M18.13,77.09l0,4.81H18l0-4.81Z"/><path class="cls-82" d="M18.06,77.09l0,4.81H18V77.09Z"/><path class="cls-83" d="M18,77.09V81.9H17.9l0-4.81Z"/><path class="cls-84" d="M17.92,77.09l0,4.81h-.08v-4.8l.09,0Z"/><path class="cls-85" d="M17.83,77.11v4.8l-.13,0,0-4.81a.53.53,0,0,1,.12,0Z"/><path class="cls-86" d="M17.71,77.14l0,4.81a.52.52,0,0,0-.15.06h0V77.21h0l.16-.07Z"/><path class="cls-85" d="M17.54,77.21V82a.22.22,0,0,0-.09.07V77.28a.35.35,0,0,1,.09-.07Z"/><path class="cls-84" d="M17.45,77.28v4.81s0,0,0,0V77.32l0,0Z"/><path class="cls-83" d="M17.41,77.32v4.81l0,0,0-4.8a.08.08,0,0,1,0,0Z"/><path class="cls-82" d="M17.39,77.36l0,4.8s0,0,0,0V77.39s0,0,0,0Z"/><path class="cls-81" d="M17.37,77.39V82.2s0,0,0,0V77.39Z"/><path class="cls-80" d="M17.36,77.43v4.81a.06.06,0,0,0,0,0V77.47s0,0,0,0Z"/><polygon class="cls-79" points="17.35 77.47 17.34 82.28 17.34 82.29 17.35 77.48 17.35 77.47 17.35 77.47"/></g></g></g><polygon class="cls-92" points="19.75 77.68 19.74 82.49 19.22 82.63 19.23 77.83 19.75 77.68"/><g class="cls-2"><g class="cls-93"><g class="cls-2"><path class="cls-73" d="M17.61,78v4.81a1.1,1.1,0,0,1-.26-.54V77.48a1.12,1.12,0,0,0,.26.54Z"/></g></g></g><g class="cls-2"><g class="cls-94"><g class="cls-2"><path class="cls-86" d="M14.76,75.78v4.8a5.25,5.25,0,0,0-1,.45l-.06,0,0-4.81.05,0a4.93,4.93,0,0,1,1-.45Z"/><path class="cls-85" d="M13.69,76.26l0,4.81a3.9,3.9,0,0,0-.59.43l0-4.8a3.48,3.48,0,0,1,.59-.44Z"/><path class="cls-84" d="M13.1,76.7l0,4.8a3.92,3.92,0,0,0-.28.31V77a2.09,2.09,0,0,1,.29-.31Z"/><path class="cls-83" d="M12.81,77v4.8a2.31,2.31,0,0,0-.19.28V77.28l.19-.27Z"/><path class="cls-82" d="M12.62,77.28v4.81a1.51,1.51,0,0,0-.12.26v-4.8a1.59,1.59,0,0,1,.12-.27Z"/><path class="cls-81" d="M12.5,77.55v4.8a1.38,1.38,0,0,0-.08.27V77.81a2,2,0,0,1,.08-.26Z"/><path class="cls-80" d="M12.42,77.81v4.81a1.15,1.15,0,0,0,0,.26v-4.8l0-.27Z"/><path class="cls-79" d="M12.39,78.08v0Z"/></g></g></g><g class="cls-2"><g class="cls-95"><g class="cls-2"><path class="cls-75" d="M21.7,78.15l0,4.8A2.31,2.31,0,0,0,20.31,81a5.16,5.16,0,0,0-.67-.32V75.9a4.64,4.64,0,0,1,.67.33,2.33,2.33,0,0,1,1.38,1.92Z"/></g></g></g><g class="cls-2"><g class="cls-96"><g class="cls-2"><path class="cls-75" d="M17.14,78.56l0,4.81a.85.85,0,0,0-.2-.46,1.21,1.21,0,0,1-.31-.67V77.43a1.26,1.26,0,0,0,.31.68.82.82,0,0,1,.21.45Z"/></g></g></g><g class="cls-2"><g class="cls-97"><g class="cls-2"><path class="cls-73" d="M17.87,78.62l0,4.81a1.1,1.1,0,0,0-.25-.6V78a1.08,1.08,0,0,1,.26.6Z"/></g></g></g><g class="cls-2"><g class="cls-98"><g class="cls-2"><polygon class="cls-70" points="17.14 78.56 17.12 83.37 17.12 83.38 17.14 78.57 17.14 78.56 17.14 78.56"/><path class="cls-69" d="M17.14,78.57l0,4.81V78.63s0,0,0-.06Z"/><path class="cls-68" d="M17.13,78.63v4.8l0,0,0-4.81s0,0,0,0Z"/><path class="cls-67" d="M17.12,78.67l0,4.81s0,0,0,0l0-4.81s0,0,0,0Z"/><path class="cls-66" d="M17.1,78.72l0,4.81,0,0,0-4.81,0,0Z"/><path class="cls-65" d="M17.07,78.76l0,4.81a.12.12,0,0,1-.05.05l0-4.81.05,0Z"/><path class="cls-64" d="M17,78.81l0,4.81a.31.31,0,0,1-.11.08l0-4.81.11-.08Z"/><path class="cls-63" d="M16.91,78.89l0,4.81h0l-.17.07,0-4.8.17-.08Z"/></g></g></g><g class="cls-2"><g class="cls-99"><g class="cls-2"><path class="cls-63" d="M16.91,78.89l0,4.81h0l-.17.07,0-4.8.17-.08Z"/><path class="cls-64" d="M16.73,79l0,4.8-.13,0V79l.14,0Z"/><path class="cls-65" d="M16.59,79v4.81h-.09V79Z"/><path class="cls-66" d="M16.5,79v4.81H16.4l0-4.81Z"/><path class="cls-67" d="M16.42,79l0,4.81h-.08l0-4.81Z"/><path class="cls-68" d="M16.34,79l0,4.81h-.08V79Z"/><path class="cls-69" d="M16.25,79v4.81h-.09l0-4.81Z"/><path class="cls-70" d="M16.17,79l0,4.81-.09,0V79Z"/><path class="cls-71" d="M16.07,79v4.8l-.11,0V79l.11,0Z"/><path class="cls-72" d="M16,79v4.81l-.14,0V78.92L16,79Z"/><path class="cls-73" d="M15.82,78.92v4.81l-.21-.1A1.22,1.22,0,0,1,15,83v-4.8a1.55,1.55,0,0,0,.79.73Z"/></g></g></g><g class="cls-2"><g class="cls-100"><g class="cls-2"><path class="cls-79" d="M17.87,78.62l0,4.81h0l0-4.81Z"/><path class="cls-80" d="M17.87,78.63l0,4.81a.19.19,0,0,1,0,.08l0-4.81s0,0,0-.08Z"/><path class="cls-81" d="M17.86,78.71l0,4.81a.14.14,0,0,1,0,.07l0-4.8s0-.05,0-.08Z"/><path class="cls-82" d="M17.84,78.79l0,4.8a.15.15,0,0,1,0,.07l0-4.8,0-.07Z"/><path class="cls-83" d="M17.81,78.86l0,4.8a.35.35,0,0,1-.05.08l0-4.81,0-.07Z"/><path class="cls-84" d="M17.76,78.93l0,4.81-.08.08,0-4.81.08-.08Z"/><path class="cls-85" d="M17.68,79l0,4.81a.94.94,0,0,1-.19.14v-4.8a1.73,1.73,0,0,0,.2-.15Z"/><path class="cls-86" d="M17.48,79.16V84s0,0,0,0a1.53,1.53,0,0,1-.32.13l0-4.8.31-.14Z"/><path class="cls-85" d="M17.15,79.31l0,4.8-.25.07,0-4.81.25-.06Z"/><path class="cls-84" d="M16.9,79.37l0,4.81-.17,0V79.39l.18,0Z"/><path class="cls-83" d="M16.72,79.39V84.2h-.15V79.4Z"/><path class="cls-82" d="M16.57,79.4v4.81h-.15l0-4.81Z"/><path class="cls-81" d="M16.43,79.4l0,4.81h-.14l0-4.8Z"/><path class="cls-80" d="M16.29,79.4l0,4.8h-.15l0-4.81.15,0Z"/><path class="cls-79" d="M16.14,79.38l0,4.81-.15,0V79.35l.16,0Z"/><path class="cls-78" d="M16,79.35v4.81l-.19,0,0-4.8.18,0Z"/><path class="cls-77" d="M15.8,79.31l0,4.8L15.55,84V79.23l.24.08Z"/><path class="cls-75" d="M15.56,79.23V84l0,0V79.21l0,0Z"/></g></g></g><g class="cls-2"><g class="cls-101"><g class="cls-2"><path class="cls-70" d="M21.7,78.15l0,4.8v0l0-4.8v0Z"/><path class="cls-69" d="M21.7,78.19l0,4.8a1.24,1.24,0,0,1,0,.27l0-4.81a1.15,1.15,0,0,0,0-.26Z"/><path class="cls-68" d="M21.67,78.45l0,4.81a1.11,1.11,0,0,1-.07.26V78.71a2,2,0,0,0,.08-.26Z"/><path class="cls-67" d="M21.59,78.71v4.81l-.12.27V79a1.59,1.59,0,0,0,.12-.27Z"/><path class="cls-66" d="M21.47,79v4.81l-.19.27v-4.8a2.31,2.31,0,0,0,.19-.28Z"/><path class="cls-65" d="M21.28,79.26v4.8a4.2,4.2,0,0,1-.29.32V79.57a2.74,2.74,0,0,0,.29-.31Z"/><path class="cls-64" d="M21,79.57v4.81a4.74,4.74,0,0,1-.59.43V80a3.45,3.45,0,0,0,.59-.43Z"/><path class="cls-63" d="M20.4,80v4.81l-.06,0a4.71,4.71,0,0,1-1,.45l0-4.8a5.53,5.53,0,0,0,1-.45l0,0Z"/><path class="cls-64" d="M19.33,80.49l0,4.8a6,6,0,0,1-.88.22l0-4.81a6.63,6.63,0,0,0,.88-.21Z"/><path class="cls-65" d="M18.45,80.7l0,4.81a5.59,5.59,0,0,1-.59.08l0-4.8.59-.09Z"/><path class="cls-66" d="M17.86,80.79l0,4.8-.51,0V80.82l.52,0Z"/><path class="cls-67" d="M17.34,80.82v4.81h-.48V80.82a3.84,3.84,0,0,0,.48,0Z"/><path class="cls-68" d="M16.86,80.82v4.81l-.46,0V80.8l.46,0Z"/><path class="cls-69" d="M16.4,80.8v4.81l-.45,0V80.75l.45,0Z"/><path class="cls-70" d="M16,80.75v4.81l-.46-.08V80.67l.46.08Z"/><path class="cls-71" d="M15.49,80.67v4.81L15,85.36V80.55l.49.12Z"/><path class="cls-72" d="M15,80.55v4.81l-.56-.19V80.36l.56.19Z"/><path class="cls-73" d="M14.44,80.36v4.81a6.13,6.13,0,0,1-.68-.33,2.34,2.34,0,0,1-1.37-1.92v-4.8A2.34,2.34,0,0,0,13.77,80a4.6,4.6,0,0,0,.67.32Z"/></g></g></g><g class="cls-2"><g class="cls-102"><g class="cls-2"><path class="cls-86" d="M28,80.07v4.8l0,0,0-4.8,0,0Z"/><path class="cls-85" d="M28,80.09l0,4.8a4.63,4.63,0,0,0-.4.3l0-4.81a2.17,2.17,0,0,1,.4-.29Z"/><path class="cls-84" d="M27.56,80.38l0,4.81a1.8,1.8,0,0,0-.19.21V80.6a1.37,1.37,0,0,1,.2-.22Z"/><path class="cls-83" d="M27.36,80.6v4.8a1.21,1.21,0,0,0-.14.2l0-4.81a1.27,1.27,0,0,1,.13-.19Z"/><path class="cls-82" d="M27.23,80.79l0,4.81a1.08,1.08,0,0,0-.08.19V81a.66.66,0,0,1,.09-.19Z"/><path class="cls-81" d="M27.14,81v4.81a.6.6,0,0,0-.06.19l0-4.81a1.33,1.33,0,0,1,.05-.19Z"/><path class="cls-80" d="M27.09,81.17l0,4.81a1.23,1.23,0,0,0,0,.19v-4.8a1.2,1.2,0,0,1,0-.2Z"/><path class="cls-79" d="M27.06,81.37v0Z"/></g></g></g><g class="cls-2"><g class="cls-103"><g class="cls-2"><path class="cls-73" d="M27.9,82.76l0,4.81a1.77,1.77,0,0,1-.83-1.36V81.4a1.75,1.75,0,0,0,.84,1.36Z"/></g></g></g><path class="cls-104" d="M28,80.07a1.47,1.47,0,0,0-.09,2.69l-2.73,1.58a5.65,5.65,0,0,0-4.56,0L6.49,76.21c1.23-.78,1.11-2-.3-2.84L8.88,71.8a5.52,5.52,0,0,0,5,.12ZM13.77,80a7.27,7.27,0,0,0,6.58,0c1.81-1.06,1.8-2.76,0-3.81a7.21,7.21,0,0,0-6.58,0c-1.81,1-1.79,2.75,0,3.81Z"/><polygon class="cls-59" points="27.9 82.76 27.88 87.57 25.16 89.15 25.17 84.34 27.9 82.76"/><g class="cls-2"><g class="cls-105"><g class="cls-2"><path class="cls-75" d="M25.17,84.34v4.81l-.23-.09,0-4.81.22.09Z"/><path class="cls-77" d="M25,84.25l0,4.81-.47-.16,0-4.81.47.16Z"/><path class="cls-78" d="M24.48,84.09l0,4.81-.4-.1V84l.41.1Z"/><path class="cls-79" d="M24.07,84V88.8l-.37-.07v-4.8l.37.06Z"/><path class="cls-80" d="M23.7,83.93v4.8l-.36,0,0-4.81.35,0Z"/><path class="cls-81" d="M23.35,83.89l0,4.81-.35,0V83.87l.36,0Z"/><path class="cls-82" d="M23,83.87v4.81a2.16,2.16,0,0,0-.36,0V83.87Z"/><path class="cls-83" d="M22.63,83.87v4.81a2.34,2.34,0,0,0-.38,0V83.9l.38,0Z"/><path class="cls-84" d="M22.25,83.9v4.81l-.43.05,0-4.8a3,3,0,0,1,.42-.06Z"/><path class="cls-85" d="M21.83,84l0,4.8a5.26,5.26,0,0,0-.6.15v-4.8a3.2,3.2,0,0,1,.61-.15Z"/><path class="cls-86" d="M21.22,84.11v4.8a3.73,3.73,0,0,0-.61.26V84.36a3.71,3.71,0,0,1,.61-.25Z"/></g></g></g><polygon class="cls-61" points="20.61 84.36 20.6 89.17 6.47 81.02 6.49 76.21 20.61 84.36"/><path class="cls-106" d="M11.06,69.47l20.84,12-8.77,5.1-20.84-12ZM25.17,84.34l2.73-1.58A1.47,1.47,0,0,1,28,80.07L13.88,71.92a5.52,5.52,0,0,1-5-.12L6.19,73.37c1.41.81,1.53,2.06.3,2.84l14.12,8.15a5.65,5.65,0,0,1,4.56,0Z"/><polygon class="cls-60" points="23.13 86.6 23.12 91.4 2.28 79.37 2.29 74.56 23.13 86.6"/><polygon class="cls-58" points="31.9 81.5 31.88 86.31 23.12 91.4 23.13 86.6 31.9 81.5"/><path class="cls-104" d="M11.12,68.43l22.7,13.1L23.4,87.59.7,74.48Zm12,18.17,8.77-5.1-20.84-12L2.29,74.56l20.84,12Z"/><path class="cls-107" d="M20.32,76.23c1.83,1,1.84,2.75,0,3.81a7.27,7.27,0,0,1-6.58,0c-1.82-1.06-1.84-2.76,0-3.81A7.21,7.21,0,0,1,20.32,76.23Zm-4.8,3a2.28,2.28,0,0,0,1.94,0c.52-.3.51-.65.15-1.15s-.36-.64-.06-.81a1.17,1.17,0,0,1,1.14.06,1.19,1.19,0,0,1,.54.56l.52-.15a1.17,1.17,0,0,0-.55-.56l.57-.33-.37-.22-.59.34A2.18,2.18,0,0,0,17,77c-.51.3-.4.67,0,1.16s.3.6,0,.79a1.34,1.34,0,0,1-1.28-.08,1.24,1.24,0,0,1-.59-.63l-.54.14a1.44,1.44,0,0,0,.64.68l-.59.34.37.21.61-.35Z"/><polygon class="cls-61" points="23.4 87.59 23.38 92.4 0.69 79.29 0.7 74.48 23.4 87.59"/><polygon class="cls-59" points="33.82 81.53 33.81 86.34 23.38 92.4 23.4 87.59 33.82 81.53"/><path class="cls-108" d="M11.1,68.06,34.44,81.54,23.35,88,0,74.5ZM23.4,87.59l10.42-6.06-22.7-13.1L.7,74.48,23.4,87.59Z"/><path class="cls-109" d="M19.77,76.79l-.57.33a1.17,1.17,0,0,1,.55.56l-.52.15a1.19,1.19,0,0,0-.54-.56,1.17,1.17,0,0,0-1.14-.06c-.3.17-.24.39.06.81s.37.85-.15,1.15a2.28,2.28,0,0,1-1.94,0l-.61.35-.37-.21.59-.34a1.44,1.44,0,0,1-.64-.68l.54-.14a1.24,1.24,0,0,0,.59.63,1.34,1.34,0,0,0,1.28.08c.33-.19.29-.44,0-.79s-.47-.86,0-1.16a2.18,2.18,0,0,1,1.84,0l.59-.34Z"/><polygon class="cls-110" points="23.35 87.98 23.34 92.78 0 79.31 0.01 74.5 23.35 87.98"/><polygon class="cls-111" points="34.44 81.54 34.42 86.34 23.34 92.78 23.35 87.98 34.44 81.54"/><polygon class="cls-111" points="23.35 87.98 23.34 90.58 34.43 84.21 34.44 81.54 23.35 87.98"/><polygon class="cls-110" points="23.35 87.98 23.34 90.58 0 76.95 0.01 74.5 23.35 87.98"/><polygon class="cls-112" points="8.26 84.08 8.26 79.29 15.01 83.17 15 87.97 8.26 84.08"/><polygon class="cls-113" points="8.26 79.29 19.42 72.86 26.1 76.71 15 83.18 8.26 79.29"/><polygon class="cls-114" points="9 84.51 9 79.69 14.26 82.72 14.26 87.55 9 84.51"/><polygon class="cls-115" points="9 79.69 20.11 73.27 25.41 76.31 14.26 82.73 9 79.69"/><path class="cls-116" d="M95.68,12.49,93,14a.59.59,0,0,1-.55,0l-2.67-1.55a.54.54,0,0,1,0-.93L92.46,10A.52.52,0,0,1,93,10l2.68,1.54A.55.55,0,0,1,95.68,12.49Z"/><g class="cls-38"><path class="cls-116" d="M95.68,14.38,93,15.92a.54.54,0,0,1-.55,0l-2.67-1.54a.54.54,0,0,1,0-.94l2.65-1.53a.55.55,0,0,1,.54,0l2.68,1.55A.54.54,0,0,1,95.68,14.38Z"/></g><g class="cls-40"><path class="cls-116" d="M95.68,16.28,93,17.82a.54.54,0,0,1-.55,0l-2.67-1.54a.54.54,0,0,1,0-.94l2.65-1.54a.52.52,0,0,1,.54,0l2.68,1.54A.55.55,0,0,1,95.68,16.28Z"/></g><g class="cls-42"><path class="cls-116" d="M95.68,18.17,93,19.71a.54.54,0,0,1-.55,0l-2.67-1.54a.54.54,0,0,1,0-.93l2.65-1.54a.52.52,0,0,1,.54,0l2.68,1.54A.54.54,0,0,1,95.68,18.17Z"/></g><g class="cls-44"><path class="cls-116" d="M95.68,20.07,93,21.61a.54.54,0,0,1-.55,0l-2.67-1.54a.54.54,0,0,1,0-.94l2.65-1.54a.57.57,0,0,1,.54,0l2.68,1.54A.55.55,0,0,1,95.68,20.07Z"/></g><g class="cls-46"><path class="cls-116" d="M95.68,22,93,23.5a.57.57,0,0,1-.55,0L89.81,22a.54.54,0,0,1,0-.93l2.65-1.54a.52.52,0,0,1,.54,0L95.68,21A.54.54,0,0,1,95.68,22Z"/></g><g class="cls-48"><path class="cls-116" d="M95.68,23.86,93,25.4a.54.54,0,0,1-.55,0l-2.67-1.54a.54.54,0,0,1,0-.94l2.65-1.54a.57.57,0,0,1,.54,0l2.68,1.55A.54.54,0,0,1,95.68,23.86Z"/></g><path class="cls-116" d="M95.68,12.49,93,14a.59.59,0,0,1-.55,0l-2.67-1.55a.54.54,0,0,1,0-.93L92.46,10A.52.52,0,0,1,93,10l2.68,1.54A.55.55,0,0,1,95.68,12.49Z"/><g class="cls-3"><path d="M95.68,23.7,93,25.24a.54.54,0,0,1-.55,0L89.81,23.7a.54.54,0,0,1,0-.93l2.65-1.55a.57.57,0,0,1,.54,0l2.68,1.55A.54.54,0,0,1,95.68,23.7Z"/></g><g class="cls-3"><path d="M112.83,33.2l-2.65,1.54a.52.52,0,0,1-.54,0L107,33.2a.54.54,0,0,1,0-.94l2.65-1.54a.57.57,0,0,1,.54,0l2.67,1.55A.54.54,0,0,1,112.83,33.2Z"/></g><path class="cls-117" d="M112.83,19.55l-2.65,1.54a.57.57,0,0,1-.54,0L107,19.54a.54.54,0,0,1,0-.93l2.65-1.54a.52.52,0,0,1,.54,0l2.67,1.54A.54.54,0,0,1,112.83,19.55Z"/><g class="cls-38"><path class="cls-117" d="M112.83,21.82l-2.65,1.54a.52.52,0,0,1-.54,0L107,21.82a.54.54,0,0,1,0-.94l2.65-1.53a.55.55,0,0,1,.54,0l2.67,1.55A.54.54,0,0,1,112.83,21.82Z"/></g><g class="cls-40"><path class="cls-117" d="M112.83,24.1l-2.65,1.54a.57.57,0,0,1-.54,0L107,24.09a.54.54,0,0,1,0-.93l2.65-1.54a.52.52,0,0,1,.54,0l2.67,1.54A.54.54,0,0,1,112.83,24.1Z"/></g><g class="cls-42"><path class="cls-117" d="M112.83,26.37l-2.65,1.54a.52.52,0,0,1-.54,0L107,26.37a.54.54,0,0,1,0-.93l2.65-1.54a.52.52,0,0,1,.54,0l2.67,1.54A.54.54,0,0,1,112.83,26.37Z"/></g><g class="cls-44"><path class="cls-117" d="M112.83,28.65l-2.65,1.54a.52.52,0,0,1-.54,0L107,28.65a.54.54,0,0,1,0-.94l2.65-1.54a.55.55,0,0,1,.54,0l2.67,1.54A.54.54,0,0,1,112.83,28.65Z"/></g><g class="cls-46"><path class="cls-117" d="M112.83,30.92l-2.65,1.54a.52.52,0,0,1-.54,0L107,30.92a.54.54,0,0,1,0-.93l2.65-1.54a.52.52,0,0,1,.54,0L112.83,30A.54.54,0,0,1,112.83,30.92Z"/></g><g class="cls-48"><path class="cls-117" d="M112.83,33.2l-2.65,1.54a.52.52,0,0,1-.54,0L107,33.2a.54.54,0,0,1,0-.94l2.65-1.54a.57.57,0,0,1,.54,0l2.67,1.55A.54.54,0,0,1,112.83,33.2Z"/></g><path class="cls-118" d="M112.83,19.55l-2.65,1.54a.57.57,0,0,1-.54,0L107,19.54a.54.54,0,0,1,0-.93l2.65-1.54a.52.52,0,0,1,.54,0l2.67,1.54A.54.54,0,0,1,112.83,19.55Z"/><path class="cls-119" d="M104.42,10.9l-2.65,1.54a.57.57,0,0,1-.54,0l-2.67-1.55a.54.54,0,0,1,0-.93l2.65-1.54a.52.52,0,0,1,.54,0L104.42,10A.54.54,0,0,1,104.42,10.9Z"/><g class="cls-38"><path class="cls-119" d="M104.42,13.81l-2.65,1.54a.52.52,0,0,1-.54,0l-2.67-1.54a.54.54,0,0,1,0-.93l2.65-1.54a.52.52,0,0,1,.54,0l2.67,1.54A.54.54,0,0,1,104.42,13.81Z"/></g><g class="cls-40"><path class="cls-119" d="M104.42,16.73l-2.65,1.54a.52.52,0,0,1-.54,0l-2.67-1.54a.54.54,0,0,1,0-.94l2.65-1.54a.57.57,0,0,1,.54,0l2.67,1.55A.54.54,0,0,1,104.42,16.73Z"/></g><g class="cls-42"><path class="cls-119" d="M104.42,19.65l-2.65,1.54a.57.57,0,0,1-.54,0l-2.67-1.55a.54.54,0,0,1,0-.93l2.65-1.54a.52.52,0,0,1,.54,0l2.67,1.54A.54.54,0,0,1,104.42,19.65Z"/></g><g class="cls-44"><path class="cls-119" d="M104.42,22.56l-2.65,1.54a.52.52,0,0,1-.54,0l-2.67-1.54a.54.54,0,0,1,0-.93l2.65-1.54a.52.52,0,0,1,.54,0l2.67,1.54A.54.54,0,0,1,104.42,22.56Z"/></g><g class="cls-46"><path class="cls-119" d="M104.42,25.48,101.77,27a.52.52,0,0,1-.54,0l-2.67-1.54a.54.54,0,0,1,0-.94L101.21,23a.57.57,0,0,1,.54,0l2.67,1.55A.54.54,0,0,1,104.42,25.48Z"/></g><g class="cls-48"><path class="cls-119" d="M104.42,28.4l-2.65,1.54a.52.52,0,0,1-.54,0L98.56,28.4a.54.54,0,0,1,0-.94l2.65-1.54a.52.52,0,0,1,.54,0l2.67,1.54A.54.54,0,0,1,104.42,28.4Z"/></g><g class="cls-3"><path d="M104.42,28.39l-2.65,1.54a.52.52,0,0,1-.54,0l-2.67-1.54a.54.54,0,0,1,0-.94l2.65-1.54a.57.57,0,0,1,.54,0l2.67,1.55A.54.54,0,0,1,104.42,28.39Z"/></g><path class="cls-120" d="M104.42,10.9l-2.65,1.54a.57.57,0,0,1-.54,0l-2.67-1.55a.54.54,0,0,1,0-.93l2.65-1.54a.52.52,0,0,1,.54,0L104.42,10A.54.54,0,0,1,104.42,10.9Z"/><path class="cls-14" d="M25.06,77.41a2.58,2.58,0,0,1,0,.29l-.06.23c0,.09,0,.19-.08.28l-.09.22-.14.29a3,3,0,0,1-.23.38.18.18,0,0,1-.05.07c-.09.12-.19.25-.3.37l-.06.07a4.54,4.54,0,0,1-.38.38l-.28.23-.26.21-.32.21c-.12.08-.23.16-.36.23s-.56.3-.86.44l-.26.11q-.36.15-.72.27l-.26.09-.48.14-.36.09-.5.11-.35.07c-.34.06-.69.11-1,.14l-.32,0-.62,0-.4,0h-.92l-.46,0-.43,0-.46,0-.4-.05-.49-.09-.38-.08-.57-.13-.31-.09q-.51-.15-1-.33l-.46-.2-.23-.1c-.24-.11-.46-.23-.68-.35-1.8-1-2.7-2.41-2.7-3.78v2.55c0,1.37.9,2.73,2.71,3.78.21.12.44.24.67.35l.22.1.43.18.05,0c.32.12.65.23,1,.33l.08,0,.24,0,.56.14.16,0,.22,0,.49.09a1.08,1.08,0,0,1,.19,0l.22,0,.45,0,.22,0h.21l.46,0,.24,0a1.08,1.08,0,0,1,.18,0h.9l.62,0,.25,0h.07c.35,0,.7-.08,1-.14h.06l.29-.06.51-.11.35-.1.48-.13.1,0,.16-.06a7.66,7.66,0,0,0,.72-.27l.26-.12a8.79,8.79,0,0,0,.87-.43l.11-.07.24-.16.32-.21.26-.21.28-.23.06-.05.33-.33.06-.07.17-.21a1.09,1.09,0,0,0,.13-.17l0,0,.2-.32s0,0,0-.07.09-.19.13-.29.06-.11.08-.16,0,0,0-.06a1.29,1.29,0,0,0,.08-.28A1.21,1.21,0,0,0,25,80.3a.09.09,0,0,0,0,0,2.85,2.85,0,0,0,0-.29l0-.19V77.14A2.45,2.45,0,0,1,25.06,77.41Z"/><path class="cls-52" d="M25,77.7l-.06.23c0,.09,0,.19-.08.28l-.09.22-.14.29a3,3,0,0,1-.23.38.18.18,0,0,1-.05.07c-.09.12-.19.25-.3.37l-.06.07a4.54,4.54,0,0,1-.38.38l-.28.23-.26.21-.32.21c-.12.08-.23.16-.36.23s-.56.3-.86.44l-.26.11q-.36.15-.72.27l-.26.09-.48.14-.36.09-.5.11-.35.07c-.34.06-.69.11-1,.14l-.32,0-.62,0-.4,0h-.92l-.46,0-.43,0-.46,0-.4-.05-.49-.09-.38-.08-.57-.13-.31-.09q-.51-.15-1-.33l-.46-.2-.23-.1c-.24-.11-.46-.23-.68-.35-1.8-1-2.7-2.41-2.7-3.78v1.69c0,1.35.91,2.71,2.71,3.74.21.13.44.24.67.36l.22.09.43.19h.05c.32.13.65.24,1,.34l.08,0,.24.06.56.14.16,0,.22,0,.49.08.19,0A1.66,1.66,0,0,0,14,84l.45,0,.22,0,.21,0,.46,0h.24a1.08,1.08,0,0,0,.18,0h.9l.62,0,.25,0h.07c.35,0,.7-.08,1-.15h.06l.29-.06.51-.11.35-.1.48-.13.1,0,.16-.06c.25-.09.49-.18.72-.28l.26-.11a8.86,8.86,0,0,0,.87-.44l.11-.06.24-.16a3.62,3.62,0,0,0,.32-.22l.26-.2.28-.23.06-.05.33-.33.06-.07.17-.21.13-.17,0-.06a3.45,3.45,0,0,0,.2-.32s0,0,0-.07.09-.19.13-.28.06-.11.08-.17,0,0,0-.06a1.38,1.38,0,0,0,.08-.27,1.21,1.21,0,0,0,.05-.18.11.11,0,0,0,0,0c0-.1,0-.2,0-.29l0-.19v-1.7a2,2,0,0,1,0,.23A2.58,2.58,0,0,1,25,77.7Z"/><path class="cls-53" d="M25,77.7l-.06.23c0,.09,0,.19-.08.28l-.09.22-.14.29a3,3,0,0,1-.23.38.18.18,0,0,1-.05.07c-.09.12-.19.25-.3.37l-.06.07a4.54,4.54,0,0,1-.38.38l-.28.23-.26.21-.32.21c-.12.08-.23.16-.36.23s-.56.3-.86.44l-.26.11q-.36.15-.72.27l-.26.09-.48.14-.36.09-.5.11-.35.07c-.34.06-.69.11-1,.14l-.32,0-.62,0-.4,0h-.92l-.46,0-.43,0-.46,0-.4-.05-.49-.09-.38-.08-.57-.13-.31-.09q-.51-.15-1-.33l-.46-.2-.23-.1c-.24-.11-.46-.23-.68-.35-1.8-1-2.7-2.41-2.7-3.78v1.69c0,1.35.91,2.71,2.71,3.74.21.13.44.24.67.36l.22.09.43.19h.05c.32.13.65.24,1,.34l.08,0,.24.06.56.14.16,0,.22,0,.49.08.19,0A1.66,1.66,0,0,0,14,84l.45,0,.22,0,.21,0,.46,0h.24a1.08,1.08,0,0,0,.18,0h.9l.62,0,.25,0h.07c.35,0,.7-.08,1-.15h.06l.29-.06.51-.11.35-.1.48-.13.1,0,.16-.06c.25-.09.49-.18.72-.28l.26-.11a8.86,8.86,0,0,0,.87-.44l.11-.06.24-.16a3.62,3.62,0,0,0,.32-.22l.26-.2.28-.23.06-.05.33-.33.06-.07.17-.21.13-.17,0-.06a3.45,3.45,0,0,0,.2-.32s0,0,0-.07.09-.19.13-.28.06-.11.08-.17,0,0,0-.06a1.38,1.38,0,0,0,.08-.27,1.21,1.21,0,0,0,.05-.18.11.11,0,0,0,0,0c0-.1,0-.2,0-.29l0-.19v-1.7a2,2,0,0,1,0,.23A2.58,2.58,0,0,1,25,77.7Z"/><path class="cls-54" d="M22.38,73.37c3.59,2.07,3.61,5.43,0,7.5a14.28,14.28,0,0,1-12.95,0c-3.58-2.07-3.6-5.43,0-7.5A14.28,14.28,0,0,1,22.38,73.37Z"/><path class="cls-52" d="M22.38,73.37c3.59,2.07,3.61,5.43,0,7.5a14.28,14.28,0,0,1-12.95,0c-3.58-2.07-3.6-5.43,0-7.5A14.28,14.28,0,0,1,22.38,73.37Z"/><path class="cls-14" d="M22.38,73.81c3.59,2.07,3.61,5,0,7.06a14.28,14.28,0,0,1-12.95,0c-3.58-2.07-3.6-5,0-7.05A14.25,14.25,0,0,1,22.38,73.81Z"/><path class="cls-55" d="M9.43,73.82a14.25,14.25,0,0,1,13,0c1.69,1,2.58,2.15,2.68,3.32.12-1.32-.77-2.66-2.68-3.76a14.28,14.28,0,0,0-12.95,0c-1.88,1.09-2.75,2.42-2.64,3.73C6.89,75.94,7.76,74.78,9.43,73.82Z"/><path class="cls-56" d="M21,74.15c2.84,1.64,2.86,4.3,0,5.93a11.27,11.27,0,0,1-10.24,0C8,78.44,8,75.79,10.79,74.15A11.28,11.28,0,0,1,21,74.15Z"/><path class="cls-57" d="M20.82,74.44c2.73,1.62,2.74,4.25,0,5.88a10.57,10.57,0,0,1-9.84,0c-2.72-1.63-2.74-4.26,0-5.88A10.49,10.49,0,0,1,20.82,74.44Z"/><path class="cls-52" d="M20.54,74.85l-1,.58a2.14,2.14,0,0,1,1,1l-.92.25a1.94,1.94,0,0,0-.94-1,2,2,0,0,0-2-.12c-.53.31-.41.68.1,1.42s.65,1.49-.26,2a4,4,0,0,1-3.39.07l-1.06.62-.65-.38,1-.59a2.5,2.5,0,0,1-1.12-1.18l.94-.26a2.26,2.26,0,0,0,1,1.12,2.37,2.37,0,0,0,2.24.13c.57-.33.52-.77.06-1.39-.65-.84-.83-1.5.05-2a3.85,3.85,0,0,1,3.23-.06l1-.6Z"/><path class="cls-14" d="M29.45,73.21l0,.3-.06.23c0,.09-.05.18-.08.27a2.29,2.29,0,0,1-.1.23c0,.09-.08.19-.13.28s-.15.26-.23.39l-.05.06c-.09.13-.19.25-.3.38l-.06.07c-.12.13-.25.25-.39.38l-.27.23-.26.2-.33.22c-.11.07-.22.15-.35.22a8.69,8.69,0,0,1-.86.44l-.26.11L25,77.5l-.26.08-.47.14-.36.1-.5.1L23,78c-.34.06-.69.1-1,.14l-.32,0-.63,0H19.72l-.47,0-.42,0-.46-.05L18,78,17.48,78l-.38-.08-.57-.14-.32-.08c-.33-.1-.66-.21-1-.34l-.46-.19L14.53,77c-.23-.11-.45-.22-.67-.35-1.8-1-2.71-2.41-2.7-3.77v2.55c0,1.36.9,2.73,2.7,3.77a7.24,7.24,0,0,0,.68.35l.22.1c.14.06.28.13.43.18l.05,0a9.38,9.38,0,0,0,1,.33l.08,0,.23.06.57.14.15,0,.23,0c.16,0,.32.06.49.09l.19,0,.21,0,.46,0,.22,0h.21l.46,0H21l.62,0,.25,0H22c.35,0,.7-.09,1-.15h0l.3-.07.51-.1.35-.1.48-.14.1,0L25,80q.36-.12.72-.27l.26-.11a7.71,7.71,0,0,0,.86-.44l.12-.06.23-.16.33-.22.26-.2.28-.23.05,0q.18-.17.33-.33l.06-.07c.06-.07.13-.14.18-.21l.13-.17,0-.06c.07-.11.14-.21.2-.32l0-.07c.05-.09.09-.19.14-.28s.05-.11.07-.17,0,0,0-.06a2.76,2.76,0,0,0,.08-.27,1.05,1.05,0,0,0,0-.19.07.07,0,0,0,0,0,2.66,2.66,0,0,0,0-.28,1.37,1.37,0,0,0,0-.19V73A2.11,2.11,0,0,1,29.45,73.21Z"/><path class="cls-52" d="M29.42,73.51l-.06.23c0,.09-.05.18-.08.27a2.29,2.29,0,0,1-.1.23c0,.09-.08.19-.13.28s-.15.26-.23.39l-.05.06c-.09.13-.19.25-.3.38l-.06.07c-.12.13-.25.25-.39.38l-.27.23-.26.2-.33.22c-.11.07-.22.15-.35.22a8.69,8.69,0,0,1-.86.44l-.26.11L25,77.5l-.26.08-.47.14-.36.1-.5.1L23,78c-.34.06-.69.1-1,.14l-.32,0-.63,0H19.72l-.47,0-.42,0-.46-.05L18,78,17.48,78l-.38-.08-.57-.14-.32-.08c-.33-.1-.66-.21-1-.34l-.46-.19L14.53,77c-.23-.11-.45-.22-.67-.35-1.8-1-2.71-2.41-2.7-3.77v1.68c0,1.36.91,2.71,2.7,3.75.22.12.44.24.68.35l.22.1c.14.06.28.13.43.18l.05,0c.31.12.64.23,1,.33l.08,0a1.55,1.55,0,0,1,.23.06l.57.13.15,0,.23,0,.49.09.19,0,.21,0,.46,0,.22,0h.21l.46,0H21l.62,0h.25l.07,0c.35,0,.7-.08,1-.14h0l.3-.06.51-.11.35-.09.48-.14.1,0,.16-.06q.36-.12.72-.27l.26-.11c.3-.14.59-.28.86-.44l.12-.07.23-.16.33-.21.26-.21.28-.23.05,0c.12-.11.23-.23.33-.34l.06-.07c.06-.07.13-.14.18-.21s.08-.11.13-.16l0-.06.2-.32,0-.07.14-.29.07-.16s0,0,0-.06a2.76,2.76,0,0,0,.08-.27,1.8,1.8,0,0,0,0-.19.09.09,0,0,0,0,0,2.58,2.58,0,0,0,0-.29,1.1,1.1,0,0,0,0-.18V73a1.64,1.64,0,0,1,0,.23Z"/><path class="cls-53" d="M29.42,73.51l-.06.23c0,.09-.05.18-.08.27a2.29,2.29,0,0,1-.1.23c0,.09-.08.19-.13.28s-.15.26-.23.39l-.05.06c-.09.13-.19.25-.3.38l-.06.07c-.12.13-.25.25-.39.38l-.27.23-.26.2-.33.22c-.11.07-.22.15-.35.22a8.69,8.69,0,0,1-.86.44l-.26.11L25,77.5l-.26.08-.47.14-.36.1-.5.1L23,78c-.34.06-.69.1-1,.14l-.32,0-.63,0H19.72l-.47,0-.42,0-.46-.05L18,78,17.48,78l-.38-.08-.57-.14-.32-.08c-.33-.1-.66-.21-1-.34l-.46-.19L14.53,77c-.23-.11-.45-.22-.67-.35-1.8-1-2.71-2.41-2.7-3.77v1.68c0,1.36.91,2.71,2.7,3.75.22.12.44.24.68.35l.22.1c.14.06.28.13.43.18l.05,0c.31.12.64.23,1,.33l.08,0a1.55,1.55,0,0,1,.23.06l.57.13.15,0,.23,0,.49.09.19,0,.21,0,.46,0,.22,0h.21l.46,0H21l.62,0h.25l.07,0c.35,0,.7-.08,1-.14h0l.3-.06.51-.11.35-.09.48-.14.1,0,.16-.06q.36-.12.72-.27l.26-.11c.3-.14.59-.28.86-.44l.12-.07.23-.16.33-.21.26-.21.28-.23.05,0c.12-.11.23-.23.33-.34l.06-.07c.06-.07.13-.14.18-.21s.08-.11.13-.16l0-.06.2-.32,0-.07.14-.29.07-.16s0,0,0-.06a2.76,2.76,0,0,0,.08-.27,1.8,1.8,0,0,0,0-.19.09.09,0,0,0,0,0,2.58,2.58,0,0,0,0-.29,1.1,1.1,0,0,0,0-.18V73a1.64,1.64,0,0,1,0,.23Z"/><path class="cls-54" d="M26.77,69.17c3.59,2.07,3.6,5.43,0,7.5a14.25,14.25,0,0,1-12.95,0c-3.59-2.07-3.61-5.42,0-7.5A14.28,14.28,0,0,1,26.77,69.17Z"/><path class="cls-52" d="M26.77,69.17c3.59,2.07,3.6,5.43,0,7.5a14.25,14.25,0,0,1-12.95,0c-3.59-2.07-3.61-5.42,0-7.5A14.28,14.28,0,0,1,26.77,69.17Z"/><path class="cls-14" d="M26.77,69.62c3.59,2.07,3.6,5,0,7a14.25,14.25,0,0,1-12.95,0c-3.59-2.07-3.61-5,0-7A14.28,14.28,0,0,1,26.77,69.62Z"/><path class="cls-55" d="M13.82,69.62a14.28,14.28,0,0,1,13,0c1.69,1,2.58,2.14,2.68,3.32.11-1.33-.77-2.67-2.68-3.77a14.28,14.28,0,0,0-12.95,0c-1.88,1.1-2.76,2.42-2.64,3.74C11.28,71.74,12.15,70.59,13.82,69.62Z"/><path class="cls-56" d="M25.41,70c2.84,1.63,2.85,4.29,0,5.93a11.27,11.27,0,0,1-10.24,0c-2.84-1.64-2.85-4.29,0-5.93A11.25,11.25,0,0,1,25.41,70Z"/><path class="cls-57" d="M25.21,70.24c2.73,1.62,2.74,4.26,0,5.88a10.49,10.49,0,0,1-9.83,0c-2.72-1.62-2.74-4.25,0-5.88A10.55,10.55,0,0,1,25.21,70.24Z"/><path class="cls-52" d="M24.93,70.66l-1,.58a2.13,2.13,0,0,1,1,1l-.92.26a2.07,2.07,0,0,0-.95-1,2,2,0,0,0-2-.11c-.53.31-.41.68.11,1.42s.64,1.48-.26,2a4,4,0,0,1-3.39.07l-1.07.61-.64-.37,1-.6a2.44,2.44,0,0,1-1.12-1.17l.94-.26a2.16,2.16,0,0,0,1,1.11,2.36,2.36,0,0,0,2.23.14c.58-.34.52-.77.06-1.39-.64-.85-.82-1.51.06-2a3.79,3.79,0,0,1,3.22-.07l1-.6Z"/></g></g></g></svg>