<svg xmlns="http://www.w3.org/2000/svg" viewBox="0 0 87.43 113.31"><defs><style>.cls-1{fill:#ff7fb7;}.cls-2,.cls-42{opacity:0.1;}.cls-3{fill:#ffebc4;}.cls-17,.cls-3{opacity:0.6;}.cls-4{opacity:0.83;}.cls-5{fill:#ffeece;}.cls-5,.cls-6{opacity:0.67;}.cls-7{fill:#fff2d8;opacity:0.73;}.cls-8{opacity:0.5;}.cls-9{fill:#fff5e2;opacity:0.8;}.cls-10{opacity:0.33;}.cls-11{fill:#fff8eb;opacity:0.87;}.cls-12{opacity:0.17;}.cls-13{fill:#fffcf5;opacity:0.93;}.cls-14{opacity:0;}.cls-15,.cls-17{fill:#fff;}.cls-16{opacity:0.3;}.cls-18{fill:#ffda00;}.cls-19{fill:#ffd859;}.cls-20{fill:#ff9e03;}.cls-21{fill:#f2b42b;}.cls-22{fill:#ffed94;}.cls-23{fill:#de821f;}.cls-24{fill:#ffb101;}.cls-25{fill:#6e4827;}.cls-26{fill:#0b141a;}.cls-27{fill:#1d2a36;}.cls-28{fill:#263744;}.cls-29{fill:#e6a376;}.cls-30{fill:#a6e6ff;}.cls-31{fill:#eaeaea;}.cls-32{fill:#d8d8d8;}.cls-33{fill:#0c2937;}.cls-34{fill:#77d2ff;}.cls-35{fill:#dd9569;}.cls-36{fill:#efb185;}.cls-37{fill:#704827;}.cls-38{fill:#714b29;}.cls-39{fill:#f9f8f8;}.cls-40{fill:#d32075;}.cls-41{fill:#29252d;}.cls-43{fill:#111114;}.cls-44{fill:#52517b;}.cls-45{fill:#404063;}.cls-46{fill:#1e1b21;}.cls-47{fill:#221101;}.cls-48{fill:#341c09;}.cls-49{fill:#def0f9;}.cls-50{fill:#2e2b33;}.cls-51{fill:#ffdf75;}.cls-52{fill:#fdcde7;}.cls-53{fill:#a1f7f6;}</style></defs><title>Zasób 3</title><g id="Warstwa_2" data-name="Warstwa 2"><g id="Layer_1" data-name="Layer 1"><polygon class="cls-1" points="0.85 55.06 0 54.75 5.35 39.85 11.07 46.95 14.8 37.62 20.68 40.12 24.79 13.22 35.59 31.04 39.43 24.18 47.14 27.06 51.28 22.05 56.45 22.05 64.91 0 68.22 12.2 78.19 6.17 78.66 6.95 67.66 13.59 64.76 2.92 57.07 22.96 51.71 22.96 47.43 28.13 39.84 25.3 35.62 32.84 25.31 15.83 21.4 41.41 15.3 38.81 11.34 48.72 5.65 41.68 0.85 55.06"/><g class="cls-2"><path d="M72.42,72.54c5.9,3.4,5.93,8.19.07,11.59s-15.37,3.4-21.27,0-5.92-8.18-.07-11.58S66.53,69.14,72.42,72.54Z"/></g><path class="cls-3" d="M72.46,71.54C78,74.4,78,79,72.52,81.81s-14.25,2.86-19.76,0-5.49-7.44-.06-10.27S67,68.71,72.46,71.54Z"/><g class="cls-4"><path class="cls-5" d="M73.69,62.5c6.27,3.25,6.25,8.47.07,11.69s-16.22,3.26-22.5,0S45,65.72,51.19,62.5,67.47,59.28,73.69,62.5Z"/></g><g class="cls-6"><path class="cls-7" d="M74.92,53.46c7,3.65,7,9.5.08,13.12s-18.2,3.65-25.24,0-7-9.5-.08-13.12S67.94,49.84,74.92,53.46Z"/></g><g class="cls-8"><path class="cls-9" d="M76.16,44.42c7.8,4,7.77,10.54.08,14.54s-20.17,4-28,0-7.78-10.53-.09-14.54S68.42,40.41,76.16,44.42Z"/></g><g class="cls-10"><path class="cls-11" d="M77.39,35.38c8.57,4.44,8.53,11.57.09,16s-22.15,4.44-30.72,0-8.54-11.57-.1-16S68.89,31,77.39,35.38Z"/></g><g class="cls-12"><path class="cls-13" d="M78.62,26.34c9.33,4.84,9.3,12.6.1,17.39s-24.12,4.84-33.45,0S36,31.13,45.15,26.34,69.37,21.55,78.62,26.34Z"/></g><g class="cls-14"><path class="cls-15" d="M79.85,17.3C90,22.54,89.91,30.93,80,36.12s-26.1,5.23-36.19,0S33.7,22.49,43.64,17.3,69.84,12.12,79.85,17.3Z"/></g><g class="cls-16"><path class="cls-17" d="M72.46,71.59C78,74.44,78,79,72.52,81.86s-14.25,2.85-19.76,0-5.49-7.44-.06-10.27S67,68.76,72.46,71.59Z"/></g><path class="cls-18" d="M74.21,74c0,.13,0,.26,0,.39s0,.21-.08.32a2.59,2.59,0,0,1-.11.37,1.94,1.94,0,0,1-.13.3,3.39,3.39,0,0,1-.18.39,4.15,4.15,0,0,1-.32.53l-.06.08a6.11,6.11,0,0,1-.41.51l-.08.1c-.16.17-.33.34-.52.51s-.25.21-.38.31a3.3,3.3,0,0,1-.35.28l-.44.29-.48.31a11.64,11.64,0,0,1-1.17.59l-.35.16-1,.37-.36.12-.64.18-.48.13c-.23.06-.46.1-.69.15l-.47.1c-.47.08-.94.14-1.41.19l-.44,0-.84,0-.54,0H61l-.63,0-.58,0-.62-.07-.55-.07L58,80.46l-.52-.1-.77-.19-.43-.12c-.45-.13-.9-.28-1.33-.45l-.63-.26L54,79.2c-.31-.15-.62-.31-.91-.48-2.45-1.41-3.67-3.27-3.67-5.12v3.45c0,1.86,1.22,3.71,3.67,5.13.29.17.6.33.91.48l.31.13.57.25.07,0c.44.17.88.32,1.34.45l.1,0,.32.08.78.19.2.05.31,0,.66.12.26,0,.29,0,.62.07.3,0h.28l.63,0h1.25c.11,0,.23,0,.34,0l.2,0,.84-.05.33,0h.11c.47,0,.94-.11,1.41-.2h.07l.4-.08c.23,0,.46-.09.69-.15l.48-.13.64-.18.14,0,.22-.08c.33-.12.66-.24,1-.38l.35-.15a10.66,10.66,0,0,0,1.17-.59l.15-.09.33-.22.44-.29c.12-.09.24-.18.35-.28s.26-.2.38-.31l.08-.06a6.16,6.16,0,0,0,.44-.45l.08-.1c.09-.09.17-.19.25-.28l.17-.23a.56.56,0,0,1,0-.08c.1-.15.2-.29.28-.43l0-.1c.07-.13.13-.26.18-.38l.11-.23s0-.05,0-.08.08-.25.11-.37l.07-.25s0,0,0-.07,0-.26,0-.39a2.42,2.42,0,0,0,0-.25V73.67C74.24,73.79,74.22,73.91,74.21,74Z"/><path class="cls-19" d="M74.17,74.42c0,.11,0,.21-.08.32a2.59,2.59,0,0,1-.11.37,1.94,1.94,0,0,1-.13.3,3.39,3.39,0,0,1-.18.39,4.15,4.15,0,0,1-.32.53l-.06.08a6.11,6.11,0,0,1-.41.51l-.08.1c-.16.17-.33.34-.52.51s-.25.21-.38.31a3.3,3.3,0,0,1-.35.28l-.44.29-.48.31a11.64,11.64,0,0,1-1.17.59l-.35.16-1,.37-.36.12-.64.18-.48.13c-.23.06-.46.1-.69.15l-.47.1c-.47.08-.94.14-1.41.19l-.44,0-.84,0-.54,0H61l-.63,0-.58,0-.62-.07-.55-.07L58,80.46l-.52-.1-.77-.19-.43-.12c-.45-.13-.9-.28-1.33-.45l-.63-.26L54,79.2c-.31-.15-.62-.31-.91-.48-2.45-1.41-3.67-3.27-3.67-5.12v2.28c0,1.84,1.23,3.68,3.66,5.09a9.76,9.76,0,0,0,.91.47l.31.14.57.25.07,0c.44.17.88.32,1.34.45l.1,0,.32.07c.26.07.51.14.78.19l.2.05c.1,0,.21,0,.31.06l.66.11.26.05.29,0,.62.07c.1,0,.2,0,.3,0l.28,0,.63,0,.32,0h1.47q.42,0,.84-.06L64,83h.11c.47,0,.94-.12,1.41-.2h.07l.4-.08.69-.15.48-.13.64-.19.14,0,.22-.09c.33-.11.66-.23,1-.37l.35-.15A12.78,12.78,0,0,0,70.62,81l.15-.09c.12-.07.22-.15.33-.22l.44-.29.35-.28.38-.31.08-.07a3.73,3.73,0,0,0,.44-.45l.08-.09.25-.28c.06-.08.11-.16.17-.23a.56.56,0,0,1,0-.08c.1-.15.2-.29.28-.44a.36.36,0,0,0,0-.09,3.39,3.39,0,0,0,.18-.39,2.26,2.26,0,0,0,.11-.22s0-.06,0-.08.08-.25.11-.37,0-.17.07-.25,0,0,0-.07,0-.26,0-.39a2.3,2.3,0,0,0,0-.26V73.71c0,.11,0,.21,0,.32S74.19,74.29,74.17,74.42Z"/><path class="cls-20" d="M74.17,74.42c0,.11,0,.21-.08.32a2.59,2.59,0,0,1-.11.37,1.94,1.94,0,0,1-.13.3,3.39,3.39,0,0,1-.18.39,4.15,4.15,0,0,1-.32.53l-.06.08a6.11,6.11,0,0,1-.41.51l-.08.1c-.16.17-.33.34-.52.51s-.25.21-.38.31a3.3,3.3,0,0,1-.35.28l-.44.29-.48.31a11.64,11.64,0,0,1-1.17.59l-.35.16-1,.37-.36.12-.64.18-.48.13c-.23.06-.46.1-.69.15l-.47.1c-.47.08-.94.14-1.41.19l-.44,0-.84,0-.54,0H61l-.63,0-.58,0-.62-.07-.55-.07L58,80.46l-.52-.1-.77-.19-.43-.12c-.45-.13-.9-.28-1.33-.45l-.63-.26L54,79.2c-.31-.15-.62-.31-.91-.48-2.45-1.41-3.67-3.27-3.67-5.12v2.28c0,1.84,1.23,3.68,3.66,5.09a9.76,9.76,0,0,0,.91.47l.31.14.57.25.07,0c.44.17.88.32,1.34.45l.1,0,.32.07c.26.07.51.14.78.19l.2.05c.1,0,.21,0,.31.06l.66.11.26.05.29,0,.62.07c.1,0,.2,0,.3,0l.28,0,.63,0,.32,0h1.47q.42,0,.84-.06L64,83h.11c.47,0,.94-.12,1.41-.2h.07l.4-.08.69-.15.48-.13.64-.19.14,0,.22-.09c.33-.11.66-.23,1-.37l.35-.15A12.78,12.78,0,0,0,70.62,81l.15-.09c.12-.07.22-.15.33-.22l.44-.29.35-.28.38-.31.08-.07a3.73,3.73,0,0,0,.44-.45l.08-.09.25-.28c.06-.08.11-.16.17-.23a.56.56,0,0,1,0-.08c.1-.15.2-.29.28-.44a.36.36,0,0,0,0-.09,3.39,3.39,0,0,0,.18-.39,2.26,2.26,0,0,0,.11-.22s0-.06,0-.08.08-.25.11-.37,0-.17.07-.25,0,0,0-.07,0-.26,0-.39a2.3,2.3,0,0,0,0-.26V73.71c0,.11,0,.21,0,.32S74.19,74.29,74.17,74.42Z"/><path class="cls-21" d="M70.57,68.54c4.87,2.81,4.9,7.37.06,10.18s-12.7,2.81-17.57,0S48.17,71.36,53,68.54,65.71,65.73,70.57,68.54Z"/><path class="cls-19" d="M70.57,68.54c4.87,2.81,4.9,7.37.06,10.18s-12.7,2.81-17.57,0S48.17,71.36,53,68.54,65.71,65.73,70.57,68.54Z"/><path class="cls-18" d="M70.58,69.15c4.86,2.81,4.89,6.76,0,9.57s-12.7,2.81-17.57,0S48.17,72,53,69.15,65.71,66.34,70.58,69.15Z"/><path class="cls-22" d="M53,69.15c4.84-2.81,12.71-2.81,17.58,0,2.29,1.33,3.5,2.91,3.64,4.5.15-1.79-1.06-3.61-3.64-5.11-4.87-2.81-12.74-2.81-17.58,0-2.55,1.49-3.74,3.29-3.58,5.07C49.55,72,50.74,70.47,53,69.15Z"/><path class="cls-23" d="M68.74,69.61c3.85,2.22,3.87,5.82,0,8a15.29,15.29,0,0,1-13.89,0c-3.85-2.22-3.87-5.82,0-8A15.34,15.34,0,0,1,68.74,69.61Z"/><path class="cls-24" d="M68.46,70c3.7,2.21,3.72,5.78.05,8a14.27,14.27,0,0,1-13.35,0c-3.69-2.2-3.71-5.77,0-8A14.31,14.31,0,0,1,68.46,70Z"/><path class="cls-19" d="M68.08,70.56l-1.36.79A2.88,2.88,0,0,1,68,72.68L66.78,73a2.75,2.75,0,0,0-1.29-1.31,2.71,2.71,0,0,0-2.68-.16c-.72.42-.56.92.14,1.93.85,1.17.88,2-.36,2.73a5.44,5.44,0,0,1-4.6.09l-1.44.83-.87-.5,1.4-.81a3.35,3.35,0,0,1-1.53-1.6l1.28-.35a3,3,0,0,0,1.4,1.51,3.18,3.18,0,0,0,3,.19c.78-.45.71-1,.08-1.89-.87-1.15-1.12-2,.08-2.74a5.18,5.18,0,0,1,4.37-.09l1.4-.81Z"/><path class="cls-18" d="M76.82,68.24a2.57,2.57,0,0,1,0,.4c0,.1,0,.21-.07.31l-.11.38-.13.3a3.39,3.39,0,0,1-.18.39,5.58,5.58,0,0,1-.32.52l-.06.09a6.11,6.11,0,0,1-.41.51l-.08.09c-.16.18-.34.35-.52.52l-.38.31-.35.28-.44.29-.48.31c-.37.21-.77.41-1.17.59l-.36.15c-.32.14-.64.26-1,.37-.12,0-.24.09-.36.12l-.64.19-.49.13-.69.14-.46.1c-.47.08-.94.15-1.42.2l-.43,0c-.28,0-.57.05-.85.06l-.53,0h-.69l-.57,0L63,75l-.58,0-.62-.07-.55-.08-.66-.11-.52-.11c-.26,0-.52-.12-.77-.18l-.43-.12c-.45-.13-.9-.28-1.33-.45-.21-.08-.42-.18-.63-.27l-.32-.14c-.31-.15-.62-.3-.91-.47C53.22,71.52,52,69.67,52,67.81v3.46c0,1.85,1.22,3.71,3.67,5.12.29.17.6.33.91.48l.3.13c.2.09.38.18.58.25l.07,0c.43.17.88.31,1.33.45l.11,0,.32.08.77.19.21,0,.3.06.67.11.26,0,.29,0,.62.07.3,0,.28,0,.62,0,.32,0h.94c.11,0,.22,0,.33,0h.2l.85-.06.33,0,.1,0c.48,0,1-.11,1.42-.19h.07l.39-.09.69-.14.49-.13.64-.19.14,0,.21-.08c.34-.11.66-.24,1-.37l.36-.15c.4-.18.8-.38,1.17-.59l.15-.09.33-.22.44-.29.35-.28.38-.31.07-.07c.16-.14.31-.3.45-.45l.08-.09a3.07,3.07,0,0,0,.24-.29,1.63,1.63,0,0,0,.17-.22L76,74a3.87,3.87,0,0,0,.27-.43l0-.09c.07-.13.12-.26.18-.39s.08-.15.11-.23,0,0,0-.07.07-.25.1-.37a2.58,2.58,0,0,0,.08-.26V72.1a2.6,2.6,0,0,0,0-.39,2.3,2.3,0,0,0,0-.26V67.88C76.85,68,76.83,68.12,76.82,68.24Z"/><path class="cls-19" d="M76.77,68.64c0,.1,0,.21-.07.31l-.11.38-.13.3a3.39,3.39,0,0,1-.18.39,5.58,5.58,0,0,1-.32.52l-.06.09a6.11,6.11,0,0,1-.41.51l-.08.09c-.16.18-.34.35-.52.52l-.38.31-.35.28-.44.29-.48.31c-.37.21-.77.41-1.17.59l-.36.15c-.32.14-.64.26-1,.37-.12,0-.24.09-.36.12l-.64.19-.49.13-.69.14-.46.1c-.47.08-.94.15-1.42.2l-.43,0c-.28,0-.57.05-.85.06l-.53,0h-.69l-.57,0L63,75l-.58,0-.62-.07-.55-.08-.66-.11-.52-.11c-.26,0-.52-.12-.77-.18l-.43-.12c-.45-.13-.9-.28-1.33-.45-.21-.08-.42-.18-.63-.27l-.32-.14c-.31-.15-.62-.3-.91-.47C53.22,71.52,52,69.67,52,67.81V70.1c0,1.84,1.24,3.68,3.67,5.08.29.17.6.33.91.48l.3.13.58.25.07,0c.43.16.88.31,1.33.45l.11,0,.32.08.77.19.21.05.3,0,.67.12.26,0,.29,0,.62.07c.1,0,.2,0,.3,0H63l.62,0,.32,0a2.08,2.08,0,0,1,.25,0h1.22l.85-.06.33,0,.1,0c.48,0,1-.11,1.42-.2h.07l.39-.09c.24,0,.47-.09.69-.15l.49-.13c.21,0,.43-.11.64-.18l.14,0,.21-.08,1-.37.36-.15c.4-.19.8-.38,1.17-.6l.15-.08.33-.22.44-.3.35-.27.38-.32.07-.06.45-.45.08-.1a2.09,2.09,0,0,0,.24-.28,1.24,1.24,0,0,0,.17-.23l.06-.08a5.08,5.08,0,0,0,.27-.43.73.73,0,0,1,0-.09c.07-.14.12-.26.18-.39s.08-.15.11-.23,0-.05,0-.08.07-.24.1-.37a1.83,1.83,0,0,0,.08-.25v-.07a2.6,2.6,0,0,0,0-.39,2.13,2.13,0,0,0,0-.25V67.93l0,.31A2.57,2.57,0,0,1,76.77,68.64Z"/><path class="cls-20" d="M76.77,68.64c0,.1,0,.21-.07.31l-.11.38-.13.3a3.39,3.39,0,0,1-.18.39,5.58,5.58,0,0,1-.32.52l-.06.09a6.11,6.11,0,0,1-.41.51l-.08.09c-.16.18-.34.35-.52.52l-.38.31-.35.28-.44.29-.48.31c-.37.21-.77.41-1.17.59l-.36.15c-.32.14-.64.26-1,.37-.12,0-.24.09-.36.12l-.64.19-.49.13-.69.14-.46.1c-.47.08-.94.15-1.42.2l-.43,0c-.28,0-.57.05-.85.06l-.53,0h-.69l-.57,0L63,75l-.58,0-.62-.07-.55-.08-.66-.11-.52-.11c-.26,0-.52-.12-.77-.18l-.43-.12c-.45-.13-.9-.28-1.33-.45-.21-.08-.42-.18-.63-.27l-.32-.14c-.31-.15-.62-.3-.91-.47C53.22,71.52,52,69.67,52,67.81V70.1c0,1.84,1.24,3.68,3.67,5.08.29.17.6.33.91.48l.3.13.58.25.07,0c.43.16.88.31,1.33.45l.11,0,.32.08.77.19.21.05.3,0,.67.12.26,0,.29,0,.62.07c.1,0,.2,0,.3,0H63l.62,0,.32,0a2.08,2.08,0,0,1,.25,0h1.22l.85-.06.33,0,.1,0c.48,0,1-.11,1.42-.2h.07l.39-.09c.24,0,.47-.09.69-.15l.49-.13c.21,0,.43-.11.64-.18l.14,0,.21-.08,1-.37.36-.15c.4-.19.8-.38,1.17-.6l.15-.08.33-.22.44-.3.35-.27.38-.32.07-.06.45-.45.08-.1a2.09,2.09,0,0,0,.24-.28,1.24,1.24,0,0,0,.17-.23l.06-.08a5.08,5.08,0,0,0,.27-.43.73.73,0,0,1,0-.09c.07-.14.12-.26.18-.39s.08-.15.11-.23,0-.05,0-.08.07-.24.1-.37a1.83,1.83,0,0,0,.08-.25v-.07a2.6,2.6,0,0,0,0-.39,2.13,2.13,0,0,0,0-.25V67.93l0,.31A2.57,2.57,0,0,1,76.77,68.64Z"/><path class="cls-21" d="M73.18,62.76c4.87,2.81,4.9,7.37.06,10.18s-12.7,2.81-17.57,0-4.9-7.37-.06-10.18S68.31,60,73.18,62.76Z"/><path class="cls-19" d="M73.18,62.76c4.87,2.81,4.9,7.37.06,10.18s-12.7,2.81-17.57,0-4.9-7.37-.06-10.18S68.31,60,73.18,62.76Z"/><path class="cls-18" d="M73.18,63.36c4.87,2.81,4.9,6.77.06,9.58s-12.7,2.81-17.57,0-4.9-6.77-.06-9.57S68.31,60.55,73.18,63.36Z"/><path class="cls-22" d="M55.61,63.37c4.84-2.81,12.7-2.82,17.57,0,2.3,1.33,3.51,2.91,3.64,4.51.16-1.8-1-3.62-3.64-5.11C68.31,60,60.45,60,55.61,62.76c-2.55,1.48-3.74,3.29-3.58,5.07C52.16,66.25,53.34,64.68,55.61,63.37Z"/><path class="cls-23" d="M71.34,63.82c3.85,2.23,3.87,5.83,0,8.05a15.32,15.32,0,0,1-13.89,0c-3.85-2.22-3.87-5.82,0-8.05A15.32,15.32,0,0,1,71.34,63.82Z"/><path class="cls-24" d="M71.07,64.21c3.7,2.2,3.72,5.77,0,8a14.31,14.31,0,0,1-13.34,0c-3.7-2.21-3.72-5.78,0-8A14.28,14.28,0,0,1,71.07,64.21Z"/><path class="cls-19" d="M70.68,64.77l-1.36.79a2.79,2.79,0,0,1,1.31,1.34l-1.24.35a2.77,2.77,0,0,0-1.29-1.32,2.73,2.73,0,0,0-2.68-.15c-.72.41-.56.92.13,1.93.86,1.17.88,2-.35,2.72a5.4,5.4,0,0,1-4.6.09l-1.44.84-.87-.5,1.4-.82a3.34,3.34,0,0,1-1.53-1.59l1.27-.35a3,3,0,0,0,1.4,1.51,3.23,3.23,0,0,0,3,.19c.78-.46.7-1,.08-1.89-.88-1.15-1.12-2,.08-2.74a5.14,5.14,0,0,1,4.37-.09l1.4-.82Z"/><path class="cls-18" d="M74.22,63.32a2.57,2.57,0,0,1,0,.4,2.81,2.81,0,0,1-.08.31c0,.13-.06.26-.1.38l-.13.3c-.06.13-.11.26-.18.39a5.58,5.58,0,0,1-.32.52l-.06.09c-.13.17-.26.34-.41.51l-.08.09a6.53,6.53,0,0,1-.53.52l-.37.31-.35.28-.44.29-.48.31a13,13,0,0,1-1.18.59l-.35.15a10.42,10.42,0,0,1-1,.37c-.12,0-.23.09-.35.12l-.64.19-.49.13-.69.15-.46.09c-.47.08-.94.15-1.42.2l-.44,0q-.42,0-.84.06l-.53,0h-.69l-.57,0-.62,0-.58,0L59.19,70l-.55-.08L58,69.76l-.51-.11c-.26-.05-.52-.12-.77-.19l-.43-.11a13.84,13.84,0,0,1-1.33-.45c-.22-.08-.42-.18-.63-.27L54,68.49c-.32-.15-.62-.3-.91-.47-2.45-1.42-3.68-3.27-3.67-5.13v3.46c0,1.86,1.22,3.71,3.67,5.13.29.16.6.32.91.47l.3.14c.19.08.38.17.58.24l.07,0c.43.17.88.31,1.33.45l.11,0,.32.07.77.19.21,0,.3.06.67.11.26,0,.29,0,.62.07.3,0,.28,0,.62,0,.32,0h.93c.12,0,.23,0,.34,0h.2q.42,0,.84-.06l.34,0h.1c.48,0,1-.12,1.41-.2h.07c.14,0,.27-.06.4-.09l.69-.14.48-.13.65-.19.13,0,.22-.08a10.42,10.42,0,0,0,1-.37l.36-.15c.4-.18.8-.38,1.17-.59l.15-.09c.12-.07.22-.15.32-.22l.45-.29.35-.28.38-.31a.46.46,0,0,1,.07-.07q.24-.23.45-.45l.08-.09c.08-.1.17-.19.24-.29a2,2,0,0,0,.17-.23l.06-.07c.1-.15.19-.29.27-.44l0-.09c.07-.13.12-.26.18-.39s.08-.15.1-.22l0-.08c0-.13.07-.25.1-.37s.06-.17.08-.25v-.07a2.6,2.6,0,0,0,0-.39l0-.26V63C74.25,63.08,74.23,63.2,74.22,63.32Z"/><path class="cls-19" d="M74.17,63.72a2.81,2.81,0,0,1-.08.31c0,.13-.06.26-.1.38l-.13.3c-.06.13-.11.26-.18.39a5.58,5.58,0,0,1-.32.52l-.06.09c-.13.17-.26.34-.41.51l-.08.09a6.53,6.53,0,0,1-.53.52l-.37.31-.35.28-.44.29-.48.31a13,13,0,0,1-1.18.59l-.35.15a10.42,10.42,0,0,1-1,.37c-.12,0-.23.09-.35.12l-.64.19-.49.13-.69.15-.46.09c-.47.08-.94.15-1.42.2l-.44,0q-.42,0-.84.06l-.53,0h-.69l-.57,0-.62,0-.58,0L59.19,70l-.55-.08L58,69.76l-.51-.11c-.26-.05-.52-.12-.77-.19l-.43-.11a13.84,13.84,0,0,1-1.33-.45c-.22-.08-.42-.18-.63-.27L54,68.49c-.32-.15-.62-.3-.91-.47-2.45-1.42-3.68-3.27-3.67-5.13v2.29c0,1.84,1.24,3.68,3.67,5.08.29.17.6.33.91.48l.3.13a6,6,0,0,0,.58.25l.07,0c.43.16.88.31,1.33.45l.11,0,.32.08.77.19.21,0,.3,0c.22,0,.44.09.67.12l.26,0,.29,0,.62.07.3,0,.28,0,.62,0,.32,0a2.09,2.09,0,0,1,.25,0h1.22l.84-.06.34,0,.1,0c.48,0,1-.11,1.41-.19h.07L66,72q.35-.06.69-.15l.48-.13c.22-.05.44-.11.65-.18l.13,0,.22-.08c.34-.11.66-.24,1-.37l.36-.15c.4-.19.8-.38,1.17-.6l.15-.08c.12-.07.22-.15.32-.22l.45-.3.35-.27.38-.32.07-.06q.24-.23.45-.45l.08-.1a3.22,3.22,0,0,0,.24-.28,2,2,0,0,0,.17-.23l.06-.08a3.87,3.87,0,0,0,.27-.43l0-.09c.07-.13.12-.26.18-.39a2.29,2.29,0,0,0,.1-.23l0-.08c0-.12.07-.24.1-.37s.06-.16.08-.25V66a2.73,2.73,0,0,0,0-.4l0-.25V63l0,.31A2.57,2.57,0,0,1,74.17,63.72Z"/><path class="cls-20" d="M74.17,63.72a2.81,2.81,0,0,1-.08.31c0,.13-.06.26-.1.38l-.13.3c-.06.13-.11.26-.18.39a5.58,5.58,0,0,1-.32.52l-.06.09c-.13.17-.26.34-.41.51l-.08.09a6.53,6.53,0,0,1-.53.52l-.37.31-.35.28-.44.29-.48.31a13,13,0,0,1-1.18.59l-.35.15a10.42,10.42,0,0,1-1,.37c-.12,0-.23.09-.35.12l-.64.19-.49.13-.69.15-.46.09c-.47.08-.94.15-1.42.2l-.44,0q-.42,0-.84.06l-.53,0h-.69l-.57,0-.62,0-.58,0L59.19,70l-.55-.08L58,69.76l-.51-.11c-.26-.05-.52-.12-.77-.19l-.43-.11a13.84,13.84,0,0,1-1.33-.45c-.22-.08-.42-.18-.63-.27L54,68.49c-.32-.15-.62-.3-.91-.47-2.45-1.42-3.68-3.27-3.67-5.13v2.29c0,1.84,1.24,3.68,3.67,5.08.29.17.6.33.91.48l.3.13a6,6,0,0,0,.58.25l.07,0c.43.16.88.31,1.33.45l.11,0,.32.08.77.19.21,0,.3,0c.22,0,.44.09.67.12l.26,0,.29,0,.62.07.3,0,.28,0,.62,0,.32,0a2.09,2.09,0,0,1,.25,0h1.22l.84-.06.34,0,.1,0c.48,0,1-.11,1.41-.19h.07L66,72q.35-.06.69-.15l.48-.13c.22-.05.44-.11.65-.18l.13,0,.22-.08c.34-.11.66-.24,1-.37l.36-.15c.4-.19.8-.38,1.17-.6l.15-.08c.12-.07.22-.15.32-.22l.45-.3.35-.27.38-.32.07-.06q.24-.23.45-.45l.08-.1a3.22,3.22,0,0,0,.24-.28,2,2,0,0,0,.17-.23l.06-.08a3.87,3.87,0,0,0,.27-.43l0-.09c.07-.13.12-.26.18-.39a2.29,2.29,0,0,0,.1-.23l0-.08c0-.12.07-.24.1-.37s.06-.16.08-.25V66a2.73,2.73,0,0,0,0-.4l0-.25V63l0,.31A2.57,2.57,0,0,1,74.17,63.72Z"/><path class="cls-21" d="M70.58,57.84c4.87,2.81,4.89,7.37.06,10.18s-12.7,2.81-17.57,0-4.9-7.37-.06-10.18S65.71,55,70.58,57.84Z"/><path class="cls-19" d="M70.58,57.84c4.87,2.81,4.89,7.37.06,10.18s-12.7,2.81-17.57,0-4.9-7.37-.06-10.18S65.71,55,70.58,57.84Z"/><path class="cls-18" d="M70.58,58.44c4.87,2.81,4.89,6.77.06,9.58s-12.7,2.81-17.57,0-4.9-6.76-.06-9.57S65.71,55.63,70.58,58.44Z"/><path class="cls-22" d="M53,58.45c4.83-2.81,12.7-2.82,17.57,0,2.3,1.33,3.5,2.91,3.64,4.51.15-1.8-1-3.62-3.64-5.11C65.71,55,57.84,55,53,57.84c-2.55,1.48-3.74,3.29-3.59,5.07C49.56,61.33,50.75,59.76,53,58.45Z"/><path class="cls-23" d="M68.74,58.91c3.85,2.22,3.87,5.82.05,8A15.32,15.32,0,0,1,54.9,67c-3.86-2.22-3.87-5.82,0-8A15.26,15.26,0,0,1,68.74,58.91Z"/><path class="cls-24" d="M68.47,59.29c3.69,2.2,3.72,5.78,0,8a14.31,14.31,0,0,1-13.34,0c-3.7-2.21-3.72-5.78-.05-8A14.3,14.3,0,0,1,68.47,59.29Z"/><path class="cls-19" d="M68.08,59.85l-1.36.79A2.89,2.89,0,0,1,68,62l-1.25.35A2.68,2.68,0,0,0,65.5,61a2.75,2.75,0,0,0-2.69-.15c-.72.42-.56.92.14,1.93.86,1.17.88,2-.35,2.72a5.4,5.4,0,0,1-4.6.09l-1.44.84-.87-.5,1.39-.81a3.41,3.41,0,0,1-1.52-1.6l1.27-.35a3,3,0,0,0,1.4,1.51,3.23,3.23,0,0,0,3,.19c.78-.46.7-1,.08-1.89-.88-1.15-1.12-2,.08-2.74a5.18,5.18,0,0,1,4.37-.09l1.4-.82Z"/><g class="cls-2"><path d="M41.47,86.17c5.9,3.41,5.93,8.19.07,11.59s-15.37,3.4-21.27,0-5.92-8.18-.07-11.58S35.58,82.77,41.47,86.17Z"/></g><path class="cls-3" d="M41.51,85.17C47,88,47,92.61,41.57,95.44s-14.25,2.86-19.76,0S16.32,88,21.75,85.17,36,82.34,41.51,85.17Z"/><g class="cls-4"><path class="cls-5" d="M42.74,76.13c6.27,3.26,6.25,8.47.07,11.7s-16.22,3.25-22.5,0-6.26-8.47-.07-11.7S36.52,72.91,42.74,76.13Z"/></g><g class="cls-6"><path class="cls-7" d="M44,67.09c7,3.65,7,9.51.08,13.12s-18.2,3.65-25.24,0-7-9.5-.08-13.12S37,63.48,44,67.09Z"/></g><g class="cls-8"><path class="cls-9" d="M45.21,58.05C53,62.1,53,68.59,45.29,72.6s-20.17,4-28,0-7.78-10.54-.09-14.55S37.47,54.05,45.21,58.05Z"/></g><g class="cls-10"><path class="cls-11" d="M46.44,49C55,53.46,55,60.58,46.53,65s-22.15,4.44-30.72,0-8.54-11.56-.1-16S37.94,44.61,46.44,49Z"/></g><g class="cls-12"><path class="cls-13" d="M47.67,40c9.33,4.83,9.3,12.6.1,17.39s-24.12,4.83-33.45,0S5,44.77,14.2,40,38.42,35.18,47.67,40Z"/></g><g class="cls-14"><path class="cls-15" d="M48.9,30.94C59,36.17,59,44.57,49,49.75s-26.1,5.24-36.19,0S2.75,36.12,12.69,30.94,38.89,25.75,48.9,30.94Z"/></g><g class="cls-16"><path class="cls-17" d="M41.51,85.22c5.51,2.86,5.49,7.44.06,10.27s-14.25,2.86-19.76,0-5.49-7.44-.06-10.27S36,82.39,41.51,85.22Z"/></g><path class="cls-18" d="M43.26,87.66c0,.13,0,.27,0,.4s-.06.21-.08.31a2.72,2.72,0,0,1-.11.38,1.94,1.94,0,0,1-.13.3,3.39,3.39,0,0,1-.18.39,4.87,4.87,0,0,1-.32.52.16.16,0,0,1-.06.08,4.92,4.92,0,0,1-.41.52l-.08.09a6.38,6.38,0,0,1-.52.52l-.38.31-.35.28-.44.29-.48.31c-.37.21-.77.41-1.17.59l-.35.15c-.32.13-.65.26-1,.37l-.36.12-.64.19-.48.13-.69.14-.47.1c-.47.08-.94.15-1.41.2l-.44,0c-.28,0-.56,0-.84.06H30.06l-.63,0-.58,0-.62-.07-.55-.08q-.33,0-.66-.12L26.5,94l-.77-.19-.43-.11c-.45-.14-.9-.29-1.33-.45L23.34,93,23,92.83c-.31-.15-.62-.31-.91-.48-2.45-1.41-3.67-3.27-3.67-5.12v3.46c0,1.85,1.22,3.71,3.67,5.12.29.17.6.33.91.48l.31.13c.19.09.38.18.57.25l.07,0c.44.16.88.31,1.34.45l.1,0,.32.08.78.19.2,0,.31,0,.66.12.26,0,.29,0,.62.07.3,0,.28,0,.63,0,.32,0h.25c.22,0,.45,0,.68,0h.53l.85-.06.33,0,.11,0c.47,0,.94-.11,1.41-.19h.07l.4-.09c.23-.05.46-.09.69-.15l.48-.13c.22,0,.43-.11.64-.18L37,97l.22-.08c.33-.11.66-.24,1-.37l.35-.15c.41-.19.8-.38,1.17-.59,0,0,.11-.06.15-.1l.33-.21c.15-.1.3-.19.44-.3l.35-.27.38-.32.08-.06c.16-.15.3-.3.44-.45a.39.39,0,0,0,.08-.1,3.33,3.33,0,0,0,.25-.28c.06-.07.11-.15.17-.23a.35.35,0,0,1,0-.08c.1-.14.2-.29.28-.43a.42.42,0,0,0,0-.1,2.64,2.64,0,0,0,.18-.38,2.4,2.4,0,0,0,.11-.23s0,0,0-.08.08-.24.11-.37,0-.16.07-.25a.2.2,0,0,1,0-.07c0-.13,0-.26,0-.39a2.13,2.13,0,0,0,0-.25V87.3C43.29,87.42,43.27,87.54,43.26,87.66Z"/><path class="cls-19" d="M43.22,88.06c0,.1-.06.21-.08.31a2.72,2.72,0,0,1-.11.38,1.94,1.94,0,0,1-.13.3,3.39,3.39,0,0,1-.18.39,4.87,4.87,0,0,1-.32.52.16.16,0,0,1-.06.08,4.92,4.92,0,0,1-.41.52l-.08.09a6.38,6.38,0,0,1-.52.52l-.38.31-.35.28-.44.29-.48.31c-.37.21-.77.41-1.17.59l-.35.15c-.32.13-.65.26-1,.37l-.36.12-.64.19-.48.13-.69.14-.47.1c-.47.08-.94.15-1.41.2l-.44,0c-.28,0-.56,0-.84.06H30.06l-.63,0-.58,0-.62-.07-.55-.08q-.33,0-.66-.12L26.5,94l-.77-.19-.43-.11c-.45-.14-.9-.29-1.33-.45L23.34,93,23,92.83c-.31-.15-.62-.31-.91-.48-2.45-1.41-3.67-3.27-3.67-5.12v2.29c0,1.84,1.23,3.68,3.66,5.08.29.17.6.33.91.48l.31.13.57.25.07,0c.44.17.88.32,1.34.45l.1,0,.32.08.78.19.2.05.31,0,.66.12.26,0,.29,0,.62.07.3,0h.28l.63,0h1.59l.19,0,.85-.05c.11,0,.22,0,.33,0h.11c.47,0,.94-.11,1.41-.2h.07l.4-.08.69-.15.48-.13c.22-.06.43-.11.64-.18l.14,0,.22-.08,1-.37.35-.15a12.83,12.83,0,0,0,1.17-.6l.15-.09.33-.21.44-.3c.12-.09.24-.18.35-.28s.26-.2.38-.31l.08-.06c.16-.15.3-.3.44-.45a.39.39,0,0,0,.08-.1,3.33,3.33,0,0,0,.25-.28l.17-.23a.35.35,0,0,1,0-.08c.1-.14.2-.29.28-.43a.42.42,0,0,0,0-.1c.07-.13.13-.26.18-.38a2.4,2.4,0,0,0,.11-.23s0,0,0-.08.08-.24.11-.37,0-.16.07-.25a.2.2,0,0,1,0-.07c0-.13,0-.26,0-.39a2.13,2.13,0,0,0,0-.25V87.34a3.16,3.16,0,0,1,0,.32C43.25,87.79,43.24,87.93,43.22,88.06Z"/><path class="cls-20" d="M43.22,88.06c0,.1-.06.21-.08.31a2.72,2.72,0,0,1-.11.38,1.94,1.94,0,0,1-.13.3,3.39,3.39,0,0,1-.18.39,4.87,4.87,0,0,1-.32.52.16.16,0,0,1-.06.08,4.92,4.92,0,0,1-.41.52l-.08.09a6.38,6.38,0,0,1-.52.52l-.38.31-.35.28-.44.29-.48.31c-.37.21-.77.41-1.17.59l-.35.15c-.32.13-.65.26-1,.37l-.36.12-.64.19-.48.13-.69.14-.47.1c-.47.08-.94.15-1.41.2l-.44,0c-.28,0-.56,0-.84.06H30.06l-.63,0-.58,0-.62-.07-.55-.08q-.33,0-.66-.12L26.5,94l-.77-.19-.43-.11c-.45-.14-.9-.29-1.33-.45L23.34,93,23,92.83c-.31-.15-.62-.31-.91-.48-2.45-1.41-3.67-3.27-3.67-5.12v2.29c0,1.84,1.23,3.68,3.66,5.08.29.17.6.33.91.48l.31.13.57.25.07,0c.44.17.88.32,1.34.45l.1,0,.32.08.78.19.2.05.31,0,.66.12.26,0,.29,0,.62.07.3,0h.28l.63,0h1.59l.19,0,.85-.05c.11,0,.22,0,.33,0h.11c.47,0,.94-.11,1.41-.2h.07l.4-.08.69-.15.48-.13c.22-.06.43-.11.64-.18l.14,0,.22-.08,1-.37.35-.15a12.83,12.83,0,0,0,1.17-.6l.15-.09.33-.21.44-.3c.12-.09.24-.18.35-.28s.26-.2.38-.31l.08-.06c.16-.15.3-.3.44-.45a.39.39,0,0,0,.08-.1,3.33,3.33,0,0,0,.25-.28l.17-.23a.35.35,0,0,1,0-.08c.1-.14.2-.29.28-.43a.42.42,0,0,0,0-.1c.07-.13.13-.26.18-.38a2.4,2.4,0,0,0,.11-.23s0,0,0-.08.08-.24.11-.37,0-.16.07-.25a.2.2,0,0,1,0-.07c0-.13,0-.26,0-.39a2.13,2.13,0,0,0,0-.25V87.34a3.16,3.16,0,0,1,0,.32C43.25,87.79,43.24,87.93,43.22,88.06Z"/><path class="cls-21" d="M39.62,82.17c4.87,2.82,4.9,7.38.06,10.19s-12.7,2.8-17.57,0S17.22,85,22.05,82.18,34.76,79.36,39.62,82.17Z"/><path class="cls-19" d="M39.62,82.17c4.87,2.82,4.9,7.38.06,10.19s-12.7,2.8-17.57,0S17.22,85,22.05,82.18,34.76,79.36,39.62,82.17Z"/><path class="cls-18" d="M39.63,82.78c4.86,2.81,4.89,6.77,0,9.58s-12.7,2.8-17.57,0-4.89-6.76-.06-9.56S34.76,80,39.63,82.78Z"/><path class="cls-22" d="M22.05,82.79c4.84-2.82,12.71-2.82,17.58,0,2.29,1.33,3.5,2.91,3.64,4.51.15-1.8-1.06-3.62-3.64-5.12-4.87-2.81-12.74-2.8-17.58,0-2.55,1.48-3.74,3.28-3.58,5.07C18.6,85.67,19.79,84.1,22.05,82.79Z"/><path class="cls-23" d="M37.79,83.24c3.85,2.22,3.87,5.83,0,8.05a15.32,15.32,0,0,1-13.89,0c-3.85-2.22-3.87-5.82-.05-8.05A15.34,15.34,0,0,1,37.79,83.24Z"/><path class="cls-24" d="M37.51,83.63c3.7,2.2,3.72,5.77.05,8a14.33,14.33,0,0,1-13.35,0c-3.69-2.21-3.71-5.78,0-8A14.25,14.25,0,0,1,37.51,83.63Z"/><path class="cls-19" d="M37.13,84.19,35.77,85a2.89,2.89,0,0,1,1.31,1.34l-1.25.34a3.16,3.16,0,0,0-4-1.47c-.72.42-.56.93.14,1.94.85,1.17.88,2-.36,2.72a5.44,5.44,0,0,1-4.6.09l-1.44.84-.87-.51,1.4-.81a3.34,3.34,0,0,1-1.53-1.59l1.28-.36A3,3,0,0,0,27.28,89a3.18,3.18,0,0,0,3,.18c.78-.45.71-1,.08-1.88-.87-1.15-1.12-2,.08-2.74a5.14,5.14,0,0,1,4.37-.09l1.4-.82Z"/><path class="cls-18" d="M45.87,81.88a2.6,2.6,0,0,1,0,.39c0,.11,0,.21-.07.32s-.07.25-.11.37l-.13.3c-.06.13-.11.26-.18.39s-.2.35-.32.53l-.06.08a6.11,6.11,0,0,1-.41.51l-.08.1c-.16.17-.34.34-.52.51s-.25.21-.38.31l-.35.28-.44.29-.48.31a11.64,11.64,0,0,1-1.17.59c-.12.06-.24.1-.36.15-.32.14-.64.26-1,.38-.12,0-.24.08-.36.12l-.64.18-.49.13c-.22.06-.46.1-.69.15l-.46.09c-.47.09-.94.15-1.42.2l-.43,0-.85.05-.53,0H32.66l-.62,0-.58-.05-.62-.07-.55-.08-.67-.11-.51-.1L28.34,88l-.43-.12c-.45-.13-.9-.28-1.33-.45L26,87.19l-.32-.14c-.31-.15-.62-.31-.91-.48-2.45-1.41-3.68-3.27-3.67-5.12v3.46c0,1.85,1.22,3.7,3.67,5.12a9.76,9.76,0,0,0,.91.47l.3.14.58.25.07,0c.43.17.88.32,1.33.45l.11,0,.32.08.77.19.21,0c.1,0,.2,0,.3.06l.67.11.26.05.29,0,.62.07.3,0H32l.62,0,.32,0h1.47l.85,0,.33,0h.1c.48,0,1-.12,1.42-.2h.07l.39-.08c.23,0,.47-.09.69-.15l.49-.13.64-.18.14,0,.21-.09a10.42,10.42,0,0,0,1-.37,2.75,2.75,0,0,0,.36-.15A11.64,11.64,0,0,0,42.28,90l.15-.09a3.78,3.78,0,0,0,.33-.22l.44-.29.35-.28c.13-.1.26-.2.38-.31l.07-.06c.16-.15.31-.3.45-.46a.73.73,0,0,0,.08-.09,3,3,0,0,0,.24-.28l.17-.23.06-.08c.1-.15.19-.29.27-.44l0-.09c.07-.13.12-.26.18-.39l.11-.22s0,0,0-.08.07-.25.1-.37.06-.17.08-.25v-.07a2.6,2.6,0,0,0,0-.39,2.42,2.42,0,0,0,0-.25V81.52C45.9,81.64,45.88,81.76,45.87,81.88Z"/><path class="cls-19" d="M45.82,82.27c0,.11,0,.21-.07.32s-.07.25-.11.37l-.13.3c-.06.13-.11.26-.18.39s-.2.35-.32.53l-.06.08a6.11,6.11,0,0,1-.41.51l-.08.1c-.16.17-.34.34-.52.51s-.25.21-.38.31l-.35.28-.44.29-.48.31a11.64,11.64,0,0,1-1.17.59c-.12.06-.24.1-.36.15-.32.14-.64.26-1,.38-.12,0-.24.08-.36.12l-.64.18-.49.13c-.22.06-.46.1-.69.15l-.46.09c-.47.09-.94.15-1.42.2l-.43,0-.85.05-.53,0H32.66l-.62,0-.58-.05-.62-.07-.55-.08-.67-.11-.51-.1L28.34,88l-.43-.12c-.45-.13-.9-.28-1.33-.45L26,87.19l-.32-.14c-.31-.15-.62-.31-.91-.48-2.45-1.41-3.68-3.27-3.67-5.12v2.28c0,1.84,1.24,3.68,3.67,5.09.29.17.6.32.91.47l.3.13.58.26.07,0c.43.17.88.31,1.33.45l.11,0,.32.07c.25.07.51.14.77.19l.21,0c.1,0,.2,0,.3.06l.67.11.26,0,.29,0,.62.07.3,0,.28,0,.62,0,.32,0h.94c.11,0,.22,0,.33,0h.2l.85-.06.33,0h.1c.48,0,1-.12,1.42-.2h.07l.39-.08.69-.15.49-.13.64-.19.14,0,.21-.08a10.42,10.42,0,0,0,1-.37l.36-.15c.4-.18.8-.38,1.17-.59l.15-.09.33-.22.44-.29.35-.28.38-.31a.46.46,0,0,0,.07-.07c.16-.14.31-.3.45-.45l.08-.09.24-.28.17-.23.06-.09a3.87,3.87,0,0,0,.27-.43l0-.09c.07-.13.12-.26.18-.39s.08-.15.11-.22,0-.06,0-.08.07-.25.1-.37.06-.17.08-.25v-.07a2.6,2.6,0,0,0,0-.39,2.3,2.3,0,0,0,0-.26V81.56l0,.32A2.6,2.6,0,0,1,45.82,82.27Z"/><path class="cls-20" d="M45.82,82.27c0,.11,0,.21-.07.32s-.07.25-.11.37l-.13.3c-.06.13-.11.26-.18.39s-.2.35-.32.53l-.06.08a6.11,6.11,0,0,1-.41.51l-.08.1c-.16.17-.34.34-.52.51s-.25.21-.38.31l-.35.28-.44.29-.48.31a11.64,11.64,0,0,1-1.17.59c-.12.06-.24.1-.36.15-.32.14-.64.26-1,.38-.12,0-.24.08-.36.12l-.64.18-.49.13c-.22.06-.46.1-.69.15l-.46.09c-.47.09-.94.15-1.42.2l-.43,0-.85.05-.53,0H32.66l-.62,0-.58-.05-.62-.07-.55-.08-.67-.11-.51-.1L28.34,88l-.43-.12c-.45-.13-.9-.28-1.33-.45L26,87.19l-.32-.14c-.31-.15-.62-.31-.91-.48-2.45-1.41-3.68-3.27-3.67-5.12v2.28c0,1.84,1.24,3.68,3.67,5.09.29.17.6.32.91.47l.3.13.58.26.07,0c.43.17.88.31,1.33.45l.11,0,.32.07c.25.07.51.14.77.19l.21,0c.1,0,.2,0,.3.06l.67.11.26,0,.29,0,.62.07.3,0,.28,0,.62,0,.32,0h.94c.11,0,.22,0,.33,0h.2l.85-.06.33,0h.1c.48,0,1-.12,1.42-.2h.07l.39-.08.69-.15.49-.13.64-.19.14,0,.21-.08a10.42,10.42,0,0,0,1-.37l.36-.15c.4-.18.8-.38,1.17-.59l.15-.09.33-.22.44-.29.35-.28.38-.31a.46.46,0,0,0,.07-.07c.16-.14.31-.3.45-.45l.08-.09.24-.28.17-.23.06-.09a3.87,3.87,0,0,0,.27-.43l0-.09c.07-.13.12-.26.18-.39s.08-.15.11-.22,0-.06,0-.08.07-.25.1-.37.06-.17.08-.25v-.07a2.6,2.6,0,0,0,0-.39,2.3,2.3,0,0,0,0-.26V81.56l0,.32A2.6,2.6,0,0,1,45.82,82.27Z"/><path class="cls-21" d="M42.23,76.39c4.87,2.81,4.9,7.37.06,10.18s-12.71,2.81-17.57,0-4.9-7.37-.06-10.18S37.36,73.58,42.23,76.39Z"/><path class="cls-19" d="M42.23,76.39c4.87,2.81,4.9,7.37.06,10.18s-12.71,2.81-17.57,0-4.9-7.37-.06-10.18S37.36,73.58,42.23,76.39Z"/><path class="cls-18" d="M42.23,77c4.87,2.81,4.9,6.76.06,9.57s-12.71,2.81-17.57,0-4.9-6.76-.06-9.57S37.36,74.19,42.23,77Z"/><path class="cls-22" d="M24.66,77c4.84-2.81,12.7-2.81,17.57,0,2.3,1.32,3.51,2.91,3.64,4.5.16-1.79-1-3.61-3.64-5.11-4.87-2.81-12.73-2.81-17.57,0-2.55,1.49-3.74,3.29-3.58,5.07C21.21,79.88,22.39,78.32,24.66,77Z"/><path class="cls-23" d="M40.39,77.46c3.85,2.22,3.87,5.82,0,8.05a15.31,15.31,0,0,1-13.9,0c-3.84-2.22-3.86-5.82,0-8A15.29,15.29,0,0,1,40.39,77.46Z"/><path class="cls-24" d="M40.12,77.84c3.7,2.2,3.72,5.78,0,8a14.28,14.28,0,0,1-13.34,0c-3.7-2.2-3.72-5.77,0-8A14.31,14.31,0,0,1,40.12,77.84Z"/><path class="cls-19" d="M39.73,78.41l-1.36.79a2.79,2.79,0,0,1,1.31,1.33l-1.24.35a2.76,2.76,0,0,0-1.29-1.31,2.71,2.71,0,0,0-2.68-.16c-.72.42-.56.92.13,1.93.86,1.17.88,2-.35,2.73a5.44,5.44,0,0,1-4.6.09L28.21,85l-.88-.51,1.41-.81a3.47,3.47,0,0,1-1.54-1.6l1.28-.35a3,3,0,0,0,1.4,1.51,3.23,3.23,0,0,0,3,.19c.78-.46.7-1.05.08-1.89-.88-1.15-1.12-2,.08-2.74a5.18,5.18,0,0,1,4.37-.09l1.4-.81Z"/><path class="cls-18" d="M43.27,77a2.6,2.6,0,0,1-.05.39c0,.11,0,.21-.08.32s-.06.25-.1.37l-.13.3c-.06.13-.11.27-.18.39a5.74,5.74,0,0,1-.32.53l-.06.08c-.13.17-.26.34-.41.51l-.08.1c-.16.17-.34.34-.53.51a3.79,3.79,0,0,1-.37.31l-.35.28-.44.29-.48.31a10.82,10.82,0,0,1-1.18.59l-.35.16-1,.37-.35.12-.64.18-.49.13c-.23.06-.46.1-.69.15s-.31.07-.47.09c-.46.09-.93.15-1.41.2l-.44,0-.84,0-.53,0H30.06l-.62,0-.58,0-.62-.07-.55-.07L27,83.39l-.51-.1-.77-.19L25.31,83A13.84,13.84,0,0,1,24,82.53c-.22-.08-.42-.17-.63-.26L23,82.13c-.32-.15-.62-.31-.91-.48-2.45-1.41-3.68-3.27-3.67-5.12V80c0,1.85,1.22,3.7,3.67,5.12.29.17.59.33.91.48l.3.13.58.25L24,86c.43.17.88.32,1.33.45l.11,0,.32.08.77.19.21,0,.3,0,.67.12.26,0a2.58,2.58,0,0,0,.29,0l.62.07.3,0h.28l.62,0h1.59l.2,0,.84,0c.12,0,.23,0,.34,0h.1c.48,0,1-.11,1.41-.2h.07l.4-.08.69-.15.48-.13.65-.18.13,0,.22-.09a10.42,10.42,0,0,0,1-.37,2.75,2.75,0,0,0,.36-.15,11.64,11.64,0,0,0,1.17-.59l.15-.09a2.57,2.57,0,0,0,.32-.22,5,5,0,0,0,.45-.29l.35-.28c.13-.1.26-.2.38-.31l.07-.06q.24-.23.45-.45l.08-.1.24-.28c.06-.08.12-.15.17-.23l.06-.08c.1-.15.19-.29.27-.43l0-.1c.07-.13.12-.26.18-.39a2.14,2.14,0,0,0,.1-.22l0-.08c0-.12.07-.25.1-.37a2.33,2.33,0,0,0,.07-.25.17.17,0,0,0,0-.07,2.6,2.6,0,0,0,0-.39l0-.25V76.6C43.3,76.72,43.28,76.84,43.27,77Z"/><path class="cls-19" d="M43.22,77.35c0,.11,0,.21-.08.32s-.06.25-.1.37l-.13.3c-.06.13-.11.27-.18.39a5.74,5.74,0,0,1-.32.53l-.06.08c-.13.17-.26.34-.41.51l-.08.1c-.16.17-.34.34-.53.51a3.79,3.79,0,0,1-.37.31l-.35.28-.44.29-.48.31a10.82,10.82,0,0,1-1.18.59l-.35.16-1,.37-.35.12-.64.18-.49.13c-.23.06-.46.1-.69.15s-.31.07-.47.09c-.46.09-.93.15-1.41.2l-.44,0-.84,0-.53,0H30.06l-.62,0-.58,0-.62-.07-.55-.07L27,83.39l-.51-.1-.77-.19L25.31,83A13.84,13.84,0,0,1,24,82.53c-.22-.08-.42-.17-.63-.26L23,82.13c-.32-.15-.62-.31-.91-.48-2.45-1.41-3.68-3.27-3.67-5.12v2.28c0,1.84,1.24,3.68,3.67,5.09.29.16.59.32.91.47l.3.13.58.26.07,0c.43.17.88.32,1.33.45l.11,0,.32.07c.25.07.51.14.77.19l.21,0,.3.06.67.11.26,0,.29,0,.62.07c.1,0,.2,0,.3,0l.28,0,.62,0,.32,0h.93c.12,0,.23,0,.34,0h.2q.42,0,.84-.06l.34,0h.1c.48,0,1-.12,1.41-.2h.07l.4-.08.69-.15.48-.13.65-.18.13,0,.22-.09a10.42,10.42,0,0,0,1-.37c.12,0,.24-.09.36-.15a11.64,11.64,0,0,0,1.17-.59l.15-.09c.12-.07.22-.15.32-.22l.45-.29L41,83l.38-.31a.46.46,0,0,0,.07-.07c.16-.14.31-.3.45-.45l.08-.09a3.36,3.36,0,0,0,.24-.29l.17-.22.06-.09a3.87,3.87,0,0,0,.27-.43l0-.09c.07-.13.12-.26.18-.39a2.14,2.14,0,0,0,.1-.22l0-.08c0-.12.07-.25.1-.37s.06-.17.07-.25a.2.2,0,0,0,0-.07,2.6,2.6,0,0,0,0-.39l0-.25V76.64c0,.11,0,.21,0,.32A2.6,2.6,0,0,1,43.22,77.35Z"/><path class="cls-20" d="M43.22,77.35c0,.11,0,.21-.08.32s-.06.25-.1.37l-.13.3c-.06.13-.11.27-.18.39a5.74,5.74,0,0,1-.32.53l-.06.08c-.13.17-.26.34-.41.51l-.08.1c-.16.17-.34.34-.53.51a3.79,3.79,0,0,1-.37.31l-.35.28-.44.29-.48.31a10.82,10.82,0,0,1-1.18.59l-.35.16-1,.37-.35.12-.64.18-.49.13c-.23.06-.46.1-.69.15s-.31.07-.47.09c-.46.09-.93.15-1.41.2l-.44,0-.84,0-.53,0H30.06l-.62,0-.58,0-.62-.07-.55-.07L27,83.39l-.51-.1-.77-.19L25.31,83A13.84,13.84,0,0,1,24,82.53c-.22-.08-.42-.17-.63-.26L23,82.13c-.32-.15-.62-.31-.91-.48-2.45-1.41-3.68-3.27-3.67-5.12v2.28c0,1.84,1.24,3.68,3.67,5.09.29.16.59.32.91.47l.3.13.58.26.07,0c.43.17.88.32,1.33.45l.11,0,.32.07c.25.07.51.14.77.19l.21,0,.3.06.67.11.26,0,.29,0,.62.07c.1,0,.2,0,.3,0l.28,0,.62,0,.32,0h.93c.12,0,.23,0,.34,0h.2q.42,0,.84-.06l.34,0h.1c.48,0,1-.12,1.41-.2h.07l.4-.08.69-.15.48-.13.65-.18.13,0,.22-.09a10.42,10.42,0,0,0,1-.37c.12,0,.24-.09.36-.15a11.64,11.64,0,0,0,1.17-.59l.15-.09c.12-.07.22-.15.32-.22l.45-.29L41,83l.38-.31a.46.46,0,0,0,.07-.07c.16-.14.31-.3.45-.45l.08-.09a3.36,3.36,0,0,0,.24-.29l.17-.22.06-.09a3.87,3.87,0,0,0,.27-.43l0-.09c.07-.13.12-.26.18-.39a2.14,2.14,0,0,0,.1-.22l0-.08c0-.12.07-.25.1-.37s.06-.17.07-.25a.2.2,0,0,0,0-.07,2.6,2.6,0,0,0,0-.39l0-.25V76.64c0,.11,0,.21,0,.32A2.6,2.6,0,0,1,43.22,77.35Z"/><path class="cls-21" d="M39.63,71.47c4.87,2.81,4.89,7.37.06,10.18s-12.7,2.81-17.57,0-4.9-7.36-.06-10.18S34.76,68.66,39.63,71.47Z"/><path class="cls-19" d="M39.63,71.47c4.87,2.81,4.89,7.37.06,10.18s-12.7,2.81-17.57,0-4.9-7.36-.06-10.18S34.76,68.66,39.63,71.47Z"/><path class="cls-18" d="M39.63,72.08c4.87,2.81,4.89,6.76.06,9.57s-12.7,2.81-17.57,0-4.9-6.76-.06-9.57S34.76,69.27,39.63,72.08Z"/><path class="cls-22" d="M22.06,72.08c4.83-2.81,12.7-2.81,17.57,0,2.3,1.33,3.5,2.91,3.64,4.5.15-1.79-1.05-3.61-3.64-5.11-4.87-2.81-12.74-2.81-17.57,0-2.55,1.49-3.74,3.29-3.59,5.07C18.61,75,19.79,73.39,22.06,72.08Z"/><path class="cls-23" d="M37.79,72.54c3.85,2.22,3.87,5.82,0,8a15.27,15.27,0,0,1-13.88,0c-3.86-2.22-3.87-5.82-.05-8A15.32,15.32,0,0,1,37.79,72.54Z"/><path class="cls-24" d="M37.52,72.92c3.69,2.21,3.72,5.78,0,8a14.25,14.25,0,0,1-13.34,0c-3.7-2.2-3.72-5.77,0-8A14.33,14.33,0,0,1,37.52,72.92Z"/><path class="cls-19" d="M37.13,73.49l-1.36.79a2.93,2.93,0,0,1,1.31,1.33L35.83,76a2.68,2.68,0,0,0-1.28-1.31,2.73,2.73,0,0,0-2.69-.16c-.72.42-.56.92.14,1.93.86,1.17.88,2-.35,2.73a5.44,5.44,0,0,1-4.6.09l-1.44.84-.87-.51,1.39-.81a3.36,3.36,0,0,1-1.52-1.6l1.27-.35a3,3,0,0,0,1.4,1.51,3.2,3.2,0,0,0,3,.19c.78-.46.7-1.05.08-1.89-.88-1.15-1.12-2,.08-2.74a5.22,5.22,0,0,1,4.37-.09l1.4-.81Z"/><g class="cls-2"><path d="M52.6,64.14c-3.36,1.94-3.38,5.09,0,7a13.35,13.35,0,0,0,12.15,0c3.37-1.94,3.39-5.09,0-7A13.35,13.35,0,0,0,52.6,64.14Z"/></g><path class="cls-25" d="M63.1,63.35s1.34,1,.85,1.51a6,6,0,0,0-1.57,1.91c-.48,1-2.45,2.33-2.81,1.67s-.14-1.51.69-3A5.35,5.35,0,0,1,63.1,63.35Z"/><path class="cls-26" d="M62.48,65.31a2.93,2.93,0,0,1-2.47.36s-3.8-5-4.51-7.1c-.9-2.66-2.31-11.63-1.76-13.81.32-1.24,1.08,1.82,4.66,1.4,2.92-.34-.06,9.93.52,10.5a79.34,79.34,0,0,1,4.58,6.86A2.44,2.44,0,0,1,62.48,65.31Z"/><path class="cls-26" d="M58.4,46.16c2.92-.34-.06,9.93.52,10.5a79.34,79.34,0,0,1,4.58,6.86,2.44,2.44,0,0,1-1,1.79l-.1.06a62.54,62.54,0,0,1-4-6.58,24,24,0,0,1-3.18-12.86l.71-.12A4.53,4.53,0,0,0,58.4,46.16Z"/><path class="cls-25" d="M57.18,68.55s.7,1.51,0,1.73a6,6,0,0,0-2.29.91c-.93.69-3.28.86-3.27.11s.6-1.39,2.06-2.29A5.4,5.4,0,0,1,57.18,68.55Z"/><path class="cls-27" d="M56,69.57a5.39,5.39,0,0,0,2.12-.19s.59-9.36.7-11.27S65,48.48,61.94,45.73c-2.28-2.08-6.58-.62-6.58-.62s2,2.84,2.11,4c.19,2.21-2.22,6.65-2.38,8.53-.27,3.32-1.2,11-1.2,11A3.48,3.48,0,0,0,56,69.57Z"/><path class="cls-28" d="M55.09,57.59c.16-1.88,2.57-6.32,2.38-8.53A10.11,10.11,0,0,0,55.93,46l2.56-.13s1.31,4.38.17,6.84-3.85,11.33-3,16.86a3.86,3.86,0,0,1-1.72-1S54.82,60.91,55.09,57.59Z"/><path class="cls-29" d="M49.41,43.62a5.56,5.56,0,0,0-1.55,2.43c-.24,1.22.35,1.43.35,1.43l.5-.84a5,5,0,0,1,1.76-1.77C50.8,44.78,49.41,43.62,49.41,43.62Z"/><path class="cls-29" d="M49.14,45.18a3.39,3.39,0,0,0,0,1.49c.22.62.25.51.33.45a11.7,11.7,0,0,1,.26-1.76C50.09,44.23,49.14,45.18,49.14,45.18Z"/><path class="cls-30" d="M55.77,31c2.2,1-1.18,8.45-2.41,10.14,0,0-.85-.1-2-1.53C51.39,39.61,53.24,29.85,55.77,31Z"/><path class="cls-30" d="M53.36,41.14l-3.07,4.2a2,2,0,0,1-1.55-1.22l2.78-4.76Z"/><path class="cls-31" d="M59.84,31.87a15.52,15.52,0,0,1,3.37,2.24c.18.2.8.69-.52,3.52,0,0-2.12,3.16-1,6.19l.6,1.69s-1.77,3-5.79,1.35c-.81-.33-2.29-.94-2.31-1.82a22.38,22.38,0,0,0-.07-6.26c-.46-2.69-.16-7.11,1.62-7.59C55.7,31.19,56.76,30.6,59.84,31.87Z"/><path class="cls-32" d="M63.21,34.11c.18.2.8.69-.52,3.52,0,0-2.12,3.16-1,6.19l.6,1.69a4.11,4.11,0,0,1-2.2,1.65c-1.32-3.73-.17-9.59.05-11.74A2.82,2.82,0,0,1,61.77,33,10.39,10.39,0,0,1,63.21,34.11Z"/><path class="cls-33" d="M61.12,32.58c.82.4,2.87,1.42,2.41,2.74C63,36.91,61.24,41,61.69,42.55s1.13,5.14,1.13,5.14-1.67,2.45-5.45.84a26.82,26.82,0,0,1,.43-14.65l1.68-2.25S60.69,32.38,61.12,32.58Z"/><path class="cls-34" d="M61.12,32.58c.82.4,2.87,1.42,2.41,2.74-.56,1.59-2.21,5.7-1.84,7.23C62.3,45.11,63,47.61,63,47.61s-1.83,2.53-5.61.92a26.82,26.82,0,0,1,.43-14.65l1.68-2.25S60.69,32.38,61.12,32.58Z"/><path class="cls-34" d="M55.89,33.36s-1.18,11.67-.45,14a3.78,3.78,0,0,1-2-1.23s.34-5.82.15-7.53-.3-8,2.74-8S55.89,33.36,55.89,33.36Z"/><path class="cls-30" d="M57.93,33.7a22,22,0,0,0-1.27,10.65l2.19-7.47-.55-.75s1.87-3.37,2.82-3.55l-1.74-1A17.31,17.31,0,0,0,57.93,33.7Z"/><path class="cls-30" d="M55.21,43.43l-.89-6.89.63-.95.86-4.92a2.67,2.67,0,0,1,1.08-.34C57.3,30.36,54.81,39,55.21,43.43Z"/><path class="cls-29" d="M60.52,29.31s-1.23,1.4-.57,2.55c.37.65-.88,1.89-2.68,1.52,0,0-.78-.31-.66-.6a1.8,1.8,0,0,0-.15-1.6C56.24,30.64,60.52,29.31,60.52,29.31Z"/><path class="cls-35" d="M60,31.86a.54.54,0,0,1,.06.25,3.42,3.42,0,0,0-1.88-1l2-1.66.19-.07,0,.18A2.24,2.24,0,0,0,60,31.86Z"/><path class="cls-36" d="M61,28.49a5.45,5.45,0,0,1-2.26,2.72c-1.37.64-2.89,1-2.95-.54-.05-1.21-.21-4.31.92-4.76,1.45-.6,2.07-1.49,3.55-.7A2.55,2.55,0,0,1,61,28.49Z"/><path class="cls-29" d="M61,28.49a4.65,4.65,0,0,1-2.26,2.74,5.8,5.8,0,0,1-1.27.47,5.68,5.68,0,0,0,1.4-1.06c.59-.52-.7-.47.37-1.86.37-.47-.91-.9-1.24-1-1.91-.32-1.88-.91-1.86-1.39.07-.19.17,0,.26-.13l.23-.32.08-.08a4.77,4.77,0,0,1,.72-.6c.81.13,3.14.5,3.18.52A11.6,11.6,0,0,1,61.29,27,3.16,3.16,0,0,1,61,28.49Z"/><path class="cls-37" d="M59.87,30.45c0-.16,1-1.19.72-1.6s-1.23.93-1.28,1,0-.42.13-.77a1.15,1.15,0,0,0,0-1.2c-.23-.27-1-.25-1.41-.27.38-.18,1.11-.16,1.45-.72a2.13,2.13,0,0,1,1.45-1.13C63.09,27.56,59.87,30.45,59.87,30.45Z"/><path class="cls-38" d="M58,27.61a2.78,2.78,0,0,0,2.05-1.17,1.15,1.15,0,0,1,.92-.59s-.21-1.36-2.28-1.16a5.41,5.41,0,0,0-2.09.89C55.4,26.57,56.92,27.54,58,27.61Z"/><path class="cls-39" d="M59.79,31.45s0,1.56-2.93,1.71l.39,1.26a3,3,0,0,0,3.31-2.17Z"/><path class="cls-39" d="M56.86,33.16a2.12,2.12,0,0,1-.07-.9.88.88,0,0,0,0-.4l0-.13-.3-.06s-1,1.15-.72,2.18Z"/><path class="cls-40" d="M56.91,34.24a10.2,10.2,0,0,0-.2,2.82l-1.19,7.37L56,36.88l.52-2.75Z"/><polygon class="cls-40" points="56.94 33.07 57.13 33.87 56.91 34.24 56.5 34.13 56.4 33.47 56.94 33.07"/><path class="cls-29" d="M62.09,33.35s-1.71-.27-1.15,2.47a27.44,27.44,0,0,0,2,5.6A61.15,61.15,0,0,1,64,47.91a1.8,1.8,0,0,1-.3.88,1.58,1.58,0,0,0-.17,1,1.44,1.44,0,0,1-.15.84.21.21,0,0,0,.23.34,1.26,1.26,0,0,0,.47-1,2,2,0,0,1,.29,1.86c0,.24.3.18.87-.61a2.75,2.75,0,0,0,.21-2,5.89,5.89,0,0,1-.17-1.88,32.77,32.77,0,0,0-.38-7.75C64.5,37.93,63.54,33.28,62.09,33.35Z"/><path class="cls-30" d="M61.72,33.19c2.37-.44,3.89,7.6,3.85,9.69a3.49,3.49,0,0,1-2.49-.12S59,33.7,61.72,33.19Z"/><path class="cls-30" d="M65.57,42.88l-.1,5.2a2.06,2.06,0,0,1-2-.11L63,42.48Z"/><path class="cls-29" d="M27.52,41.5s.23-1.7,2.61-.37a26.76,26.76,0,0,1,4.62,3.47,55.33,55.33,0,0,0,5.7,2.9,1.69,1.69,0,0,0,.89,0,1.44,1.44,0,0,1,1,.15,1.35,1.35,0,0,0,.81.09c.27-.08.37.21.25.31a1.14,1.14,0,0,1-1.07.15s.2.25,1.43.63c.51.16.57.65-.33,1a3.88,3.88,0,0,1-2.22-.53,5.55,5.55,0,0,0-1.69-.71,31.31,31.31,0,0,1-7.06-2.61C31.07,45.11,27,42.85,27.52,41.5Z"/><path class="cls-27" d="M27.47,41.1c-1.08,2.11,5.92,5.88,7.87,6.45a3.5,3.5,0,0,0,.59-2.39S28.73,38.67,27.47,41.1Z"/><path class="cls-41" d="M35.34,47.55,40.17,49a2,2,0,0,0,.46-1.89l-5-2Z"/><path class="cls-42" d="M39.3,74.62c3,1.75,3.05,4.59,0,6.35a12.08,12.08,0,0,1-10.95,0c-3-1.76-3.05-4.6,0-6.35A12.1,12.1,0,0,1,39.3,74.62Z"/><path class="cls-43" d="M31.25,74.31s.87.13.66.64-1.22,1.26-1.35,1.58-.95,1.45-1.21,1.34-1,0-.87-1.24A2.85,2.85,0,0,1,31.25,74.31Z"/><path class="cls-44" d="M28.81,53.57a7.11,7.11,0,0,0-1.15,5.94,44,44,0,0,1,.51,9s-.66,6.72-.14,7.94a2.7,2.7,0,0,0,3.09-.27l1.11-12.44.45-9.15S29.71,54.41,28.81,53.57Z"/><path class="cls-45" d="M32.23,63.74l.35-7.17H29.7s-.42,4.73,0,6.25c.33,1.2.45,10.12.49,13.88a2.92,2.92,0,0,0,.93-.52Z"/><path class="cls-43" d="M32.77,79s-.43,1.24.63,1.53.74-.37,3,.21,2.5-.6,2.5-.87c0-.62-1.58-.74-2.08-.87a11.31,11.31,0,0,1-1.5-.63l-2.67.26Z"/><path class="cls-45" d="M30.78,53.93s-1.45,1.2.62,8L32.52,79s1.55,1,3.65-.48c0,0,.43-13.51.18-16.23s-.24-6-.81-6.73C35.52,55.58,31.92,54.88,30.78,53.93Z"/><path class="cls-44" d="M32.52,79a2.26,2.26,0,0,0,1.68.38c-.22-2.83-.67-9-.66-12.29a69.13,69.13,0,0,0-.86-9.57H30.4c-.55,1.42.45,2.51,1,4.32Z"/><path class="cls-41" d="M28.14,40.51s-1.61.11-.89,3.07a27.73,27.73,0,0,1,.89,7.22,34.27,34.27,0,0,1-1.07,4.59s-.29,2.23,4.91,4.07c0,0,4.36.42,3.87-2.57A39.83,39.83,0,0,1,35.64,48c.2-1.12,1-3.33-1.61-5.08S29.92,40.54,28.14,40.51Z"/><path class="cls-46" d="M35.64,48a39.83,39.83,0,0,0,.21,8.88c.34,2.07-1.65,2.62-2.9,2.58-.29-1.35.06-4-.64-6.93a11.31,11.31,0,0,1,.74-7.72,1.89,1.89,0,0,1,1.74-1.29C36.5,45.16,35.82,47,35.64,48Z"/><path class="cls-36" d="M29.63,39.18a4.89,4.89,0,0,1-.22,2.39c-.41.85,3,1.46,3.05.68a3.34,3.34,0,0,1,0-2.84C32.91,38.61,29.63,39.18,29.63,39.18Z"/><path class="cls-35" d="M29.43,41.62a4.45,4.45,0,0,0,.25-2.14l2.52,1.14h0c-.09,0-1.74.53-2,1.77C29.64,42.21,29.28,41.93,29.43,41.62Z"/><path class="cls-36" d="M33,35.13a6.44,6.44,0,0,1,.53,2.45c-.06,1.24.13,1.48.08,2a1.37,1.37,0,0,1-.24.82,2.11,2.11,0,0,1-2.18.21c-1.28-.41-2.68-2.12-2.21-3.73S31.07,33.92,33,35.13Z"/><path class="cls-29" d="M29.13,38.62a22.86,22.86,0,0,1,1.61-3.31,3.94,3.94,0,0,1,.85-.64,2.64,2.64,0,0,1,1.43.46,6.58,6.58,0,0,1,.3.84c-.28.36-.88.77-1,1.07a3.74,3.74,0,0,0,.2,2.17c.22.45-.56,1.16-.37,1.56a.07.07,0,0,1,0,0,3.59,3.59,0,0,1-1-.18A3.67,3.67,0,0,1,29.13,38.62Z"/><path class="cls-47" d="M33.37,34.56a1.66,1.66,0,0,1-.84,1.73c-.65.36-.55,1.45-.51,1.65a4.49,4.49,0,0,1,.2,1.23c-.14.23-.69-.45-.93-.39-.62.15-.36.73.24,1.34s-1,1-1.7.46c-.41-.27-.56-.44-1.12-1.46-.81-1.49-.93-3.31.79-4.37S32.3,35.06,33.37,34.56Z"/><path class="cls-48" d="M29.83,40.58c-.41-.27-.56-.44-1.12-1.46-.81-1.49-.93-3.31.79-4.37s2.8.31,3.87-.19a1.6,1.6,0,0,1,0,.46c-.55.12-2.06.5-2.43,1.18-.45.85-1,.61-.91,1.63s-.12,2.29,1.53,2.78A1.6,1.6,0,0,1,29.83,40.58Z"/><path class="cls-49" d="M32.34,41.71l1.3.9S30.1,43.76,29,42.09a1,1,0,0,1,.58-1.23S29.78,42.25,32.34,41.71Z"/><path class="cls-29" d="M38.14,59.94c-.32.85-.44.88-.63.77a4,4,0,0,1-1.34-2.6,1.64,1.64,0,0,0,0-.87.6.6,0,0,0,0-.12l1.16-.2a4.19,4.19,0,0,0,.47,1.13A2.65,2.65,0,0,1,38.14,59.94Z"/><path class="cls-50" d="M34.54,43.53c-2.18.36-.82,7.8-.13,9.63l1.52,4.67a1.87,1.87,0,0,0,1.67-.72l-1.25-4.75C36.39,51.79,37,43.13,34.54,43.53Z"/><g class="cls-2"><polygon points="55.04 106.16 59.85 108.96 64.68 106.16 59.88 103.37 55.04 106.16"/></g><g class="cls-14"><polygon class="cls-51" points="55.04 105.98 59.85 108.77 64.68 105.98 59.88 103.19 55.04 105.98"/></g><g class="cls-12"><polygon class="cls-51" points="55.79 102.81 59.85 105.16 63.94 102.81 59.88 100.44 55.79 102.81"/></g><g class="cls-10"><polygon class="cls-51" points="56.53 99.63 59.85 101.56 63.19 99.63 59.87 97.7 56.53 99.63"/></g><g class="cls-8"><polygon class="cls-51" points="57.28 96.45 59.85 97.95 62.44 96.45 59.87 94.96 57.28 96.45"/></g><g class="cls-6"><polygon class="cls-51" points="58.03 93.28 59.86 94.34 61.7 93.28 59.87 92.22 58.03 93.28"/></g><g class="cls-4"><polygon class="cls-51" points="58.77 90.11 59.86 90.73 60.95 90.11 59.87 89.47 58.77 90.11"/></g><polygon class="cls-51" points="59.52 86.93 59.86 87.13 60.2 86.93 59.86 86.73 59.52 86.93"/><g class="cls-2"><polygon points="64.83 99.82 70.36 103.03 75.92 99.82 70.39 96.61 64.83 99.82"/></g><g class="cls-14"><polygon class="cls-52" points="64.83 99.61 70.36 102.82 75.92 99.61 70.39 96.4 64.83 99.61"/></g><g class="cls-12"><polygon class="cls-52" points="65.69 95.96 70.36 98.67 75.06 95.96 70.39 93.24 65.69 95.96"/></g><g class="cls-10"><polygon class="cls-52" points="66.55 92.3 70.36 94.52 74.2 92.3 70.39 90.09 66.55 92.3"/></g><g class="cls-8"><polygon class="cls-52" points="67.41 88.65 70.36 90.37 73.34 88.65 70.39 86.93 67.41 88.65"/></g><g class="cls-6"><polygon class="cls-52" points="68.27 85 70.37 86.22 72.48 85 70.38 83.78 68.27 85"/></g><g class="cls-4"><polygon class="cls-52" points="69.12 81.35 70.37 82.07 71.63 81.35 70.38 80.62 69.12 81.35"/></g><polygon class="cls-52" points="69.98 77.69 70.37 77.92 70.77 77.69 70.38 77.47 69.98 77.69"/><g class="cls-2"><polygon points="47.58 110.86 51.78 113.31 56.02 110.86 51.81 108.42 47.58 110.86"/></g><g class="cls-14"><polygon class="cls-53" points="47.98 111.1 51.79 113.31 55.61 111.1 51.81 108.89 47.98 111.1"/></g><g class="cls-12"><polygon class="cls-53" points="48.57 108.59 51.79 110.45 55.02 108.59 51.81 106.72 48.57 108.59"/></g><g class="cls-10"><polygon class="cls-53" points="49.16 106.08 51.79 107.6 54.43 106.08 51.81 104.55 49.16 106.08"/></g><g class="cls-8"><polygon class="cls-53" points="49.76 103.56 51.79 104.75 53.84 103.56 51.81 102.38 49.76 103.56"/></g><g class="cls-6"><polygon class="cls-53" points="50.35 101.05 51.79 101.89 53.25 101.05 51.8 100.21 50.35 101.05"/></g><g class="cls-4"><polygon class="cls-53" points="50.94 98.54 51.79 99.04 52.66 98.54 51.8 98.04 50.94 98.54"/></g><polygon class="cls-53" points="51.53 96.03 51.8 96.19 52.07 96.03 51.8 95.87 51.53 96.03"/></g></g></svg>