<svg xmlns="http://www.w3.org/2000/svg" xmlns:xlink="http://www.w3.org/1999/xlink" viewBox="0 0 97.84 87.24"><defs><style>.cls-1{fill:none;}.cls-2{fill:#617713;}.cls-3{fill:#9abd1d;}.cls-4{fill:#6d9b0a;}.cls-5,.cls-93{opacity:0.2;}.cls-6{fill:#778489;}.cls-7{fill:#abbec5;}.cls-8{isolation:isolate;}.cls-9{clip-path:url(#clip-path);}.cls-10{fill:#738085;}.cls-11{fill:#78858a;}.cls-12{fill:#7c8a8f;}.cls-13{fill:#818f94;}.cls-14{fill:#859499;}.cls-15{fill:#8a999e;}.cls-16{fill:#8e9da3;}.cls-17{fill:#93a2a8;}.cls-18{fill:#97a7ad;}.cls-19{fill:#9bacb3;}.cls-20{fill:#a0b1b8;}.cls-21{clip-path:url(#clip-path-2);}.cls-22{fill:#376a80;}.cls-23{fill:#396e85;}.cls-24{fill:#3b7189;}.cls-25{fill:#3d758d;}.cls-26{fill:#3f7992;}.cls-27{fill:#417c96;}.cls-28{fill:#43809b;}.cls-29{fill:#44849f;}.cls-30{fill:#35667c;}.cls-31{fill:#336377;}.cls-32{fill:#315f73;}.cls-33{fill:#336277;}.cls-34{fill:#8979cc;}.cls-35{fill:#498dab;}.cls-36{fill:#6198d8;}.cls-37{fill:#97c3f7;}.cls-38{fill:#92afff;}.cls-39,.cls-87,.cls-88,.cls-89,.cls-90,.cls-91,.cls-92,.cls-93{fill:#def4ff;}.cls-40,.cls-73{fill:#fff;}.cls-41{fill:#e8eef6;}.cls-42{fill:#c0d6ed;}.cls-43{fill:#ff7fb7;}.cls-44{fill:#d32075;}.cls-45{clip-path:url(#clip-path-3);}.cls-46{clip-path:url(#clip-path-4);}.cls-47{clip-path:url(#clip-path-5);}.cls-48{clip-path:url(#clip-path-6);}.cls-49{clip-path:url(#clip-path-7);}.cls-50{clip-path:url(#clip-path-8);}.cls-51{clip-path:url(#clip-path-9);}.cls-52{clip-path:url(#clip-path-10);}.cls-53{clip-path:url(#clip-path-11);}.cls-54{clip-path:url(#clip-path-12);}.cls-55{clip-path:url(#clip-path-13);}.cls-56{clip-path:url(#clip-path-14);}.cls-57{clip-path:url(#clip-path-15);}.cls-58{clip-path:url(#clip-path-16);}.cls-59{fill:#ffb101;}.cls-60{fill:#ffebc4;}.cls-60,.cls-73{opacity:0.6;}.cls-61{opacity:0.83;}.cls-62{fill:#ffeece;}.cls-62,.cls-63{opacity:0.67;}.cls-64{fill:#fff2d8;opacity:0.73;}.cls-65{opacity:0.5;}.cls-66{fill:#fff5e2;opacity:0.8;}.cls-67{opacity:0.33;}.cls-68{fill:#fff8eb;opacity:0.87;}.cls-69,.cls-92{opacity:0.17;}.cls-70{fill:#fffcf5;opacity:0.93;}.cls-71,.cls-87{opacity:0;}.cls-72{opacity:0.3;}.cls-74{fill:#efb185;}.cls-75{fill:#e6a376;}.cls-76{fill:#5fb9e6;}.cls-77{fill:#77d2ff;}.cls-78,.cls-90{opacity:0.1;}.cls-79{fill:#111114;}.cls-80{fill:#31282e;}.cls-81{fill:#231d21;}.cls-82{fill:#dd9569;}.cls-83{fill:#131c24;}.cls-84{fill:#1d2833;}.cls-85{fill:#def0f9;}.cls-86{fill:#f1b287;}.cls-88{opacity:0.03;}.cls-89{opacity:0.07;}.cls-91{opacity:0.13;}.cls-94{fill:#ffda00;}.cls-95{fill:#ffd859;}.cls-96{fill:#ff9e03;}.cls-97{fill:#f2b42b;}.cls-98{fill:#ffed94;}.cls-99{fill:#de821f;}</style><clipPath id="clip-path"><path class="cls-1" d="M76.13,64.4a1.36,1.36,0,0,1,.79,1.12V62.81a1.36,1.36,0,0,0-.79-1.11c0,.9,0,1.8,0,2.7,0-.9,0-1.8,0-2.7a4.28,4.28,0,0,0-3.88,0v0a1.37,1.37,0,0,0-.81,1.12v2.71a1.36,1.36,0,0,1,.82-1.12A4.26,4.26,0,0,1,76.13,64.4Z"/></clipPath><clipPath id="clip-path-2"><path class="cls-1" d="M71.45,62.8v2.71a1.37,1.37,0,0,0,.79,1.12,4.26,4.26,0,0,0,3.87,0,1.39,1.39,0,0,0,.82-1.13c0-.9,0-1.81,0-2.71a1.41,1.41,0,0,1-.82,1.13,4.28,4.28,0,0,1-3.88,0A1.38,1.38,0,0,1,71.45,62.8Z"/></clipPath><clipPath id="clip-path-3"><path class="cls-2" d="M7.84,56.29l0,6.05a.31.31,0,0,1-.18.25.93.93,0,0,1-.86,0,.31.31,0,0,1-.18-.25l0-6.05a.31.31,0,0,0,.18.25.93.93,0,0,0,.86,0A.31.31,0,0,0,7.84,56.29Z"/></clipPath><clipPath id="clip-path-4"><path class="cls-3" d="M7.73,40.39l0,6a.31.31,0,0,1-.17.25,1,1,0,0,1-.87,0,.31.31,0,0,1-.18-.25l0-6a.31.31,0,0,0,.18.25.93.93,0,0,0,.86,0A.31.31,0,0,0,7.73,40.39Z"/></clipPath><clipPath id="clip-path-5"><path class="cls-4" d="M19.56,43l0,6a.31.31,0,0,1-.17.25,1,1,0,0,1-.87,0,.31.31,0,0,1-.18-.25l0-6a.31.31,0,0,0,.18.25.93.93,0,0,0,.86,0A.31.31,0,0,0,19.56,43Z"/></clipPath><clipPath id="clip-path-6"><path class="cls-3" d="M19.45,27.09l0,6.05a.29.29,0,0,1-.17.25,1,1,0,0,1-.87,0,.31.31,0,0,1-.18-.26l0-6a.31.31,0,0,0,.18.25.93.93,0,0,0,.86,0A.31.31,0,0,0,19.45,27.09Z"/></clipPath><clipPath id="clip-path-7"><path class="cls-4" d="M35.34,23.64l0,6.05a.31.31,0,0,1-.18.25,1,1,0,0,1-.86,0,.31.31,0,0,1-.18-.26v-6a.3.3,0,0,0,.19.25.93.93,0,0,0,.86,0A.31.31,0,0,0,35.34,23.64Z"/></clipPath><clipPath id="clip-path-8"><path class="cls-3" d="M35.23,7.74l0,6A.28.28,0,0,1,35,14a.93.93,0,0,1-.86,0,.29.29,0,0,1-.18-.25l0-6a.31.31,0,0,0,.18.25.93.93,0,0,0,.86,0A.31.31,0,0,0,35.23,7.74Z"/></clipPath><clipPath id="clip-path-9"><path class="cls-2" d="M52.47,34.89l0,6a.31.31,0,0,1-.18.25.93.93,0,0,1-.86,0,.31.31,0,0,1-.18-.25v-6a.3.3,0,0,0,.19.25.93.93,0,0,0,.86,0A.31.31,0,0,0,52.47,34.89Z"/></clipPath><clipPath id="clip-path-10"><path class="cls-3" d="M52.36,19l0,6.05a.31.31,0,0,1-.18.25.93.93,0,0,1-.86,0,.31.31,0,0,1-.18-.25l0-6.05a.31.31,0,0,0,.18.25.93.93,0,0,0,.86,0A.31.31,0,0,0,52.36,19Z"/></clipPath><clipPath id="clip-path-11"><path class="cls-2" d="M58.63,25.93l0,6.05a.31.31,0,0,1-.18.25.93.93,0,0,1-.86,0,.31.31,0,0,1-.18-.25l0-6.05a.31.31,0,0,0,.18.25.93.93,0,0,0,.86,0A.31.31,0,0,0,58.63,25.93Z"/></clipPath><clipPath id="clip-path-12"><path class="cls-3" d="M58.52,10l0,6a.31.31,0,0,1-.18.25.93.93,0,0,1-.86,0,.31.31,0,0,1-.18-.25l0-6a.31.31,0,0,0,.18.25.93.93,0,0,0,.86,0A.31.31,0,0,0,58.52,10Z"/></clipPath><clipPath id="clip-path-13"><path class="cls-2" d="M65.54,32l0,6.05a.29.29,0,0,1-.17.25,1,1,0,0,1-.87,0,.31.31,0,0,1-.18-.25l0-6.05a.32.32,0,0,0,.18.26,1,1,0,0,0,.86,0A.28.28,0,0,0,65.54,32Z"/></clipPath><clipPath id="clip-path-14"><path class="cls-3" d="M65.43,16.11v6.05a.31.31,0,0,1-.18.25.93.93,0,0,1-.86,0,.3.3,0,0,1-.19-.25l0-6.05a.31.31,0,0,0,.18.25.93.93,0,0,0,.86,0A.28.28,0,0,0,65.43,16.11Z"/></clipPath><clipPath id="clip-path-15"><path class="cls-2" d="M71.25,19.55l0,6.05a.31.31,0,0,1-.17.25,1,1,0,0,1-.87,0A.31.31,0,0,1,70,25.6l0-6.05a.29.29,0,0,0,.18.25.93.93,0,0,0,.86,0A.29.29,0,0,0,71.25,19.55Z"/></clipPath><clipPath id="clip-path-16"><path class="cls-3" d="M71.14,3.65v6A.33.33,0,0,1,71,10a1,1,0,0,1-.87,0,.31.31,0,0,1-.18-.25l0-6a.31.31,0,0,0,.18.25,1,1,0,0,0,.87,0A.31.31,0,0,0,71.14,3.65Z"/></clipPath></defs><title>Zasób 10</title><g id="Warstwa_2" data-name="Warstwa 2"><g id="Layer_1" data-name="Layer 1"><path class="cls-5" d="M.79,51.92,40.23,29.38a4.15,4.15,0,0,1,3.76,0l52.75,31a1.15,1.15,0,0,1,0,2.18L57.28,85.09a4.12,4.12,0,0,1-3.76,0L.77,54.09A1.14,1.14,0,0,1,.79,51.92Z"/><polygon class="cls-6" points="5.56 45.43 5.56 48.13 43.12 26.68 43.12 23.97 5.56 45.43"/><polygon class="cls-7" points="43.12 23.97 43.12 26.68 87.93 53 87.93 50.29 43.12 23.97"/><g class="cls-8"><g class="cls-9"><g class="cls-8"><path class="cls-10" d="M71.45,62.8v2.71a1.36,1.36,0,0,1,.82-1.12,2.81,2.81,0,0,1,.39-.19V61.49l-.39.19a1.37,1.37,0,0,0-.81,1.12Z"/><path class="cls-11" d="M72.65,61.49V64.2l.34-.11V61.38l-.34.11Z"/><path class="cls-12" d="M73,61.38v2.71l.28-.07v-2.7a1.5,1.5,0,0,0-.29.06Z"/><path class="cls-13" d="M73.28,61.32V64l.28,0V61.26l-.27.06Z"/><path class="cls-14" d="M73.55,61.26V64l.27,0V61.24l-.27,0Z"/><path class="cls-15" d="M73.82,61.24V64l.26,0V61.22l-.27,0Z"/><path class="cls-16" d="M74.09,61.22v2.71h.29v-2.7Z"/><path class="cls-17" d="M74.37,61.23v2.7l.3,0V61.25l-.31,0Z"/><path class="cls-18" d="M74.68,61.25V64L75,64V61.3l-.34,0Z"/><path class="cls-19" d="M75,61.3V64a3.8,3.8,0,0,1,.51.14V61.43A2.83,2.83,0,0,0,75,61.3Z"/><path class="cls-20" d="M75.54,61.43v2.71a3.29,3.29,0,0,1,.6.26l0,0V61.71h0a3,3,0,0,0-.6-.27Z"/><path class="cls-19" d="M76.17,61.71v2.71a2,2,0,0,1,.35.26V62a2.51,2.51,0,0,0-.34-.26Z"/><path class="cls-18" d="M76.51,62v2.71l.17.18v-2.7a.75.75,0,0,0-.17-.19Z"/><path class="cls-17" d="M76.68,62.16v2.7a1.63,1.63,0,0,1,.11.17V62.32a.91.91,0,0,0-.11-.16Z"/><path class="cls-16" d="M76.79,62.32V65l.07.15v-2.7a.46.46,0,0,0-.07-.16Z"/><path class="cls-15" d="M76.86,62.48v2.7a.83.83,0,0,1,0,.15v-2.7a.88.88,0,0,0,0-.15Z"/><path class="cls-14" d="M76.91,62.63v2.7a1,1,0,0,1,0,.17V62.79c0-.06,0-.11,0-.16Z"/><path class="cls-13" d="M76.93,62.79v0Z"/></g></g></g><g class="cls-8"><g class="cls-21"><g class="cls-8"><path class="cls-22" d="M71.45,62.8v0Z"/><path class="cls-23" d="M71.45,62.83v2.71s0,.1,0,.16V63a.88.88,0,0,1,0-.16Z"/><path class="cls-24" d="M71.47,63V65.7s0,.1,0,.15V63.14a.83.83,0,0,1,0-.15Z"/><path class="cls-25" d="M71.51,63.14v2.71a1.09,1.09,0,0,0,.08.15V63.3a1.11,1.11,0,0,1-.07-.16Z"/><path class="cls-26" d="M71.58,63.3V66l.1.17V63.46l-.11-.16Z"/><path class="cls-27" d="M71.69,63.46v2.71a1.53,1.53,0,0,0,.18.18v-2.7l-.17-.19Z"/><path class="cls-28" d="M71.86,63.65v2.7a1.9,1.9,0,0,0,.34.26V63.9a3.34,3.34,0,0,1-.34-.25Z"/><path class="cls-29" d="M72.2,63.9v2.71l0,0a4.06,4.06,0,0,0,.6.27V64.19a3.73,3.73,0,0,1-.61-.26l0,0Z"/><path class="cls-28" d="M72.84,64.19V66.9l.52.13V64.32a4.23,4.23,0,0,1-.51-.13Z"/><path class="cls-27" d="M73.35,64.32V67l.35,0V64.37l-.35-.05Z"/><path class="cls-26" d="M73.7,64.37v2.71l.3,0V64.39l-.31,0Z"/><path class="cls-25" d="M74,64.39V67.1a1.31,1.31,0,0,0,.28,0V64.4Z"/><path class="cls-24" d="M74.29,64.4v2.7h.27V64.38l-.26,0Z"/><path class="cls-23" d="M74.55,64.38v2.71l.27,0V64.35a1.12,1.12,0,0,1-.27,0Z"/><path class="cls-22" d="M74.82,64.35v2.71l.27,0V64.31l-.27,0Z"/><path class="cls-30" d="M75.09,64.31V67l.29-.07V64.24l-.29.07Z"/><path class="cls-31" d="M75.38,64.24V67l.33-.11V64.13l-.34.11Z"/><path class="cls-32" d="M75.72,64.13v2.71a3.54,3.54,0,0,0,.39-.19,1.39,1.39,0,0,0,.82-1.13V62.81a1.41,1.41,0,0,1-.82,1.13l-.39.19Z"/></g></g></g><polygon class="cls-33" points="50.38 71.75 50.38 74.45 87.93 53 87.93 50.29 50.38 71.75"/><path class="cls-34" d="M72.26,61.68a1.19,1.19,0,0,0,0,2.25,4.28,4.28,0,0,0,3.88,0,1.18,1.18,0,0,0,0-2.24A4.28,4.28,0,0,0,72.26,61.68Z"/><polygon class="cls-35" points="5.56 45.43 5.56 48.13 50.38 74.45 50.38 71.75 5.56 45.43"/><polygon class="cls-36" points="5.56 45.43 50.38 71.75 87.93 50.29 43.12 23.97 5.56 45.43"/><polygon class="cls-37" points="16.17 45 49.41 64.53 77.27 48.61 44.03 29.09 16.17 45"/><polygon class="cls-36" points="37.32 38.26 46.75 43.8 54.65 39.28 45.23 33.74 37.32 38.26"/><path class="cls-38" d="M.37,45.55s0,0,0,0a.82.82,0,0,0,.12.25l0,0a.9.9,0,0,0,.21.23l.19.15a1.53,1.53,0,0,1,.16.11l52.75,31V80l-52.75-31h0A.94.94,0,0,0,.93,49l-.2-.15v0a.91.91,0,0,1-.17-.17l0,0s0,0,0,0a.43.43,0,0,0,0-.07,1,1,0,0,1-.07-.15,0,0,0,0,0,0,0,0,0,0,0,1,0,0,.29.29,0,0,1,0-.09.88.88,0,0,1,0-.16V45.27A.92.92,0,0,0,.37,45.55Z"/><path class="cls-39" d="M40.56,21.65a4.12,4.12,0,0,1,3.76,0l52.75,31a1.15,1.15,0,0,1,0,2.17L57.6,77.36a4.18,4.18,0,0,1-3.76,0l-52.75-31a1.15,1.15,0,0,1,0-2.18Zm9.82,50.09L87.93,50.29,43.12,24,5.56,45.43,50.38,71.74Zm25.73-7.8a1.18,1.18,0,0,0,0-2.24,4.28,4.28,0,0,0-3.88,0,1.19,1.19,0,0,0,0,2.25,4.28,4.28,0,0,0,3.88,0Z"/><path class="cls-38" d="M53.84,77.34a3,3,0,0,0,.52.23l.21.06.26.07.32.06h.08l.44,0h.08a3.15,3.15,0,0,0,.44,0h.07l.42-.07.09,0,.35-.1.08,0a3.71,3.71,0,0,0,.4-.19L97.05,54.82a1.33,1.33,0,0,0,.79-1.09c0,.9,0,1.81,0,2.71A1.32,1.32,0,0,1,97,57.53L57.6,80.06a2.32,2.32,0,0,1-.39.18s0,0,0,0l-.07,0-.23.08-.13,0-.08,0-.07,0-.26,0h-.26l-.26,0h-.09s0,0-.06,0a.56.56,0,0,1-.13,0l-.29,0h0l-.07,0-.23,0-.09,0-.27-.07-.14,0a.09.09,0,0,1-.06,0,2.22,2.22,0,0,1-.52-.23Z"/><polygon class="cls-40" points="23.45 46.75 24.88 47.59 37.63 40.36 36.15 39.5 23.45 46.75"/><polygon class="cls-41" points="27.36 48.99 28.79 49.83 41.54 42.61 40.06 41.74 27.36 48.99"/><polygon class="cls-40" points="30.85 51.34 32.28 52.18 45.02 44.95 43.55 44.09 30.85 51.34"/><path class="cls-42" d="M72.26,62a1.18,1.18,0,0,0,0,2.24,4.28,4.28,0,0,0,3.88,0,1.19,1.19,0,0,0,0-2.25A4.31,4.31,0,0,0,72.26,62Z"/><path class="cls-43" d="M13.37,45.05a.83.83,0,0,0-.72,0,.26.26,0,0,0-.14.21h0l0,5a.27.27,0,0,0,.15.21l.08,0h.45l.05,0h0l.09,0h0l0,0,0,0h0l0,0h0v0h0v0l0-5h0s0,0,0,0S13.48,45.12,13.37,45.05Zm.07.36,0,0h0S13.45,45.4,13.44,45.41Zm.05-.06,0,0h0Zm-.09.09h0l0,0Zm-.83,0,0,0Zm-.06-.1a0,0,0,0,0,0,0A0,0,0,0,1,12.51,45.3Zm0,.05,0,0Z"/><path class="cls-44" d="M15.22,40.63a.15.15,0,0,1,0,.07s0,0,0,.06a.64.64,0,0,0,0,.07.08.08,0,0,0,0,.05l0,.07,0,0-.05.07,0,0-.1.1,0,0-.07.05-.06,0-.08,0-.09.06-.31.14a.2.2,0,0,1-.08,0l-.33.1h0a2,2,0,0,1-.34.06h-.06l-.38,0H13l-.36,0h-.06l-.35-.07h-.07l-.31-.1h-.05l-.34-.16a1.11,1.11,0,0,1-.65-.92l0,5.82a1.13,1.13,0,0,0,.66.92,2.37,2.37,0,0,0,.32.15,0,0,0,0,1,0,0l.06,0,.19.06.11,0h.07l.06,0,.21,0h.67l.24,0h.1l.18,0,.08,0,.22,0,.12,0,.09,0,.09,0,.31-.14,0,0,.06,0,.08-.06.06,0,.07-.05v0a0,0,0,0,0,0,0l.1-.1,0,0,0,0,.05-.07,0,0h0l0-.07a.05.05,0,0,1,0,0v0a.14.14,0,0,0,0-.06.09.09,0,0,0,0,0h0V40.63Z"/><path class="cls-43" d="M14.57,39.65a1,1,0,0,1,0,1.82,3.45,3.45,0,0,1-3.13,0,1,1,0,0,1,0-1.81A3.42,3.42,0,0,1,14.57,39.65Z"/><path class="cls-44" d="M13.44,35.42h0l0,0h0l0,.05,0,0,0,0-.16.06h0a.55.55,0,0,1-.18,0h0a.58.58,0,0,1-.19,0h0a.58.58,0,0,1-.17-.06.27.27,0,0,1-.15-.22v5.1a.25.25,0,0,0,.15.21l.08,0,.06,0h.47a.43.43,0,0,0,.12,0h0l0,0,0,0h0l0,0h0l0,0h0v0a0,0,0,0,0,0,0v-5.1h0A.09.09,0,0,1,13.44,35.42Z"/><path class="cls-43" d="M13.3,35.16c.2.11.2.3,0,.42a.85.85,0,0,1-.73,0c-.2-.12-.2-.31,0-.42A.79.79,0,0,1,13.3,35.16Z"/><path class="cls-43" d="M24.12,30a.83.83,0,0,0-.72,0,.26.26,0,0,0-.14.21h0l0,5a.24.24,0,0,0,.15.2l.08,0H24s0,0,0,0h0l.09,0h0l0,0,0,0h0l0,0h0v0h0v-.05l0-5h0s0,0,0,0S24.23,30.06,24.12,30Zm.07.36,0,0h0Zm0-.06s0,0,0,0h0Zm-.09.09h0l0,0Zm-.83,0,0,0Zm-.06-.11s0,0,0,0S23.26,30.24,23.26,30.23Zm0,.06,0,0Z"/><path class="cls-44" d="M26,25.57a.17.17,0,0,1,0,.07s0,0,0,.06,0,0,0,.06a.14.14,0,0,0,0,.06l0,.07,0,.05-.05.07,0,0-.1.1,0,0-.07.05-.06.05-.08.05-.09.06-.31.14-.08,0a3.19,3.19,0,0,1-.33.11h0a2,2,0,0,1-.34.06h-.06l-.38,0h-.06l-.36,0h-.06a2,2,0,0,1-.35-.06H22.9l-.31-.1h-.05l-.34-.16a1.14,1.14,0,0,1-.65-.92l0,5.82a1.11,1.11,0,0,0,.66.91,2.39,2.39,0,0,0,.32.16h0l.06,0,.19.07.11,0,.07,0,.06,0,.21,0h.67l.24,0h.1l.18,0,.08,0,.22-.05.12,0,.09,0,.09,0a1.77,1.77,0,0,0,.31-.15h0l.06,0,.08-.05.06,0,.07-.06h0l0,0,.1-.1,0,0,0,0a.56.56,0,0,0,0-.08s0,0,0,0h0l0-.07a.05.05,0,0,1,0,0v0a.14.14,0,0,0,0-.06.09.09,0,0,0,0-.05h0v-.12h0V25.57Z"/><path class="cls-43" d="M25.32,24.59a1,1,0,0,1,0,1.82,3.45,3.45,0,0,1-3.13,0,1,1,0,0,1,0-1.82A3.45,3.45,0,0,1,25.32,24.59Z"/><path class="cls-44" d="M24.19,20.36h0a.08.08,0,0,1,0,.05h0l0,0,0,0a.05.05,0,0,1,0,0,.59.59,0,0,1-.16.07h0a.55.55,0,0,1-.18,0h0a.58.58,0,0,1-.19,0h0a1.15,1.15,0,0,1-.17-.06.27.27,0,0,1-.15-.22v5.1a.25.25,0,0,0,.15.21.2.2,0,0,0,.08,0l.06,0h.47a.43.43,0,0,0,.12-.05h0l0,0,0,0h0l0,0h0v0l0,0h0v0s0,0,0,0v-5.1h0A.11.11,0,0,1,24.19,20.36Z"/><path class="cls-43" d="M24.05,20.09c.2.12.2.31,0,.42a.82.82,0,0,1-.73,0,.23.23,0,0,1,0-.43A.85.85,0,0,1,24.05,20.09Z"/><path class="cls-43" d="M28.56,19.07a.75.75,0,0,0-.71,0,.25.25,0,0,0-.15.21h0v5a.23.23,0,0,0,.14.2l.08,0h0l0,0h.48l.1-.05h0l0,0,0,0h0l0,0h0v0h0v-.05l0-5h0v0A.22.22,0,0,0,28.56,19.07Zm.07.36,0,0h0Zm.05-.06s0,0,0,0h0Zm-.09.09h0l0,0Zm-.83-.05,0,0Zm-.05-.1v0Zm0,.06h0Z"/><path class="cls-44" d="M30.41,14.65a.17.17,0,0,1,0,.07.43.43,0,0,1,0,0,.64.64,0,0,1,0,.07.14.14,0,0,0,0,.06l0,.06,0,.06-.05.07,0,.05-.1.1,0,0-.07.06-.06.05-.08,0-.09.06-.31.14-.08,0a1.59,1.59,0,0,1-.33.1h0a2,2,0,0,1-.34.06h-.06l-.38,0h0l-.37,0h-.06a2,2,0,0,1-.35-.06h-.07l-.31-.1-.05,0a2.07,2.07,0,0,1-.34-.15,1.14,1.14,0,0,1-.65-.92l0,5.82a1.11,1.11,0,0,0,.66.91,2.39,2.39,0,0,0,.32.16h0l.06,0,.2.07.1,0,.07,0,.06,0,.22,0h.66l.24,0h.1l.18,0,.08,0,.22-.05.12,0,.09,0,.09,0a1.77,1.77,0,0,0,.31-.15h0l.06,0,.08-.05.06-.05.07-.06a0,0,0,0,0,0,0l0,0,.09-.1s0,0,0,0l0,0,.05-.08,0,0v0l0-.06,0,0v0a.14.14,0,0,0,0-.07s0,0,0,0h0V20.4l0-5.81S30.41,14.63,30.41,14.65Z"/><path class="cls-43" d="M29.76,13.67a1,1,0,0,1,0,1.82,3.45,3.45,0,0,1-3.13,0,1,1,0,0,1,0-1.82A3.45,3.45,0,0,1,29.76,13.67Z"/><path class="cls-44" d="M28.64,9.44h0l0,.05h0l0,0,0,0a.05.05,0,0,1,0,0,.69.69,0,0,1-.15.07h0a.5.5,0,0,1-.18,0h0a.58.58,0,0,1-.19,0h0a.76.76,0,0,1-.16-.06.27.27,0,0,1-.15-.22l0,5.1a.27.27,0,0,0,.15.21l.08,0,.06,0h.48l.11-.05h0l0,0,0,0h0l0,0h0v0l0,0h0V9.39h0Z"/><path class="cls-43" d="M28.49,9.17c.2.12.2.31,0,.42a.79.79,0,0,1-.72,0c-.21-.12-.21-.31,0-.43A.83.83,0,0,1,28.49,9.17Z"/><path class="cls-43" d="M41.06,22.55a.8.8,0,0,0-.71,0,.25.25,0,0,0-.15.21h0v5a.23.23,0,0,0,.14.2l.08,0h0l0,0H41l.1-.05h0l0,0,0,0h0l0,0h0v0h0v-.05l0-5h0v0A.22.22,0,0,0,41.06,22.55Zm.07.36,0,0h0Zm0-.06,0,0h0Zm-.09.09h0l0,0Zm-.83,0,0,0Zm0-.11v0Zm0,.06h0Z"/><path class="cls-44" d="M42.91,18.13a.17.17,0,0,1,0,.07s0,0,0,.06,0,0,0,.06a.14.14,0,0,0,0,.06l0,.07,0,.05-.05.07,0,.05-.1.1,0,0-.07,0-.06.05-.08.05-.09.06-.31.14-.08,0a1.59,1.59,0,0,1-.33.1h0a2,2,0,0,1-.34.06h-.06l-.38,0h-.05l-.37,0h-.06a2,2,0,0,1-.35-.06h-.07l-.31-.1-.05,0a2.07,2.07,0,0,1-.34-.15,1.14,1.14,0,0,1-.65-.92l0,5.82a1.11,1.11,0,0,0,.66.91,2.39,2.39,0,0,0,.32.16h0l.06,0,.2.07.1,0,.07,0,.06,0,.22,0h.66l.24,0h.1l.18,0,.08,0,.22,0,.12,0,.09,0,.09,0a1.77,1.77,0,0,0,.31-.15h0l.06,0,.08-.05.06-.05.07-.06a0,0,0,0,0,0,0l0,0,.09-.1s0,0,0,0l0,0a.56.56,0,0,0,.05-.08l0,0h0l0-.07,0,0v0a.14.14,0,0,0,0-.07s0,0,0,0h0v-.14l0-5.81S42.91,18.11,42.91,18.13Z"/><path class="cls-43" d="M42.26,17.15a1,1,0,0,1,0,1.82,3.45,3.45,0,0,1-3.13,0,1,1,0,0,1,0-1.82A3.45,3.45,0,0,1,42.26,17.15Z"/><path class="cls-44" d="M41.14,12.92h0l0,.05h0l0,0,0,0,0,0a.69.69,0,0,1-.15.07h0a.5.5,0,0,1-.18,0h0a.58.58,0,0,1-.19,0h0a.76.76,0,0,1-.16-.06.27.27,0,0,1-.15-.22l0,5.1a.27.27,0,0,0,.15.21l.08,0,.06,0h.48l.11,0h0l0,0,0,0h0l0,0h0v0l0,0h0a0,0,0,0,0,0,0V12.87h0Z"/><path class="cls-43" d="M41,12.65c.2.12.2.31,0,.42a.79.79,0,0,1-.72,0c-.21-.12-.21-.31,0-.43A.83.83,0,0,1,41,12.65Z"/><path class="cls-43" d="M45.5,32.53a.8.8,0,0,0-.71,0,.27.27,0,0,0-.15.21h0v5a.25.25,0,0,0,.15.21.15.15,0,0,0,.07,0h0l0,0h.48l.1,0h0l0,0,0,0h0l0,0h0v0h0v0a0,0,0,0,1,0,0v-5h0s0,0,0,0S45.61,32.6,45.5,32.53Zm.07.36,0,0h0Zm0-.06s0,0,0,0h0S45.63,32.82,45.62,32.83Zm-.08.09h0l0,0Zm-.83,0v0Zm-.06-.1v0Zm0,0s0,0,0,0S44.67,32.84,44.67,32.83Z"/><path class="cls-44" d="M47.35,28.12a.2.2,0,0,1,0,.07.11.11,0,0,1,0,0s0,.05,0,.07l0,.05,0,.07a.1.1,0,0,1,0,.05.35.35,0,0,1,0,.08l0,0-.09.1,0,0-.07.05-.06.05-.08.05-.08.06a3.13,3.13,0,0,1-.32.15l-.08,0-.32.1h0l-.34.05h-.06a2.42,2.42,0,0,1-.38,0h0a2.23,2.23,0,0,1-.37,0H44.7l-.35-.06-.07,0L44,29.13l0,0a2.53,2.53,0,0,1-.33-.16,1.11,1.11,0,0,1-.66-.91v5.82a1.07,1.07,0,0,0,.65.91,1.87,1.87,0,0,0,.32.15h0L44,35l.19.06.11,0,.06,0h.06l.22,0h1l.19,0,.08,0L46.1,35l.12,0,.08,0,.09,0a3,3,0,0,0,.31-.15l0,0,.06,0,.08-.06.06,0,.07-.06h0l0,0,.09-.1,0,0,0,0,.05-.08,0,0v0l0-.07a.08.08,0,0,0,0,0h0a.19.19,0,0,0,0-.07s0,0,0,0h0a.22.22,0,0,1,0-.08v-.06l0-5.82S47.35,28.1,47.35,28.12Z"/><path class="cls-43" d="M46.7,27.14c.87.5.88,1.31,0,1.81a3.45,3.45,0,0,1-3.13,0,1,1,0,0,1,0-1.81A3.45,3.45,0,0,1,46.7,27.14Z"/><path class="cls-44" d="M45.58,22.9h0l0,.05h0l0,0,0,0,0,0a.44.44,0,0,1-.16.06h0l-.18,0h0l-.19,0h0a.43.43,0,0,1-.17-.06.25.25,0,0,1-.15-.21l0,5.09a.27.27,0,0,0,.15.22l.08,0,.06,0h.43l.05,0,.11,0h0l0,0,0,0h0l0,0h0a0,0,0,0,1,0,0h0s0,0,0,0v0l0-5.09h0A.11.11,0,0,0,45.58,22.9Z"/><path class="cls-43" d="M45.43,22.64c.21.11.21.3,0,.42a.79.79,0,0,1-.73,0c-.2-.12-.21-.31,0-.42A.76.76,0,0,1,45.43,22.64Z"/><g class="cls-8"><g class="cls-8"><path class="cls-2" d="M7.84,56.29l0,6.05a.31.31,0,0,1-.18.25.93.93,0,0,1-.86,0,.31.31,0,0,1-.18-.25l0-6.05a.31.31,0,0,0,.18.25.93.93,0,0,0,.86,0A.31.31,0,0,0,7.84,56.29Z"/><g class="cls-45"><g class="cls-8"><polygon class="cls-2" points="7.84 56.29 7.82 62.34 7.82 62.34 7.84 56.3 7.84 56.29 7.84 56.29"/><path class="cls-2" d="M7.84,56.3l0,6v-6a0,0,0,0,0,0,0Z"/><path class="cls-2" d="M7.83,56.33v6.05a0,0,0,0,0,0,0v-6a.06.06,0,0,0,0,0Z"/><path class="cls-2" d="M7.82,56.37v6l0,0,0-6.05s0,0,0,0Z"/><path class="cls-2" d="M7.81,56.4l0,6.05,0,0,0-6.05,0,0Z"/><path class="cls-2" d="M7.79,56.44l0,6.05s0,0,0,0l0-6.05,0,0Z"/><path class="cls-2" d="M7.75,56.48l0,6.05-.08,0,0-6,.08-.06Z"/><path class="cls-2" d="M7.67,56.54l0,6h0l-.13.06,0-6,.13-.06Z"/><path class="cls-2" d="M7.53,56.6l0,6-.12,0,0-6,.12,0Z"/><path class="cls-2" d="M7.41,56.63l0,6H7.31l0-6Z"/><path class="cls-2" d="M7.33,56.64l0,6H7.25v-6Z"/><path class="cls-2" d="M7.26,56.64v6H7.18l0-6Z"/><path class="cls-2" d="M7.2,56.64l0,6h0v-6Z"/><path class="cls-2" d="M7.14,56.64v6H7.06l0-6Z"/><path class="cls-2" d="M7.08,56.63l0,6H7l0-6.05Z"/><path class="cls-2" d="M7,56.62l0,6.05H6.94l0-6Z"/><path class="cls-2" d="M7,56.61l0,6-.07,0,0-6.05.07,0Z"/><path class="cls-2" d="M6.89,56.58l0,6.05-.09,0a.31.31,0,0,1-.18-.25l0-6.05a.31.31,0,0,0,.18.25.19.19,0,0,0,.09,0Z"/></g></g></g><path class="cls-2" d="M7.66,56a.26.26,0,0,1,0,.5.93.93,0,0,1-.86,0c-.24-.14-.25-.36,0-.5A.93.93,0,0,1,7.66,56Z"/></g><path class="cls-3" d="M9.41,46.39a.2.2,0,0,0,0,.07s0,0,0,.06a.14.14,0,0,1,0,.07.14.14,0,0,1,0,.06l0,.07,0,.05-.06.08,0,0-.09.1,0,0L9,47.1l-.07,0-.08.06-.09,0a1.57,1.57,0,0,1-.32.15l-.09,0-.21.06-.23.06-.28,0H7.54l-.39,0H7.09l-.38,0H6.65c-.13,0-.25,0-.37-.06l-.06,0-.32-.09-.06,0-.35-.17a1.17,1.17,0,0,1-.68-.95l0,10.08a1.17,1.17,0,0,0,.68,1,3.36,3.36,0,0,0,.33.16h.08l.2.07.12,0,.06,0h.06l.23,0h.68l.26,0h.1l.19,0,.09,0,.23-.06.12,0,.1,0,.08,0,.33-.15s0,0,0,0l.07,0,.08-.05.06,0L9,57.12H9l0,0,.09-.1,0,0v0l.06-.08,0,0v0l0-.07s0,0,0,0v0l0-.07v-.06s0,0,0-.07V56.4l0-10.08Z"/><path class="cls-4" d="M8.73,45.38c.9.52.91,1.36,0,1.88a3.58,3.58,0,0,1-3.25,0,1,1,0,0,1,0-1.89A3.55,3.55,0,0,1,8.73,45.38Z"/><path class="cls-3" d="M7.73,40.39l0,6a.31.31,0,0,1-.17.25,1,1,0,0,1-.87,0,.31.31,0,0,1-.18-.25l0-6a.31.31,0,0,0,.18.25.93.93,0,0,0,.86,0A.31.31,0,0,0,7.73,40.39Z"/><g class="cls-46"><g class="cls-8"><polygon class="cls-3" points="7.73 40.39 7.71 46.44 7.71 46.45 7.73 40.4 7.73 40.39 7.73 40.39"/><path class="cls-3" d="M7.73,40.4l0,6.05v0l0-6v0Z"/><path class="cls-3" d="M7.73,40.43l0,6s0,0,0,0l0-6s0,0,0,0Z"/><path class="cls-3" d="M7.72,40.47l0,6a.05.05,0,0,1,0,0l0-6,0,0Z"/><path class="cls-3" d="M7.7,40.5l0,6s0,0,0,0l0-6.05s0,0,0,0Z"/><path class="cls-3" d="M7.68,40.54l0,6.05,0,0,0-6.05,0,0Z"/><path class="cls-3" d="M7.64,40.58l0,6.05-.08,0,0-6,.08-.06Z"/><path class="cls-3" d="M7.56,40.64l0,6h0l-.14.06,0-6,.13-.06Z"/><path class="cls-3" d="M7.42,40.7l0,6-.11,0V40.73l.12,0Z"/><path class="cls-3" d="M7.3,40.73v6.05H7.21l0-6Z"/><path class="cls-3" d="M7.23,40.74l0,6H7.14l0-6Z"/><path class="cls-3" d="M7.16,40.74l0,6H7.08l0-6Z"/><path class="cls-3" d="M7.1,40.74l0,6H7l0-6Z"/><path class="cls-3" d="M7,40.74l0,6H7V40.73Z"/><path class="cls-3" d="M7,40.73v6.05H6.9V40.72Z"/><path class="cls-3" d="M6.91,40.72v6.05H6.83l0-6Z"/><path class="cls-3" d="M6.85,40.71l0,6-.07,0,0-6,.07,0Z"/><path class="cls-3" d="M6.78,40.68l0,6-.09,0a.31.31,0,0,1-.18-.25l0-6a.31.31,0,0,0,.18.25l.09,0Z"/></g></g><path class="cls-4" d="M7.55,40.14a.26.26,0,0,1,0,.5.93.93,0,0,1-.86,0,.26.26,0,0,1,0-.5A.93.93,0,0,1,7.55,40.14Z"/><g class="cls-8"><g class="cls-8"><path class="cls-4" d="M19.56,43l0,6a.31.31,0,0,1-.17.25,1,1,0,0,1-.87,0,.31.31,0,0,1-.18-.25l0-6a.31.31,0,0,0,.18.25.93.93,0,0,0,.86,0A.31.31,0,0,0,19.56,43Z"/><g class="cls-47"><g class="cls-8"><polygon class="cls-2" points="19.56 42.99 19.54 49.04 19.54 49.04 19.56 42.99 19.56 42.99 19.56 42.99"/><path class="cls-2" d="M19.56,43l0,6V43a0,0,0,0,0,0,0Z"/><path class="cls-2" d="M19.55,43v6s0,0,0,0l0-6v0Z"/><path class="cls-2" d="M19.55,43.06l0,6,0,0,0-6,0,0Z"/><path class="cls-2" d="M19.53,43.1l0,6,0,0,0-6,0,0Z"/><path class="cls-2" d="M19.51,43.14l0,6a.08.08,0,0,1,0,0l0-6,0,0Z"/><path class="cls-2" d="M19.47,43.18l0,6-.08.06,0-6.05.08,0Z"/><path class="cls-2" d="M19.39,43.23l0,6.05h0l-.14.05,0-6,.13-.06Z"/><path class="cls-2" d="M19.25,43.3l0,6-.11,0V43.33l.12,0Z"/><path class="cls-2" d="M19.13,43.33v6.05H19v-6Z"/><path class="cls-2" d="M19.05,43.34v6H19v-6Z"/><path class="cls-2" d="M19,43.34v6H18.9l0-6Z"/><path class="cls-2" d="M18.92,43.34l0,6h0v-6Z"/><path class="cls-2" d="M18.86,43.34v6h-.06V43.33Z"/><path class="cls-2" d="M18.8,43.33v6.05h-.07l0-6Z"/><path class="cls-2" d="M18.74,43.32l0,6-.06,0,0-6Z"/><path class="cls-2" d="M18.68,43.31l0,6-.07,0,0-6,.07,0Z"/><path class="cls-2" d="M18.61,43.28l0,6-.09,0a.31.31,0,0,1-.18-.25l0-6a.31.31,0,0,0,.18.25l.09,0Z"/></g></g></g><path class="cls-2" d="M19.38,42.74a.26.26,0,0,1,0,.5.93.93,0,0,1-.86,0,.26.26,0,0,1,0-.5A.93.93,0,0,1,19.38,42.74Z"/></g><path class="cls-3" d="M21.13,33.09a.2.2,0,0,0,0,.07.14.14,0,0,1,0,.06.19.19,0,0,1,0,.07l0,.06,0,.07,0,0-.06.08,0,.05-.09.1s0,0,0,0l-.07.06-.06.05-.09,0-.08.06-.33.15-.09,0-.21.07-.23.06-.28,0h-.07a2.56,2.56,0,0,1-.39,0h-.06l-.38,0h-.06L18,34.26l-.06,0-.32-.1-.06,0a2.21,2.21,0,0,1-.35-.16,1.17,1.17,0,0,1-.68-1l0,10.08a1.17,1.17,0,0,0,.68.95l.33.16h0l.06,0,.2.07.12,0,.06,0H18l.23,0h.22l.23,0H19l.25,0h.1l.19,0,.09,0,.23-.06.12,0,.1,0,.08,0a2.41,2.41,0,0,0,.33-.15l0,0,.07,0,.08,0,.06-.06.07,0h0l0,0,.1-.1,0,0v0l.06-.08,0,0h0l0-.07s0,0,0,0h0l0-.07v0h0s0-.05,0-.07V43.1l0-10.08Z"/><path class="cls-4" d="M20.45,32.07a1,1,0,0,1,0,1.89,3.6,3.6,0,0,1-3.26,0,1,1,0,0,1,0-1.89A3.58,3.58,0,0,1,20.45,32.07Z"/><path class="cls-3" d="M19.45,27.09l0,6.05a.29.29,0,0,1-.17.25,1,1,0,0,1-.87,0,.31.31,0,0,1-.18-.26l0-6a.31.31,0,0,0,.18.25.93.93,0,0,0,.86,0A.31.31,0,0,0,19.45,27.09Z"/><g class="cls-48"><g class="cls-8"><polygon class="cls-3" points="19.45 27.09 19.43 33.14 19.43 33.14 19.45 27.09 19.45 27.09 19.45 27.09"/><path class="cls-3" d="M19.45,27.09l0,6.05v0l0-6.05v0Z"/><path class="cls-3" d="M19.45,27.13l0,6.05v0l0-6.05s0,0,0,0Z"/><path class="cls-3" d="M19.44,27.16l0,6.05,0,0,0-6.05,0,0Z"/><path class="cls-3" d="M19.42,27.2l0,6.05,0,0,0-6.05,0,0Z"/><path class="cls-3" d="M19.4,27.23l0,6.05,0,0,0-6,0-.05Z"/><path class="cls-3" d="M19.36,27.28l0,6-.08.05,0-6.05.08,0Z"/><path class="cls-3" d="M19.28,27.33l0,6.05h0l-.14.06,0-6.05.13-.06Z"/><path class="cls-3" d="M19.14,27.4l0,6.05-.11,0,0-6,.11,0Z"/><path class="cls-3" d="M19,27.43l0,6h-.08l0-6Z"/><path class="cls-3" d="M19,27.44l0,6h-.07l0-6.05Z"/><path class="cls-3" d="M18.88,27.44l0,6.05H18.8l0-6.05Z"/><path class="cls-3" d="M18.82,27.44l0,6.05h-.06l0-6.05Z"/><path class="cls-3" d="M18.76,27.44l0,6.05h-.06l0-6Z"/><path class="cls-3" d="M18.7,27.43l0,6h-.06l0-6Z"/><path class="cls-3" d="M18.64,27.42l0,6-.07,0,0-6Z"/><path class="cls-3" d="M18.57,27.41l0,6-.07,0,0-6.05.07,0Z"/><path class="cls-3" d="M18.5,27.38l0,6.05-.09,0a.31.31,0,0,1-.18-.26l0-6a.31.31,0,0,0,.18.25l.09,0Z"/></g></g><path class="cls-4" d="M19.27,26.84a.26.26,0,0,1,0,.5.93.93,0,0,1-.86,0,.26.26,0,0,1,0-.5A.93.93,0,0,1,19.27,26.84Z"/><g class="cls-8"><g class="cls-8"><path class="cls-4" d="M35.34,23.64l0,6.05a.31.31,0,0,1-.18.25,1,1,0,0,1-.86,0,.31.31,0,0,1-.18-.26v-6a.3.3,0,0,0,.19.25.93.93,0,0,0,.86,0A.31.31,0,0,0,35.34,23.64Z"/><g class="cls-49"><g class="cls-8"><polygon class="cls-2" points="35.34 23.64 35.32 29.69 35.32 29.69 35.34 23.64 35.34 23.64 35.34 23.64"/><path class="cls-2" d="M35.34,23.64l0,6.05v-6a.06.06,0,0,0,0,0Z"/><path class="cls-2" d="M35.33,23.68v6.05a0,0,0,0,0,0,0V23.71a0,0,0,0,0,0,0Z"/><path class="cls-2" d="M35.32,23.71v6.05s0,0,0,0l0-6.05s0,0,0,0Z"/><path class="cls-2" d="M35.31,23.75l0,6.05,0,0v-6l0,0Z"/><path class="cls-2" d="M35.28,23.79v6l0,0v-6l0,0Z"/><path class="cls-2" d="M35.24,23.83v6l-.08.06,0-6.05.07-.05Z"/><path class="cls-2" d="M35.17,23.88l0,6.05h0L35,30l0-6,.13-.06Z"/><path class="cls-2" d="M35,24l0,6a.27.27,0,0,1-.12,0l0-6L35,24Z"/><path class="cls-2" d="M34.91,24l0,6h-.08l0-6Z"/><path class="cls-2" d="M34.83,24l0,6h-.06V24Z"/><path class="cls-2" d="M34.76,24V30h-.07l0-6.05Z"/><path class="cls-2" d="M34.7,24l0,6.05h-.06l0-6.05Z"/><path class="cls-2" d="M34.64,24l0,6.05h-.06l0-6.05Z"/><path class="cls-2" d="M34.58,24l0,6.05H34.5l0-6.05Z"/><path class="cls-2" d="M34.52,24l0,6.05-.06,0,0-6Z"/><path class="cls-2" d="M34.46,24l0,6-.07,0V23.93l.08,0Z"/><path class="cls-2" d="M34.38,23.93V30l-.09,0a.31.31,0,0,1-.18-.26v-6a.3.3,0,0,0,.19.25l.08,0Z"/></g></g></g><path class="cls-2" d="M35.16,23.39c.24.13.24.36,0,.5a.93.93,0,0,1-.86,0c-.25-.14-.25-.37,0-.5A1,1,0,0,1,35.16,23.39Z"/></g><path class="cls-3" d="M36.9,13.74v.07l0,.06a.19.19,0,0,1,0,.07s0,0,0,.05l0,.08a.09.09,0,0,1,0,0l-.05.08s0,0,0,0l-.1.11,0,0-.08.06a.15.15,0,0,1-.06,0,.24.24,0,0,1-.08.06l-.09.06-.32.15-.09,0-.21.07-.23.06-.28,0H35l-.39,0h-.06l-.38,0h-.06l-.37-.07h-.07l-.31-.1-.06,0a2.21,2.21,0,0,1-.35-.16,1.17,1.17,0,0,1-.68-.95l0,10.08a1.17,1.17,0,0,0,.68,1,2.53,2.53,0,0,0,.33.16h0l.06,0,.2.07.12,0h.06l.06,0L34,25h.22l.23,0h.59l.19,0,.09,0,.23-.06.12,0,.09,0,.09,0,.32-.15,0,0,.06,0,.09-.05.06-.06.07-.05v0l0,0a.87.87,0,0,0,.09-.11l0,0s0,0,0,0l.06-.08a.05.05,0,0,1,0,0,0,0,0,0,1,0,0l0-.08s0,0,0,0h0a.25.25,0,0,0,0-.07l0-.05h0a.17.17,0,0,1,0-.07v-.07l0-10.08A.15.15,0,0,1,36.9,13.74Z"/><path class="cls-4" d="M36.23,12.72a1,1,0,0,1,0,1.89,3.58,3.58,0,0,1-3.25,0,1,1,0,0,1,0-1.89A3.58,3.58,0,0,1,36.23,12.72Z"/><path class="cls-3" d="M35.23,7.74l0,6A.28.28,0,0,1,35,14a.93.93,0,0,1-.86,0,.29.29,0,0,1-.18-.25l0-6a.31.31,0,0,0,.18.25.93.93,0,0,0,.86,0A.31.31,0,0,0,35.23,7.74Z"/><g class="cls-50"><g class="cls-8"><polygon class="cls-3" points="35.23 7.74 35.21 13.79 35.21 13.79 35.23 7.74 35.23 7.74 35.23 7.74"/><path class="cls-3" d="M35.23,7.74l0,6v-6s0,0,0,0Z"/><path class="cls-3" d="M35.22,7.78v6.08l0-6v0Z"/><path class="cls-3" d="M35.22,7.81l0,6.05s0,0,0,0l0-6.05,0,0Z"/><path class="cls-3" d="M35.2,7.85l0,6.05,0,0v-6l0,0Z"/><path class="cls-3" d="M35.17,7.88v6.05s0,0,0,0l0-6,0,0Z"/><path class="cls-3" d="M35.14,7.93l0,6L35,14l0-6,.08-.05Z"/><path class="cls-3" d="M35.06,8l0,6h0a.31.31,0,0,1-.13.06l0-6L35.05,8Z"/><path class="cls-3" d="M34.92,8.05l0,6a.23.23,0,0,1-.11,0v-6l.12,0Z"/><path class="cls-3" d="M34.8,8.08v6h-.08v-6Z"/><path class="cls-3" d="M34.72,8.09v6h-.07l0-6.05Z"/><path class="cls-3" d="M34.66,8.09l0,6.05h-.06V8.09Z"/><path class="cls-3" d="M34.59,8.09v6.05h-.06V8.09Z"/><path class="cls-3" d="M34.53,8.09v6.05h-.06V8.08Z"/><path class="cls-3" d="M34.47,8.08v6.05H34.4v-6Z"/><path class="cls-3" d="M34.41,8.07v6l-.07,0,0-6,.06,0Z"/><path class="cls-3" d="M34.35,8.05l0,6-.07,0,0-6.05.07,0Z"/><path class="cls-3" d="M34.28,8l0,6.05L34.17,14a.29.29,0,0,1-.18-.25l0-6a.31.31,0,0,0,.18.25l.09,0Z"/></g></g><path class="cls-4" d="M35.05,7.49a.26.26,0,0,1,0,.5.93.93,0,0,1-.86,0c-.24-.14-.24-.36,0-.5A1,1,0,0,1,35.05,7.49Z"/><g class="cls-8"><g class="cls-8"><path class="cls-2" d="M52.47,34.89l0,6a.31.31,0,0,1-.18.25.93.93,0,0,1-.86,0,.31.31,0,0,1-.18-.25v-6a.3.3,0,0,0,.19.25.93.93,0,0,0,.86,0A.31.31,0,0,0,52.47,34.89Z"/><g class="cls-51"><g class="cls-8"><path class="cls-2" d="M52.47,34.89l0,6h0l0-6Z"/><path class="cls-2" d="M52.47,34.9l0,6v-6a0,0,0,0,0,0,0Z"/><path class="cls-2" d="M52.46,34.93v6s0,0,0,0l0-6v0Z"/><path class="cls-2" d="M52.46,35l0,6,0,0,0-6,0,0Z"/><path class="cls-2" d="M52.44,35l0,6a.05.05,0,0,0,0,0V35l0,0Z"/><path class="cls-2" d="M52.41,35v6.05s0,0,0,0l0-6.05,0,0Z"/><path class="cls-2" d="M52.38,35.08l0,6.05-.08,0,0-6,.08-.06Z"/><path class="cls-2" d="M52.3,35.14l0,6h0l-.13.06v-6l.14-.06Z"/><path class="cls-2" d="M52.15,35.2v6l-.12,0,0-6.05.11,0Z"/><path class="cls-2" d="M52,35.23l0,6.05h-.08l0-6Z"/><path class="cls-2" d="M52,35.24l0,6h-.06v-6Z"/><path class="cls-2" d="M51.89,35.24v6h-.07l0-6Z"/><path class="cls-2" d="M51.83,35.24l0,6h-.06l0-6Z"/><path class="cls-2" d="M51.77,35.24l0,6h-.06l0-6.05Z"/><path class="cls-2" d="M51.71,35.23l0,6.05h-.06l0-6.05Z"/><path class="cls-2" d="M51.65,35.22l0,6.05h-.06l0-6Z"/><path class="cls-2" d="M51.59,35.21l0,6-.07,0v-6l.08,0Z"/><path class="cls-2" d="M51.51,35.18v6l-.09,0a.31.31,0,0,1-.18-.25v-6a.3.3,0,0,0,.19.25l.08,0Z"/></g></g></g><path class="cls-2" d="M52.29,34.64a.26.26,0,0,1,0,.5.93.93,0,0,1-.86,0c-.24-.14-.25-.36,0-.5A1,1,0,0,1,52.29,34.64Z"/></g><path class="cls-3" d="M54,25a.2.2,0,0,0,0,.07s0,0,0,.06a.14.14,0,0,1,0,.07s0,0,0,.06l0,.07,0,.05a.35.35,0,0,1,0,.08l0,.05-.09.1,0,0-.07.06-.07.05-.08.06-.09.05a1.87,1.87,0,0,1-.32.15l-.09,0-.21.06-.23.06-.28,0h-.07l-.39,0h-.06l-.38,0h-.06a2.2,2.2,0,0,1-.37-.06l-.07,0-.31-.09-.06,0-.35-.17a1.13,1.13,0,0,1-.68-.95l0,10.08a1.15,1.15,0,0,0,.68.95,2.53,2.53,0,0,0,.33.16h0l.06,0,.2.06.12,0,.06,0h.06l.23,0h.68l.26,0h.1l.19,0,.09,0,.23-.06.12,0,.1,0,.08,0a1.57,1.57,0,0,0,.32-.15l0,0,.07,0,.07-.05.07,0,.07-.06h0l0,0,.09-.1s0,0,0,0,0,0,0,0l.06-.08s0,0,0,0v0a.25.25,0,0,0,0-.07l0,0v0a.14.14,0,0,0,0-.07s0,0,0,0v0a.17.17,0,0,1,0-.07V35l0-10.09Z"/><path class="cls-4" d="M53.36,24c.9.52.91,1.36,0,1.88a3.58,3.58,0,0,1-3.25,0c-.9-.52-.91-1.36,0-1.88A3.55,3.55,0,0,1,53.36,24Z"/><path class="cls-3" d="M52.36,19l0,6.05a.31.31,0,0,1-.18.25.93.93,0,0,1-.86,0,.31.31,0,0,1-.18-.25l0-6.05a.31.31,0,0,0,.18.25.93.93,0,0,0,.86,0A.31.31,0,0,0,52.36,19Z"/><g class="cls-52"><g class="cls-8"><polygon class="cls-3" points="52.36 18.99 52.34 25.04 52.34 25.05 52.36 19 52.36 18.99 52.36 18.99"/><path class="cls-3" d="M52.36,19l0,6.05v0l0-6v0Z"/><path class="cls-3" d="M52.36,19l0,6s0,0,0,0l0-6a.06.06,0,0,1,0,0Z"/><path class="cls-3" d="M52.35,19.07l0,6s0,0,0,0l0-6,0,0Z"/><path class="cls-3" d="M52.33,19.1l0,6s0,0,0,0V19.14l0,0Z"/><path class="cls-3" d="M52.3,19.14v6.05s0,0,0,0l0-6.05,0,0Z"/><path class="cls-3" d="M52.27,19.18l0,6.05-.08.06,0-6.05.08-.06Z"/><path class="cls-3" d="M52.19,19.24l0,6.05h0l-.13.06,0-6.05.13-.06Z"/><path class="cls-3" d="M52.05,19.3l0,6.05-.11,0V19.33l.12,0Z"/><path class="cls-3" d="M51.93,19.33v6.05h-.08l0-6.05Z"/><path class="cls-3" d="M51.86,19.34l0,6.05h-.07l0-6.05Z"/><path class="cls-3" d="M51.79,19.34l0,6.05h-.06V19.34Z"/><path class="cls-3" d="M51.72,19.34v6.05h-.06V19.34Z"/><path class="cls-3" d="M51.66,19.34v6.05h-.06V19.33Z"/><path class="cls-3" d="M51.6,19.33v6.05h-.06V19.32Z"/><path class="cls-3" d="M51.54,19.32v6.05h-.07l0-6.05Z"/><path class="cls-3" d="M51.48,19.31l0,6.05-.07,0,0-6,.07,0Z"/><path class="cls-3" d="M51.41,19.28l0,6-.09,0a.31.31,0,0,1-.18-.25l0-6.05a.31.31,0,0,0,.18.25l.09,0Z"/></g></g><path class="cls-2" d="M52.18,18.74a.26.26,0,0,1,0,.5.93.93,0,0,1-.86,0c-.24-.14-.24-.36,0-.5A1,1,0,0,1,52.18,18.74Z"/><g class="cls-8"><g class="cls-8"><path class="cls-2" d="M58.63,25.93l0,6.05a.31.31,0,0,1-.18.25.93.93,0,0,1-.86,0,.31.31,0,0,1-.18-.25l0-6.05a.31.31,0,0,0,.18.25.93.93,0,0,0,.86,0A.31.31,0,0,0,58.63,25.93Z"/><g class="cls-53"><g class="cls-8"><polygon class="cls-2" points="58.63 25.93 58.61 31.98 58.61 31.99 58.63 25.94 58.63 25.93 58.63 25.93"/><path class="cls-2" d="M58.63,25.94l0,6v0l0-6.05v0Z"/><path class="cls-2" d="M58.63,26l0,6.05s0,0,0,0l0-6.05a.06.06,0,0,1,0,0Z"/><path class="cls-2" d="M58.62,26l0,6.05,0,0,0-6.05,0,0Z"/><path class="cls-2" d="M58.6,26l0,6.05,0,0V26.08l0,0Z"/><path class="cls-2" d="M58.57,26.08v6.05s0,0,0,0l0-6.05,0,0Z"/><path class="cls-2" d="M58.54,26.12l0,6.05-.08.06,0-6,.08-.06Z"/><path class="cls-2" d="M58.46,26.18l0,6h0l-.13.06,0-6.05a.31.31,0,0,0,.13-.06Z"/><path class="cls-2" d="M58.32,26.24l0,6.05-.12,0,0-6.05.12,0Z"/><path class="cls-2" d="M58.2,26.27l0,6.05h-.07v-6Z"/><path class="cls-2" d="M58.12,26.28v6H58v-6Z"/><path class="cls-2" d="M58.05,26.29v6H58l0-6Z"/><path class="cls-2" d="M58,26.29l0,6h-.06l0-6Z"/><path class="cls-2" d="M57.93,26.28l0,6h0v-6Z"/><path class="cls-2" d="M57.87,26.28v6l-.06,0v-6Z"/><path class="cls-2" d="M57.81,26.27v6h-.07l0-6,.06,0Z"/><path class="cls-2" d="M57.75,26.25l0,6-.07,0v-6l.08,0Z"/><path class="cls-2" d="M57.67,26.23v6l-.09,0a.31.31,0,0,1-.18-.25l0-6.05a.31.31,0,0,0,.18.25l.08.05Z"/></g></g></g><path class="cls-2" d="M58.45,25.68a.26.26,0,0,1,0,.5.93.93,0,0,1-.86,0c-.24-.14-.24-.36,0-.5A1,1,0,0,1,58.45,25.68Z"/></g><path class="cls-3" d="M60.2,16a.15.15,0,0,0,0,.07s0,0,0,.06a592660528172,592660528172,0,0,0,0,.12l0,.07a.1.1,0,0,1,0,.05.22.22,0,0,1-.05.08l0,.05-.09.1,0,0-.07.06a.18.18,0,0,1-.07.05l-.08.06-.09,0a1.57,1.57,0,0,1-.32.15l-.09,0-.21.06-.23.06-.28.05h-.07l-.39,0h-.06l-.38,0h-.06a2.2,2.2,0,0,1-.37-.06l-.07,0-.31-.09-.06,0a2.26,2.26,0,0,1-.35-.17A1.15,1.15,0,0,1,55.6,16l0,10.08a1.15,1.15,0,0,0,.68.95,2.49,2.49,0,0,0,.33.16h0l.06,0,.2.07.12,0,.06,0h.06l.23.05H58l.25,0h.1l.19,0,.09,0a1,1,0,0,0,.23-.06l.12,0,.1,0,.08,0a2,2,0,0,0,.33-.15h0l.07,0,.08-.05.06-.05.07-.06h0l0,0,.1-.1a0,0,0,0,1,0,0s0,0,0,0l.06-.08,0,0v0l0-.07s0,0,0,0v0s0,0,0-.07,0,0,0,0h0s0-.05,0-.08v-.06L60.2,16Z"/><path class="cls-4" d="M59.52,15c.9.52.91,1.36,0,1.88a3.58,3.58,0,0,1-3.25,0c-.9-.52-.91-1.36,0-1.88A3.58,3.58,0,0,1,59.52,15Z"/><path class="cls-3" d="M58.52,10l0,6a.31.31,0,0,1-.18.25.93.93,0,0,1-.86,0,.31.31,0,0,1-.18-.25l0-6a.31.31,0,0,0,.18.25.93.93,0,0,0,.86,0A.31.31,0,0,0,58.52,10Z"/><g class="cls-54"><g class="cls-8"><polygon class="cls-3" points="58.52 10.03 58.5 16.08 58.5 16.09 58.52 10.04 58.52 10.03 58.52 10.03"/><path class="cls-3" d="M58.52,10l0,6.05v0l0-6.05v0Z"/><path class="cls-3" d="M58.52,10.07l0,6.05s0,0,0,0l0-6.05a.08.08,0,0,1,0,0Z"/><path class="cls-3" d="M58.51,10.11l0,6.05,0,0,0-6.05,0,0Z"/><path class="cls-3" d="M58.49,10.14l0,6.05,0,0,0-6.05,0,0Z"/><path class="cls-3" d="M58.47,10.18l0,6.05,0,0,0-6,0,0Z"/><path class="cls-3" d="M58.43,10.22l0,6-.08.06,0-6,.08-.06Z"/><path class="cls-3" d="M58.35,10.28l0,6h0l-.13.06,0-6.05a.31.31,0,0,0,.13-.06Z"/><path class="cls-3" d="M58.21,10.34l0,6.05-.11,0V10.37l.12,0Z"/><path class="cls-3" d="M58.09,10.37v6.05H58l0-6Z"/><path class="cls-3" d="M58,10.38l0,6h-.07l0-6Z"/><path class="cls-3" d="M58,10.39l0,6h-.06l0-6Z"/><path class="cls-3" d="M57.89,10.39l0,6h-.06v-6Z"/><path class="cls-3" d="M57.82,10.38v6h-.06l0-6Z"/><path class="cls-3" d="M57.77,10.38l0,6h-.06l0-6.05.06,0Z"/><path class="cls-3" d="M57.71,10.36l0,6.05h-.06v-6Z"/><path class="cls-3" d="M57.64,10.35v6l-.08,0,0-6.05s0,0,.07,0Z"/><path class="cls-3" d="M57.57,10.32l0,6.05-.09,0a.31.31,0,0,1-.18-.25l0-6a.31.31,0,0,0,.18.25l.09,0Z"/></g></g><path class="cls-2" d="M58.34,9.78a.26.26,0,0,1,0,.5.93.93,0,0,1-.86,0c-.24-.14-.24-.36,0-.5A1,1,0,0,1,58.34,9.78Z"/><g class="cls-8"><g class="cls-8"><path class="cls-2" d="M65.54,32l0,6.05a.29.29,0,0,1-.17.25,1,1,0,0,1-.87,0,.31.31,0,0,1-.18-.25l0-6.05a.32.32,0,0,0,.18.26,1,1,0,0,0,.86,0A.28.28,0,0,0,65.54,32Z"/><g class="cls-55"><g class="cls-8"><path class="cls-2" d="M65.54,32l0,6.05h0l0-6Z"/><path class="cls-2" d="M65.54,32l0,6v0l0-6.05v0Z"/><path class="cls-2" d="M65.54,32.05l0,6.05s0,0,0,0l0-6s0,0,0,0Z"/><path class="cls-2" d="M65.53,32.09l0,6,0,0,0-6.05,0,0Z"/><path class="cls-2" d="M65.51,32.12l0,6.05a.08.08,0,0,1,0,0l0-6.05,0,0Z"/><path class="cls-2" d="M65.49,32.16l0,6.05,0,0,0-6,0,0Z"/><path class="cls-2" d="M65.45,32.2l0,6-.08.06,0-6.05.08-.06Z"/><path class="cls-2" d="M65.37,32.26l0,6.05h0a.42.42,0,0,1-.14.06l0-6a.31.31,0,0,0,.13-.06Z"/><path class="cls-2" d="M65.23,32.32l0,6-.11,0v-6l.12,0Z"/><path class="cls-2" d="M65.11,32.35v6H65l0-6Z"/><path class="cls-2" d="M65,32.36l0,6H65l0-6Z"/><path class="cls-2" d="M65,32.37l0,6h-.06V32.37Z"/><path class="cls-2" d="M64.9,32.37v6.05h-.06v-6Z"/><path class="cls-2" d="M64.84,32.36v6h-.06v-6Z"/><path class="cls-2" d="M64.78,32.36v6h-.06v-6Z"/><path class="cls-2" d="M64.72,32.35v6l-.07,0,0-6.05.06,0Z"/><path class="cls-2" d="M64.66,32.33l0,6.05-.07,0,0-6,.07,0Z"/><path class="cls-2" d="M64.59,32.31l0,6-.09,0a.31.31,0,0,1-.18-.25l0-6.05a.32.32,0,0,0,.18.26l.09,0Z"/></g></g></g><path class="cls-2" d="M65.36,31.76a.26.26,0,0,1,0,.5,1,1,0,0,1-.86,0,.27.27,0,0,1,0-.51A.93.93,0,0,1,65.36,31.76Z"/></g><path class="cls-3" d="M67.11,22.12s0,.05,0,.07a.14.14,0,0,1,0,.06s0,0,0,.06l0,.06,0,.07,0,0-.06.09,0,0-.1.11,0,0-.07.06-.06.05-.09.06-.08.05-.32.16-.1,0-.21.07-.23.05-.28.05h-.07l-.38,0h-.07l-.38,0h-.06a2.38,2.38,0,0,1-.37-.06h-.06l-.32-.1-.06,0a2.26,2.26,0,0,1-.35-.17,1.15,1.15,0,0,1-.68-.95l0,10.08a1.18,1.18,0,0,0,.68,1,2.07,2.07,0,0,0,.34.15h0l.06,0,.2.07.12,0H64l.05,0,.23,0h1l.2,0,.08,0,.23,0a.53.53,0,0,1,.12,0l.1,0,.08,0a2.53,2.53,0,0,0,.33-.16h0l.06,0,.08-.06.06-.05.07-.06h0l0,0,.1-.1s0,0,0,0a0,0,0,0,0,0,0l.06-.08,0,0v0l0-.07a.08.08,0,0,0,0,0h0a.64.64,0,0,1,0-.07s0,0,0,0h0s0-.05,0-.08v-.06l0-10.08Z"/><path class="cls-4" d="M66.44,21.1a1,1,0,0,1,0,1.88,3.6,3.6,0,0,1-3.26,0,1,1,0,0,1,0-1.88A3.6,3.6,0,0,1,66.44,21.1Z"/><path class="cls-3" d="M65.43,16.11v6.05a.31.31,0,0,1-.18.25.93.93,0,0,1-.86,0,.3.3,0,0,1-.19-.25l0-6.05a.31.31,0,0,0,.18.25.93.93,0,0,0,.86,0A.28.28,0,0,0,65.43,16.11Z"/><g class="cls-56"><g class="cls-8"><polygon class="cls-3" points="65.43 16.11 65.42 22.16 65.42 22.17 65.43 16.12 65.43 16.11 65.43 16.11"/><path class="cls-3" d="M65.43,16.12v6.05a0,0,0,0,0,0,0l0-6.05v0Z"/><path class="cls-3" d="M65.43,16.15l0,6.05a.06.06,0,0,1,0,0l0-6s0,0,0,0Z"/><path class="cls-3" d="M65.42,16.19l0,6s0,0,0,0v-6s0,0,0,0Z"/><path class="cls-3" d="M65.4,16.23v6l0,0,0-6,0,0Z"/><path class="cls-3" d="M65.38,16.26l0,6s0,0,0,0l0-6.05s0,0,0,0Z"/><path class="cls-3" d="M65.34,16.3l0,6.05a.28.28,0,0,1-.08.06l0-6.05.08-.06Z"/><path class="cls-3" d="M65.26,16.36l0,6.05h0a.38.38,0,0,1-.13.06v-6a.31.31,0,0,0,.13-.06Z"/><path class="cls-3" d="M65.12,16.42v6l-.12,0,0-6.05a.45.45,0,0,0,.11,0Z"/><path class="cls-3" d="M65,16.45l0,6.05h-.08l0-6.05Z"/><path class="cls-3" d="M64.93,16.46l0,6.05h-.07l0-6.05Z"/><path class="cls-3" d="M64.86,16.47l0,6.05h-.06l0-6.05Z"/><path class="cls-3" d="M64.8,16.47l0,6.05h-.06l0-6.05Z"/><path class="cls-3" d="M64.74,16.46l0,6.05h-.06l0-6.05Z"/><path class="cls-3" d="M64.68,16.46l0,6.05-.06,0,0-6Z"/><path class="cls-3" d="M64.62,16.45l0,6h-.06V16.43l.07,0Z"/><path class="cls-3" d="M64.55,16.43v6.05l-.08,0,0-6.05.07,0Z"/><path class="cls-3" d="M64.48,16.41l0,6.05-.08-.05a.3.3,0,0,1-.19-.25l0-6.05a.31.31,0,0,0,.18.25l.09.05Z"/></g></g><path class="cls-2" d="M65.25,15.86c.24.14.24.37,0,.5a.93.93,0,0,1-.86,0c-.24-.13-.24-.36,0-.5A1,1,0,0,1,65.25,15.86Z"/><g class="cls-8"><g class="cls-8"><path class="cls-2" d="M71.25,19.55l0,6.05a.31.31,0,0,1-.17.25,1,1,0,0,1-.87,0A.31.31,0,0,1,70,25.6l0-6.05a.29.29,0,0,0,.18.25.93.93,0,0,0,.86,0A.29.29,0,0,0,71.25,19.55Z"/><g class="cls-57"><g class="cls-8"><polygon class="cls-2" points="71.25 19.55 71.23 25.6 71.23 25.61 71.25 19.56 71.25 19.55 71.25 19.55"/><path class="cls-2" d="M71.25,19.56l0,6.05v0l0-6.05v0Z"/><path class="cls-2" d="M71.25,19.59l0,6.05v0l0-6.05a.06.06,0,0,1,0,0Z"/><path class="cls-2" d="M71.24,19.63l0,6.05,0,0,0-6.05,0,0Z"/><path class="cls-2" d="M71.22,19.66l0,6.05,0,0,0-6.05,0,0Z"/><path class="cls-2" d="M71.2,19.7l0,6.05,0,0,0-6.05,0,0Z"/><path class="cls-2" d="M71.16,19.74l0,6.05-.08.06,0-6.05.08-.06Z"/><path class="cls-2" d="M71.08,19.8l0,6.05h0l-.14.06,0-6.05a.31.31,0,0,0,.13-.06Z"/><path class="cls-2" d="M70.94,19.86l0,6.05-.12,0,0-6.05.12,0Z"/><path class="cls-2" d="M70.82,19.89l0,6.05h-.07V19.9Z"/><path class="cls-2" d="M70.74,19.9V26h-.07l0-6Z"/><path class="cls-2" d="M70.68,19.91l0,6H70.6v-6Z"/><path class="cls-2" d="M70.61,19.91v6h-.06V19.9Z"/><path class="cls-2" d="M70.55,19.9V26h-.06V19.9Z"/><path class="cls-2" d="M70.49,19.9V26l-.06,0v-6Z"/><path class="cls-2" d="M70.43,19.89v6h-.07l0-6.05.06,0Z"/><path class="cls-2" d="M70.37,19.87l0,6.05-.07,0,0-6,.07,0Z"/><path class="cls-2" d="M70.3,19.85l0,6-.09,0A.31.31,0,0,1,70,25.6l0-6.05a.29.29,0,0,0,.18.25l.09.05Z"/></g></g></g><path class="cls-2" d="M71.07,19.3a.26.26,0,0,1,0,.5.93.93,0,0,1-.86,0,.26.26,0,0,1,0-.5A.93.93,0,0,1,71.07,19.3Z"/></g><path class="cls-3" d="M72.82,9.66s0,0,0,.07a.13.13,0,0,0,0,.06.14.14,0,0,0,0,.06l0,.06,0,.07,0,0-.06.08,0,.05-.1.1,0,0-.07.06-.06.05-.09.06-.08,0a1.66,1.66,0,0,1-.33.15l-.09,0-.21.06a1.55,1.55,0,0,1-.23.06l-.28.05H71l-.39,0H70.5l-.38,0h-.06a2.38,2.38,0,0,1-.37-.06l-.06,0a3,3,0,0,1-.32-.09l-.06,0a2.26,2.26,0,0,1-.35-.17,1.15,1.15,0,0,1-.68-.95l0,10.08a1.15,1.15,0,0,0,.68,1,2.11,2.11,0,0,0,.34.16h0l.06,0,.2.07.12,0,.07,0h0L70,21h.69l.25,0H71l.2,0,.08,0,.23-.05.12,0,.1,0a.2.2,0,0,0,.08,0,1.66,1.66,0,0,0,.33-.15h0l.07-.05.08-.05.06,0,.07-.06h0l0,0a.47.47,0,0,0,.1-.1l0,0a0,0,0,0,0,0,0,.24.24,0,0,0,.06-.08s0,0,0,0,0,0,0,0l0-.07s0,0,0,0v0a.25.25,0,0,1,0-.07v0h0a.22.22,0,0,0,0-.08s0,0,0,0v0l0-10.08Z"/><path class="cls-4" d="M72.14,8.64a1,1,0,0,1,0,1.88,3.6,3.6,0,0,1-3.26,0,1,1,0,0,1,0-1.88A3.58,3.58,0,0,1,72.14,8.64Z"/><path class="cls-3" d="M71.14,3.65v6A.33.33,0,0,1,71,10a1,1,0,0,1-.87,0,.31.31,0,0,1-.18-.25l0-6a.31.31,0,0,0,.18.25,1,1,0,0,0,.87,0A.31.31,0,0,0,71.14,3.65Z"/><g class="cls-58"><g class="cls-8"><polygon class="cls-3" points="71.14 3.65 71.13 9.7 71.13 9.71 71.14 3.66 71.14 3.65 71.14 3.65"/><path class="cls-3" d="M71.14,3.66V9.74l0-6.05v0Z"/><path class="cls-3" d="M71.14,3.69l0,6.05a.08.08,0,0,1,0,0l0-6s0,0,0,0Z"/><path class="cls-3" d="M71.13,3.73l0,6v-6l0,0Z"/><path class="cls-3" d="M71.11,3.76V9.81l0,0,0-6a.05.05,0,0,0,0,0Z"/><path class="cls-3" d="M71.09,3.8l0,6.05,0,0,0-6.05,0,0Z"/><path class="cls-3" d="M71.05,3.84l0,6.05L71,10v-6l.08-.06Z"/><path class="cls-3" d="M71,3.9v6h0l-.14.06,0-6A.42.42,0,0,0,71,3.9Z"/><path class="cls-3" d="M70.83,4l0,6.05-.11,0,0-6,.11,0Z"/><path class="cls-3" d="M70.72,4l0,6h-.08l0-6.05Z"/><path class="cls-3" d="M70.64,4l0,6.05h-.07l0-6Z"/><path class="cls-3" d="M70.57,4l0,6h-.06l0-6Z"/><path class="cls-3" d="M70.51,4l0,6h-.06l0-6.05Z"/><path class="cls-3" d="M70.45,4l0,6.05h-.06l0-6Z"/><path class="cls-3" d="M70.39,4l0,6h-.06l0-6Z"/><path class="cls-3" d="M70.33,4l0,6h-.06V4l.07,0Z"/><path class="cls-3" d="M70.26,4v6l-.08,0,0-6.05s0,0,.07,0Z"/><path class="cls-3" d="M70.19,3.94l0,6.05-.09,0a.31.31,0,0,1-.18-.25l0-6a.31.31,0,0,0,.18.25l.09,0Z"/></g></g><path class="cls-2" d="M71,3.4c.24.14.24.36,0,.5a1,1,0,0,1-.87,0,.26.26,0,0,1,0-.5A.93.93,0,0,1,71,3.4Z"/><polygon class="cls-59" points="7.57 77.09 6.63 76.76 12.53 60.31 18.84 68.14 22.96 57.84 29.45 60.6 33.99 30.92 45.91 50.58 50.14 43.01 58.66 46.19 63.23 40.66 68.93 40.66 78.27 16.32 81.92 29.78 92.93 23.14 93.45 23.99 81.3 31.32 78.11 19.54 69.62 41.66 63.7 41.66 58.98 47.38 50.6 44.25 45.94 52.57 34.56 33.79 30.25 62.03 23.51 59.16 19.14 70.1 12.87 62.32 7.57 77.09"/><path class="cls-43" d="M76.77,10a.83.83,0,0,0-.72,0,.28.28,0,0,0-.14.21h0l0,5c0,.08,0,.15.16.21l.07,0h.45l.05,0h0l.1,0h0l0,0,0,0h0l0,0h0v0h0v0l0-5h0v0C76.93,10.13,76.88,10.05,76.77,10Zm.07.36s0,0,0,0h0S76.85,10.33,76.84,10.34Zm0-.06,0,0h0Zm-.09.09h0l0,0Zm-.83,0,0,0Zm-.06-.1v0Zm0,0v0Z"/><path class="cls-44" d="M78.62,5.57a.13.13,0,0,1,0,.06s0,0,0,.06a.64.64,0,0,0,0,.07s0,0,0,0l0,.07,0,0a.35.35,0,0,1,0,.08l0,0-.1.1,0,0-.07,0-.06,0-.08,0L78,6.4a2.23,2.23,0,0,1-.31.15l-.08,0-.33.1h0l-.34,0h-.06a2.42,2.42,0,0,1-.38,0h-.06a2.17,2.17,0,0,1-.36,0H76l-.35-.06-.07,0-.31-.09,0,0-.34-.16a1.11,1.11,0,0,1-.65-.91v5.82a1.07,1.07,0,0,0,.65.91,3.13,3.13,0,0,0,.32.15h0l.06,0,.19.06.11,0,.07,0h.06l.22,0h.66l.24,0h.1l.18,0,.08,0,.23-.06.11,0,.09,0,.09,0,.31-.14,0,0,.06,0,.08-.06.06,0,.07-.06v0l0,0,.09-.1,0,0,0,0a.56.56,0,0,1,0-.08l0,0h0l0-.07s0,0,0,0h0a.25.25,0,0,0,0-.07l0,0h0a.2.2,0,0,1,0-.07v-.06l0-5.82S78.62,5.54,78.62,5.57Z"/><path class="cls-43" d="M78,4.59A1,1,0,0,1,78,6.4a3.45,3.45,0,0,1-3.13,0,1,1,0,0,1,0-1.81A3.45,3.45,0,0,1,78,4.59Z"/><path class="cls-44" d="M76.85.35h0a.17.17,0,0,1,0,0h0l0,.05,0,0,0,0a.52.52,0,0,1-.16.06h0a.48.48,0,0,1-.18,0h0a.58.58,0,0,1-.19,0h0A.44.44,0,0,1,76,.51.28.28,0,0,1,75.82.3V5.39A.24.24,0,0,0,76,5.6l.08,0,.06,0h.48l.11-.05h0l0,0,0,0h0l0,0h0l0,0h0s0,0,0,0V.3h0Z"/><path class="cls-43" d="M76.7.09a.22.22,0,0,1,0,.42.79.79,0,0,1-.73,0c-.2-.12-.21-.31,0-.42A.79.79,0,0,1,76.7.09Z"/><path class="cls-43" d="M82.65,16.82a.75.75,0,0,0-.71,0c-.1.06-.15.13-.15.2h0v5a.24.24,0,0,0,.15.21l.07,0h0l0,0h.48l.1-.05h0l0,0,0,0h0l0,0h0v0h0v0a0,0,0,0,1,0,0V17h0v0A.24.24,0,0,0,82.65,16.82Zm.07.36,0,0h0Zm0-.07s0,0,0,0h0S82.78,17.11,82.77,17.11Zm-.08.1h0l0,0Zm-.83-.05,0,0Zm-.06-.1v0Zm0,.05s0,0,0,0S81.82,17.12,81.82,17.11Z"/><path class="cls-44" d="M84.5,12.4a.17.17,0,0,1,0,.07.07.07,0,0,1,0,0,.64.64,0,0,1,0,.07.14.14,0,0,1,0,.06l0,.06,0,0-.06.08,0,.05-.09.1,0,0-.07.06-.06.05-.08,0-.08.06-.32.14-.08,0a1.7,1.7,0,0,1-.32.1h0a3.43,3.43,0,0,1-.34.06h-.06l-.38,0h0l-.37,0h-.06a2.14,2.14,0,0,1-.35-.06l-.07,0a1.49,1.49,0,0,1-.3-.09l-.06,0-.33-.15a1.13,1.13,0,0,1-.66-.92v5.82a1.07,1.07,0,0,0,.65.91,3.18,3.18,0,0,0,.32.16h0l.07,0,.19.07.11,0,.06,0h.06l.22,0h.66l.24,0h.1l.19,0,.08,0,.22-.05.12,0,.09,0,.08,0a1.77,1.77,0,0,0,.31-.15h0l.05,0L84,19l.06-.05.07-.06h0a0,0,0,0,1,0,0l.09-.11a0,0,0,0,0,0,0l0,0,0-.08,0,0v0l0-.06s0,0,0,0h0l0-.07a.06.06,0,0,1,0,0h0a.15.15,0,0,1,0-.07v-.07l0-5.81S84.5,12.38,84.5,12.4Z"/><path class="cls-43" d="M83.85,11.42a1,1,0,0,1,0,1.82,3.45,3.45,0,0,1-3.13,0,1,1,0,0,1,0-1.82A3.45,3.45,0,0,1,83.85,11.42Z"/><path class="cls-44" d="M82.73,7.19h0l0,0h0l0,0,0,0,0,0a.44.44,0,0,1-.16.06h0l-.18,0h0l-.19,0h0l-.17-.07a.25.25,0,0,1-.15-.21l0,5.1a.27.27,0,0,0,.15.21l.08,0,.06,0h.48l.11-.05h0l0,0,0,0h0l0,0h0v0s0,0,0,0h0s0,0,0,0v0l0-5.09h0A.13.13,0,0,0,82.73,7.19Z"/><path class="cls-43" d="M82.58,6.92c.21.12.21.31,0,.42a.79.79,0,0,1-.73,0c-.2-.11-.21-.3,0-.42A.83.83,0,0,1,82.58,6.92Z"/><path class="cls-43" d="M89,19.54a.75.75,0,0,0-.71,0,.25.25,0,0,0-.15.21h0v5a.24.24,0,0,0,.15.2l.07,0h0l.05,0h.48a.31.31,0,0,0,.1,0h0l0,0,0,0h0l0,0h0a0,0,0,0,0,0,0l0,0h0v0a0,0,0,0,0,0,0v-5h0v0A.25.25,0,0,0,89,19.54Zm.08.36,0,0h0Zm0-.06a.05.05,0,0,0,0,0h0A.05.05,0,0,1,89.08,19.84Zm-.08.09h0l0,0Zm-.83-.05,0,0Zm-.06-.1v0Zm0,.06h0Z"/><path class="cls-44" d="M90.81,15.12v.07s0,0,0,.05,0,0,0,.07l0,.06,0,.06,0,.06,0,.07,0,0-.09.1,0,0-.07.06-.06,0-.07.05-.09.06-.31.14-.09,0a1.7,1.7,0,0,1-.32.1h0a3.43,3.43,0,0,1-.34.06H89l-.37,0h-.06l-.37,0h0a2.25,2.25,0,0,1-.36-.06h-.06l-.31-.1,0,0a1.75,1.75,0,0,1-.34-.15,1.13,1.13,0,0,1-.66-.92v5.82a1.11,1.11,0,0,0,.65.91,3.18,3.18,0,0,0,.32.16h0l.06,0,.19.07.11,0,.07,0h0l.22,0h.66l.25,0h.09l.19,0,.08,0,.22-.05.12,0,.09,0,.08,0a1.77,1.77,0,0,0,.31-.15h0l0,0,.09,0,.06-.05.07-.06h0l0,0,.09-.1,0,0v0a.35.35,0,0,0,0-.08l0,0v0s0,0,0-.06,0,0,0,0v0a.64.64,0,0,0,0-.07s0,0,0,0h0a.17.17,0,0,0,0-.07v-.07l0-5.81A.13.13,0,0,1,90.81,15.12Z"/><path class="cls-43" d="M90.17,14.14a1,1,0,0,1,0,1.82,3.45,3.45,0,0,1-3.13,0,1,1,0,0,1,0-1.82A3.45,3.45,0,0,1,90.17,14.14Z"/><path class="cls-44" d="M89,9.91h0L89,10h0l0,0,0,0,0,0-.16.07h0l-.18,0h0l-.18,0h0l-.17-.06A.27.27,0,0,1,88,9.85L88,15a.26.26,0,0,0,.16.21l.07,0,.06,0h.48l.12-.05h0l0,0,0,0h0l0,0h0V15h0v0l0-5.1h0A.11.11,0,0,1,89,9.91Z"/><path class="cls-43" d="M88.9,9.64c.2.12.2.31,0,.42a.82.82,0,0,1-.73,0,.23.23,0,0,1,0-.43A.85.85,0,0,1,88.9,9.64Z"/><path class="cls-60" d="M77.49,55.73c4.37,2.26,4.35,5.89.05,8.14a19,19,0,0,1-15.66,0c-4.33-2.25-4.35-5.9-.05-8.14S73.16,53.49,77.49,55.73Z"/><g class="cls-61"><path class="cls-62" d="M78.47,48.57c5,2.57,5,6.71,0,9.26s-12.85,2.58-17.83,0-4.95-6.71,0-9.26S73.54,46,78.47,48.57Z"/></g><g class="cls-63"><path class="cls-64" d="M79.45,41.4c5.57,2.89,5.55,7.53.06,10.4s-14.42,2.89-20,0-5.57-7.53-.07-10.4S73.91,38.54,79.45,41.4Z"/></g><g class="cls-65"><path class="cls-66" d="M80.42,34.24c6.19,3.2,6.16,8.35.07,11.52s-16,3.21-22.17,0-6.17-8.35-.08-11.52S74.29,31.06,80.42,34.24Z"/></g><g class="cls-67"><path class="cls-68" d="M81.4,27.08c6.79,3.51,6.76,9.16.07,12.65s-17.55,3.52-24.34,0-6.77-9.17-.08-12.65S74.66,23.59,81.4,27.08Z"/></g><g class="cls-69"><path class="cls-70" d="M82.38,19.91c7.39,3.83,7.36,10,.08,13.78s-19.12,3.84-26.52,0-7.37-10-.09-13.78S75,16.11,82.38,19.91Z"/></g><g class="cls-71"><path class="cls-40" d="M83.35,12.75c8,4.15,8,10.8.09,14.91s-20.69,4.15-28.69,0-8-10.8-.09-14.91S75.42,8.64,83.35,12.75Z"/></g><g class="cls-72"><path class="cls-73" d="M77.49,55.77c4.37,2.26,4.35,5.89.05,8.13a18.93,18.93,0,0,1-15.66,0c-4.33-2.24-4.35-5.89-.05-8.13S73.16,53.52,77.49,55.77Z"/></g><path class="cls-74" d="M65.6,16.44a10.62,10.62,0,0,0-.36-1.94c-.17-.31-.87-1.64-2.07-1.84-.65-.12-.28.57.31,1.33A1.38,1.38,0,0,1,64,15.28a5.24,5.24,0,0,0,.2,1.74C64.27,17.39,65.6,16.44,65.6,16.44Z"/><path class="cls-75" d="M64.11,17a5.45,5.45,0,0,0-.5-1.62c-.37-.53.15-1-.13-1.34-.46-.59-.78-1.16-.6-1.31.32.48,1.1.33,1.51,1.77a9,9,0,0,1,.16,2.47C64.25,17,64.16,17.09,64.11,17Z"/><path class="cls-74" d="M64.61,16.88s-1.13-1.46-1.41-2-.27-.95-.13-.91,1,1.45,1.43,1C64.71,14.78,64.5,16.63,64.61,16.88Z"/><path class="cls-76" d="M75.82,23.77s-.14,2.05-2.73,1.34-7.25-2.61-7.85-3.86A28.24,28.24,0,0,1,64,16.64s1.26.42,1.73-.6l2,4.16S76,22.34,75.82,23.77Z"/><path class="cls-77" d="M75.82,23.77c.13-1.43-8-3.57-8-3.57l-2-4.16a1.12,1.12,0,0,1-.74.64,20.94,20.94,0,0,0,1,3.84c.6,1.25,5.26,3.15,7.85,3.86a2.79,2.79,0,0,0,1.69,0A1.79,1.79,0,0,0,75.82,23.77Z"/><g class="cls-78"><path d="M78.15,57c4,2.33,4.07,6.12,0,8.45a16.06,16.06,0,0,1-14.6,0c-4-2.33-4.06-6.12,0-8.45A16,16,0,0,1,78.15,57Z"/></g><path class="cls-79" d="M71.6,57.18s-1,.15-.74.7,1.36,1.42,1.51,1.78,1.06,1.62,1.35,1.5,1.06.06,1-1.39A3.18,3.18,0,0,0,71.6,57.18Z"/><path class="cls-79" d="M69.74,62.48s.48,1.39-.7,1.71-.83-.41-3.39.24-2.86-.68-2.8-1,1.77-.82,2.33-1l1.62-.41h3Z"/><path class="cls-80" d="M74.59,38.16s0,8.37,0,9.31,1.06,8.37.42,11.61c0,0-1.82,1.83-3.43,0,0,0-.52-9.29-1-11.39s-.31-8.52-.31-8.52Z"/><path class="cls-80" d="M71.39,39.35s-.42,5.4-.85,10.76c0,0-.27,10.63-.52,12.16,0,0-3.43.85-3.77-.76,0,0,.09-9.36,0-11.31s-.29-7.42.49-10.56S71.39,39.35,71.39,39.35Z"/><path class="cls-81" d="M70,62.27c.25-1.53.52-12.16.52-12.16.29-3.61.57-7.23.73-9.22l-2.12.52a27.56,27.56,0,0,0-1.29,10c.18,4.66.25,9.23.28,11.07A8.36,8.36,0,0,0,70,62.27Z"/><path class="cls-81" d="M75,59.08c.64-3.24-.42-10.67-.42-11.61s0-8.53,0-9.25l-1.84,1.42s-.59,6,0,9.39c.53,3.1.19,9.13.45,10.86A2.9,2.9,0,0,0,75,59.08Z"/><path class="cls-77" d="M75.1,23s1.77.88.77,3.89-1.71,4.95-1.65,6.07a51.17,51.17,0,0,0,.7,5.66s.3,2.47-5.36,3.94c0,0-4.66.48-3.89-2.59a40.8,40.8,0,0,0,1-9.19c-.12-1.18-.83-3.54,2.11-5.13S73.22,22.85,75.1,23Z"/><path class="cls-76" d="M66.62,30.75a40.8,40.8,0,0,1-1,9.19c-.53,2.13,1.55,2.55,2.87,2.61.42-1.37-.3-3.81.69-6.79,1.21-3.69,1-6.13.39-8.1a2,2,0,0,0-1.73-1.49C65.94,27.72,66.51,29.7,66.62,30.75Z"/><path class="cls-74" d="M73,21.48A5.12,5.12,0,0,0,73.36,24c.49.89-3.21,1.7-3.3.88a3.58,3.58,0,0,0-.19-3.05C69.4,21,73,21.48,73,21.48Z"/><path class="cls-82" d="M73.34,24.09A4.64,4.64,0,0,1,73,21.81l-2.7,1.34h0c.1,0,1.92.49,2.31,1.8C73.14,24.73,73.52,24.42,73.34,24.09Z"/><path class="cls-74" d="M69.11,17.31A6.85,6.85,0,0,0,68.65,20c.12,1.33-.07,1.59,0,2.18A1.37,1.37,0,0,0,69,23a2.33,2.33,0,0,0,2.39.12c1.38-.5,2.83-2.4,2.24-4.1S71.19,15.92,69.11,17.31Z"/><path class="cls-75" d="M73.53,20.87a26.44,26.44,0,0,0-1.91-3.47,4.83,4.83,0,0,0-1-.65,3.13,3.13,0,0,0-1.54.56,7.64,7.64,0,0,0-.28.92c.32.37,1,.79,1.09,1.1a3.92,3.92,0,0,1-.11,2.33c-.22.5.66,1.21.48,1.65a.13.13,0,0,0,0,.06,3.6,3.6,0,0,0,1.07-.24A4,4,0,0,0,73.53,20.87Z"/><path class="cls-83" d="M68.91,16.88c-.45.26-.41,1.07.8,1.66.72.35.66,1.52.62,1.74a6,6,0,0,0-.16,1.32c.17.24.74-.51,1-.46.68.13.42.77-.21,1.44s1.08,1,1.89.42c.43-.31.59-.5,1.15-1.62.82-1.63.86-3.59-1.07-4.63A3.43,3.43,0,0,0,68.91,16.88Z"/><path class="cls-84" d="M72.86,23c.43-.31.59-.5,1.15-1.62.82-1.63,1.1-3.58-.83-4.63s-2.71-.77-3.83-.14c-.11.07-.68.33-.64.61.61.1,2.29.43,2.72,1.14.53.89,1.12.6,1.07,1.7s.23,2.45-1.55,3.05A1.83,1.83,0,0,0,72.86,23Z"/><path class="cls-85" d="M70.27,24.43l-1.21,1s3.75,1.08,4.85-.76a1.07,1.07,0,0,0-.68-1.3S73.1,24.88,70.27,24.43Z"/><path class="cls-86" d="M57.19,25.55s-.85-1.13-.79-1.49-.42-.55-.45-.12a2.07,2.07,0,0,0,.18.88,10.13,10.13,0,0,1-.91-1.62c-.25-.86-1.08.73-.84,1.51s.36,1.68,2.38,2.1A1.55,1.55,0,0,0,57.19,25.55Z"/><path class="cls-76" d="M69.66,26.82s.93,1.83-1.66,2.54-7.57,1.46-8.72.69a27.77,27.77,0,0,1-3.39-3.35s1.3-.28,1.18-1.4L61,27.83S69.05,25.52,69.66,26.82Z"/><path class="cls-77" d="M69.66,26.82c-.61-1.3-8.7,1-8.7,1L57.07,25.3a1.1,1.1,0,0,1-.31.93A21.17,21.17,0,0,0,59.63,29c1.15.77,6.13,0,8.72-.68a2.81,2.81,0,0,0,1.47-.83A1.84,1.84,0,0,0,69.66,26.82Z"/><path class="cls-87" d="M63.6,77.46a7.71,7.71,0,1,1-7.71-7.7A7.71,7.71,0,0,1,63.6,77.46Z"/><path class="cls-88" d="M62.4,77.54A6.51,6.51,0,1,1,55.89,71,6.51,6.51,0,0,1,62.4,77.54Z"/><path class="cls-89" d="M61.2,77.63a5.31,5.31,0,1,1-5.31-5.3A5.3,5.3,0,0,1,61.2,77.63Z"/><path class="cls-90" d="M60,77.71a4.1,4.1,0,1,1-4.1-4.1A4.1,4.1,0,0,1,60,77.71Z"/><path class="cls-91" d="M58.79,77.79a2.9,2.9,0,1,1-2.9-2.9A2.9,2.9,0,0,1,58.79,77.79Z"/><path class="cls-92" d="M57.59,77.87a1.7,1.7,0,1,1-1.7-1.69A1.7,1.7,0,0,1,57.59,77.87Z"/><path class="cls-93" d="M56.39,78a.5.5,0,1,1-.5-.49A.5.5,0,0,1,56.39,78Z"/><path class="cls-94" d="M36,79a1.73,1.73,0,0,1,0,.32,1.82,1.82,0,0,1-.07.25c0,.1,0,.21-.08.31l-.1.24c0,.1-.09.21-.15.31a3,3,0,0,1-.26.42.18.18,0,0,1-.05.07q-.15.21-.33.42l-.06.07q-.2.21-.42.42l-.31.25-.28.22-.36.24-.38.25c-.3.17-.62.33-1,.48l-.28.12-.79.3-.29.09c-.17.06-.34.1-.52.15l-.39.11-.55.12-.38.07c-.38.07-.76.12-1.14.16l-.35,0-.68,0H25.32l-.5,0-.47,0-.5-.05-.44-.07c-.18,0-.36-.06-.54-.09l-.41-.08-.62-.15-.35-.1q-.55-.17-1.08-.36l-.5-.22-.26-.11c-.25-.12-.5-.25-.73-.38-2-1.14-3-2.64-3-4.14v2.79c0,1.5,1,3,3,4.14.23.13.48.26.73.38l.25.11.46.2.06,0c.35.13.71.25,1.07.36l.09,0a2,2,0,0,0,.26.06l.62.16.17,0,.24,0,.54.09.21,0,.23,0,.5,0,.25,0h.22l.51,0h1.44l.68,0,.27,0h.08c.39,0,.77-.09,1.14-.16H29l.32-.07.55-.12.4-.11.52-.14.1,0,.18-.06c.27-.1.53-.19.79-.3l.29-.12c.32-.15.64-.31.94-.48l.12-.07.27-.18.35-.24.28-.22.31-.25.06,0a4.17,4.17,0,0,0,.36-.37s0,0,.07-.07l.19-.23.14-.19,0-.06a3.37,3.37,0,0,0,.22-.35.3.3,0,0,0,0-.08,3,3,0,0,0,.15-.31c0-.06.06-.12.08-.18s0,0,0-.06l.09-.3.06-.21v0c0-.11,0-.21,0-.32s0-.13,0-.2V78.68A2.85,2.85,0,0,1,36,79Z"/><path class="cls-95" d="M35.94,79.29a1.82,1.82,0,0,1-.07.25c0,.1,0,.21-.08.31l-.1.24c0,.1-.09.21-.15.31a3,3,0,0,1-.26.42.18.18,0,0,1-.05.07q-.15.21-.33.42l-.06.07q-.2.21-.42.42l-.31.25-.28.22-.36.24-.38.25c-.3.17-.62.33-1,.48l-.28.12-.79.3-.29.09c-.17.06-.34.1-.52.15l-.39.11-.55.12-.38.07c-.38.07-.76.12-1.14.16l-.35,0-.68,0H25.32l-.5,0-.47,0-.5-.05-.44-.07c-.18,0-.36-.06-.54-.09l-.41-.08-.62-.15-.35-.1q-.55-.17-1.08-.36l-.5-.22-.26-.11c-.25-.12-.5-.25-.73-.38-2-1.14-3-2.64-3-4.14v1.85c0,1.48,1,3,3,4.1.23.13.48.26.73.38l.25.11.46.2.06,0a10.34,10.34,0,0,0,1.07.36l.09,0,.26.07.62.15.17,0,.24,0,.54.1.21,0,.23,0,.5.05.25,0h.22l.51,0h1.44l.68,0h.27l.08,0c.39,0,.77-.09,1.14-.16H29l.32-.07.55-.12.4-.1.52-.15.1,0,.18-.07c.27-.09.53-.19.79-.3l.29-.12c.32-.15.64-.31.94-.48l.12-.07.27-.18c.12-.08.24-.15.35-.24l.28-.22.31-.25.06,0a4.17,4.17,0,0,0,.36-.37s0,0,.07-.07l.19-.23.14-.18a.43.43,0,0,1,0-.07,3.37,3.37,0,0,0,.22-.35.2.2,0,0,0,0-.08,3,3,0,0,0,.15-.31c0-.06.06-.12.08-.18s0,0,0-.06l.09-.3.06-.2V81.1c0-.1,0-.21,0-.31s0-.14,0-.21V78.72L36,79A1.73,1.73,0,0,1,35.94,79.29Z"/><path class="cls-96" d="M35.94,79.29a1.82,1.82,0,0,1-.07.25c0,.1,0,.21-.08.31l-.1.24c0,.1-.09.21-.15.31a3,3,0,0,1-.26.42.18.18,0,0,1-.05.07q-.15.21-.33.42l-.06.07q-.2.21-.42.42l-.31.25-.28.22-.36.24-.38.25c-.3.17-.62.33-1,.48l-.28.12-.79.3-.29.09c-.17.06-.34.1-.52.15l-.39.11-.55.12-.38.07c-.38.07-.76.12-1.14.16l-.35,0-.68,0H25.32l-.5,0-.47,0-.5-.05-.44-.07c-.18,0-.36-.06-.54-.09l-.41-.08-.62-.15-.35-.1q-.55-.17-1.08-.36l-.5-.22-.26-.11c-.25-.12-.5-.25-.73-.38-2-1.14-3-2.64-3-4.14v1.85c0,1.48,1,3,3,4.1.23.13.48.26.73.38l.25.11.46.2.06,0a10.34,10.34,0,0,0,1.07.36l.09,0,.26.07.62.15.17,0,.24,0,.54.1.21,0,.23,0,.5.05.25,0h.22l.51,0h1.44l.68,0h.27l.08,0c.39,0,.77-.09,1.14-.16H29l.32-.07.55-.12.4-.1.52-.15.1,0,.18-.07c.27-.09.53-.19.79-.3l.29-.12c.32-.15.64-.31.94-.48l.12-.07.27-.18c.12-.08.24-.15.35-.24l.28-.22.31-.25.06,0a4.17,4.17,0,0,0,.36-.37s0,0,.07-.07l.19-.23.14-.18a.43.43,0,0,1,0-.07,3.37,3.37,0,0,0,.22-.35.2.2,0,0,0,0-.08,3,3,0,0,0,.15-.31c0-.06.06-.12.08-.18s0,0,0-.06l.09-.3.06-.2V81.1c0-.1,0-.21,0-.31s0-.14,0-.21V78.72L36,79A1.73,1.73,0,0,1,35.94,79.29Z"/><path class="cls-97" d="M33,74.55c3.93,2.26,4,5.94.05,8.21a15.62,15.62,0,0,1-14.17,0c-3.93-2.27-4-5.94-.05-8.21A15.59,15.59,0,0,1,33,74.55Z"/><path class="cls-95" d="M33,74.55c3.93,2.26,4,5.94.05,8.21a15.62,15.62,0,0,1-14.17,0c-3.93-2.27-4-5.94-.05-8.21A15.59,15.59,0,0,1,33,74.55Z"/><path class="cls-94" d="M33,75c3.93,2.27,4,5.46.05,7.73a15.62,15.62,0,0,1-14.17,0C15,80.49,15,77.3,18.87,75A15.62,15.62,0,0,1,33,75Z"/><path class="cls-98" d="M18.87,75A15.62,15.62,0,0,1,33,75c1.86,1.08,2.83,2.35,2.94,3.64.12-1.45-.85-2.92-2.94-4.12a15.59,15.59,0,0,0-14.17,0c-2.06,1.19-3,2.65-2.89,4.08C16.09,77.36,17,76.1,18.87,75Z"/><path class="cls-99" d="M31.56,75.41c3.1,1.79,3.12,4.7,0,6.49a12.35,12.35,0,0,1-11.2,0c-3.11-1.8-3.12-4.7,0-6.49A12.31,12.31,0,0,1,31.56,75.41Z"/><path class="cls-59" d="M31.34,75.72c3,1.77,3,4.66,0,6.43a11.51,11.51,0,0,1-10.76,0c-3-1.77-3-4.66,0-6.43A11.53,11.53,0,0,1,31.34,75.72Z"/><path class="cls-95" d="M31,76.17l-1.1.64A2.37,2.37,0,0,1,31,77.89l-1,.28a2.15,2.15,0,0,0-1-1.06A2.19,2.19,0,0,0,26.78,77c-.58.34-.46.74.11,1.56s.71,1.62-.29,2.2a4.39,4.39,0,0,1-3.71.07l-1.16.68L21,81.08l1.14-.66a2.69,2.69,0,0,1-1.24-1.28l1-.29a2.41,2.41,0,0,0,1.13,1.22,2.57,2.57,0,0,0,2.45.15c.63-.36.57-.84.07-1.52-.71-.93-.91-1.65.06-2.21a4.18,4.18,0,0,1,3.52-.07l1.13-.66Z"/><path class="cls-94" d="M40.54,76.72a3.11,3.11,0,0,1,0,.32,2.44,2.44,0,0,1-.06.26c0,.1,0,.2-.09.3a2.44,2.44,0,0,1-.1.24,2.3,2.3,0,0,1-.15.32,4.64,4.64,0,0,1-.25.42.18.18,0,0,0-.05.07c-.1.14-.21.27-.33.41l-.07.08c-.13.14-.27.27-.42.41l-.3.25-.29.23-.35.23-.39.25a10.38,10.38,0,0,1-.94.48l-.29.12c-.26.11-.52.21-.79.3l-.29.1-.51.15-.4.1c-.18,0-.36.08-.55.12L33.5,82c-.37.06-.75.12-1.14.16l-.35,0-.68,0H29.89a4.36,4.36,0,0,1-.51,0l-.46,0-.5-.06L28,82l-.53-.1L27,81.83l-.62-.15-.35-.1A10.34,10.34,0,0,1,25,81.22L24.47,81l-.26-.12c-.25-.12-.5-.24-.73-.38-2-1.14-3-2.64-3-4.13v2.79c0,1.49,1,3,3,4.13.24.14.48.26.74.38l.24.11.47.2,0,0a9.77,9.77,0,0,0,1.08.36.24.24,0,0,0,.09,0l.25.07.62.15.17,0,.25,0,.53.1.22,0,.23,0,.5.06.24,0h.22l.51,0,.26,0h.2a5,5,0,0,0,.55,0h.43l.68,0h.27l.09,0q.57-.06,1.14-.15h0l.32-.07c.19,0,.38-.07.56-.12l.39-.1.52-.15.11,0,.17-.07c.27-.09.53-.19.79-.3l.29-.12c.32-.15.64-.31.94-.48l.13-.07.26-.18.35-.23.29-.23a3.61,3.61,0,0,0,.3-.25s.05,0,.06,0a4.17,4.17,0,0,0,.36-.37.23.23,0,0,0,.07-.07c.07-.08.14-.15.2-.23l.13-.18.05-.07c.08-.11.15-.23.22-.35l0-.07a2.3,2.3,0,0,0,.15-.32l.09-.18s0,0,0-.06a1.71,1.71,0,0,0,.09-.3l.06-.2v-.06c0-.1,0-.21,0-.31a1.49,1.49,0,0,0,0-.21V76.43A2.64,2.64,0,0,1,40.54,76.72Z"/><path class="cls-95" d="M40.5,77a2.44,2.44,0,0,1-.06.26c0,.1,0,.2-.09.3a2.44,2.44,0,0,1-.1.24,2.3,2.3,0,0,1-.15.32,4.64,4.64,0,0,1-.25.42.18.18,0,0,0-.05.07c-.1.14-.21.27-.33.41l-.07.08c-.13.14-.27.27-.42.41l-.3.25-.29.23-.35.23-.39.25a10.38,10.38,0,0,1-.94.48l-.29.12c-.26.11-.52.21-.79.3l-.29.1-.51.15-.4.1c-.18,0-.36.08-.55.12L33.5,82c-.37.06-.75.12-1.14.16l-.35,0-.68,0H29.89a4.36,4.36,0,0,1-.51,0l-.46,0-.5-.06L28,82l-.53-.1L27,81.83l-.62-.15-.35-.1A10.34,10.34,0,0,1,25,81.22L24.47,81l-.26-.12c-.25-.12-.5-.24-.73-.38-2-1.14-3-2.64-3-4.13v1.84c0,1.49,1,3,3,4.1.24.14.48.27.74.39l.24.1.47.2,0,0c.35.14.71.26,1.08.37l.09,0,.25.06c.21.05.41.11.62.15l.17,0,.25,0,.53.09.22,0,.23,0,.5.06.24,0,.22,0,.51,0,.26,0h1.18L32,84l.27,0h.09c.38,0,.76-.09,1.14-.16h0l.32-.07c.19,0,.38-.07.56-.12l.39-.1.52-.15.11,0,.17-.07c.27-.09.53-.19.79-.3l.29-.12a10.38,10.38,0,0,0,.94-.48l.13-.07.26-.17.35-.24.29-.23a3.61,3.61,0,0,0,.3-.25.15.15,0,0,0,.06,0l.36-.36.07-.08a2.2,2.2,0,0,0,.2-.23l.13-.18.05-.07c.08-.11.15-.23.22-.35l0-.07a2.89,2.89,0,0,0,.15-.31l.09-.19s0,0,0-.06a1.71,1.71,0,0,0,.09-.3l.06-.2v-.06c0-.1,0-.21,0-.31a1.49,1.49,0,0,0,0-.21V76.47a2.11,2.11,0,0,1,0,.25A3.11,3.11,0,0,1,40.5,77Z"/><path class="cls-96" d="M40.5,77a2.44,2.44,0,0,1-.06.26c0,.1,0,.2-.09.3a2.44,2.44,0,0,1-.1.24,2.3,2.3,0,0,1-.15.32,4.64,4.64,0,0,1-.25.42.18.18,0,0,0-.05.07c-.1.14-.21.27-.33.41l-.07.08c-.13.14-.27.27-.42.41l-.3.25-.29.23-.35.23-.39.25a10.38,10.38,0,0,1-.94.48l-.29.12c-.26.11-.52.21-.79.3l-.29.1-.51.15-.4.1c-.18,0-.36.08-.55.12L33.5,82c-.37.06-.75.12-1.14.16l-.35,0-.68,0H29.89a4.36,4.36,0,0,1-.51,0l-.46,0-.5-.06L28,82l-.53-.1L27,81.83l-.62-.15-.35-.1A10.34,10.34,0,0,1,25,81.22L24.47,81l-.26-.12c-.25-.12-.5-.24-.73-.38-2-1.14-3-2.64-3-4.13v1.84c0,1.49,1,3,3,4.1.24.14.48.27.74.39l.24.1.47.2,0,0c.35.14.71.26,1.08.37l.09,0,.25.06c.21.05.41.11.62.15l.17,0,.25,0,.53.09.22,0,.23,0,.5.06.24,0,.22,0,.51,0,.26,0h1.18L32,84l.27,0h.09c.38,0,.76-.09,1.14-.16h0l.32-.07c.19,0,.38-.07.56-.12l.39-.1.52-.15.11,0,.17-.07c.27-.09.53-.19.79-.3l.29-.12a10.38,10.38,0,0,0,.94-.48l.13-.07.26-.17.35-.24.29-.23a3.61,3.61,0,0,0,.3-.25.15.15,0,0,0,.06,0l.36-.36.07-.08a2.2,2.2,0,0,0,.2-.23l.13-.18.05-.07c.08-.11.15-.23.22-.35l0-.07a2.89,2.89,0,0,0,.15-.31l.09-.19s0,0,0-.06a1.71,1.71,0,0,0,.09-.3l.06-.2v-.06c0-.1,0-.21,0-.31a1.49,1.49,0,0,0,0-.21V76.47a2.11,2.11,0,0,1,0,.25A3.11,3.11,0,0,1,40.5,77Z"/><path class="cls-97" d="M37.6,72.3c3.93,2.27,3.95,5.94,0,8.21a15.59,15.59,0,0,1-14.17,0c-3.93-2.27-3.95-5.94-.05-8.21A15.59,15.59,0,0,1,37.6,72.3Z"/><path class="cls-95" d="M37.6,72.3c3.93,2.27,3.95,5.94,0,8.21a15.59,15.59,0,0,1-14.17,0c-3.93-2.27-3.95-5.94-.05-8.21A15.59,15.59,0,0,1,37.6,72.3Z"/><path class="cls-94" d="M37.6,72.79c3.93,2.26,3.95,5.45,0,7.72a15.59,15.59,0,0,1-14.17,0c-3.93-2.27-3.95-5.45-.05-7.72A15.59,15.59,0,0,1,37.6,72.79Z"/><path class="cls-98" d="M23.43,72.79a15.59,15.59,0,0,1,14.17,0c1.86,1.07,2.83,2.34,2.94,3.63.13-1.45-.85-2.91-2.94-4.12a15.59,15.59,0,0,0-14.17,0c-2.06,1.2-3,2.65-2.89,4.09C20.65,75.11,21.6,73.85,23.43,72.79Z"/><path class="cls-99" d="M36.12,73.16c3.11,1.79,3.12,4.7,0,6.49a12.37,12.37,0,0,1-11.21,0c-3.1-1.79-3.12-4.7,0-6.49A12.35,12.35,0,0,1,36.12,73.16Z"/><path class="cls-59" d="M35.9,73.47c3,1.78,3,4.66,0,6.44a11.59,11.59,0,0,1-10.77,0c-3-1.78-3-4.66,0-6.44A11.51,11.51,0,0,1,35.9,73.47Z"/><path class="cls-95" d="M35.59,73.93l-1.1.63a2.3,2.3,0,0,1,1.06,1.08l-1,.28a2.55,2.55,0,0,0-3.21-1.19c-.58.34-.45.75.11,1.56s.71,1.62-.28,2.2a4.35,4.35,0,0,1-3.71.07l-1.17.68-.7-.41,1.13-.65a2.76,2.76,0,0,1-1.24-1.29l1-.28a2.42,2.42,0,0,0,1.14,1.21,2.58,2.58,0,0,0,2.44.16c.63-.37.57-.85.07-1.53-.71-.92-.91-1.64.06-2.21a4.2,4.2,0,0,1,3.53-.07l1.13-.66Z"/></g></g></svg>