<svg xmlns="http://www.w3.org/2000/svg" xmlns:xlink="http://www.w3.org/1999/xlink" viewBox="0 0 81.21 88.11"><defs><style>.cls-1{fill:#617713;}.cls-2{fill:#9abd1d;}.cls-3{fill:#6d9b0a;}.cls-4{opacity:0.1;}.cls-5{isolation:isolate;}.cls-6{fill:#e6e6ff;}.cls-7{fill:#aeb6bc;}.cls-8{fill:#c0c0f6;}.cls-9{fill:#92afff;}.cls-10{fill:#6198d8;}.cls-11{fill:#def4ff;}.cls-12{fill:#95c4de;}.cls-13{fill:#a9d6ea;}.cls-14{fill:#def6ff;}.cls-15{fill:#c0c5d1;}.cls-16{fill:#74afe8;}.cls-17{fill:#17cfbf;}.cls-18{fill:#82a5b5;}.cls-19{fill:#5b737e;}.cls-20{fill:#ffebc4;}.cls-20,.cls-34{opacity:0.6;}.cls-21{opacity:0.83;}.cls-22{fill:#ffeece;}.cls-22,.cls-23{opacity:0.67;}.cls-24{fill:#fff2d8;opacity:0.73;}.cls-25{opacity:0.5;}.cls-26{fill:#fff5e2;opacity:0.8;}.cls-27{opacity:0.33;}.cls-28{fill:#fff8eb;opacity:0.87;}.cls-29{opacity:0.17;}.cls-30{fill:#fffcf5;opacity:0.93;}.cls-31{opacity:0;}.cls-32,.cls-34{fill:#fff;}.cls-33{opacity:0.3;}.cls-35{fill:#efb185;}.cls-36{fill:#52517b;}.cls-37{fill:#242626;}.cls-38{fill:#3b3f3f;}.cls-39{fill:#111114;}.cls-40{fill:#29383d;}.cls-41{fill:#243135;}.cls-42{fill:#acace0;}.cls-43{fill:#354751;}.cls-44{fill:#304047;}.cls-45{fill:#404063;}.cls-46{fill:#dd9569;}.cls-47{fill:#e6a376;}.cls-48{fill:#221101;}.cls-49{fill:#341c09;}.cls-50{fill:#ff7fb7;}.cls-51{fill:#d32075;}.cls-52{clip-path:url(#clip-path);}.cls-53{clip-path:url(#clip-path-2);}.cls-54{clip-path:url(#clip-path-3);}.cls-55{clip-path:url(#clip-path-4);}.cls-56{clip-path:url(#clip-path-5);}.cls-57{clip-path:url(#clip-path-6);}.cls-58{clip-path:url(#clip-path-7);}.cls-59{clip-path:url(#clip-path-8);}.cls-60{clip-path:url(#clip-path-9);}.cls-61{clip-path:url(#clip-path-10);}.cls-62{clip-path:url(#clip-path-11);}.cls-63{clip-path:url(#clip-path-12);}.cls-64{clip-path:url(#clip-path-13);}.cls-65{clip-path:url(#clip-path-14);}.cls-66{fill:#ffb101;}</style><clipPath id="clip-path"><path class="cls-1" d="M2.08,38.21l0,4.11a.21.21,0,0,1-.12.17.66.66,0,0,1-.58,0,.21.21,0,0,1-.13-.18v-4.1c0,.06.05.12.13.17a.66.66,0,0,0,.58,0C2,38.33,2.08,38.27,2.08,38.21Z"/></clipPath><clipPath id="clip-path-2"><path class="cls-2" d="M2,27.42v4.1a.2.2,0,0,1-.12.17.62.62,0,0,1-.59,0,.2.2,0,0,1-.12-.17v-4.1c0,.06,0,.12.13.17a.66.66,0,0,0,.58,0A.21.21,0,0,0,2,27.42Z"/></clipPath><clipPath id="clip-path-3"><path class="cls-3" d="M10,29.18v4.11a.21.21,0,0,1-.12.17.68.68,0,0,1-.59,0,.21.21,0,0,1-.12-.17V29.18a.21.21,0,0,0,.12.17.62.62,0,0,0,.59,0A.21.21,0,0,0,10,29.18Z"/></clipPath><clipPath id="clip-path-4"><path class="cls-2" d="M10,18.39v4.1a.19.19,0,0,1-.12.17.62.62,0,0,1-.59,0,.2.2,0,0,1-.12-.17v-4.1a.21.21,0,0,0,.12.17.68.68,0,0,0,.59,0A.21.21,0,0,0,10,18.39Z"/></clipPath><clipPath id="clip-path-5"><path class="cls-3" d="M20.74,16.05v4.1a.21.21,0,0,1-.12.17.68.68,0,0,1-.59,0,.21.21,0,0,1-.12-.17v-4.1a.21.21,0,0,0,.12.17.68.68,0,0,0,.59,0A.21.21,0,0,0,20.74,16.05Z"/></clipPath><clipPath id="clip-path-6"><path class="cls-2" d="M20.67,5.25V9.36a.21.21,0,0,1-.12.17.68.68,0,0,1-.59,0,.21.21,0,0,1-.12-.17V5.25a.21.21,0,0,0,.12.17.62.62,0,0,0,.59,0A.19.19,0,0,0,20.67,5.25Z"/></clipPath><clipPath id="clip-path-7"><path class="cls-1" d="M32.37,23.69v4.1a.21.21,0,0,1-.12.17.68.68,0,0,1-.59,0,.21.21,0,0,1-.12-.17V23.68a.2.2,0,0,0,.12.17.62.62,0,0,0,.59,0A.19.19,0,0,0,32.37,23.69Z"/></clipPath><clipPath id="clip-path-8"><path class="cls-2" d="M32.3,12.89l0,4.11a.19.19,0,0,1-.12.17.66.66,0,0,1-.58,0,.23.23,0,0,1-.13-.18l0-4.1a.21.21,0,0,0,.12.17.6.6,0,0,0,.58,0C32.26,13,32.3,13,32.3,12.89Z"/></clipPath><clipPath id="clip-path-9"><path class="cls-1" d="M36.55,17.6v4.11a.21.21,0,0,1-.12.17.68.68,0,0,1-.59,0,.21.21,0,0,1-.12-.17V17.6a.23.23,0,0,0,.12.18.65.65,0,0,0,.59,0A.2.2,0,0,0,36.55,17.6Z"/></clipPath><clipPath id="clip-path-10"><path class="cls-2" d="M36.48,6.81v4.11c0,.06,0,.12-.13.17a.66.66,0,0,1-.58,0,.21.21,0,0,1-.12-.18V6.81a.21.21,0,0,0,.12.17.68.68,0,0,0,.59,0A.21.21,0,0,0,36.48,6.81Z"/></clipPath><clipPath id="clip-path-11"><path class="cls-1" d="M41.24,21.73v4.11a.21.21,0,0,1-.12.17.68.68,0,0,1-.59,0,.21.21,0,0,1-.12-.17V21.73a.2.2,0,0,0,.13.17.6.6,0,0,0,.58,0A.2.2,0,0,0,41.24,21.73Z"/></clipPath><clipPath id="clip-path-12"><path class="cls-2" d="M41.17,10.94V15a.19.19,0,0,1-.12.17.62.62,0,0,1-.59,0,.19.19,0,0,1-.12-.17v-4.1a.21.21,0,0,0,.12.17.68.68,0,0,0,.59,0A.21.21,0,0,0,41.17,10.94Z"/></clipPath><clipPath id="clip-path-13"><path class="cls-1" d="M45.12,13.27v4.11a.21.21,0,0,1-.12.17.68.68,0,0,1-.59,0,.21.21,0,0,1-.12-.17V13.27a.2.2,0,0,0,.12.17.62.62,0,0,0,.59,0A.2.2,0,0,0,45.12,13.27Z"/></clipPath><clipPath id="clip-path-14"><path class="cls-2" d="M45.05,2.48l0,4.11a.21.21,0,0,1-.12.17.66.66,0,0,1-.58,0,.23.23,0,0,1-.13-.18l0-4.1a.21.21,0,0,0,.12.17.68.68,0,0,0,.59,0A.21.21,0,0,0,45.05,2.48Z"/></clipPath></defs><title>Zasób 8</title><g id="Warstwa_2" data-name="Warstwa 2"><g id="Layer_1" data-name="Layer 1"><polygon class="cls-4" points="0.37 70.7 33.82 88.11 81.21 59.35 49.47 40.77 0.37 70.7"/><g class="cls-5"><polygon class="cls-6" points="61.62 58.35 62.75 57.69 62.82 31.49 61.7 32.14 61.62 58.35"/><polygon class="cls-7" points="61.7 32.14 62.82 31.49 47.59 22.69 46.46 23.35 61.7 32.14"/><polygon class="cls-8" points="46.46 23.35 46.39 49.55 61.62 58.35 61.7 32.14 46.46 23.35"/></g><g class="cls-5"><polygon class="cls-9" points="23.69 80.64 24.81 79.99 24.89 53.78 23.76 54.44 23.69 80.64"/><polygon class="cls-7" points="23.76 54.44 24.89 53.78 9.66 44.99 8.53 45.65 23.76 54.44"/><polygon class="cls-10" points="8.53 45.65 8.45 71.85 23.69 80.64 23.76 54.44 8.53 45.65"/></g><g class="cls-5"><polygon class="cls-9" points="1.71 47.42 1.71 49.09 21.35 60.5 21.34 58.83 1.71 47.42"/><polygon class="cls-9" points="21.34 58.83 21.35 60.5 66.06 34.69 66.05 33.02 21.34 58.83"/><polygon class="cls-11" points="1.71 47.42 21.34 58.83 66.05 33.02 46.41 21.6 1.71 47.42"/></g><polygon class="cls-8" points="34.88 37.17 40.05 40.17 52.3 33.1 47.13 30.1 34.88 37.17"/><g class="cls-5"><polygon class="cls-12" points="35.51 36.35 35.51 37.08 39.1 39.17 39.09 38.43 35.51 36.35"/><polygon class="cls-13" points="39.09 38.43 39.1 39.17 47.59 34.26 47.58 33.53 39.09 38.43"/><polygon class="cls-14" points="35.51 36.35 39.09 38.43 47.58 33.53 44 31.45 35.51 36.35"/><polygon class="cls-14" points="35.51 36.35 47.58 33.53 47.58 33.53 44 31.45 35.51 36.35"/></g><g class="cls-5"><polygon class="cls-12" points="38.82 37.06 38.18 36.69 38.17 30.07 38.8 30.43 38.82 37.06"/><polygon class="cls-15" points="38.8 30.43 38.17 30.07 43.93 26.73 44.57 27.11 38.8 30.43"/><polygon class="cls-13" points="44.57 27.11 44.59 33.73 38.82 37.06 38.8 30.43 44.57 27.11"/></g><polygon class="cls-12" points="33.01 37.01 32.4 36.84 29.76 23.85 30.38 24.02 33.01 37.01"/><polygon class="cls-13" points="30.38 24.02 29.76 23.85 46.9 13.96 47.51 14.13 30.38 24.02"/><polygon class="cls-14" points="47.51 14.13 50.15 27.12 33.01 37.01 30.38 24.02 47.51 14.13"/><polygon class="cls-16" points="47.05 15.17 49.39 26.87 33.53 36.05 31.1 24.19 47.05 15.17"/><polygon class="cls-17" points="32.64 24.02 32.77 24.67 31.89 25.18 31.76 24.52 32.64 24.02"/><polygon class="cls-17" points="33.04 25.69 33.16 26.34 32.29 26.84 32.16 26.19 33.04 25.69"/><polygon class="cls-17" points="33.39 27.49 33.52 28.13 32.64 28.64 32.51 27.99 33.39 27.49"/><polygon class="cls-17" points="33.68 29.13 33.81 29.77 32.93 30.28 32.8 29.62 33.68 29.13"/><polygon class="cls-8" points="16.95 47.34 22.12 50.35 34.37 43.27 29.2 40.27 16.95 47.34"/><g class="cls-5"><polygon class="cls-12" points="17.46 46.7 17.46 47.43 21.05 49.51 21.05 48.78 17.46 46.7"/><polygon class="cls-13" points="21.05 48.78 21.05 49.51 29.54 44.61 29.54 43.88 21.05 48.78"/><polygon class="cls-14" points="17.46 46.7 21.05 48.78 29.54 43.88 25.95 41.79 17.46 46.7"/><polygon class="cls-14" points="17.46 46.7 29.54 43.88 29.54 43.88 25.95 41.79 17.46 46.7"/></g><g class="cls-5"><polygon class="cls-12" points="20.77 47.41 20.14 47.04 20.12 40.41 20.75 40.78 20.77 47.41"/><polygon class="cls-15" points="20.75 40.78 20.12 40.41 25.89 37.08 26.52 37.45 20.75 40.78"/><polygon class="cls-13" points="26.52 37.45 26.54 44.08 20.77 47.41 20.75 40.78 26.52 37.45"/></g><polygon class="cls-12" points="14.97 47.36 14.35 47.19 11.72 34.2 12.33 34.37 14.97 47.36"/><polygon class="cls-13" points="12.33 34.37 11.72 34.2 28.85 24.3 29.47 24.48 12.33 34.37"/><polygon class="cls-14" points="29.47 24.48 32.1 37.47 14.97 47.36 12.33 34.37 29.47 24.48"/><polygon class="cls-16" points="29 25.51 31.35 37.22 15.48 46.39 13.05 34.54 29 25.51"/><polygon class="cls-17" points="14.59 34.37 14.72 35.01 13.85 35.52 13.71 34.87 14.59 34.37"/><polygon class="cls-17" points="14.99 36.04 15.12 36.68 14.24 37.19 14.11 36.53 14.99 36.04"/><polygon class="cls-17" points="15.34 37.83 15.47 38.48 14.6 38.99 14.46 38.33 15.34 37.83"/><polygon class="cls-17" points="15.63 39.47 15.76 40.12 14.89 40.63 14.75 39.97 15.63 39.47"/><g class="cls-5"><polygon class="cls-18" points="36.3 43.36 36.3 44.19 40.69 46.73 40.68 45.91 36.3 43.36"/><polygon class="cls-19" points="40.68 45.91 40.69 46.73 56.02 37.88 56.02 37.06 40.68 45.91"/><polygon class="cls-13" points="36.3 43.36 40.68 45.91 56.02 37.06 51.63 34.51 36.3 43.36"/><polygon class="cls-14" points="37.33 43.22 38.83 44.09 53.02 35.95 51.42 35.13 37.33 43.22"/><polygon class="cls-14" points="39.56 44.39 41.05 45.26 55.24 37.12 53.65 36.3 39.56 44.39"/></g><path class="cls-20" d="M61.85,65.3c6,3.11,6,8.11.06,11.19s-15.52,3.11-21.52,0-6-8.11-.07-11.19S55.89,62.21,61.85,65.3Z"/><g class="cls-21"><path class="cls-22" d="M63.19,55.45C70,59,70,64.68,63.27,68.19s-17.68,3.55-24.52,0S31.94,59,38.67,55.45,56.41,51.94,63.19,55.45Z"/></g><g class="cls-23"><path class="cls-24" d="M64.54,45.6c7.67,4,7.64,10.36.08,14.29s-19.83,4-27.5,0S29.47,49.54,37,45.6,56.93,41.66,64.54,45.6Z"/></g><g class="cls-25"><path class="cls-26" d="M65.88,35.75c8.5,4.41,8.47,11.48.09,15.85S44,56,35.49,51.6,27,40.12,35.39,35.75,57.44,31.38,65.88,35.75Z"/></g><g class="cls-27"><path class="cls-28" d="M67.22,25.9c9.34,4.84,9.3,12.61.1,17.4s-24.13,4.84-33.47,0-9.31-12.6-.11-17.4S58,21.11,67.22,25.9Z"/></g><g class="cls-29"><path class="cls-30" d="M68.57,16.05c10.16,5.27,10.12,13.73.1,19s-26.28,5.28-36.45,0S22.08,21.28,32.1,16.05,58.48,10.83,68.57,16.05Z"/></g><g class="cls-31"><path class="cls-32" d="M69.91,6.2c11,5.71,11,14.86.12,20.51s-28.44,5.7-39.44,0-11-14.86-.14-20.51S59,.55,69.91,6.2Z"/></g><g class="cls-33"><path class="cls-34" d="M61.85,65.35c6,3.12,6,8.11.06,11.19s-15.52,3.11-21.52,0-6-8.1-.07-11.19S55.89,62.27,61.85,65.35Z"/></g><path class="cls-35" d="M63,39.1C61.56,38.77,60.4,43,58.14,46L53,42.59c-1.4.64-.89.95-.89.95a13.83,13.83,0,0,0,5.66,5.25h0a2,2,0,0,0,1.07.17c2.58-1.29,4-3.93,5.19-7.2C64.87,39.42,63,39.1,63,39.1Z"/><path class="cls-36" d="M63.11,38.26s4.6,1.07,0,7.81c0,0-3.15.47-3.87-2.49C59.24,43.58,60.78,38,63.11,38.26Z"/><path class="cls-35" d="M53,42.55s-1.84-2.29-3.94-2.06c0,0-.07.64.81,1A1.74,1.74,0,0,1,51,42.8c0,.12-.74.11-1.06.09s-.77.45,0,.6a10.82,10.82,0,0,0,2.83.55S53.64,43.18,53,42.55Z"/><path class="cls-37" d="M59.9,69.45a.5.5,0,0,1-.29.4l-9.08,5.24a1.66,1.66,0,0,1-.31.12h0a1.29,1.29,0,0,1-.35,0h0a1.27,1.27,0,0,1-.34,0h0a1.33,1.33,0,0,1-.3-.11l-.1-.08h0L49,74.91h0l-.05-.09v0a.3.3,0,0,1,0-.1h0v.73a.06.06,0,0,1,0,0h0s0,0,0,.05v0s0,0,0,0h0l.06.06h0l.06.06a.1.1,0,0,1,0,0h0a.85.85,0,0,0,.22.09l.09,0h0l.06,0,.12,0h.4l.09,0,.1,0,.12,0a.61.61,0,0,0,.14-.07l9.08-5.24a.49.49,0,0,0,.29-.4Z"/><path class="cls-37" d="M60.42,74.45v0a.36.36,0,0,1,0,.09h0a.32.32,0,0,1-.08.09l-.07,0-.05,0a1.34,1.34,0,0,1-.3.12h0a1.86,1.86,0,0,1-.33,0h0a2,2,0,0,1-.34,0h0a1.43,1.43,0,0,1-.31-.12l-9.08-5.24a.47.47,0,0,1-.28-.4v.67a.49.49,0,0,0,.29.4l9.08,5.25.14.06.12,0,.05,0h.14l.1,0h.3l.12,0h.1l.08,0,.22-.09h0l0,0,.06,0h0l.06-.07a0,0,0,0,1,0,0v0s0,0,0,0,0,0,0-.06h0v-.76h0A.29.29,0,0,1,60.42,74.45Z"/><path class="cls-38" d="M60.15,74c.38.22.38.58,0,.79a1.5,1.5,0,0,1-1.37,0l-9.08-5.24c-.38-.22-.38-.58,0-.79a1.48,1.48,0,0,1,1.36,0Z"/><path class="cls-39" d="M44.6,65.26s-1.16.39-.75,1,1.95,1.44,2.2,1.84,1.64,1.76,2,1.55,1.3-.15.89-1.89S46.17,64.92,44.6,65.26Z"/><path class="cls-40" d="M44.19,53.07s-1.85.77.32,10.14l1.14,4.94s1.2,1.83,3.73,0l-1.25-10.3Z"/><path class="cls-39" d="M46.15,70.07s.77,1.64-.64,2.2-1.08-.4-4.15.73-3.61-.45-3.57-.83,2.06-1.24,2.73-1.5,2.48-1,2.48-1l3.21-.14Z"/><path class="cls-40" d="M41,55.5s-1.37.64.73,9.76c1.14,4.94,1.15,4.94,1.15,4.94s1.2,1.82,3.73,0L45.33,59.9Z"/><path class="cls-41" d="M45.54,61.63,44.35,61l1.08,9.81a5,5,0,0,0,1.15-.63Z"/><path class="cls-41" d="M48.83,63.62l-1.55-1.47,1.24,6.51a5.07,5.07,0,0,0,.86-.51Z"/><path class="cls-38" d="M49.17,74.3a.42.42,0,0,0,0,.79,1.5,1.5,0,0,0,1.37,0l9.08-5.24c.38-.23.38-.58,0-.79a1.47,1.47,0,0,0-1.37,0Z"/><path class="cls-39" d="M56.1,64.83h0a.57.57,0,0,0-.34-.48,1.85,1.85,0,0,0-1.67,0c-.27.16-.38.37-.33.58a.29.29,0,0,1,0-.09h0l0,6.73s0,.05,0,.07a.06.06,0,0,1,0,0s0,0,0,0h0l0,.07s0,0,0,0l0,0a0,0,0,0,0,0,0,.46.46,0,0,0,.07.07h0L54,72l.05,0h0a1.15,1.15,0,0,0,.25.12l.1,0,.06,0h.06l.15,0h.37l.12,0,.11,0h.06l.07,0,.14,0,.17-.08a.59.59,0,0,0,.35-.48ZM54,65.27h0l.06,0ZM53.77,65a.19.19,0,0,0,0,.09.19.19,0,0,1,0-.09Zm.07.14,0,.06,0-.06Z"/><path class="cls-8" d="M53.58,66.31a.66.66,0,0,0-.08-.13h0L53.39,66l-.1-.1a.46.46,0,0,0-.07-.07l-.31-.29-.07,0-.35-.29-.06,0c-.15-.11-.3-.23-.47-.34l-.13-.1-.45-.32-.1-.07L50.71,64l-.18-.12L50,63.5l-.1-.06c-.22-.14-.44-.28-.67-.41L49,62.91l-.73-.43-1.06-.6-.06,0-.94-.49-.08,0-.83-.41-.07,0-.73-.32,0,0L44,60.36l-.09,0-.36-.11-.06,0-.17,0-.09,0h-.16l-.09,0h0l9.91-5.76h.33l.18.05h0l.37.12.07,0,.45.18h0l.73.33.1,0,.78.39.14.06.87.46.11.07c.34.18.69.37,1,.58l.73.43.19.12c.23.13.45.27.67.41l.1.07c.19.12.38.23.55.35l.19.12.57.38.1.07.45.32.14.1c.16.11.31.23.45.34a.71.71,0,0,0,.09.07l.32.26.08.07.3.27,0,0,.08.08.07.08,0,0h0l.07.08,0,0h0l0,0s0,0,0,0v.08h0v.06h0a.11.11,0,0,1-.05.09L53.56,66.5a.09.09,0,0,0,0-.08.26.26,0,0,0,0-.11Z"/><path class="cls-42" d="M48.28,62.48c-2.94-1.7-5.33-2.7-5.33-2.22s2.38,2.24,5.32,3.94,5.34,2.69,5.34,2.22S51.22,64.18,48.28,62.48Z"/><path class="cls-40" d="M62.58,58.17s-.34,4.71-5.5,3.29-8.71-2.79-8.71-2.79-6.58-4.54-4-5.7C44.38,53,46.78,50.57,62.58,58.17Z"/><path class="cls-40" d="M62.58,58.17s-.34,4.71-5.5,3.29-8.71-2.79-8.71-2.79-6.58-4.54-4-5.7C44.38,53,46.78,50.57,62.58,58.17Z"/><path class="cls-40" d="M59.78,60.21s-.34,4.71-5.49,3.3a68.42,68.42,0,0,1-11-4.42S39,56.18,41.58,55C41.58,55,44,52.62,59.78,60.21Z"/><path class="cls-43" d="M41.58,55c-.63.29-.85.67-.83,1.1,4,0,13,3.1,13,3.1l.08-1.67C43.35,53.26,41.58,55,41.58,55Z"/><path class="cls-44" d="M44.56,52.74c-.64.29-.86.68-.83,1.1,4,0,13,3.11,13,3.11l.08-1.68C46.33,51,44.56,52.74,44.56,52.74Z"/><path class="cls-36" d="M63.3,38.27s2.18,1.14.86,4.88-2.26,6.14-2.22,7.54a61.79,61.79,0,0,0,.75,7.09s.3,3.1-6.8,4.8c0,0-5.83.47-4.8-3.34A50.2,50.2,0,0,0,52.5,47.78c-.12-1.48-.94-4.44,2.78-6.36S60.94,38.08,63.3,38.27Z"/><path class="cls-45" d="M52.5,47.78a50.2,50.2,0,0,1-1.41,11.46c-.71,2.64,1.87,3.22,3.52,3.33.56-1.7-.27-4.76,1-8.47,1.61-4.58,1.45-7.63.69-10.1a2.54,2.54,0,0,0-2.13-1.91C51.73,44,52.39,46.46,52.5,47.78Z"/><path class="cls-36" d="M62.69,57.78a61.79,61.79,0,0,1-.75-7.09c0-1.4.92-3.8,2.22-7.54,1.22-3.54-.11-4.5-.86-4.88-.43,1.83-6.82,2.49-6.7,3.72s1.83,2.69,1.88,5.14a36,36,0,0,1-.81,7.9,22.78,22.78,0,0,0,0,7C62.94,60.32,62.69,57.78,62.69,57.78Z"/><path class="cls-35" d="M60.72,36.36a6.35,6.35,0,0,0,.37,3.2c.59,1.13-4.05,2-4.14,1a4.44,4.44,0,0,0-.17-3.81C56.22,35.71,60.72,36.36,60.72,36.36Z"/><path class="cls-46" d="M61.07,39.63a5.7,5.7,0,0,1-.41-2.86l-3.41,1.61h0c.12,0,2.39.66,2.85,2.3C60.8,40.42,61.28,40,61.07,39.63Z"/><path class="cls-35" d="M56,31.05a8.52,8.52,0,0,0-.64,3.31c.12,1.65-.13,2,0,2.71a1.81,1.81,0,0,0,.35,1.1c.5.49,1.55.7,3,.21,1.74-.6,3.6-2.93,2.9-5.07S58.58,29.37,56,31.05Z"/><path class="cls-47" d="M61.38,35.61a30.14,30.14,0,0,0-2.3-4.38,5.07,5.07,0,0,0-1.19-.84,3.88,3.88,0,0,0-1.94.66,10.39,10.39,0,0,0-.38,1.14c.4.47,1.23,1,1.35,1.4a5,5,0,0,1-.21,2.92c-.28.61.81,1.53.56,2.07a.17.17,0,0,0,0,.07,4.82,4.82,0,0,0,1.34-.27A5,5,0,0,0,61.38,35.61Z"/><path class="cls-48" d="M55.45,30.31a2.22,2.22,0,0,0,1.22,2.29c.89.46.78,1.92.73,2.18a7.65,7.65,0,0,0-.23,1.66c.21.31.93-.63,1.27-.55.85.18.5,1-.29,1.79s1.32,1.28,2.35.57c.54-.38.74-.61,1.47-2,1.06-2,1.16-4.46-1.22-5.81S56.94,30.93,55.45,30.31Z"/><path class="cls-49" d="M60.5,38.25c.54-.38.74-.61,1.47-2,1.06-2,1.16-4.46-1.22-5.81s-3.81.49-5.3-.13a2.36,2.36,0,0,0,0,.62c.76.13,2.84.59,3.36,1.49.64,1.12,1.38.78,1.3,2.16s.23,3.05-2,3.76A2.25,2.25,0,0,0,60.5,38.25Z"/><path class="cls-42" d="M56.26,53c-.31-.32-1.14,2.48-1.86,6.24s-1.08,7.07-.77,7.38,1.14-2.48,1.87-6.24S56.57,53.28,56.26,53Z"/><path class="cls-8" d="M66.26,46.29s0-.08,0-.11,0,0,0-.06v0a0,0,0,0,0,0,0v0h0v0h-.13l-9.91,7h0l.05,0h0s0,0,0,0h0s0,0,0,0h0v.1a.43.43,0,0,1,0,0s0,.07,0,.11a36.57,36.57,0,0,1-.86,7.05c-.66,3.38-1.4,6-1.76,6.25l9.81-5.74c.36-.26,1.2-4.14,1.85-7.52A35.75,35.75,0,0,0,66.26,46.29Z"/><path class="cls-35" d="M44.34,47.8s-3.58-1.41-2.87-3.4c.11-.32.5-.75,1,0s2.17,1.26,2.24,2C44.74,46.48,45.08,48.25,44.34,47.8Z"/><path class="cls-35" d="M54.68,43c-1.39-.34-2.55,3.85-4.81,6.93l-5.13-3.45c-1.4.65-.89,1-.89,1a13.83,13.83,0,0,0,5.66,5.24h0a2.05,2.05,0,0,0,1.06.16c2.59-1.29,4-3.93,5.2-7.19C56.6,43.31,54.68,43,54.68,43Z"/><path class="cls-36" d="M54.83,42.15s4.61,1.08,0,7.81c0,0-3.14.47-3.86-2.49C51,47.47,52.51,41.88,54.83,42.15Z"/><path class="cls-35" d="M43.79,45.3s-.19-.79,0-.86a3.34,3.34,0,0,1,1,2C44.62,47,43.79,45.3,43.79,45.3Z"/><path class="cls-50" d="M5.83,30.58a.53.53,0,0,0-.49,0,.19.19,0,0,0-.1.14h0v3.39a.17.17,0,0,0,.09.14l0,0h.37l.07,0h0l0,0h0l0,0h0v0h0V30.73h0v0A.19.19,0,0,0,5.83,30.58Zm0,.25,0,0h0Zm0,0v0h0Zm-.06.07Zm-.56,0h0Zm0-.07h0Zm0,0v0Z"/><path class="cls-51" d="M7.08,27.58v.05s0,0,0,0,0,0,0,0,0,0,0,0,0,0,0,.05l0,0a.1.1,0,0,1,0,.05s0,0,0,0L6.88,28l0,0,0,0,0,0,0,0-.06,0a1,1,0,0,1-.21.1l-.06,0-.22.07h0l-.23,0H5.29l-.24-.05H5a1.66,1.66,0,0,1-.21-.06h0l-.23-.11a.76.76,0,0,1-.45-.62v3.95a.76.76,0,0,0,.45.62,1.36,1.36,0,0,0,.21.1h.06l.13,0,.07,0h.08l.15,0H5.9l.13,0h0l.15,0,.08,0,.06,0,.06,0a1,1,0,0,0,.21-.1h0l0,0,0,0,0,0,0,0h0v0a.23.23,0,0,0,.07-.07h0v0l0,0s0,0,0,0H7s0,0,0-.05v0H7l0,0v0h0V31.5h0V27.54A.06.06,0,0,1,7.08,27.58Z"/><path class="cls-50" d="M6.64,26.92c.59.34.6.89,0,1.23a2.33,2.33,0,0,1-2.12,0,.65.65,0,0,1,0-1.23A2.33,2.33,0,0,1,6.64,26.92Z"/><path class="cls-51" d="M5.88,24h0l0,0h0l0,0h0l0,0-.1,0H5.4a.21.21,0,0,1-.11,0,.17.17,0,0,1-.1-.14v3.45a.17.17,0,0,0,.1.15l0,0,0,0H5.7l.07,0h0l0,0h0l0,0h0v0h0V24h0A0,0,0,0,0,5.88,24Z"/><path class="cls-50" d="M5.78,23.86a.15.15,0,0,1,0,.29.53.53,0,0,1-.49,0,.15.15,0,0,1,0-.29A.53.53,0,0,1,5.78,23.86Z"/><path class="cls-50" d="M13.12,20.36a.51.51,0,0,0-.48,0,.17.17,0,0,0-.1.14h0v3.38a.19.19,0,0,0,.1.15l0,0h.37l.07,0h0l0,0,0,0h0l0,0h0s0,0,0,0h0V20.5h0v0A.15.15,0,0,0,13.12,20.36Zm.06.24a0,0,0,0,1,0,0h0S13.18,20.59,13.18,20.6Zm0,0s0,0,0,0h0S13.21,20.55,13.21,20.56Zm-.06.06h0s0,0,0,0S13.14,20.63,13.15,20.62Zm-.57,0,0,0Zm0-.07v0Zm0,0h0Z"/><path class="cls-51" d="M14.38,17.36v.05s0,0,0,0l0,0s0,0,0,0,0,0,0,0a.08.08,0,0,0,0,0l0,.05,0,0-.07.07,0,0-.05,0,0,0-.05,0-.06,0-.21.11-.06,0-.22.07h0l-.23,0h-.05l-.25,0h0l-.25,0h0l-.24,0h0l-.21-.06,0,0a.91.91,0,0,1-.22-.11.75.75,0,0,1-.45-.61v3.94a.75.75,0,0,0,.44.62L12,22h0l0,0,.13,0,.08,0h.08l.15,0h.68l.13,0h.05l.15,0,.08,0,.06,0,.06,0a1,1,0,0,0,.21-.1h0l0,0,.06,0,0,0,.05,0h0a.46.46,0,0,1,.07-.07v0h0l0-.06v0h0l0,0v0h0s0,0,0-.05a0,0,0,0,1,0,0h0v-4S14.38,17.34,14.38,17.36Z"/><path class="cls-50" d="M13.94,16.69a.65.65,0,0,1,0,1.23,2.27,2.27,0,0,1-2.12,0c-.59-.33-.6-.89,0-1.22A2.36,2.36,0,0,1,13.94,16.69Z"/><path class="cls-51" d="M13.18,13.82h0l0,0h0l0,0,0,0,0,0L13,14h0l-.12,0h0l-.12,0h0l-.11,0a.18.18,0,0,1-.11-.15v3.46a.19.19,0,0,0,.11.15l.05,0H13l.08,0h0s0,0,0,0h0l0,0h0v0h0V13.79h0Z"/><path class="cls-50" d="M13.08,13.64a.15.15,0,0,1,0,.29.53.53,0,0,1-.49,0,.15.15,0,0,1,0-.29A.53.53,0,0,1,13.08,13.64Z"/><path class="cls-50" d="M16.14,13a.51.51,0,0,0-.48,0,.14.14,0,0,0-.1.13h0v3.39a.16.16,0,0,0,.1.14l0,0h.36a.15.15,0,0,0,.07,0h0l0,0h0l0,0h0v0a0,0,0,0,0,0,0h0V13.09h0v0A.15.15,0,0,0,16.14,13Zm.05.24,0,0h0Zm0,0a0,0,0,0,0,0,0h0A0,0,0,0,1,16.22,13.15Zm-.06.06h0l0,0Zm-.56,0v0Zm0-.07h0Zm0,0h0Z"/><path class="cls-51" d="M17.4,10s0,0,0,0,0,0,0,0a.11.11,0,0,1,0,.05l0,0s0,0,0,.05l0,0,0,.05,0,0-.06.06,0,0,0,0,0,0-.06,0-.06,0a1,1,0,0,1-.21.1l-.05,0-.22.07h0l-.23,0h0l-.25,0h0l-.25,0h0l-.24,0h0l-.21-.07h0l-.23-.11a.73.73,0,0,1-.44-.62v3.95a.71.71,0,0,0,.44.62l.22.11h0l.13.05h.07l0,0h0l.14,0H16l.17,0h.06l.13,0,.05,0,.15,0,.08,0,.07,0,0,0a1,1,0,0,0,.21-.1h0l0,0,.06,0,0,0,0,0h0l0,0,.06-.07h0l0-.06,0,0h0s0,0,0,0l0,0h0a.43.43,0,0,1,0,0s0,0,0,0h0a.06.06,0,0,1,0,0V10Z"/><path class="cls-50" d="M17,9.28a.65.65,0,0,1,0,1.23,2.33,2.33,0,0,1-2.12,0,.65.65,0,0,1,0-1.23A2.35,2.35,0,0,1,17,9.28Z"/><path class="cls-51" d="M16.19,6.41h0l0,0h0l0,0,0,0h0a.21.21,0,0,1-.11,0h-.27a.43.43,0,0,1-.12,0,.17.17,0,0,1-.1-.14V9.83a.17.17,0,0,0,.1.14l.05,0H16l.08,0h0l0,0h0l0,0h0a0,0,0,0,0,0,0h0v0s0,0,0,0V6.37h0A.06.06,0,0,1,16.19,6.41Z"/><path class="cls-50" d="M16.09,6.23c.14.08.14.21,0,.28a.55.55,0,0,1-.5,0c-.14-.07-.14-.2,0-.28A.53.53,0,0,1,16.09,6.23Z"/><path class="cls-50" d="M24.62,15.31a.51.51,0,0,0-.48,0,.19.19,0,0,0-.1.14h0v3.38a.19.19,0,0,0,.1.15l.05,0h.37l.07,0h0l0,0h0s0,0,0,0h0s0,0,0,0h0V15.45h0v0A.15.15,0,0,0,24.62,15.31Zm.06.24s0,0,0,0h0S24.68,15.54,24.68,15.55Zm0,0v0h0Zm-.06.06h0l0,0Zm-.57,0,0,0Zm0-.07v0Zm0,0h0Z"/><path class="cls-51" d="M25.88,12.31v.08l0,0s0,0,0,0,0,0,0,0a.05.05,0,0,0,0,0l0,0,0,0-.07.07,0,0,0,0,0,0,0,0-.06,0-.21.09-.06,0-.22.06h0l-.23,0h0l-.26,0h0l-.25,0h0l-.24,0h0L23.59,13h0l-.23-.1a.77.77,0,0,1-.45-.63v4a.78.78,0,0,0,.44.62l.22.1h0l0,0,.13,0,.08,0h.08l.15,0h.68l.13,0h.05L25,17l.08,0,.06,0,.06,0,.21-.09,0,0,0,0,.06,0,0,0,.05,0h0a.46.46,0,0,1,.07-.07s0,0,0,0h0a.21.21,0,0,1,0-.06v0h0l0,0v0h0l0-.05v0h0v0a0,0,0,0,1,0,0v-4S25.88,12.29,25.88,12.31Z"/><path class="cls-50" d="M25.44,11.64a.66.66,0,0,1,0,1.24,2.39,2.39,0,0,1-2.12,0c-.59-.35-.59-.9,0-1.23A2.3,2.3,0,0,1,25.44,11.64Z"/><path class="cls-51" d="M24.68,8.77h0l0,0h0l0,0,0,0,0,0-.11,0h0l-.12,0h0l-.12,0h0l-.11,0A.19.19,0,0,1,24,8.73v3.46a.17.17,0,0,0,.11.14l.05,0h.32a0,0,0,0,0,0,0h0l.08,0h0l0,0h0s0,0,0,0h0s0,0,0,0h0v0h0V8.74h0Z"/><path class="cls-50" d="M24.58,8.59a.15.15,0,0,1,0,.29.53.53,0,0,1-.49,0,.15.15,0,0,1,0-.29A.53.53,0,0,1,24.58,8.59Z"/><path class="cls-50" d="M27.64,22.09a.51.51,0,0,0-.48,0,.15.15,0,0,0-.1.14h0v3.38a.16.16,0,0,0,.1.14l.05,0h.36a.09.09,0,0,0,.07,0h0l0,0h0l0,0h0v0a0,0,0,0,0,0,0h0V22.23h0v0A.15.15,0,0,0,27.64,22.09Zm.05.24,0,0h0Zm0,0a0,0,0,0,0,0,0h0A0,0,0,0,1,27.72,22.29Zm-.06.06h0l0,0Zm-.56,0h0Zm0-.07h0Zm0,0a0,0,0,0,1,0,0A0,0,0,0,0,27.07,22.29Z"/><path class="cls-51" d="M28.9,19.09a.06.06,0,0,0,0,0s0,0,0,0a.11.11,0,0,1,0,0l0,0s0,0,0,.05l0,0,0,.06,0,0-.06.06,0,0s0,0,0,0l0,0-.06,0a.13.13,0,0,1-.06,0,1,1,0,0,1-.21.1l-.05,0-.22.07h0l-.23,0h0l-.25,0h0l-.25,0h0l-.24,0h-.05l-.21-.07h0l-.23-.11A.73.73,0,0,1,25.9,19V23a.71.71,0,0,0,.44.62l.22.11h.05l.13.05h.07l.05,0h0l.14,0h.45l.17,0h.06l.13,0,.05,0,.15,0,.08,0,.07,0,0,0a1,1,0,0,0,.21-.1h0l0,0,.06,0,0,0,0,0h0l0,0,.06-.06v0h0l0-.06,0,0h0s0,0,0-.05l0,0h0a.43.43,0,0,1,0-.05s0,0,0,0h0a.06.06,0,0,1,0,0V19.09Z"/><path class="cls-50" d="M28.46,18.42a.65.65,0,0,1,0,1.23,2.33,2.33,0,0,1-2.12,0,.65.65,0,0,1,0-1.23A2.35,2.35,0,0,1,28.46,18.42Z"/><path class="cls-51" d="M27.69,15.55h0l0,0h0l0,0s0,0,0,0h0a.21.21,0,0,1-.11,0h-.27l-.12,0a.19.19,0,0,1-.1-.15V19a.17.17,0,0,0,.1.14l.05,0h.37l.08,0h0l0,0h0l0,0h0v0h0v0s0,0,0,0V15.51h0A.06.06,0,0,1,27.69,15.55Z"/><path class="cls-50" d="M27.59,15.37c.14.08.14.21,0,.28a.58.58,0,0,1-.5,0,.15.15,0,0,1,0-.29A.53.53,0,0,1,27.59,15.37Z"/><g class="cls-5"><g class="cls-5"><path class="cls-1" d="M2.08,38.21l0,4.11a.21.21,0,0,1-.12.17.66.66,0,0,1-.58,0,.21.21,0,0,1-.13-.18v-4.1c0,.06.05.12.13.17a.66.66,0,0,0,.58,0C2,38.33,2.08,38.27,2.08,38.21Z"/><g class="cls-52"><g class="cls-5"><polygon class="cls-1" points="2.08 38.21 2.06 42.32 2.06 42.32 2.08 38.22 2.08 38.21 2.08 38.21"/><path class="cls-1" d="M2.08,38.22l0,4.1V38.24a0,0,0,0,1,0,0Z"/><path class="cls-1" d="M2.07,38.24v4.1a0,0,0,0,1,0,0V38.24Z"/><path class="cls-1" d="M2.06,38.26v4.11s0,0,0,0V38.26Z"/><path class="cls-1" d="M2.05,38.29v4.1s0,0,0,0V38.29Z"/><path class="cls-1" d="M2,38.31v4.11l0,0v-4.1l0,0Z"/><path class="cls-1" d="M2,38.34v4.1l-.05,0v-4.1l0,0Z"/><path class="cls-1" d="M2,38.38v4.1h0l-.09,0V38.42a.19.19,0,0,0,.09,0Z"/><path class="cls-1" d="M1.86,38.42v4.11l-.08,0V38.44l.08,0Z"/><path class="cls-1" d="M1.78,38.44v4.11H1.72v-4.1Z"/><path class="cls-1" d="M1.73,38.45v4.1H1.67V38.45Z"/><path class="cls-1" d="M1.68,38.45v4.11h0V38.45Z"/><path class="cls-1" d="M1.64,38.45v4.11h0v-4.1Z"/><path class="cls-1" d="M1.6,38.45v4.1h0V38.44Z"/><path class="cls-1" d="M1.56,38.44v4.11h0v-4.1Z"/><path class="cls-1" d="M1.52,38.44v4.1h0v-4.1Z"/><path class="cls-1" d="M1.48,38.43v4.1H1.42V38.41l.05,0Z"/><path class="cls-1" d="M1.43,38.41v4.11l-.06,0a.21.21,0,0,1-.13-.18v-4.1c0,.06.05.12.13.17l.06,0Z"/></g></g></g><path class="cls-1" d="M2,38c.16.09.17.25,0,.34a.66.66,0,0,1-.58,0,.18.18,0,0,1,0-.34A.66.66,0,0,1,2,38Z"/></g><path class="cls-2" d="M3.14,31.49a.09.09,0,0,1,0,.05v0s0,0,0,.05l0,0,0,0,0,0,0,.05,0,0-.07.08,0,0,0,0,0,0-.06,0-.06,0-.22.1-.06,0-.15,0-.15,0-.19,0H1.27l-.25,0H1l-.21-.06,0,0a1.33,1.33,0,0,1-.24-.11A.77.77,0,0,1,0,31.44l0,6.84a.77.77,0,0,0,.46.64L.69,39H.74l.13,0,.08,0,.05,0H1l.15,0H2l.06,0,.15,0,.09,0,.06,0,.06,0,.22-.11h0l0,0,.06,0,0,0,0,0h0a0,0,0,0,1,0,0L3,38.68s0,0,0,0H3l0-.06,0,0h0a.17.17,0,0,0,0-.05l0,0h0a.09.09,0,0,0,0,0v0h0V38.3h0l0-6.84Z"/><path class="cls-3" d="M2.68,30.8a.68.68,0,0,1,0,1.28,2.46,2.46,0,0,1-2.21,0,.68.68,0,0,1,0-1.28A2.46,2.46,0,0,1,2.68,30.8Z"/><path class="cls-2" d="M2,27.42v4.1a.2.2,0,0,1-.12.17.62.62,0,0,1-.59,0,.2.2,0,0,1-.12-.17v-4.1c0,.06,0,.12.13.17a.66.66,0,0,0,.58,0A.21.21,0,0,0,2,27.42Z"/><g class="cls-53"><g class="cls-5"><polygon class="cls-2" points="2 27.42 1.99 31.52 1.99 31.53 2 27.42 2 27.42 2 27.42"/><path class="cls-2" d="M2,27.42v0Z"/><path class="cls-2" d="M2,27.45v4.1a0,0,0,0,0,0,0v-4.1a0,0,0,0,0,0,0Z"/><path class="cls-2" d="M2,27.47v4.1s0,0,0,0V27.49s0,0,0,0Z"/><path class="cls-2" d="M2,27.49V31.6l0,0v-4.1s0,0,0,0Z"/><path class="cls-2" d="M2,27.52v4.1l0,0v-4.1s0,0,0,0Z"/><path class="cls-2" d="M1.94,27.55v4.1l-.06,0,0-4.11.05,0Z"/><path class="cls-2" d="M1.89,27.58l0,4.11h0l-.09,0v-4.1l.09,0Z"/><path class="cls-2" d="M1.79,27.63v4.1l-.08,0v-4.1l.08,0Z"/><path class="cls-2" d="M1.71,27.65v4.1H1.65v-4.1Z"/><path class="cls-2" d="M1.66,27.66v4.1h0v-4.1Z"/><path class="cls-2" d="M1.61,27.66v4.1h0v-4.1Z"/><path class="cls-2" d="M1.57,27.66v4.1h0v-4.1Z"/><path class="cls-2" d="M1.53,27.66v4.1h0V27.65Z"/><path class="cls-2" d="M1.49,27.65v4.11H1.43l0-4.11Z"/><path class="cls-2" d="M1.45,27.64l0,4.11h0l0-4.11Z"/><path class="cls-2" d="M1.41,27.63l0,4.11,0,0v-4.1Z"/><path class="cls-2" d="M1.35,27.62v4.1l-.06,0a.2.2,0,0,1-.12-.17v-4.1c0,.06,0,.12.13.17l.05,0Z"/></g></g><path class="cls-3" d="M1.88,27.25c.16.09.16.24,0,.34a.66.66,0,0,1-.58,0c-.17-.1-.17-.25,0-.34A.62.62,0,0,1,1.88,27.25Z"/><g class="cls-5"><g class="cls-5"><path class="cls-3" d="M10,29.18v4.11a.21.21,0,0,1-.12.17.68.68,0,0,1-.59,0,.21.21,0,0,1-.12-.17V29.18a.21.21,0,0,0,.12.17.62.62,0,0,0,.59,0A.21.21,0,0,0,10,29.18Z"/><g class="cls-54"><g class="cls-5"><polygon class="cls-1" points="10.03 29.18 10.02 33.29 10.02 33.29 10.03 29.18 10.03 29.18 10.03 29.18"/><path class="cls-1" d="M10,29.19v0Z"/><path class="cls-1" d="M10,29.21v4.1s0,0,0,0V29.21Z"/><path class="cls-1" d="M10,29.23v0Z"/><path class="cls-1" d="M10,29.26v4.1l0,0V29.28l0,0Z"/><path class="cls-1" d="M10,29.28v4.11l0,0v-4.1l0,0Z"/><path class="cls-1" d="M10,29.31v4.1l-.06,0v-4.1l.06,0Z"/><path class="cls-1" d="M9.91,29.35v4.1h0l-.09,0V29.39l.09,0Z"/><path class="cls-1" d="M9.82,29.39V33.5l-.08,0V29.41l.08,0Z"/><path class="cls-1" d="M9.74,29.41v4.11H9.68v-4.1Z"/><path class="cls-1" d="M9.69,29.42v4.1h0V29.42Z"/><path class="cls-1" d="M9.64,29.42v4.11h0V29.42Z"/><path class="cls-1" d="M9.6,29.42v4.11h0V29.42Z"/><path class="cls-1" d="M9.56,29.42v4.11h0V29.41Z"/><path class="cls-1" d="M9.52,29.41v4.11h0v-4.1Z"/><path class="cls-1" d="M9.48,29.41v4.1H9.42V29.4Z"/><path class="cls-1" d="M9.43,29.4v4.1H9.37V29.38l0,0Z"/><path class="cls-1" d="M9.38,29.38v4.11l-.06,0a.21.21,0,0,1-.12-.17V29.18a.21.21,0,0,0,.12.17l.06,0Z"/></g></g></g><path class="cls-1" d="M9.91,29a.18.18,0,0,1,0,.34.62.62,0,0,1-.59,0,.18.18,0,0,1,0-.34A.68.68,0,0,1,9.91,29Z"/></g><path class="cls-2" d="M11.1,22.46a.11.11,0,0,0,0,.05s0,0,0,0,0,0,0,.05,0,0,0,0,0,0,0,.05l0,0,0,.05,0,0-.06.08,0,0,0,0,0,0-.06,0,0,0-.22.1-.06,0-.15,0-.16,0a1.08,1.08,0,0,1-.19,0h0l-.27,0h0l-.26,0h0L9,23.25H8.93l-.22-.06,0,0-.23-.11A.76.76,0,0,1,8,22.41l0,6.84a.77.77,0,0,0,.46.64.91.91,0,0,0,.22.11h0l.14.05h.08l0,0H9l.16,0h.71l.13,0,.06,0,.15,0,.08,0,.07,0,.06,0,.22-.11a0,0,0,0,0,0,0l0,0s0,0,.05,0l0,0s0,0,0,0h0l0,0,.06-.07,0,0h0l0-.06s0,0,0,0h0s0,0,0-.05,0,0,0,0h0s0,0,0-.05,0,0,0,0h0a.11.11,0,0,1,0-.05v0h0l0-6.84Z"/><path class="cls-3" d="M10.64,21.77a.68.68,0,0,1,0,1.28,2.46,2.46,0,0,1-2.21,0,.67.67,0,0,1,0-1.28A2.46,2.46,0,0,1,10.64,21.77Z"/><path class="cls-2" d="M10,18.39v4.1a.19.19,0,0,1-.12.17.62.62,0,0,1-.59,0,.2.2,0,0,1-.12-.17v-4.1a.21.21,0,0,0,.12.17.68.68,0,0,0,.59,0A.21.21,0,0,0,10,18.39Z"/><g class="cls-55"><g class="cls-5"><polygon class="cls-2" points="9.96 18.39 9.95 22.49 9.95 22.5 9.96 18.39 9.96 18.39 9.96 18.39"/><path class="cls-2" d="M10,18.39V22.5s0,0,0,0V18.39Z"/><path class="cls-2" d="M10,18.42v0Z"/><path class="cls-2" d="M10,18.44v4.1a0,0,0,0,0,0,0V18.44Z"/><path class="cls-2" d="M9.94,18.46v4.11l0,0v-4.1l0,0Z"/><path class="cls-2" d="M9.92,18.49v4.1l0,0v-4.1l0,0Z"/><path class="cls-2" d="M9.89,18.52v4.1a.1.1,0,0,1-.05,0V18.55l.05,0Z"/><path class="cls-2" d="M9.84,18.55v4.11h0l-.1,0,0-4.1.09,0Z"/><path class="cls-2" d="M9.75,18.6l0,4.1-.07,0v-4.1l.08,0Z"/><path class="cls-2" d="M9.67,18.62v4.1H9.6l0-4.1Z"/><path class="cls-2" d="M9.62,18.63l0,4.1h0v-4.1Z"/><path class="cls-2" d="M9.57,18.63v4.1h0v-4.1Z"/><path class="cls-2" d="M9.53,18.63v4.1h0l0-4.1Z"/><path class="cls-2" d="M9.49,18.63l0,4.1h0V18.62Z"/><path class="cls-2" d="M9.44,18.62v4.11h0v-4.1Z"/><path class="cls-2" d="M9.4,18.62v4.1h0V18.6l0,0Z"/><path class="cls-2" d="M9.36,18.6v4.11l0,0v-4.1Z"/><path class="cls-2" d="M9.31,18.59v4.1s0,0-.06,0a.2.2,0,0,1-.12-.17v-4.1a.21.21,0,0,0,.12.17l.06,0Z"/></g></g><path class="cls-3" d="M9.84,18.22c.16.09.16.24,0,.34a.68.68,0,0,1-.59,0c-.16-.1-.16-.25,0-.34A.62.62,0,0,1,9.84,18.22Z"/><g class="cls-5"><g class="cls-5"><path class="cls-3" d="M20.74,16.05v4.1a.21.21,0,0,1-.12.17.68.68,0,0,1-.59,0,.21.21,0,0,1-.12-.17v-4.1a.21.21,0,0,0,.12.17.68.68,0,0,0,.59,0A.21.21,0,0,0,20.74,16.05Z"/><g class="cls-56"><g class="cls-5"><polygon class="cls-1" points="20.74 16.05 20.73 20.15 20.73 20.16 20.74 16.05 20.74 16.05 20.74 16.05"/><path class="cls-1" d="M20.74,16.05v0Z"/><path class="cls-1" d="M20.74,16.07v0Z"/><path class="cls-1" d="M20.73,16.1v0s0,0,0,0Z"/><path class="cls-1" d="M20.72,16.12v4.11s0,0,0,0v-4.1l0,0Z"/><path class="cls-1" d="M20.7,16.15v4.1s0,0,0,0V16.17l0,0Z"/><path class="cls-1" d="M20.68,16.17v4.11l-.06,0,0-4.11.05,0Z"/><path class="cls-1" d="M20.63,16.21l0,4.11h0l-.09,0v-4.1l.09,0Z"/><path class="cls-1" d="M20.53,16.26v4.1l-.08,0v-4.1l.08,0Z"/><path class="cls-1" d="M20.45,16.28v4.1h-.05V16.28Z"/><path class="cls-1" d="M20.4,16.28v4.11h-.05v-4.1Z"/><path class="cls-1" d="M20.35,16.29v4.1h0v-4.1Z"/><path class="cls-1" d="M20.31,16.29v4.1h0V16.28Z"/><path class="cls-1" d="M20.27,16.28v4.11h-.05l0-4.1Z"/><path class="cls-1" d="M20.23,16.28l0,4.1h0V16.27Z"/><path class="cls-1" d="M20.19,16.27v4.11h-.05V16.26Z"/><path class="cls-1" d="M20.14,16.26v4.11l-.05,0V16.24l.05,0Z"/><path class="cls-1" d="M20.09,16.24v4.11l-.06,0a.21.21,0,0,1-.12-.17v-4.1a.21.21,0,0,0,.12.17l.06,0Z"/></g></g></g><path class="cls-1" d="M20.62,15.87a.19.19,0,0,1,0,.35.68.68,0,0,1-.59,0,.19.19,0,0,1,0-.35A.68.68,0,0,1,20.62,15.87Z"/></g><path class="cls-2" d="M21.81,9.33a.06.06,0,0,0,0,0v.05a.06.06,0,0,0,0,0s0,0,0,0l0,.05,0,0,0,.06,0,0-.06.07,0,0,0,0,0,0-.06,0-.05,0-.22.1-.06,0-.15.05a.76.76,0,0,1-.16,0l-.18,0h-.05l-.26,0h-.35l-.25,0h0L19.42,10h0l-.23-.11a.79.79,0,0,1-.46-.65l0,6.84a.78.78,0,0,0,.46.65l.22.11h0l.14.05.08,0h.08l.16,0h.71l.13,0h.06l.15,0,.08,0,.07,0,.06,0,.22-.1h0l0,0,.05,0,.05,0,0,0h0l0,0,.06-.07h0s0,0,0,0l0-.06v0h0s0,0,0-.05,0,0,0,0h0s0,0,0,0,0,0,0,0h0a.07.07,0,0,1,0,0v-.05l0-6.84Z"/><path class="cls-3" d="M21.35,8.64a.68.68,0,0,1,0,1.28,2.46,2.46,0,0,1-2.21,0c-.61-.36-.62-.93,0-1.28A2.4,2.4,0,0,1,21.35,8.64Z"/><path class="cls-2" d="M20.67,5.25V9.36a.21.21,0,0,1-.12.17.68.68,0,0,1-.59,0,.21.21,0,0,1-.12-.17V5.25a.21.21,0,0,0,.12.17.62.62,0,0,0,.59,0A.19.19,0,0,0,20.67,5.25Z"/><g class="cls-57"><g class="cls-5"><polygon class="cls-2" points="20.67 5.25 20.66 9.36 20.66 9.36 20.67 5.26 20.67 5.25 20.67 5.25"/><path class="cls-2" d="M20.67,5.26v4.1a0,0,0,0,1,0,0V5.26Z"/><path class="cls-2" d="M20.66,5.28v0Z"/><path class="cls-2" d="M20.66,5.3v0Z"/><path class="cls-2" d="M20.65,5.33v4.1l0,0V5.35l0,0Z"/><path class="cls-2" d="M20.63,5.35V9.46l0,0V5.38l0,0Z"/><path class="cls-2" d="M20.6,5.38V9.49l-.05,0V5.42l.05,0Z"/><path class="cls-2" d="M20.55,5.42v4.1h0l-.1,0,0-4.11.09,0Z"/><path class="cls-2" d="M20.46,5.46l0,4.11-.07,0V5.48l.08,0Z"/><path class="cls-2" d="M20.38,5.48V9.59h-.06l0-4.1Z"/><path class="cls-2" d="M20.33,5.49l0,4.1h0V5.49Z"/><path class="cls-2" d="M20.28,5.49V9.6h-.05l0-4.11Z"/><path class="cls-2" d="M20.24,5.49l0,4.11h0l0-4.11Z"/><path class="cls-2" d="M20.2,5.49l0,4.11h0V5.49Z"/><path class="cls-2" d="M20.15,5.49v4.1h0V5.48Z"/><path class="cls-2" d="M20.11,5.48v4.1h0V5.47Z"/><path class="cls-2" d="M20.07,5.47v4.1h0V5.45l.05,0Z"/><path class="cls-2" d="M20,5.45V9.56l-.06,0a.21.21,0,0,1-.12-.17V5.25a.21.21,0,0,0,.12.17l.06,0Z"/></g></g><path class="cls-3" d="M20.55,5.08c.16.1.16.25,0,.34a.62.62,0,0,1-.59,0c-.16-.09-.16-.24,0-.34A.68.68,0,0,1,20.55,5.08Z"/><g class="cls-5"><g class="cls-5"><path class="cls-1" d="M32.37,23.69v4.1a.21.21,0,0,1-.12.17.68.68,0,0,1-.59,0,.21.21,0,0,1-.12-.17V23.68a.2.2,0,0,0,.12.17.62.62,0,0,0,.59,0A.19.19,0,0,0,32.37,23.69Z"/><g class="cls-58"><g class="cls-5"><polygon class="cls-1" points="32.37 23.68 32.36 27.79 32.36 27.79 32.37 23.69 32.37 23.68 32.37 23.68"/><path class="cls-1" d="M32.37,23.69v0Z"/><path class="cls-1" d="M32.37,23.71v4.11s0,0,0,0V23.71Z"/><path class="cls-1" d="M32.36,23.74v4.1s0,0,0,0V23.74Z"/><path class="cls-1" d="M32.35,23.76v4.11l0,0V23.78s0,0,0,0Z"/><path class="cls-1" d="M32.33,23.78v4.11s0,0,0,0l0-4.11,0,0Z"/><path class="cls-1" d="M32.31,23.81l0,4.11,0,0V23.85a.13.13,0,0,0,.06,0Z"/><path class="cls-1" d="M32.25,23.85V28h0l-.09,0V23.89l.09,0Z"/><path class="cls-1" d="M32.16,23.89V28l-.08,0V23.91l.08,0Z"/><path class="cls-1" d="M32.08,23.91V28H32l0-4.11Z"/><path class="cls-1" d="M32,23.92,32,28h0V23.92Z"/><path class="cls-1" d="M32,23.92V28h0l0-4.11Z"/><path class="cls-1" d="M31.94,23.92l0,4.11h0l0-4.11Z"/><path class="cls-1" d="M31.9,23.92l0,4.11h0l0-4.1Z"/><path class="cls-1" d="M31.86,23.92l0,4.1h0V23.91Z"/><path class="cls-1" d="M31.81,23.91V28l0,0V23.9Z"/><path class="cls-1" d="M31.77,23.9V28h-.05V23.88l.05,0Z"/><path class="cls-1" d="M31.72,23.88V28l-.06,0a.21.21,0,0,1-.12-.17V23.68a.2.2,0,0,0,.12.17s0,0,.06,0Z"/></g></g></g><path class="cls-1" d="M32.25,23.51c.16.1.16.25,0,.34a.62.62,0,0,1-.59,0c-.16-.09-.16-.24,0-.34A.68.68,0,0,1,32.25,23.51Z"/></g><path class="cls-2" d="M33.43,17v0s0,0,0,0,0,0,0,.05,0,0,0,0,0,0,0,.05l0,0,0,.06,0,0-.06.07,0,0s0,0,0,.05l0,0-.06,0-.06,0-.21.11-.07,0-.14.05-.16,0-.19,0h-.05l-.26,0h0l-.26,0h0l-.25,0,0,0a1.41,1.41,0,0,1-.22-.06h0l-.23-.11a.81.81,0,0,1-.47-.65v6.84a.76.76,0,0,0,.46.65l.22.11H31l.14.05.08,0h.08l.16,0h.7l.14,0h.05l.16,0,.08,0,.07,0,.06,0,.21-.1s0,0,0,0l.05,0a.1.1,0,0,1,0,0,.08.08,0,0,0,0,0l.05,0h0l0,0,.06-.07s0,0,0,0h0l0-.06a0,0,0,0,0,0,0h0l0-.05s0,0,0,0h0a.06.06,0,0,1,0,0v0h0v-.05a0,0,0,0,0,0,0v0l0-6.84S33.43,17,33.43,17Z"/><path class="cls-3" d="M33,16.28a.67.67,0,0,1,0,1.27,2.41,2.41,0,0,1-2.2,0c-.62-.36-.62-.93,0-1.28A2.4,2.4,0,0,1,33,16.28Z"/><path class="cls-2" d="M32.3,12.89l0,4.11a.19.19,0,0,1-.12.17.66.66,0,0,1-.58,0,.23.23,0,0,1-.13-.18l0-4.1a.21.21,0,0,0,.12.17.6.6,0,0,0,.58,0C32.26,13,32.3,13,32.3,12.89Z"/><g class="cls-59"><g class="cls-5"><polygon class="cls-2" points="32.3 12.89 32.28 17 32.28 17 32.3 12.9 32.3 12.89 32.3 12.89"/><path class="cls-2" d="M32.3,12.9l0,4.1V12.9Z"/><path class="cls-2" d="M32.29,12.92v0Z"/><path class="cls-2" d="M32.29,12.94v4.11l0,0,0-4.1a0,0,0,0,1,0,0Z"/><path class="cls-2" d="M32.28,13l0,4.1V13l0,0Z"/><path class="cls-2" d="M32.26,13V17.1l0,0V13l0,0Z"/><path class="cls-2" d="M32.23,13v4.1a.1.1,0,0,1,0,0v-4.1l0,0Z"/><path class="cls-2" d="M32.18,13.06v4.1h0l-.09,0V13.1a.19.19,0,0,0,.09,0Z"/><path class="cls-2" d="M32.08,13.1v4.11l-.07,0V13.12l.07,0Z"/><path class="cls-2" d="M32,13.12v4.11h-.06v-4.1Z"/><path class="cls-2" d="M32,13.13v4.1h-.05l0-4.11Z"/><path class="cls-2" d="M31.91,13.13l0,4.11h0V13.13Z"/><path class="cls-2" d="M31.86,13.13v4.11h0V13.13Z"/><path class="cls-2" d="M31.82,13.13v4.11h0V13.12Z"/><path class="cls-2" d="M31.78,13.12v4.11h0v-4.1Z"/><path class="cls-2" d="M31.74,13.12v4.1h0v-4.1Z"/><path class="cls-2" d="M31.7,13.11v4.1h-.05V13.09l.05,0Z"/><path class="cls-2" d="M31.65,13.09V17.2l-.06,0a.23.23,0,0,1-.13-.18l0-4.1a.21.21,0,0,0,.12.17l.06,0Z"/></g></g><path class="cls-1" d="M32.17,12.72c.17.1.17.25,0,.34a.6.6,0,0,1-.58,0c-.16-.09-.17-.24,0-.34A.66.66,0,0,1,32.17,12.72Z"/><g class="cls-5"><g class="cls-5"><path class="cls-1" d="M36.55,17.6v4.11a.21.21,0,0,1-.12.17.68.68,0,0,1-.59,0,.21.21,0,0,1-.12-.17V17.6a.23.23,0,0,0,.12.18.65.65,0,0,0,.59,0A.2.2,0,0,0,36.55,17.6Z"/><g class="cls-60"><g class="cls-5"><polygon class="cls-1" points="36.55 17.6 36.54 21.71 36.54 21.71 36.55 17.61 36.55 17.6 36.55 17.6"/><path class="cls-1" d="M36.55,17.61v0Z"/><path class="cls-1" d="M36.55,17.63v0Z"/><path class="cls-1" d="M36.54,17.66v0a0,0,0,0,0,0,0Z"/><path class="cls-1" d="M36.53,17.68v4.1l0,0V17.7a0,0,0,0,0,0,0Z"/><path class="cls-1" d="M36.51,17.7v4.11s0,0,0,0V17.73s0,0,0,0Z"/><path class="cls-1" d="M36.49,17.73v4.11l-.06,0,0-4.11.05,0Z"/><path class="cls-1" d="M36.44,17.77l0,4.11h0l-.09,0V17.81l.09,0Z"/><path class="cls-1" d="M36.34,17.81v4.11l-.08,0V17.83l.08,0Z"/><path class="cls-1" d="M36.26,17.83v4.11h0V17.84Z"/><path class="cls-1" d="M36.21,17.84V22h-.05V17.84Z"/><path class="cls-1" d="M36.16,17.84V22h0V17.84Z"/><path class="cls-1" d="M36.12,17.84V22h0V17.84Z"/><path class="cls-1" d="M36.08,17.84V22h0v-4.1Z"/><path class="cls-1" d="M36,17.84v4.1h0V17.83Z"/><path class="cls-1" d="M36,17.83v4.11l-.05,0v-4.1Z"/><path class="cls-1" d="M36,17.82v4.1h0V17.8l.05,0Z"/><path class="cls-1" d="M35.9,17.8v4.11l-.06,0a.21.21,0,0,1-.12-.17V17.6a.23.23,0,0,0,.12.18l.06,0Z"/></g></g></g><path class="cls-1" d="M36.43,17.43c.16.1.16.25,0,.34a.65.65,0,0,1-.59,0,.19.19,0,0,1,0-.35A.68.68,0,0,1,36.43,17.43Z"/></g><path class="cls-2" d="M37.61,10.89v0s0,0,0,0,0,0,0,0,0,0,0,0,0,0,0,0l0,0,0,.06,0,0-.06.07,0,0a.1.1,0,0,1,0,0,.08.08,0,0,1,0,0l-.06,0,0,0-.22.11-.06,0-.15,0-.16,0-.18,0h0l-.27,0h0l-.25,0h0l-.25,0,0,0-.22-.06h0L35,11.48a.79.79,0,0,1-.46-.65l0,6.84a.79.79,0,0,0,.46.65l.22.1h.05l.14,0,.08,0h.09l.15,0h.7l.14,0h.06l.15,0,.08,0,.07,0,.06,0,.22-.1h0s0,0,0,0l0,0,.05,0,0,0h0l0,0,.07-.07v0h0l0-.06v0h0l0-.05a0,0,0,0,0,0,0h0v0s0,0,0,0h0a.43.43,0,0,1,0-.05v-.05l0-6.84A.09.09,0,0,1,37.61,10.89Z"/><path class="cls-3" d="M37.16,10.2a.67.67,0,0,1,0,1.27,2.43,2.43,0,0,1-2.21,0c-.61-.36-.62-.93,0-1.29A2.43,2.43,0,0,1,37.16,10.2Z"/><path class="cls-2" d="M36.48,6.81v4.11c0,.06,0,.12-.13.17a.66.66,0,0,1-.58,0,.21.21,0,0,1-.12-.18V6.81a.21.21,0,0,0,.12.17.68.68,0,0,0,.59,0A.21.21,0,0,0,36.48,6.81Z"/><g class="cls-61"><g class="cls-5"><polygon class="cls-2" points="36.48 6.81 36.47 10.92 36.47 10.92 36.48 6.82 36.48 6.81 36.48 6.81"/><path class="cls-2" d="M36.48,6.82v4.12l0-4.1v0Z"/><path class="cls-2" d="M36.48,6.84l0,4.1V6.86a0,0,0,0,1,0,0Z"/><path class="cls-2" d="M36.47,6.86v0Z"/><path class="cls-2" d="M36.46,6.89V11l0,0V6.91l0,0Z"/><path class="cls-2" d="M36.44,6.91V11l0,0,0-4.1s0,0,0,0Z"/><path class="cls-2" d="M36.42,6.94l0,4.1a.1.1,0,0,1,0,0V7l.06,0Z"/><path class="cls-2" d="M36.36,7v4.1h0a.19.19,0,0,1-.08,0V7l.09,0Z"/><path class="cls-2" d="M36.27,7v4.1l-.08,0V7l.08,0Z"/><path class="cls-2" d="M36.19,7v4.11h-.06l0-4.1Z"/><path class="cls-2" d="M36.14,7.05l0,4.1h0V7.05Z"/><path class="cls-2" d="M36.09,7.05v4.11h0l0-4.11Z"/><path class="cls-2" d="M36.05,7.05l0,4.11h0l0-4.1Z"/><path class="cls-2" d="M36,7.05l0,4.1h0L36,7Z"/><path class="cls-2" d="M36,7l0,4.11h0V7Z"/><path class="cls-2" d="M35.92,7v4.1h0V7Z"/><path class="cls-2" d="M35.88,7v4.1h0V7l.05,0Z"/><path class="cls-2" d="M35.83,7v4.11l-.06,0a.21.21,0,0,1-.12-.18V6.81a.21.21,0,0,0,.12.17l.06,0Z"/></g></g><path class="cls-1" d="M36.36,6.64c.16.1.16.25,0,.34a.68.68,0,0,1-.59,0c-.16-.09-.16-.24,0-.34A.68.68,0,0,1,36.36,6.64Z"/><g class="cls-5"><g class="cls-5"><path class="cls-1" d="M41.24,21.73v4.11a.21.21,0,0,1-.12.17.68.68,0,0,1-.59,0,.21.21,0,0,1-.12-.17V21.73a.2.2,0,0,0,.13.17.6.6,0,0,0,.58,0A.2.2,0,0,0,41.24,21.73Z"/><g class="cls-62"><g class="cls-5"><polygon class="cls-1" points="41.24 21.73 41.23 25.84 41.23 25.84 41.24 21.74 41.24 21.73 41.24 21.73"/><path class="cls-1" d="M41.24,21.74v0Z"/><path class="cls-1" d="M41.24,21.76v0s0,0,0,0Z"/><path class="cls-1" d="M41.23,21.78v0a0,0,0,0,0,0,0Z"/><path class="cls-1" d="M41.22,21.81v4.1s0,0,0,0l0-4.11s0,0,0,0Z"/><path class="cls-1" d="M41.21,21.83l0,4.11,0,0v-4.1l0,0Z"/><path class="cls-1" d="M41.18,21.86V26a.1.1,0,0,1-.05,0V21.9l0,0Z"/><path class="cls-1" d="M41.13,21.9V26h0l-.09,0V21.94l.09,0Z"/><path class="cls-1" d="M41,21.94v4.11l-.08,0V22l.08,0Z"/><path class="cls-1" d="M41,22v4.11h0V22Z"/><path class="cls-1" d="M40.9,22v4.1h0V22Z"/><path class="cls-1" d="M40.85,22v4.11h0V22Z"/><path class="cls-1" d="M40.81,22v4.11h0V22Z"/><path class="cls-1" d="M40.77,22v4.11h0V22Z"/><path class="cls-1" d="M40.73,22v4.11h0V22Z"/><path class="cls-1" d="M40.69,22v4.1h0l0-4.1Z"/><path class="cls-1" d="M40.65,22l0,4.1h-.05l0-4.11,0,0Z"/><path class="cls-1" d="M40.6,21.93l0,4.11-.06,0a.21.21,0,0,1-.12-.17V21.73a.2.2,0,0,0,.13.17l.06,0Z"/></g></g></g><path class="cls-1" d="M41.12,21.56c.16.1.17.25,0,.34a.6.6,0,0,1-.58,0c-.17-.09-.17-.24,0-.34A.68.68,0,0,1,41.12,21.56Z"/></g><path class="cls-2" d="M42.31,15a.43.43,0,0,1,0,.05v0s0,0,0,.05l0,0,0,.05,0,0a.1.1,0,0,1,0,.05.05.05,0,0,0,0,0l-.07.07,0,0,0,0-.05,0-.06,0,0,0-.22.1-.06,0-.15,0-.15,0-.19,0H41l-.26,0h-.05l-.25,0h0l-.25,0h0l-.21-.06,0,0a1.33,1.33,0,0,1-.24-.11.77.77,0,0,1-.46-.64l0,6.84a.79.79,0,0,0,.46.65l.22.1h.06l.13.05.08,0h.09l.15,0h.71l.13,0,.06,0,.15,0,.09,0,.06,0,.06,0a1.51,1.51,0,0,0,.22-.11h0l0,0,.05,0,0,0a.08.08,0,0,0,0,0h0v0l.07-.07s0,0,0,0h0l0-.06s0,0,0,0h0l0,0,0,0h0v0a0,0,0,0,0,0,0h0a.43.43,0,0,0,0,0v0h0l0-6.84Z"/><path class="cls-3" d="M41.85,14.32c.61.36.62.93,0,1.28a2.46,2.46,0,0,1-2.21,0,.68.68,0,0,1,0-1.28A2.46,2.46,0,0,1,41.85,14.32Z"/><path class="cls-2" d="M41.17,10.94V15a.19.19,0,0,1-.12.17.62.62,0,0,1-.59,0,.19.19,0,0,1-.12-.17v-4.1a.21.21,0,0,0,.12.17.68.68,0,0,0,.59,0A.21.21,0,0,0,41.17,10.94Z"/><g class="cls-63"><g class="cls-5"><polygon class="cls-2" points="41.17 10.94 41.16 15.04 41.16 15.05 41.17 10.94 41.17 10.94 41.17 10.94"/><path class="cls-2" d="M41.17,10.94v0Z"/><path class="cls-2" d="M41.17,11v0Z"/><path class="cls-2" d="M41.16,11v0s0,0,0,0Z"/><path class="cls-2" d="M41.15,11v4.11l0,0V11l0,0Z"/><path class="cls-2" d="M41.13,11v4.1l0,0,0-4.1,0,0Z"/><path class="cls-2" d="M41.11,11.07l0,4.1a.1.1,0,0,1-.05,0v-4.1l.06,0Z"/><path class="cls-2" d="M41.05,11.11v4.1h0l-.09,0v-4.1l.09,0Z"/><path class="cls-2" d="M41,11.15v4.1l-.08,0v-4.1l.08,0Z"/><path class="cls-2" d="M40.88,11.17v4.1h0v-4.1Z"/><path class="cls-2" d="M40.83,11.18v4.1h0v-4.1Z"/><path class="cls-2" d="M40.78,11.18v4.1h0v-4.1Z"/><path class="cls-2" d="M40.74,11.18v4.1h0v-4.1Z"/><path class="cls-2" d="M40.7,11.18v4.1h0V11.17Z"/><path class="cls-2" d="M40.66,11.17v4.11h0l0-4.1Z"/><path class="cls-2" d="M40.62,11.17l0,4.1h0V11.15l0,0Z"/><path class="cls-2" d="M40.57,11.15v4.11l-.05,0v-4.1Z"/><path class="cls-2" d="M40.52,11.14v4.1l-.06,0a.19.19,0,0,1-.12-.17v-4.1a.21.21,0,0,0,.12.17l.06,0Z"/></g></g><path class="cls-1" d="M41.05,10.77c.16.09.16.24,0,.34a.68.68,0,0,1-.59,0c-.16-.1-.16-.25,0-.34A.62.62,0,0,1,41.05,10.77Z"/><g class="cls-5"><g class="cls-5"><path class="cls-1" d="M45.12,13.27v4.11a.21.21,0,0,1-.12.17.68.68,0,0,1-.59,0,.21.21,0,0,1-.12-.17V13.27a.2.2,0,0,0,.12.17.62.62,0,0,0,.59,0A.2.2,0,0,0,45.12,13.27Z"/><g class="cls-64"><g class="cls-5"><polygon class="cls-1" points="45.12 13.27 45.11 17.38 45.11 17.38 45.12 13.28 45.12 13.27 45.12 13.27"/><path class="cls-1" d="M45.12,13.28v4.13l0-4.11v0Z"/><path class="cls-1" d="M45.12,13.3l0,4.11V13.3Z"/><path class="cls-1" d="M45.11,13.33v0Z"/><path class="cls-1" d="M45.1,13.35v4.1l0,0V13.37s0,0,0,0Z"/><path class="cls-1" d="M45.08,13.37v4.11l0,0,0-4.11,0,0Z"/><path class="cls-1" d="M45.06,13.4l0,4.11,0,0V13.44l.06,0Z"/><path class="cls-1" d="M45,13.44v4.11h0l-.09,0V13.48l.09,0Z"/><path class="cls-1" d="M44.91,13.48v4.11l-.08,0V13.5l.08,0Z"/><path class="cls-1" d="M44.83,13.5v4.11h-.06l0-4.11Z"/><path class="cls-1" d="M44.78,13.51l0,4.11h0V13.51Z"/><path class="cls-1" d="M44.73,13.51v4.11h0l0-4.11Z"/><path class="cls-1" d="M44.69,13.51l0,4.11h0V13.51Z"/><path class="cls-1" d="M44.65,13.51v4.11h0l0-4.1Z"/><path class="cls-1" d="M44.61,13.51l0,4.1h0V13.5Z"/><path class="cls-1" d="M44.56,13.5v4.1h0v-4.1Z"/><path class="cls-1" d="M44.52,13.49v4.1h0V13.47l.05,0Z"/><path class="cls-1" d="M44.47,13.47v4.11l-.06,0a.21.21,0,0,1-.12-.17V13.27a.2.2,0,0,0,.12.17l.06,0Z"/></g></g></g><path class="cls-1" d="M45,13.1c.16.1.16.25,0,.34a.62.62,0,0,1-.59,0c-.16-.09-.16-.24,0-.34A.68.68,0,0,1,45,13.1Z"/></g><path class="cls-2" d="M46.18,6.56v0a.08.08,0,0,0,0,0l0,.05v0a.08.08,0,0,0,0,0l0,0a.21.21,0,0,0,0,.06l0,0L46,7l0,0a.1.1,0,0,1,0,0l0,0-.06,0-.06,0-.21.11-.07,0-.14,0-.16,0-.19,0h-.05l-.26,0h0l-.26,0h0l-.25,0h0a1.41,1.41,0,0,1-.22-.06h0a1.67,1.67,0,0,1-.23-.12.78.78,0,0,1-.47-.64l0,6.84a.79.79,0,0,0,.47.65l.22.1h.05l.14.05.08,0h.08l.16,0h.7l.14,0h.05l.16,0,.08,0,.07,0,.06,0,.21-.1,0,0,.05,0a.1.1,0,0,1,0,0,.08.08,0,0,0,0,0l.05,0h0l0,0,.06-.07,0,0h0l0-.06,0,0a0,0,0,0,1,0,0s0,0,0,0,0,0,0,0h0v-.08h0v0a0,0,0,0,1,0,0v0l0-6.84S46.18,6.54,46.18,6.56Z"/><path class="cls-3" d="M45.73,5.87a.67.67,0,0,1,0,1.27,2.38,2.38,0,0,1-2.2,0,.67.67,0,0,1,0-1.28A2.43,2.43,0,0,1,45.73,5.87Z"/><path class="cls-2" d="M45.05,2.48l0,4.11a.21.21,0,0,1-.12.17.66.66,0,0,1-.58,0,.23.23,0,0,1-.13-.18l0-4.1a.21.21,0,0,0,.12.17.68.68,0,0,0,.59,0A.21.21,0,0,0,45.05,2.48Z"/><g class="cls-65"><g class="cls-5"><polygon class="cls-2" points="45.05 2.48 45.03 6.59 45.03 6.59 45.05 2.48 45.05 2.48 45.05 2.48"/><path class="cls-2" d="M45.05,2.48l0,4.11V2.51s0,0,0,0Z"/><path class="cls-2" d="M45,2.51V6.64l0-4.11v0Z"/><path class="cls-2" d="M45,2.53l0,4.11s0,0,0,0V2.55l0,0Z"/><path class="cls-2" d="M45,2.55V6.66s0,0,0,0V2.58a0,0,0,0,0,0,0Z"/><path class="cls-2" d="M45,2.58V6.69l0,0V2.61l0,0Z"/><path class="cls-2" d="M45,2.61v4.1a.1.1,0,0,1,0,0V2.65l0,0Z"/><path class="cls-2" d="M44.93,2.65v4.1h0l-.09,0,0-4.1.09,0Z"/><path class="cls-2" d="M44.84,2.69l0,4.1-.07,0V2.71l.08,0Z"/><path class="cls-2" d="M44.76,2.71v4.1h-.06V2.72Z"/><path class="cls-2" d="M44.7,2.72v4.1h0V2.72Z"/><path class="cls-2" d="M44.66,2.72V6.83h0l0-4.11Z"/><path class="cls-2" d="M44.62,2.72l0,4.11h0V2.72Z"/><path class="cls-2" d="M44.57,2.72v4.1h0V2.71Z"/><path class="cls-2" d="M44.53,2.71V6.82h0V2.71Z"/><path class="cls-2" d="M44.49,2.71v4.1h0V2.69l0,0Z"/><path class="cls-2" d="M44.45,2.69V6.8l0,0V2.68Z"/><path class="cls-2" d="M44.4,2.68v4.1l-.06,0a.23.23,0,0,1-.13-.18l0-4.1a.21.21,0,0,0,.12.17l.06,0Z"/></g></g><path class="cls-1" d="M44.92,2.31c.17.09.17.25,0,.34a.68.68,0,0,1-.59,0,.18.18,0,0,1,0-.34A.66.66,0,0,1,44.92,2.31Z"/><polygon class="cls-66" points="1.89 52.33 1.25 52.1 5.26 40.94 9.54 46.26 12.34 39.26 16.75 41.14 19.83 20.99 27.91 34.34 30.79 29.2 36.57 31.36 39.67 27.6 43.55 27.6 49.89 11.08 52.36 20.22 59.84 15.71 60.19 16.29 51.94 21.26 49.77 13.27 44.01 28.28 39.99 28.28 36.79 32.16 31.1 30.03 27.94 35.68 20.22 22.94 17.29 42.11 12.71 40.16 9.74 47.59 5.49 42.31 1.89 52.33"/><path class="cls-50" d="M48.86,6.78a.51.51,0,0,0-.48,0,.17.17,0,0,0-.1.14h0V10.3a.19.19,0,0,0,.1.15l.05,0h.37l.07,0h0l0,0h0l0,0h0v0h0V6.92h0v0A.15.15,0,0,0,48.86,6.78Zm0,.24,0,0h0Zm0,0a0,0,0,0,1,0,0h0A0,0,0,0,0,49,7ZM48.89,7h0l0,0Zm-.57,0,0,0Zm0-.07v0Zm0,0h0Z"/><path class="cls-51" d="M50.12,3.78v.05a0,0,0,0,0,0,0l0,.05s0,0,0,0,0,0,0,0a.08.08,0,0,0,0,0l0,0,0,0-.07.07,0,0,0,0,0,0,0,0-.06,0-.21.1-.06,0-.22.06h0l-.23,0H48.9l-.25,0h0l-.25,0h0l-.24,0h0l-.21-.07h0a1.2,1.2,0,0,1-.23-.11.75.75,0,0,1-.44-.62v4a.75.75,0,0,0,.44.62l.22.11h0l0,0,.13,0,.08,0h.08l.15,0h.68l.13,0h0l.15,0,.08,0,.06,0,.06,0a1,1,0,0,0,.21-.1h0l0,0,.06,0,0,0,.05,0h0L50,8.06s0,0,0,0h0L50,8V8h0a.08.08,0,0,1,0,0v0h0l0-.05a0,0,0,0,1,0,0h0v-4Z"/><path class="cls-50" d="M49.68,3.11a.65.65,0,0,1,0,1.23,2.35,2.35,0,0,1-2.13,0,.64.64,0,0,1,0-1.22A2.3,2.3,0,0,1,49.68,3.11Z"/><path class="cls-51" d="M48.92.24h0s0,0,0,0h0l0,0,0,0,0,0-.11,0h0l-.12,0h0l-.12,0h0l-.11,0A.19.19,0,0,1,48.22.2V3.66a.17.17,0,0,0,.11.14l0,0h.37l.07,0h0s0,0,0,0h0s0,0,0,0h0v0h0V.21h0Z"/><path class="cls-50" d="M48.82.06a.15.15,0,0,1,0,.29.53.53,0,0,1-.49,0,.15.15,0,0,1,0-.29A.53.53,0,0,1,48.82.06Z"/><path class="cls-50" d="M52.86,11.42a.53.53,0,0,0-.49,0,.19.19,0,0,0-.1.14h0V15a.14.14,0,0,0,.1.13s0,0,0,0h.37l.07,0h0l0,0h0l0,0h0v0h0V11.56h0v0A.18.18,0,0,0,52.86,11.42Zm0,.24,0,0h0Zm0,0v0h0Zm-.06.06h0l0,0Zm-.56,0v0Zm0-.07v0Zm0,0h0Z"/><path class="cls-51" d="M54.11,8.42v0s0,0,0,0,0,0,0,.05,0,0,0,0l0,0,0,0,0,.05,0,0-.06.07,0,0,0,0-.05,0,0,0-.06,0-.21.09-.06,0-.22.06h0l-.23,0h0l-.26,0h0l-.25,0h0l-.24,0h0l-.21-.07h0L51.56,9a.77.77,0,0,1-.45-.63v4a.75.75,0,0,0,.45.61l.21.11h0l0,0,.13,0,.07,0h.08l.15,0h.45l.17,0h.06l.13,0h0l.15,0,.08,0,.06,0,.06,0a1,1,0,0,0,.21-.1h0l0,0,.05,0,0,0,0,0h0L54,12.7v0h0l0-.05v0h0l0-.05v0h0s0,0,0-.05v0h0v-4A.09.09,0,0,1,54.11,8.42Z"/><path class="cls-50" d="M53.67,7.75a.65.65,0,0,1,0,1.24,2.39,2.39,0,0,1-2.12,0,.66.66,0,0,1,0-1.24A2.33,2.33,0,0,1,53.67,7.75Z"/><path class="cls-51" d="M52.91,4.88h0s0,0,0,0h0l0,0,0,0h0l-.1,0h-.28l-.11,0a.18.18,0,0,1-.1-.15V8.3a.16.16,0,0,0,.1.14l0,0h.37l.07,0h0l0,0h0l0,0h0a0,0,0,0,1,0,0h0V4.85h0A.08.08,0,0,0,52.91,4.88Z"/><path class="cls-50" d="M52.81,4.7c.14.08.14.21,0,.28a.5.5,0,0,1-.49,0,.15.15,0,0,1,0-.29A.53.53,0,0,1,52.81,4.7Z"/><path class="cls-50" d="M57.14,13.26a.57.57,0,0,0-.48,0,.17.17,0,0,0-.1.14h0v3.39a.17.17,0,0,0,.1.14l.05,0h.37l.06,0h0s0,0,0,0h0l0,0h0s0,0,0,0h0V13.41h0C57.25,13.37,57.22,13.31,57.14,13.26Zm0,.25,0,0h0Zm0,0,0,0h0Zm0,.07Zm-.57,0h0Zm0-.07h0Zm0,0v0Z"/><path class="cls-51" d="M58.4,10.27a.06.06,0,0,1,0,0v0s0,0,0,.05v0s0,0,0,.05l0,0,0,.05,0,0a.46.46,0,0,1-.07.07l0,0-.05,0,0,0,0,0-.06,0-.21.1-.06,0-.22.07h0a1.6,1.6,0,0,1-.23,0H56.6l-.24,0,0,0a.73.73,0,0,1-.21-.06h0l-.23-.11a.75.75,0,0,1-.44-.62v3.95a.77.77,0,0,0,.44.62l.22.1h.05l.13,0h.07l.05,0h0l.15,0h.8l.06,0,.15,0,.08,0,.06,0,.06,0,.21-.1h0l0,0,.06,0,0,0a.1.1,0,0,1,0,0h0l0,0,.06-.07h0v0l0,0,0,0h0l0,0a0,0,0,0,1,0,0h0a.06.06,0,0,0,0,0,0,0,0,0,0,0,0h0a.09.09,0,0,0,0,0v0h0v-3.9Z"/><path class="cls-50" d="M58,9.6a.65.65,0,0,1,0,1.23,2.35,2.35,0,0,1-2.13,0,.65.65,0,0,1,0-1.23A2.35,2.35,0,0,1,58,9.6Z"/><path class="cls-51" d="M57.19,6.73h0v0h0s0,0,0,0l0,0h0l-.11,0h-.27l-.12,0a.19.19,0,0,1-.1-.14v3.46a.19.19,0,0,0,.1.14l.06,0,0,0H57l.08,0h0l0,0h0l0,0h0v0h0V6.69h0A.08.08,0,0,1,57.19,6.73Z"/><path class="cls-50" d="M57.1,6.55c.13.07.13.2,0,.28a.55.55,0,0,1-.5,0c-.13-.08-.13-.21,0-.28A.55.55,0,0,1,57.1,6.55Z"/></g></g></svg>