<svg xmlns="http://www.w3.org/2000/svg" viewBox="0 0 50.38 31.13"><defs><style>.cls-1{fill:#09218f;}.cls-2,.cls-5{fill:#fff;}.cls-3{fill:#212496;}.cls-4{fill:#ff971a;}.cls-5{opacity:0.2;isolation:isolate;}</style></defs><title>Zasób 1</title><g id="Warstwa_2" data-name="Warstwa 2"><g id="Warstwa_1-2" data-name="Warstwa 1"><g id="_2" data-name=" 2"><rect class="cls-1" x="1.18" width="49.2" height="31.13" rx="3.68"/><rect class="cls-2" x="1.18" y="7.17" width="49.2" height="4.76"/><rect class="cls-3" width="49.2" height="31.13" rx="3.68"/><rect class="cls-2" y="7.17" width="49.2" height="4.76"/><rect class="cls-4" x="2.71" y="16.38" width="16.13" height="1.75"/><rect class="cls-4" x="2.71" y="20.57" width="12.78" height="1.75"/><rect class="cls-4" x="16.8" y="20.57" width="10.17" height="1.75"/><rect class="cls-4" x="9.98" y="24.77" width="17" height="1.75"/><rect class="cls-4" x="2.71" y="24.77" width="6" height="1.75"/><path class="cls-4" d="M39.63,21.45a4,4,0,1,1-4-4A4,4,0,0,1,39.63,21.45Z"/><path class="cls-2" d="M46.23,21.45a4,4,0,1,1-4-4A4,4,0,0,1,46.23,21.45Z"/><path class="cls-5" d="M48.6,1.69A3.51,3.51,0,0,0,45.6,0H3.6A3.69,3.69,0,0,0,0,3.78H0V27.34a3.91,3.91,0,0,0,.78,2.33Z"/></g></g></g></svg>